<svg width="43" height="43" viewBox="0 0 43 43" fill="none" xmlns="http://www.w3.org/2000/svg">
<rect x="0.460938" y="0.258789" width="42" height="42" rx="21" fill="#F0F8F2"/>
<path d="M12.9999 28.1264C12.6094 28.5169 12.6094 29.1501 12.9999 29.5406C13.3904 29.9311 14.0236 29.9311 14.4141 29.5406L12.9999 28.1264ZM29.1375 14.4031C29.1375 13.8508 28.6897 13.4031 28.1375 13.4031L19.1375 13.4031C18.5852 13.4031 18.1375 13.8508 18.1375 14.4031C18.1375 14.9553 18.5852 15.4031 19.1375 15.4031L27.1375 15.4031L27.1375 23.4031C27.1375 23.9553 27.5852 24.4031 28.1375 24.4031C28.6897 24.4031 29.1375 23.9553 29.1375 23.4031L29.1375 14.4031ZM14.4141 29.5406L28.8446 15.1102L27.4304 13.696L12.9999 28.1264L14.4141 29.5406Z" fill="#007F62"/>
</svg>
