<svg width="693" height="562" viewBox="0 0 693 562" fill="none" xmlns="http://www.w3.org/2000/svg">
<line x1="380.445" y1="12.5195" x2="380.445" y2="176.249" stroke="#D6572D" stroke-width="2.64079"/>
<path d="M28.7812 126.074L682.817 125.193" stroke="#D6572D" stroke-width="2.64079"/>
<path d="M666.974 75.0181V291.563C666.974 311.982 650.421 328.534 630.003 328.534H501.484" stroke="#D6572D" stroke-width="2.64079"/>
<g filter="url(#filter0_d_770_23)">
<rect x="51.668" y="44.2085" width="596.819" height="473.582" rx="9.06929" fill="white"/>
</g>
<path d="M51.668 51.2506C51.668 47.3613 54.8208 44.2085 58.7101 44.2085H118.568V517.79H58.7101C54.8208 517.79 51.668 514.638 51.668 510.748V51.2506Z" fill="#EFF7F1"/>
<rect x="132.652" y="65.3354" width="109.153" height="9.6829" rx="4.84145" fill="#E5E5E5"/>
<rect x="132.652" y="84.7012" width="186.616" height="9.6829" rx="4.84145" fill="#E5E5E5"/>
<circle cx="85.1182" cy="88.2222" r="15.8448" fill="#007F62"/>
<circle cx="85.1182" cy="133.996" r="15.4046" stroke="#D1E8E3" stroke-width="0.880264"/>
<circle cx="85.1182" cy="179.77" r="15.4046" stroke="#D1E8E3" stroke-width="0.880264"/>
<circle cx="85.1182" cy="225.543" r="15.4046" stroke="#D1E8E3" stroke-width="0.880264"/>
<circle cx="85.1182" cy="271.316" r="15.4046" stroke="#D1E8E3" stroke-width="0.880264"/>
<circle cx="85.1182" cy="317.09" r="15.4046" stroke="#D1E8E3" stroke-width="0.880264"/>
<circle cx="85.1182" cy="473.778" r="15.4046" stroke="#D1E8E3" stroke-width="0.880264"/>
<g clip-path="url(#clip0_770_23)">
<path d="M78.0781 81.1802V87.707H84.605V81.1802H78.0781ZM83.5744 86.6765H79.1087V82.2107H83.5744L83.5744 86.6765Z" fill="white"/>
<path d="M85.6328 81.1802V87.707H92.1596V81.1802H85.6328ZM91.1291 86.6765H86.6634V82.2107H91.1291L91.1291 86.6765Z" fill="white"/>
<path d="M78.0781 88.7373V95.2641H84.605V88.7373H78.0781ZM83.5744 94.2336H79.1087V89.7678H83.5744L83.5744 94.2336Z" fill="white"/>
<path d="M85.6328 88.7378V95.2646H92.1596V88.7378H85.6328ZM91.1291 94.2341H86.6634V89.7683H91.1291L91.1291 94.2341Z" fill="white"/>
</g>
<g opacity="0.8" clip-path="url(#clip1_770_23)">
<path d="M90.9136 131.275L86.592 126.954L85.557 127.989L81.714 127.058L80.6931 131.275H78.3516V141.038H91.8932V138.518V133.795V131.275H90.9136ZM86.592 128.29L89.5775 131.275H83.6064L86.592 128.29ZM82.41 128.199L84.7744 128.771L82.2703 131.275H81.6652L82.41 128.199ZM90.9484 137.574H87.0119C86.2305 137.574 85.5947 136.938 85.5947 136.157C85.5947 135.375 86.2305 134.739 87.0119 134.739H90.9484L90.9484 137.574ZM90.9484 133.795H87.0119C85.7095 133.795 84.65 134.854 84.65 136.157C84.65 137.459 85.7095 138.518 87.0119 138.518H90.9484V140.093H79.2963V132.22H90.9484L90.9484 133.795Z" fill="#007F62"/>
<path d="M87.0088 136.787C87.3566 136.787 87.6386 136.505 87.6386 136.157C87.6386 135.809 87.3566 135.527 87.0088 135.527C86.6609 135.527 86.3789 135.809 86.3789 136.157C86.3789 136.505 86.6609 136.787 87.0088 136.787Z" fill="#007F62"/>
</g>
<g opacity="0.8" clip-path="url(#clip2_770_23)">
<path d="M87.1797 174.406H89.6554V175.231H87.1797V174.406Z" fill="#007F62"/>
<path d="M82.2305 174.406H83.0557V175.231H82.2305V174.406Z" fill="#007F62"/>
<path d="M80.5781 174.406H81.4034V175.231H80.5781V174.406Z" fill="#007F62"/>
<path d="M78.9297 182.686V186.812H91.3084V182.686H88.6409L90.8415 179.385H89.6579V176.909H91.3084V172.728H78.9297V176.909H81.5972L79.3966 180.21H80.5802V182.686H78.9297ZM90.4832 185.987H79.7549V183.511H90.4832V185.987ZM89.2995 180.21L88.42 181.529L87.5405 180.21H88.0074V176.909H88.8327V180.21H89.2995ZM79.7549 173.553H90.4832V176.084H79.7549V173.553ZM87.1822 176.909V179.385H85.9986L88.1992 182.686H83.0559V180.21H84.2395L82.0389 176.909H87.1822ZM80.9385 179.385L81.8181 178.065L82.6976 179.385H82.2307V182.686H81.4054V179.385H80.9385Z" fill="#007F62"/>
<path d="M87.1797 184.336H89.6554V185.162H87.1797V184.336Z" fill="#007F62"/>
<path d="M82.2305 184.336H83.0557V185.162H82.2305V184.336Z" fill="#007F62"/>
<path d="M80.5781 184.336H81.4034V185.162H80.5781V184.336Z" fill="#007F62"/>
</g>
<g opacity="0.8" clip-path="url(#clip3_770_23)">
<path d="M81.3906 266.76H84.7046V267.589H81.3906V266.76Z" fill="#007F62"/>
<path d="M81.3906 268.417H85.1188V269.246H81.3906V268.417Z" fill="#007F62"/>
<path d="M81.3906 270.075H84.7046V270.903H81.3906V270.075Z" fill="#007F62"/>
<path d="M81.3906 271.731H84.7046V272.56H81.3906V271.731Z" fill="#007F62"/>
<path d="M81.3906 273.388H84.7046V274.217H81.3906V273.388Z" fill="#007F62"/>
<path d="M92.1623 271.732C92.1623 270.045 90.8952 268.648 89.2627 268.444V267.004L86.5345 264.275H79.7351V265.104H78.0781V278.36H88.4342V276.703H89.2627V275.02C90.8952 274.815 92.1623 273.419 92.1623 271.732ZM86.7772 265.69L87.8484 266.761H86.7772V265.69ZM87.6057 277.531H78.9066V265.932H79.7351V276.703H87.6057V277.531ZM80.5636 275.874V265.104H85.9487V267.589H88.4342V268.444C86.8017 268.648 85.5345 270.045 85.5345 271.732C85.5345 273.419 86.8017 274.815 88.4342 275.02V275.874H80.5636ZM88.8484 274.217C87.4779 274.217 86.363 273.102 86.363 271.732C86.363 270.361 87.4779 269.246 88.8484 269.246C90.2189 269.246 91.3339 270.361 91.3339 271.732C91.3339 273.102 90.2189 274.217 88.8484 274.217Z" fill="#007F62"/>
<path d="M88.4339 271.974L87.8983 271.438L87.3125 272.024L88.4339 273.146L90.3837 271.196L89.798 270.61L88.4339 271.974Z" fill="#007F62"/>
</g>
<g opacity="0.8" clip-path="url(#clip4_770_23)">
<path d="M88.8339 222.875V218.749H78.0781V226.176H79.7561V228.2L81.4066 227.06V230.302H87.5547L90.4843 232.327V230.302H92.1623V222.875H88.8339ZM78.9034 225.351V219.574H88.0086V225.351H82.4283L80.5814 226.627V225.351H78.9034ZM91.3371 229.477H89.6591V230.753L87.8122 229.477H82.2319V226.489L82.6858 226.176H88.8339V223.7H91.3371V229.477Z" fill="#007F62"/>
<path d="M80.5781 221.225H86.3549V222.05H80.5781V221.225Z" fill="#007F62"/>
<path d="M80.5781 222.875H86.3549V223.7H80.5781V222.875Z" fill="#007F62"/>
<path d="M83.8828 227.001H89.6595V227.826H83.8828V227.001Z" fill="#007F62"/>
</g>
<g opacity="0.8" clip-path="url(#clip5_770_23)">
<path d="M90.8586 321.544L90.2751 322.128L90.6022 322.455H79.7561V320.563L81.8192 318.5L83.4697 320.15L85.9455 317.675L87.5913 319.32L89.3015 317.665L91.5884 319.863L92.1623 319.27L89.8949 317.091L92.1623 314.912L91.5884 314.319L89.3015 316.517L87.5913 314.862L85.9455 316.507L82.6445 313.206L79.7561 316.095V311.43L80.1173 311.719L80.6328 311.074L79.3382 310.049L78.0781 311.08L78.6173 311.714L78.9309 311.452V323.28H90.5516L90.2853 323.53L90.8484 324.133L92.1623 322.878L90.8586 321.544ZM87.6007 316.019L88.7081 317.091L87.6007 318.163L86.5291 317.091L87.6007 316.019ZM82.6445 314.374L85.3619 317.091L83.4697 318.983L81.8192 317.333L79.7561 319.396V317.262L82.6445 314.374Z" fill="#007F62"/>
</g>
<g filter="url(#filter1_d_770_23)">
<rect x="13.8203" y="243.149" width="75.7027" height="75.7027" rx="7.04211" fill="white"/>
</g>
<path d="M41.3279 266.233L44.8894 258.247L45.3084 258.962H40.4159L41.18 258.186V260.428H39.6888V257.606H46.3929V258.678L43.0409 266.233H41.3279ZM46.4541 264.273V263.164L50.7058 257.606H52.4188L48.2287 263.164L47.4277 262.918H54.2674V264.273H46.4541ZM51.1864 266.233V264.273L51.2357 262.918V261.18H52.7392V266.233H51.1864ZM55.7762 266.233L61.667 257.606H62.8747L56.984 266.233H55.7762ZM56.491 262.252C56.0884 262.252 55.7311 262.154 55.4189 261.957C55.1067 261.759 54.8643 261.484 54.6918 261.131C54.5192 260.778 54.433 260.363 54.433 259.886C54.433 259.41 54.5192 258.995 54.6918 258.642C54.8643 258.288 55.1067 258.013 55.4189 257.816C55.7311 257.619 56.0884 257.52 56.491 257.52C56.91 257.52 57.2715 257.619 57.5755 257.816C57.8877 258.013 58.1301 258.288 58.3026 258.642C58.4751 258.995 58.5614 259.41 58.5614 259.886C58.5614 260.363 58.4751 260.778 58.3026 261.131C58.1301 261.484 57.8877 261.759 57.5755 261.957C57.2715 262.154 56.91 262.252 56.491 262.252ZM56.5033 261.39C56.832 261.39 57.0867 261.262 57.2674 261.008C57.4564 260.745 57.5509 260.371 57.5509 259.886C57.5509 259.401 57.4564 259.032 57.2674 258.777C57.0867 258.514 56.832 258.383 56.5033 258.383C56.1747 258.383 55.9118 258.514 55.7146 258.777C55.5257 259.04 55.4312 259.41 55.4312 259.886C55.4312 260.363 55.5257 260.732 55.7146 260.995C55.9118 261.258 56.1747 261.39 56.5033 261.39ZM62.1476 266.319C61.745 266.319 61.3876 266.221 61.0754 266.023C60.7632 265.826 60.5209 265.551 60.3483 265.198C60.1758 264.844 60.0895 264.43 60.0895 263.953C60.0895 263.477 60.1758 263.062 60.3483 262.708C60.5209 262.355 60.7632 262.08 61.0754 261.883C61.3876 261.685 61.745 261.587 62.1476 261.587C62.5666 261.587 62.9281 261.685 63.2321 261.883C63.5443 262.08 63.7866 262.355 63.9592 262.708C64.1317 263.062 64.218 263.477 64.218 263.953C64.218 264.43 64.1317 264.844 63.9592 265.198C63.7866 265.551 63.5443 265.826 63.2321 266.023C62.9281 266.221 62.5666 266.319 62.1476 266.319ZM62.1476 265.457C62.4762 265.457 62.735 265.325 62.924 265.062C63.113 264.799 63.2074 264.43 63.2074 263.953C63.2074 263.477 63.113 263.107 62.924 262.844C62.735 262.581 62.4762 262.45 62.1476 262.45C61.8272 262.45 61.5684 262.581 61.3712 262.844C61.1822 263.099 61.0878 263.468 61.0878 263.953C61.0878 264.438 61.1822 264.812 61.3712 265.074C61.5684 265.329 61.8272 265.457 62.1476 265.457Z" fill="#222222"/>
<rect x="24.3828" y="274.838" width="54.5764" height="4.40132" rx="2.20066" fill="#E7EBEE"/>
<rect x="31.4219" y="283.641" width="40.4921" height="4.40132" rx="2.20066" fill="#E7EBEE"/>
<rect x="28.7852" y="303.007" width="7.04211" height="2.64079" rx="1.3204" transform="rotate(90 28.7852 303.007)" fill="#D6572D"/>
<rect x="34.0664" y="298.605" width="11.4434" height="2.64079" rx="1.3204" transform="rotate(90 34.0664 298.605)" fill="#D6572D"/>
<rect x="39.3438" y="300.366" width="9.6829" height="2.64079" rx="1.3204" transform="rotate(90 39.3438 300.366)" fill="#D6572D"/>
<rect x="44.6289" y="295.964" width="14.0842" height="2.64079" rx="1.3204" transform="rotate(90 44.6289 295.964)" fill="#D6572D"/>
<rect x="49.9102" y="300.366" width="9.6829" height="2.64079" rx="1.3204" transform="rotate(90 49.9102 300.366)" fill="#D6572D"/>
<rect x="55.1953" y="298.605" width="11.4434" height="2.64079" rx="1.3204" transform="rotate(90 55.1953 298.605)" fill="#D6572D"/>
<rect x="60.4727" y="303.007" width="7.04211" height="2.64079" rx="1.3204" transform="rotate(90 60.4727 303.007)" fill="#D6572D"/>
<rect x="65.7539" y="299.486" width="10.5632" height="2.64079" rx="1.3204" transform="rotate(90 65.7539 299.486)" fill="#D6572D"/>
<rect x="71.0352" y="296.845" width="13.204" height="2.64079" rx="1.3204" transform="rotate(90 71.0352 296.845)" fill="#D6572D"/>
<rect x="76.3203" y="301.246" width="8.80264" height="2.64079" rx="1.3204" transform="rotate(90 76.3203 301.246)" fill="#D6572D"/>
<g clip-path="url(#clip6_770_23)">
<path d="M80.596 470.889V466.735H91.3242V480.819H80.596V476.72H81.4212V479.994H90.499V467.56H81.4212V470.889H80.596Z" fill="#007F62"/>
<path d="M80.8526 471.835L81.4361 472.419L80.49 473.365H89.6719V474.19H80.49L81.4361 475.136L80.8526 475.72L78.9103 473.778L80.8526 471.835Z" fill="#007F62"/>
</g>
<rect x="132.652" y="108.468" width="113.554" height="120.596" rx="7.04211" fill="#F8FCFE"/>
<rect x="260.289" y="108.468" width="113.554" height="120.596" rx="7.04211" fill="#EFF7F1"/>
<rect x="260.289" y="108.468" width="113.554" height="120.596" rx="7.04211" stroke="#007F62" stroke-width="0.880264" stroke-linecap="round" stroke-dasharray="2.64 2.64"/>
<rect x="387.93" y="108.468" width="113.554" height="120.596" rx="7.04211" fill="#F8FCFE"/>
<rect x="515.57" y="108.468" width="113.554" height="120.596" rx="7.04211" fill="#F8FCFE"/>
<rect x="132.652" y="242.269" width="113.554" height="123.237" rx="7.04211" fill="#F8FCFE"/>
<rect x="260.289" y="242.269" width="113.554" height="123.237" rx="7.04211" fill="#F8FCFE"/>
<rect x="387.93" y="242.269" width="113.554" height="123.237" rx="7.04211" fill="#F8FCFE"/>
<rect x="515.57" y="242.269" width="113.554" height="123.237" rx="7.04211" fill="#F8FCFE"/>
<rect x="132.652" y="378.709" width="113.554" height="120.596" rx="7.04211" fill="#F8FCFE"/>
<rect x="260.289" y="378.709" width="113.554" height="120.596" rx="7.04211" fill="#F8FCFE"/>
<rect x="387.93" y="378.709" width="113.554" height="120.596" rx="7.04211" fill="#F8FCFE"/>
<rect x="515.57" y="378.709" width="113.554" height="120.596" rx="7.04211" fill="#F8FCFE"/>
<circle cx="627.362" cy="34.5261" r="34.3303" fill="#E7EBEE"/>
<g filter="url(#filter2_d_770_23)">
<rect x="566.625" y="14.2803" width="80.9843" height="58.0974" rx="7.04211" fill="white"/>
</g>
<rect x="580.711" y="24.8433" width="52.8158" height="9.6829" rx="4.84145" fill="#E7EBEE"/>
<g filter="url(#filter3_d_770_23)">
<g filter="url(#filter4_d_770_23)">
<rect x="580.711" y="43.3286" width="52.8158" height="52.8158" rx="7.04211" fill="white"/>
</g>
<path d="M589.516 52.1318H590.73V53.346H589.516V52.1318ZM590.73 52.1318H591.944V53.346H590.73V52.1318ZM591.944 52.1318H593.158V53.346H591.944V52.1318ZM593.158 52.1318H594.372V53.346H593.158V52.1318ZM594.372 52.1318H595.586V53.346H594.372V52.1318ZM595.586 52.1318H596.801V53.346H595.586V52.1318ZM596.801 52.1318H598.015V53.346H596.801V52.1318ZM601.657 52.1318H602.871V53.346H601.657V52.1318ZM604.086 52.1318H605.3V53.346H604.086V52.1318ZM607.728 52.1318H608.942V53.346H607.728V52.1318ZM611.37 52.1318H612.585V53.346H611.37V52.1318ZM616.227 52.1318H617.441V53.346H616.227V52.1318ZM617.441 52.1318H618.655V53.346H617.441V52.1318ZM618.655 52.1318H619.87V53.346H618.655V52.1318ZM619.87 52.1318H621.084V53.346H619.87V52.1318ZM621.084 52.1318H622.298V53.346H621.084V52.1318ZM622.298 52.1318H623.512V53.346H622.298V52.1318ZM623.512 52.1318H624.726V53.346H623.512V52.1318ZM589.516 53.346H590.73V54.5602H589.516V53.346ZM596.801 53.346H598.015V54.5602H596.801V53.346ZM601.657 53.346H602.871V54.5602H601.657V53.346ZM604.086 53.346H605.3V54.5602H604.086V53.346ZM606.514 53.346H607.728V54.5602H606.514V53.346ZM608.942 53.346H610.156V54.5602H608.942V53.346ZM610.156 53.346H611.37V54.5602H610.156V53.346ZM612.585 53.346H613.799V54.5602H612.585V53.346ZM616.227 53.346H617.441V54.5602H616.227V53.346ZM623.512 53.346H624.726V54.5602H623.512V53.346ZM589.516 54.5602H590.73V55.7743H589.516V54.5602ZM591.944 54.5602H593.158V55.7743H591.944V54.5602ZM593.158 54.5602H594.372V55.7743H593.158V54.5602ZM594.372 54.5602H595.586V55.7743H594.372V54.5602ZM596.801 54.5602H598.015V55.7743H596.801V54.5602ZM599.229 54.5602H600.443V55.7743H599.229V54.5602ZM600.443 54.5602H601.657V55.7743H600.443V54.5602ZM606.514 54.5602H607.728V55.7743H606.514V54.5602ZM608.942 54.5602H610.156V55.7743H608.942V54.5602ZM610.156 54.5602H611.37V55.7743H610.156V54.5602ZM611.37 54.5602H612.585V55.7743H611.37V54.5602ZM612.585 54.5602H613.799V55.7743H612.585V54.5602ZM613.799 54.5602H615.013V55.7743H613.799V54.5602ZM616.227 54.5602H617.441V55.7743H616.227V54.5602ZM618.655 54.5602H619.87V55.7743H618.655V54.5602ZM619.87 54.5602H621.084V55.7743H619.87V54.5602ZM621.084 54.5602H622.298V55.7743H621.084V54.5602ZM623.512 54.5602H624.726V55.7743H623.512V54.5602ZM589.516 55.7743H590.73V56.9885H589.516V55.7743ZM591.944 55.7743H593.158V56.9885H591.944V55.7743ZM593.158 55.7743H594.372V56.9885H593.158V55.7743ZM594.372 55.7743H595.586V56.9885H594.372V55.7743ZM596.801 55.7743H598.015V56.9885H596.801V55.7743ZM600.443 55.7743H601.657V56.9885H600.443V55.7743ZM601.657 55.7743H602.871V56.9885H601.657V55.7743ZM602.871 55.7743H604.086V56.9885H602.871V55.7743ZM605.3 55.7743H606.514V56.9885H605.3V55.7743ZM606.514 55.7743H607.728V56.9885H606.514V55.7743ZM612.585 55.7743H613.799V56.9885H612.585V55.7743ZM613.799 55.7743H615.013V56.9885H613.799V55.7743ZM616.227 55.7743H617.441V56.9885H616.227V55.7743ZM618.655 55.7743H619.87V56.9885H618.655V55.7743ZM619.87 55.7743H621.084V56.9885H619.87V55.7743ZM621.084 55.7743H622.298V56.9885H621.084V55.7743ZM623.512 55.7743H624.726V56.9885H623.512V55.7743ZM589.516 56.9885H590.73V58.2026H589.516V56.9885ZM591.944 56.9885H593.158V58.2026H591.944V56.9885ZM593.158 56.9885H594.372V58.2026H593.158V56.9885ZM594.372 56.9885H595.586V58.2026H594.372V56.9885ZM596.801 56.9885H598.015V58.2026H596.801V56.9885ZM599.229 56.9885H600.443V58.2026H599.229V56.9885ZM601.657 56.9885H602.871V58.2026H601.657V56.9885ZM602.871 56.9885H604.086V58.2026H602.871V56.9885ZM604.086 56.9885H605.3V58.2026H604.086V56.9885ZM605.3 56.9885H606.514V58.2026H605.3V56.9885ZM606.514 56.9885H607.728V58.2026H606.514V56.9885ZM607.728 56.9885H608.942V58.2026H607.728V56.9885ZM608.942 56.9885H610.156V58.2026H608.942V56.9885ZM610.156 56.9885H611.37V58.2026H610.156V56.9885ZM611.37 56.9885H612.585V58.2026H611.37V56.9885ZM616.227 56.9885H617.441V58.2026H616.227V56.9885ZM618.655 56.9885H619.87V58.2026H618.655V56.9885ZM619.87 56.9885H621.084V58.2026H619.87V56.9885ZM621.084 56.9885H622.298V58.2026H621.084V56.9885ZM623.512 56.9885H624.726V58.2026H623.512V56.9885ZM589.516 58.2026H590.73V59.4168H589.516V58.2026ZM596.801 58.2026H598.015V59.4168H596.801V58.2026ZM599.229 58.2026H600.443V59.4168H599.229V58.2026ZM600.443 58.2026H601.657V59.4168H600.443V58.2026ZM601.657 58.2026H602.871V59.4168H601.657V58.2026ZM604.086 58.2026H605.3V59.4168H604.086V58.2026ZM606.514 58.2026H607.728V59.4168H606.514V58.2026ZM612.585 58.2026H613.799V59.4168H612.585V58.2026ZM616.227 58.2026H617.441V59.4168H616.227V58.2026ZM623.512 58.2026H624.726V59.4168H623.512V58.2026ZM589.516 59.4168H590.73V60.6309H589.516V59.4168ZM590.73 59.4168H591.944V60.6309H590.73V59.4168ZM591.944 59.4168H593.158V60.6309H591.944V59.4168ZM593.158 59.4168H594.372V60.6309H593.158V59.4168ZM594.372 59.4168H595.586V60.6309H594.372V59.4168ZM595.586 59.4168H596.801V60.6309H595.586V59.4168ZM596.801 59.4168H598.015V60.6309H596.801V59.4168ZM599.229 59.4168H600.443V60.6309H599.229V59.4168ZM601.657 59.4168H602.871V60.6309H601.657V59.4168ZM604.086 59.4168H605.3V60.6309H604.086V59.4168ZM606.514 59.4168H607.728V60.6309H606.514V59.4168ZM608.942 59.4168H610.156V60.6309H608.942V59.4168ZM611.37 59.4168H612.585V60.6309H611.37V59.4168ZM613.799 59.4168H615.013V60.6309H613.799V59.4168ZM616.227 59.4168H617.441V60.6309H616.227V59.4168ZM617.441 59.4168H618.655V60.6309H617.441V59.4168ZM618.655 59.4168H619.87V60.6309H618.655V59.4168ZM619.87 59.4168H621.084V60.6309H619.87V59.4168ZM621.084 59.4168H622.298V60.6309H621.084V59.4168ZM622.298 59.4168H623.512V60.6309H622.298V59.4168ZM623.512 59.4168H624.726V60.6309H623.512V59.4168ZM600.443 60.6309H601.657V61.8451H600.443V60.6309ZM610.156 60.6309H611.37V61.8451H610.156V60.6309ZM611.37 60.6309H612.585V61.8451H611.37V60.6309ZM612.585 60.6309H613.799V61.8451H612.585V60.6309ZM613.799 60.6309H615.013V61.8451H613.799V60.6309ZM590.73 61.8451H591.944V63.0592H590.73V61.8451ZM594.372 61.8451H595.586V63.0592H594.372V61.8451ZM596.801 61.8451H598.015V63.0592H596.801V61.8451ZM599.229 61.8451H600.443V63.0592H599.229V61.8451ZM601.657 61.8451H602.871V63.0592H601.657V61.8451ZM602.871 61.8451H604.086V63.0592H602.871V61.8451ZM604.086 61.8451H605.3V63.0592H604.086V61.8451ZM607.728 61.8451H608.942V63.0592H607.728V61.8451ZM611.37 61.8451H612.585V63.0592H611.37V61.8451ZM612.585 61.8451H613.799V63.0592H612.585V61.8451ZM613.799 61.8451H615.013V63.0592H613.799V61.8451ZM615.013 61.8451H616.227V63.0592H615.013V61.8451ZM617.441 61.8451H618.655V63.0592H617.441V61.8451ZM618.655 61.8451H619.87V63.0592H618.655V61.8451ZM621.084 61.8451H622.298V63.0592H621.084V61.8451ZM589.516 63.0592H590.73V64.2734H589.516V63.0592ZM590.73 63.0592H591.944V64.2734H590.73V63.0592ZM599.229 63.0592H600.443V64.2734H599.229V63.0592ZM604.086 63.0592H605.3V64.2734H604.086V63.0592ZM605.3 63.0592H606.514V64.2734H605.3V63.0592ZM607.728 63.0592H608.942V64.2734H607.728V63.0592ZM608.942 63.0592H610.156V64.2734H608.942V63.0592ZM610.156 63.0592H611.37V64.2734H610.156V63.0592ZM611.37 63.0592H612.585V64.2734H611.37V63.0592ZM615.013 63.0592H616.227V64.2734H615.013V63.0592ZM616.227 63.0592H617.441V64.2734H616.227V63.0592ZM617.441 63.0592H618.655V64.2734H617.441V63.0592ZM618.655 63.0592H619.87V64.2734H618.655V63.0592ZM621.084 63.0592H622.298V64.2734H621.084V63.0592ZM622.298 63.0592H623.512V64.2734H622.298V63.0592ZM623.512 63.0592H624.726V64.2734H623.512V63.0592ZM589.516 64.2734H590.73V65.4876H589.516V64.2734ZM593.158 64.2734H594.372V65.4876H593.158V64.2734ZM594.372 64.2734H595.586V65.4876H594.372V64.2734ZM596.801 64.2734H598.015V65.4876H596.801V64.2734ZM598.015 64.2734H599.229V65.4876H598.015V64.2734ZM599.229 64.2734H600.443V65.4876H599.229V64.2734ZM600.443 64.2734H601.657V65.4876H600.443V64.2734ZM602.871 64.2734H604.086V65.4876H602.871V64.2734ZM604.086 64.2734H605.3V65.4876H604.086V64.2734ZM605.3 64.2734H606.514V65.4876H605.3V64.2734ZM606.514 64.2734H607.728V65.4876H606.514V64.2734ZM611.37 64.2734H612.585V65.4876H611.37V64.2734ZM613.799 64.2734H615.013V65.4876H613.799V64.2734ZM615.013 64.2734H616.227V65.4876H615.013V64.2734ZM619.87 64.2734H621.084V65.4876H619.87V64.2734ZM623.512 64.2734H624.726V65.4876H623.512V64.2734ZM591.944 65.4876H593.158V66.7017H591.944V65.4876ZM595.586 65.4876H596.801V66.7017H595.586V65.4876ZM598.015 65.4876H599.229V66.7017H598.015V65.4876ZM600.443 65.4876H601.657V66.7017H600.443V65.4876ZM605.3 65.4876H606.514V66.7017H605.3V65.4876ZM607.728 65.4876H608.942V66.7017H607.728V65.4876ZM610.156 65.4876H611.37V66.7017H610.156V65.4876ZM612.585 65.4876H613.799V66.7017H612.585V65.4876ZM615.013 65.4876H616.227V66.7017H615.013V65.4876ZM619.87 65.4876H621.084V66.7017H619.87V65.4876ZM622.298 65.4876H623.512V66.7017H622.298V65.4876ZM623.512 65.4876H624.726V66.7017H623.512V65.4876ZM594.372 66.7017H595.586V67.9159H594.372V66.7017ZM595.586 66.7017H596.801V67.9159H595.586V66.7017ZM596.801 66.7017H598.015V67.9159H596.801V66.7017ZM599.229 66.7017H600.443V67.9159H599.229V66.7017ZM606.514 66.7017H607.728V67.9159H606.514V66.7017ZM610.156 66.7017H611.37V67.9159H610.156V66.7017ZM612.585 66.7017H613.799V67.9159H612.585V66.7017ZM617.441 66.7017H618.655V67.9159H617.441V66.7017ZM619.87 66.7017H621.084V67.9159H619.87V66.7017ZM623.512 66.7017H624.726V67.9159H623.512V66.7017ZM590.73 67.9159H591.944V69.13H590.73V67.9159ZM591.944 67.9159H593.158V69.13H591.944V67.9159ZM598.015 67.9159H599.229V69.13H598.015V67.9159ZM602.871 67.9159H604.086V69.13H602.871V67.9159ZM604.086 67.9159H605.3V69.13H604.086V67.9159ZM606.514 67.9159H607.728V69.13H606.514V67.9159ZM607.728 67.9159H608.942V69.13H607.728V67.9159ZM608.942 67.9159H610.156V69.13H608.942V67.9159ZM610.156 67.9159H611.37V69.13H610.156V67.9159ZM616.227 67.9159H617.441V69.13H616.227V67.9159ZM618.655 67.9159H619.87V69.13H618.655V67.9159ZM621.084 67.9159H622.298V69.13H621.084V67.9159ZM623.512 67.9159H624.726V69.13H623.512V67.9159ZM589.516 69.13H590.73V70.3442H589.516V69.13ZM593.158 69.13H594.372V70.3442H593.158V69.13ZM596.801 69.13H598.015V70.3442H596.801V69.13ZM599.229 69.13H600.443V70.3442H599.229V69.13ZM600.443 69.13H601.657V70.3442H600.443V69.13ZM601.657 69.13H602.871V70.3442H601.657V69.13ZM602.871 69.13H604.086V70.3442H602.871V69.13ZM604.086 69.13H605.3V70.3442H604.086V69.13ZM605.3 69.13H606.514V70.3442H605.3V69.13ZM606.514 69.13H607.728V70.3442H606.514V69.13ZM608.942 69.13H610.156V70.3442H608.942V69.13ZM611.37 69.13H612.585V70.3442H611.37V69.13ZM613.799 69.13H615.013V70.3442H613.799V69.13ZM615.013 69.13H616.227V70.3442H615.013V69.13ZM616.227 69.13H617.441V70.3442H616.227V69.13ZM618.655 69.13H619.87V70.3442H618.655V69.13ZM623.512 69.13H624.726V70.3442H623.512V69.13ZM589.516 70.3442H590.73V71.5583H589.516V70.3442ZM591.944 70.3442H593.158V71.5583H591.944V70.3442ZM593.158 70.3442H594.372V71.5583H593.158V70.3442ZM599.229 70.3442H600.443V71.5583H599.229V70.3442ZM600.443 70.3442H601.657V71.5583H600.443V70.3442ZM601.657 70.3442H602.871V71.5583H601.657V70.3442ZM606.514 70.3442H607.728V71.5583H606.514V70.3442ZM612.585 70.3442H613.799V71.5583H612.585V70.3442ZM613.799 70.3442H615.013V71.5583H613.799V70.3442ZM615.013 70.3442H616.227V71.5583H615.013V70.3442ZM617.441 70.3442H618.655V71.5583H617.441V70.3442ZM619.87 70.3442H621.084V71.5583H619.87V70.3442ZM622.298 70.3442H623.512V71.5583H622.298V70.3442ZM589.516 71.5583H590.73V72.7725H589.516V71.5583ZM591.944 71.5583H593.158V72.7725H591.944V71.5583ZM593.158 71.5583H594.372V72.7725H593.158V71.5583ZM594.372 71.5583H595.586V72.7725H594.372V71.5583ZM595.586 71.5583H596.801V72.7725H595.586V71.5583ZM596.801 71.5583H598.015V72.7725H596.801V71.5583ZM600.443 71.5583H601.657V72.7725H600.443V71.5583ZM601.657 71.5583H602.871V72.7725H601.657V71.5583ZM602.871 71.5583H604.086V72.7725H602.871V71.5583ZM607.728 71.5583H608.942V72.7725H607.728V71.5583ZM608.942 71.5583H610.156V72.7725H608.942V71.5583ZM612.585 71.5583H613.799V72.7725H612.585V71.5583ZM613.799 71.5583H615.013V72.7725H613.799V71.5583ZM615.013 71.5583H616.227V72.7725H615.013V71.5583ZM589.516 72.7725H590.73V73.9867H589.516V72.7725ZM590.73 72.7725H591.944V73.9867H590.73V72.7725ZM591.944 72.7725H593.158V73.9867H591.944V72.7725ZM593.158 72.7725H594.372V73.9867H593.158V72.7725ZM598.015 72.7725H599.229V73.9867H598.015V72.7725ZM599.229 72.7725H600.443V73.9867H599.229V72.7725ZM601.657 72.7725H602.871V73.9867H601.657V72.7725ZM604.086 72.7725H605.3V73.9867H604.086V72.7725ZM605.3 72.7725H606.514V73.9867H605.3V72.7725ZM606.514 72.7725H607.728V73.9867H606.514V72.7725ZM611.37 72.7725H612.585V73.9867H611.37V72.7725ZM616.227 72.7725H617.441V73.9867H616.227V72.7725ZM617.441 72.7725H618.655V73.9867H617.441V72.7725ZM618.655 72.7725H619.87V73.9867H618.655V72.7725ZM621.084 72.7725H622.298V73.9867H621.084V72.7725ZM623.512 72.7725H624.726V73.9867H623.512V72.7725ZM591.944 73.9867H593.158V75.2008H591.944V73.9867ZM593.158 73.9867H594.372V75.2008H593.158V73.9867ZM594.372 73.9867H595.586V75.2008H594.372V73.9867ZM595.586 73.9867H596.801V75.2008H595.586V73.9867ZM596.801 73.9867H598.015V75.2008H596.801V73.9867ZM598.015 73.9867H599.229V75.2008H598.015V73.9867ZM607.728 73.9867H608.942V75.2008H607.728V73.9867ZM610.156 73.9867H611.37V75.2008H610.156V73.9867ZM611.37 73.9867H612.585V75.2008H611.37V73.9867ZM617.441 73.9867H618.655V75.2008H617.441V73.9867ZM619.87 73.9867H621.084V75.2008H619.87V73.9867ZM623.512 73.9867H624.726V75.2008H623.512V73.9867ZM594.372 75.2008H595.586V76.415H594.372V75.2008ZM598.015 75.2008H599.229V76.415H598.015V75.2008ZM599.229 75.2008H600.443V76.415H599.229V75.2008ZM600.443 75.2008H601.657V76.415H600.443V75.2008ZM601.657 75.2008H602.871V76.415H601.657V75.2008ZM602.871 75.2008H604.086V76.415H602.871V75.2008ZM606.514 75.2008H607.728V76.415H606.514V75.2008ZM607.728 75.2008H608.942V76.415H607.728V75.2008ZM608.942 75.2008H610.156V76.415H608.942V75.2008ZM610.156 75.2008H611.37V76.415H610.156V75.2008ZM612.585 75.2008H613.799V76.415H612.585V75.2008ZM613.799 75.2008H615.013V76.415H613.799V75.2008ZM619.87 75.2008H621.084V76.415H619.87V75.2008ZM622.298 75.2008H623.512V76.415H622.298V75.2008ZM623.512 75.2008H624.726V76.415H623.512V75.2008ZM589.516 76.415H590.73V77.6291H589.516V76.415ZM590.73 76.415H591.944V77.6291H590.73V76.415ZM593.158 76.415H594.372V77.6291H593.158V76.415ZM594.372 76.415H595.586V77.6291H594.372V76.415ZM595.586 76.415H596.801V77.6291H595.586V76.415ZM596.801 76.415H598.015V77.6291H596.801V76.415ZM599.229 76.415H600.443V77.6291H599.229V76.415ZM602.871 76.415H604.086V77.6291H602.871V76.415ZM610.156 76.415H611.37V77.6291H610.156V76.415ZM613.799 76.415H615.013V77.6291H613.799V76.415ZM615.013 76.415H616.227V77.6291H615.013V76.415ZM616.227 76.415H617.441V77.6291H616.227V76.415ZM617.441 76.415H618.655V77.6291H617.441V76.415ZM618.655 76.415H619.87V77.6291H618.655V76.415ZM619.87 76.415H621.084V77.6291H619.87V76.415ZM622.298 76.415H623.512V77.6291H622.298V76.415ZM623.512 76.415H624.726V77.6291H623.512V76.415ZM599.229 77.6291H600.443V78.8433H599.229V77.6291ZM600.443 77.6291H601.657V78.8433H600.443V77.6291ZM602.871 77.6291H604.086V78.8433H602.871V77.6291ZM605.3 77.6291H606.514V78.8433H605.3V77.6291ZM606.514 77.6291H607.728V78.8433H606.514V77.6291ZM607.728 77.6291H608.942V78.8433H607.728V77.6291ZM608.942 77.6291H610.156V78.8433H608.942V77.6291ZM611.37 77.6291H612.585V78.8433H611.37V77.6291ZM613.799 77.6291H615.013V78.8433H613.799V77.6291ZM618.655 77.6291H619.87V78.8433H618.655V77.6291ZM621.084 77.6291H622.298V78.8433H621.084V77.6291ZM622.298 77.6291H623.512V78.8433H622.298V77.6291ZM623.512 77.6291H624.726V78.8433H623.512V77.6291ZM589.516 78.8433H590.73V80.0574H589.516V78.8433ZM590.73 78.8433H591.944V80.0574H590.73V78.8433ZM591.944 78.8433H593.158V80.0574H591.944V78.8433ZM593.158 78.8433H594.372V80.0574H593.158V78.8433ZM594.372 78.8433H595.586V80.0574H594.372V78.8433ZM595.586 78.8433H596.801V80.0574H595.586V78.8433ZM596.801 78.8433H598.015V80.0574H596.801V78.8433ZM600.443 78.8433H601.657V80.0574H600.443V78.8433ZM602.871 78.8433H604.086V80.0574H602.871V78.8433ZM604.086 78.8433H605.3V80.0574H604.086V78.8433ZM605.3 78.8433H606.514V80.0574H605.3V78.8433ZM606.514 78.8433H607.728V80.0574H606.514V78.8433ZM607.728 78.8433H608.942V80.0574H607.728V78.8433ZM610.156 78.8433H611.37V80.0574H610.156V78.8433ZM612.585 78.8433H613.799V80.0574H612.585V78.8433ZM613.799 78.8433H615.013V80.0574H613.799V78.8433ZM616.227 78.8433H617.441V80.0574H616.227V78.8433ZM618.655 78.8433H619.87V80.0574H618.655V78.8433ZM623.512 78.8433H624.726V80.0574H623.512V78.8433ZM589.516 80.0574H590.73V81.2716H589.516V80.0574ZM596.801 80.0574H598.015V81.2716H596.801V80.0574ZM600.443 80.0574H601.657V81.2716H600.443V80.0574ZM604.086 80.0574H605.3V81.2716H604.086V80.0574ZM605.3 80.0574H606.514V81.2716H605.3V80.0574ZM606.514 80.0574H607.728V81.2716H606.514V80.0574ZM607.728 80.0574H608.942V81.2716H607.728V80.0574ZM610.156 80.0574H611.37V81.2716H610.156V80.0574ZM611.37 80.0574H612.585V81.2716H611.37V80.0574ZM612.585 80.0574H613.799V81.2716H612.585V80.0574ZM613.799 80.0574H615.013V81.2716H613.799V80.0574ZM618.655 80.0574H619.87V81.2716H618.655V80.0574ZM619.87 80.0574H621.084V81.2716H619.87V80.0574ZM589.516 81.2716H590.73V82.4858H589.516V81.2716ZM591.944 81.2716H593.158V82.4858H591.944V81.2716ZM593.158 81.2716H594.372V82.4858H593.158V81.2716ZM594.372 81.2716H595.586V82.4858H594.372V81.2716ZM596.801 81.2716H598.015V82.4858H596.801V81.2716ZM599.229 81.2716H600.443V82.4858H599.229V81.2716ZM600.443 81.2716H601.657V82.4858H600.443V81.2716ZM602.871 81.2716H604.086V82.4858H602.871V81.2716ZM605.3 81.2716H606.514V82.4858H605.3V81.2716ZM606.514 81.2716H607.728V82.4858H606.514V81.2716ZM611.37 81.2716H612.585V82.4858H611.37V81.2716ZM612.585 81.2716H613.799V82.4858H612.585V81.2716ZM613.799 81.2716H615.013V82.4858H613.799V81.2716ZM615.013 81.2716H616.227V82.4858H615.013V81.2716ZM616.227 81.2716H617.441V82.4858H616.227V81.2716ZM617.441 81.2716H618.655V82.4858H617.441V81.2716ZM618.655 81.2716H619.87V82.4858H618.655V81.2716ZM622.298 81.2716H623.512V82.4858H622.298V81.2716ZM589.516 82.4858H590.73V83.6999H589.516V82.4858ZM591.944 82.4858H593.158V83.6999H591.944V82.4858ZM593.158 82.4858H594.372V83.6999H593.158V82.4858ZM594.372 82.4858H595.586V83.6999H594.372V82.4858ZM596.801 82.4858H598.015V83.6999H596.801V82.4858ZM602.871 82.4858H604.086V83.6999H602.871V82.4858ZM605.3 82.4858H606.514V83.6999H605.3V82.4858ZM608.942 82.4858H610.156V83.6999H608.942V82.4858ZM610.156 82.4858H611.37V83.6999H610.156V82.4858ZM617.441 82.4858H618.655V83.6999H617.441V82.4858ZM622.298 82.4858H623.512V83.6999H622.298V82.4858ZM589.516 83.6999H590.73V84.9141H589.516V83.6999ZM591.944 83.6999H593.158V84.9141H591.944V83.6999ZM593.158 83.6999H594.372V84.9141H593.158V83.6999ZM594.372 83.6999H595.586V84.9141H594.372V83.6999ZM596.801 83.6999H598.015V84.9141H596.801V83.6999ZM600.443 83.6999H601.657V84.9141H600.443V83.6999ZM601.657 83.6999H602.871V84.9141H601.657V83.6999ZM602.871 83.6999H604.086V84.9141H602.871V83.6999ZM606.514 83.6999H607.728V84.9141H606.514V83.6999ZM608.942 83.6999H610.156V84.9141H608.942V83.6999ZM610.156 83.6999H611.37V84.9141H610.156V83.6999ZM612.585 83.6999H613.799V84.9141H612.585V83.6999ZM613.799 83.6999H615.013V84.9141H613.799V83.6999ZM615.013 83.6999H616.227V84.9141H615.013V83.6999ZM621.084 83.6999H622.298V84.9141H621.084V83.6999ZM622.298 83.6999H623.512V84.9141H622.298V83.6999ZM623.512 83.6999H624.726V84.9141H623.512V83.6999ZM589.516 84.9141H590.73V86.1282H589.516V84.9141ZM596.801 84.9141H598.015V86.1282H596.801V84.9141ZM599.229 84.9141H600.443V86.1282H599.229V84.9141ZM602.871 84.9141H604.086V86.1282H602.871V84.9141ZM604.086 84.9141H605.3V86.1282H604.086V84.9141ZM610.156 84.9141H611.37V86.1282H610.156V84.9141ZM613.799 84.9141H615.013V86.1282H613.799V84.9141ZM617.441 84.9141H618.655V86.1282H617.441V84.9141ZM619.87 84.9141H621.084V86.1282H619.87V84.9141ZM622.298 84.9141H623.512V86.1282H622.298V84.9141ZM623.512 84.9141H624.726V86.1282H623.512V84.9141ZM589.516 86.1282H590.73V87.3424H589.516V86.1282ZM590.73 86.1282H591.944V87.3424H590.73V86.1282ZM591.944 86.1282H593.158V87.3424H591.944V86.1282ZM593.158 86.1282H594.372V87.3424H593.158V86.1282ZM594.372 86.1282H595.586V87.3424H594.372V86.1282ZM595.586 86.1282H596.801V87.3424H595.586V86.1282ZM596.801 86.1282H598.015V87.3424H596.801V86.1282ZM601.657 86.1282H602.871V87.3424H601.657V86.1282ZM606.514 86.1282H607.728V87.3424H606.514V86.1282ZM607.728 86.1282H608.942V87.3424H607.728V86.1282ZM610.156 86.1282H611.37V87.3424H610.156V86.1282ZM612.585 86.1282H613.799V87.3424H612.585V86.1282ZM613.799 86.1282H615.013V87.3424H613.799V86.1282ZM616.227 86.1282H617.441V87.3424H616.227V86.1282ZM618.655 86.1282H619.87V87.3424H618.655V86.1282ZM622.298 86.1282H623.512V87.3424H622.298V86.1282Z" fill="#222222"/>
</g>
<path d="M132.652 119.031H167.863C169.808 119.031 171.384 120.608 171.384 122.552V133.115C171.384 135.06 169.808 136.637 167.863 136.637H132.652V119.031Z" fill="#D7F5E2"/>
<path d="M136.577 129.517V128.778L140.359 123.94H141.5L137.75 128.778L137.211 128.609H143.116V129.517H136.577ZM140.686 131.334V129.517L140.718 128.609V127.003H141.711V131.334H140.686ZM144.652 131.397C144.455 131.397 144.286 131.33 144.145 131.197C144.005 131.056 143.934 130.88 143.934 130.669C143.934 130.457 144.005 130.285 144.145 130.151C144.286 130.017 144.455 129.95 144.652 129.95C144.843 129.95 145.005 130.017 145.138 130.151C145.279 130.285 145.35 130.457 145.35 130.669C145.35 130.88 145.279 131.056 145.138 131.197C145.005 131.33 144.843 131.397 144.652 131.397ZM148.736 131.418C148.215 131.418 147.708 131.338 147.215 131.176C146.729 131.014 146.331 130.795 146.021 130.521L146.507 129.686C146.753 129.919 147.074 130.109 147.468 130.257C147.863 130.404 148.282 130.478 148.725 130.478C149.289 130.478 149.722 130.359 150.025 130.119C150.327 129.88 150.479 129.559 150.479 129.158C150.479 128.883 150.412 128.644 150.278 128.44C150.144 128.235 149.912 128.081 149.581 127.975C149.257 127.862 148.81 127.806 148.239 127.806H146.56L146.951 123.94H151.123V124.859H147.341L147.891 124.341L147.584 127.394L147.035 126.887H148.461C149.201 126.887 149.796 126.982 150.246 127.172C150.697 127.362 151.024 127.626 151.229 127.964C151.433 128.295 151.535 128.679 151.535 129.116C151.535 129.538 151.433 129.926 151.229 130.278C151.024 130.623 150.715 130.901 150.299 131.112C149.891 131.316 149.37 131.418 148.736 131.418Z" fill="#D6572D"/>
<g clip-path="url(#clip7_770_23)">
<path d="M164.5 126.818L161.472 126.369L160.083 123.642L158.721 126.383L155.697 126.861L157.883 129.003L157.404 132.027L160.117 130.61L162.844 132L162.335 128.982L164.5 126.818Z" fill="#D6572D"/>
</g>
<path d="M387.93 119.031H423.14C425.085 119.031 426.661 120.608 426.661 122.552V133.115C426.661 135.06 425.085 136.637 423.14 136.637H387.93V119.031Z" fill="#D7F5E2"/>
<path d="M391.851 129.517V128.778L395.632 123.94H396.773L393.023 128.778L392.484 128.609H398.389V129.517H391.851ZM395.96 131.334V129.517L395.991 128.609V127.003H396.984V131.334H395.96ZM399.926 131.397C399.729 131.397 399.56 131.33 399.419 131.197C399.278 131.056 399.208 130.88 399.208 130.669C399.208 130.457 399.278 130.285 399.419 130.151C399.56 130.017 399.729 129.95 399.926 129.95C400.116 129.95 400.278 130.017 400.412 130.151C400.553 130.285 400.623 130.457 400.623 130.669C400.623 130.88 400.553 131.056 400.412 131.197C400.278 131.33 400.116 131.397 399.926 131.397ZM403.986 131.418C403.465 131.418 402.957 131.338 402.465 131.176C401.979 131.014 401.581 130.795 401.271 130.521L401.757 129.686C402.003 129.919 402.324 130.109 402.718 130.257C403.112 130.404 403.535 130.478 403.986 130.478C404.535 130.478 404.961 130.362 405.264 130.13C405.574 129.89 405.729 129.57 405.729 129.169C405.729 128.781 405.581 128.471 405.285 128.239C404.996 128 404.535 127.88 403.901 127.88H403.31V127.14L405.507 124.436L405.655 124.859H401.609V123.94H406.489V124.658L404.303 127.352L403.753 127.024H404.102C404.996 127.024 405.665 127.225 406.109 127.626C406.56 128.028 406.785 128.538 406.785 129.158C406.785 129.573 406.683 129.954 406.479 130.299C406.274 130.644 405.964 130.918 405.549 131.123C405.141 131.32 404.619 131.418 403.986 131.418Z" fill="#D6572D"/>
<g clip-path="url(#clip8_770_23)">
<path d="M419.773 126.818L416.745 126.369L415.356 123.642L413.994 126.383L410.971 126.861L413.157 129.003L412.677 132.027L415.39 130.61L418.117 132L417.608 128.982L419.773 126.818Z" fill="#D6572D"/>
</g>
<path d="M515.57 119.031H550.781C552.725 119.031 554.302 120.608 554.302 122.552V133.115C554.302 135.06 552.725 136.637 550.781 136.637H515.57V119.031Z" fill="#D7F5E2"/>
<path d="M519.495 129.517V128.778L523.277 123.94H524.418L520.668 128.778L520.129 128.609H526.034V129.517H519.495ZM523.604 131.334V129.517L523.636 128.609V127.003H524.629V131.334H523.604ZM527.57 131.397C527.373 131.397 527.204 131.33 527.063 131.197C526.923 131.056 526.852 130.88 526.852 130.669C526.852 130.457 526.923 130.285 527.063 130.151C527.204 130.017 527.373 129.95 527.57 129.95C527.761 129.95 527.923 130.017 528.056 130.151C528.197 130.285 528.268 130.457 528.268 130.669C528.268 130.88 528.197 131.056 528.056 131.197C527.923 131.33 527.761 131.397 527.57 131.397ZM530.379 131.334V124.362L530.833 124.859H528.71V123.94H531.425V131.334H530.379Z" fill="#D6572D"/>
<g clip-path="url(#clip9_770_23)">
<path d="M545.418 126.818L542.39 126.369L541.001 123.642L539.639 126.383L536.615 126.861L538.801 129.003L538.322 132.027L541.035 130.61L543.762 132L543.253 128.982L545.418 126.818Z" fill="#D6572D"/>
</g>
<path d="M132.652 252.832H167.863C169.808 252.832 171.384 254.408 171.384 256.353V266.916C171.384 268.86 169.808 270.437 167.863 270.437H132.652V252.832Z" fill="#D7F5E2"/>
<path d="M136.577 263.317V262.578L140.359 257.74H141.5L137.75 262.578L137.211 262.409H143.116V263.317H136.577ZM140.686 265.134V263.317L140.718 262.409V260.803H141.711V265.134H140.686ZM144.652 265.198C144.455 265.198 144.286 265.131 144.145 264.997C144.005 264.856 143.934 264.68 143.934 264.469C143.934 264.258 144.005 264.085 144.145 263.951C144.286 263.817 144.455 263.751 144.652 263.751C144.843 263.751 145.005 263.817 145.138 263.951C145.279 264.085 145.35 264.258 145.35 264.469C145.35 264.68 145.279 264.856 145.138 264.997C145.005 265.131 144.843 265.198 144.652 265.198ZM149.33 265.219C148.675 265.219 148.116 265.074 147.651 264.786C147.186 264.497 146.83 264.081 146.584 263.539C146.344 262.99 146.225 262.321 146.225 261.532C146.225 260.694 146.373 259.986 146.668 259.409C146.964 258.832 147.376 258.395 147.904 258.099C148.432 257.803 149.038 257.656 149.721 257.656C150.073 257.656 150.408 257.691 150.725 257.761C151.049 257.832 151.327 257.941 151.559 258.089L151.158 258.913C150.968 258.779 150.749 258.687 150.503 258.638C150.263 258.589 150.01 258.564 149.742 258.564C148.989 258.564 148.39 258.8 147.947 259.272C147.503 259.736 147.281 260.43 147.281 261.353C147.281 261.501 147.288 261.677 147.302 261.881C147.316 262.085 147.351 262.286 147.408 262.483L147.049 262.124C147.154 261.8 147.32 261.529 147.545 261.31C147.778 261.085 148.052 260.92 148.369 260.814C148.693 260.701 149.042 260.645 149.415 260.645C149.908 260.645 150.344 260.736 150.725 260.92C151.105 261.103 151.404 261.363 151.623 261.701C151.841 262.032 151.95 262.427 151.95 262.884C151.95 263.356 151.834 263.768 151.601 264.12C151.369 264.472 151.056 264.743 150.661 264.934C150.267 265.124 149.823 265.219 149.33 265.219ZM149.288 264.363C149.612 264.363 149.894 264.303 150.133 264.184C150.38 264.064 150.573 263.898 150.714 263.687C150.855 263.469 150.925 263.215 150.925 262.927C150.925 262.49 150.774 262.145 150.471 261.891C150.168 261.631 149.756 261.501 149.235 261.501C148.897 261.501 148.601 261.564 148.348 261.691C148.094 261.817 147.894 261.99 147.746 262.208C147.605 262.42 147.535 262.662 147.535 262.937C147.535 263.191 147.601 263.427 147.735 263.645C147.869 263.856 148.066 264.029 148.327 264.162C148.587 264.296 148.908 264.363 149.288 264.363Z" fill="#D6572D"/>
<g clip-path="url(#clip10_770_23)">
<path d="M165.5 260.618L162.472 260.17L161.083 257.442L159.721 260.183L156.697 260.661L158.883 262.804L158.404 265.827L161.117 264.41L163.844 265.8L163.335 262.782L165.5 260.618Z" fill="#D6572D"/>
</g>
<path d="M387.93 252.832H423.14C425.085 252.832 426.661 254.408 426.661 256.353V266.916C426.661 268.86 425.085 270.437 423.14 270.437H387.93V252.832Z" fill="#D7F5E2"/>
<path d="M391.851 263.317V262.578L395.632 257.74H396.773L393.023 262.578L392.484 262.409H398.389V263.317H391.851ZM395.96 265.134V263.317L395.991 262.409V260.803H396.984V265.134H395.96ZM399.926 265.198C399.729 265.198 399.56 265.131 399.419 264.997C399.278 264.856 399.208 264.68 399.208 264.469C399.208 264.258 399.278 264.085 399.419 263.951C399.56 263.817 399.729 263.751 399.926 263.751C400.116 263.751 400.278 263.817 400.412 263.951C400.553 264.085 400.623 264.258 400.623 264.469C400.623 264.68 400.553 264.856 400.412 264.997C400.278 265.131 400.116 265.198 399.926 265.198ZM401.609 265.134V264.416L404.619 261.511C404.887 261.258 405.084 261.036 405.211 260.846C405.345 260.648 405.433 260.469 405.475 260.307C405.524 260.138 405.549 259.976 405.549 259.821C405.549 259.441 405.415 259.141 405.148 258.923C404.88 258.705 404.489 258.596 403.975 258.596C403.581 258.596 403.225 258.663 402.908 258.796C402.591 258.923 402.317 259.124 402.084 259.398L401.366 258.775C401.648 258.416 402.024 258.141 402.496 257.951C402.975 257.754 403.5 257.656 404.07 257.656C404.584 257.656 405.031 257.74 405.412 257.909C405.792 258.071 406.084 258.307 406.288 258.617C406.5 258.927 406.605 259.293 406.605 259.715C406.605 259.955 406.574 260.191 406.51 260.423C406.447 260.655 406.327 260.902 406.151 261.163C405.975 261.423 405.722 261.715 405.391 262.039L402.707 264.627L402.454 264.215H406.922V265.134H401.609Z" fill="#D6572D"/>
<g clip-path="url(#clip11_770_23)">
<path d="M419.773 260.618L416.745 260.17L415.356 257.442L413.994 260.183L410.971 260.661L413.157 262.804L412.677 265.827L415.39 264.41L418.117 265.8L417.608 262.782L419.773 260.618Z" fill="#D6572D"/>
</g>
<path d="M515.57 252.832H550.781C552.725 252.832 554.302 254.408 554.302 256.353V266.916C554.302 268.86 552.725 270.437 550.781 270.437H515.57V252.832Z" fill="#D7F5E2"/>
<path d="M519.495 263.317V262.578L523.277 257.74H524.418L520.668 262.578L520.129 262.409H526.034V263.317H519.495ZM523.604 265.134V263.317L523.636 262.409V260.803H524.629V265.134H523.604ZM527.57 265.198C527.373 265.198 527.204 265.131 527.063 264.997C526.923 264.856 526.852 264.68 526.852 264.469C526.852 264.258 526.923 264.085 527.063 263.951C527.204 263.817 527.373 263.751 527.57 263.751C527.761 263.751 527.923 263.817 528.056 263.951C528.197 264.085 528.268 264.258 528.268 264.469C528.268 264.68 528.197 264.856 528.056 264.997C527.923 265.131 527.761 265.198 527.57 265.198ZM531.63 265.219C531.109 265.219 530.602 265.138 530.109 264.976C529.623 264.814 529.225 264.596 528.915 264.321L529.401 263.486C529.648 263.719 529.968 263.909 530.363 264.057C530.757 264.205 531.179 264.279 531.63 264.279C532.179 264.279 532.606 264.162 532.908 263.93C533.218 263.691 533.373 263.37 533.373 262.969C533.373 262.582 533.225 262.272 532.929 262.039C532.641 261.8 532.179 261.68 531.546 261.68H530.954V260.941L533.151 258.237L533.299 258.659H529.253V257.74H534.134V258.458L531.947 261.152L531.398 260.825H531.746C532.641 260.825 533.31 261.025 533.753 261.427C534.204 261.828 534.429 262.339 534.429 262.958C534.429 263.374 534.327 263.754 534.123 264.099C533.919 264.444 533.609 264.719 533.194 264.923C532.785 265.12 532.264 265.219 531.63 265.219Z" fill="#D6572D"/>
<g clip-path="url(#clip12_770_23)">
<path d="M547.418 260.618L544.39 260.17L543.001 257.442L541.639 260.183L538.615 260.661L540.801 262.804L540.322 265.827L543.035 264.41L545.762 265.8L545.253 262.782L547.418 260.618Z" fill="#D6572D"/>
</g>
<path d="M260.289 252.832H295.5C297.444 252.832 299.021 254.408 299.021 256.353V266.916C299.021 268.86 297.444 270.437 295.5 270.437H260.289V252.832Z" fill="#D7F5E2"/>
<path d="M264.214 263.317V262.578L267.996 257.74H269.136L265.386 262.578L264.848 262.409H270.753V263.317H264.214ZM268.323 265.134V263.317L268.355 262.409V260.803H269.348V265.134H268.323ZM272.289 265.198C272.092 265.198 271.923 265.131 271.782 264.997C271.641 264.856 271.571 264.68 271.571 264.469C271.571 264.258 271.641 264.085 271.782 263.951C271.923 263.817 272.092 263.751 272.289 263.751C272.479 263.751 272.641 263.817 272.775 263.951C272.916 264.085 272.986 264.258 272.986 264.469C272.986 264.68 272.916 264.856 272.775 264.997C272.641 265.131 272.479 265.198 272.289 265.198ZM273.787 263.317V262.578L277.568 257.74H278.709L274.959 262.578L274.421 262.409H280.325V263.317H273.787ZM277.896 265.134V263.317L277.928 262.409V260.803H278.92V265.134H277.896Z" fill="#D6572D"/>
<g clip-path="url(#clip13_770_23)">
<path d="M293.137 260.618L290.109 260.17L288.72 257.442L287.357 260.183L284.334 260.661L286.52 262.804L286.04 265.827L288.754 264.41L291.481 265.8L290.972 262.782L293.137 260.618Z" fill="#D6572D"/>
</g>
<path d="M132.652 389.272H167.863C169.808 389.272 171.384 390.849 171.384 392.794V403.357C171.384 405.301 169.808 406.878 167.863 406.878H132.652V389.272Z" fill="#D7F5E2"/>
<path d="M136.577 399.758V399.018L140.359 394.18H141.5L137.75 399.018L137.211 398.849H143.116V399.758H136.577ZM140.686 401.575V399.758L140.718 398.849V397.244H141.711V401.575H140.686ZM144.652 401.638C144.455 401.638 144.286 401.571 144.145 401.437C144.005 401.297 143.934 401.12 143.934 400.909C143.934 400.698 144.005 400.525 144.145 400.392C144.286 400.258 144.455 400.191 144.652 400.191C144.843 400.191 145.005 400.258 145.138 400.392C145.279 400.525 145.35 400.698 145.35 400.909C145.35 401.12 145.279 401.297 145.138 401.437C145.005 401.571 144.843 401.638 144.652 401.638ZM146.15 399.758V399.018L149.932 394.18H151.072L147.323 399.018L146.784 398.849H152.689V399.758H146.15ZM150.259 401.575V399.758L150.291 398.849V397.244H151.284V401.575H150.259Z" fill="#D6572D"/>
<g clip-path="url(#clip14_770_23)">
<path d="M165.5 397.059L162.472 396.611L161.083 393.883L159.721 396.624L156.697 397.102L158.883 399.245L158.404 402.268L161.117 400.851L163.844 402.241L163.335 399.223L165.5 397.059Z" fill="#D6572D"/>
</g>
<path d="M387.93 389.272H423.14C425.085 389.272 426.661 390.849 426.661 392.794V403.357C426.661 405.301 425.085 406.878 423.14 406.878H387.93V389.272Z" fill="#D7F5E2"/>
<path d="M391.851 399.758V399.018L395.632 394.18H396.773L393.023 399.018L392.484 398.849H398.389V399.758H391.851ZM395.96 401.575V399.758L395.991 398.849V397.244H396.984V401.575H395.96ZM399.926 401.638C399.729 401.638 399.56 401.571 399.419 401.437C399.278 401.297 399.208 401.12 399.208 400.909C399.208 400.698 399.278 400.525 399.419 400.392C399.56 400.258 399.729 400.191 399.926 400.191C400.116 400.191 400.278 400.258 400.412 400.392C400.553 400.525 400.623 400.698 400.623 400.909C400.623 401.12 400.553 401.297 400.412 401.437C400.278 401.571 400.116 401.638 399.926 401.638ZM403.986 401.659C403.465 401.659 402.957 401.578 402.465 401.416C401.979 401.254 401.581 401.036 401.271 400.761L401.757 399.927C402.003 400.159 402.324 400.349 402.718 400.497C403.112 400.645 403.535 400.719 403.986 400.719C404.535 400.719 404.961 400.603 405.264 400.371C405.574 400.131 405.729 399.811 405.729 399.409C405.729 399.022 405.581 398.712 405.285 398.48C404.996 398.24 404.535 398.121 403.901 398.121H403.31V397.381L405.507 394.677L405.655 395.099H401.609V394.18H406.489V394.899L404.303 397.592L403.753 397.265H404.102C404.996 397.265 405.665 397.466 406.109 397.867C406.56 398.268 406.785 398.779 406.785 399.399C406.785 399.814 406.683 400.194 406.479 400.54C406.274 400.885 405.964 401.159 405.549 401.363C405.141 401.561 404.619 401.659 403.986 401.659Z" fill="#D6572D"/>
<g clip-path="url(#clip15_770_23)">
<path d="M419.773 397.059L416.745 396.611L415.356 393.883L413.994 396.624L410.971 397.102L413.157 399.245L412.677 402.268L415.39 400.851L418.117 402.241L417.608 399.223L419.773 397.059Z" fill="#D6572D"/>
</g>
<path d="M515.57 389.272H550.781C552.725 389.272 554.302 390.849 554.302 392.794V403.357C554.302 405.301 552.725 406.878 550.781 406.878H515.57V389.272Z" fill="#D7F5E2"/>
<path d="M519.495 399.758V399.018L523.277 394.18H524.418L520.668 399.018L520.129 398.849H526.034V399.758H519.495ZM523.604 401.575V399.758L523.636 398.849V397.244H524.629V401.575H523.604ZM527.57 401.638C527.373 401.638 527.204 401.571 527.063 401.437C526.923 401.297 526.852 401.12 526.852 400.909C526.852 400.698 526.923 400.525 527.063 400.392C527.204 400.258 527.373 400.191 527.57 400.191C527.761 400.191 527.923 400.258 528.056 400.392C528.197 400.525 528.268 400.698 528.268 400.909C528.268 401.12 528.197 401.297 528.056 401.437C527.923 401.571 527.761 401.638 527.57 401.638ZM529.253 401.575V400.856L532.264 397.952C532.532 397.698 532.729 397.476 532.855 397.286C532.989 397.089 533.077 396.909 533.12 396.747C533.169 396.578 533.194 396.416 533.194 396.261C533.194 395.881 533.06 395.582 532.792 395.364C532.525 395.145 532.134 395.036 531.62 395.036C531.225 395.036 530.87 395.103 530.553 395.237C530.236 395.364 529.961 395.564 529.729 395.839L529.011 395.216C529.292 394.857 529.669 394.582 530.141 394.392C530.62 394.195 531.144 394.096 531.715 394.096C532.229 394.096 532.676 394.18 533.056 394.349C533.436 394.511 533.729 394.747 533.933 395.057C534.144 395.367 534.25 395.733 534.25 396.156C534.25 396.395 534.218 396.631 534.155 396.864C534.091 397.096 533.972 397.342 533.796 397.603C533.62 397.864 533.366 398.156 533.035 398.48L530.352 401.068L530.099 400.656H534.567V401.575H529.253Z" fill="#D6572D"/>
<g clip-path="url(#clip16_770_23)">
<path d="M547.418 397.059L544.39 396.611L543.001 393.883L541.639 396.624L538.615 397.102L540.801 399.245L540.322 402.268L543.035 400.851L545.762 402.241L545.253 399.223L547.418 397.059Z" fill="#D6572D"/>
</g>
<path d="M260.289 389.272H295.5C297.444 389.272 299.021 390.849 299.021 392.794V403.357C299.021 405.301 297.444 406.878 295.5 406.878H260.289V389.272Z" fill="#D7F5E2"/>
<path d="M264.214 399.758V399.018L267.996 394.18H269.136L265.386 399.018L264.848 398.849H270.753V399.758H264.214ZM268.323 401.575V399.758L268.355 398.849V397.244H269.348V401.575H268.323ZM272.289 401.638C272.092 401.638 271.923 401.571 271.782 401.437C271.641 401.297 271.571 401.12 271.571 400.909C271.571 400.698 271.641 400.525 271.782 400.392C271.923 400.258 272.092 400.191 272.289 400.191C272.479 400.191 272.641 400.258 272.775 400.392C272.916 400.525 272.986 400.698 272.986 400.909C272.986 401.12 272.916 401.297 272.775 401.437C272.641 401.571 272.479 401.638 272.289 401.638ZM275.129 401.575L278.267 394.624L278.541 395.099H274.147L274.675 394.582V396.42H273.661V394.18H279.238V394.899L276.249 401.575H275.129Z" fill="#D6572D"/>
<g clip-path="url(#clip17_770_23)">
<path d="M292.137 397.059L289.109 396.611L287.72 393.883L286.357 396.624L283.334 397.102L285.52 399.245L285.04 402.268L287.754 400.851L290.481 402.241L289.972 399.223L292.137 397.059Z" fill="#D6572D"/>
</g>
<rect x="143.215" y="192.094" width="92.4277" height="8.80264" rx="4.40132" fill="#E5E5E5"/>
<rect x="143.215" y="328.534" width="92.4277" height="8.80264" rx="4.40132" fill="#E5E5E5"/>
<rect x="143.215" y="462.334" width="92.4277" height="8.80264" rx="4.40132" fill="#E5E5E5"/>
<rect x="270.855" y="328.534" width="92.4277" height="8.80264" rx="4.40132" fill="#E5E5E5"/>
<rect x="398.492" y="328.534" width="92.4277" height="8.80264" rx="4.40132" fill="#E5E5E5"/>
<rect x="526.129" y="328.534" width="92.4277" height="8.80264" rx="4.40132" fill="#E5E5E5"/>
<rect x="526.129" y="192.094" width="92.4277" height="8.80264" rx="4.40132" fill="#E5E5E5"/>
<rect x="398.492" y="192.094" width="92.4277" height="8.80264" rx="4.40132" fill="#E5E5E5"/>
<rect x="270.855" y="462.334" width="92.4277" height="8.80264" rx="4.40132" fill="#E5E5E5"/>
<rect x="398.492" y="462.334" width="92.4277" height="8.80264" rx="4.40132" fill="#E5E5E5"/>
<rect x="526.129" y="462.334" width="92.4277" height="8.80264" rx="4.40132" fill="#E5E5E5"/>
<rect x="156.422" y="206.178" width="66.0198" height="8.80264" rx="4.40132" fill="#E5E5E5"/>
<rect x="156.422" y="342.618" width="66.0198" height="8.80264" rx="4.40132" fill="#E5E5E5"/>
<rect x="156.422" y="476.419" width="66.0198" height="8.80264" rx="4.40132" fill="#E5E5E5"/>
<rect x="284.059" y="342.618" width="66.0198" height="8.80264" rx="4.40132" fill="#E5E5E5"/>
<rect x="411.695" y="342.618" width="66.0198" height="8.80264" rx="4.40132" fill="#E5E5E5"/>
<rect x="539.336" y="342.618" width="66.0198" height="8.80264" rx="4.40132" fill="#E5E5E5"/>
<rect x="539.336" y="206.178" width="66.0198" height="8.80264" rx="4.40132" fill="#E5E5E5"/>
<rect x="411.695" y="206.178" width="66.0198" height="8.80264" rx="4.40132" fill="#E5E5E5"/>
<g filter="url(#filter5_d_770_23)">
<rect x="299.453" y="115.009" width="113.554" height="120.596" rx="7.04211" transform="rotate(14 299.453 115.009)" fill="white"/>
</g>
<path d="M296.898 125.259L331.063 133.777C332.95 134.247 334.098 136.158 333.628 138.045L331.072 148.295C330.602 150.182 328.691 151.33 326.804 150.859L292.639 142.341L296.898 125.259Z" fill="#D7F5E2"/>
<path d="M298.167 136.382L298.346 135.665L303.185 131.885L304.292 132.161L299.483 135.948L299.002 135.654L304.731 137.083L304.511 137.964L298.167 136.382ZM301.714 139.139L302.154 137.376L302.404 136.502L302.793 134.945L303.756 135.185L302.708 139.387L301.714 139.139ZM305.547 140.16C305.356 140.112 305.208 140.007 305.104 139.843C305.001 139.672 304.976 139.484 305.027 139.279C305.078 139.074 305.188 138.924 305.357 138.828C305.526 138.732 305.706 138.708 305.897 138.756C306.082 138.802 306.223 138.906 306.32 139.068C306.425 139.232 306.451 139.417 306.4 139.622C306.349 139.827 306.238 139.98 306.067 140.083C305.905 140.18 305.732 140.206 305.547 140.16ZM308.318 140.786L313.044 134.801L313.195 135.328L308.932 134.265L309.569 133.891L309.125 135.674L308.141 135.429L308.683 133.256L314.094 134.605L313.92 135.302L309.405 141.057L308.318 140.786Z" fill="#D6572D"/>
<g clip-path="url(#clip18_770_23)">
<path d="M325.913 140.519L323.084 139.351L322.396 136.368L320.411 138.698L317.362 138.431L318.965 141.039L317.768 143.856L320.743 143.138L323.053 145.146L323.289 142.094L325.913 140.519Z" fill="#D6572D"/>
</g>
<rect x="289.473" y="198.705" width="92.4277" height="8.80264" rx="4.40132" transform="rotate(14 289.473 198.705)" fill="#D7F5E2"/>
<rect x="298.875" y="215.566" width="66.0198" height="8.80264" rx="4.40132" transform="rotate(14 298.875 215.566)" fill="#D7F5E2"/>
<g clip-path="url(#clip19_770_23)">
<mask id="mask0_770_23" style="mask-type:luminance" maskUnits="userSpaceOnUse" x="321" y="161" width="39" height="39">
<path d="M359.53 168.999L328.73 161.319L321.051 192.119L351.851 199.798L359.53 168.999Z" fill="white"/>
</mask>
<g mask="url(#mask0_770_23)">
<path d="M331.453 165.847L338.7 167.654L338.248 169.466L331.001 167.659L331.453 165.847Z" fill="#007F62"/>
<path d="M340.512 168.106L342.323 168.558L341.872 170.369L340.06 169.918L340.512 168.106Z" fill="#007F62"/>
<path d="M344.137 169.009L345.948 169.461L345.497 171.272L343.685 170.821L344.137 169.009Z" fill="#007F62"/>
<path d="M328.742 176.718L335.989 178.525L335.537 180.336L328.29 178.53L328.742 176.718Z" fill="#007F62"/>
<path d="M337.801 178.976L339.612 179.428L339.161 181.24L337.349 180.788L337.801 178.976Z" fill="#007F62"/>
<path d="M326.031 187.588L333.278 189.395L332.826 191.207L325.58 189.4L326.031 187.588Z" fill="#007F62"/>
<path d="M335.094 189.847L336.905 190.298L336.454 192.11L334.642 191.658L335.094 189.847Z" fill="#007F62"/>
<path d="M353.491 185.966C353.46 185.942 353.429 185.918 353.397 185.894L356.819 172.171L351.988 170.967L352.891 167.343L328.734 161.32L326.476 170.379L328.288 170.831L327.836 172.642L326.024 172.191L323.765 181.249L325.577 181.701L325.125 183.513L323.314 183.061L321.055 192.12L344.954 198.079L348.985 195.656C350.445 194.779 351.698 193.641 352.711 192.272C353.724 190.903 354.446 189.371 354.858 187.719L355.007 187.123L353.491 185.966ZM354.555 173.531L351.807 184.553C351.057 183.862 350.351 183.122 349.696 182.341L349.276 181.841L350.181 178.214L348.369 177.762L348.821 175.95L350.632 176.402L351.536 172.778L354.555 173.531ZM330.094 163.584L350.627 168.703L349.272 174.138L328.739 169.019L330.094 163.584ZM330.099 171.282L347.009 175.498L346.557 177.31L329.648 173.094L330.099 171.282ZM327.384 174.454L347.917 179.574L347.461 181.404C345.461 182.277 343.354 182.871 341.19 183.169L339.921 183.344L339.919 183.353L326.029 179.889L327.384 174.454ZM327.389 182.153L339.525 185.179C339.432 185.805 339.384 186.436 339.384 187.068L326.937 183.965L327.389 182.153ZM323.319 190.76L324.674 185.325L339.534 189.03C339.641 189.728 339.803 190.411 340.02 191.075L338.716 190.75L338.264 192.562L340.948 193.231C341.037 193.396 341.131 193.56 341.228 193.722L342.29 195.49L323.319 190.76ZM348.023 194.056L344.778 196.006L342.828 192.761C341.418 190.414 340.935 187.687 341.446 185.019C343.7 184.708 345.897 184.1 347.988 183.21L348.265 183.541C349.479 184.989 350.856 186.304 352.358 187.451L352.884 187.852C352.084 190.455 350.375 192.642 348.023 194.056Z" fill="#007F62"/>
<path d="M346.121 189.316L345.254 187.855L343.649 188.808L345.473 191.882L350.441 188.902L349.481 187.301L346.121 189.316Z" fill="#007F62"/>
</g>
</g>
<path d="M372.831 245.42C372.442 244.248 373.732 243.231 374.781 243.882L392.918 255.138C393.91 255.754 393.673 257.26 392.54 257.542L387.887 258.698C386.292 259.094 384.944 260.157 384.188 261.616L381.98 265.872C381.442 266.908 379.923 266.788 379.555 265.68L372.831 245.42Z" fill="#F5EED7" stroke="#D6572D" stroke-width="4.40132"/>
<rect x="284.059" y="476.419" width="66.0198" height="8.80264" rx="4.40132" fill="#E5E5E5"/>
<rect x="411.695" y="476.419" width="66.0198" height="8.80264" rx="4.40132" fill="#E5E5E5"/>
<rect x="539.336" y="476.419" width="66.0198" height="8.80264" rx="4.40132" fill="#E5E5E5"/>
<g clip-path="url(#clip20_770_23)">
<path d="M179.547 148.911H181.407V150.771H179.547V148.911Z" fill="#007F62"/>
<path d="M183.27 148.911H185.129V150.771H183.27V148.911Z" fill="#007F62"/>
<path d="M186.988 148.911H188.848V150.771H186.988V148.911Z" fill="#007F62"/>
<path d="M179.547 156.351H181.407V158.21H179.547V156.351Z" fill="#007F62"/>
<path d="M183.27 156.351H185.129V158.21H183.27V156.351Z" fill="#007F62"/>
<path d="M186.988 156.351H188.848V158.21H186.988V156.351Z" fill="#007F62"/>
<path d="M179.547 163.79H181.407V165.65H179.547V163.79Z" fill="#007F62"/>
<path d="M183.27 163.79H185.129V165.65H183.27V163.79Z" fill="#007F62"/>
<path d="M183.268 171.23C183.268 173.281 184.936 174.95 186.988 174.95H201.929C205.024 174.95 207.571 172.443 207.571 169.37C207.571 166.3 205.027 163.79 201.929 163.79H201.61C201.293 162.895 200.756 162.111 200.069 161.497C200.069 161.017 200.069 145.876 200.069 145.191H175.828V169.369H183.768C183.451 169.917 183.268 170.552 183.268 171.23ZM201.929 165.65C204.014 165.65 205.711 167.319 205.711 169.37C205.711 171.421 204.014 173.09 201.929 173.09H186.988C185.962 173.09 185.128 172.255 185.128 171.23C185.128 170.202 185.962 169.37 186.988 169.37H188.848V168.44C188.848 166.901 190.099 165.65 191.637 165.65H192.491L192.642 164.905C192.992 163.181 194.551 161.93 196.349 161.93C198.111 161.93 199.644 163.181 199.994 164.905L200.145 165.65H201.929ZM177.688 147.051H198.209V152.631H177.688V147.051ZM177.688 154.49H198.209V160.07H177.688V154.49ZM177.688 161.93H192.145C191.649 162.475 191.26 163.118 191.012 163.832C189.05 164.097 187.472 165.59 187.081 167.51H177.688V161.93Z" fill="#007F62"/>
</g>
<g clip-path="url(#clip21_770_23)">
<path d="M198.367 421.223H200.227V430.523H198.367V421.223Z" fill="#007F62"/>
<path d="M194.648 423.083H196.508V430.523H194.648V423.083Z" fill="#007F62"/>
<path d="M190.926 426.803H192.786V430.523H190.926V426.803Z" fill="#007F62"/>
<path d="M188.137 449.183C196.876 449.183 204.008 442.051 204.008 433.312V432.382C202.812 432.382 189.856 432.382 189.067 432.382V417.441H188.137C179.398 417.441 172.266 424.574 172.266 433.312C172.266 442.051 179.398 449.183 188.137 449.183ZM184.546 436.102H174.405C174.282 435.495 174.199 434.874 174.157 434.242H186.126L184.546 436.102ZM182.965 437.962L181.385 439.822H175.733C175.419 439.226 175.146 438.605 174.92 437.962H182.965ZM179.804 441.682L178.38 443.358C177.846 442.839 177.353 442.279 176.907 441.682H179.804ZM202.118 434.242C201.637 441.536 195.55 447.324 188.137 447.324C185.015 447.324 182.128 446.297 179.796 444.563L188.567 434.242H202.118ZM174.157 432.382C174.199 431.75 174.282 431.129 174.405 430.522H187.207V432.382H174.157ZM187.207 428.662H174.919C175.146 428.02 175.418 427.399 175.733 426.802H187.207V428.662ZM187.207 421.223H181.062C182.888 420.15 184.977 419.478 187.207 419.331V421.223ZM178.573 423.083H187.207V424.943H176.907C177.407 424.274 177.964 423.652 178.573 423.083Z" fill="#007F62"/>
</g>
<g clip-path="url(#clip22_770_23)">
<path d="M303.547 433.498H308.122V435.366H303.547V433.498Z" fill="#007F62"/>
<path d="M303.492 437.375H308.177V439.243H303.492V437.375Z" fill="#007F62"/>
<path d="M324.809 426.006V436.729L321.71 437.7V426.006H314.875V436.729L311.776 437.7V429.619H299.902V447.399H331.645V426.006H324.809ZM316.743 427.874H319.842V435.172L316.743 436.144V427.874ZM309.908 445.531H306.768V441.542H304.899V445.531H301.771V431.488H309.908V445.531ZM319.842 445.531H311.776V439.658L319.842 437.13V445.531ZM329.777 445.531H321.71V439.658L329.777 437.13V445.531ZM326.678 436.144V427.874H329.777V435.172L326.678 436.144Z" fill="#007F62"/>
<path d="M314.331 422.354H316.099C316.793 422.354 317.358 422.919 317.358 423.613V423.669H319.226V423.613C319.226 421.889 317.823 420.486 316.099 420.486H314.331C313.636 420.486 313.071 419.921 313.071 419.227H311.203C311.203 420.951 312.606 422.354 314.331 422.354Z" fill="#007F62"/>
<path d="M324.268 422.354H326.036C326.731 422.354 327.295 422.919 327.295 423.613V423.669H329.164V423.613C329.164 421.889 327.761 420.486 326.036 420.486H324.268C323.574 420.486 323.009 419.921 323.009 419.227H321.141C321.141 420.951 322.544 422.354 324.268 422.354Z" fill="#007F62"/>
</g>
<g clip-path="url(#clip23_770_23)">
<path d="M431.387 424.942H435.107V426.802H431.387V424.942Z" fill="#007F62"/>
<path d="M436.969 424.942H440.689V426.802H436.969V424.942Z" fill="#007F62"/>
<path d="M442.547 424.942H446.267V426.802H442.547V424.942Z" fill="#007F62"/>
<path d="M431.387 436.102H438.826V430.522H431.387V436.102ZM433.247 432.382H436.966V434.242H433.247V432.382Z" fill="#007F62"/>
<path d="M456.801 433.779L457.766 432.109L456.155 431.179L455.192 432.847C454.721 432.658 454.223 432.523 453.706 432.449V430.522H455.566V428.662H453.706V421.223H427.543V439.822H446.333C446.785 442.972 449.502 445.402 452.776 445.402C456.365 445.402 459.285 442.481 459.285 438.892C459.285 436.821 458.313 434.973 456.801 433.779ZM429.403 423.083H451.846V428.662H449.986V430.522H451.846V432.449C451.329 432.523 450.831 432.658 450.36 432.847L449.396 431.179L447.786 432.108L448.75 433.779C447.469 434.791 446.576 436.273 446.333 437.962H429.403V423.083ZM452.776 443.542C450.212 443.542 448.126 441.456 448.126 438.892C448.126 436.328 450.212 434.242 452.776 434.242C455.34 434.242 457.426 436.328 457.426 438.892C457.426 441.456 455.34 443.542 452.776 443.542Z" fill="#007F62"/>
<path d="M453.708 436.102H451.848V439.822H455.567V437.962H453.708V436.102Z" fill="#007F62"/>
</g>
<g clip-path="url(#clip24_770_23)">
<path d="M580.134 296.925V291.096H577.439C577.458 290.966 577.467 290.834 577.467 290.701C577.467 289.957 577.174 289.253 576.64 288.719C575.539 287.618 573.748 287.618 572.646 288.719L571.053 290.391L569.475 288.735L569.459 288.719C568.358 287.618 566.566 287.618 565.465 288.719C564.932 289.253 564.638 289.957 564.638 290.701C564.638 290.834 564.648 290.966 564.666 291.096H561.969V296.925H563.774V305.46H578.331V296.925H580.134ZM578.274 295.065H573.797V292.956H578.274V295.065ZM570.168 292.956H571.937V295.065H570.168V292.956ZM573.968 290.028C574.345 289.659 574.951 289.661 575.325 290.034C575.617 290.326 575.681 290.747 575.517 291.096H572.95L573.968 290.028ZM566.78 290.034C567.154 289.661 567.761 289.659 568.137 290.028L569.155 291.096H566.588C566.425 290.747 566.489 290.326 566.78 290.034ZM563.829 292.956H568.308V295.065H563.829V292.956ZM565.634 303.6V296.925H568.308V303.6H565.634ZM570.168 303.6V296.925H571.937V303.6H570.168ZM576.471 303.6H573.797V296.925H576.471V303.6Z" fill="#007F62"/>
<path d="M570.121 281H571.981V283.293H570.121V281Z" fill="#007F62"/>
<path d="M570.121 310.45H571.981V312.742H570.121V310.45Z" fill="#007F62"/>
<path d="M584.629 295.941H586.921V297.801H584.629V295.941Z" fill="#007F62"/>
<path d="M555.18 295.941H557.472V297.801H555.18V295.941Z" fill="#007F62"/>
<path d="M579.555 287.053L581.614 284.994L582.929 286.309L580.87 288.368L579.555 287.053Z" fill="#007F62"/>
<path d="M559.168 307.434L561.227 305.374L562.542 306.689L560.483 308.749L559.168 307.434Z" fill="#007F62"/>
<path d="M579.551 306.692L580.866 305.377L582.925 307.437L581.61 308.752L579.551 306.692Z" fill="#007F62"/>
<path d="M559.172 286.306L560.487 284.991L562.546 287.05L561.231 288.365L559.172 286.306Z" fill="#007F62"/>
</g>
<g clip-path="url(#clip25_770_23)">
<path d="M571.987 432.281C576.724 430.319 580.965 427.485 584.591 423.859L586.607 421.843V424.474H588.67V418.321H582.518V420.384H585.148L583.132 422.401C579.699 425.834 575.683 428.517 571.197 430.375C566.711 432.233 561.975 433.176 557.119 433.176H556.898V435.239H557.119C562.247 435.239 567.249 434.244 571.987 432.281Z" fill="#007F62"/>
<path d="M588.671 451.468V430.548H580.418V451.468H576.911V436.53H568.659V451.468H565.152V442.514H556.899V451.468H555.18V453.531H590.39V451.468H588.671ZM582.481 432.611H586.608V451.468H582.481V432.611ZM570.722 438.593H574.848V451.468H570.722V438.593ZM558.962 444.577H563.089V451.468H558.962V444.577Z" fill="#007F62"/>
</g>
<g clip-path="url(#clip26_770_23)">
<path d="M571.051 175.942C579.79 175.942 586.922 168.809 586.922 160.07C586.922 151.331 579.789 144.199 571.051 144.199C562.312 144.199 555.18 151.332 555.18 160.07C555.18 168.81 562.312 175.942 571.051 175.942ZM575.759 173.267C576.659 172.118 577.348 170.747 577.866 169.369H581.521C579.972 171.112 577.997 172.466 575.759 173.267ZM582.919 167.51H578.467C579.016 165.515 579.338 163.302 579.406 161H585.031C584.874 163.38 584.121 165.6 582.919 167.51ZM582.919 152.631C584.121 154.541 584.874 156.761 585.031 159.141H579.406C579.338 156.839 579.016 154.626 578.467 152.631H582.919ZM581.521 150.771H577.866C577.348 149.394 576.659 148.023 575.759 146.874C577.997 147.675 579.972 149.029 581.521 150.771ZM571.981 146.218C573.806 146.837 575.115 149.007 575.864 150.771H571.981V146.218ZM571.981 152.631H576.533C577.124 154.589 577.472 156.81 577.546 159.141H571.981V152.631ZM571.981 161H577.546C577.472 163.331 577.124 165.552 576.533 167.51H571.981V161ZM571.981 169.369H575.864C575.114 171.137 573.804 173.305 571.981 173.923V169.369ZM560.581 169.37H564.236C564.754 170.747 565.443 172.118 566.343 173.267C564.105 172.466 562.129 171.112 560.581 169.37ZM570.121 173.923C568.298 173.305 566.988 171.137 566.238 169.37H570.121V173.923ZM570.121 167.51H565.569C564.977 165.552 564.63 163.331 564.556 161H570.121V167.51ZM570.121 159.141H564.556C564.63 156.81 564.977 154.589 565.569 152.631H570.121V159.141ZM570.121 146.218V150.771H566.238C566.988 149.004 568.297 146.836 570.121 146.218ZM566.342 146.874C565.443 148.023 564.754 149.394 564.236 150.771H560.581C562.129 149.029 564.105 147.675 566.342 146.874ZM559.183 152.63H563.635C563.086 154.626 562.764 156.839 562.696 159.141H557.071C557.228 156.761 557.981 154.541 559.183 152.63ZM557.071 161H562.696C562.764 163.302 563.086 165.515 563.635 167.51H559.183C557.981 165.6 557.228 163.38 557.071 161Z" fill="#007F62"/>
</g>
<g clip-path="url(#clip27_770_23)">
<path d="M202.942 294.07C201.725 294.07 200.687 294.851 200.301 295.937H198.222C198.042 294.319 197.401 292.838 196.433 291.629L201.735 286.327C202.101 286.503 202.51 286.601 202.942 286.601C204.486 286.601 205.743 285.345 205.743 283.8C205.743 282.256 204.486 281 202.942 281C201.397 281 200.141 282.256 200.141 283.8C200.141 284.232 200.239 284.641 200.415 285.007L195.113 290.309C193.904 289.341 192.423 288.7 190.805 288.52V286.441C191.892 286.055 192.672 285.017 192.672 283.8C192.672 282.256 191.416 281 189.871 281C188.327 281 187.07 282.256 187.07 283.8C187.07 285.017 187.851 286.055 188.938 286.441V288.52C187.319 288.7 185.839 289.341 184.63 290.309L179.328 285.007C179.503 284.641 179.602 284.232 179.602 283.8C179.602 282.256 178.345 281 176.801 281C175.256 281 174 282.256 174 283.8C174 285.345 175.256 286.601 176.801 286.601C177.233 286.601 177.642 286.503 178.008 286.327L183.309 291.629C182.342 292.838 181.701 294.319 181.521 295.937H179.441C179.056 294.851 178.018 294.07 176.801 294.07C175.256 294.07 174 295.326 174 296.871C174 298.415 175.256 299.672 176.801 299.672C178.018 299.672 179.056 298.891 179.441 297.804H181.521C181.953 301.693 185.049 304.789 188.938 305.221V307.301C187.851 307.686 187.07 308.724 187.07 309.941C187.07 311.486 188.327 312.742 189.871 312.742C191.416 312.742 192.672 311.486 192.672 309.941C192.672 308.724 191.892 307.686 190.805 307.301V305.221C194.694 304.789 197.79 301.693 198.222 297.804H200.301C200.687 298.891 201.725 299.672 202.942 299.672C204.486 299.672 205.743 298.415 205.743 296.871C205.743 295.326 204.486 294.07 202.942 294.07ZM202.942 282.867C203.457 282.867 203.875 283.286 203.875 283.8C203.875 284.315 203.457 284.734 202.942 284.734C202.427 284.734 202.008 284.315 202.008 283.8C202.008 283.286 202.427 282.867 202.942 282.867ZM189.871 282.867C190.386 282.867 190.805 283.286 190.805 283.8C190.805 284.315 190.386 284.734 189.871 284.734C189.356 284.734 188.938 284.315 188.938 283.8C188.938 283.286 189.356 282.867 189.871 282.867ZM175.867 283.8C175.867 283.286 176.286 282.867 176.801 282.867C177.316 282.867 177.734 283.286 177.734 283.8C177.734 284.315 177.316 284.734 176.801 284.734C176.286 284.734 175.867 284.315 175.867 283.8ZM176.801 297.804C176.286 297.804 175.867 297.386 175.867 296.871C175.867 296.356 176.286 295.937 176.801 295.937C177.316 295.937 177.734 296.356 177.734 296.871C177.734 297.386 177.316 297.804 176.801 297.804ZM189.871 297.804C188.842 297.804 188.004 296.967 188.004 295.937C188.004 294.908 188.842 294.07 189.871 294.07C190.901 294.07 191.738 294.908 191.738 295.937C191.738 296.967 190.901 297.804 189.871 297.804ZM188.938 299.672H190.805C192.27 299.672 193.476 300.803 193.595 302.238C191.357 303.795 188.387 303.797 186.147 302.238C186.267 300.803 187.472 299.672 188.938 299.672ZM189.871 310.875C189.356 310.875 188.938 310.456 188.938 309.941C188.938 309.426 189.356 309.008 189.871 309.008C190.386 309.008 190.805 309.426 190.805 309.941C190.805 310.456 190.386 310.875 189.871 310.875ZM195.137 300.737C194.698 299.644 193.857 298.755 192.798 298.252C193.303 297.615 193.606 296.811 193.606 295.937C193.606 293.878 191.93 292.203 189.871 292.203C187.812 292.203 186.137 293.878 186.137 295.937C186.137 296.811 186.439 297.615 186.944 298.252C185.885 298.755 185.045 299.644 184.606 300.737C183.808 299.653 183.336 298.316 183.336 296.871C183.336 293.267 186.268 290.336 189.871 290.336C193.475 290.336 196.406 293.267 196.406 296.871C196.406 298.316 195.934 299.653 195.137 300.737ZM202.942 297.804C202.427 297.804 202.008 297.386 202.008 296.871C202.008 296.356 202.427 295.937 202.942 295.937C203.457 295.937 203.875 296.356 203.875 296.871C203.875 297.386 203.457 297.804 202.942 297.804Z" fill="#007F62"/>
</g>
<g clip-path="url(#clip28_770_23)">
<path d="M331.645 286.898L327.343 285.302L325.747 281L321.932 284.815C319.748 283.617 317.291 282.987 314.78 282.987C310.806 282.987 307.07 284.534 304.26 287.344C301.45 290.154 299.902 293.89 299.902 297.865C299.902 301.839 301.45 305.575 304.26 308.385C307.07 311.195 310.806 312.743 314.78 312.743C318.754 312.743 322.491 311.195 325.301 308.385C328.111 305.575 329.658 301.839 329.658 297.865C329.658 295.354 329.028 292.897 327.829 290.713L331.645 286.898ZM325.012 284.365L325.896 286.749L328.279 287.633L326.23 289.683L322.443 290.202L322.962 286.415L325.012 284.365ZM318.5 297.865C318.5 299.915 316.831 301.584 314.78 301.584C312.729 301.584 311.061 299.915 311.061 297.865C311.061 295.814 312.729 294.145 314.78 294.145C315.469 294.145 316.114 294.334 316.668 294.662L314.123 297.207L315.438 298.522L317.983 295.977C318.311 296.53 318.5 297.176 318.5 297.865ZM318.011 293.318C317.099 292.668 315.984 292.285 314.78 292.285C311.704 292.285 309.201 294.788 309.201 297.865C309.201 300.941 311.704 303.444 314.78 303.444C317.857 303.444 320.36 300.941 320.36 297.865C320.36 296.661 319.977 295.546 319.326 294.634L321.316 292.644C322.462 294.076 323.149 295.892 323.149 297.865C323.149 302.479 319.395 306.233 314.78 306.233C310.166 306.233 306.411 302.479 306.411 297.865C306.411 293.25 310.166 289.496 314.78 289.496C316.753 289.496 318.569 290.182 320.001 291.329L318.011 293.318ZM314.78 310.883C307.602 310.883 301.762 305.043 301.762 297.865C301.762 290.686 307.602 284.846 314.78 284.846C316.993 284.846 319.158 285.406 321.078 286.468L320.662 289.501C318.997 288.327 316.968 287.636 314.78 287.636C309.14 287.636 304.552 292.224 304.552 297.864C304.552 303.505 309.14 308.093 314.78 308.093C320.42 308.093 325.009 303.505 325.009 297.864C325.009 295.677 324.318 293.648 323.144 291.983L326.176 291.567C327.239 293.487 327.799 295.652 327.799 297.865C327.799 305.043 321.959 310.883 314.78 310.883Z" fill="#007F62"/>
</g>
<g clip-path="url(#clip29_770_23)">
<path d="M435.012 286.602H442.481V288.469H435.012V286.602Z" fill="#007F62"/>
<path d="M435.012 290.336H443.414V292.203H435.012V290.336Z" fill="#007F62"/>
<path d="M435.012 294.071H442.481V295.938H435.012V294.071Z" fill="#007F62"/>
<path d="M435.012 297.805H442.481V299.672H435.012V297.805Z" fill="#007F62"/>
<path d="M435.012 301.539H442.481V303.406H435.012V301.539Z" fill="#007F62"/>
<path d="M459.285 297.805C459.285 294.003 456.43 290.855 452.75 290.394V287.149L446.602 281H431.277V282.867H427.543V312.743H450.883V309.008H452.75V305.215C456.43 304.755 459.285 301.607 459.285 297.805ZM447.149 284.188L449.563 286.602H447.149V284.188ZM449.016 310.875H429.41V284.734H431.277V309.008H449.016V310.875ZM433.145 307.141V282.867H445.281V288.469H450.883V290.394C447.204 290.855 444.348 294.003 444.348 297.805C444.348 301.607 447.204 304.755 450.883 305.215V307.141H433.145ZM451.817 303.406C448.728 303.406 446.215 300.894 446.215 297.805C446.215 294.716 448.728 292.203 451.817 292.203C454.905 292.203 457.418 294.716 457.418 297.805C457.418 300.894 454.905 303.406 451.817 303.406Z" fill="#007F62"/>
<path d="M450.887 298.352L449.68 297.145L448.359 298.465L450.887 300.993L455.281 296.598L453.961 295.278L450.887 298.352Z" fill="#007F62"/>
</g>
<g clip-path="url(#clip30_770_23)">
<path d="M443.414 144.254L427.543 153.276V175.888H459.285V153.276L443.414 144.254ZM452.714 167.209H451.164V160.389H442.484V163.055H436.285V167.209H434.115V158.095H452.714V167.209ZM444.344 167.209V162.249H449.304V167.209H444.344ZM438.144 167.209V164.915H442.484V167.209H438.144ZM434.121 174.028V169.068H439.074V174.028H434.121ZM440.941 174.028V169.068H445.888V174.028H440.941ZM447.754 174.028V169.068H452.707V174.028H447.754ZM457.426 174.028H454.574V156.235H432.255V174.028H429.403V154.358L443.414 146.393L457.426 154.358V174.028Z" fill="#007F62"/>
<path d="M440.383 152.515H446.453V154.375H440.383V152.515Z" fill="#007F62"/>
</g>
<circle cx="666.973" cy="125.193" r="7.92238" fill="#D6572D"/>
<circle cx="52.5474" cy="126.074" r="7.92238" fill="#D6572D"/>
<ellipse cx="56.5086" cy="43.3287" rx="24.2073" ry="24.6474" transform="rotate(45.694 56.5086 43.3287)" fill="#D6572D"/>
<mask id="mask1_770_23" style="mask-type:luminance" maskUnits="userSpaceOnUse" x="30" y="16" width="53" height="53">
<path d="M82.5 43.2144L56.8359 16.9209L30.5425 42.585L56.2065 68.8784L82.5 43.2144Z" fill="white"/>
</mask>
<g mask="url(#mask1_770_23)">
<mask id="mask2_770_23" style="mask-type:luminance" maskUnits="userSpaceOnUse" x="30" y="16" width="53" height="53">
<path d="M82.5 43.2148L56.8359 16.9214L30.5425 42.5854L56.2065 68.8789L82.5 43.2148Z" fill="white"/>
</mask>
<g mask="url(#mask2_770_23)">
<path d="M61.0333 36.6429L50.283 36.5584L50.1984 47.3086" stroke="white" stroke-width="2.79172" stroke-miterlimit="10" stroke-linecap="square"/>
<path d="M51.3904 37.6841L63.1706 49.6511" stroke="white" stroke-width="2.79172" stroke-miterlimit="10" stroke-linecap="square" stroke-linejoin="round"/>
</g>
</g>
<defs>
<filter id="filter0_d_770_23" x="38.064" y="34.0055" width="624.026" height="500.79" filterUnits="userSpaceOnUse" color-interpolation-filters="sRGB">
<feFlood flood-opacity="0" result="BackgroundImageFix"/>
<feColorMatrix in="SourceAlpha" type="matrix" values="0 0 0 0 0 0 0 0 0 0 0 0 0 0 0 0 0 0 127 0" result="hardAlpha"/>
<feOffset dy="3.40098"/>
<feGaussianBlur stdDeviation="6.80197"/>
<feComposite in2="hardAlpha" operator="out"/>
<feColorMatrix type="matrix" values="0 0 0 0 0 0 0 0 0 0 0 0 0 0 0 0 0 0 0.19 0"/>
<feBlend mode="normal" in2="BackgroundImageFix" result="effect1_dropShadow_770_23"/>
<feBlend mode="normal" in="SourceGraphic" in2="effect1_dropShadow_770_23" result="shape"/>
</filter>
<filter id="filter1_d_770_23" x="0.216378" y="232.946" width="102.911" height="102.911" filterUnits="userSpaceOnUse" color-interpolation-filters="sRGB">
<feFlood flood-opacity="0" result="BackgroundImageFix"/>
<feColorMatrix in="SourceAlpha" type="matrix" values="0 0 0 0 0 0 0 0 0 0 0 0 0 0 0 0 0 0 127 0" result="hardAlpha"/>
<feOffset dy="3.40098"/>
<feGaussianBlur stdDeviation="6.80197"/>
<feComposite in2="hardAlpha" operator="out"/>
<feColorMatrix type="matrix" values="0 0 0 0 0 0 0 0 0 0 0 0 0 0 0 0 0 0 0.19 0"/>
<feBlend mode="normal" in2="BackgroundImageFix" result="effect1_dropShadow_770_23"/>
<feBlend mode="normal" in="SourceGraphic" in2="effect1_dropShadow_770_23" result="shape"/>
</filter>
<filter id="filter2_d_770_23" x="553.021" y="4.07732" width="108.192" height="85.3055" filterUnits="userSpaceOnUse" color-interpolation-filters="sRGB">
<feFlood flood-opacity="0" result="BackgroundImageFix"/>
<feColorMatrix in="SourceAlpha" type="matrix" values="0 0 0 0 0 0 0 0 0 0 0 0 0 0 0 0 0 0 127 0" result="hardAlpha"/>
<feOffset dy="3.40098"/>
<feGaussianBlur stdDeviation="6.80197"/>
<feComposite in2="hardAlpha" operator="out"/>
<feColorMatrix type="matrix" values="0 0 0 0 0 0 0 0 0 0 0 0 0 0 0 0 0 0 0.19 0"/>
<feBlend mode="normal" in2="BackgroundImageFix" result="effect1_dropShadow_770_23"/>
<feBlend mode="normal" in="SourceGraphic" in2="effect1_dropShadow_770_23" result="shape"/>
</filter>
<filter id="filter3_d_770_23" x="567.107" y="33.1257" width="80.0243" height="80.0238" filterUnits="userSpaceOnUse" color-interpolation-filters="sRGB">
<feFlood flood-opacity="0" result="BackgroundImageFix"/>
<feColorMatrix in="SourceAlpha" type="matrix" values="0 0 0 0 0 0 0 0 0 0 0 0 0 0 0 0 0 0 127 0" result="hardAlpha"/>
<feOffset dy="3.40098"/>
<feGaussianBlur stdDeviation="6.80197"/>
<feComposite in2="hardAlpha" operator="out"/>
<feColorMatrix type="matrix" values="0 0 0 0 0 0 0 0 0 0 0 0 0 0 0 0 0 0 0.19 0"/>
<feBlend mode="normal" in2="BackgroundImageFix" result="effect1_dropShadow_770_23"/>
<feBlend mode="normal" in="SourceGraphic" in2="effect1_dropShadow_770_23" result="shape"/>
</filter>
<filter id="filter4_d_770_23" x="570.148" y="34.526" width="73.9427" height="73.9423" filterUnits="userSpaceOnUse" color-interpolation-filters="sRGB">
<feFlood flood-opacity="0" result="BackgroundImageFix"/>
<feColorMatrix in="SourceAlpha" type="matrix" values="0 0 0 0 0 0 0 0 0 0 0 0 0 0 0 0 0 0 127 0" result="hardAlpha"/>
<feOffset dy="1.76053"/>
<feGaussianBlur stdDeviation="5.28158"/>
<feComposite in2="hardAlpha" operator="out"/>
<feColorMatrix type="matrix" values="0 0 0 0 0 0 0 0 0 0.498039 0 0 0 0 0.384314 0 0 0 0.1 0"/>
<feBlend mode="normal" in2="BackgroundImageFix" result="effect1_dropShadow_770_23"/>
<feBlend mode="normal" in="SourceGraphic" in2="effect1_dropShadow_770_23" result="shape"/>
</filter>
<filter id="filter5_d_770_23" x="257.687" y="105.939" width="164.538" height="169.668" filterUnits="userSpaceOnUse" color-interpolation-filters="sRGB">
<feFlood flood-opacity="0" result="BackgroundImageFix"/>
<feColorMatrix in="SourceAlpha" type="matrix" values="0 0 0 0 0 0 0 0 0 0 0 0 0 0 0 0 0 0 127 0" result="hardAlpha"/>
<feOffset dy="3.52106"/>
<feGaussianBlur stdDeviation="7.04211"/>
<feComposite in2="hardAlpha" operator="out"/>
<feColorMatrix type="matrix" values="0 0 0 0 0 0 0 0 0 0.498039 0 0 0 0 0.384314 0 0 0 0.2 0"/>
<feBlend mode="normal" in2="BackgroundImageFix" result="effect1_dropShadow_770_23"/>
<feBlend mode="normal" in="SourceGraphic" in2="effect1_dropShadow_770_23" result="shape"/>
</filter>
<clipPath id="clip0_770_23">
<rect width="14.0842" height="14.0842" fill="white" transform="translate(78.0781 81.1802)"/>
</clipPath>
<clipPath id="clip1_770_23">
<rect width="14.0842" height="14.0842" fill="white" transform="translate(78.0781 126.954)"/>
</clipPath>
<clipPath id="clip2_770_23">
<rect width="14.0842" height="14.0842" fill="white" transform="translate(78.0781 172.728)"/>
</clipPath>
<clipPath id="clip3_770_23">
<rect width="14.0842" height="14.0842" fill="white" transform="translate(78.0781 264.275)"/>
</clipPath>
<clipPath id="clip4_770_23">
<rect width="14.0842" height="14.0842" fill="white" transform="translate(78.0781 218.501)"/>
</clipPath>
<clipPath id="clip5_770_23">
<rect width="14.0842" height="14.0842" fill="white" transform="translate(78.0781 310.049)"/>
</clipPath>
<clipPath id="clip6_770_23">
<rect width="14.0842" height="14.0842" fill="white" transform="matrix(-1 0 0 1 92.1602 466.736)"/>
</clipPath>
<clipPath id="clip7_770_23">
<rect width="8.80264" height="8.80264" fill="white" transform="translate(155.697 123.433)"/>
</clipPath>
<clipPath id="clip8_770_23">
<rect width="8.80264" height="8.80264" fill="white" transform="translate(410.971 123.433)"/>
</clipPath>
<clipPath id="clip9_770_23">
<rect width="8.80264" height="8.80264" fill="white" transform="translate(536.615 123.433)"/>
</clipPath>
<clipPath id="clip10_770_23">
<rect width="8.80264" height="8.80264" fill="white" transform="translate(156.697 257.233)"/>
</clipPath>
<clipPath id="clip11_770_23">
<rect width="8.80264" height="8.80264" fill="white" transform="translate(410.971 257.233)"/>
</clipPath>
<clipPath id="clip12_770_23">
<rect width="8.80264" height="8.80264" fill="white" transform="translate(538.615 257.233)"/>
</clipPath>
<clipPath id="clip13_770_23">
<rect width="8.80264" height="8.80264" fill="white" transform="translate(284.334 257.233)"/>
</clipPath>
<clipPath id="clip14_770_23">
<rect width="8.80264" height="8.80264" fill="white" transform="translate(156.697 393.673)"/>
</clipPath>
<clipPath id="clip15_770_23">
<rect width="8.80264" height="8.80264" fill="white" transform="translate(410.971 393.673)"/>
</clipPath>
<clipPath id="clip16_770_23">
<rect width="8.80264" height="8.80264" fill="white" transform="translate(538.615 393.673)"/>
</clipPath>
<clipPath id="clip17_770_23">
<rect width="8.80264" height="8.80264" fill="white" transform="translate(283.334 393.673)"/>
</clipPath>
<clipPath id="clip18_770_23">
<rect width="8.80264" height="8.80264" fill="white" transform="translate(318.191 135.104) rotate(14)"/>
</clipPath>
<clipPath id="clip19_770_23">
<rect width="31.7425" height="31.7425" fill="white" transform="translate(328.73 161.319) rotate(14)"/>
</clipPath>
<clipPath id="clip20_770_23">
<rect width="31.7425" height="31.7425" fill="white" transform="translate(175.828 144.199)"/>
</clipPath>
<clipPath id="clip21_770_23">
<rect width="31.7425" height="31.7425" fill="white" transform="translate(172.266 417.441)"/>
</clipPath>
<clipPath id="clip22_770_23">
<rect width="31.7425" height="31.7425" fill="white" transform="translate(299.902 417.441)"/>
</clipPath>
<clipPath id="clip23_770_23">
<rect width="31.7425" height="31.7425" fill="white" transform="translate(427.543 417.441)"/>
</clipPath>
<clipPath id="clip24_770_23">
<rect width="31.7425" height="31.7425" fill="white" transform="translate(555.18 281)"/>
</clipPath>
<clipPath id="clip25_770_23">
<rect width="35.2106" height="35.2106" fill="white" transform="translate(555.18 418.321)"/>
</clipPath>
<clipPath id="clip26_770_23">
<rect width="31.7425" height="31.7425" fill="white" transform="translate(555.18 144.199)"/>
</clipPath>
<clipPath id="clip27_770_23">
<rect width="31.7425" height="31.7425" fill="white" transform="translate(174 281)"/>
</clipPath>
<clipPath id="clip28_770_23">
<rect width="31.7425" height="31.7425" fill="white" transform="translate(299.902 281)"/>
</clipPath>
<clipPath id="clip29_770_23">
<rect width="31.7425" height="31.7425" fill="white" transform="translate(427.543 281)"/>
</clipPath>
<clipPath id="clip30_770_23">
<rect width="31.7425" height="31.7425" fill="white" transform="translate(427.543 144.199)"/>
</clipPath>
</defs>
</svg>
