<svg width="241" height="95" viewBox="0 0 241 95" fill="none" xmlns="http://www.w3.org/2000/svg">
<g opacity="0.2">
<rect x="6.78125" y="6.8833" width="228" height="82" rx="22" stroke="#007F62" stroke-width="12"/>
</g>
<rect x="13.5312" y="13.6333" width="214.5" height="68.5" rx="15.25" fill="white"/>
<rect x="13.5312" y="13.6333" width="214.5" height="68.5" rx="15.25" stroke="#007F62" stroke-width="1.5"/>
<path d="M71.7812 40.8833V37.8833C71.7812 37.331 72.229 36.8833 72.7812 36.8833H80.7812C81.3335 36.8833 81.7812 37.331 81.7812 37.8833V40.8833H85.7812C86.3335 40.8833 86.7812 41.331 86.7812 41.8833V55.8833C86.7812 56.4356 86.3335 56.8833 85.7812 56.8833H67.7812C67.229 56.8833 66.7812 56.4356 66.7812 55.8833V41.8833C66.7812 41.331 67.229 40.8833 67.7812 40.8833H71.7812ZM68.7812 50.8833V54.8833H84.7812V50.8833H68.7812ZM75.7812 46.8833V48.8833H77.7812V46.8833H75.7812ZM73.7812 38.8833V40.8833H79.7812V38.8833H73.7812Z" fill="#007F62"/>
<path d="M100.412 54.3833V41.7833H105.47C106.778 41.7833 107.774 42.0893 108.458 42.7013C109.154 43.3013 109.502 44.0753 109.502 45.0233C109.502 45.8153 109.286 46.4513 108.854 46.9313C108.434 47.3993 107.918 47.7173 107.306 47.8853C108.026 48.0293 108.62 48.3893 109.088 48.9653C109.556 49.5293 109.79 50.1893 109.79 50.9453C109.79 51.9413 109.43 52.7633 108.71 53.4113C107.99 54.0593 106.97 54.3833 105.65 54.3833H100.412ZM102.716 47.0753H105.128C105.776 47.0753 106.274 46.9253 106.622 46.6253C106.97 46.3253 107.144 45.8993 107.144 45.3473C107.144 44.8193 106.97 44.4053 106.622 44.1053C106.286 43.7933 105.776 43.6373 105.092 43.6373H102.716V47.0753ZM102.716 52.5113H105.29C105.974 52.5113 106.502 52.3553 106.874 52.0433C107.258 51.7193 107.45 51.2693 107.45 50.6933C107.45 50.1053 107.252 49.6433 106.856 49.3073C106.46 48.9713 105.926 48.8033 105.254 48.8033H102.716V52.5113ZM115.062 54.5993C113.946 54.5993 113.082 54.2513 112.47 53.5553C111.87 52.8593 111.57 51.8393 111.57 50.4953V45.4553H113.856V50.2793C113.856 51.0473 114.012 51.6353 114.324 52.0433C114.636 52.4513 115.128 52.6553 115.8 52.6553C116.436 52.6553 116.958 52.4273 117.366 51.9713C117.786 51.5153 117.996 50.8793 117.996 50.0633V45.4553H120.3V54.3833H118.266L118.086 52.8713C117.81 53.3993 117.408 53.8193 116.88 54.1313C116.364 54.4433 115.758 54.5993 115.062 54.5993ZM126.355 54.5993C125.563 54.5993 124.867 54.4733 124.267 54.2213C123.667 53.9573 123.187 53.5973 122.827 53.1413C122.467 52.6853 122.251 52.1573 122.179 51.5573H124.501C124.573 51.9053 124.765 52.2053 125.077 52.4573C125.401 52.6973 125.815 52.8173 126.319 52.8173C126.823 52.8173 127.189 52.7153 127.417 52.5113C127.657 52.3073 127.777 52.0733 127.777 51.8093C127.777 51.4253 127.609 51.1673 127.273 51.0353C126.937 50.8913 126.469 50.7533 125.869 50.6213C125.485 50.5373 125.095 50.4353 124.699 50.3153C124.303 50.1953 123.937 50.0453 123.601 49.8653C123.277 49.6733 123.013 49.4333 122.809 49.1453C122.605 48.8453 122.503 48.4793 122.503 48.0473C122.503 47.2553 122.815 46.5893 123.439 46.0493C124.075 45.5093 124.963 45.2393 126.103 45.2393C127.159 45.2393 127.999 45.4853 128.623 45.9773C129.259 46.4693 129.637 47.1473 129.757 48.0113H127.579C127.447 47.3513 126.949 47.0213 126.085 47.0213C125.653 47.0213 125.317 47.1053 125.077 47.2733C124.849 47.4413 124.735 47.6513 124.735 47.9033C124.735 48.1673 124.909 48.3773 125.257 48.5333C125.605 48.6893 126.067 48.8333 126.643 48.9653C127.267 49.1093 127.837 49.2713 128.353 49.4513C128.881 49.6193 129.301 49.8773 129.613 50.2253C129.925 50.5613 130.081 51.0473 130.081 51.6833C130.093 52.2353 129.949 52.7333 129.649 53.1773C129.349 53.6213 128.917 53.9693 128.353 54.2213C127.789 54.4733 127.123 54.5993 126.355 54.5993ZM133.364 44.0693C132.944 44.0693 132.596 43.9433 132.32 43.6913C132.056 43.4393 131.924 43.1213 131.924 42.7373C131.924 42.3533 132.056 42.0413 132.32 41.8013C132.596 41.5493 132.944 41.4233 133.364 41.4233C133.784 41.4233 134.126 41.5493 134.39 41.8013C134.666 42.0413 134.804 42.3533 134.804 42.7373C134.804 43.1213 134.666 43.4393 134.39 43.6913C134.126 43.9433 133.784 44.0693 133.364 44.0693ZM132.212 54.3833V45.4553H134.516V54.3833H132.212ZM136.921 54.3833V45.4553H138.955L139.135 46.9673C139.411 46.4393 139.807 46.0193 140.323 45.7073C140.851 45.3953 141.469 45.2393 142.177 45.2393C143.281 45.2393 144.139 45.5873 144.751 46.2833C145.363 46.9793 145.669 47.9993 145.669 49.3433V54.3833H143.365V49.5593C143.365 48.7913 143.209 48.2033 142.897 47.7953C142.585 47.3873 142.099 47.1833 141.439 47.1833C140.791 47.1833 140.257 47.4113 139.837 47.8673C139.429 48.3233 139.225 48.9593 139.225 49.7753V54.3833H136.921ZM152.21 54.5993C151.31 54.5993 150.512 54.4073 149.816 54.0233C149.12 53.6393 148.574 53.0993 148.178 52.4033C147.782 51.7073 147.584 50.9033 147.584 49.9913C147.584 49.0673 147.776 48.2453 148.16 47.5253C148.556 46.8053 149.096 46.2473 149.78 45.8513C150.476 45.4433 151.292 45.2393 152.228 45.2393C153.104 45.2393 153.878 45.4313 154.55 45.8153C155.222 46.1993 155.744 46.7273 156.116 47.3993C156.5 48.0593 156.692 48.7973 156.692 49.6133C156.692 49.7453 156.686 49.8833 156.674 50.0273C156.674 50.1713 156.668 50.3213 156.656 50.4773H149.87C149.918 51.1733 150.158 51.7193 150.59 52.1153C151.034 52.5113 151.568 52.7093 152.192 52.7093C152.66 52.7093 153.05 52.6073 153.362 52.4033C153.686 52.1873 153.926 51.9113 154.082 51.5753H156.422C156.254 52.1393 155.972 52.6553 155.576 53.1233C155.192 53.5793 154.712 53.9393 154.136 54.2033C153.572 54.4673 152.93 54.5993 152.21 54.5993ZM152.228 47.1113C151.664 47.1113 151.166 47.2733 150.734 47.5973C150.302 47.9093 150.026 48.3893 149.906 49.0373H154.352C154.316 48.4493 154.1 47.9813 153.704 47.6333C153.308 47.2853 152.816 47.1113 152.228 47.1113ZM162.32 54.5993C161.528 54.5993 160.832 54.4733 160.232 54.2213C159.632 53.9573 159.152 53.5973 158.792 53.1413C158.432 52.6853 158.216 52.1573 158.144 51.5573H160.466C160.538 51.9053 160.73 52.2053 161.042 52.4573C161.366 52.6973 161.78 52.8173 162.284 52.8173C162.788 52.8173 163.154 52.7153 163.382 52.5113C163.622 52.3073 163.742 52.0733 163.742 51.8093C163.742 51.4253 163.574 51.1673 163.238 51.0353C162.902 50.8913 162.434 50.7533 161.834 50.6213C161.45 50.5373 161.06 50.4353 160.664 50.3153C160.268 50.1953 159.902 50.0453 159.566 49.8653C159.242 49.6733 158.978 49.4333 158.774 49.1453C158.57 48.8453 158.468 48.4793 158.468 48.0473C158.468 47.2553 158.78 46.5893 159.404 46.0493C160.04 45.5093 160.928 45.2393 162.068 45.2393C163.124 45.2393 163.964 45.4853 164.588 45.9773C165.224 46.4693 165.602 47.1473 165.722 48.0113H163.544C163.412 47.3513 162.914 47.0213 162.05 47.0213C161.618 47.0213 161.282 47.1053 161.042 47.2733C160.814 47.4413 160.7 47.6513 160.7 47.9033C160.7 48.1673 160.874 48.3773 161.222 48.5333C161.57 48.6893 162.032 48.8333 162.608 48.9653C163.232 49.1093 163.802 49.2713 164.318 49.4513C164.846 49.6193 165.266 49.8773 165.578 50.2253C165.89 50.5613 166.046 51.0473 166.046 51.6833C166.058 52.2353 165.914 52.7333 165.614 53.1773C165.314 53.6213 164.882 53.9693 164.318 54.2213C163.754 54.4733 163.088 54.5993 162.32 54.5993ZM171.777 54.5993C170.985 54.5993 170.289 54.4733 169.689 54.2213C169.089 53.9573 168.609 53.5973 168.249 53.1413C167.889 52.6853 167.673 52.1573 167.601 51.5573H169.923C169.995 51.9053 170.187 52.2053 170.499 52.4573C170.823 52.6973 171.237 52.8173 171.741 52.8173C172.245 52.8173 172.611 52.7153 172.839 52.5113C173.079 52.3073 173.199 52.0733 173.199 51.8093C173.199 51.4253 173.031 51.1673 172.695 51.0353C172.359 50.8913 171.891 50.7533 171.291 50.6213C170.907 50.5373 170.517 50.4353 170.121 50.3153C169.725 50.1953 169.359 50.0453 169.023 49.8653C168.699 49.6733 168.435 49.4333 168.231 49.1453C168.027 48.8453 167.925 48.4793 167.925 48.0473C167.925 47.2553 168.237 46.5893 168.861 46.0493C169.497 45.5093 170.385 45.2393 171.525 45.2393C172.581 45.2393 173.421 45.4853 174.045 45.9773C174.681 46.4693 175.059 47.1473 175.179 48.0113H173.001C172.869 47.3513 172.371 47.0213 171.507 47.0213C171.075 47.0213 170.739 47.1053 170.499 47.2733C170.271 47.4413 170.157 47.6513 170.157 47.9033C170.157 48.1673 170.331 48.3773 170.679 48.5333C171.027 48.6893 171.489 48.8333 172.065 48.9653C172.689 49.1093 173.259 49.2713 173.775 49.4513C174.303 49.6193 174.723 49.8773 175.035 50.2253C175.347 50.5613 175.503 51.0473 175.503 51.6833C175.515 52.2353 175.371 52.7333 175.071 53.1773C174.771 53.6213 174.339 53.9693 173.775 54.2213C173.211 54.4733 172.545 54.5993 171.777 54.5993Z" fill="#222222"/>
</svg>
