<svg width="1441" height="1729" viewBox="0 0 1441 1729" fill="none" xmlns="http://www.w3.org/2000/svg">
<g clip-path="url(#clip0_971_6049)">
<rect width="1440" height="1729" transform="translate(0.613281)" fill="url(#paint0_linear_971_6049)"/>
<g opacity="0.2" clip-path="url(#clip1_971_6049)">
<path d="M1552.91 631.871C1594.36 684.308 1543.27 760.986 1512.24 793.01C1491.57 760.923 1471.23 748.551 1463.65 746.375C1377.15 702.199 1402.42 641.721 1425.87 617.004C1466.81 579.564 1510.44 578.135 1552.91 631.871Z" fill="#86C197"/>
<path d="M1433.91 380.174C1216.18 360.48 1197.34 508.335 1211.98 586.547C1145.16 502.013 1169.59 401.744 1259.05 366.498C1330.63 338.301 1405.1 361.554 1433.91 380.174Z" fill="#86C197"/>
<path d="M1549.61 501.164C1333.79 350.261 1287.05 580.24 1301.55 642.89C1231.95 566.925 1255.9 457.054 1342.07 414.367C1449.98 360.905 1528.78 469.46 1549.61 501.164Z" fill="#86C197"/>
<path d="M1289.47 714.498C1384.18 705.82 1465.42 751.993 1468.41 787.002C1477.07 888.382 1238.64 924.079 1121.1 757.538C1030.73 629.485 1107.47 490.536 1160.44 443.713C1160.78 443.396 1161.14 443.087 1161.49 442.787C1161.14 443.091 1160.79 443.4 1160.44 443.713C1107.18 492.095 1148.91 727.376 1289.47 714.498Z" fill="#86C197"/>
<path d="M1455.91 546.516C1529.9 539.322 1567.64 602.059 1578.58 636.613C1569.65 504.506 1445.01 457.417 1373.29 518.693C1318.99 565.09 1348.05 660.322 1374.66 693.977C1347.83 649.222 1363.43 555.508 1455.91 546.516Z" fill="#86C197"/>
</g>
</g>
<defs>
<linearGradient id="paint0_linear_971_6049" x1="720" y1="0" x2="720" y2="1409.87" gradientUnits="userSpaceOnUse">
<stop stop-color="#EFF7F1" stop-opacity="0"/>
<stop offset="0.585" stop-color="#EFF7F1"/>
<stop offset="0.995" stop-color="#D1E8E3" stop-opacity="0"/>
<stop offset="0.9951" stop-color="#EFF7F1" stop-opacity="0"/>
</linearGradient>
<clipPath id="clip0_971_6049">
<rect width="1440" height="1729" fill="white" transform="translate(0.613281)"/>
</clipPath>
<clipPath id="clip1_971_6049">
<rect width="622.433" height="622.433" fill="white" transform="translate(1379.06 191.74) rotate(51.6762)"/>
</clipPath>
</defs>
</svg>
