<svg width="1324" height="748" viewBox="0 0 1324 748" fill="none" xmlns="http://www.w3.org/2000/svg">
<g clip-path="url(#clip0_1272_2958)">
<rect width="1324" height="748" rx="24" fill="#FCECE2"/>
<g opacity="0.1" clip-path="url(#clip1_1272_2958)">
<path d="M1488.86 248.446C1530.3 300.882 1479.21 377.561 1448.18 409.585C1427.51 377.497 1407.17 365.125 1399.59 362.949C1313.09 318.773 1338.36 258.295 1361.82 233.578C1402.75 196.139 1446.38 194.709 1488.86 248.446Z" fill="#FF6937"/>
<path d="M1369.85 -3.25177C1152.12 -22.9454 1133.28 124.909 1147.92 203.121C1081.1 118.587 1105.53 18.3185 1195 -16.9279C1266.57 -45.125 1341.04 -21.8717 1369.85 -3.25177Z" fill="#FF6937"/>
<path d="M1485.55 117.738C1269.74 -33.1651 1222.99 196.815 1237.49 259.465C1167.89 183.499 1191.84 73.6279 1278.01 30.9413C1385.93 -22.5208 1464.72 86.0338 1485.55 117.738Z" fill="#FF6937"/>
<path d="M1225.41 331.072C1320.12 322.395 1401.36 368.567 1404.35 403.576C1413.01 504.956 1174.58 540.654 1057.05 374.112C966.671 246.059 1043.42 107.11 1096.38 60.2867C1096.73 59.9701 1097.08 59.6614 1097.43 59.3609C1097.08 59.6654 1096.73 59.974 1096.38 60.2867C1043.12 108.67 1084.85 343.951 1225.41 331.072Z" fill="#FF6937"/>
<path d="M1391.86 163.09C1465.84 155.896 1503.58 218.633 1514.52 253.187C1505.6 121.08 1380.95 73.9908 1309.23 135.268C1254.93 181.664 1283.99 276.896 1310.6 310.551C1283.77 265.796 1299.37 172.082 1391.86 163.09Z" fill="#FF6937"/>
</g>
<g opacity="0.1" clip-path="url(#clip2_1272_2958)">
<path d="M-63.4262 685.563C-96.4278 655.571 -71.1635 599.525 -54.2347 575.06C-37.1275 593.925 -22.3932 599.851 -17.1645 600.455C44.5941 620.094 34.5556 662.66 21.8165 681.488C-1.0453 710.598 -29.6061 716.3 -63.4262 685.563Z" fill="#FF6937"/>
<path d="M42.3662 838.253C187.829 827.459 184.101 728.082 165.931 678.198C219.136 726.55 213.997 795.214 158.953 828.176C114.919 854.545 63.365 847.365 42.3662 838.253Z" fill="#FF6937"/>
<path d="M-46.988 771.239C111.534 847.018 117.211 690.54 100.83 650.885C154.927 693.293 151.152 768.226 99.0935 805.725C33.8937 852.69 -29.8177 789.834 -46.988 771.239Z" fill="#FF6937"/>
<path d="M100.968 602.433C39.5728 618.479 -18.9406 596.951 -24.729 574.234C-41.491 508.449 111.554 458.936 207.091 555.733C280.55 630.159 245.196 729.992 215.445 766.59C215.25 766.837 215.051 767.079 214.849 767.315C215.048 767.077 215.246 766.835 215.445 766.59C245.222 728.933 192.081 578.619 100.968 602.433Z" fill="#FF6937"/>
<path d="M9.73844 731.163C-38.1751 743.97 -69.8595 706.793 -80.8325 685.243C-60.544 771.225 26.6387 788.62 67.1596 740.461C97.8406 703.996 68.317 644.485 47.1348 625.235C69.6782 651.766 69.6303 715.153 9.73844 731.163Z" fill="#FF6937"/>
</g>
</g>
<defs>
<clipPath id="clip0_1272_2958">
<rect width="1324" height="748" rx="24" fill="white"/>
</clipPath>
<clipPath id="clip1_1272_2958">
<rect width="622.433" height="622.433" fill="white" transform="translate(1315 -191.686) rotate(51.6762)"/>
</clipPath>
<clipPath id="clip2_1272_2958">
<rect width="415.289" height="415.289" fill="white" transform="translate(99.0352 956.298) rotate(-137.736)"/>
</clipPath>
</defs>
</svg>
