<svg width="1324" height="644" viewBox="0 0 1324 644" fill="none" xmlns="http://www.w3.org/2000/svg">
<g clip-path="url(#clip0_2439_3525)">
<rect y="0.671875" width="1324" height="643" rx="24" fill="#E9E9FC"/>
<g opacity="0.1" clip-path="url(#clip1_2439_3525)">
<path d="M1489.36 247.805C1530.81 300.242 1479.71 376.92 1448.69 408.944C1428.01 376.857 1407.68 364.484 1400.1 362.309C1313.59 318.133 1338.87 257.655 1362.32 232.937C1403.26 195.498 1446.89 194.068 1489.36 247.805Z" fill="#7A7AD2"/>
<path d="M1370.36 -3.8924C1152.63 -23.586 1133.78 124.269 1148.42 202.481C1081.61 117.947 1106.03 17.6779 1195.5 -17.5685C1267.08 -45.7656 1341.54 -22.5123 1370.36 -3.8924Z" fill="#7A7AD2"/>
<path d="M1486.06 117.098C1270.24 -33.8057 1223.49 196.174 1238 258.824C1168.4 182.859 1192.35 72.9873 1278.51 30.3007C1386.43 -23.1614 1465.23 85.3932 1486.06 117.098Z" fill="#7A7AD2"/>
<path d="M1225.91 330.432C1320.63 321.754 1401.87 367.926 1404.86 402.936C1413.52 504.315 1175.09 540.013 1057.55 373.472C967.177 245.419 1043.92 106.47 1096.88 59.6461C1097.23 59.3294 1097.58 59.0208 1097.94 58.7202C1097.59 59.0247 1097.24 59.3334 1096.88 59.6461C1043.62 108.029 1085.36 343.31 1225.91 330.432Z" fill="#7A7AD2"/>
<path d="M1392.36 162.449C1466.35 155.255 1504.08 217.992 1515.03 252.547C1506.1 120.44 1381.45 73.3501 1309.74 134.627C1255.43 181.024 1284.5 276.255 1311.1 309.91C1284.27 265.155 1299.88 171.442 1392.36 162.449Z" fill="#7A7AD2"/>
</g>
<g opacity="0.1" clip-path="url(#clip2_2439_3525)">
<path d="M-62.9223 538.671C-95.9239 508.678 -70.6596 452.632 -53.7308 428.168C-36.6236 447.033 -21.8893 452.958 -16.6605 453.562C45.098 473.202 35.0595 515.768 22.3204 534.596C-0.541393 563.706 -29.1022 569.407 -62.9223 538.671Z" fill="#7A7AD2"/>
<path d="M42.8701 691.36C188.333 680.567 184.605 581.189 166.435 531.306C219.64 579.657 214.501 648.322 159.457 681.283C115.423 707.653 63.869 700.472 42.8701 691.36Z" fill="#7A7AD2"/>
<path d="M-46.4841 624.346C112.038 700.126 117.715 543.648 101.333 503.992C155.431 546.401 151.656 621.333 99.5974 658.832C34.3976 705.797 -29.3138 642.942 -46.4841 624.346Z" fill="#7A7AD2"/>
<path d="M101.472 455.54C40.0768 471.586 -18.4367 450.059 -24.2251 427.341C-40.9871 361.556 112.057 312.044 207.595 408.84C281.054 483.266 245.7 583.099 215.949 619.698C215.754 619.944 215.555 620.186 215.353 620.423C215.552 620.184 215.75 619.942 215.949 619.698C245.726 582.04 192.585 431.727 101.472 455.54Z" fill="#7A7AD2"/>
<path d="M10.2423 584.27C-37.6711 597.078 -69.3556 559.901 -80.3285 538.35C-60.0401 624.332 27.1426 641.727 67.6635 593.568C98.3445 557.104 68.8209 497.592 47.6387 478.342C70.1821 504.873 70.1342 568.261 10.2423 584.27Z" fill="#7A7AD2"/>
</g>
</g>
<defs>
<clipPath id="clip0_2439_3525">
<rect y="0.671875" width="1324" height="643" rx="24" fill="white"/>
</clipPath>
<clipPath id="clip1_2439_3525">
<rect width="622.433" height="622.433" fill="white" transform="translate(1315.51 -192.326) rotate(51.6762)"/>
</clipPath>
<clipPath id="clip2_2439_3525">
<rect width="415.289" height="415.289" fill="white" transform="translate(99.5391 809.405) rotate(-137.736)"/>
</clipPath>
</defs>
</svg>
