<svg width="70" height="41" viewBox="0 0 70 41" fill="none" xmlns="http://www.w3.org/2000/svg">
<g clip-path="url(#clip0_974_6809)">
<path d="M41.6771 32.8377C38.0899 34.9088 32.274 34.9088 28.6868 32.8377C25.0995 30.7666 25.0996 27.4088 28.6868 25.3377C32.274 23.2667 38.0899 23.2666 41.6771 25.3377C45.2644 27.4088 45.2643 30.7667 41.6771 32.8377ZM41.6771 16.1711C38.0899 18.2421 32.274 18.2421 28.6868 16.1711C25.0996 14.1 25.0995 10.7421 28.6868 8.67106C32.274 6.59998 38.0899 6.59999 41.6771 8.67106C45.2643 10.7421 45.2644 14.1 41.6771 16.1711ZM38.7904 31.1711C40.7833 30.0205 40.7833 28.155 38.7904 27.0044C36.7975 25.8538 33.5664 25.8538 31.5735 27.0044C29.5806 28.155 29.5806 30.0205 31.5735 31.1711C33.5664 32.3216 36.7975 32.3217 38.7904 31.1711ZM38.7904 14.5044C40.7833 13.3538 40.7833 11.4883 38.7904 10.3377C36.7975 9.18714 33.5664 9.18714 31.5735 10.3377C29.5806 11.4883 29.5806 13.3538 31.5735 14.5044C33.5664 15.655 36.7975 15.655 38.7904 14.5044ZM16.4181 24.9211C12.4323 22.6199 12.4323 18.8889 16.4181 16.5877L20.7482 14.0877L23.6349 15.7544L19.3048 18.2544C16.9134 19.6351 16.9134 21.8737 19.3048 23.2544L23.6349 25.7544L20.7482 27.4211L16.4181 24.9211ZM49.6157 14.0877L46.729 15.7544L51.0591 18.2544C53.4506 19.6351 53.4506 21.8736 51.0591 23.2544L46.729 25.7544L49.6157 27.4211L53.9458 24.9211C57.9316 22.6199 57.9316 18.8889 53.9458 16.5877L49.6157 14.0877Z" fill="#572985"/>
</g>
<defs>
<clipPath id="clip0_974_6809">
<rect width="40" height="40" fill="white" transform="matrix(0.866025 -0.5 0.866025 0.5 0.539062 20.7544)"/>
</clipPath>
</defs>
</svg>
