<?xml version="1.0" encoding="UTF-8" ?>
<!DOCTYPE svg PUBLIC "-//W3C//DTD SVG 1.1//EN" "http://www.w3.org/Graphics/SVG/1.1/DTD/svg11.dtd">
<svg width="237pt" height="237pt" viewBox="0 0 558 558" version="1.1" xmlns="http://www.w3.org/2000/svg">
<g id="#fefefeff">
<path fill="#fefefe" opacity="1.00" d=" M 281.44 188.36 C 281.65 188.02 282.07 187.35 282.28 187.01 C 282.26 187.49 282.23 188.45 282.22 188.93 C 276.02 195.30 269.31 201.73 260.62 204.43 C 254.87 206.76 248.39 206.61 242.86 209.55 C 237.12 212.01 233.03 217.10 227.19 219.40 C 221.26 221.75 215.24 225.19 208.69 224.75 C 214.76 222.59 220.08 218.97 225.22 215.18 C 230.29 211.73 235.73 208.79 241.50 206.69 C 255.27 201.68 268.98 196.16 281.44 188.36 Z" />
<path fill="#fefefe" opacity="1.00" d=" M 336.49 318.43 C 344.49 310.40 351.49 301.44 357.83 292.06 C 353.75 302.12 346.62 310.61 339.22 318.41 C 329.84 327.25 323.88 338.86 318.26 350.27 C 321.14 338.23 327.46 326.94 336.49 318.43 Z" />
<path fill="#fefefe" opacity="1.00" d=" M 254.38 340.76 C 258.96 342.71 263.16 345.40 267.52 347.77 C 278.30 354.18 289.21 360.43 299.45 367.70 C 301.59 369.41 304.31 370.76 305.30 373.51 C 293.06 364.99 280.37 357.16 267.73 349.27 C 263.22 346.54 258.62 343.91 254.38 340.76 Z" />
<path fill="#fefefe" opacity="1.00" d=" M 345.58 535.06 C 346.93 534.69 349.21 534.54 350.01 535.94 C 349.29 537.65 345.05 536.95 345.58 535.06 Z" />
</g>
<g id="#030303ff">
<path fill="#030303" opacity="1.00" d=" M 211.87 18.03 C 254.93 6.99 300.68 7.46 343.71 18.33 L 344.59 17.09 C 344.46 17.52 344.21 18.38 344.08 18.81 C 360.44 22.48 376.18 28.67 391.37 35.72 C 433.35 55.45 470.01 86.38 496.43 124.51 C 519.98 158.56 535.60 198.11 541.38 239.13 C 548.21 286.63 541.67 335.91 523.06 380.12 C 505.39 422.38 476.66 459.91 440.43 487.92 C 438.88 485.87 437.31 483.85 435.73 481.84 C 460.21 462.69 481.37 439.29 497.62 412.78 C 519.11 377.86 532.28 337.83 535.51 296.94 C 541.22 229.57 518.68 160.52 474.82 109.14 C 445.75 74.78 407.46 48.35 365.11 33.13 C 316.94 15.55 263.52 12.78 213.81 25.44 C 213.11 22.98 212.50 20.50 211.87 18.03 Z" />
<path fill="#030303" opacity="1.00" d=" M 183.30 21.03 C 187.70 19.54 192.16 18.21 196.47 16.47 C 197.17 18.22 197.87 19.96 198.55 21.72 C 197.49 22.10 196.43 22.49 195.38 22.86 C 195.15 19.16 191.45 21.74 189.47 22.29 C 190.06 23.74 190.65 25.20 191.27 26.64 C 192.97 25.95 194.70 25.36 196.46 24.86 C 196.66 25.58 197.04 27.02 197.23 27.75 C 195.49 28.28 193.76 28.86 192.03 29.44 C 192.52 30.99 193.03 32.54 193.52 34.10 C 195.08 33.62 196.63 33.12 198.20 32.65 C 198.08 31.95 197.84 30.56 197.72 29.86 C 199.35 29.48 201.01 29.33 202.69 29.31 C 200.33 30.39 202.19 32.68 202.59 34.48 C 198.12 35.74 193.75 37.33 189.35 38.83 C 188.96 37.85 188.57 36.88 188.17 35.91 C 188.70 35.70 189.77 35.30 190.30 35.10 C 188.85 31.19 187.59 27.22 186.26 23.27 C 185.76 23.48 184.76 23.89 184.27 24.10 C 183.94 23.07 183.62 22.05 183.30 21.03 Z" />
<path fill="#030303" opacity="1.00" d=" M 179.86 21.22 C 180.23 22.55 180.66 23.85 181.13 25.15 C 180.69 25.48 179.82 26.15 179.38 26.48 C 181.11 30.07 182.41 33.84 184.03 37.48 C 184.52 37.32 185.50 37.00 185.99 36.84 C 186.38 37.82 186.76 38.80 187.15 39.78 C 184.62 40.70 182.13 41.73 179.58 42.58 C 179.39 41.90 179.03 40.54 178.85 39.86 C 179.33 39.49 180.29 38.77 180.78 38.40 C 180.12 37.10 179.47 35.79 178.83 34.48 C 176.31 35.38 173.87 36.47 171.45 37.59 C 171.97 38.93 172.49 40.28 173.00 41.63 C 173.62 41.56 174.87 41.42 175.49 41.35 C 175.84 42.19 176.19 43.04 176.54 43.88 C 174.12 45.01 171.66 46.06 169.15 46.96 C 168.78 46.13 168.41 45.30 168.05 44.47 C 168.44 44.17 169.21 43.57 169.60 43.27 C 168.90 39.30 166.61 35.76 165.35 31.93 C 162.86 33.42 162.71 31.04 162.25 29.39 C 164.64 28.58 166.97 27.63 169.27 26.59 C 169.62 27.31 170.33 28.74 170.68 29.46 C 170.12 29.73 169.00 30.28 168.45 30.55 C 169.08 31.89 169.68 33.24 170.29 34.59 C 172.74 33.51 175.23 32.52 177.71 31.52 C 177.17 30.12 176.65 28.72 176.11 27.33 C 175.57 27.53 174.49 27.95 173.96 28.16 C 173.57 27.18 173.18 26.21 172.79 25.23 C 175.00 23.74 179.22 24.09 179.86 21.22 Z" />
<path fill="#030303" opacity="1.00" d=" M 144.75 38.84 C 149.32 35.83 154.42 33.70 159.27 31.17 C 160.11 32.97 161.33 34.67 161.64 36.68 C 160.84 37.43 159.65 37.52 158.67 37.93 C 158.47 37.34 158.08 36.17 157.88 35.58 C 156.90 35.89 155.93 36.21 154.95 36.53 C 156.52 40.43 158.74 44.02 160.49 47.84 C 161.20 47.51 161.91 47.18 162.63 46.86 C 163.13 47.82 163.64 48.78 164.15 49.73 C 161.66 50.81 159.41 52.96 156.58 52.92 C 156.29 52.32 155.72 51.13 155.43 50.54 C 155.95 50.30 157.00 49.84 157.53 49.60 C 155.51 45.98 153.98 42.10 151.76 38.58 C 150.87 38.94 149.99 39.29 149.11 39.65 C 149.52 40.55 149.94 41.44 150.37 42.34 C 149.36 42.87 148.34 43.40 147.33 43.93 C 146.48 42.22 145.63 40.52 144.75 38.84 Z" />
<path fill="#030303" opacity="1.00" d=" M 253.27 48.39 C 258.19 48.10 263.12 48.32 268.04 48.02 C 273.22 47.96 278.91 47.63 283.49 50.48 C 288.16 53.33 289.64 59.79 287.56 64.67 C 286.43 67.20 284.05 68.79 281.81 70.25 C 283.83 71.07 286.03 71.72 287.66 73.26 C 292.23 77.97 291.86 86.46 287.00 90.83 C 282.81 94.21 277.26 95.34 271.99 95.25 C 266.09 95.46 260.18 95.44 254.29 95.65 C 253.86 79.90 253.41 64.14 253.27 48.39 M 264.46 57.55 C 264.80 60.60 264.86 63.67 264.64 66.73 C 268.56 66.78 272.65 67.13 276.24 65.20 C 277.28 63.06 277.28 60.74 276.35 58.57 C 272.57 56.98 268.45 57.12 264.46 57.55 M 265.13 75.48 C 264.88 78.99 265.16 82.50 265.35 86.00 C 270.02 85.84 275.50 86.44 279.00 82.64 C 279.40 80.66 278.95 78.74 278.29 76.88 C 274.22 74.66 269.54 75.55 265.13 75.48 Z" />
<path fill="#030303" opacity="1.00" d=" M 129.56 54.45 C 132.06 52.97 134.23 50.68 137.17 50.13 C 138.27 52.23 139.45 54.29 140.79 56.25 C 103.52 79.61 72.07 112.29 50.84 150.87 C 43.86 163.23 38.18 176.26 33.25 189.56 C 32.91 190.55 33.44 191.57 33.27 192.57 C 32.09 193.39 31.40 194.66 31.06 196.04 C 21.11 226.54 16.58 258.88 18.42 290.93 C 22.00 361.36 55.98 429.65 110.18 474.80 C 141.51 501.19 179.17 519.95 219.08 529.18 C 250.02 536.40 282.27 537.75 313.74 533.38 C 313.98 535.89 314.31 538.39 314.72 540.89 C 269.46 547.46 222.57 541.76 180.01 525.10 C 144.35 511.14 111.66 489.53 85.09 461.93 C 45.47 421.16 19.69 367.27 12.56 310.88 C 5.03 253.04 17.28 192.90 46.68 142.54 C 67.06 107.34 95.60 76.86 129.56 54.45 Z" />
<path fill="#030303" opacity="1.00" d=" M 309.38 50.09 C 319.87 51.84 330.14 54.68 340.58 56.65 C 339.99 59.87 339.27 63.07 338.68 66.29 C 331.86 65.10 325.18 63.20 318.35 62.08 C 317.82 64.88 317.18 67.66 316.58 70.44 C 322.97 71.63 329.28 73.22 335.64 74.54 C 334.94 77.60 334.29 80.68 333.65 83.75 C 327.16 82.74 320.80 79.97 314.21 80.18 L 313.72 78.51 C 313.51 79.22 313.58 79.94 314.03 80.55 C 313.80 83.32 313.22 86.04 312.49 88.71 C 319.59 90.37 326.72 91.88 333.85 93.38 C 333.19 96.60 332.40 99.79 331.96 103.05 C 321.02 101.22 310.31 98.28 299.42 96.20 C 302.62 80.81 306.26 65.50 309.38 50.09 Z" />
<path fill="#030303" opacity="1.00" d=" M 173.95 70.88 C 184.00 67.52 193.54 62.73 203.58 59.31 C 204.63 62.41 206.18 65.34 206.93 68.55 C 200.54 70.89 194.30 73.61 187.99 76.13 C 189.04 78.78 190.13 81.42 191.15 84.08 C 197.27 81.74 203.21 78.90 209.43 76.85 C 210.40 79.72 211.61 82.51 212.83 85.29 C 206.93 88.16 200.65 90.14 194.70 92.90 C 195.99 95.78 197.14 98.72 198.38 101.62 C 204.98 98.59 211.81 96.12 218.51 93.32 C 219.74 96.41 221.00 99.49 222.35 102.53 C 212.14 106.84 201.80 110.83 191.57 115.08 C 185.83 100.29 179.30 85.80 173.95 70.88 Z" />
<path fill="#030303" opacity="1.00" d=" M 336.55 103.83 C 349.71 92.86 362.63 81.60 375.98 70.89 C 379.17 72.64 382.44 74.25 385.72 75.82 C 384.42 92.92 383.03 110.02 381.57 127.12 C 377.78 125.24 374.19 122.95 370.23 121.44 C 370.40 118.05 370.80 114.69 371.12 111.32 C 365.77 108.59 360.50 105.72 355.11 103.08 C 352.73 105.20 350.41 107.39 348.13 109.62 C 344.09 108.07 340.35 105.88 336.55 103.83 M 373.31 86.27 C 369.54 89.44 366.18 93.07 362.28 96.08 C 365.72 97.75 368.90 100.01 372.61 101.07 C 373.12 95.70 374.02 90.38 374.55 85.01 C 374.24 85.33 373.62 85.95 373.31 86.27 Z" />
<path fill="#030303" opacity="1.00" d=" M 131.54 98.40 C 139.65 92.70 147.63 86.80 155.80 81.18 C 157.57 83.95 159.55 86.57 161.45 89.24 C 155.92 93.19 150.43 97.20 144.81 101.03 C 146.29 103.46 147.91 105.81 149.52 108.16 C 154.96 104.53 160.22 100.63 165.54 96.82 C 167.40 99.45 169.27 102.09 171.06 104.77 C 165.54 108.13 160.45 112.14 155.18 115.88 C 156.95 118.43 158.81 120.92 160.49 123.54 C 166.25 119.55 171.89 115.38 177.66 111.40 C 177.92 111.39 178.44 111.38 178.70 111.37 C 180.68 113.77 182.36 116.41 184.25 118.89 C 175.26 125.44 166.26 131.99 157.06 138.24 C 148.51 125.79 139.60 113.59 130.80 101.32 C 129.53 100.39 130.38 98.91 131.54 98.40 Z" />
<path fill="#030303" opacity="1.00" d=" M 386.47 131.03 C 397.25 119.69 408.24 108.54 418.97 97.16 C 422.50 99.69 425.40 103.04 428.67 105.92 C 426.51 118.06 422.94 129.95 421.30 142.18 C 422.00 140.64 422.78 139.12 424.05 137.97 C 430.20 131.73 435.98 125.13 442.27 119.05 C 444.79 121.91 448.22 123.98 450.08 127.40 C 439.13 138.11 428.76 149.42 418.05 160.39 C 417.74 160.43 417.11 160.53 416.80 160.58 C 414.08 157.48 410.98 154.76 408.03 151.89 C 410.62 140.25 413.03 128.58 415.62 116.94 C 415.28 117.25 414.61 117.86 414.28 118.17 C 407.92 125.09 401.29 131.75 394.94 138.67 C 391.69 137.05 389.22 133.56 386.47 131.03 Z" />
<path fill="#030303" opacity="1.00" d=" M 95.71 134.81 C 102.32 126.69 109.60 119.14 116.56 111.30 C 119.11 113.47 121.61 115.69 124.02 118.02 C 119.60 122.85 115.34 127.82 110.85 132.57 C 113.12 134.70 115.47 136.76 117.69 138.95 C 120.96 135.21 124.60 131.74 127.54 127.73 C 127.30 126.30 128.62 125.80 129.62 125.15 C 132.16 127.39 134.73 129.60 137.18 131.94 C 133.18 136.51 128.95 140.86 125.02 145.49 C 129.55 149.54 134.17 153.48 138.53 157.71 C 135.97 160.53 133.42 163.35 130.88 166.18 C 119.07 155.83 107.60 145.07 95.71 134.81 Z" />
<path fill="#030303" opacity="1.00" d=" M 224.15 129.16 C 256.04 117.74 291.63 117.06 323.90 127.35 C 359.73 138.50 391.24 162.97 410.67 195.09 C 412.24 197.84 414.09 200.48 415.14 203.50 C 410.05 205.48 405.03 207.65 400.01 209.79 C 390.59 192.44 377.46 177.16 361.72 165.25 C 338.85 147.94 310.63 137.66 281.93 136.69 C 237.78 134.75 193.36 155.45 166.47 190.53 C 148.97 212.89 138.47 240.68 136.91 269.04 C 135.91 285.86 138.21 302.78 143.08 318.88 C 137.96 320.93 132.95 323.21 127.83 325.26 C 118.80 297.53 117.73 267.26 124.88 238.98 C 130.86 214.75 142.69 191.92 159.29 173.26 L 158.14 172.50 C 158.52 172.59 159.30 172.77 159.68 172.86 C 176.84 152.99 199.48 138.00 224.15 129.16 Z" />
<path fill="#030303" opacity="1.00" d=" M 69.68 175.75 C 74.70 166.70 79.98 157.81 85.01 148.77 C 88.10 149.86 90.95 151.55 93.65 153.39 C 91.03 159.27 87.47 164.80 84.16 170.36 C 86.76 172.28 89.69 173.68 92.41 175.41 C 94.93 169.91 98.37 164.90 101.20 159.56 C 104.11 161.14 107.22 162.46 109.72 164.67 C 106.43 169.63 103.70 174.92 100.71 180.05 C 105.88 183.37 111.72 185.73 116.47 189.64 C 114.24 192.71 112.73 196.23 110.45 199.26 C 108.72 198.07 106.96 196.91 105.12 195.89 C 93.24 189.30 81.60 182.27 69.68 175.75 Z" />
<path fill="#030303" opacity="1.00" d=" M 211.10 194.01 C 225.76 181.15 244.41 172.63 263.92 171.05 C 272.95 170.25 281.80 174.75 287.69 181.39 C 294.68 189.76 293.64 201.96 289.27 211.29 C 283.76 221.91 273.12 228.54 262.64 233.54 C 251.67 238.33 240.15 242.79 228.03 243.03 C 221.72 243.23 215.35 241.47 210.18 237.83 C 203.38 231.55 197.46 222.25 199.86 212.62 C 201.69 205.53 205.56 198.86 211.10 194.01 M 281.44 188.36 C 268.98 196.16 255.27 201.68 241.50 206.69 C 235.73 208.79 230.29 211.73 225.22 215.18 C 220.08 218.97 214.76 222.59 208.69 224.75 C 215.24 225.19 221.26 221.75 227.19 219.40 C 233.03 217.10 237.12 212.01 242.86 209.55 C 248.39 206.61 254.87 206.76 260.62 204.43 C 269.31 201.73 276.02 195.30 282.22 188.93 C 282.23 188.45 282.26 187.49 282.28 187.01 C 282.07 187.35 281.65 188.02 281.44 188.36 Z" />
<path fill="#030303" opacity="1.00" d=" M 463.26 188.74 C 469.71 186.11 476.08 183.26 482.54 180.64 C 484.55 185.81 487.05 190.78 488.84 196.03 C 452.17 211.24 415.81 227.24 379.10 242.34 C 379.26 242.71 379.58 243.45 379.74 243.82 C 379.48 243.56 378.97 243.03 378.71 242.77 C 355.47 252.35 332.41 262.42 309.24 272.18 C 307.82 272.53 306.33 274.16 304.84 273.37 C 302.59 268.55 300.74 263.55 298.56 258.69 C 306.12 255.54 313.64 252.29 321.17 249.09 C 364.97 230.53 408.75 211.94 452.53 193.33 C 456.14 191.82 459.68 190.11 463.43 188.97 C 464.03 189.24 464.64 189.49 465.28 189.66 L 463.26 188.74 Z" />
<path fill="#030303" opacity="1.00" d=" M 71.06 198.10 C 83.12 195.24 97.17 202.00 101.15 214.02 C 104.43 224.88 100.85 237.95 91.57 244.78 C 81.30 252.24 65.73 249.79 57.51 240.38 C 46.25 226.86 53.57 202.18 71.06 198.10 M 70.70 211.04 C 63.62 213.83 60.56 223.68 64.80 230.01 C 68.09 234.93 74.35 237.36 80.14 236.70 C 86.68 235.97 91.96 229.66 91.49 223.08 C 91.31 213.23 79.19 207.36 70.70 211.04 Z" />
<path fill="#030303" opacity="1.00" d=" M 425.81 228.41 C 440.61 272.12 433.89 322.24 408.99 360.98 C 386.17 397.54 347.36 423.45 304.97 430.97 C 258.17 439.75 207.73 425.52 172.43 393.57 C 158.60 381.53 147.40 366.67 138.51 350.69 C 143.37 348.06 148.68 346.40 153.60 343.90 C 161.94 358.19 172.04 371.59 184.71 382.34 C 201.16 396.58 220.88 407.10 241.98 412.49 C 266.99 419.05 293.82 418.42 318.49 410.65 C 354.08 399.71 384.85 373.94 401.54 340.61 C 418.30 308.43 421.73 269.56 410.66 234.99 C 415.70 232.78 420.80 230.69 425.81 228.41 Z" />
<path fill="#030303" opacity="1.00" d=" M 436.92 232.00 C 440.12 229.35 443.70 231.91 447.28 231.39 C 447.99 233.59 448.77 235.75 449.60 237.92 C 450.39 235.81 451.15 233.69 451.86 231.56 C 452.32 231.43 453.24 231.18 453.71 231.05 C 453.39 234.02 454.88 237.92 452.65 240.23 C 452.53 238.14 452.46 236.05 452.45 233.96 C 451.60 236.10 450.77 238.26 449.85 240.38 C 448.36 238.60 447.62 236.37 446.73 234.28 C 446.73 235.75 446.73 238.70 446.72 240.17 C 443.74 239.06 445.81 234.70 445.28 232.28 C 444.48 232.34 442.86 232.45 442.06 232.50 C 442.02 235.08 441.99 237.67 441.80 240.25 C 439.12 238.91 441.07 235.10 440.44 232.71 C 439.24 232.48 438.10 232.25 436.92 232.00 Z" />
<path fill="#030303" opacity="1.00" d=" M 48.81 289.18 C 43.20 279.40 43.54 265.28 51.96 257.17 C 54.39 259.92 57.26 262.21 59.77 264.89 C 54.39 269.90 54.32 279.29 59.81 284.23 C 65.42 289.40 74.49 288.77 80.35 284.30 C 85.35 279.00 85.88 269.26 79.37 264.92 C 81.38 261.70 84.31 259.22 86.73 256.34 C 99.10 266.63 97.18 289.20 83.11 297.14 C 71.96 303.63 55.40 300.82 48.81 289.18 Z" />
<path fill="#030303" opacity="1.00" d=" M 259.35 268.06 C 260.76 260.46 269.70 256.46 276.72 258.35 C 280.45 259.47 282.46 263.29 283.04 266.90 C 282.89 270.20 280.95 273.02 279.16 275.67 C 281.07 276.32 282.98 277.00 284.88 277.69 C 285.10 275.32 285.14 272.82 286.50 270.77 C 289.58 269.76 292.52 268.36 295.52 267.14 C 294.27 271.66 293.30 276.25 292.15 280.79 C 296.37 282.19 300.45 283.96 304.53 285.69 C 301.47 287.38 298.21 288.67 294.96 289.93 C 293.03 290.61 291.24 289.07 289.48 288.54 C 286.88 294.51 280.49 298.36 274.02 298.04 C 269.51 298.43 264.90 295.55 263.60 291.16 C 261.82 286.86 263.63 282.20 266.42 278.81 C 262.15 277.14 258.79 272.73 259.35 268.06 M 268.37 268.87 C 268.48 271.11 270.96 272.01 272.60 272.98 C 273.46 271.58 274.26 270.16 275.07 268.74 C 274.18 267.38 273.62 265.49 271.91 264.97 C 269.99 265.13 267.92 266.77 268.37 268.87 M 271.61 285.23 C 271.77 286.04 271.94 286.86 272.09 287.68 C 273.37 288.65 274.36 290.52 276.28 290.11 C 279.17 290.28 281.02 287.62 282.26 285.37 C 279.36 284.37 276.50 283.22 273.81 281.74 C 272.87 282.76 272.19 283.97 271.61 285.23 Z" />
<path fill="#030303" opacity="1.00" d=" M 65.43 357.63 C 126.73 331.68 187.99 305.64 249.25 279.61 C 251.66 284.62 253.70 289.81 255.84 294.94 C 194.44 320.71 133.27 347.04 71.88 372.83 C 69.74 367.76 67.63 362.67 65.43 357.63 Z" />
<path fill="#030303" opacity="1.00" d=" M 363.69 280.04 C 363.87 280.06 364.24 280.11 364.42 280.13 C 364.41 293.08 363.84 307.76 354.55 317.83 C 347.49 325.72 338.60 331.72 331.29 339.36 C 324.93 346.52 318.50 354.17 315.65 363.49 C 314.13 371.79 318.75 379.49 321.24 387.12 C 321.14 388.54 320.09 388.73 318.94 388.59 C 316.87 384.21 314.70 379.20 310.09 376.98 C 301.34 376.39 292.53 376.03 283.94 374.09 C 275.85 372.57 268.76 367.82 262.85 362.28 C 258.52 358.30 255.67 353.10 252.68 348.13 C 250.13 343.59 247.42 339.11 245.35 334.33 C 251.04 334.52 256.54 336.23 262.08 337.43 C 271.22 339.50 280.06 342.73 288.41 346.99 C 289.04 346.57 289.79 346.49 290.51 346.78 L 288.04 347.38 C 295.45 350.83 300.55 357.60 304.83 364.32 C 307.67 368.45 309.31 373.52 313.44 376.66 C 313.50 366.56 302.18 360.64 302.86 350.42 C 303.55 350.73 304.92 351.35 305.60 351.66 C 305.80 350.73 304.17 347.66 306.32 348.33 C 307.23 349.81 307.92 351.42 308.66 353.01 C 309.04 351.94 309.43 350.89 309.83 349.83 C 312.90 354.50 312.17 360.13 312.32 365.42 C 315.61 357.02 314.30 347.88 315.65 339.14 C 317.34 325.37 322.61 311.52 332.83 301.82 C 341.70 292.65 354.48 288.83 363.69 280.04 M 336.49 318.43 C 327.46 326.94 321.14 338.23 318.26 350.27 C 323.88 338.86 329.84 327.25 339.22 318.41 C 346.62 310.61 353.75 302.12 357.83 292.06 C 351.49 301.44 344.49 310.40 336.49 318.43 M 254.38 340.76 C 258.62 343.91 263.22 346.54 267.73 349.27 C 280.37 357.16 293.06 364.99 305.30 373.51 C 304.31 370.76 301.59 369.41 299.45 367.70 C 289.21 360.43 278.30 354.18 267.52 347.77 C 263.16 345.40 258.96 342.71 254.38 340.76 Z" />
<path fill="#030303" opacity="1.00" d=" M 449.29 334.30 C 452.50 335.07 455.40 336.71 458.51 337.80 C 456.40 343.92 453.76 349.93 450.86 355.71 C 453.46 357.66 456.64 358.55 459.60 359.81 C 461.74 354.20 464.38 348.79 466.59 343.21 C 469.59 344.35 472.48 345.77 475.52 346.82 C 473.42 352.59 470.60 358.07 468.44 363.82 C 474.08 365.94 479.45 368.68 485.09 370.80 C 483.75 374.50 482.01 378.02 480.47 381.63 C 466.11 375.10 451.49 369.15 437.09 362.70 C 441.21 353.26 445.37 343.83 449.29 334.30 Z" />
<path fill="#030303" opacity="1.00" d=" M 424.54 382.17 C 441.13 386.05 457.54 390.66 474.11 394.63 C 472.15 398.36 469.17 401.40 466.98 404.99 C 463.56 404.56 460.32 403.31 456.97 402.56 C 453.47 407.36 449.90 412.11 446.32 416.85 C 448.00 419.60 449.57 422.44 451.48 425.05 C 448.88 428.37 446.98 432.48 443.54 435.01 C 435.40 420.21 426.35 405.91 418.16 391.15 C 419.77 387.85 422.65 385.33 424.54 382.17 M 431.85 394.62 C 434.89 399.07 437.26 404.28 441.05 408.04 C 443.37 405.30 445.30 402.25 447.64 399.52 C 442.38 397.85 437.08 396.36 431.85 394.62 Z" />
<path fill="#030303" opacity="1.00" d=" M 379.59 427.69 C 387.50 420.96 395.59 414.41 403.72 407.92 C 405.66 410.40 407.64 412.87 409.83 415.15 C 407.85 417.78 405.03 419.55 402.53 421.63 C 399.66 423.80 397.08 426.34 394.05 428.29 C 395.57 430.79 397.57 432.95 399.45 435.19 C 404.39 430.98 409.51 427.00 414.55 422.91 C 416.49 425.33 418.46 427.73 420.45 430.12 C 415.47 434.37 410.31 438.41 405.31 442.64 C 407.42 444.92 409.40 447.32 411.27 449.80 C 416.99 445.24 422.53 440.44 428.39 436.07 C 430.31 438.75 432.47 441.26 434.55 443.82 C 425.96 450.80 417.44 457.88 408.76 464.75 C 398.76 452.21 388.56 439.82 378.33 427.47 C 378.65 427.52 379.27 427.64 379.59 427.69 Z" />
<path fill="#030303" opacity="1.00" d=" M 346.85 445.23 C 350.44 443.65 353.89 441.80 357.40 440.06 C 362.68 451.07 368.61 461.77 373.73 472.85 C 379.62 471.00 384.79 467.35 390.43 464.87 C 391.86 468.01 393.57 471.02 394.94 474.19 C 385.82 478.29 377.17 483.33 368.07 487.49 C 361.18 473.31 353.73 459.42 346.85 445.23 Z" />
<path fill="#030303" opacity="1.00" d=" M 194.30 441.15 C 206.19 445.65 218.11 450.06 230.05 454.41 C 229.08 457.64 227.80 460.77 226.58 463.92 C 222.55 462.45 218.62 460.67 214.46 459.62 C 214.51 459.16 214.60 458.24 214.65 457.78 C 210.36 469.95 205.55 481.93 201.28 494.11 C 197.56 493.01 194.00 491.41 190.29 490.26 C 194.35 478.49 199.02 466.93 203.23 455.20 C 199.04 453.58 194.74 452.22 190.65 450.32 C 192.18 447.40 193.13 444.23 194.30 441.15 Z" />
<path fill="#030303" opacity="1.00" d=" M 238.69 456.14 C 249.22 457.55 259.78 458.71 270.33 459.99 C 269.99 463.25 269.52 466.49 269.24 469.76 C 262.33 469.11 255.47 467.97 248.56 467.40 C 248.29 470.23 247.94 473.04 247.72 475.88 C 254.15 476.66 260.58 477.42 266.99 478.26 C 266.60 481.31 266.20 484.37 266.03 487.46 C 259.45 486.95 252.95 485.77 246.37 485.32 C 246.07 488.41 245.70 491.50 245.38 494.60 C 252.55 495.37 259.69 496.44 266.87 497.10 C 266.72 500.47 266.26 503.81 265.72 507.13 C 254.83 505.84 243.95 504.30 233.03 503.30 C 234.78 487.56 236.78 471.86 238.69 456.14 Z" />
<path fill="#030303" opacity="1.00" d=" M 293.52 458.56 C 297.27 458.44 300.97 457.28 304.71 457.37 C 313.49 471.92 321.62 486.86 330.24 501.52 C 325.87 502.02 321.53 502.87 317.12 502.93 C 315.68 500.17 314.11 497.49 312.87 494.64 C 306.77 495.18 300.69 495.97 294.64 496.92 C 294.01 500.12 293.26 503.30 292.51 506.48 C 288.29 506.89 284.09 507.52 279.88 508.01 C 284.45 491.53 289.04 475.06 293.52 458.56 M 300.44 469.94 C 299.84 475.71 298.17 481.33 296.75 486.96 C 300.55 486.66 304.33 486.09 308.12 485.67 C 305.83 480.30 302.25 475.49 300.44 469.94 Z" />
<path fill="#030303" opacity="1.00" d=" M 417.51 492.31 C 417.70 487.02 423.61 483.45 428.36 485.76 C 429.65 487.93 429.79 490.43 428.25 492.52 C 428.70 492.35 429.61 492.02 430.06 491.86 C 431.06 492.20 432.07 492.55 433.09 492.91 C 433.39 493.39 433.99 494.34 434.29 494.82 C 434.42 495.73 434.57 496.65 434.73 497.57 C 433.49 501.74 429.05 504.21 424.83 503.44 C 424.49 503.09 423.80 502.40 423.45 502.05 C 423.60 500.98 423.75 499.91 423.91 498.86 C 425.09 499.31 426.31 499.71 427.35 500.48 C 428.43 500.08 429.52 499.67 430.62 499.29 C 431.59 497.66 431.18 496.01 430.15 494.54 C 428.10 494.58 426.20 495.15 424.70 496.57 C 424.17 495.79 423.66 495.02 423.15 494.25 C 425.74 492.93 426.96 490.06 425.07 487.58 C 423.68 488.30 422.34 489.13 421.03 489.99 C 422.16 491.33 421.51 492.98 421.20 494.49 C 419.72 494.18 418.52 493.38 417.51 492.31 Z" />
<path fill="#030303" opacity="1.00" d=" M 405.35 498.05 C 406.39 494.17 410.96 491.95 414.65 493.58 C 414.40 494.83 415.08 496.79 413.55 497.38 C 412.11 498.28 410.33 495.04 409.34 497.12 C 407.50 498.67 408.17 501.16 408.60 503.18 C 410.16 501.59 411.51 499.37 413.97 499.21 C 417.66 498.18 421.19 501.46 421.24 505.12 C 420.37 509.48 415.39 513.14 411.09 510.91 C 406.68 508.53 404.34 502.89 405.35 498.05 M 411.65 503.32 C 411.20 504.66 411.03 506.06 411.25 507.47 C 413.49 509.24 417.85 508.40 417.64 505.01 C 418.10 503.09 416.01 502.61 414.82 501.80 C 413.76 502.31 412.71 502.82 411.65 503.32 Z" />
<path fill="#030303" opacity="1.00" d=" M 390.13 511.86 C 386.95 506.47 393.77 499.90 399.18 502.53 C 403.70 505.18 405.88 511.12 404.71 516.15 C 405.07 516.27 405.77 516.52 406.13 516.65 C 405.65 516.56 404.70 516.39 404.22 516.30 C 403.74 518.92 401.10 520.15 398.80 520.75 C 396.66 521.27 393.81 519.37 394.89 517.02 C 396.08 514.78 398.36 516.80 399.78 517.63 C 402.18 515.94 402.25 513.02 401.68 510.40 C 399.43 514.47 393.00 516.16 390.13 511.86 M 392.38 509.38 C 394.08 511.97 398.20 512.00 399.28 508.83 C 400.22 506.94 398.20 505.91 397.10 504.83 C 394.21 504.75 392.65 506.64 392.38 509.38 Z" />
<path fill="#030303" opacity="1.00" d=" M 376.69 512.83 C 378.53 511.31 380.38 509.83 382.29 508.40 C 384.05 512.96 386.27 517.32 388.04 521.89 C 389.23 521.58 390.44 521.29 391.64 521.02 C 391.91 521.99 392.21 522.99 392.49 523.98 C 389.37 525.24 386.34 526.71 383.19 527.88 C 382.87 526.77 382.57 525.66 382.27 524.56 C 382.94 524.41 384.29 524.10 384.97 523.94 C 384.17 520.37 382.25 517.20 380.77 513.90 C 380.08 514.52 379.41 515.17 378.73 515.81 C 378.04 514.81 377.36 513.81 376.69 512.83 Z" />
<path fill="#030303" opacity="1.00" d=" M 356.59 519.69 C 357.44 520.83 357.95 522.16 358.50 523.47 C 359.67 523.03 360.85 522.60 362.03 522.20 C 362.23 523.18 362.44 524.17 362.66 525.16 C 361.52 525.47 360.39 525.80 359.26 526.13 C 359.93 528.08 360.54 530.06 361.07 532.07 C 362.59 532.48 363.89 531.78 365.02 530.80 C 365.19 531.91 365.38 533.05 365.56 534.18 C 363.56 535.30 361.35 536.15 359.09 535.29 C 357.86 532.70 356.86 530.02 356.03 527.29 C 353.81 528.79 353.20 526.91 352.71 525.05 C 353.26 524.99 354.34 524.87 354.89 524.81 C 354.82 524.07 354.69 522.58 354.62 521.83 C 355.12 521.30 356.10 520.23 356.59 519.69 Z" />
<path fill="#030303" opacity="1.00" d=" M 322.54 526.22 C 327.15 525.39 331.70 524.26 336.32 523.47 C 336.69 525.30 337.07 527.14 337.45 528.98 C 336.33 529.14 335.21 529.29 334.11 529.46 C 334.03 528.90 333.86 527.78 333.78 527.22 C 332.12 527.50 330.46 527.79 328.81 528.10 C 329.03 529.64 329.28 531.20 329.51 532.76 C 331.26 532.35 333.01 531.95 334.76 531.56 C 335.07 532.51 335.38 533.48 335.69 534.45 C 333.87 534.87 332.04 535.26 330.22 535.67 C 330.56 537.25 330.90 538.85 331.24 540.45 C 333.36 539.78 337.36 540.30 336.15 536.86 C 337.10 536.68 338.06 536.50 339.02 536.32 C 339.44 538.12 339.84 539.92 340.19 541.74 C 335.61 542.68 331.03 543.64 326.47 544.68 C 326.27 543.92 325.87 542.40 325.68 541.64 C 326.21 541.55 327.27 541.37 327.80 541.28 C 327.09 537.19 326.10 533.16 325.29 529.09 C 324.71 529.13 323.56 529.21 322.98 529.25 C 322.87 528.49 322.65 526.98 322.54 526.22 Z" />
<path fill="#030303" opacity="1.00" d=" M 342.30 529.26 C 344.04 526.60 349.65 525.33 351.28 528.52 C 351.53 532.20 348.68 529.96 347.09 529.22 C 346.46 529.52 345.21 530.10 344.58 530.40 C 345.86 532.68 348.82 531.18 350.88 532.03 C 354.45 532.53 353.76 537.87 350.94 538.99 C 348.68 540.03 345.31 540.68 343.40 538.73 C 342.30 537.05 344.30 536.06 345.19 534.93 C 342.48 534.65 340.56 531.62 342.30 529.26 M 345.58 535.06 C 345.05 536.95 349.29 537.65 350.01 535.94 C 349.21 534.54 346.93 534.69 345.58 535.06 Z" />
<path fill="#030303" opacity="1.00" d=" M 367.62 531.05 C 368.23 529.54 368.66 527.14 370.84 527.77 C 373.31 527.67 373.07 530.86 372.32 532.44 C 370.58 532.62 368.88 532.38 367.62 531.05 Z" />
</g>
</svg>
