<svg width="49" height="49" viewBox="0 0 49 49" fill="none" xmlns="http://www.w3.org/2000/svg">
<rect x="0.294922" y="0.322266" width="48" height="48" rx="8" fill="#E9E9FC"/>
<path d="M24.156 14.7128C25.1444 14.0539 26.4285 14.0402 27.4307 14.678L31.5859 17.3222H33.2947C33.847 17.3222 34.2947 17.7699 34.2947 18.3222V27.3222C34.2947 27.8745 33.847 28.3222 33.2947 28.3222H31.775C31.8345 29.2695 31.3882 30.2325 30.4904 30.7712L25.397 33.8273C24.754 34.213 23.9558 34.204 23.3263 33.8197C22.626 34.439 21.548 34.5072 20.766 33.8927L15.6252 29.8535C14.8588 29.2514 14.665 28.2226 15.0607 27.407C14.5774 27.028 14.2949 26.4477 14.2949 25.8332V18.3223C14.2949 17.77 14.7426 17.3223 15.2949 17.3223H20.2419L24.156 14.7128ZM16.4676 25.9675L17.1596 25.362C18.3898 24.2855 20.2553 24.3921 21.3549 25.6017L24.0571 28.5741C24.9266 29.5306 25.0852 30.9358 24.4528 32.0613L29.4614 29.0562C29.7428 28.8874 29.8446 28.5499 29.7397 28.2656L25.3126 22.0678C25.0639 21.7196 24.6213 21.5682 24.2115 21.6912L21.7263 22.4368C20.6692 22.7539 19.5233 22.465 18.7429 21.6846L18.4501 21.3918C17.8821 20.8238 17.7352 20.0154 17.9743 19.3223H16.2949V25.8332L16.4676 25.9675ZM26.357 16.3653C26.0229 16.1527 25.5949 16.1573 25.2654 16.3769L19.8644 19.9776L20.1571 20.2704C20.4173 20.5305 20.7992 20.6268 21.1516 20.5211L23.6368 19.7755C24.8662 19.4067 26.1941 19.8609 26.9401 20.9053L30.8093 26.3222H32.2947V19.3222H31.5859C31.2055 19.3222 30.833 19.2137 30.5121 19.0095L26.357 16.3653ZM18.4766 26.8671L16.8609 28.2809L22.0016 32.3201L22.7055 31.0882C22.9205 30.712 22.8687 30.2401 22.5772 29.9194L19.8751 26.947C19.5085 26.5438 18.8867 26.5083 18.4766 26.8671Z" fill="#572985"/>
</svg>
