<svg width="294" height="89" viewBox="0 0 294 89" fill="none" xmlns="http://www.w3.org/2000/svg">
<rect x="4.14062" y="4.625" width="80" height="80" stroke="#2E384E" stroke-width="1.65"/>
<rect x="1.14062" y="1.625" width="6" height="6" fill="white" stroke="#2E384E" stroke-width="1.65"/>
<rect x="81.1406" y="1.625" width="6" height="6" fill="white" stroke="#2E384E" stroke-width="1.65"/>
<rect x="81.1406" y="81.625" width="6" height="6" fill="white" stroke="#2E384E" stroke-width="1.65"/>
<rect x="1.14062" y="81.625" width="6" height="6" fill="white" stroke="#2E384E" stroke-width="1.65"/>
<rect x="12.1406" y="12.625" width="64" height="64" fill="#FBF7EC"/>
<rect x="17.1406" y="17.625" width="54" height="54" fill="#E7F5FE"/>
<g clip-path="url(#clip0_770_1063)">
<path d="M31.7773 40.875H29.1406V38.5312H31.7773V40.875ZM30.2203 45.5039L31.2745 47.5973L33.7613 46.345L32.7071 44.2517L30.2203 45.5039ZM33.7027 32.8824L31.2745 31.6595L30.2203 33.7529L32.6485 34.9756L33.7027 32.8824ZM58.061 33.7529L57.0068 31.6595L54.5786 32.8824L55.6328 34.9756L58.061 33.7529ZM44.1992 36.6562C45.8469 36.6562 47.1875 37.9968 47.1875 39.6445H49.5312C49.5312 36.7043 47.1394 34.3125 44.1992 34.3125V36.6562ZM56.5039 38.5312V40.875H59.1406V38.5312H56.5039ZM57.039 51.4805H59.1406V53.8242H57.039C56.928 54.2536 56.7568 54.6587 56.5362 55.0316L58.0241 56.5195L56.3668 58.1769L54.8788 56.6889C54.5119 56.9059 54.1135 57.0748 53.6914 57.1858V59.2734H51.3477V57.1961C50.9109 57.0853 50.499 56.9128 50.1206 56.6889L48.6327 58.1769L46.9753 56.5195L48.4633 55.0316C48.2426 54.6587 48.0714 54.2536 47.9607 53.8242H45.8398V51.4805H47.9607C48.0714 51.0511 48.2426 50.6457 48.4633 50.2731L46.9753 48.7852L48.6327 47.1278L50.1206 48.6158C50.499 48.3919 50.9109 48.2194 51.3477 48.1086V46.0312H53.6914V48.1189C54.1135 48.2299 54.5119 48.3988 54.8788 48.6158L56.3668 47.1278L58.0241 48.7852L56.5362 50.2731C56.7568 50.646 56.928 51.0511 57.039 51.4805ZM52.4996 54.9961C53.7921 54.9961 54.8434 53.9446 54.8434 52.6523C54.8434 51.3601 53.7921 50.3086 52.4996 50.3086C51.9965 50.3086 51.5303 50.4686 51.1481 50.7396L50.5869 51.3006C50.3159 51.6828 50.1559 52.149 50.1559 52.6523C50.1559 53.9446 51.2074 54.9961 52.4996 54.9961ZM44.8062 57.2812H43.0207C42.3746 57.2812 41.8488 56.7555 41.8488 56.1094V53.8242H43.5547V51.4805H41.7129C41.3332 49.397 40.2187 47.9305 39.1343 46.5034C37.7367 44.6644 36.4163 42.9267 36.4062 39.6734C36.4223 35.4221 39.8857 31.9688 44.1406 31.9688C48.3955 31.9688 51.859 35.4221 51.875 39.6734C51.8695 41.4413 51.4767 42.761 50.8954 43.8933C51.422 43.7969 51.965 43.7461 52.5195 43.7461C52.8512 43.7461 53.1783 43.7646 53.5005 43.7997C53.9306 42.6598 54.2112 41.328 54.2185 39.7031L54.2188 39.6361H54.2185C54.1824 34.1097 49.6754 29.625 44.1406 29.625C38.6058 29.625 34.0989 34.1097 34.0627 39.6361L34.0625 39.7031H34.0627C34.0813 43.7278 35.7738 45.955 37.2682 47.9216C38.5179 49.5663 39.5117 50.8655 39.5117 53.0279V56.1094C39.5117 58.048 41.0823 59.625 43.0209 59.625H45.2605C45.7098 59.625 46.1395 59.5394 46.5347 59.3849C45.8575 58.7772 45.2736 58.0681 44.8062 57.2812Z" fill="#212121"/>
</g>
<rect x="210.141" y="4.625" width="80" height="80" stroke="#2E384E" stroke-width="1.65"/>
<rect x="207.141" y="1.625" width="6" height="6" fill="white" stroke="#2E384E" stroke-width="1.65"/>
<rect x="287.141" y="1.625" width="6" height="6" fill="white" stroke="#2E384E" stroke-width="1.65"/>
<rect x="287.141" y="81.625" width="6" height="6" fill="white" stroke="#2E384E" stroke-width="1.65"/>
<rect x="207.141" y="81.625" width="6" height="6" fill="white" stroke="#2E384E" stroke-width="1.65"/>
<rect x="218.141" y="12.625" width="64" height="64" fill="#FBF7EC"/>
<rect x="223.141" y="17.625" width="54" height="54" fill="#EBDDFF"/>
<g clip-path="url(#clip1_770_1063)">
<path d="M255.335 55.2705H258.119C255.966 56.7805 253.382 57.6143 250.711 57.6143C243.603 57.6143 237.82 51.8316 237.82 44.7236C237.82 43.2489 238.067 41.8031 238.554 40.4267L236.344 39.6457C235.768 41.2737 235.477 42.9822 235.477 44.7236C235.477 53.1431 242.29 59.958 250.711 59.958C254.101 59.958 257.375 58.8223 260.022 56.7793V59.958H262.366V52.9268H255.335V55.2705ZM250.477 46.1299C251.124 46.1299 251.648 45.6052 251.648 44.958C251.648 44.3108 251.124 43.7861 250.477 43.7861C249.829 43.7861 249.305 44.3108 249.305 44.958C249.305 45.6052 249.829 46.1299 250.477 46.1299ZM242.273 43.7861V46.1299H244.735C244.887 46.877 245.182 47.5725 245.59 48.1873L243.847 49.9299L245.505 51.5871L247.247 49.8446C247.862 50.2522 248.558 50.5473 249.305 50.6996V53.1611H251.648V50.6996C252.395 50.5473 253.091 50.2522 253.706 49.8446L255.448 51.5871L257.106 49.9299L255.363 48.1873C255.771 47.5725 256.066 46.877 256.218 46.1299H258.68V43.7861H256.218C256.066 43.0391 255.771 42.3435 255.363 41.7287L257.106 39.9862L255.448 38.3289L253.706 40.0714C253.091 39.6638 252.396 39.3687 251.648 39.2165V36.7549H249.305V39.2165C248.558 39.3687 247.862 39.6638 247.247 40.0714L245.505 38.3289L243.847 39.9862L245.59 41.7287C245.182 42.3435 244.887 43.0391 244.735 43.7861H242.273ZM250.477 41.4424C252.415 41.4424 253.992 43.0195 253.992 44.958C253.992 46.8965 252.415 48.4736 250.477 48.4736C248.538 48.4736 246.961 46.8965 246.961 44.958C246.961 43.0195 248.538 41.4424 250.477 41.4424ZM250.242 29.958C246.853 29.958 243.581 31.093 240.933 33.1348V29.958H238.589V36.9893H245.621V34.6455H242.835C244.987 33.1355 247.572 32.3018 250.242 32.3018C257.35 32.3018 263.133 38.0844 263.133 45.1924C263.133 46.6671 262.886 48.1129 262.4 49.4894L264.609 50.2704C265.185 48.6423 265.477 46.9338 265.477 45.1924C265.477 36.7729 258.663 29.958 250.242 29.958Z" fill="#212121"/>
</g>
<path d="M100.847 59.1703C100.191 59.6765 100.07 60.6185 100.576 61.2742C101.082 61.93 102.024 62.0512 102.68 61.545L100.847 59.1703ZM196.393 42.3611C197.152 42.0274 197.496 41.1422 197.162 40.3839L191.724 28.0275C191.391 27.2693 190.506 26.9251 189.747 27.2588C188.989 27.5925 188.645 28.4777 188.979 29.2359L193.812 40.2194L182.829 45.0529C182.07 45.3866 181.726 46.2718 182.06 47.0301C182.394 47.7883 183.279 48.1325 184.037 47.7988L196.393 42.3611ZM102.68 61.545C128.424 41.6712 161.522 29.274 195.246 42.3862L196.333 39.5901C161.23 25.9415 127.016 38.9685 100.847 59.1703L102.68 61.545Z" fill="#007F62"/>
<defs>
<clipPath id="clip0_770_1063">
<rect width="30" height="30" fill="white" transform="translate(29.1406 29.625)"/>
</clipPath>
<clipPath id="clip1_770_1063">
<rect width="30" height="30" fill="white" transform="translate(235.477 29.958)"/>
</clipPath>
</defs>
</svg>
