<svg width="49" height="49" viewBox="0 0 49 49" fill="none" xmlns="http://www.w3.org/2000/svg">
<rect x="0.294922" y="0.322266" width="48" height="48" rx="8" fill="#E9E9FC"/>
<g clip-path="url(#clip0_2301_816)">
<path d="M22.0228 23.5821H20.1904C17.5407 23.5821 15.3857 25.7365 15.3857 28.3863C15.3857 31.0361 17.5407 33.1904 20.1904 33.1904H28.5335C28.8443 34.1492 29.7383 34.8498 30.8056 34.8498C32.1292 34.8498 33.2044 33.7738 33.2044 32.4504C33.2044 31.1273 32.129 30.052 30.8056 30.052C29.7381 30.052 28.8444 30.7521 28.5335 31.7104H20.1894C18.3564 31.7104 16.8648 30.2187 16.8648 28.3863C16.8648 26.5534 18.3568 25.0621 20.1894 25.0621H22.0218C22.3326 26.0204 23.226 26.7215 24.2934 26.7215C25.3614 26.7215 26.2555 26.0206 26.5664 25.0621H28.3998C31.049 25.0621 33.204 22.9077 33.204 20.258C33.204 17.6083 31.0496 15.4533 28.3998 15.4533H20.0566C19.7457 14.4948 18.8516 13.7944 17.7841 13.7944C16.4609 13.7944 15.3848 14.8696 15.3848 16.1928C15.3848 17.5165 16.4608 18.5917 17.7841 18.5917C18.8515 18.5917 19.7456 17.8914 20.0566 16.9333H28.4008C30.2332 16.9333 31.7249 18.4249 31.7249 20.258C31.7249 22.0905 30.2333 23.5821 28.4008 23.5821H26.5673C26.2563 22.6235 25.3617 21.9232 24.2944 21.9232C23.2271 21.9232 22.3336 22.6238 22.0228 23.5821Z" fill="#572985" stroke="#572985"/>
</g>
<defs>
<clipPath id="clip0_2301_816">
<rect width="24" height="24" fill="white" transform="translate(12.2949 12.3223)"/>
</clipPath>
</defs>
</svg>
