<svg width="490" height="470" viewBox="0 0 490 470" fill="none" xmlns="http://www.w3.org/2000/svg">
<g opacity="0.1" clip-path="url(#clip0_983_8272)">
<path d="M285.035 440.836C326.481 493.272 275.387 569.951 244.36 601.975C223.689 569.887 203.355 557.515 195.772 555.34C109.268 511.164 134.544 450.685 157.995 425.968C198.934 388.529 242.562 387.099 285.035 440.836Z" fill="#7A7AD2"/>
<path d="M166.034 189.138C-51.6954 169.445 -70.5418 317.3 -55.902 395.511C-122.721 310.978 -98.2913 210.709 -8.8241 175.462C62.7497 147.265 137.218 170.518 166.034 189.138Z" fill="#7A7AD2"/>
<path d="M281.734 310.128C65.9148 159.225 19.1664 389.204 33.6691 451.854C-35.9253 375.889 -11.9778 266.018 74.188 223.331C182.105 169.869 260.904 278.423 281.734 310.128Z" fill="#7A7AD2"/>
<path d="M21.5881 523.462C116.301 514.785 197.543 560.957 200.534 595.966C209.194 697.346 -29.2356 733.044 -146.774 566.502C-237.149 438.45 -160.405 299.5 -107.444 252.677C-107.095 252.36 -106.743 252.052 -106.386 251.751C-106.737 252.055 -107.09 252.364 -107.444 252.677C-160.703 301.06 -118.971 536.341 21.5881 523.462Z" fill="#7A7AD2"/>
<path d="M188.035 355.48C262.02 348.286 299.757 411.023 310.699 445.578C301.775 313.47 177.129 266.381 105.41 327.658C51.1067 374.054 80.1744 469.286 106.776 502.941C79.9462 458.186 95.5536 364.472 188.035 355.48Z" fill="#7A7AD2"/>
</g>
<defs>
<clipPath id="clip0_983_8272">
<rect width="610.444" height="610.444" fill="white" transform="translate(111.18 0.70459) rotate(51.6762)"/>
</clipPath>
</defs>
</svg>
