<svg width="519" height="576" viewBox="0 0 519 576" fill="none" xmlns="http://www.w3.org/2000/svg">
<g opacity="0.1" clip-path="url(#clip0_974_6656)">
<path d="M653.598 158.029C695.043 210.466 643.95 287.144 612.922 319.168C592.251 287.081 571.917 274.708 564.334 272.533C477.83 228.357 503.107 167.879 526.558 143.162C567.497 105.722 611.125 104.292 653.598 158.029Z" fill="#7A7AD2"/>
<path d="M534.596 -93.6683C316.867 -113.362 298.021 34.4929 312.66 112.705C245.842 28.1709 270.271 -72.098 359.738 -107.344C431.312 -135.542 505.78 -112.288 534.596 -93.6683Z" fill="#7A7AD2"/>
<path d="M650.296 27.3212C434.477 -123.582 387.729 106.398 402.232 169.048C332.637 93.0824 356.585 -16.7891 442.75 -59.4757C550.667 -112.938 629.466 -4.38318 650.296 27.3212Z" fill="#7A7AD2"/>
<path d="M390.151 240.656C484.863 231.978 566.106 278.151 569.097 313.16C577.757 414.539 339.327 450.237 221.788 283.696C131.413 155.643 208.158 16.6937 261.119 -30.1298C261.467 -30.4464 261.82 -30.7551 262.177 -31.0556C261.825 -30.7511 261.472 -30.4425 261.119 -30.1298C207.86 18.253 249.592 253.534 390.151 240.656Z" fill="#7A7AD2"/>
<path d="M556.597 72.6734C630.582 65.4796 668.319 128.216 679.262 162.771C670.338 30.6636 545.691 -16.4257 473.972 44.8511C419.669 91.2478 448.737 186.479 475.339 220.135C448.509 175.38 464.116 81.6656 556.597 72.6734Z" fill="#7A7AD2"/>
</g>
<defs>
<clipPath id="clip0_974_6656">
<rect width="610.444" height="610.444" fill="white" transform="translate(479.742 -282.102) rotate(51.6762)"/>
</clipPath>
</defs>
</svg>
