<svg width="95" height="94" viewBox="0 0 95 94" fill="none" xmlns="http://www.w3.org/2000/svg">
<g filter="url(#filter0_d_770_1195)">
<rect x="9.58984" y="7.67871" width="75.6617" height="75.6617" rx="12" fill="white"/>
<path d="M36.7312 31.96L36.7317 31.9608C36.8551 32.1528 37.0627 32.2642 37.2845 32.2642C37.4094 32.2642 37.5215 32.2341 37.6475 32.1585L37.6475 32.1585L37.6516 32.1559C40.5641 30.3052 43.9441 29.3213 47.412 29.3213C50.8795 29.3213 54.2584 30.2951 57.1699 32.1543C57.4794 32.3632 57.8819 32.2606 58.0732 31.96C58.2692 31.652 58.1688 31.2509 57.8676 31.0592C54.7466 29.0713 51.1288 28.0179 47.4022 28.0179C43.6861 28.0179 40.059 29.0709 36.9384 31.0582C36.6202 31.2531 36.5386 31.6573 36.7312 31.96ZM30.309 38.1136L30.309 38.1136L30.3081 38.1153C28.7276 40.978 27.8929 44.2278 27.8929 47.5174C27.8929 58.281 36.6486 67.0267 47.4022 67.0267C58.1559 67.0267 66.9016 58.2809 66.9115 47.5274V47.5272C66.9115 44.2384 66.0772 40.9892 64.4974 38.127C64.3304 37.8097 63.9303 37.6845 63.6105 37.8633C63.2933 38.0308 63.1686 38.4315 63.3485 38.7513C64.819 41.4198 65.5982 44.4491 65.5982 47.5174C65.5982 57.5503 57.4352 65.7134 47.4022 65.7134C37.3692 65.7134 29.2062 57.5503 29.2062 47.5174C29.2062 44.4585 29.9758 41.429 31.4563 38.7408L31.4563 38.7408L31.4583 38.7371C31.6232 38.421 31.5125 38.0335 31.1967 37.855L31.1967 37.8549L31.1911 37.852C30.875 37.6871 30.4875 37.7977 30.309 38.1136Z" fill="#E57A56" stroke="#E57A56" stroke-width="0.378308"/>
<path d="M53.1592 50.8362C54.9413 50.2454 56.092 50.1613 56.9557 50.374C57.8147 50.5856 58.4202 51.0975 59.1041 51.781C59.167 51.8506 59.2384 51.9196 59.3021 51.9811C59.3312 52.0092 59.3587 52.0357 59.3831 52.06L59.384 52.0609C60.866 53.5232 62.4784 55.144 62.8133 57.4918C62.8568 57.855 63.1925 58.1033 63.5513 58.0481C63.9077 57.9932 64.1582 57.6632 64.1034 57.3022C63.71 54.5106 61.7978 52.611 60.3091 51.1321L60.2997 51.1228L60.2999 51.1227L60.2929 51.1164C60.1988 51.0317 60.1136 50.9465 60.0246 50.8575C59.1281 49.9611 58.2578 49.3192 57.1224 49.0718C55.9908 48.8252 54.6242 48.9764 52.7449 49.6012C50.5154 50.3377 49.0244 51.6234 48.7503 53.1628L48.7502 53.1628L48.75 53.1641C48.5912 54.0956 48.9103 54.9724 49.6453 55.5583L49.6454 55.5584C50.1679 55.9745 50.5214 56.3614 50.5042 57.006C50.4862 57.6811 50.0629 58.6801 48.8442 60.3067L48.8437 60.3073C48.023 61.4117 47.7043 62.5383 47.9343 63.6569L47.9343 63.6569L47.9345 63.6578C48.137 64.6185 48.706 65.3637 49.2239 65.869C49.7271 66.3599 50.1961 66.6379 50.2734 66.6787C50.3716 66.7339 50.4815 66.7606 50.59 66.7606C50.8259 66.7606 51.0462 66.6349 51.1681 66.4183C51.3471 66.1013 51.2368 65.7005 50.9193 65.521L50.9194 65.5208L50.9108 65.5164C50.9113 65.5167 50.9101 65.516 50.907 65.5141C50.8675 65.4903 50.5321 65.2882 50.1647 64.9364C49.7695 64.5578 49.3566 64.0241 49.22 63.3733L49.2198 63.3723C49.0675 62.6645 49.2766 61.8929 49.8944 61.0754L49.8946 61.0753C51.059 59.531 51.7079 58.2966 51.8092 57.2407C51.913 56.1587 51.4406 55.2995 50.4719 54.5245L50.4706 54.5235C50.1154 54.2444 49.9705 53.8432 50.0481 53.3855C50.1315 52.9077 50.4471 52.4228 50.9818 51.9768C51.5154 51.5317 52.2556 51.1358 53.1592 50.8362ZM53.1592 50.8362L53.0997 50.6566M53.1592 50.8362L53.0997 50.6566M53.0997 50.6566C51.2592 51.2669 50.0486 52.2806 49.8616 53.3534L59.5168 51.9263C59.4876 51.8971 59.4574 51.8679 59.4268 51.8384C59.3645 51.7783 59.3006 51.7167 59.2412 51.6507C57.8633 50.2728 56.6921 49.4657 53.0997 50.6566Z" fill="#E57A56" stroke="#E57A56" stroke-width="0.378308"/>
<path d="M28.2687 45.2264L28.2681 45.2258C28.0187 44.9626 28.0336 44.5504 28.2815 44.3025L28.2851 44.2989L28.2851 44.299C28.5483 44.0496 28.9606 44.0645 29.2084 44.3124L29.2117 44.3156L29.2116 44.3157C30.1979 45.3513 30.8899 45.9721 31.2584 46.1932C32.831 47.135 34.1988 46.7405 34.886 46.1532C35.5586 45.57 35.7504 44.723 35.3955 43.8487C34.8766 42.5981 35.3773 40.9865 36.5153 40.0761C37.6238 39.1893 39.0655 39.2112 40.3343 40.1083C40.5075 40.228 40.7994 40.2569 41.2208 40.1553C41.6347 40.0555 42.1324 39.8395 42.6744 39.5327C43.757 38.9199 44.9837 37.9641 46.0171 36.9308C46.3748 36.573 46.6215 36.2606 46.7643 35.9955C46.9079 35.7289 46.9338 35.534 46.8943 35.3949C46.8494 35.244 46.6965 35.0115 46.2213 34.7428C45.7461 34.4741 44.9692 34.1814 43.7181 33.9028L43.7173 33.9026C42.0917 33.5336 41.0268 32.8511 40.6487 31.825L40.6485 31.8245C40.4011 31.1468 40.522 30.4874 40.699 30.0031C40.7879 29.7597 40.8924 29.5563 40.9766 29.4104C41.0187 29.3374 41.0559 29.2785 41.0836 29.2362C41.0975 29.215 41.1089 29.198 41.1172 29.1858C41.1251 29.1742 41.1274 29.1707 41.1274 29.1708C41.1274 29.1708 41.1273 29.171 41.1271 29.1713L41.132 29.1632L41.1383 29.1549C41.3588 28.8656 41.7628 28.8093 42.053 29.0305C42.3423 29.2509 42.3986 29.6549 42.1774 29.9452L42.1738 29.9499L42.1724 29.9518C42.1687 29.957 42.1629 29.9653 42.1554 29.9767C42.1402 29.9993 42.1187 30.0329 42.0937 30.0758C42.0434 30.1618 41.98 30.2828 41.9255 30.4249C41.8144 30.7142 41.7504 31.0622 41.8693 31.378L41.8697 31.3788C41.963 31.6306 42.179 31.8719 42.538 32.0885C42.8965 32.3047 43.385 32.4883 43.9978 32.6282C45.226 32.9056 46.1743 33.2305 46.857 33.619C47.5407 34.008 47.9766 34.4717 48.1431 35.0324L48.1437 35.0343C48.3097 35.6156 48.1589 36.1678 47.8975 36.6438C47.6369 37.1182 47.2572 37.5346 46.9342 37.8577C46.1291 38.6627 44.7878 39.8059 43.4413 40.5938L43.4412 40.5939C42.6136 41.0775 41.8747 41.3774 41.2315 41.4809C40.5852 41.585 40.0248 41.4918 39.5757 41.1758C39.0128 40.7804 38.5438 40.6956 38.1783 40.7354C37.8085 40.7758 37.5219 40.9464 37.3331 41.0992L37.3325 41.0997C36.9905 41.3742 36.7373 41.767 36.6072 42.1813C36.4767 42.5968 36.4748 43.0174 36.6116 43.3507C37.1824 44.7413 36.8509 46.1964 35.7541 47.1474C35.0378 47.7804 34.1359 48.0901 33.1877 48.0801C33.1873 48.08 33.187 48.08 33.1866 48.08L33.1887 47.8909C32.3718 47.8909 31.5057 47.6547 30.6888 47.1626L28.2687 45.2264ZM28.2687 45.2264C29.3389 46.3458 30.0838 47.0241 30.5918 47.325L28.2687 45.2264ZM42.1757 29.9473C42.178 29.9442 42.1776 29.9449 42.1753 29.9478L42.1757 29.9473Z" fill="#E57A56" stroke="#E57A56" stroke-width="0.378308"/>
<path d="M37.629 61.1721L37.6292 61.1719C38.2489 59.7494 39.5689 58.5242 40.9197 58.1424C41.3513 58.0177 41.5131 57.8945 41.5877 57.7719C41.6693 57.6381 41.6777 57.4656 41.6881 57.1379C41.6882 57.1377 41.6882 57.1375 41.6882 57.1372L41.6886 57.1184C41.6982 56.7117 41.7113 56.1538 42.0862 55.6374C42.095 55.6237 42.112 55.585 42.1214 55.5101C42.1307 55.4356 42.1309 55.3373 42.1153 55.2177C42.0842 54.9788 41.9915 54.6662 41.7993 54.3099L41.7988 54.3089C41.5614 53.8626 40.6389 52.4557 38.7953 52.5391L38.7951 52.5391C38.2409 52.5634 37.9762 52.641 37.8404 52.7234C37.7215 52.7956 37.6882 52.8771 37.635 53.0176L37.6345 53.0186C37.545 53.2504 37.4318 53.4472 37.2741 53.5975C37.1138 53.7502 36.9181 53.8449 36.6814 53.8882C36.224 53.972 35.5993 53.8654 34.7306 53.6249L34.7299 53.6247C33.9621 53.4093 33.3092 53.4794 32.7721 53.8016L32.77 53.8029L32.77 53.8029C32.1923 54.1395 31.8023 54.7203 31.5548 55.2369C31.4321 55.493 31.3469 55.7281 31.2925 55.8999C31.2654 55.9857 31.2461 56.0553 31.2337 56.1034C31.2275 56.1274 31.2231 56.1458 31.2204 56.1578L31.2203 56.158V56.1609L31.2155 56.1819C31.1342 56.5341 30.7903 56.7622 30.4367 56.6778C30.0851 56.5962 29.8576 56.2531 29.9414 55.9M37.629 61.1721L41.2798 59.4018C41.2798 59.4017 41.2799 59.4017 41.28 59.4017M37.629 61.1721C37.1594 62.2545 37.1304 63.3581 37.5944 64.2658C37.7061 64.4884 37.9396 64.6254 38.1766 64.6254C38.2775 64.6254 38.3819 64.5977 38.4676 64.5609L38.4742 64.5581L38.4806 64.5548C38.7939 64.3913 38.9365 63.9947 38.7679 63.6704M37.629 61.1721L38.7679 63.6704M29.9414 55.9C29.9415 55.8994 29.9416 55.8989 29.9417 55.8983L30.1257 55.9425M29.9414 55.9C29.9412 55.9005 29.9411 55.901 29.941 55.9015L30.1257 55.9425M29.9414 55.9C29.9549 55.8395 30.0825 55.2863 30.4061 54.6254C30.7315 53.9606 31.2638 53.1691 32.0951 52.6703C32.9637 52.147 33.9735 52.0481 35.0777 52.3548L35.0781 52.355C35.6867 52.5254 36.0396 52.5809 36.2371 52.5944C36.3036 52.599 36.3507 52.5987 36.3827 52.5968C36.391 52.5779 36.398 52.5602 36.4027 52.5462L36.4055 52.5378L36.4057 52.5379C36.5195 52.2429 36.6799 51.9236 37.039 51.6743C37.3932 51.4284 37.9177 51.2664 38.7282 51.2262L38.7292 51.2261C40.8092 51.1335 42.2752 52.4418 42.9488 53.6768C43.2249 54.183 43.3869 54.6979 43.4264 55.1663C43.4657 55.6329 43.3841 56.0678 43.1541 56.3956L43.1536 56.3963C43.0254 56.5773 43.0116 56.8097 43.0013 57.1683L43.0013 57.1684L43.0007 57.19C42.9912 57.5213 42.9786 57.9593 42.7587 58.3694C42.5283 58.7991 42.0884 59.1699 41.28 59.4017M30.1257 55.9425C30.0666 56.1885 30.2241 56.4346 30.48 56.4937M30.1257 55.9425L30.48 56.4937M41.28 59.4017C40.3188 59.679 39.3054 60.6183 38.8321 61.6974L38.8316 61.6985C38.594 62.2306 38.4137 62.9793 38.7679 63.6704M41.28 59.4017L38.7679 63.6704M30.48 56.4937C30.726 56.5527 30.9721 56.3952 31.0312 56.1393L30.48 56.4937ZM36.4393 52.5897C36.4401 52.5894 36.4405 52.5893 36.4406 52.5893L36.4393 52.5897Z" fill="#E57A56" stroke="#E57A56" stroke-width="0.378308"/>
<path d="M53.2554 44.9099L53.2558 44.9102C54.1254 45.8419 55.6769 46.4184 57.1416 45.5543C57.9541 45.0756 58.6038 44.7205 59.1335 44.4732C59.6647 44.2251 60.0651 44.0903 60.3809 44.0444C60.6914 43.9992 60.9141 44.0407 61.1006 44.1418C61.2927 44.2459 61.4653 44.4233 61.6561 44.6857C62.0902 45.2826 62.5717 45.897 63.1299 46.3622C63.6904 46.8293 64.3396 47.1553 65.1062 47.1553C65.5314 47.1553 65.9908 47.049 66.4727 46.8337L66.4743 46.833C66.808 46.68 66.9445 46.2908 66.7939 45.9621C66.6409 45.6284 66.2517 45.492 65.923 45.6426L65.9218 45.6432C65.6056 45.7909 65.3256 45.852 65.0681 45.844C64.8113 45.8361 64.565 45.7591 64.316 45.6132C63.8097 45.3165 63.3055 44.7436 62.7103 43.9222L62.7102 43.922C62.3431 43.4164 61.9412 43.0797 61.4914 42.8965C61.041 42.7131 60.5602 42.6907 60.0479 42.7841C59.0367 42.9684 57.8628 43.6134 56.4769 44.4312L56.4762 44.4316C55.6519 44.9227 54.7534 44.5906 54.2217 44.0226C53.7938 43.5572 53.5069 42.8221 53.9527 42.1827L53.9533 42.1818C54.324 41.6436 54.7585 40.8147 54.8774 39.7708C54.9969 38.7227 54.7967 37.4712 53.9175 36.0968L53.9175 36.0968C52.9825 34.6356 53.2084 33.2929 53.6878 32.288C54.1575 31.3035 54.8674 30.6535 54.9625 30.5665C54.9639 30.5652 54.9652 30.564 54.9664 30.563C55.2424 30.3255 55.2662 29.9125 55.0342 29.6395C54.7972 29.3607 54.3821 29.3357 54.1081 29.5687L54.1023 29.5736L54.0969 29.579C54.0973 29.5786 54.097 29.5789 54.0947 29.5811C54.0928 29.5827 54.0898 29.5856 54.085 29.5901L54.0488 29.6238C54.0186 29.6523 53.977 29.692 53.9265 29.7423C53.8256 29.8429 53.6889 29.986 53.5344 30.167C53.2258 30.5284 52.8441 31.0437 52.5351 31.677L52.5349 31.6774C51.6899 33.4182 51.7812 35.1909 52.8114 36.8026L52.8116 36.8029C53.5027 37.88 53.6539 38.8334 53.5689 39.6145C53.4835 40.3992 53.158 41.024 52.8744 41.4353C52.1371 42.4937 52.309 43.8906 53.2554 44.9099Z" fill="#E57A56" stroke="#E57A56" stroke-width="0.378308"/>
<path d="M32.3025 39.6193C32.0278 39.1298 31.7042 38.5668 31.354 37.9641C30.6548 36.7579 29.8302 35.3318 29.1495 34.0319C28.8093 33.382 28.5062 32.766 28.2734 32.2264C28.0393 31.6838 27.8812 31.2299 27.8236 30.9007L27.8235 30.9003C27.4398 28.7319 28.0745 27.0247 29.562 26.0423C30.3541 25.5238 31.3208 25.2663 32.3025 25.2663C33.2845 25.2663 34.2509 25.5239 35.0325 26.0419L35.0328 26.0421C36.5205 27.0246 37.1556 28.7321 36.7813 30.9011L36.7811 30.902C36.726 31.2305 36.5693 31.6839 36.3357 32.2265C36.1033 32.7659 35.8 33.3819 35.4592 34.0318C34.7829 35.3211 33.9638 36.7344 33.2682 37.9345L33.2511 37.964L32.3025 39.6193ZM32.3025 39.6193C32.5771 39.1298 32.9008 38.5668 33.251 37.9641L32.3025 39.6193ZM35.7628 24.9488C33.7311 23.6079 30.8936 23.6081 28.8524 24.9485C26.8973 26.2281 26.0627 28.4858 26.5258 31.1234L26.5258 31.1235C26.6694 31.9388 27.2225 33.1691 27.9148 34.5021C28.611 35.8427 29.462 37.3128 30.2195 38.6162C30.3235 38.797 30.4252 38.9733 30.5239 39.1444C31.0352 40.0305 31.4667 40.7784 31.7194 41.292L31.7199 41.2931C31.8304 41.5141 32.0531 41.6535 32.3025 41.6535C32.5436 41.6535 32.7835 41.5207 32.8873 41.2886C33.1402 40.7751 33.5709 40.0286 34.081 39.1444C34.1798 38.9733 34.2815 38.7969 34.3855 38.6162C35.1429 37.3128 35.994 35.8427 36.6902 34.5021C37.3824 33.1691 37.9355 31.9388 38.0791 31.1235C38.5422 28.4959 37.7078 26.2286 35.7628 24.9488ZM35.7628 24.9488L35.6587 25.1067L35.7626 24.9487C35.7627 24.9487 35.7628 24.9488 35.7628 24.9488Z" fill="#E57A56" stroke="#E57A56" stroke-width="0.378308"/>
<path d="M30.3976 29.8703C30.3976 28.8226 31.2485 27.963 32.3048 27.963C33.3617 27.963 34.2121 28.8133 34.2121 29.8703C34.2121 30.9179 33.3612 31.7775 32.3048 31.7775C31.2578 31.7775 30.3976 30.9173 30.3976 29.8703ZM29.0843 29.8703C29.0843 31.6479 30.5272 33.0908 32.3048 33.0908C34.0825 33.0908 35.5254 31.6479 35.5254 29.8703C35.5254 28.0926 34.0825 26.6497 32.3048 26.6497C30.5272 26.6497 29.0843 28.0926 29.0843 29.8703Z" fill="#E57A56" stroke="#E57A56" stroke-width="0.378308"/>
</g>
<defs>
<filter id="filter0_d_770_1195" x="0.510445" y="0.112545" width="93.8209" height="93.8204" filterUnits="userSpaceOnUse" color-interpolation-filters="sRGB">
<feFlood flood-opacity="0" result="BackgroundImageFix"/>
<feColorMatrix in="SourceAlpha" type="matrix" values="0 0 0 0 0 0 0 0 0 0 0 0 0 0 0 0 0 0 127 0" result="hardAlpha"/>
<feOffset dy="1.51323"/>
<feGaussianBlur stdDeviation="4.5397"/>
<feComposite in2="hardAlpha" operator="out"/>
<feColorMatrix type="matrix" values="0 0 0 0 0.898039 0 0 0 0 0.478431 0 0 0 0 0.337255 0 0 0 0.18 0"/>
<feBlend mode="normal" in2="BackgroundImageFix" result="effect1_dropShadow_770_1195"/>
<feBlend mode="normal" in="SourceGraphic" in2="effect1_dropShadow_770_1195" result="shape"/>
</filter>
</defs>
</svg>
