<svg width="512" height="512" viewBox="0 0 512 512" fill="none" xmlns="http://www.w3.org/2000/svg">
<g clip-path="url(#clip0_483_23)">
<path d="M60.3027 60.2354H180.773V90.353H60.3027V60.2354Z" fill="#017F62"/>
<path d="M210.891 60.2354H241.008V90.353H210.891V60.2354Z" fill="#017F62"/>
<path d="M271.125 60.2354H301.243V90.353H271.125V60.2354Z" fill="#017F62"/>
<path d="M60.3027 240.941H180.773V271.059H60.3027V240.941Z" fill="#017F62"/>
<path d="M210.891 240.941H241.008V271.059H210.891V240.941Z" fill="#017F62"/>
<path d="M60.3027 421.647H180.773V451.765H60.3027V421.647Z" fill="#017F62"/>
<path d="M210.891 421.647H241.008V451.765H210.891V421.647Z" fill="#017F62"/>
<path d="M483.697 289.124C483.112 288.872 482.532 288.61 481.949 288.355V60.2353H401.635V0H0.0664062V150.588H30.1841V180.706H0.0664062V331.294H30.1841V361.412H0.0664062V512H397.346L450.985 458.362C470.407 438.94 485.584 416.226 496.095 390.851C506.606 365.475 511.935 338.682 511.935 311.216V301.314L483.697 289.124ZM451.831 90.3529V273.57C437.392 265.679 423.452 256.867 410.156 247.198L401.635 241V180.706H371.517V150.588H401.635V90.3529H451.831ZM30.1841 30.1176H371.517V120.471H30.1841V30.1176ZM60.3017 150.588H341.4V180.706H60.3017V150.588ZM30.1841 210.824H371.517V241.244C343.629 262.721 312.963 280.233 280.26 293.343L261.086 301.029V301.176H30.1841V210.824ZM60.3017 331.294H262.05C263.029 341.467 264.752 351.519 267.216 361.412H60.3017V331.294ZM30.1841 481.882V391.529H277.217C281.615 402.044 286.82 412.097 292.795 421.647H271.125V451.765H315.732C317.783 454.001 319.88 456.205 322.036 458.362L345.557 481.882H30.1841ZM429.688 437.065L386.51 480.243L343.331 437.065C312.102 405.835 293.907 365.042 291.482 321.291C325.547 307.634 357.564 289.548 386.81 267.458L392.442 271.555C417.091 289.481 443.778 304.695 471.759 316.775L481.553 321.003C479.193 364.865 460.987 405.766 429.688 437.065Z" fill="#017F62"/>
<path d="M381.416 370.301L362.146 350.822L340.734 372.002L381.283 412.991L447.413 346.97L426.134 325.657L381.416 370.301Z" fill="#017F62"/>
</g>
<defs>
<clipPath id="clip0_483_23">
<rect width="512" height="512" fill="white"/>
</clipPath>
</defs>
</svg>
