<svg width="49" height="49" viewBox="0 0 49 49" fill="none" xmlns="http://www.w3.org/2000/svg">
<rect x="0.216797" y="0.437988" width="48" height="48" rx="8" fill="#EFF7F4"/>
<path d="M24.2175 17.9961C20.6554 17.9961 17.7754 20.9014 17.7754 24.4382C17.7754 27.975 20.6554 30.8803 24.2175 30.8803C27.7796 30.8803 30.6596 27.975 30.6596 24.4382C30.6596 20.9014 27.7796 17.9961 24.2175 17.9961ZM24.1417 29.8698C24.1164 29.895 24.1164 29.9456 24.1164 29.9961C21.1101 29.9203 18.6596 27.4698 18.6596 24.4382C18.6596 23.0993 19.1396 21.8108 20.0238 20.8003C20.0238 20.8761 19.9985 21.154 20.0238 21.2803C20.0491 21.4319 20.2259 21.8361 20.0491 22.215C19.7712 22.7708 19.8217 23.6298 19.9985 23.8824C20.0996 24.034 20.6554 24.7414 20.7564 24.8424C20.807 24.8929 20.9585 25.3224 20.9838 25.4235C21.0343 25.575 21.4385 26.055 21.8933 26.055H21.9438C22.1207 26.055 22.3228 26.1561 22.4743 26.2319C22.5501 26.2571 22.6007 26.2824 22.6259 26.3077C22.6259 26.3077 22.8028 26.5856 23.0301 26.7371C23.0807 26.7624 23.4343 26.9645 23.5101 27.015C23.3838 27.1666 23.1817 27.4445 23.2575 27.7982C23.3333 28.2782 23.9649 28.8087 24.1922 28.9603C24.2428 29.1119 24.2175 29.7435 24.1417 29.8698ZM29.1438 24.8424C29.0933 24.9687 29.0175 25.1708 28.9922 25.1961C28.8407 25.3224 28.6385 26.3582 28.6385 26.3582C28.6133 26.4845 28.8154 27.015 28.9922 27.2424C28.2849 28.455 27.1228 29.3393 25.7838 29.7435C25.7838 29.7435 25.8091 29.6929 25.8343 29.6677C25.8849 29.5919 26.188 29.314 26.2385 29.2887C26.3649 29.2129 26.8954 28.6824 26.9712 28.5308C27.0975 28.2782 27.2996 28.0256 27.3501 27.975C27.4764 27.874 27.527 27.495 27.2996 27.2677C27.1985 27.1414 26.9459 27.1666 26.8449 27.1919C26.7943 27.1666 26.6428 27.0908 26.5922 27.0403C26.5164 26.8382 26.188 26.535 26.0364 26.535C26.0112 26.535 25.8849 26.4845 25.8343 26.434C25.6575 26.2066 25.127 26.1056 24.9754 26.1056C24.8743 26.1056 24.7228 26.0803 24.6217 26.0298C24.4449 25.954 24.2175 26.0298 23.9649 26.1561C23.9396 26.1561 23.9143 26.1814 23.9143 26.1814C23.8638 26.1814 23.687 26.1561 23.5607 26.1056C23.5607 26.0803 23.5607 26.0298 23.5607 25.9793C23.5607 25.8782 23.5354 25.7771 23.5101 25.7014C23.4596 25.6256 23.3838 25.575 23.2322 25.5245L23.2575 25.474C23.2828 25.4235 23.2575 25.3477 23.2322 25.3224C23.207 25.2466 23.1312 25.1961 23.0554 25.1961C23.0301 25.1961 23.0049 25.1708 22.9796 25.1708C22.8533 25.1203 22.6764 25.0698 22.5249 25.1961C22.4996 25.2214 22.4743 25.2466 22.4491 25.2466C22.3985 25.2466 22.3228 25.1961 22.2217 25.1456C22.2217 25.095 22.247 24.994 22.3228 24.7666C22.348 24.7161 22.348 24.6908 22.3733 24.6656C22.4743 24.6403 22.7017 24.6403 22.9796 24.5898C23.0301 24.5898 23.1059 24.5645 23.1564 24.5645C23.207 24.5898 23.2828 24.6403 23.308 24.6656C23.3333 24.6908 23.3333 24.7161 23.3585 24.7414C23.3838 24.7919 23.4343 24.9435 23.6112 24.8929C23.8638 24.8424 23.8638 24.5645 23.8385 24.4382C23.8385 24.4129 23.8385 24.3877 23.8385 24.4129C23.8638 24.3624 23.9649 24.1856 24.0154 24.1603C24.1417 24.0845 24.3943 23.8066 24.3943 23.5793C24.4196 23.554 24.4954 23.5035 24.6217 23.4024C24.6722 23.3771 24.6975 23.3519 24.7228 23.3266C24.748 23.3014 24.748 23.3014 24.7733 23.3014C24.8491 23.2508 25.0259 23.175 25.0512 22.9729C25.1017 22.9729 25.1775 22.9477 25.3291 22.9224L25.4301 22.8971C25.5312 22.8719 25.6828 22.8466 25.7333 22.7203C25.8091 22.594 25.7585 22.4677 25.708 22.3666L25.6828 22.3161C25.6575 22.2656 25.6575 22.2656 25.708 22.215C25.7333 22.1898 25.8343 22.1898 25.8849 22.1898C25.9859 22.1645 26.1375 22.1645 26.2638 22.114C26.3901 22.0635 26.4659 21.9877 26.5164 21.8866C26.567 21.735 26.4659 21.6087 26.4154 21.5329L26.3901 21.5077C26.3143 21.3814 26.2133 21.2803 26.1375 21.2045C26.1375 21.1793 26.1122 21.1287 26.087 21.0024C26.0617 20.9266 26.0617 20.8761 26.0364 20.8256C26.0112 20.7498 25.9354 20.674 25.8596 20.6487C25.7838 20.6235 25.708 20.6235 25.6322 20.6487C25.607 20.5982 25.607 20.5729 25.5564 20.5224C25.5312 20.4971 25.5059 20.4719 25.4301 20.3961C25.3543 20.3456 25.3038 20.3203 25.2533 20.295C25.1775 20.2193 25.0764 20.194 25.0007 20.194C24.8491 20.2193 24.7733 20.3456 24.7228 20.4719C24.6975 20.4971 24.6975 20.5477 24.6722 20.5729C24.5459 20.7245 24.4701 20.8256 24.4701 20.9266C24.4701 20.9266 24.3691 21.0277 24.3438 21.0529C24.3438 21.0529 24.3438 21.0529 24.3185 21.0277C24.2428 20.9519 24.1417 20.9519 24.0659 20.9519C24.0154 20.9014 23.8891 20.8256 23.6617 20.7245C23.6617 20.6487 23.6617 20.5982 23.6617 20.5729C23.687 20.5477 23.7122 20.4971 23.7628 20.4214C23.8133 20.3456 23.9396 20.1687 23.9649 20.1435C24.0154 20.1182 24.0912 20.0929 24.1922 20.0424C24.3185 19.9666 24.5459 19.8656 24.647 19.8656C24.7228 19.8656 24.7733 19.815 24.7985 19.7898C24.8491 19.7393 24.8743 19.6382 24.8491 19.5371C24.8238 19.335 24.647 19.2845 24.5207 19.2593H24.4954C24.3943 19.1077 24.2428 19.1329 24.1922 19.1582C24.167 19.1582 24.1417 19.1835 24.1164 19.1835C24.0912 19.1835 23.6364 19.0319 23.6364 19.0319C23.4343 19.0066 23.2828 18.9814 23.1312 18.9561C24.2428 18.7287 25.3543 18.8298 26.3901 19.2593C26.3901 19.2845 26.4154 19.3098 26.4154 19.3603C26.4407 19.4108 26.4912 19.4866 26.5417 19.5624C26.6175 19.6887 26.7185 19.815 26.7185 19.9161C26.7185 20.1182 26.9207 20.2445 27.0722 20.3203C27.0975 20.3203 27.1228 20.3456 27.1228 20.3456C27.148 20.4214 27.1985 20.4719 27.2996 20.5477C27.4764 20.674 27.7291 20.775 27.9059 20.6487C27.9564 20.6235 28.0828 20.5729 28.3101 20.5982C28.4617 20.775 28.6133 20.9519 28.7396 21.1287C28.588 21.3056 28.4112 21.5077 28.4364 21.7098C28.4617 21.9371 28.6891 22.1898 28.9417 22.3161C29.1185 22.4171 29.1438 22.594 29.1438 22.594C29.1438 22.6445 29.1438 22.695 29.4217 22.8719C29.3964 22.9224 29.3712 22.9729 29.3459 22.9729C29.1438 23.0235 29.1438 23.4782 29.1438 23.4782C29.1438 23.655 29.3207 23.8571 29.4722 23.9835C29.5228 24.0087 29.6238 24.0845 29.7754 23.9835C29.7754 24.034 29.7754 24.0593 29.7754 24.1098C29.6238 24.1603 29.4722 24.2361 29.3964 24.2866C29.3207 24.4382 29.2701 24.5645 29.1438 24.8424Z" fill="#007F62"/>
<path d="M22.7775 14.6864H23.5354V16.6317C23.5354 16.758 23.6365 16.859 23.7628 16.859H24.6217C24.7481 16.859 24.8491 16.758 24.8491 16.6317V14.6864H25.607C25.7838 14.6864 25.8849 14.4843 25.7838 14.3327L24.3438 12.5138C24.2681 12.4127 24.0912 12.4127 23.9902 12.5138L22.6007 14.3327C22.4996 14.4843 22.6007 14.6864 22.7775 14.6864Z" fill="#007F62"/>
<path d="M16.3091 18.5519L16.8396 18.0213L18.2038 19.3855C18.3048 19.4866 18.4564 19.4866 18.5322 19.3855L19.1385 18.7792C19.2396 18.6782 19.2396 18.5266 19.1385 18.4508L17.7743 17.0866L18.3048 16.5561C18.4312 16.4298 18.3554 16.2024 18.1785 16.1771L15.8796 15.8992C15.728 15.874 15.627 16.0003 15.627 16.1519L15.9048 18.4508C15.9554 18.6024 16.1827 18.6782 16.3091 18.5519Z" fill="#007F62"/>
<path d="M16.4105 25.1201C16.5368 25.1201 16.6378 25.0191 16.6378 24.8927V24.0338C16.6378 23.9075 16.5368 23.8064 16.4105 23.8064H14.4652V23.0485C14.4652 22.8717 14.2631 22.7706 14.1115 22.8717L12.2926 24.3117C12.1915 24.3875 12.1915 24.5643 12.2926 24.6654L14.1115 26.1054C14.2631 26.2317 14.4652 26.1054 14.4652 25.9285V25.1706H16.4105V25.1201Z" fill="#007F62"/>
<path d="M18.5571 29.4908C18.456 29.3898 18.3044 29.3898 18.2286 29.4908L16.8644 30.855L16.3339 30.3245C16.2076 30.1982 15.9802 30.274 15.955 30.4508L15.6771 32.7498C15.6518 32.9014 15.7781 33.0024 15.9297 33.0024L18.2286 32.7245C18.4055 32.6993 18.4813 32.4719 18.355 32.3456L17.8244 31.815L19.1886 30.4508C19.2897 30.3498 19.2897 30.1982 19.1886 30.1224L18.5571 29.4908Z" fill="#007F62"/>
<path d="M25.6558 34.1897H24.8979V32.2445C24.8979 32.1181 24.7969 32.0171 24.6706 32.0171H23.8116C23.6853 32.0171 23.5843 32.1181 23.5843 32.2445V34.1897H22.8264C22.6495 34.1897 22.5485 34.3918 22.6495 34.5434L24.0895 36.3624C24.1653 36.4634 24.3422 36.4634 24.4432 36.3624L25.8832 34.5434C25.9337 34.3918 25.8327 34.1897 25.6558 34.1897Z" fill="#007F62"/>
<path d="M32.1239 30.3245L31.5934 30.855L30.2291 29.4908C30.1281 29.3898 29.9765 29.3898 29.9007 29.4908L29.2691 30.0971C29.1681 30.1982 29.1681 30.3498 29.2691 30.4256L30.6334 31.7898L30.1028 32.3203C29.9765 32.4466 30.0523 32.674 30.2291 32.6992L32.5281 32.9771C32.6797 33.0024 32.7807 32.8761 32.7807 32.7245L32.5028 30.4256C32.4776 30.274 32.2502 30.1982 32.1239 30.3245Z" fill="#007F62"/>
<path d="M36.1402 24.2611L34.3212 22.8211C34.1697 22.6948 33.9676 22.8211 33.9676 22.998V23.7559H32.0223C31.896 23.7559 31.7949 23.8569 31.7949 23.9833V24.8422C31.7949 24.9685 31.896 25.0696 32.0223 25.0696H33.9676V25.8275C33.9676 26.0043 34.1697 26.1054 34.3212 26.0043L36.1402 24.5643C36.2412 24.5138 36.2412 24.3622 36.1402 24.2611Z" fill="#007F62"/>
<path d="M29.8755 19.3856C29.9765 19.4867 30.1281 19.4867 30.2039 19.3856L31.5681 18.0214L32.0986 18.5519C32.2249 18.6782 32.4523 18.6024 32.4776 18.4256L32.7555 16.1267C32.7807 15.9751 32.6544 15.874 32.5028 15.874L30.2039 16.1519C30.027 16.1772 29.9513 16.4045 30.0776 16.5309L30.6081 17.0614L29.2691 18.4256C29.1681 18.5267 29.1681 18.6782 29.2691 18.754L29.8755 19.3856Z" fill="#007F62"/>
</svg>
