<svg width="237" height="457" viewBox="0 0 237 457" fill="none" xmlns="http://www.w3.org/2000/svg">
<g opacity="0.2">
<path d="M162.666 62.7904C51.8237 154.717 111.692 232.529 154.856 262.26C84.3847 253.811 49.2251 195.631 74.6425 137.616C94.9765 91.2029 140.559 67.4771 162.666 62.7904Z" fill="#ABBAD0"/>
<path d="M272.901 65.5639C102.011 95.3185 186.99 224.448 222.862 246.975C155.074 243.816 115.229 181.376 135.649 121.418C161.224 46.3256 248.447 60.4303 272.901 65.5639Z" fill="#ABBAD0"/>
<path d="M250.476 286.032C290.683 237.99 350.074 221.823 367.731 236.785C418.862 280.115 324.078 407.527 191.828 384.331C90.1422 366.496 61.4524 265.953 64.4417 219.485C64.4575 219.175 64.4788 218.867 64.5059 218.561C64.4831 218.867 64.4617 219.175 64.4417 219.485C62.0373 266.82 190.806 357.33 250.476 286.032Z" fill="#ABBAD0"/>
<path d="M250.201 130.266C281.417 92.5434 328.181 104.319 349.341 115.376C283.815 57.8174 203.725 93.7154 198.687 155.646C194.873 202.538 252.68 233.517 280.736 236.882C247.418 228.439 211.182 177.419 250.201 130.266Z" fill="#ABBAD0"/>
</g>
</svg>
