<svg width="288" height="457" viewBox="0 0 288 457" fill="none" xmlns="http://www.w3.org/2000/svg">
<g opacity="0.2">
<path d="M334.634 125.394C378.346 130.637 390.096 190.181 390.477 219.55C365.919 214.163 350.675 217.829 346.123 220.335C285.202 239.878 268.918 199.891 268.392 177.454C270.125 140.953 289.838 120.022 334.634 125.394Z" fill="#ABBAD0"/>
<path d="M162.15 63.1034C51.3081 155.03 111.177 232.842 154.34 262.573C83.8691 254.124 48.7094 195.944 74.1269 137.929C94.4609 91.5159 140.043 67.7901 162.15 63.1034Z" fill="#ABBAD0"/>
<path d="M272.386 65.8769C101.495 95.6315 186.475 224.761 222.346 247.288C154.558 244.129 114.714 181.689 135.134 121.731C160.708 46.6386 247.931 60.7433 272.386 65.8769Z" fill="#ABBAD0"/>
<path d="M249.96 286.345C290.167 238.303 349.559 222.136 367.216 237.098C418.346 280.428 323.562 407.84 191.313 384.644C89.6266 366.809 60.9368 266.266 63.9261 219.798C63.9418 219.488 63.9632 219.18 63.9902 218.874C63.9675 219.18 63.9461 219.488 63.9261 219.798C61.5216 267.133 190.29 357.643 249.96 286.345Z" fill="#ABBAD0"/>
<path d="M249.686 130.579C280.901 92.8564 327.665 104.632 348.825 115.689C283.299 58.1304 203.21 94.0284 198.172 155.959C194.357 202.851 252.164 233.83 280.221 237.194C246.903 228.752 210.667 177.732 249.686 130.579Z" fill="#ABBAD0"/>
</g>
</svg>
