<svg width="545" height="875" viewBox="0 0 545 875" fill="none" xmlns="http://www.w3.org/2000/svg">
<g opacity="0.2" clip-path="url(#clip0_970_4323)">
<path d="M331.93 440.307C373.375 492.744 322.282 569.422 291.254 601.446C270.583 569.359 250.249 556.986 242.666 554.811C156.162 510.635 181.439 450.157 204.89 425.439C245.829 388 289.457 386.57 331.93 440.307Z" fill="#ABBAD0"/>
<path d="M212.928 188.609C-4.80085 168.915 -23.6472 316.77 -9.00752 394.982C-75.8264 310.448 -51.3968 210.179 38.0704 174.933C109.644 146.736 184.112 169.989 212.928 188.609Z" fill="#ABBAD0"/>
<path d="M328.628 309.599C112.809 158.695 66.0609 388.675 80.5636 451.325C10.9692 375.36 34.9167 265.488 121.082 222.802C228.999 169.34 307.798 277.894 328.628 309.599Z" fill="#ABBAD0"/>
<path d="M68.4826 522.933C163.195 514.255 244.438 560.427 247.429 595.437C256.089 696.816 17.6589 732.514 -99.8798 565.973C-190.255 437.92 -113.51 298.971 -60.5492 252.147C-60.2007 251.83 -59.848 251.522 -59.4913 251.221C-59.8428 251.526 -60.1955 251.834 -60.5492 252.147C-113.808 300.53 -72.076 535.811 68.4826 522.933Z" fill="#ABBAD0"/>
<path d="M234.929 354.95C308.914 347.756 346.651 410.493 357.594 445.048C348.67 312.94 224.023 265.851 152.304 327.128C98.0012 373.525 127.069 468.756 153.671 502.411C126.841 457.656 142.448 363.942 234.929 354.95Z" fill="#ABBAD0"/>
</g>
<defs>
<clipPath id="clip0_970_4323">
<rect width="622.433" height="622.433" fill="white" transform="translate(158.074 0.175293) rotate(51.6762)"/>
</clipPath>
</defs>
</svg>
