<svg width="545" height="310" viewBox="0 0 545 310" fill="none" xmlns="http://www.w3.org/2000/svg">
<g opacity="0.2" clip-path="url(#clip0_1158_5289)">
<path d="M212.928 189.25C-4.80085 169.557 -23.6472 317.411 -9.00752 395.623C-75.8264 311.089 -51.3968 210.82 38.0704 175.574C109.644 147.377 184.112 170.63 212.928 189.25Z" fill="#ABBAD0"/>
<path d="M328.628 310.24C112.809 159.337 66.0609 389.317 80.5636 451.967C10.9692 376.001 34.9167 266.13 121.082 223.443C228.999 169.981 307.798 278.536 328.628 310.24Z" fill="#ABBAD0"/>
<path d="M68.4826 523.574C163.195 514.896 244.438 561.069 247.429 596.078C256.089 697.458 17.6589 733.156 -99.8798 566.614C-190.255 438.561 -113.51 299.612 -60.5492 252.789C-60.2007 252.472 -59.848 252.163 -59.4913 251.863C-59.8428 252.167 -60.1955 252.476 -60.5492 252.789C-113.808 301.171 -72.076 536.452 68.4826 523.574Z" fill="#ABBAD0"/>
<path d="M234.929 355.592C308.914 348.398 346.651 411.135 357.594 445.689C348.67 313.582 224.023 266.493 152.304 327.77C98.0012 374.166 127.069 469.398 153.671 503.053C126.841 458.298 142.448 364.584 234.929 355.592Z" fill="#ABBAD0"/>
</g>
<defs>
<clipPath id="clip0_1158_5289">
<rect width="622.433" height="622.433" fill="white" transform="translate(158.074 0.816406) rotate(51.6762)"/>
</clipPath>
</defs>
</svg>
