<svg width="634" height="631" viewBox="0 0 634 631" fill="none" xmlns="http://www.w3.org/2000/svg">
<g opacity="0.2" clip-path="url(#clip0_970_4317)">
<path d="M421.082 196.262C462.528 248.698 411.434 325.376 380.407 357.401C359.736 325.313 339.402 312.941 331.818 310.765C245.315 266.589 270.591 206.111 294.042 181.394C334.981 143.955 378.609 142.525 421.082 196.262Z" fill="#ABBAD0"/>
<path d="M302.08 -55.4359C84.3515 -75.1294 65.5051 72.7254 80.1448 150.937C13.326 66.4033 37.7556 -33.8656 127.223 -69.112C198.797 -97.3091 273.265 -74.0558 302.08 -55.4359Z" fill="#ABBAD0"/>
<path d="M417.781 65.5541C201.962 -85.3492 155.213 144.631 169.716 207.281C100.122 131.315 124.069 21.4438 210.235 -21.2428C318.152 -74.7049 396.95 33.8497 417.781 65.5541Z" fill="#ABBAD0"/>
<path d="M157.635 278.888C252.348 270.21 333.59 316.383 336.581 351.392C345.241 452.772 106.811 488.47 -10.7274 321.928C-101.102 193.875 -24.3577 54.9261 28.6031 8.10264C28.9517 7.78598 29.3043 7.47732 29.6611 7.17679C29.3095 7.48128 28.9568 7.78991 28.6031 8.10264C-24.6561 56.4854 17.0764 291.766 157.635 278.888Z" fill="#ABBAD0"/>
<path d="M324.082 110.906C398.067 103.712 435.804 166.449 446.746 201.003C437.822 68.8961 313.175 21.8067 241.457 83.0835C187.154 129.48 216.221 224.712 242.823 258.367C215.993 213.612 231.6 119.898 324.082 110.906Z" fill="#ABBAD0"/>
</g>
<defs>
<clipPath id="clip0_970_4317">
<rect width="622.433" height="622.433" fill="white" transform="translate(247.227 -243.87) rotate(51.6762)"/>
</clipPath>
</defs>
</svg>
