<svg width="1440" height="538" viewBox="0 0 1440 538" fill="none" xmlns="http://www.w3.org/2000/svg">
<g clip-path="url(#clip0_2437_3289)">
<rect width="1440" height="538" fill="#EFF7F1"/>
<g opacity="0.12" clip-path="url(#clip1_2437_3289)">
<path d="M1519.05 529.802C1554.29 574.394 1510.84 639.6 1484.46 666.833C1466.88 639.546 1449.59 629.025 1443.14 627.175C1369.58 589.608 1391.07 538.178 1411.01 517.159C1445.83 485.321 1482.93 484.105 1519.05 529.802Z" fill="#86C197"/>
<path d="M1417.85 315.762C1232.7 299.014 1216.67 424.748 1229.12 491.259C1172.3 419.372 1193.07 334.105 1269.15 304.132C1330.02 280.153 1393.35 299.928 1417.85 315.762Z" fill="#86C197"/>
<path d="M1516.24 418.65C1332.71 290.324 1292.96 485.896 1305.29 539.173C1246.11 474.573 1266.47 381.139 1339.75 344.839C1431.52 299.376 1498.53 391.689 1516.24 418.65Z" fill="#86C197"/>
<path d="M1295.02 600.067C1375.56 592.688 1444.65 631.952 1447.19 661.724C1454.55 747.935 1251.8 778.292 1151.84 636.668C1074.99 527.773 1140.25 409.612 1185.29 369.794C1185.59 369.525 1185.89 369.262 1186.19 369.007C1185.89 369.266 1185.59 369.528 1185.29 369.794C1140 410.938 1175.49 611.018 1295.02 600.067Z" fill="#86C197"/>
<path d="M1436.56 457.217C1499.48 451.099 1531.57 504.45 1540.87 533.835C1533.28 421.492 1427.29 381.448 1366.3 433.557C1320.12 473.012 1344.84 553.996 1367.46 582.616C1344.64 544.557 1357.92 464.864 1436.56 457.217Z" fill="#86C197"/>
</g>
</g>
<defs>
<clipPath id="clip0_2437_3289">
<rect width="1440" height="538" fill="white"/>
</clipPath>
<clipPath id="clip1_2437_3289">
<rect width="529.31" height="529.31" fill="white" transform="translate(1371.2 155.52) rotate(51.6762)"/>
</clipPath>
</defs>
</svg>
