<svg width="49" height="49" viewBox="0 0 49 49" fill="none" xmlns="http://www.w3.org/2000/svg">
<rect x="0.216797" y="0.437988" width="48" height="48" rx="8" fill="#EFF7F4"/>
<path d="M15.9052 29.0689L15.9052 29.0689L12.8477 32.1264L12.8476 32.1265C12.4121 32.5633 12.1668 33.1547 12.1668 33.7718C12.1668 34.3875 12.4121 34.9802 12.8477 35.4158L13.2389 35.8071C13.6746 36.2427 14.2673 36.488 14.883 36.488C15.5 36.488 16.0915 36.2427 16.5283 35.8072L16.5284 35.8071L19.5859 32.7496L19.5859 32.7496C20.0215 32.3127 20.2667 31.7213 20.2667 31.1043C20.2667 30.638 20.1248 30.1876 19.8678 29.8066L21.9306 27.7584C23.4494 29.043 25.4095 29.8218 27.5503 29.8218C32.3568 29.8218 36.2665 25.9108 36.2665 21.1043C36.2665 16.2978 32.357 12.388 27.5505 12.388C22.744 12.388 18.833 16.2977 18.833 21.1042C18.833 23.255 19.6179 25.2261 20.9148 26.7478L18.8547 28.7896C18.4723 28.5313 18.0181 28.3881 17.5505 28.3881C16.9335 28.3881 16.3421 28.6333 15.9052 29.0689ZM27.5505 13.8217C31.5805 13.8217 34.8329 17.0742 34.8329 21.1042C34.8329 25.1354 31.5805 28.3879 27.5505 28.3879C23.5192 28.3879 20.2668 25.1354 20.2668 21.1042C20.2668 17.0742 23.5192 13.8217 27.5505 13.8217Z" fill="#007F62" stroke="#007F62" stroke-width="0.1"/>
<path d="M30.2172 17.054C29.8207 17.054 29.5009 17.3753 29.5009 17.7715V22.3877H28.2672V19.104C28.2672 18.7089 27.9461 18.3877 27.551 18.3877C27.1547 18.3877 26.8335 18.7088 26.8335 19.104V22.3877H25.601V20.4377C25.601 20.0412 25.2797 19.7215 24.8835 19.7215C24.4884 19.7215 24.1672 20.0413 24.1672 20.4377V22.3877H23.551C23.1546 22.3877 22.8348 22.7089 22.8348 23.1039C22.8348 23.5004 23.156 23.8202 23.551 23.8202H31.551C31.9474 23.8202 32.2672 23.499 32.2672 23.1039C32.2672 22.7075 31.946 22.3877 31.551 22.3877H30.9335V17.7715C30.9335 17.3753 30.6137 17.054 30.2172 17.054Z" fill="#007F62" stroke="#007F62" stroke-width="0.1"/>
</svg>
