<svg width="53" height="53" viewBox="0 0 53 53" fill="none" xmlns="http://www.w3.org/2000/svg">
<circle cx="26.8125" cy="26.5225" r="25.5" stroke="black"/>
<path d="M26.8155 16.1221C21.0704 16.1221 16.4121 20.7787 16.4121 26.5221C16.4121 32.2655 21.0704 36.9221 26.8155 36.9221C35.4908 36.9221 37.4453 28.8681 36.6315 24.7887H35.4788H33.5135H26.8121V28.2554H33.5186C32.7477 31.2439 30.0413 33.4554 26.8121 33.4554C22.9832 33.4554 19.8788 30.351 19.8788 26.5221C19.8788 22.6931 22.9832 19.5887 26.8121 19.5887C28.5532 19.5887 30.1394 20.2351 31.357 21.295L33.8199 18.8338C31.9705 17.149 29.5134 16.1221 26.8155 16.1221Z" fill="black"/>
</svg>
