<svg width="1441" height="1267" viewBox="0 0 1441 1267" fill="none" xmlns="http://www.w3.org/2000/svg">
<g clip-path="url(#clip0_971_5163)">
<rect width="1440" height="1267" transform="translate(0.748047)" fill="url(#paint0_linear_971_5163)"/>
<g opacity="0.2" clip-path="url(#clip1_971_5163)">
<path d="M537.586 444.547C598.092 509.603 538.574 616.648 500.879 662.387C470.068 622.078 441.807 607.853 431.528 605.78C312.203 556.474 339.242 473.648 367.678 438.397C417.927 384.425 475.58 377.878 537.586 444.547Z" fill="#C6DBCC"/>
<path d="M353.068 123.75C62.4865 120.878 53.2848 318.789 81.0232 420.855C-16.5245 315.978 5.14986 180.521 119.931 124.279C211.756 79.2854 312.903 102.153 353.068 123.75Z" fill="#C6DBCC"/>
<path d="M519.272 271.717C217.227 94.7947 179.815 404.493 205.712 485.955C105.401 392.727 125.412 244.598 235.025 178.851C372.308 96.5061 488.291 231.932 519.272 271.717Z" fill="#C6DBCC"/>
<path d="M197.34 582.121C321.905 560.522 434.472 613.034 442.169 659.101C464.456 792.501 152.353 865.228 -21.142 657.103C-154.542 497.078 -67.6776 304.791 -2.50074 237.104C-2.07266 236.647 -1.63833 236.2 -1.19775 235.764C-1.63106 236.205 -2.06542 236.652 -2.50074 237.104C-67.9068 306.889 12.48 614.175 197.34 582.121Z" fill="#C6DBCC"/>
<path d="M399.959 341.801C497.219 324.378 553.909 403.477 572.093 448.093C546.18 274.009 376.006 224.911 287.517 313.749C220.517 381.014 269.187 504.092 308.022 545.846C267.7 489.41 278.385 363.578 399.959 341.801Z" fill="#C6DBCC"/>
</g>
</g>
<defs>
<linearGradient id="paint0_linear_971_5163" x1="720" y1="0" x2="720" y2="1559.57" gradientUnits="userSpaceOnUse">
<stop offset="0.435" stop-color="#EFF7F1"/>
<stop offset="1" stop-color="#EFF7F1" stop-opacity="0"/>
</linearGradient>
<clipPath id="clip0_971_5163">
<rect width="1440" height="1267" fill="white" transform="translate(0.748047)"/>
</clipPath>
<clipPath id="clip1_971_5163">
<rect width="811.427" height="811.427" fill="white" transform="translate(260.295 -120.065) rotate(47.0741)"/>
</clipPath>
</defs>
</svg>
