<svg width="724" height="638" viewBox="0 0 724 638" fill="none" xmlns="http://www.w3.org/2000/svg">
<path d="M643.908 400.567C652.764 401.355 660.037 407.896 661.757 416.619L671.761 467.359L683.317 517.768C685.304 526.434 681.331 535.372 673.566 539.703L628.401 564.897L584.03 591.465C576.402 596.032 566.674 595.016 560.155 588.969L522.238 553.8L483.259 519.811C476.558 513.968 474.519 504.402 478.255 496.334L499.985 449.404L520.265 401.83C523.752 393.651 532.22 388.755 541.048 389.815L592.395 395.98L643.908 400.567Z" fill="#76664F" fill-opacity="0.1"/>
<path d="M92.1647 282.005C99.2769 276.669 109.058 276.669 116.17 282.005L157.538 313.041L199.839 342.794C207.112 347.909 210.134 357.211 207.257 365.624L190.523 414.559L175.298 463.983C172.681 472.481 164.768 478.23 155.878 478.093L104.167 477.3L52.4568 478.093C43.5666 478.23 35.6538 472.481 33.0363 463.983L17.8113 414.559L1.07746 365.624C-1.79946 357.211 1.22296 347.909 8.49541 342.794L50.7964 313.041L92.1647 282.005Z" fill="#4F7661" fill-opacity="0.1"/>
<rect x="374" y="44" width="102" height="105" rx="4" fill="#D7F5E2"/>
<rect x="484" y="44" width="102" height="105" rx="4" fill="#D7F5E2"/>
<rect x="594" y="44" width="102" height="105" rx="4" fill="#D7F5E2"/>
<rect x="374" y="157" width="102" height="105" rx="4" fill="#D7F5E2"/>
<rect x="484" y="157" width="102" height="105" rx="4" fill="#D7F5E2"/>
<rect x="594" y="157" width="102" height="105" rx="4" fill="#D7F5E2"/>
<rect x="366.5" y="36.5" width="337" height="233" rx="7.5" stroke="#007F62"/>
<rect x="386" y="82" width="78" height="12" rx="6" fill="#007F62"/>
<rect x="386" y="195" width="78" height="12" rx="6" fill="#007F62"/>
<rect x="496" y="82" width="78" height="12" rx="6" fill="#007F62"/>
<rect x="496" y="195" width="78" height="12" rx="6" fill="#007F62"/>
<rect x="606" y="82" width="78" height="12" rx="6" fill="#007F62"/>
<rect x="606" y="195" width="78" height="12" rx="6" fill="#007F62"/>
<rect x="386" y="99" width="54" height="12" rx="6" fill="#007F62"/>
<rect x="386" y="212" width="54" height="12" rx="6" fill="#007F62"/>
<rect x="496" y="99" width="54" height="12" rx="6" fill="#007F62"/>
<rect x="496" y="212" width="54" height="12" rx="6" fill="#007F62"/>
<rect x="606" y="99" width="54" height="12" rx="6" fill="#007F62"/>
<rect x="606" y="212" width="54" height="12" rx="6" fill="#007F62"/>
<rect x="366" width="89" height="24" rx="4" fill="#007F62"/>
<path d="M377.26 16V7.6H381.028C381.996 7.6 382.74 7.796 383.26 8.188C383.78 8.572 384.04 9.1 384.04 9.772C384.04 10.228 383.936 10.612 383.728 10.924C383.528 11.236 383.256 11.476 382.912 11.644C382.568 11.812 382.196 11.896 381.796 11.896L382.012 11.536C382.492 11.536 382.916 11.62 383.284 11.788C383.652 11.956 383.944 12.204 384.16 12.532C384.376 12.852 384.484 13.252 384.484 13.732C384.484 14.452 384.212 15.012 383.668 15.412C383.132 15.804 382.332 16 381.268 16H377.26ZM378.46 15.028H381.22C381.884 15.028 382.392 14.916 382.744 14.692C383.096 14.468 383.272 14.116 383.272 13.636C383.272 13.148 383.096 12.792 382.744 12.568C382.392 12.344 381.884 12.232 381.22 12.232H378.352V11.26H380.92C381.528 11.26 382 11.148 382.336 10.924C382.672 10.7 382.84 10.364 382.84 9.916C382.84 9.468 382.672 9.132 382.336 8.908C382 8.684 381.528 8.572 380.92 8.572H378.46V15.028ZM386.174 16V9.64H387.278V11.368L387.17 10.936C387.346 10.496 387.642 10.16 388.058 9.928C388.474 9.696 388.986 9.58 389.594 9.58V10.696C389.546 10.688 389.498 10.684 389.45 10.684C389.41 10.684 389.37 10.684 389.33 10.684C388.714 10.684 388.226 10.868 387.866 11.236C387.506 11.604 387.326 12.136 387.326 12.832V16H386.174ZM394.493 16V14.656L394.433 14.404V12.112C394.433 11.624 394.289 11.248 394.001 10.984C393.721 10.712 393.297 10.576 392.729 10.576C392.353 10.576 391.985 10.64 391.625 10.768C391.265 10.888 390.961 11.052 390.713 11.26L390.233 10.396C390.561 10.132 390.953 9.932 391.409 9.796C391.873 9.652 392.357 9.58 392.861 9.58C393.733 9.58 394.405 9.792 394.877 10.216C395.349 10.64 395.585 11.288 395.585 12.16V16H394.493ZM392.405 16.072C391.933 16.072 391.517 15.992 391.157 15.832C390.805 15.672 390.533 15.452 390.341 15.172C390.149 14.884 390.053 14.56 390.053 14.2C390.053 13.856 390.133 13.544 390.293 13.264C390.461 12.984 390.729 12.76 391.097 12.592C391.473 12.424 391.977 12.34 392.609 12.34H394.625V13.168H392.657C392.081 13.168 391.693 13.264 391.493 13.456C391.293 13.648 391.193 13.88 391.193 14.152C391.193 14.464 391.317 14.716 391.565 14.908C391.813 15.092 392.157 15.184 392.597 15.184C393.029 15.184 393.405 15.088 393.725 14.896C394.053 14.704 394.289 14.424 394.433 14.056L394.661 14.848C394.509 15.224 394.241 15.524 393.857 15.748C393.473 15.964 392.989 16.072 392.405 16.072ZM397.717 16V9.64H398.869V16H397.717ZM398.293 8.416C398.069 8.416 397.881 8.344 397.729 8.2C397.585 8.056 397.513 7.88 397.513 7.672C397.513 7.456 397.585 7.276 397.729 7.132C397.881 6.988 398.069 6.916 398.293 6.916C398.517 6.916 398.701 6.988 398.845 7.132C398.997 7.268 399.073 7.44 399.073 7.648C399.073 7.864 399.001 8.048 398.857 8.2C398.713 8.344 398.525 8.416 398.293 8.416ZM404.465 9.58C404.985 9.58 405.441 9.68 405.833 9.88C406.233 10.08 406.545 10.384 406.769 10.792C406.993 11.2 407.105 11.716 407.105 12.34V16H405.953V12.472C405.953 11.856 405.801 11.392 405.497 11.08C405.201 10.768 404.781 10.612 404.237 10.612C403.829 10.612 403.473 10.692 403.169 10.852C402.865 11.012 402.629 11.248 402.461 11.56C402.301 11.872 402.221 12.26 402.221 12.724V16H401.069V9.64H402.173V11.356L401.993 10.9C402.201 10.484 402.521 10.16 402.953 9.928C403.385 9.696 403.889 9.58 404.465 9.58ZM411.061 16.072C410.533 16.072 410.029 16 409.549 15.856C409.077 15.712 408.705 15.536 408.433 15.328L408.913 14.416C409.185 14.6 409.521 14.756 409.921 14.884C410.321 15.012 410.729 15.076 411.145 15.076C411.681 15.076 412.065 15 412.297 14.848C412.537 14.696 412.657 14.484 412.657 14.212C412.657 14.012 412.585 13.856 412.441 13.744C412.297 13.632 412.105 13.548 411.865 13.492C411.633 13.436 411.373 13.388 411.085 13.348C410.797 13.3 410.509 13.244 410.221 13.18C409.933 13.108 409.669 13.012 409.429 12.892C409.189 12.764 408.997 12.592 408.853 12.376C408.709 12.152 408.637 11.856 408.637 11.488C408.637 11.104 408.745 10.768 408.961 10.48C409.177 10.192 409.481 9.972 409.873 9.82C410.273 9.66 410.745 9.58 411.289 9.58C411.705 9.58 412.125 9.632 412.549 9.736C412.981 9.832 413.333 9.972 413.605 10.156L413.113 11.068C412.825 10.876 412.525 10.744 412.213 10.672C411.901 10.6 411.589 10.564 411.277 10.564C410.773 10.564 410.397 10.648 410.149 10.816C409.901 10.976 409.777 11.184 409.777 11.44C409.777 11.656 409.849 11.824 409.993 11.944C410.145 12.056 410.337 12.144 410.569 12.208C410.809 12.272 411.073 12.328 411.361 12.376C411.649 12.416 411.937 12.472 412.225 12.544C412.513 12.608 412.773 12.7 413.005 12.82C413.245 12.94 413.437 13.108 413.581 13.324C413.733 13.54 413.809 13.828 413.809 14.188C413.809 14.572 413.697 14.904 413.473 15.184C413.249 15.464 412.933 15.684 412.525 15.844C412.117 15.996 411.629 16.072 411.061 16.072ZM417.432 16.072C416.792 16.072 416.296 15.9 415.944 15.556C415.592 15.212 415.416 14.72 415.416 14.08V8.248H416.568V14.032C416.568 14.376 416.652 14.64 416.82 14.824C416.996 15.008 417.244 15.1 417.564 15.1C417.924 15.1 418.224 15 418.464 14.8L418.824 15.628C418.648 15.78 418.436 15.892 418.188 15.964C417.948 16.036 417.696 16.072 417.432 16.072ZM414.336 10.588V9.64H418.392V10.588H414.336ZM422.73 16.072C422.09 16.072 421.522 15.932 421.026 15.652C420.53 15.372 420.138 14.988 419.85 14.5C419.562 14.004 419.418 13.444 419.418 12.82C419.418 12.188 419.562 11.628 419.85 11.14C420.138 10.652 420.53 10.272 421.026 10C421.522 9.72 422.09 9.58 422.73 9.58C423.362 9.58 423.926 9.72 424.422 10C424.926 10.272 425.318 10.652 425.598 11.14C425.886 11.62 426.03 12.18 426.03 12.82C426.03 13.452 425.886 14.012 425.598 14.5C425.318 14.988 424.926 15.372 424.422 15.652C423.926 15.932 423.362 16.072 422.73 16.072ZM422.73 15.064C423.138 15.064 423.502 14.972 423.822 14.788C424.15 14.604 424.406 14.344 424.59 14.008C424.774 13.664 424.866 13.268 424.866 12.82C424.866 12.364 424.774 11.972 424.59 11.644C424.406 11.308 424.15 11.048 423.822 10.864C423.502 10.68 423.138 10.588 422.73 10.588C422.322 10.588 421.958 10.68 421.638 10.864C421.318 11.048 421.062 11.308 420.87 11.644C420.678 11.972 420.582 12.364 420.582 12.82C420.582 13.268 420.678 13.664 420.87 14.008C421.062 14.344 421.318 14.604 421.638 14.788C421.958 14.972 422.322 15.064 422.73 15.064ZM427.623 16V9.64H428.727V11.368L428.619 10.936C428.795 10.496 429.091 10.16 429.507 9.928C429.923 9.696 430.435 9.58 431.043 9.58V10.696C430.995 10.688 430.947 10.684 430.899 10.684C430.859 10.684 430.819 10.684 430.779 10.684C430.163 10.684 429.675 10.868 429.315 11.236C428.955 11.604 428.775 12.136 428.775 12.832V16H427.623ZM440.419 9.58C440.931 9.58 441.383 9.68 441.775 9.88C442.167 10.08 442.471 10.384 442.687 10.792C442.911 11.2 443.023 11.716 443.023 12.34V16H441.871V12.472C441.871 11.856 441.727 11.392 441.439 11.08C441.151 10.768 440.747 10.612 440.227 10.612C439.843 10.612 439.507 10.692 439.219 10.852C438.931 11.012 438.707 11.248 438.547 11.56C438.395 11.872 438.319 12.26 438.319 12.724V16H437.167V12.472C437.167 11.856 437.023 11.392 436.735 11.08C436.455 10.768 436.051 10.612 435.523 10.612C435.147 10.612 434.815 10.692 434.527 10.852C434.239 11.012 434.015 11.248 433.855 11.56C433.695 11.872 433.615 12.26 433.615 12.724V16H432.463V9.64H433.567V11.332L433.387 10.9C433.587 10.484 433.895 10.16 434.311 9.928C434.727 9.696 435.211 9.58 435.763 9.58C436.371 9.58 436.895 9.732 437.335 10.036C437.775 10.332 438.063 10.784 438.199 11.392L437.731 11.2C437.923 10.712 438.259 10.32 438.739 10.024C439.219 9.728 439.779 9.58 440.419 9.58Z" fill="white"/>
<path d="M539.522 246.117C539.212 245.206 540.004 244.301 540.948 244.487L562.744 248.798C563.543 248.956 563.781 249.983 563.133 250.476C557.247 254.962 552.312 260.573 548.614 266.983L548.46 267.25C548.034 267.988 546.937 267.881 546.662 267.074L539.522 246.117Z" fill="#D6572D" stroke="white" stroke-width="1.5"/>
<circle cx="571.791" cy="273.226" r="18.75" fill="#D6572D" stroke="white" stroke-width="1.5"/>
<path d="M568.185 278.866C567.419 278.866 566.715 278.744 566.071 278.502C565.436 278.25 564.881 277.9 564.405 277.452C563.929 276.994 563.56 276.458 563.299 275.842C563.037 275.226 562.907 274.554 562.907 273.826C562.907 273.098 563.037 272.426 563.299 271.81C563.56 271.194 563.929 270.662 564.405 270.214C564.89 269.756 565.455 269.406 566.099 269.164C566.743 268.912 567.447 268.786 568.213 268.786C569.043 268.786 569.79 268.921 570.453 269.192C571.125 269.462 571.689 269.859 572.147 270.382L570.999 271.502C570.616 271.119 570.201 270.839 569.753 270.662C569.314 270.475 568.829 270.382 568.297 270.382C567.783 270.382 567.307 270.466 566.869 270.634C566.43 270.802 566.052 271.04 565.735 271.348C565.417 271.656 565.17 272.02 564.993 272.44C564.825 272.86 564.741 273.322 564.741 273.826C564.741 274.32 564.825 274.778 564.993 275.198C565.17 275.618 565.417 275.986 565.735 276.304C566.052 276.612 566.425 276.85 566.855 277.018C567.284 277.186 567.76 277.27 568.283 277.27C568.768 277.27 569.235 277.195 569.683 277.046C570.14 276.887 570.574 276.626 570.985 276.262L572.021 277.62C571.507 278.03 570.91 278.343 570.229 278.558C569.557 278.763 568.875 278.866 568.185 278.866ZM570.299 277.382V273.714H572.021V277.62L570.299 277.382ZM576.409 278.726V270.466H573.161V268.926H581.477V270.466H578.229V278.726H576.409Z" fill="white"/>
<rect x="492.5" y="467.5" width="227" height="163" rx="7.5" fill="white" stroke="#007F62"/>
<rect x="500" y="475" width="212" height="148" rx="4" fill="#F5E5D7"/>
<path d="M500 479C500 476.791 501.791 475 504 475H708C710.209 475 712 476.791 712 479V495H500V479Z" fill="#D6572D"/>
<circle cx="606" cy="543" r="20" fill="#D6572D"/>
<rect x="508" y="572" width="196" height="40" rx="4" fill="white" fill-opacity="0.4"/>
<rect x="508.5" y="572.5" width="195" height="39" rx="3.5" stroke="#D6572D" stroke-opacity="0.5"/>
<rect x="520" y="586" width="116" height="12" rx="4" fill="#D6572D"/>
<circle cx="680" cy="592" r="12" fill="#FDE0C6"/>
<g clip-path="url(#clip0_567_2606)">
<path d="M686 592L676 587L677.465 592L676 597L686 592ZM676.94 588.125L684.104 591.707H677.99L676.94 588.125ZM677.99 592.293H684.104L676.94 595.875L677.99 592.293Z" fill="#D6572D"/>
</g>
<g clip-path="url(#clip1_567_2606)">
<path d="M615.866 533.613L615.791 533.203L615.382 533.132C612.116 532.568 608.815 533.836 606.767 536.442L606.188 537.179L604.717 537.139C603.692 537.111 602.688 537.511 601.963 538.236L599.796 540.403C599.796 540.403 599.796 540.403 599.796 540.404L599.261 540.938L600.095 541.771L600.629 541.237C601.287 540.579 602.249 540.34 603.138 540.614L603.421 540.701L602.857 541.419L603.769 542.331L602.148 543.952L605.083 546.888L606.704 545.267L607.58 546.142L608.299 545.579L608.385 545.861C608.659 546.75 608.42 547.712 607.762 548.37L607.228 548.904L608.061 549.738L610.763 547.036C611.488 546.311 611.888 545.307 611.86 544.282L611.82 542.817L612.551 542.244C615.166 540.193 616.436 536.886 615.866 533.613ZM614.766 534.234C614.826 534.733 614.836 535.231 614.801 535.723C614.436 535.635 614.096 535.448 613.823 535.176C613.552 534.904 613.366 534.565 613.277 534.2C613.769 534.164 614.267 534.174 614.766 534.234ZM603.485 539.487C603.173 539.391 602.856 539.339 602.54 539.326L602.797 539.069C603.294 538.572 603.982 538.299 604.685 538.317L605.281 538.334L604.201 539.707L603.485 539.487ZM605.083 545.221L603.815 543.952L604.602 543.165L605.871 544.433L605.083 545.221ZM610.682 544.314C610.701 545.017 610.427 545.705 609.93 546.202L609.673 546.459C609.66 546.143 609.608 545.826 609.512 545.514L609.292 544.8L610.666 543.723L610.682 544.314ZM611.824 541.316L607.675 544.57L604.429 541.325L607.693 537.171C608.822 535.734 610.389 534.766 612.109 534.375C612.236 534.986 612.538 535.557 612.99 536.009C613.443 536.462 614.015 536.764 614.627 536.891C614.236 538.615 613.266 540.186 611.824 541.316Z" fill="white"/>
<path d="M608.929 537.487C608.217 538.199 608.217 539.358 608.929 540.07C609.285 540.426 609.753 540.604 610.22 540.604C610.688 540.604 611.156 540.426 611.511 540.07C612.223 539.358 612.223 538.199 611.511 537.487C610.8 536.775 609.641 536.775 608.929 537.487ZM610.678 539.236C610.426 539.489 610.015 539.489 609.763 539.236C609.51 538.984 609.51 538.573 609.763 538.321C609.889 538.194 610.055 538.131 610.22 538.131C610.386 538.131 610.552 538.194 610.678 538.321C610.93 538.573 610.93 538.984 610.678 539.236Z" fill="white"/>
<path d="M596.059 548.552L596.892 547.718L597.725 548.552L596.892 549.385L596.059 548.552Z" fill="white"/>
<path d="M597.729 546.882L600.439 544.172L601.273 545.005L598.562 547.715L597.729 546.882Z" fill="white"/>
<path d="M599.61 552.104L600.444 551.271L601.277 552.104L600.444 552.938L599.61 552.104Z" fill="white"/>
<path d="M601.281 550.435L603.991 547.724L604.824 548.558L602.114 551.268L601.281 550.435Z" fill="white"/>
<path d="M595.999 552.164L600.943 547.22L601.776 548.053L596.832 552.997L595.999 552.164Z" fill="white"/>
</g>
<rect x="12.5" y="404.5" width="251" height="193" rx="7.5" fill="white" stroke="#F5E5D7"/>
<path d="M138 502V504M138 504C138 506.946 134.342 509.333 129.83 509.333H98.1702C93.6579 509.333 90 511.721 90 514.667V518M138 504C138 506.946 141.658 509.333 146.17 509.333H177.83C182.342 509.333 186 511.721 186 514.667V518" stroke="#D6572D" stroke-width="0.5" stroke-linecap="round"/>
<rect x="50" y="518" width="80" height="60" rx="4" fill="#CED4DB"/>
<rect x="146" y="518" width="80" height="60" rx="4" fill="#979EA8"/>
<rect x="98" y="442" width="80" height="60" rx="4" fill="#E7EBEE"/>
<rect x="87" y="565" width="26" height="26" fill="#CFE4FF"/>
<rect x="92" y="574" width="16" height="2" fill="#87BEFF"/>
<rect x="92" y="579" width="16" height="2" fill="#87BEFF"/>
<rect x="206" y="498" width="36" height="36" fill="#DEDEFF"/>
<rect x="120" y="424" width="36" height="36" fill="#FFD6F5"/>
<rect x="213" y="511" width="22" height="2" fill="#9594FF"/>
<rect x="127" y="437" width="22" height="2" fill="#F873D7"/>
<rect x="213" y="518" width="16" height="2" fill="#9594FF"/>
<rect x="127" y="444" width="22" height="2" fill="#F873D7"/>
<g filter="url(#filter0_d_567_2606)">
<rect x="24" y="416" width="56" height="56" rx="4" fill="white"/>
</g>
<g filter="url(#filter1_d_567_2606)">
<rect x="196" y="416" width="56" height="56" rx="4" fill="white"/>
</g>
<path d="M48.2847 443.27L45.2715 446.289L48.2847 449.308L49.2789 448.311L47.2602 446.289L49.2789 444.266L48.2847 443.27Z" fill="#D6572D"/>
<path d="M54.7212 444.266L56.7399 446.289L54.7212 448.311L55.7155 449.308L58.7286 446.289L55.7155 443.27L54.7212 444.266Z" fill="#D6572D"/>
<path d="M50.6875 448.858L51.9416 443.401L53.312 443.718L52.0579 449.174L50.6875 448.858Z" fill="#D6572D"/>
<path d="M40 433.386V454.617H64V433.386H40ZM62.5938 434.795V437.96H41.4062V434.795H62.5938ZM41.4062 453.208V439.369H62.5938V453.208H41.4062Z" fill="#D6572D"/>
<path d="M42.2832 435.673H43.6895V437.082H42.2832V435.673Z" fill="#D6572D"/>
<path d="M44.5464 435.673H45.9526V437.082H44.5464V435.673Z" fill="#D6572D"/>
<path d="M46.8101 435.673H48.2163V437.082H46.8101V435.673Z" fill="#D6572D"/>
<g clip-path="url(#clip2_567_2606)">
<path d="M236 441.271L232.364 434.973L227.636 437.702V432.243H220.364V437.702L215.636 434.973L212 441.271L216.728 444L212 446.73L215.636 453.028L220.364 450.298V455.757H227.636V450.298L232.364 453.028L236 446.73L231.272 444L236 441.271ZM234.013 447.262L231.831 451.041L226.182 447.779V454.303H221.818V447.779L216.169 451.041L213.987 447.262L219.637 444L213.987 440.738L216.169 436.959L221.818 440.221V433.698H226.182V440.221L231.831 436.96L234.013 440.738L228.363 444L234.013 447.262Z" fill="#D6572D"/>
</g>
<g filter="url(#filter2_d_567_2606)">
<rect x="51.667" y="95" width="440" height="330" rx="8" fill="white" shape-rendering="crispEdges"/>
<rect x="75.667" y="117" width="120" height="80" rx="4" fill="#E7EBEE"/>
<rect x="75.667" y="205" width="120" height="4" rx="2" fill="#E7EBEE"/>
<rect x="211.667" y="205" width="120" height="4" rx="2" fill="#E7EBEE"/>
<rect x="347.667" y="205" width="120" height="4" rx="2" fill="#E7EBEE"/>
<rect x="75.667" y="213" width="120" height="4" rx="2" fill="#E7EBEE"/>
<rect x="211.667" y="213" width="120" height="4" rx="2" fill="#E7EBEE"/>
<rect x="347.667" y="213" width="120" height="4" rx="2" fill="#E7EBEE"/>
<rect x="75.667" y="221" width="120" height="4" rx="2" fill="#E7EBEE"/>
<rect x="211.667" y="221" width="120" height="4" rx="2" fill="#E7EBEE"/>
<rect x="347.667" y="221" width="120" height="4" rx="2" fill="#E7EBEE"/>
<rect x="75.667" y="229" width="120" height="4" rx="2" fill="#E7EBEE"/>
<rect x="211.667" y="229" width="120" height="4" rx="2" fill="#E7EBEE"/>
<rect x="347.667" y="229" width="120" height="4" rx="2" fill="#E7EBEE"/>
<rect x="75.667" y="237" width="120" height="4" rx="2" fill="#E7EBEE"/>
<rect x="211.667" y="237" width="120" height="4" rx="2" fill="#E7EBEE"/>
<rect x="347.667" y="237" width="120" height="4" rx="2" fill="#E7EBEE"/>
<rect x="75.667" y="245" width="57" height="4" rx="2" fill="#E7EBEE"/>
<rect x="211.667" y="245" width="57" height="4" rx="2" fill="#E7EBEE"/>
<rect x="347.667" y="245" width="57" height="4" rx="2" fill="#E7EBEE"/>
<rect x="211.667" y="117" width="120" height="80" rx="4" fill="#E7EBEE"/>
<rect x="347.667" y="117" width="120" height="80" rx="4" fill="#E7EBEE"/>
<path d="M51.667 103C51.667 98.5817 55.2487 95 59.667 95H483.667C488.085 95 491.667 98.5817 491.667 103V127H51.667V103Z" fill="#007F62"/>
<circle cx="71.667" cy="111" r="4" fill="#FF5B5B"/>
<circle cx="85.667" cy="111" r="4" fill="#FFDC5F"/>
<circle cx="99.667" cy="111" r="4" fill="#7DFDA0"/>
<rect x="75.667" y="273" width="392" height="128" rx="4" fill="#D7F5E2"/>
<rect x="91.667" y="289" width="40" height="40" rx="4" fill="white"/>
<path fill-rule="evenodd" clip-rule="evenodd" d="M103 320.646H120.333C121.979 320.646 123.313 319.313 123.313 317.667V300.334C123.313 298.688 121.979 297.354 120.333 297.354H103C101.355 297.354 100.021 298.688 100.021 300.334V317.667C100.021 319.313 101.355 320.646 103 320.646ZM107.472 313.477L108.039 313.801C110.287 315.085 113.047 315.085 115.295 313.801L115.861 313.477C116.251 313.253 116.387 312.757 116.164 312.367C115.942 311.978 115.444 311.843 115.055 312.065L114.489 312.389C112.74 313.389 110.593 313.389 108.845 312.389L108.278 312.065C107.889 311.843 107.392 311.978 107.17 312.367C106.947 312.757 107.082 313.253 107.472 313.477ZM110.878 304.842L111.751 308.333C111.782 308.456 111.723 308.584 111.609 308.641L110.221 309.336C109.819 309.537 109.656 310.025 109.857 310.426C110.057 310.827 110.546 310.989 110.946 310.789C110.946 310.789 111.714 310.405 112.336 310.094C113.131 309.697 113.543 308.801 113.328 307.939C113.012 306.679 112.455 304.449 112.455 304.449C112.346 304.014 111.905 303.749 111.47 303.858C111.035 303.966 110.77 304.408 110.878 304.842ZM115.188 303.938V306.105C115.188 306.553 115.552 306.917 116 306.917C116.449 306.917 116.813 306.553 116.813 306.105V303.938C116.813 303.489 116.449 303.125 116 303.125C115.552 303.125 115.188 303.489 115.188 303.938ZM106.521 303.938V306.105C106.521 306.553 106.885 306.917 107.333 306.917C107.782 306.917 108.146 306.553 108.146 306.105V303.938C108.146 303.489 107.782 303.125 107.333 303.125C106.885 303.125 106.521 303.489 106.521 303.938Z" fill="#D6572D"/>
<rect x="139.667" y="292" width="102" height="6" rx="3" fill="white"/>
<rect x="139.667" y="304" width="150" height="4" rx="2" fill="white"/>
<rect x="139.667" y="312" width="102" height="4" rx="2" fill="white"/>
<rect x="91.667" y="337" width="360" height="4" rx="2" fill="white"/>
<rect x="91.667" y="345" width="360" height="4" rx="2" fill="white"/>
<rect x="91.667" y="353" width="360" height="4" rx="2" fill="white"/>
<rect x="91.667" y="361" width="360" height="4" rx="2" fill="white"/>
<rect x="91.667" y="369" width="171" height="4" rx="2" fill="white"/>
<circle cx="246.667" cy="390" r="2.5" fill="white" stroke="#007F62"/>
<circle cx="256.667" cy="390" r="2.5" fill="white" stroke="#A5A5A5"/>
<circle cx="266.667" cy="390" r="2.5" fill="white" stroke="#A5A5A5"/>
<circle cx="276.667" cy="390" r="2.5" fill="white" stroke="#A5A5A5"/>
<circle cx="286.667" cy="390" r="2.5" fill="white" stroke="#A5A5A5"/>
<rect x="139.667" y="322" width="6" height="6" rx="3" fill="white"/>
<rect x="149.667" y="322" width="6" height="6" rx="3" fill="white"/>
<rect x="159.667" y="322" width="6" height="6" rx="3" fill="white"/>
<rect x="169.667" y="322" width="6" height="6" rx="3" fill="white"/>
<rect x="179.667" y="322" width="6" height="6" rx="3" fill="white"/>
</g>
<g clip-path="url(#clip3_567_2606)">
<rect x="348.667" y="291" width="275" height="232" rx="7" fill="#D7F5E2" stroke="#007F62" stroke-width="2"/>
<rect x="371.667" y="332" width="132" height="84" rx="1" fill="white"/>
<rect x="368.167" y="328.5" width="139" height="91" rx="1.5" stroke="#007F62"/>
<rect x="367.667" y="310" width="102" height="6" rx="3" fill="white"/>
<rect x="367.667" y="436" width="84" height="6" rx="3" fill="white"/>
<rect x="423.667" y="343" width="72" height="6" rx="3" fill="#E7EBEE"/>
<rect x="423.667" y="352" width="40" height="4" rx="2" fill="#E7EBEE"/>
<rect x="423.667" y="360" width="4" height="4" rx="2" fill="#E7EBEE"/>
<rect x="429.667" y="360" width="4" height="4" rx="2" fill="#E7EBEE"/>
<rect x="435.667" y="360" width="4" height="4" rx="2" fill="#E7EBEE"/>
<rect x="441.667" y="360" width="4" height="4" rx="2" fill="#E7EBEE"/>
<rect x="447.667" y="360" width="4" height="4" rx="2" fill="#E7EBEE"/>
<circle cx="397.667" cy="358" r="18" fill="#E7EBEE"/>
<rect x="379.667" y="380" width="116" height="4" rx="2" fill="#E7EBEE"/>
<rect x="379.667" y="388" width="116" height="4" rx="2" fill="#E7EBEE"/>
<rect x="379.667" y="396" width="116" height="4" rx="2" fill="#E7EBEE"/>
<rect x="379.667" y="404" width="56" height="4" rx="2" fill="#E7EBEE"/>
<g clip-path="url(#clip4_567_2606)">
<rect x="523.667" y="332" width="132" height="84" rx="2" fill="white"/>
<rect x="575.667" y="343" width="72" height="6" rx="3" fill="#E7EBEE"/>
<rect x="575.667" y="352" width="40" height="4" rx="2" fill="#E7EBEE"/>
<rect x="575.667" y="360" width="4" height="4" rx="2" fill="#E7EBEE"/>
<rect x="581.667" y="360" width="4" height="4" rx="2" fill="#E7EBEE"/>
<rect x="587.667" y="360" width="4" height="4" rx="2" fill="#E7EBEE"/>
<rect x="593.667" y="360" width="4" height="4" rx="2" fill="#E7EBEE"/>
<rect x="599.667" y="360" width="4" height="4" rx="2" fill="#E7EBEE"/>
<circle cx="549.667" cy="358" r="18" fill="#E7EBEE"/>
<rect x="531.667" y="380" width="116" height="4" rx="2" fill="#E7EBEE"/>
<rect x="531.667" y="388" width="116" height="4" rx="2" fill="#E7EBEE"/>
<rect x="531.667" y="396" width="116" height="4" rx="2" fill="#E7EBEE"/>
<rect x="531.667" y="404" width="56" height="4" rx="2" fill="#E7EBEE"/>
</g>
<rect x="367.667" y="454" width="237" height="50" rx="4" fill="#D6572D"/>
<rect x="381.667" y="463" width="24" height="4" rx="2" fill="white"/>
<rect x="388.667" y="473" width="18" height="4" rx="2" fill="#1CDF76"/>
<rect x="388.667" y="483" width="18" height="4" rx="2" fill="white"/>
<rect x="381.667" y="491" width="8" height="4" rx="2" fill="#1CDF76"/>
<rect x="442.667" y="483" width="40" height="4" rx="2" fill="white"/>
<rect x="409.667" y="463" width="42" height="4" rx="2" fill="#1CDF76"/>
<rect x="412.667" y="473" width="25" height="4" rx="2" fill="white"/>
<rect x="412.667" y="483" width="25" height="4" rx="2" fill="#1CDF76"/>
<rect x="486.667" y="483" width="40" height="4" rx="2" fill="#1CDF76"/>
</g>
<path d="M360.045 456.141C360.123 456.688 360.629 457.068 361.176 456.99C361.723 456.911 362.103 456.405 362.025 455.858L360.045 456.141ZM255.035 456L255.373 456.94L255.035 456ZM152.324 388.386C151.985 387.95 151.357 387.872 150.921 388.211L143.817 393.736C143.381 394.075 143.302 394.703 143.641 395.139C143.98 395.575 144.609 395.654 145.045 395.315L151.359 390.403L156.271 396.718C156.61 397.154 157.238 397.233 157.674 396.894C158.11 396.554 158.189 395.926 157.85 395.49L152.324 388.386ZM362.025 455.858C361.071 449.183 355.911 445.067 348.563 442.81C341.22 440.554 331.453 440.062 320.721 440.752C299.233 442.134 273.515 448.284 254.696 455.059L255.373 456.94C274.054 450.216 299.586 444.116 320.849 442.748C331.491 442.063 340.975 442.571 347.976 444.721C354.971 446.87 359.248 450.566 360.045 456.141L362.025 455.858ZM254.696 455.059C231.283 463.487 212.661 467.736 198.039 468.345C183.423 468.954 172.894 465.923 165.543 459.894C158.191 453.865 153.862 444.71 151.912 432.746C149.961 420.775 150.407 406.085 152.527 389.124L150.543 388.876C148.413 405.915 147.942 420.823 149.938 433.067C151.935 445.319 156.418 454.997 164.275 461.44C172.131 467.884 183.206 470.964 198.122 470.343C213.031 469.723 231.869 465.402 255.373 456.94L254.696 455.059Z" fill="#D6572D"/>
<defs>
<filter id="filter0_d_567_2606" x="8" y="404" width="88" height="88" filterUnits="userSpaceOnUse" color-interpolation-filters="sRGB">
<feFlood flood-opacity="0" result="BackgroundImageFix"/>
<feColorMatrix in="SourceAlpha" type="matrix" values="0 0 0 0 0 0 0 0 0 0 0 0 0 0 0 0 0 0 127 0" result="hardAlpha"/>
<feOffset dy="4"/>
<feGaussianBlur stdDeviation="8"/>
<feComposite in2="hardAlpha" operator="out"/>
<feColorMatrix type="matrix" values="0 0 0 0 0 0 0 0 0 0.498039 0 0 0 0 0.384314 0 0 0 0.2 0"/>
<feBlend mode="normal" in2="BackgroundImageFix" result="effect1_dropShadow_567_2606"/>
<feBlend mode="normal" in="SourceGraphic" in2="effect1_dropShadow_567_2606" result="shape"/>
</filter>
<filter id="filter1_d_567_2606" x="180" y="404" width="88" height="88" filterUnits="userSpaceOnUse" color-interpolation-filters="sRGB">
<feFlood flood-opacity="0" result="BackgroundImageFix"/>
<feColorMatrix in="SourceAlpha" type="matrix" values="0 0 0 0 0 0 0 0 0 0 0 0 0 0 0 0 0 0 127 0" result="hardAlpha"/>
<feOffset dy="4"/>
<feGaussianBlur stdDeviation="8"/>
<feComposite in2="hardAlpha" operator="out"/>
<feColorMatrix type="matrix" values="0 0 0 0 0 0 0 0 0 0.498039 0 0 0 0 0.384314 0 0 0 0.2 0"/>
<feBlend mode="normal" in2="BackgroundImageFix" result="effect1_dropShadow_567_2606"/>
<feBlend mode="normal" in="SourceGraphic" in2="effect1_dropShadow_567_2606" result="shape"/>
</filter>
<filter id="filter2_d_567_2606" x="39.667" y="87" width="464" height="354" filterUnits="userSpaceOnUse" color-interpolation-filters="sRGB">
<feFlood flood-opacity="0" result="BackgroundImageFix"/>
<feColorMatrix in="SourceAlpha" type="matrix" values="0 0 0 0 0 0 0 0 0 0 0 0 0 0 0 0 0 0 127 0" result="hardAlpha"/>
<feOffset dy="4"/>
<feGaussianBlur stdDeviation="6"/>
<feComposite in2="hardAlpha" operator="out"/>
<feColorMatrix type="matrix" values="0 0 0 0 0 0 0 0 0 0.498039 0 0 0 0 0.384314 0 0 0 0.2 0"/>
<feBlend mode="normal" in2="BackgroundImageFix" result="effect1_dropShadow_567_2606"/>
<feBlend mode="normal" in="SourceGraphic" in2="effect1_dropShadow_567_2606" result="shape"/>
</filter>
<clipPath id="clip0_567_2606">
<rect width="10" height="10" fill="white" transform="translate(676 587)"/>
</clipPath>
<clipPath id="clip1_567_2606">
<rect width="20" height="20" fill="white" transform="translate(596 533)"/>
</clipPath>
<clipPath id="clip2_567_2606">
<rect width="24" height="24" fill="white" transform="translate(212 432)"/>
</clipPath>
<clipPath id="clip3_567_2606">
<rect width="277" height="234" fill="white" transform="translate(347.667 290)"/>
</clipPath>
<clipPath id="clip4_567_2606">
<rect width="99" height="84" fill="white" transform="translate(523.667 332)"/>
</clipPath>
</defs>
</svg>
