<svg width="381" height="387" viewBox="0 0 381 387" fill="none" xmlns="http://www.w3.org/2000/svg">
<circle cx="191.474" cy="195.451" r="76.0596" fill="#007F62" stroke="#007F62"/>
<path d="M188.16 166.552H188.201L188.231 166.522L190.837 163.916L190.767 163.845L190.837 163.916C191.189 163.564 191.759 163.564 192.11 163.916L192.181 163.845L192.11 163.916L194.717 166.522L194.746 166.552H194.787H198.474C198.971 166.552 199.374 166.955 199.374 167.452V171.138V171.179L199.403 171.209L202.01 173.815C202.361 174.167 202.361 174.737 202.01 175.088L199.403 177.695L199.374 177.724V177.765V181.452C199.374 181.949 198.971 182.352 198.474 182.352H194.787H194.746L194.717 182.381L192.11 184.988C191.759 185.339 191.189 185.339 190.837 184.988L188.231 182.381L188.201 182.352H188.16H184.474C183.977 182.352 183.574 181.949 183.574 181.452V177.765V177.724L183.544 177.695L180.938 175.088L180.867 175.159L180.938 175.088C180.586 174.737 180.586 174.167 180.938 173.815L180.867 173.745L180.938 173.815L183.544 171.209L183.574 171.179V171.138V167.452C183.574 166.955 183.977 166.552 184.474 166.552H188.16ZM185.474 168.352H185.374V168.452V171.925L182.918 174.381L182.847 174.452L182.918 174.522L185.374 176.978V180.452V180.552H185.474H188.947L191.403 183.008L191.474 183.078L191.544 183.008L194 180.552H197.474H197.574V180.452V176.978L200.03 174.522L200.1 174.452L200.03 174.381L197.574 171.925V168.452V168.352H197.474H194L191.544 165.896L191.474 165.825L191.403 165.896L188.947 168.352H185.474ZM191.474 178.352C189.32 178.352 187.574 176.606 187.574 174.452C187.574 172.298 189.32 170.552 191.474 170.552C193.628 170.552 195.374 172.298 195.374 174.452C195.374 176.606 193.628 178.352 191.474 178.352ZM191.474 176.552C192.634 176.552 193.574 175.612 193.574 174.452C193.574 173.292 192.634 172.352 191.474 172.352C190.314 172.352 189.374 173.292 189.374 174.452C189.374 175.612 190.314 176.552 191.474 176.552Z" fill="white" stroke="#86C197" stroke-width="0.2"/>
<circle cx="280.48" cy="85.9067" r="49.5" fill="white" stroke="#007F62"/>
<circle cx="330.48" cy="193.456" r="49.5" fill="white" stroke="#007F62"/>
<circle cx="291.062" cy="297.944" r="49.5" fill="white" stroke="#007F62"/>
<path d="M6.65877 346.504L10.2708 336.704H11.5168L15.1148 346.504H13.8688L12.9728 343.984H8.80077L7.89077 346.504H6.65877ZM9.15077 343.032H12.6228L10.8868 338.188L9.15077 343.032ZM22.8667 346.672C22.0361 346.672 21.3454 346.462 20.7947 346.042C20.2441 345.622 19.9221 345.053 19.8287 344.334H21.0327C21.1074 344.698 21.2987 345.016 21.6067 345.286C21.9241 345.548 22.3487 345.678 22.8807 345.678C23.3754 345.678 23.7394 345.576 23.9727 345.37C24.2061 345.156 24.3227 344.904 24.3227 344.614C24.3227 344.194 24.1687 343.914 23.8607 343.774C23.5621 343.634 23.1374 343.508 22.5867 343.396C22.2134 343.322 21.8401 343.214 21.4667 343.074C21.0934 342.934 20.7807 342.738 20.5287 342.486C20.2767 342.225 20.1507 341.884 20.1507 341.464C20.1507 340.858 20.3747 340.363 20.8227 339.98C21.2801 339.588 21.8961 339.392 22.6707 339.392C23.4081 339.392 24.0101 339.579 24.4767 339.952C24.9527 340.316 25.2281 340.839 25.3027 341.52H24.1407C24.0941 341.166 23.9401 340.89 23.6787 340.694C23.4267 340.489 23.0861 340.386 22.6567 340.386C22.2367 340.386 21.9101 340.475 21.6767 340.652C21.4527 340.83 21.3407 341.063 21.3407 341.352C21.3407 341.632 21.4854 341.852 21.7747 342.01C22.0734 342.169 22.4747 342.304 22.9787 342.416C23.4081 342.51 23.8141 342.626 24.1967 342.766C24.5887 342.897 24.9061 343.098 25.1487 343.368C25.4007 343.63 25.5267 344.012 25.5267 344.516C25.5361 345.142 25.2981 345.66 24.8127 346.07C24.3367 346.472 23.6881 346.672 22.8667 346.672ZM29.6363 346.504C29.0016 346.504 28.5023 346.35 28.1383 346.042C27.7743 345.734 27.5923 345.179 27.5923 344.376V340.554H26.3883V339.56H27.5923L27.7463 337.894H28.7683V339.56H30.8123V340.554H28.7683V344.376C28.7683 344.815 28.8569 345.114 29.0343 345.272C29.2116 345.422 29.5243 345.496 29.9723 345.496H30.7003V346.504H29.6363ZM32.3063 346.504V339.56H33.3703L33.4683 340.89C33.683 340.433 34.0097 340.069 34.4483 339.798C34.887 339.528 35.4283 339.392 36.0723 339.392V340.624H35.7503C35.3397 340.624 34.9617 340.699 34.6163 340.848C34.271 340.988 33.9957 341.231 33.7903 341.576C33.585 341.922 33.4823 342.398 33.4823 343.004V346.504H32.3063ZM40.2965 346.672C39.6432 346.672 39.0552 346.523 38.5325 346.224C38.0098 345.926 37.5945 345.506 37.2865 344.964C36.9878 344.414 36.8385 343.77 36.8385 343.032C36.8385 342.295 36.9925 341.656 37.3005 341.114C37.6085 340.564 38.0238 340.139 38.5465 339.84C39.0785 339.542 39.6712 339.392 40.3245 339.392C40.9778 339.392 41.5658 339.542 42.0885 339.84C42.6112 340.139 43.0218 340.564 43.3205 341.114C43.6285 341.656 43.7825 342.295 43.7825 343.032C43.7825 343.77 43.6285 344.414 43.3205 344.964C43.0125 345.506 42.5925 345.926 42.0605 346.224C41.5378 346.523 40.9498 346.672 40.2965 346.672ZM40.2965 345.664C40.6978 345.664 41.0712 345.566 41.4165 345.37C41.7618 345.174 42.0418 344.88 42.2565 344.488C42.4712 344.096 42.5785 343.611 42.5785 343.032C42.5785 342.454 42.4712 341.968 42.2565 341.576C42.0512 341.184 41.7758 340.89 41.4305 340.694C41.0852 340.498 40.7165 340.4 40.3245 340.4C39.9232 340.4 39.5498 340.498 39.2045 340.694C38.8592 340.89 38.5792 341.184 38.3645 341.576C38.1498 341.968 38.0425 342.454 38.0425 343.032C38.0425 343.611 38.1498 344.096 38.3645 344.488C38.5792 344.88 38.8545 345.174 39.1905 345.37C39.5358 345.566 39.9045 345.664 40.2965 345.664ZM45.4177 346.504V339.56H46.4817L46.5517 340.806C46.7757 340.368 47.0977 340.022 47.5177 339.77C47.9377 339.518 48.4137 339.392 48.9457 339.392C49.767 339.392 50.4203 339.644 50.9057 340.148C51.4003 340.643 51.6477 341.408 51.6477 342.444V346.504H50.4717V342.57C50.4717 341.124 49.8743 340.4 48.6797 340.4C48.0823 340.4 47.583 340.62 47.1817 341.058C46.7897 341.488 46.5937 342.104 46.5937 342.906V346.504H45.4177ZM56.1734 344.32C55.7814 344.32 55.422 344.269 55.0954 344.166L54.3954 344.824C54.498 344.899 54.624 344.964 54.7734 345.02C54.932 345.067 55.156 345.114 55.4454 345.16C55.7347 345.198 56.1407 345.24 56.6634 345.286C57.5967 345.352 58.264 345.566 58.6654 345.93C59.0667 346.294 59.2674 346.77 59.2674 347.358C59.2674 347.76 59.1554 348.142 58.9314 348.506C58.7167 348.87 58.3807 349.169 57.9234 349.402C57.4754 349.636 56.8967 349.752 56.1874 349.752C55.562 349.752 55.0067 349.668 54.5214 349.5C54.036 349.342 53.658 349.094 53.3874 348.758C53.1167 348.432 52.9814 348.016 52.9814 347.512C52.9814 347.251 53.0514 346.966 53.1914 346.658C53.3314 346.36 53.5927 346.075 53.9754 345.804C53.77 345.72 53.5927 345.632 53.4434 345.538C53.3034 345.436 53.1727 345.324 53.0514 345.202V344.88L54.2414 343.704C53.6907 343.238 53.4154 342.622 53.4154 341.856C53.4154 341.399 53.5227 340.984 53.7374 340.61C53.952 340.237 54.2647 339.943 54.6754 339.728C55.086 339.504 55.5854 339.392 56.1734 339.392C56.5747 339.392 56.9387 339.448 57.2654 339.56H59.8274V340.442L58.5254 340.498C58.796 340.89 58.9314 341.343 58.9314 341.856C58.9314 342.314 58.8194 342.729 58.5954 343.102C58.3807 343.476 58.068 343.774 57.6574 343.998C57.256 344.213 56.7614 344.32 56.1734 344.32ZM56.1734 343.354C56.668 343.354 57.06 343.228 57.3494 342.976C57.648 342.715 57.7974 342.342 57.7974 341.856C57.7974 341.38 57.648 341.016 57.3494 340.764C57.06 340.503 56.668 340.372 56.1734 340.372C55.6694 340.372 55.268 340.503 54.9694 340.764C54.68 341.016 54.5354 341.38 54.5354 341.856C54.5354 342.342 54.68 342.715 54.9694 342.976C55.268 343.228 55.6694 343.354 56.1734 343.354ZM54.1294 347.4C54.1294 347.867 54.3254 348.212 54.7174 348.436C55.1094 348.67 55.5994 348.786 56.1874 348.786C56.766 348.786 57.228 348.66 57.5734 348.408C57.928 348.156 58.1054 347.82 58.1054 347.4C58.1054 347.102 57.984 346.84 57.7414 346.616C57.4987 346.402 57.0507 346.276 56.3974 346.238C55.884 346.201 55.4407 346.154 55.0674 346.098C54.6847 346.304 54.4327 346.523 54.3114 346.756C54.19 346.999 54.1294 347.214 54.1294 347.4ZM64.8591 349.584V339.56H65.9231L66.0351 340.708C66.2591 340.372 66.5764 340.069 66.9871 339.798C67.4071 339.528 67.9391 339.392 68.5831 339.392C69.2737 339.392 69.8757 339.551 70.3891 339.868C70.9024 340.186 71.2991 340.62 71.5791 341.17C71.8684 341.721 72.0131 342.346 72.0131 343.046C72.0131 343.746 71.8684 344.372 71.5791 344.922C71.2991 345.464 70.8977 345.893 70.3751 346.21C69.8617 346.518 69.2597 346.672 68.5691 346.672C67.9997 346.672 67.4911 346.556 67.0431 346.322C66.6044 346.089 66.2684 345.762 66.0351 345.342V349.584H64.8591ZM68.4431 345.65C68.9097 345.65 69.3204 345.543 69.6751 345.328C70.0297 345.104 70.3097 344.796 70.5151 344.404C70.7204 344.012 70.8231 343.555 70.8231 343.032C70.8231 342.51 70.7204 342.052 70.5151 341.66C70.3097 341.268 70.0297 340.965 69.6751 340.75C69.3204 340.526 68.9097 340.414 68.4431 340.414C67.9764 340.414 67.5657 340.526 67.2111 340.75C66.8564 340.965 66.5764 341.268 66.3711 341.66C66.1657 342.052 66.0631 342.51 66.0631 343.032C66.0631 343.555 66.1657 344.012 66.3711 344.404C66.5764 344.796 66.8564 345.104 67.2111 345.328C67.5657 345.543 67.9764 345.65 68.4431 345.65ZM75.9601 346.672C75.3814 346.672 74.9007 346.574 74.5181 346.378C74.1354 346.182 73.8507 345.921 73.6641 345.594C73.4774 345.268 73.3841 344.913 73.3841 344.53C73.3841 343.821 73.6547 343.275 74.1961 342.892C74.7374 342.51 75.4747 342.318 76.4081 342.318H78.2841V342.234C78.2841 341.628 78.1254 341.17 77.8081 340.862C77.4907 340.545 77.0661 340.386 76.5341 340.386C76.0767 340.386 75.6801 340.503 75.3441 340.736C75.0174 340.96 74.8121 341.292 74.7281 341.73H73.5241C73.5707 341.226 73.7387 340.802 74.0281 340.456C74.3267 340.111 74.6954 339.85 75.1341 339.672C75.5727 339.486 76.0394 339.392 76.5341 339.392C77.5047 339.392 78.2327 339.654 78.7181 340.176C79.2127 340.69 79.4601 341.376 79.4601 342.234V346.504H78.4101L78.3401 345.258C78.1441 345.65 77.8547 345.986 77.4721 346.266C77.0987 346.537 76.5947 346.672 75.9601 346.672ZM76.1421 345.678C76.5901 345.678 76.9727 345.562 77.2901 345.328C77.6167 345.095 77.8641 344.792 78.0321 344.418C78.2001 344.045 78.2841 343.653 78.2841 343.242V343.228H76.5061C75.8154 343.228 75.3254 343.35 75.0361 343.592C74.7561 343.826 74.6161 344.12 74.6161 344.474C74.6161 344.838 74.7467 345.132 75.0081 345.356C75.2787 345.571 75.6567 345.678 76.1421 345.678ZM81.2243 346.504V339.56H82.2883L82.3863 340.89C82.601 340.433 82.9276 340.069 83.3663 339.798C83.805 339.528 84.3463 339.392 84.9903 339.392V340.624H84.6683C84.2576 340.624 83.8796 340.699 83.5343 340.848C83.189 340.988 82.9136 341.231 82.7083 341.576C82.503 341.922 82.4003 342.398 82.4003 343.004V346.504H81.2243ZM89.0542 346.504C88.4196 346.504 87.9202 346.35 87.5562 346.042C87.1922 345.734 87.0102 345.179 87.0102 344.376V340.554H85.8062V339.56H87.0102L87.1642 337.894H88.1862V339.56H90.2302V340.554H88.1862V344.376C88.1862 344.815 88.2749 345.114 88.4522 345.272C88.6296 345.422 88.9422 345.496 89.3902 345.496H90.1182V346.504H89.0542ZM91.7243 346.504V339.56H92.7883L92.8583 340.806C93.0823 340.368 93.4043 340.022 93.8243 339.77C94.2443 339.518 94.7203 339.392 95.2523 339.392C96.0736 339.392 96.727 339.644 97.2123 340.148C97.707 340.643 97.9543 341.408 97.9543 342.444V346.504H96.7783V342.57C96.7783 341.124 96.181 340.4 94.9863 340.4C94.389 340.4 93.8896 340.62 93.4883 341.058C93.0963 341.488 92.9003 342.104 92.9003 342.906V346.504H91.7243ZM102.858 346.672C102.195 346.672 101.607 346.523 101.094 346.224C100.581 345.916 100.175 345.492 99.876 344.95C99.5867 344.409 99.442 343.77 99.442 343.032C99.442 342.304 99.5867 341.67 99.876 341.128C100.165 340.578 100.567 340.153 101.08 339.854C101.603 339.546 102.205 339.392 102.886 339.392C103.558 339.392 104.137 339.546 104.622 339.854C105.117 340.153 105.495 340.55 105.756 341.044C106.017 341.539 106.148 342.071 106.148 342.64C106.148 342.743 106.143 342.846 106.134 342.948C106.134 343.051 106.134 343.168 106.134 343.298H100.604C100.632 343.83 100.753 344.274 100.968 344.628C101.192 344.974 101.467 345.235 101.794 345.412C102.13 345.59 102.485 345.678 102.858 345.678C103.343 345.678 103.749 345.566 104.076 345.342C104.403 345.118 104.641 344.815 104.79 344.432H105.952C105.765 345.076 105.406 345.613 104.874 346.042C104.351 346.462 103.679 346.672 102.858 346.672ZM102.858 340.386C102.298 340.386 101.799 340.559 101.36 340.904C100.931 341.24 100.683 341.735 100.618 342.388H104.986C104.958 341.763 104.743 341.273 104.342 340.918C103.941 340.564 103.446 340.386 102.858 340.386ZM107.707 346.504V339.56H108.771L108.869 340.89C109.083 340.433 109.41 340.069 109.849 339.798C110.287 339.528 110.829 339.392 111.473 339.392V340.624H111.151C110.74 340.624 110.362 340.699 110.017 340.848C109.671 340.988 109.396 341.231 109.191 341.576C108.985 341.922 108.883 342.398 108.883 343.004V346.504H107.707ZM116.498 346.504V339.56H117.562L117.632 340.806C117.856 340.368 118.178 340.022 118.598 339.77C119.018 339.518 119.494 339.392 120.026 339.392C120.847 339.392 121.5 339.644 121.986 340.148C122.48 340.643 122.728 341.408 122.728 342.444V346.504H121.552V342.57C121.552 341.124 120.954 340.4 119.76 340.4C119.162 340.4 118.663 340.62 118.262 341.058C117.87 341.488 117.674 342.104 117.674 342.906V346.504H116.498ZM127.631 346.672C126.969 346.672 126.381 346.523 125.867 346.224C125.354 345.916 124.948 345.492 124.649 344.95C124.36 344.409 124.215 343.77 124.215 343.032C124.215 342.304 124.36 341.67 124.649 341.128C124.939 340.578 125.34 340.153 125.853 339.854C126.376 339.546 126.978 339.392 127.659 339.392C128.331 339.392 128.91 339.546 129.395 339.854C129.89 340.153 130.268 340.55 130.529 341.044C130.791 341.539 130.921 342.071 130.921 342.64C130.921 342.743 130.917 342.846 130.907 342.948C130.907 343.051 130.907 343.168 130.907 343.298H125.377C125.405 343.83 125.527 344.274 125.741 344.628C125.965 344.974 126.241 345.235 126.567 345.412C126.903 345.59 127.258 345.678 127.631 345.678C128.117 345.678 128.523 345.566 128.849 345.342C129.176 345.118 129.414 344.815 129.563 344.432H130.725C130.539 345.076 130.179 345.613 129.647 346.042C129.125 346.462 128.453 346.672 127.631 346.672ZM127.631 340.386C127.071 340.386 126.572 340.559 126.133 340.904C125.704 341.24 125.457 341.735 125.391 342.388H129.759C129.731 341.763 129.517 341.273 129.115 340.918C128.714 340.564 128.219 340.386 127.631 340.386ZM134.992 346.504C134.357 346.504 133.858 346.35 133.494 346.042C133.13 345.734 132.948 345.179 132.948 344.376V340.554H131.744V339.56H132.948L133.102 337.894H134.124V339.56H136.168V340.554H134.124V344.376C134.124 344.815 134.212 345.114 134.39 345.272C134.567 345.422 134.88 345.496 135.328 345.496H136.056V346.504H134.992ZM139.062 346.504L137.032 339.56H138.208L139.678 345.006L141.302 339.56H142.632L144.27 345.006L145.726 339.56H146.916L144.886 346.504H143.682L141.974 340.778L140.266 346.504H139.062ZM151.121 346.672C150.467 346.672 149.879 346.523 149.357 346.224C148.834 345.926 148.419 345.506 148.111 344.964C147.812 344.414 147.663 343.77 147.663 343.032C147.663 342.295 147.817 341.656 148.125 341.114C148.433 340.564 148.848 340.139 149.371 339.84C149.903 339.542 150.495 339.392 151.149 339.392C151.802 339.392 152.39 339.542 152.913 339.84C153.435 340.139 153.846 340.564 154.145 341.114C154.453 341.656 154.607 342.295 154.607 343.032C154.607 343.77 154.453 344.414 154.145 344.964C153.837 345.506 153.417 345.926 152.885 346.224C152.362 346.523 151.774 346.672 151.121 346.672ZM151.121 345.664C151.522 345.664 151.895 345.566 152.241 345.37C152.586 345.174 152.866 344.88 153.081 344.488C153.295 344.096 153.403 343.611 153.403 343.032C153.403 342.454 153.295 341.968 153.081 341.576C152.875 341.184 152.6 340.89 152.255 340.694C151.909 340.498 151.541 340.4 151.149 340.4C150.747 340.4 150.374 340.498 150.029 340.694C149.683 340.89 149.403 341.184 149.189 341.576C148.974 341.968 148.867 342.454 148.867 343.032C148.867 343.611 148.974 344.096 149.189 344.488C149.403 344.88 149.679 345.174 150.015 345.37C150.36 345.566 150.729 345.664 151.121 345.664ZM156.242 346.504V339.56H157.306L157.404 340.89C157.619 340.433 157.945 340.069 158.384 339.798C158.823 339.528 159.364 339.392 160.008 339.392V340.624H159.686C159.275 340.624 158.897 340.699 158.552 340.848C158.207 340.988 157.931 341.231 157.726 341.576C157.521 341.922 157.418 342.398 157.418 343.004V346.504H156.242ZM161.328 346.504V336.424H162.504V342.486L165.346 339.56H166.788L163.708 342.696L167.18 346.504H165.682L162.504 342.906V346.504H161.328ZM172.802 338.02C172.568 338.02 172.372 337.946 172.214 337.796C172.064 337.638 171.99 337.442 171.99 337.208C171.99 336.984 172.064 336.798 172.214 336.648C172.372 336.499 172.568 336.424 172.802 336.424C173.026 336.424 173.217 336.499 173.376 336.648C173.534 336.798 173.614 336.984 173.614 337.208C173.614 337.442 173.534 337.638 173.376 337.796C173.217 337.946 173.026 338.02 172.802 338.02ZM172.214 346.504V339.56H173.39V346.504H172.214ZM175.437 346.504V339.56H176.501L176.571 340.806C176.795 340.368 177.117 340.022 177.537 339.77C177.957 339.518 178.433 339.392 178.965 339.392C179.787 339.392 180.44 339.644 180.925 340.148C181.42 340.643 181.667 341.408 181.667 342.444V346.504H180.491V342.57C180.491 341.124 179.894 340.4 178.699 340.4C178.102 340.4 177.603 340.62 177.201 341.058C176.809 341.488 176.613 342.104 176.613 342.906V346.504H175.437ZM190.346 346.672C189.627 346.672 189.002 346.542 188.47 346.28C187.938 346.019 187.527 345.655 187.238 345.188C186.949 344.722 186.804 344.18 186.804 343.564H188.036C188.036 343.947 188.125 344.302 188.302 344.628C188.479 344.946 188.736 345.202 189.072 345.398C189.417 345.585 189.842 345.678 190.346 345.678C191.009 345.678 191.522 345.52 191.886 345.202C192.25 344.885 192.432 344.488 192.432 344.012C192.432 343.62 192.348 343.308 192.18 343.074C192.012 342.832 191.783 342.636 191.494 342.486C191.214 342.337 190.887 342.206 190.514 342.094C190.15 341.982 189.767 341.856 189.366 341.716C188.61 341.455 188.05 341.133 187.686 340.75C187.322 340.358 187.14 339.85 187.14 339.224C187.131 338.702 187.252 338.24 187.504 337.838C187.756 337.428 188.111 337.11 188.568 336.886C189.035 336.653 189.585 336.536 190.22 336.536C190.845 336.536 191.387 336.653 191.844 336.886C192.311 337.12 192.67 337.442 192.922 337.852C193.183 338.263 193.319 338.73 193.328 339.252H192.096C192.096 338.982 192.026 338.716 191.886 338.454C191.746 338.184 191.531 337.964 191.242 337.796C190.962 337.628 190.607 337.544 190.178 337.544C189.646 337.535 189.207 337.67 188.862 337.95C188.526 338.23 188.358 338.618 188.358 339.112C188.358 339.532 188.475 339.854 188.708 340.078C188.951 340.302 189.287 340.489 189.716 340.638C190.145 340.778 190.64 340.942 191.2 341.128C191.667 341.296 192.087 341.492 192.46 341.716C192.833 341.94 193.123 342.23 193.328 342.584C193.543 342.939 193.65 343.392 193.65 343.942C193.65 344.409 193.529 344.852 193.286 345.272C193.043 345.683 192.675 346.019 192.18 346.28C191.695 346.542 191.083 346.672 190.346 346.672ZM195.318 346.504V336.704H201.38V337.67H196.494V341.086H200.96V342.038H196.494V345.538H201.38V346.504H195.318ZM202.604 346.504L206.216 336.704H207.462L211.06 346.504H209.814L208.918 343.984H204.746L203.836 346.504H202.604ZM205.096 343.032H208.568L206.832 338.188L205.096 343.032ZM11.9159 364.672C11.2439 364.672 10.6513 364.551 10.1379 364.308C9.63393 364.056 9.23727 363.711 8.94793 363.272C8.66793 362.824 8.52793 362.297 8.52793 361.69C8.52793 361.028 8.71927 360.44 9.10193 359.926C9.49393 359.404 10.0586 358.993 10.7959 358.694C10.4786 358.349 10.2499 358.022 10.1099 357.714C9.96993 357.397 9.89993 357.056 9.89993 356.692C9.89993 356.067 10.1193 355.554 10.5579 355.152C11.0059 354.742 11.6173 354.536 12.3919 354.536C12.8959 354.536 13.3346 354.634 13.7079 354.83C14.0813 355.017 14.3706 355.278 14.5759 355.614C14.7813 355.95 14.8746 356.333 14.8559 356.762H13.6939C13.7033 356.342 13.5726 356.025 13.3019 355.81C13.0406 355.596 12.7373 355.488 12.3919 355.488C11.9719 355.488 11.6453 355.6 11.4119 355.824C11.1786 356.048 11.0619 356.333 11.0619 356.678C11.0619 356.977 11.1413 357.266 11.2999 357.546C11.4679 357.826 11.7153 358.139 12.0419 358.484L15.1359 361.606C15.4066 361.214 15.7006 360.743 16.0179 360.192L16.4519 359.436H17.6979L17.0819 360.528C16.6713 361.266 16.2793 361.882 15.9059 362.376L18.0199 364.504H16.5359L15.2339 363.188C14.7393 363.72 14.2259 364.103 13.6939 364.336C13.1619 364.56 12.5693 364.672 11.9159 364.672ZM9.70393 361.648C9.70393 362.227 9.90927 362.708 10.3199 363.09C10.7306 363.473 11.2673 363.664 11.9299 363.664C12.4246 363.664 12.8726 363.571 13.2739 363.384C13.6846 363.188 14.0859 362.871 14.4779 362.432L11.5099 359.422C10.8939 359.665 10.4366 359.973 10.1379 360.346C9.8486 360.72 9.70393 361.154 9.70393 361.648ZM22.9769 364.504V354.704H24.1529V364.504H22.9769ZM26.1608 364.504V357.56H27.2248L27.2948 358.806C27.5188 358.368 27.8408 358.022 28.2608 357.77C28.6808 357.518 29.1568 357.392 29.6888 357.392C30.5102 357.392 31.1635 357.644 31.6488 358.148C32.1435 358.643 32.3908 359.408 32.3908 360.444V364.504H31.2148V360.57C31.2148 359.124 30.6175 358.4 29.4228 358.4C28.8255 358.4 28.3262 358.62 27.9248 359.058C27.5328 359.488 27.3368 360.104 27.3368 360.906V364.504H26.1608ZM37.3225 364.672C36.6319 364.672 36.0252 364.514 35.5025 364.196C34.9892 363.879 34.5879 363.445 34.2985 362.894C34.0185 362.344 33.8785 361.718 33.8785 361.018C33.8785 360.318 34.0232 359.698 34.3125 359.156C34.6019 358.606 35.0032 358.176 35.5165 357.868C36.0299 357.551 36.6365 357.392 37.3365 357.392C37.9059 357.392 38.4099 357.509 38.8485 357.742C39.2872 357.976 39.6279 358.302 39.8705 358.722V354.424H41.0465V364.504H39.9825L39.8705 363.356C39.6465 363.692 39.3245 363.996 38.9045 364.266C38.4845 364.537 37.9572 364.672 37.3225 364.672ZM37.4485 363.65C37.9152 363.65 38.3259 363.543 38.6805 363.328C39.0445 363.104 39.3245 362.796 39.5205 362.404C39.7259 362.012 39.8285 361.555 39.8285 361.032C39.8285 360.51 39.7259 360.052 39.5205 359.66C39.3245 359.268 39.0445 358.965 38.6805 358.75C38.3259 358.526 37.9152 358.414 37.4485 358.414C36.9912 358.414 36.5805 358.526 36.2165 358.75C35.8619 358.965 35.5819 359.268 35.3765 359.66C35.1805 360.052 35.0825 360.51 35.0825 361.032C35.0825 361.555 35.1805 362.012 35.3765 362.404C35.5819 362.796 35.8619 363.104 36.2165 363.328C36.5805 363.543 36.9912 363.65 37.4485 363.65ZM43.6776 356.02C43.4442 356.02 43.2482 355.946 43.0896 355.796C42.9402 355.638 42.8656 355.442 42.8656 355.208C42.8656 354.984 42.9402 354.798 43.0896 354.648C43.2482 354.499 43.4442 354.424 43.6776 354.424C43.9016 354.424 44.0929 354.499 44.2516 354.648C44.4102 354.798 44.4896 354.984 44.4896 355.208C44.4896 355.442 44.4102 355.638 44.2516 355.796C44.0929 355.946 43.9016 356.02 43.6776 356.02ZM43.0896 364.504V357.56H44.2656V364.504H43.0896ZM48.6232 364.672C48.0445 364.672 47.5638 364.574 47.1812 364.378C46.7985 364.182 46.5138 363.921 46.3272 363.594C46.1405 363.268 46.0472 362.913 46.0472 362.53C46.0472 361.821 46.3178 361.275 46.8592 360.892C47.4005 360.51 48.1378 360.318 49.0712 360.318H50.9472V360.234C50.9472 359.628 50.7885 359.17 50.4712 358.862C50.1538 358.545 49.7292 358.386 49.1972 358.386C48.7398 358.386 48.3432 358.503 48.0072 358.736C47.6805 358.96 47.4752 359.292 47.3912 359.73H46.1872C46.2338 359.226 46.4018 358.802 46.6912 358.456C46.9898 358.111 47.3585 357.85 47.7972 357.672C48.2358 357.486 48.7025 357.392 49.1972 357.392C50.1678 357.392 50.8958 357.654 51.3812 358.176C51.8758 358.69 52.1232 359.376 52.1232 360.234V364.504H51.0732L51.0032 363.258C50.8072 363.65 50.5178 363.986 50.1352 364.266C49.7618 364.537 49.2578 364.672 48.6232 364.672ZM48.8052 363.678C49.2532 363.678 49.6358 363.562 49.9532 363.328C50.2798 363.095 50.5272 362.792 50.6952 362.418C50.8632 362.045 50.9472 361.653 50.9472 361.242V361.228H49.1692C48.4785 361.228 47.9885 361.35 47.6992 361.592C47.4192 361.826 47.2792 362.12 47.2792 362.474C47.2792 362.838 47.4098 363.132 47.6712 363.356C47.9418 363.571 48.3198 363.678 48.8052 363.678ZM60.7145 364.672C60.0518 364.672 59.4638 364.523 58.9505 364.224C58.4371 363.916 58.0311 363.492 57.7325 362.95C57.4431 362.409 57.2985 361.77 57.2985 361.032C57.2985 360.304 57.4431 359.67 57.7325 359.128C58.0218 358.578 58.4231 358.153 58.9365 357.854C59.4591 357.546 60.0611 357.392 60.7425 357.392C61.4145 357.392 61.9931 357.546 62.4785 357.854C62.9731 358.153 63.3511 358.55 63.6125 359.044C63.8738 359.539 64.0045 360.071 64.0045 360.64C64.0045 360.743 63.9998 360.846 63.9905 360.948C63.9905 361.051 63.9905 361.168 63.9905 361.298H58.4605C58.4885 361.83 58.6098 362.274 58.8245 362.628C59.0485 362.974 59.3238 363.235 59.6505 363.412C59.9865 363.59 60.3411 363.678 60.7145 363.678C61.1998 363.678 61.6058 363.566 61.9325 363.342C62.2591 363.118 62.4971 362.815 62.6465 362.432H63.8085C63.6218 363.076 63.2625 363.613 62.7305 364.042C62.2078 364.462 61.5358 364.672 60.7145 364.672ZM60.7145 358.386C60.1545 358.386 59.6551 358.559 59.2165 358.904C58.7871 359.24 58.5398 359.735 58.4745 360.388H62.8425C62.8145 359.763 62.5998 359.273 62.1985 358.918C61.7971 358.564 61.3025 358.386 60.7145 358.386ZM65.5632 364.504V357.56H66.6272L66.6972 358.806C66.9212 358.368 67.2432 358.022 67.6632 357.77C68.0832 357.518 68.5592 357.392 69.0912 357.392C69.9125 357.392 70.5658 357.644 71.0512 358.148C71.5458 358.643 71.7932 359.408 71.7932 360.444V364.504H70.6172V360.57C70.6172 359.124 70.0198 358.4 68.8252 358.4C68.2278 358.4 67.7285 358.62 67.3272 359.058C66.9352 359.488 66.7392 360.104 66.7392 360.906V364.504H65.5632ZM75.8849 364.672C75.3062 364.672 74.8256 364.574 74.4429 364.378C74.0602 364.182 73.7756 363.921 73.5889 363.594C73.4022 363.268 73.3089 362.913 73.3089 362.53C73.3089 361.821 73.5796 361.275 74.1209 360.892C74.6622 360.51 75.3996 360.318 76.3329 360.318H78.2089V360.234C78.2089 359.628 78.0502 359.17 77.7329 358.862C77.4156 358.545 76.9909 358.386 76.4589 358.386C76.0016 358.386 75.6049 358.503 75.2689 358.736C74.9422 358.96 74.7369 359.292 74.6529 359.73H73.4489C73.4956 359.226 73.6636 358.802 73.9529 358.456C74.2516 358.111 74.6202 357.85 75.0589 357.672C75.4976 357.486 75.9642 357.392 76.4589 357.392C77.4296 357.392 78.1576 357.654 78.6429 358.176C79.1376 358.69 79.3849 359.376 79.3849 360.234V364.504H78.3349L78.2649 363.258C78.0689 363.65 77.7796 363.986 77.3969 364.266C77.0236 364.537 76.5196 364.672 75.8849 364.672ZM76.0669 363.678C76.5149 363.678 76.8976 363.562 77.2149 363.328C77.5416 363.095 77.7889 362.792 77.9569 362.418C78.1249 362.045 78.2089 361.653 78.2089 361.242V361.228H76.4309C75.7402 361.228 75.2502 361.35 74.9609 361.592C74.6809 361.826 74.5409 362.12 74.5409 362.474C74.5409 362.838 74.6716 363.132 74.9329 363.356C75.2036 363.571 75.5816 363.678 76.0669 363.678ZM84.8591 364.672C84.2898 364.672 83.7811 364.556 83.3331 364.322C82.8944 364.089 82.5584 363.762 82.3251 363.342L82.2131 364.504H81.1491V354.424H82.3251V358.708C82.5491 358.372 82.8664 358.069 83.2771 357.798C83.6971 357.528 84.2291 357.392 84.8731 357.392C85.5638 357.392 86.1658 357.551 86.6791 357.868C87.1924 358.186 87.5891 358.62 87.8691 359.17C88.1584 359.721 88.3031 360.346 88.3031 361.046C88.3031 361.746 88.1584 362.372 87.8691 362.922C87.5891 363.464 87.1878 363.893 86.6651 364.21C86.1518 364.518 85.5498 364.672 84.8591 364.672ZM84.7331 363.65C85.1998 363.65 85.6104 363.543 85.9651 363.328C86.3198 363.104 86.5998 362.796 86.8051 362.404C87.0104 362.012 87.1131 361.555 87.1131 361.032C87.1131 360.51 87.0104 360.052 86.8051 359.66C86.5998 359.268 86.3198 358.965 85.9651 358.75C85.6104 358.526 85.1998 358.414 84.7331 358.414C84.2664 358.414 83.8558 358.526 83.5011 358.75C83.1464 358.965 82.8664 359.268 82.6611 359.66C82.4558 360.052 82.3531 360.51 82.3531 361.032C82.3531 361.555 82.4558 362.012 82.6611 362.404C82.8664 362.796 83.1464 363.104 83.5011 363.328C83.8558 363.543 84.2664 363.65 84.7331 363.65ZM89.9401 364.504V354.424H91.1161V364.504H89.9401ZM96.1656 364.672C95.503 364.672 94.915 364.523 94.4016 364.224C93.8883 363.916 93.4823 363.492 93.1836 362.95C92.8943 362.409 92.7496 361.77 92.7496 361.032C92.7496 360.304 92.8943 359.67 93.1836 359.128C93.473 358.578 93.8743 358.153 94.3876 357.854C94.9103 357.546 95.5123 357.392 96.1936 357.392C96.8656 357.392 97.4443 357.546 97.9296 357.854C98.4243 358.153 98.8023 358.55 99.0636 359.044C99.325 359.539 99.4556 360.071 99.4556 360.64C99.4556 360.743 99.451 360.846 99.4416 360.948C99.4416 361.051 99.4416 361.168 99.4416 361.298H93.9116C93.9396 361.83 94.061 362.274 94.2756 362.628C94.4996 362.974 94.775 363.235 95.1016 363.412C95.4376 363.59 95.7923 363.678 96.1656 363.678C96.651 363.678 97.057 363.566 97.3836 363.342C97.7103 363.118 97.9483 362.815 98.0976 362.432H99.2596C99.073 363.076 98.7136 363.613 98.1816 364.042C97.659 364.462 96.987 364.672 96.1656 364.672ZM96.1656 358.386C95.6056 358.386 95.1063 358.559 94.6676 358.904C94.2383 359.24 93.991 359.735 93.9256 360.388H98.2936C98.2656 359.763 98.051 359.273 97.6496 358.918C97.2483 358.564 96.7536 358.386 96.1656 358.386ZM103.674 364.672C102.844 364.672 102.153 364.462 101.602 364.042C101.052 363.622 100.73 363.053 100.636 362.334H101.84C101.915 362.698 102.106 363.016 102.414 363.286C102.732 363.548 103.156 363.678 103.688 363.678C104.183 363.678 104.547 363.576 104.78 363.37C105.014 363.156 105.13 362.904 105.13 362.614C105.13 362.194 104.976 361.914 104.668 361.774C104.37 361.634 103.945 361.508 103.394 361.396C103.021 361.322 102.648 361.214 102.274 361.074C101.901 360.934 101.588 360.738 101.336 360.486C101.084 360.225 100.958 359.884 100.958 359.464C100.958 358.858 101.182 358.363 101.63 357.98C102.088 357.588 102.704 357.392 103.478 357.392C104.216 357.392 104.818 357.579 105.284 357.952C105.76 358.316 106.036 358.839 106.11 359.52H104.948C104.902 359.166 104.748 358.89 104.486 358.694C104.234 358.489 103.894 358.386 103.464 358.386C103.044 358.386 102.718 358.475 102.484 358.652C102.26 358.83 102.148 359.063 102.148 359.352C102.148 359.632 102.293 359.852 102.582 360.01C102.881 360.169 103.282 360.304 103.786 360.416C104.216 360.51 104.622 360.626 105.004 360.766C105.396 360.897 105.714 361.098 105.956 361.368C106.208 361.63 106.334 362.012 106.334 362.516C106.344 363.142 106.106 363.66 105.62 364.07C105.144 364.472 104.496 364.672 103.674 364.672ZM111.719 367.584V357.56H112.783L112.895 358.708C113.119 358.372 113.437 358.069 113.847 357.798C114.267 357.528 114.799 357.392 115.443 357.392C116.134 357.392 116.736 357.551 117.249 357.868C117.763 358.186 118.159 358.62 118.439 359.17C118.729 359.721 118.873 360.346 118.873 361.046C118.873 361.746 118.729 362.372 118.439 362.922C118.159 363.464 117.758 363.893 117.235 364.21C116.722 364.518 116.12 364.672 115.429 364.672C114.86 364.672 114.351 364.556 113.903 364.322C113.465 364.089 113.129 363.762 112.895 363.342V367.584H111.719ZM115.303 363.65C115.77 363.65 116.181 363.543 116.535 363.328C116.89 363.104 117.17 362.796 117.375 362.404C117.581 362.012 117.683 361.555 117.683 361.032C117.683 360.51 117.581 360.052 117.375 359.66C117.17 359.268 116.89 358.965 116.535 358.75C116.181 358.526 115.77 358.414 115.303 358.414C114.837 358.414 114.426 358.526 114.071 358.75C113.717 358.965 113.437 359.268 113.231 359.66C113.026 360.052 112.923 360.51 112.923 361.032C112.923 361.555 113.026 362.012 113.231 362.404C113.437 362.796 113.717 363.104 114.071 363.328C114.426 363.543 114.837 363.65 115.303 363.65ZM120.51 364.504V357.56H121.574L121.672 358.89C121.887 358.433 122.214 358.069 122.652 357.798C123.091 357.528 123.632 357.392 124.276 357.392V358.624H123.954C123.544 358.624 123.166 358.699 122.82 358.848C122.475 358.988 122.2 359.231 121.994 359.576C121.789 359.922 121.686 360.398 121.686 361.004V364.504H120.51ZM128.501 364.672C127.847 364.672 127.259 364.523 126.737 364.224C126.214 363.926 125.799 363.506 125.491 362.964C125.192 362.414 125.043 361.77 125.043 361.032C125.043 360.295 125.197 359.656 125.505 359.114C125.813 358.564 126.228 358.139 126.751 357.84C127.283 357.542 127.875 357.392 128.529 357.392C129.182 357.392 129.77 357.542 130.293 357.84C130.815 358.139 131.226 358.564 131.525 359.114C131.833 359.656 131.987 360.295 131.987 361.032C131.987 361.77 131.833 362.414 131.525 362.964C131.217 363.506 130.797 363.926 130.265 364.224C129.742 364.523 129.154 364.672 128.501 364.672ZM128.501 363.664C128.902 363.664 129.275 363.566 129.621 363.37C129.966 363.174 130.246 362.88 130.461 362.488C130.675 362.096 130.783 361.611 130.783 361.032C130.783 360.454 130.675 359.968 130.461 359.576C130.255 359.184 129.98 358.89 129.635 358.694C129.289 358.498 128.921 358.4 128.529 358.4C128.127 358.4 127.754 358.498 127.409 358.694C127.063 358.89 126.783 359.184 126.569 359.576C126.354 359.968 126.247 360.454 126.247 361.032C126.247 361.611 126.354 362.096 126.569 362.488C126.783 362.88 127.059 363.174 127.395 363.37C127.74 363.566 128.109 363.664 128.501 363.664ZM136.772 364.672C136.081 364.672 135.474 364.514 134.952 364.196C134.438 363.879 134.037 363.445 133.748 362.894C133.468 362.344 133.328 361.718 133.328 361.018C133.328 360.318 133.472 359.698 133.762 359.156C134.051 358.606 134.452 358.176 134.966 357.868C135.479 357.551 136.086 357.392 136.786 357.392C137.355 357.392 137.859 357.509 138.298 357.742C138.736 357.976 139.077 358.302 139.32 358.722V354.424H140.496V364.504H139.432L139.32 363.356C139.096 363.692 138.774 363.996 138.354 364.266C137.934 364.537 137.406 364.672 136.772 364.672ZM136.898 363.65C137.364 363.65 137.775 363.543 138.13 363.328C138.494 363.104 138.774 362.796 138.97 362.404C139.175 362.012 139.278 361.555 139.278 361.032C139.278 360.51 139.175 360.052 138.97 359.66C138.774 359.268 138.494 358.965 138.13 358.75C137.775 358.526 137.364 358.414 136.898 358.414C136.44 358.414 136.03 358.526 135.666 358.75C135.311 358.965 135.031 359.268 134.826 359.66C134.63 360.052 134.532 360.51 134.532 361.032C134.532 361.555 134.63 362.012 134.826 362.404C135.031 362.796 135.311 363.104 135.666 363.328C136.03 363.543 136.44 363.65 136.898 363.65ZM144.947 364.672C144.125 364.672 143.472 364.425 142.987 363.93C142.501 363.426 142.259 362.656 142.259 361.62V357.56H143.435V361.494C143.435 362.941 144.027 363.664 145.213 363.664C145.819 363.664 146.319 363.45 146.711 363.02C147.112 362.582 147.313 361.961 147.313 361.158V357.56H148.489V364.504H147.425L147.341 363.258C147.126 363.697 146.804 364.042 146.375 364.294C145.955 364.546 145.479 364.672 144.947 364.672ZM153.616 364.672C152.954 364.672 152.356 364.523 151.824 364.224C151.302 363.916 150.886 363.492 150.578 362.95C150.28 362.4 150.13 361.76 150.13 361.032C150.13 360.304 150.28 359.67 150.578 359.128C150.886 358.578 151.302 358.153 151.824 357.854C152.356 357.546 152.954 357.392 153.616 357.392C154.438 357.392 155.128 357.607 155.688 358.036C156.258 358.466 156.617 359.04 156.766 359.758H155.562C155.469 359.329 155.24 358.998 154.876 358.764C154.512 358.522 154.088 358.4 153.602 358.4C153.21 358.4 152.842 358.498 152.496 358.694C152.151 358.89 151.871 359.184 151.656 359.576C151.442 359.968 151.334 360.454 151.334 361.032C151.334 361.611 151.442 362.096 151.656 362.488C151.871 362.88 152.151 363.179 152.496 363.384C152.842 363.58 153.21 363.678 153.602 363.678C154.088 363.678 154.512 363.562 154.876 363.328C155.24 363.086 155.469 362.745 155.562 362.306H156.766C156.626 363.006 156.272 363.576 155.702 364.014C155.133 364.453 154.438 364.672 153.616 364.672ZM160.961 364.504C160.327 364.504 159.827 364.35 159.463 364.042C159.099 363.734 158.917 363.179 158.917 362.376V358.554H157.713V357.56H158.917L159.071 355.894H160.093V357.56H162.137V358.554H160.093V362.376C160.093 362.815 160.182 363.114 160.359 363.272C160.537 363.422 160.849 363.496 161.297 363.496H162.025V364.504H160.961ZM166.292 364.672C165.461 364.672 164.77 364.462 164.22 364.042C163.669 363.622 163.347 363.053 163.254 362.334H164.458C164.532 362.698 164.724 363.016 165.032 363.286C165.349 363.548 165.774 363.678 166.306 363.678C166.8 363.678 167.164 363.576 167.398 363.37C167.631 363.156 167.748 362.904 167.748 362.614C167.748 362.194 167.594 361.914 167.286 361.774C166.987 361.634 166.562 361.508 166.012 361.396C165.638 361.322 165.265 361.214 164.892 361.074C164.518 360.934 164.206 360.738 163.954 360.486C163.702 360.225 163.576 359.884 163.576 359.464C163.576 358.858 163.8 358.363 164.248 357.98C164.705 357.588 165.321 357.392 166.096 357.392C166.833 357.392 167.435 357.579 167.902 357.952C168.378 358.316 168.653 358.839 168.728 359.52H167.566C167.519 359.166 167.365 358.89 167.104 358.694C166.852 358.489 166.511 358.386 166.082 358.386C165.662 358.386 165.335 358.475 165.102 358.652C164.878 358.83 164.766 359.063 164.766 359.352C164.766 359.632 164.91 359.852 165.2 360.01C165.498 360.169 165.9 360.304 166.404 360.416C166.833 360.51 167.239 360.626 167.622 360.766C168.014 360.897 168.331 361.098 168.574 361.368C168.826 361.63 168.952 362.012 168.952 362.516C168.961 363.142 168.723 363.66 168.238 364.07C167.762 364.472 167.113 364.672 166.292 364.672ZM174.337 364.504V357.56H175.401L175.499 358.89C175.713 358.433 176.04 358.069 176.479 357.798C176.917 357.528 177.459 357.392 178.103 357.392V358.624H177.781C177.37 358.624 176.992 358.699 176.647 358.848C176.301 358.988 176.026 359.231 175.821 359.576C175.615 359.922 175.513 360.398 175.513 361.004V364.504H174.337ZM182.285 364.672C181.622 364.672 181.034 364.523 180.521 364.224C180.007 363.916 179.601 363.492 179.303 362.95C179.013 362.409 178.869 361.77 178.869 361.032C178.869 360.304 179.013 359.67 179.303 359.128C179.592 358.578 179.993 358.153 180.507 357.854C181.029 357.546 181.631 357.392 182.313 357.392C182.985 357.392 183.563 357.546 184.049 357.854C184.543 358.153 184.921 358.55 185.183 359.044C185.444 359.539 185.575 360.071 185.575 360.64C185.575 360.743 185.57 360.846 185.561 360.948C185.561 361.051 185.561 361.168 185.561 361.298H180.031C180.059 361.83 180.18 362.274 180.395 362.628C180.619 362.974 180.894 363.235 181.221 363.412C181.557 363.59 181.911 363.678 182.285 363.678C182.77 363.678 183.176 363.566 183.503 363.342C183.829 363.118 184.067 362.815 184.217 362.432H185.379C185.192 363.076 184.833 363.613 184.301 364.042C183.778 364.462 183.106 364.672 182.285 364.672ZM182.285 358.386C181.725 358.386 181.225 358.559 180.787 358.904C180.357 359.24 180.11 359.735 180.045 360.388H184.413C184.385 359.763 184.17 359.273 183.769 358.918C183.367 358.564 182.873 358.386 182.285 358.386ZM189.443 364.672C188.865 364.672 188.384 364.574 188.001 364.378C187.619 364.182 187.334 363.921 187.147 363.594C186.961 363.268 186.867 362.913 186.867 362.53C186.867 361.821 187.138 361.275 187.679 360.892C188.221 360.51 188.958 360.318 189.891 360.318H191.767V360.234C191.767 359.628 191.609 359.17 191.291 358.862C190.974 358.545 190.549 358.386 190.017 358.386C189.56 358.386 189.163 358.503 188.827 358.736C188.501 358.96 188.295 359.292 188.211 359.73H187.007C187.054 359.226 187.222 358.802 187.511 358.456C187.81 358.111 188.179 357.85 188.617 357.672C189.056 357.486 189.523 357.392 190.017 357.392C190.988 357.392 191.716 357.654 192.201 358.176C192.696 358.69 192.943 359.376 192.943 360.234V364.504H191.893L191.823 363.258C191.627 363.65 191.338 363.986 190.955 364.266C190.582 364.537 190.078 364.672 189.443 364.672ZM189.625 363.678C190.073 363.678 190.456 363.562 190.773 363.328C191.1 363.095 191.347 362.792 191.515 362.418C191.683 362.045 191.767 361.653 191.767 361.242V361.228H189.989C189.299 361.228 188.809 361.35 188.519 361.592C188.239 361.826 188.099 362.12 188.099 362.474C188.099 362.838 188.23 363.132 188.491 363.356C188.762 363.571 189.14 363.678 189.625 363.678ZM197.9 364.672C197.237 364.672 196.64 364.523 196.108 364.224C195.585 363.916 195.17 363.492 194.862 362.95C194.563 362.4 194.414 361.76 194.414 361.032C194.414 360.304 194.563 359.67 194.862 359.128C195.17 358.578 195.585 358.153 196.108 357.854C196.64 357.546 197.237 357.392 197.9 357.392C198.721 357.392 199.412 357.607 199.972 358.036C200.541 358.466 200.9 359.04 201.05 359.758H199.846C199.752 359.329 199.524 358.998 199.16 358.764C198.796 358.522 198.371 358.4 197.886 358.4C197.494 358.4 197.125 358.498 196.78 358.694C196.434 358.89 196.154 359.184 195.94 359.576C195.725 359.968 195.618 360.454 195.618 361.032C195.618 361.611 195.725 362.096 195.94 362.488C196.154 362.88 196.434 363.179 196.78 363.384C197.125 363.58 197.494 363.678 197.886 363.678C198.371 363.678 198.796 363.562 199.16 363.328C199.524 363.086 199.752 362.745 199.846 362.306H201.05C200.91 363.006 200.555 363.576 199.986 364.014C199.416 364.453 198.721 364.672 197.9 364.672ZM202.692 364.504V354.424H203.868V358.75C204.101 358.321 204.433 357.99 204.862 357.756C205.291 357.514 205.758 357.392 206.262 357.392C207.065 357.392 207.709 357.644 208.194 358.148C208.679 358.643 208.922 359.408 208.922 360.444V364.504H207.76V360.57C207.76 359.124 207.177 358.4 206.01 358.4C205.403 358.4 204.895 358.62 204.484 359.058C204.073 359.488 203.868 360.104 203.868 360.906V364.504H202.692ZM47.3208 382.504C46.6862 382.504 46.1868 382.35 45.8228 382.042C45.4588 381.734 45.2768 381.179 45.2768 380.376V376.554H44.0728V375.56H45.2768L45.4308 373.894H46.4528V375.56H48.4968V376.554H46.4528V380.376C46.4528 380.815 46.5415 381.114 46.7188 381.272C46.8962 381.422 47.2088 381.496 47.6568 381.496H48.3848V382.504H47.3208ZM49.9909 382.504V372.424H51.1669V376.75C51.4002 376.321 51.7316 375.99 52.1609 375.756C52.5902 375.514 53.0569 375.392 53.5609 375.392C54.3636 375.392 55.0076 375.644 55.4929 376.148C55.9782 376.643 56.2209 377.408 56.2209 378.444V382.504H55.0589V378.57C55.0589 377.124 54.4756 376.4 53.3089 376.4C52.7022 376.4 52.1936 376.62 51.7829 377.058C51.3722 377.488 51.1669 378.104 51.1669 378.906V382.504H49.9909ZM61.1246 382.672C60.462 382.672 59.874 382.523 59.3606 382.224C58.8473 381.916 58.4413 381.492 58.1426 380.95C57.8533 380.409 57.7086 379.77 57.7086 379.032C57.7086 378.304 57.8533 377.67 58.1426 377.128C58.432 376.578 58.8333 376.153 59.3466 375.854C59.8693 375.546 60.4713 375.392 61.1526 375.392C61.8246 375.392 62.4033 375.546 62.8886 375.854C63.3833 376.153 63.7613 376.55 64.0226 377.044C64.284 377.539 64.4146 378.071 64.4146 378.64C64.4146 378.743 64.41 378.846 64.4006 378.948C64.4006 379.051 64.4006 379.168 64.4006 379.298H58.8706C58.8986 379.83 59.02 380.274 59.2346 380.628C59.4586 380.974 59.734 381.235 60.0606 381.412C60.3966 381.59 60.7513 381.678 61.1246 381.678C61.61 381.678 62.016 381.566 62.3426 381.342C62.6693 381.118 62.9073 380.815 63.0566 380.432H64.2186C64.032 381.076 63.6726 381.613 63.1406 382.042C62.618 382.462 61.946 382.672 61.1246 382.672ZM61.1246 376.386C60.5646 376.386 60.0653 376.559 59.6266 376.904C59.1973 377.24 58.95 377.735 58.8846 378.388H63.2526C63.2246 377.763 63.01 377.273 62.6086 376.918C62.2073 376.564 61.7126 376.386 61.1246 376.386ZM69.6784 382.504V375.56H70.7424L70.8404 376.89C71.0551 376.433 71.3817 376.069 71.8204 375.798C72.2591 375.528 72.8004 375.392 73.4444 375.392V376.624H73.1224C72.7117 376.624 72.3337 376.699 71.9884 376.848C71.6431 376.988 71.3677 377.231 71.1624 377.576C70.9571 377.922 70.8544 378.398 70.8544 379.004V382.504H69.6784ZM75.4783 374.02C75.245 374.02 75.049 373.946 74.8903 373.796C74.741 373.638 74.6663 373.442 74.6663 373.208C74.6663 372.984 74.741 372.798 74.8903 372.648C75.049 372.499 75.245 372.424 75.4783 372.424C75.7023 372.424 75.8937 372.499 76.0523 372.648C76.211 372.798 76.2903 372.984 76.2903 373.208C76.2903 373.442 76.211 373.638 76.0523 373.796C75.8937 373.946 75.7023 374.02 75.4783 374.02ZM74.8903 382.504V375.56H76.0663V382.504H74.8903ZM80.8579 380.32C80.4659 380.32 80.1066 380.269 79.7799 380.166L79.0799 380.824C79.1826 380.899 79.3086 380.964 79.4579 381.02C79.6166 381.067 79.8406 381.114 80.1299 381.16C80.4193 381.198 80.8253 381.24 81.3479 381.286C82.2813 381.352 82.9486 381.566 83.3499 381.93C83.7513 382.294 83.9519 382.77 83.9519 383.358C83.9519 383.76 83.8399 384.142 83.6159 384.506C83.4013 384.87 83.0653 385.169 82.6079 385.402C82.1599 385.636 81.5813 385.752 80.8719 385.752C80.2466 385.752 79.6913 385.668 79.2059 385.5C78.7206 385.342 78.3426 385.094 78.0719 384.758C77.8013 384.432 77.6659 384.016 77.6659 383.512C77.6659 383.251 77.7359 382.966 77.8759 382.658C78.0159 382.36 78.2773 382.075 78.6599 381.804C78.4546 381.72 78.2773 381.632 78.1279 381.538C77.9879 381.436 77.8573 381.324 77.7359 381.202V380.88L78.9259 379.704C78.3753 379.238 78.0999 378.622 78.0999 377.856C78.0999 377.399 78.2073 376.984 78.4219 376.61C78.6366 376.237 78.9493 375.943 79.3599 375.728C79.7706 375.504 80.2699 375.392 80.8579 375.392C81.2593 375.392 81.6233 375.448 81.9499 375.56H84.5119V376.442L83.2099 376.498C83.4806 376.89 83.6159 377.343 83.6159 377.856C83.6159 378.314 83.5039 378.729 83.2799 379.102C83.0653 379.476 82.7526 379.774 82.3419 379.998C81.9406 380.213 81.4459 380.32 80.8579 380.32ZM80.8579 379.354C81.3526 379.354 81.7446 379.228 82.0339 378.976C82.3326 378.715 82.4819 378.342 82.4819 377.856C82.4819 377.38 82.3326 377.016 82.0339 376.764C81.7446 376.503 81.3526 376.372 80.8579 376.372C80.3539 376.372 79.9526 376.503 79.6539 376.764C79.3646 377.016 79.2199 377.38 79.2199 377.856C79.2199 378.342 79.3646 378.715 79.6539 378.976C79.9526 379.228 80.3539 379.354 80.8579 379.354ZM78.8139 383.4C78.8139 383.867 79.0099 384.212 79.4019 384.436C79.7939 384.67 80.2839 384.786 80.8719 384.786C81.4506 384.786 81.9126 384.66 82.2579 384.408C82.6126 384.156 82.7899 383.82 82.7899 383.4C82.7899 383.102 82.6686 382.84 82.4259 382.616C82.1833 382.402 81.7353 382.276 81.0819 382.238C80.5686 382.201 80.1253 382.154 79.7519 382.098C79.3693 382.304 79.1173 382.523 78.9959 382.756C78.8746 382.999 78.8139 383.214 78.8139 383.4ZM85.8386 382.504V372.424H87.0146V376.75C87.2479 376.321 87.5792 375.99 88.0086 375.756C88.4379 375.514 88.9046 375.392 89.4086 375.392C90.2112 375.392 90.8552 375.644 91.3406 376.148C91.8259 376.643 92.0686 377.408 92.0686 378.444V382.504H90.9066V378.57C90.9066 377.124 90.3232 376.4 89.1566 376.4C88.5499 376.4 88.0412 376.62 87.6306 377.058C87.2199 377.488 87.0146 378.104 87.0146 378.906V382.504H85.8386ZM96.5943 382.504C95.9596 382.504 95.4603 382.35 95.0963 382.042C94.7323 381.734 94.5503 381.179 94.5503 380.376V376.554H93.3463V375.56H94.5503L94.7043 373.894H95.7263V375.56H97.7703V376.554H95.7263V380.376C95.7263 380.815 95.8149 381.114 95.9923 381.272C96.1696 381.422 96.4823 381.496 96.9303 381.496H97.6583V382.504H96.5943ZM106.679 382.672C106.11 382.672 105.601 382.556 105.153 382.322C104.715 382.089 104.379 381.762 104.145 381.342L104.033 382.504H102.969V372.424H104.145V376.708C104.369 376.372 104.687 376.069 105.097 375.798C105.517 375.528 106.049 375.392 106.693 375.392C107.384 375.392 107.986 375.551 108.499 375.868C109.013 376.186 109.409 376.62 109.689 377.17C109.979 377.721 110.123 378.346 110.123 379.046C110.123 379.746 109.979 380.372 109.689 380.922C109.409 381.464 109.008 381.893 108.485 382.21C107.972 382.518 107.37 382.672 106.679 382.672ZM106.553 381.65C107.02 381.65 107.431 381.543 107.785 381.328C108.14 381.104 108.42 380.796 108.625 380.404C108.831 380.012 108.933 379.555 108.933 379.032C108.933 378.51 108.831 378.052 108.625 377.66C108.42 377.268 108.14 376.965 107.785 376.75C107.431 376.526 107.02 376.414 106.553 376.414C106.087 376.414 105.676 376.526 105.321 376.75C104.967 376.965 104.687 377.268 104.481 377.66C104.276 378.052 104.173 378.51 104.173 379.032C104.173 379.555 104.276 380.012 104.481 380.404C104.687 380.796 104.967 381.104 105.321 381.328C105.676 381.543 106.087 381.65 106.553 381.65ZM114.294 382.672C113.473 382.672 112.82 382.425 112.334 381.93C111.849 381.426 111.606 380.656 111.606 379.62V375.56H112.782V379.494C112.782 380.941 113.375 381.664 114.56 381.664C115.167 381.664 115.666 381.45 116.058 381.02C116.46 380.582 116.66 379.961 116.66 379.158V375.56H117.836V382.504H116.772L116.688 381.258C116.474 381.697 116.152 382.042 115.722 382.294C115.302 382.546 114.826 382.672 114.294 382.672ZM122.432 382.672C121.601 382.672 120.911 382.462 120.36 382.042C119.809 381.622 119.487 381.053 119.394 380.334H120.598C120.673 380.698 120.864 381.016 121.172 381.286C121.489 381.548 121.914 381.678 122.446 381.678C122.941 381.678 123.305 381.576 123.538 381.37C123.771 381.156 123.888 380.904 123.888 380.614C123.888 380.194 123.734 379.914 123.426 379.774C123.127 379.634 122.703 379.508 122.152 379.396C121.779 379.322 121.405 379.214 121.032 379.074C120.659 378.934 120.346 378.738 120.094 378.486C119.842 378.225 119.716 377.884 119.716 377.464C119.716 376.858 119.94 376.363 120.388 375.98C120.845 375.588 121.461 375.392 122.236 375.392C122.973 375.392 123.575 375.579 124.042 375.952C124.518 376.316 124.793 376.839 124.868 377.52H123.706C123.659 377.166 123.505 376.89 123.244 376.694C122.992 376.489 122.651 376.386 122.222 376.386C121.802 376.386 121.475 376.475 121.242 376.652C121.018 376.83 120.906 377.063 120.906 377.352C120.906 377.632 121.051 377.852 121.34 378.01C121.639 378.169 122.04 378.304 122.544 378.416C122.973 378.51 123.379 378.626 123.762 378.766C124.154 378.897 124.471 379.098 124.714 379.368C124.966 379.63 125.092 380.012 125.092 380.516C125.101 381.142 124.863 381.66 124.378 382.07C123.902 382.472 123.253 382.672 122.432 382.672ZM127.486 374.02C127.253 374.02 127.057 373.946 126.898 373.796C126.749 373.638 126.674 373.442 126.674 373.208C126.674 372.984 126.749 372.798 126.898 372.648C127.057 372.499 127.253 372.424 127.486 372.424C127.71 372.424 127.901 372.499 128.06 372.648C128.219 372.798 128.298 372.984 128.298 373.208C128.298 373.442 128.219 373.638 128.06 373.796C127.901 373.946 127.71 374.02 127.486 374.02ZM126.898 382.504V375.56H128.074V382.504H126.898ZM130.122 382.504V375.56H131.186L131.256 376.806C131.48 376.368 131.802 376.022 132.222 375.77C132.642 375.518 133.118 375.392 133.65 375.392C134.471 375.392 135.124 375.644 135.61 376.148C136.104 376.643 136.352 377.408 136.352 378.444V382.504H135.176V378.57C135.176 377.124 134.578 376.4 133.384 376.4C132.786 376.4 132.287 376.62 131.886 377.058C131.494 377.488 131.298 378.104 131.298 378.906V382.504H130.122ZM141.255 382.672C140.593 382.672 140.005 382.523 139.491 382.224C138.978 381.916 138.572 381.492 138.273 380.95C137.984 380.409 137.839 379.77 137.839 379.032C137.839 378.304 137.984 377.67 138.273 377.128C138.563 376.578 138.964 376.153 139.477 375.854C140 375.546 140.602 375.392 141.283 375.392C141.955 375.392 142.534 375.546 143.019 375.854C143.514 376.153 143.892 376.55 144.153 377.044C144.415 377.539 144.545 378.071 144.545 378.64C144.545 378.743 144.541 378.846 144.531 378.948C144.531 379.051 144.531 379.168 144.531 379.298H139.001C139.029 379.83 139.151 380.274 139.365 380.628C139.589 380.974 139.865 381.235 140.191 381.412C140.527 381.59 140.882 381.678 141.255 381.678C141.741 381.678 142.147 381.566 142.473 381.342C142.8 381.118 143.038 380.815 143.187 380.432H144.349C144.163 381.076 143.803 381.613 143.271 382.042C142.749 382.462 142.077 382.672 141.255 382.672ZM141.255 376.386C140.695 376.386 140.196 376.559 139.757 376.904C139.328 377.24 139.081 377.735 139.015 378.388H143.383C143.355 377.763 143.141 377.273 142.739 376.918C142.338 376.564 141.843 376.386 141.255 376.386ZM148.764 382.672C147.934 382.672 147.243 382.462 146.692 382.042C146.142 381.622 145.82 381.053 145.726 380.334H146.93C147.005 380.698 147.196 381.016 147.504 381.286C147.822 381.548 148.246 381.678 148.778 381.678C149.273 381.678 149.637 381.576 149.87 381.37C150.104 381.156 150.22 380.904 150.22 380.614C150.22 380.194 150.066 379.914 149.758 379.774C149.46 379.634 149.035 379.508 148.484 379.396C148.111 379.322 147.738 379.214 147.364 379.074C146.991 378.934 146.678 378.738 146.426 378.486C146.174 378.225 146.048 377.884 146.048 377.464C146.048 376.858 146.272 376.363 146.72 375.98C147.178 375.588 147.794 375.392 148.568 375.392C149.306 375.392 149.908 375.579 150.374 375.952C150.85 376.316 151.126 376.839 151.2 377.52H150.038C149.992 377.166 149.838 376.89 149.576 376.694C149.324 376.489 148.984 376.386 148.554 376.386C148.134 376.386 147.808 376.475 147.574 376.652C147.35 376.83 147.238 377.063 147.238 377.352C147.238 377.632 147.383 377.852 147.672 378.01C147.971 378.169 148.372 378.304 148.876 378.416C149.306 378.51 149.712 378.626 150.094 378.766C150.486 378.897 150.804 379.098 151.046 379.368C151.298 379.63 151.424 380.012 151.424 380.516C151.434 381.142 151.196 381.66 150.71 382.07C150.234 382.472 149.586 382.672 148.764 382.672ZM155.764 382.672C154.934 382.672 154.243 382.462 153.692 382.042C153.142 381.622 152.82 381.053 152.726 380.334H153.93C154.005 380.698 154.196 381.016 154.504 381.286C154.822 381.548 155.246 381.678 155.778 381.678C156.273 381.678 156.637 381.576 156.87 381.37C157.104 381.156 157.22 380.904 157.22 380.614C157.22 380.194 157.066 379.914 156.758 379.774C156.46 379.634 156.035 379.508 155.484 379.396C155.111 379.322 154.738 379.214 154.364 379.074C153.991 378.934 153.678 378.738 153.426 378.486C153.174 378.225 153.048 377.884 153.048 377.464C153.048 376.858 153.272 376.363 153.72 375.98C154.178 375.588 154.794 375.392 155.568 375.392C156.306 375.392 156.908 375.579 157.374 375.952C157.85 376.316 158.126 376.839 158.2 377.52H157.038C156.992 377.166 156.838 376.89 156.576 376.694C156.324 376.489 155.984 376.386 155.554 376.386C155.134 376.386 154.808 376.475 154.574 376.652C154.35 376.83 154.238 377.063 154.238 377.352C154.238 377.632 154.383 377.852 154.672 378.01C154.971 378.169 155.372 378.304 155.876 378.416C156.306 378.51 156.712 378.626 157.094 378.766C157.486 378.897 157.804 379.098 158.046 379.368C158.298 379.63 158.424 380.012 158.424 380.516C158.434 381.142 158.196 381.66 157.71 382.07C157.234 382.472 156.586 382.672 155.764 382.672ZM163.226 382.672C162.564 382.672 161.976 382.523 161.462 382.224C160.949 381.916 160.543 381.492 160.244 380.95C159.955 380.409 159.81 379.77 159.81 379.032C159.81 378.304 159.955 377.67 160.244 377.128C160.534 376.578 160.935 376.153 161.448 375.854C161.971 375.546 162.573 375.392 163.254 375.392C163.926 375.392 164.505 375.546 164.99 375.854C165.485 376.153 165.863 376.55 166.124 377.044C166.386 377.539 166.516 378.071 166.516 378.64C166.516 378.743 166.512 378.846 166.502 378.948C166.502 379.051 166.502 379.168 166.502 379.298H160.972C161 379.83 161.122 380.274 161.336 380.628C161.56 380.974 161.836 381.235 162.162 381.412C162.498 381.59 162.853 381.678 163.226 381.678C163.712 381.678 164.118 381.566 164.444 381.342C164.771 381.118 165.009 380.815 165.158 380.432H166.32C166.134 381.076 165.774 381.613 165.242 382.042C164.72 382.462 164.048 382.672 163.226 382.672ZM163.226 376.386C162.666 376.386 162.167 376.559 161.728 376.904C161.299 377.24 161.052 377.735 160.986 378.388H165.354C165.326 377.763 165.112 377.273 164.71 376.918C164.309 376.564 163.814 376.386 163.226 376.386ZM170.735 382.672C169.904 382.672 169.214 382.462 168.663 382.042C168.112 381.622 167.79 381.053 167.697 380.334H168.901C168.976 380.698 169.167 381.016 169.475 381.286C169.792 381.548 170.217 381.678 170.749 381.678C171.244 381.678 171.608 381.576 171.841 381.37C172.074 381.156 172.191 380.904 172.191 380.614C172.191 380.194 172.037 379.914 171.729 379.774C171.43 379.634 171.006 379.508 170.455 379.396C170.082 379.322 169.708 379.214 169.335 379.074C168.962 378.934 168.649 378.738 168.397 378.486C168.145 378.225 168.019 377.884 168.019 377.464C168.019 376.858 168.243 376.363 168.691 375.98C169.148 375.588 169.764 375.392 170.539 375.392C171.276 375.392 171.878 375.579 172.345 375.952C172.821 376.316 173.096 376.839 173.171 377.52H172.009C171.962 377.166 171.808 376.89 171.547 376.694C171.295 376.489 170.954 376.386 170.525 376.386C170.105 376.386 169.778 376.475 169.545 376.652C169.321 376.83 169.209 377.063 169.209 377.352C169.209 377.632 169.354 377.852 169.643 378.01C169.942 378.169 170.343 378.304 170.847 378.416C171.276 378.51 171.682 378.626 172.065 378.766C172.457 378.897 172.774 379.098 173.017 379.368C173.269 379.63 173.395 380.012 173.395 380.516C173.404 381.142 173.166 381.66 172.681 382.07C172.205 382.472 171.556 382.672 170.735 382.672Z" fill="#222222"/>
<path d="M249.076 87.6177C248.358 87.6177 247.723 87.4964 247.172 87.2537C246.622 87.0017 246.188 86.647 245.87 86.1897C245.553 85.723 245.39 85.1584 245.38 84.4957H247.27C247.289 84.953 247.452 85.3404 247.76 85.6577C248.078 85.9657 248.512 86.1197 249.062 86.1197C249.538 86.1197 249.916 86.0077 250.196 85.7837C250.476 85.5504 250.616 85.2424 250.616 84.8597C250.616 84.4584 250.49 84.1457 250.238 83.9217C249.996 83.6977 249.669 83.5157 249.258 83.3757C248.848 83.2357 248.409 83.0864 247.942 82.9277C247.186 82.6664 246.608 82.3304 246.206 81.9197C245.814 81.509 245.618 80.963 245.618 80.2817C245.609 79.703 245.744 79.2084 246.024 78.7977C246.314 78.3777 246.706 78.0557 247.2 77.8317C247.695 77.5984 248.264 77.4817 248.908 77.4817C249.562 77.4817 250.136 77.5984 250.63 77.8317C251.134 78.065 251.526 78.3917 251.806 78.8117C252.096 79.2317 252.25 79.731 252.268 80.3097H250.35C250.341 79.9644 250.206 79.661 249.944 79.3997C249.692 79.129 249.338 78.9937 248.88 78.9937C248.488 78.9844 248.157 79.0824 247.886 79.2877C247.625 79.4837 247.494 79.773 247.494 80.1557C247.494 80.4824 247.597 80.7437 247.802 80.9397C248.008 81.1264 248.288 81.285 248.642 81.4157C248.997 81.5464 249.403 81.6864 249.86 81.8357C250.346 82.0037 250.789 82.1997 251.19 82.4237C251.592 82.6477 251.914 82.9464 252.156 83.3197C252.399 83.6837 252.52 84.155 252.52 84.7337C252.52 85.247 252.39 85.723 252.128 86.1617C251.867 86.6004 251.48 86.955 250.966 87.2257C250.453 87.487 249.823 87.6177 249.076 87.6177ZM256.436 87.6177C255.839 87.6177 255.349 87.5244 254.966 87.3377C254.583 87.1417 254.299 86.885 254.112 86.5677C253.925 86.2504 253.832 85.9004 253.832 85.5177C253.832 84.8737 254.084 84.351 254.588 83.9497C255.092 83.5484 255.848 83.3477 256.856 83.3477H258.62V83.1797C258.62 82.7037 258.485 82.3537 258.214 82.1297C257.943 81.9057 257.607 81.7937 257.206 81.7937C256.842 81.7937 256.525 81.8824 256.254 82.0597C255.983 82.2277 255.815 82.4797 255.75 82.8157H254C254.047 82.3117 254.215 81.873 254.504 81.4997C254.803 81.1264 255.185 80.8417 255.652 80.6457C256.119 80.4404 256.641 80.3377 257.22 80.3377C258.209 80.3377 258.989 80.585 259.558 81.0797C260.127 81.5744 260.412 82.2744 260.412 83.1797V87.4497H258.886L258.718 86.3297C258.513 86.703 258.223 87.011 257.85 87.2537C257.486 87.4964 257.015 87.6177 256.436 87.6177ZM256.842 86.2177C257.355 86.2177 257.752 86.0497 258.032 85.7137C258.321 85.3777 258.503 84.9624 258.578 84.4677H257.052C256.576 84.4677 256.235 84.5564 256.03 84.7337C255.825 84.9017 255.722 85.1117 255.722 85.3637C255.722 85.6344 255.825 85.8444 256.03 85.9937C256.235 86.143 256.506 86.2177 256.842 86.2177ZM262.122 87.4497V77.3697H263.914V87.4497H262.122ZM269.119 87.6177C268.419 87.6177 267.798 87.4684 267.257 87.1697C266.716 86.871 266.291 86.451 265.983 85.9097C265.675 85.3684 265.521 84.743 265.521 84.0337C265.521 83.315 265.67 82.6757 265.969 82.1157C266.277 81.5557 266.697 81.1217 267.229 80.8137C267.77 80.4964 268.405 80.3377 269.133 80.3377C269.814 80.3377 270.416 80.487 270.939 80.7857C271.462 81.0844 271.868 81.495 272.157 82.0177C272.456 82.531 272.605 83.105 272.605 83.7397C272.605 83.8424 272.6 83.9497 272.591 84.0617C272.591 84.1737 272.586 84.2904 272.577 84.4117H267.299C267.336 84.953 267.523 85.3777 267.859 85.6857C268.204 85.9937 268.62 86.1477 269.105 86.1477C269.469 86.1477 269.772 86.0684 270.015 85.9097C270.267 85.7417 270.454 85.527 270.575 85.2657H272.395C272.264 85.7044 272.045 86.1057 271.737 86.4697C271.438 86.8244 271.065 87.1044 270.617 87.3097C270.178 87.515 269.679 87.6177 269.119 87.6177ZM269.133 81.7937C268.694 81.7937 268.307 81.9197 267.971 82.1717C267.635 82.4144 267.42 82.7877 267.327 83.2917H270.785C270.757 82.8344 270.589 82.4704 270.281 82.1997C269.973 81.929 269.59 81.7937 269.133 81.7937ZM276.982 87.6177C276.366 87.6177 275.825 87.5197 275.358 87.3237C274.891 87.1184 274.518 86.8384 274.238 86.4837C273.958 86.129 273.79 85.7184 273.734 85.2517H275.54C275.596 85.5224 275.745 85.7557 275.988 85.9517C276.24 86.1384 276.562 86.2317 276.954 86.2317C277.346 86.2317 277.631 86.1524 277.808 85.9937C277.995 85.835 278.088 85.653 278.088 85.4477C278.088 85.149 277.957 84.9484 277.696 84.8457C277.435 84.7337 277.071 84.6264 276.604 84.5237C276.305 84.4584 276.002 84.379 275.694 84.2857C275.386 84.1924 275.101 84.0757 274.84 83.9357C274.588 83.7864 274.383 83.5997 274.224 83.3757C274.065 83.1424 273.986 82.8577 273.986 82.5217C273.986 81.9057 274.229 81.3877 274.714 80.9677C275.209 80.5477 275.899 80.3377 276.786 80.3377C277.607 80.3377 278.261 80.529 278.746 80.9117C279.241 81.2944 279.535 81.8217 279.628 82.4937H277.934C277.831 81.9804 277.444 81.7237 276.772 81.7237C276.436 81.7237 276.175 81.789 275.988 81.9197C275.811 82.0504 275.722 82.2137 275.722 82.4097C275.722 82.615 275.857 82.7784 276.128 82.8997C276.399 83.021 276.758 83.133 277.206 83.2357C277.691 83.3477 278.135 83.4737 278.536 83.6137C278.947 83.7444 279.273 83.945 279.516 84.2157C279.759 84.477 279.88 84.855 279.88 85.3497C279.889 85.779 279.777 86.1664 279.544 86.5117C279.311 86.857 278.975 87.1277 278.536 87.3237C278.097 87.5197 277.579 87.6177 276.982 87.6177ZM287.898 87.4497C287.17 87.4497 286.586 87.2724 286.148 86.9177C285.709 86.563 285.49 85.933 285.49 85.0277V82.0037H284.3V80.5057H285.49L285.7 78.6437H287.282V80.5057H289.158V82.0037H287.282V85.0417C287.282 85.3777 287.352 85.611 287.492 85.7417C287.641 85.863 287.893 85.9237 288.248 85.9237H289.116V87.4497H287.898ZM293.892 87.6177C293.192 87.6177 292.572 87.4684 292.03 87.1697C291.489 86.871 291.064 86.451 290.756 85.9097C290.448 85.3684 290.294 84.743 290.294 84.0337C290.294 83.315 290.444 82.6757 290.742 82.1157C291.05 81.5557 291.47 81.1217 292.002 80.8137C292.544 80.4964 293.178 80.3377 293.906 80.3377C294.588 80.3377 295.19 80.487 295.712 80.7857C296.235 81.0844 296.641 81.495 296.93 82.0177C297.229 82.531 297.378 83.105 297.378 83.7397C297.378 83.8424 297.374 83.9497 297.364 84.0617C297.364 84.1737 297.36 84.2904 297.35 84.4117H292.072C292.11 84.953 292.296 85.3777 292.632 85.6857C292.978 85.9937 293.393 86.1477 293.878 86.1477C294.242 86.1477 294.546 86.0684 294.788 85.9097C295.04 85.7417 295.227 85.527 295.348 85.2657H297.168C297.038 85.7044 296.818 86.1057 296.51 86.4697C296.212 86.8244 295.838 87.1044 295.39 87.3097C294.952 87.515 294.452 87.6177 293.892 87.6177ZM293.906 81.7937C293.468 81.7937 293.08 81.9197 292.744 82.1717C292.408 82.4144 292.194 82.7877 292.1 83.2917H295.558C295.53 82.8344 295.362 82.4704 295.054 82.1997C294.746 81.929 294.364 81.7937 293.906 81.7937ZM301.28 87.6177C300.682 87.6177 300.192 87.5244 299.81 87.3377C299.427 87.1417 299.142 86.885 298.956 86.5677C298.769 86.2504 298.676 85.9004 298.676 85.5177C298.676 84.8737 298.928 84.351 299.432 83.9497C299.936 83.5484 300.692 83.3477 301.7 83.3477H303.464V83.1797C303.464 82.7037 303.328 82.3537 303.058 82.1297C302.787 81.9057 302.451 81.7937 302.05 81.7937C301.686 81.7937 301.368 81.8824 301.098 82.0597C300.827 82.2277 300.659 82.4797 300.594 82.8157H298.844C298.89 82.3117 299.058 81.873 299.348 81.4997C299.646 81.1264 300.029 80.8417 300.496 80.6457C300.962 80.4404 301.485 80.3377 302.064 80.3377C303.053 80.3377 303.832 80.585 304.402 81.0797C304.971 81.5744 305.256 82.2744 305.256 83.1797V87.4497H303.73L303.562 86.3297C303.356 86.703 303.067 87.011 302.694 87.2537C302.33 87.4964 301.858 87.6177 301.28 87.6177ZM301.686 86.2177C302.199 86.2177 302.596 86.0497 302.876 85.7137C303.165 85.3777 303.347 84.9624 303.422 84.4677H301.896C301.42 84.4677 301.079 84.5564 300.874 84.7337C300.668 84.9017 300.566 85.1117 300.566 85.3637C300.566 85.6344 300.668 85.8444 300.874 85.9937C301.079 86.143 301.35 86.2177 301.686 86.2177ZM306.966 87.4497V80.5057H308.548L308.702 81.4437C308.926 81.1077 309.22 80.8417 309.584 80.6457C309.957 80.4404 310.386 80.3377 310.872 80.3377C311.945 80.3377 312.706 80.753 313.154 81.5837C313.406 81.201 313.742 80.8977 314.162 80.6737C314.591 80.4497 315.058 80.3377 315.562 80.3377C316.467 80.3377 317.162 80.6084 317.648 81.1497C318.133 81.691 318.376 82.4844 318.376 83.5297V87.4497H316.584V83.6977C316.584 83.1004 316.467 82.643 316.234 82.3257C316.01 82.0084 315.66 81.8497 315.184 81.8497C314.698 81.8497 314.306 82.027 314.008 82.3817C313.718 82.7364 313.574 83.231 313.574 83.8657V87.4497H311.782V83.6977C311.782 83.1004 311.665 82.643 311.432 82.3257C311.198 82.0084 310.839 81.8497 310.354 81.8497C309.878 81.8497 309.49 82.027 309.192 82.3817C308.902 82.7364 308.758 83.231 308.758 83.8657V87.4497H306.966Z" fill="#222222"/>
<path d="M314.972 186.562C314.253 186.562 313.618 186.441 313.068 186.198C312.517 185.946 312.083 185.591 311.766 185.134C311.448 184.667 311.285 184.103 311.276 183.44H313.166C313.184 183.897 313.348 184.285 313.656 184.602C313.973 184.91 314.407 185.064 314.958 185.064C315.434 185.064 315.812 184.952 316.092 184.728C316.372 184.495 316.512 184.187 316.512 183.804C316.512 183.403 316.386 183.09 316.134 182.866C315.891 182.642 315.564 182.46 315.154 182.32C314.743 182.18 314.304 182.031 313.838 181.872C313.082 181.611 312.503 181.275 312.102 180.864C311.71 180.453 311.514 179.907 311.514 179.226C311.504 178.647 311.64 178.153 311.92 177.742C312.209 177.322 312.601 177 313.096 176.776C313.59 176.543 314.16 176.426 314.804 176.426C315.457 176.426 316.031 176.543 316.526 176.776C317.03 177.009 317.422 177.336 317.702 177.756C317.991 178.176 318.145 178.675 318.164 179.254H316.246C316.236 178.909 316.101 178.605 315.84 178.344C315.588 178.073 315.233 177.938 314.776 177.938C314.384 177.929 314.052 178.027 313.782 178.232C313.52 178.428 313.39 178.717 313.39 179.1C313.39 179.427 313.492 179.688 313.698 179.884C313.903 180.071 314.183 180.229 314.538 180.36C314.892 180.491 315.298 180.631 315.756 180.78C316.241 180.948 316.684 181.144 317.086 181.368C317.487 181.592 317.809 181.891 318.052 182.264C318.294 182.628 318.416 183.099 318.416 183.678C318.416 184.191 318.285 184.667 318.024 185.106C317.762 185.545 317.375 185.899 316.862 186.17C316.348 186.431 315.718 186.562 314.972 186.562ZM322.331 186.562C321.734 186.562 321.244 186.469 320.861 186.282C320.479 186.086 320.194 185.829 320.007 185.512C319.821 185.195 319.727 184.845 319.727 184.462C319.727 183.818 319.979 183.295 320.483 182.894C320.987 182.493 321.743 182.292 322.751 182.292H324.515V182.124C324.515 181.648 324.38 181.298 324.109 181.074C323.839 180.85 323.503 180.738 323.101 180.738C322.737 180.738 322.42 180.827 322.149 181.004C321.879 181.172 321.711 181.424 321.645 181.76H319.895C319.942 181.256 320.11 180.817 320.399 180.444C320.698 180.071 321.081 179.786 321.547 179.59C322.014 179.385 322.537 179.282 323.115 179.282C324.105 179.282 324.884 179.529 325.453 180.024C326.023 180.519 326.307 181.219 326.307 182.124V186.394H324.781L324.613 185.274C324.408 185.647 324.119 185.955 323.745 186.198C323.381 186.441 322.91 186.562 322.331 186.562ZM322.737 185.162C323.251 185.162 323.647 184.994 323.927 184.658C324.217 184.322 324.399 183.907 324.473 183.412H322.947C322.471 183.412 322.131 183.501 321.925 183.678C321.72 183.846 321.617 184.056 321.617 184.308C321.617 184.579 321.72 184.789 321.925 184.938C322.131 185.087 322.401 185.162 322.737 185.162ZM328.017 186.394V176.314H329.809V186.394H328.017ZM335.014 186.562C334.314 186.562 333.694 186.413 333.152 186.114C332.611 185.815 332.186 185.395 331.878 184.854C331.57 184.313 331.416 183.687 331.416 182.978C331.416 182.259 331.566 181.62 331.864 181.06C332.172 180.5 332.592 180.066 333.124 179.758C333.666 179.441 334.3 179.282 335.028 179.282C335.71 179.282 336.312 179.431 336.834 179.73C337.357 180.029 337.763 180.439 338.052 180.962C338.351 181.475 338.5 182.049 338.5 182.684C338.5 182.787 338.496 182.894 338.486 183.006C338.486 183.118 338.482 183.235 338.472 183.356H333.194C333.232 183.897 333.418 184.322 333.754 184.63C334.1 184.938 334.515 185.092 335 185.092C335.364 185.092 335.668 185.013 335.91 184.854C336.162 184.686 336.349 184.471 336.47 184.21H338.29C338.16 184.649 337.94 185.05 337.632 185.414C337.334 185.769 336.96 186.049 336.512 186.254C336.074 186.459 335.574 186.562 335.014 186.562ZM335.028 180.738C334.59 180.738 334.202 180.864 333.866 181.116C333.53 181.359 333.316 181.732 333.222 182.236H336.68C336.652 181.779 336.484 181.415 336.176 181.144C335.868 180.873 335.486 180.738 335.028 180.738ZM342.878 186.562C342.262 186.562 341.72 186.464 341.254 186.268C340.787 186.063 340.414 185.783 340.134 185.428C339.854 185.073 339.686 184.663 339.63 184.196H341.436C341.492 184.467 341.641 184.7 341.884 184.896C342.136 185.083 342.458 185.176 342.85 185.176C343.242 185.176 343.526 185.097 343.704 184.938C343.89 184.779 343.984 184.597 343.984 184.392C343.984 184.093 343.853 183.893 343.592 183.79C343.33 183.678 342.966 183.571 342.5 183.468C342.201 183.403 341.898 183.323 341.59 183.23C341.282 183.137 340.997 183.02 340.736 182.88C340.484 182.731 340.278 182.544 340.12 182.32C339.961 182.087 339.882 181.802 339.882 181.466C339.882 180.85 340.124 180.332 340.61 179.912C341.104 179.492 341.795 179.282 342.682 179.282C343.503 179.282 344.156 179.473 344.642 179.856C345.136 180.239 345.43 180.766 345.524 181.438H343.83C343.727 180.925 343.34 180.668 342.668 180.668C342.332 180.668 342.07 180.733 341.884 180.864C341.706 180.995 341.618 181.158 341.618 181.354C341.618 181.559 341.753 181.723 342.024 181.844C342.294 181.965 342.654 182.077 343.102 182.18C343.587 182.292 344.03 182.418 344.432 182.558C344.842 182.689 345.169 182.889 345.412 183.16C345.654 183.421 345.776 183.799 345.776 184.294C345.785 184.723 345.673 185.111 345.44 185.456C345.206 185.801 344.87 186.072 344.432 186.268C343.993 186.464 343.475 186.562 342.878 186.562ZM302.212 207.474V197.45H303.808L304.004 198.444C304.228 198.136 304.522 197.865 304.886 197.632C305.259 197.399 305.74 197.282 306.328 197.282C306.981 197.282 307.564 197.441 308.078 197.758C308.591 198.075 308.997 198.509 309.296 199.06C309.594 199.611 309.744 200.236 309.744 200.936C309.744 201.636 309.594 202.261 309.296 202.812C308.997 203.353 308.591 203.783 308.078 204.1C307.564 204.408 306.981 204.562 306.328 204.562C305.805 204.562 305.348 204.464 304.956 204.268C304.564 204.072 304.246 203.797 304.004 203.442V207.474H302.212ZM305.95 202.994C306.519 202.994 306.99 202.803 307.364 202.42C307.737 202.037 307.924 201.543 307.924 200.936C307.924 200.329 307.737 199.83 307.364 199.438C306.99 199.046 306.519 198.85 305.95 198.85C305.371 198.85 304.895 199.046 304.522 199.438C304.158 199.821 303.976 200.315 303.976 200.922C303.976 201.529 304.158 202.028 304.522 202.42C304.895 202.803 305.371 202.994 305.95 202.994ZM311.345 204.394V197.45H312.941L313.109 198.752C313.361 198.304 313.701 197.949 314.131 197.688C314.569 197.417 315.083 197.282 315.671 197.282V199.172H315.167C314.775 199.172 314.425 199.233 314.117 199.354C313.809 199.475 313.566 199.685 313.389 199.984C313.221 200.283 313.137 200.698 313.137 201.23V204.394H311.345ZM320.104 204.562C319.432 204.562 318.826 204.408 318.284 204.1C317.752 203.792 317.328 203.367 317.01 202.826C316.702 202.275 316.548 201.641 316.548 200.922C316.548 200.203 316.707 199.573 317.024 199.032C317.342 198.481 317.766 198.052 318.298 197.744C318.84 197.436 319.446 197.282 320.118 197.282C320.781 197.282 321.378 197.436 321.91 197.744C322.452 198.052 322.876 198.481 323.184 199.032C323.502 199.573 323.66 200.203 323.66 200.922C323.66 201.641 323.502 202.275 323.184 202.826C322.876 203.367 322.452 203.792 321.91 204.1C321.369 204.408 320.767 204.562 320.104 204.562ZM320.104 203.008C320.571 203.008 320.977 202.835 321.322 202.49C321.668 202.135 321.84 201.613 321.84 200.922C321.84 200.231 321.668 199.713 321.322 199.368C320.977 199.013 320.576 198.836 320.118 198.836C319.642 198.836 319.232 199.013 318.886 199.368C318.55 199.713 318.382 200.231 318.382 200.922C318.382 201.613 318.55 202.135 318.886 202.49C319.232 202.835 319.638 203.008 320.104 203.008ZM328.665 204.562C327.955 204.562 327.33 204.408 326.789 204.1C326.247 203.792 325.818 203.363 325.501 202.812C325.193 202.261 325.039 201.631 325.039 200.922C325.039 200.213 325.193 199.583 325.501 199.032C325.818 198.481 326.247 198.052 326.789 197.744C327.33 197.436 327.955 197.282 328.665 197.282C329.551 197.282 330.298 197.515 330.905 197.982C331.511 198.439 331.899 199.074 332.067 199.886H330.177C330.083 199.55 329.897 199.289 329.617 199.102C329.346 198.906 329.024 198.808 328.651 198.808C328.156 198.808 327.736 198.995 327.391 199.368C327.045 199.741 326.873 200.259 326.873 200.922C326.873 201.585 327.045 202.103 327.391 202.476C327.736 202.849 328.156 203.036 328.651 203.036C329.024 203.036 329.346 202.943 329.617 202.756C329.897 202.569 330.083 202.303 330.177 201.958H332.067C331.899 202.742 331.511 203.372 330.905 203.848C330.298 204.324 329.551 204.562 328.665 204.562ZM337.031 204.562C336.331 204.562 335.71 204.413 335.169 204.114C334.628 203.815 334.203 203.395 333.895 202.854C333.587 202.313 333.433 201.687 333.433 200.978C333.433 200.259 333.582 199.62 333.881 199.06C334.189 198.5 334.609 198.066 335.141 197.758C335.682 197.441 336.317 197.282 337.045 197.282C337.726 197.282 338.328 197.431 338.851 197.73C339.374 198.029 339.78 198.439 340.069 198.962C340.368 199.475 340.517 200.049 340.517 200.684C340.517 200.787 340.512 200.894 340.503 201.006C340.503 201.118 340.498 201.235 340.489 201.356H335.211C335.248 201.897 335.435 202.322 335.771 202.63C336.116 202.938 336.532 203.092 337.017 203.092C337.381 203.092 337.684 203.013 337.927 202.854C338.179 202.686 338.366 202.471 338.487 202.21H340.307C340.176 202.649 339.957 203.05 339.649 203.414C339.35 203.769 338.977 204.049 338.529 204.254C338.09 204.459 337.591 204.562 337.031 204.562ZM337.045 198.738C336.606 198.738 336.219 198.864 335.883 199.116C335.547 199.359 335.332 199.732 335.239 200.236H338.697C338.669 199.779 338.501 199.415 338.193 199.144C337.885 198.873 337.502 198.738 337.045 198.738ZM344.894 204.562C344.278 204.562 343.737 204.464 343.27 204.268C342.804 204.063 342.43 203.783 342.15 203.428C341.87 203.073 341.702 202.663 341.646 202.196H343.452C343.508 202.467 343.658 202.7 343.9 202.896C344.152 203.083 344.474 203.176 344.866 203.176C345.258 203.176 345.543 203.097 345.72 202.938C345.907 202.779 346 202.597 346 202.392C346 202.093 345.87 201.893 345.608 201.79C345.347 201.678 344.983 201.571 344.516 201.468C344.218 201.403 343.914 201.323 343.606 201.23C343.298 201.137 343.014 201.02 342.752 200.88C342.5 200.731 342.295 200.544 342.136 200.32C341.978 200.087 341.898 199.802 341.898 199.466C341.898 198.85 342.141 198.332 342.626 197.912C343.121 197.492 343.812 197.282 344.698 197.282C345.52 197.282 346.173 197.473 346.658 197.856C347.153 198.239 347.447 198.766 347.54 199.438H345.846C345.744 198.925 345.356 198.668 344.684 198.668C344.348 198.668 344.087 198.733 343.9 198.864C343.723 198.995 343.634 199.158 343.634 199.354C343.634 199.559 343.77 199.723 344.04 199.844C344.311 199.965 344.67 200.077 345.118 200.18C345.604 200.292 346.047 200.418 346.448 200.558C346.859 200.689 347.186 200.889 347.428 201.16C347.671 201.421 347.792 201.799 347.792 202.294C347.802 202.723 347.69 203.111 347.456 203.456C347.223 203.801 346.887 204.072 346.448 204.268C346.01 204.464 345.492 204.562 344.894 204.562ZM352.25 204.562C351.634 204.562 351.092 204.464 350.626 204.268C350.159 204.063 349.786 203.783 349.506 203.428C349.226 203.073 349.058 202.663 349.002 202.196H350.808C350.864 202.467 351.013 202.7 351.256 202.896C351.508 203.083 351.83 203.176 352.222 203.176C352.614 203.176 352.898 203.097 353.076 202.938C353.262 202.779 353.356 202.597 353.356 202.392C353.356 202.093 353.225 201.893 352.964 201.79C352.702 201.678 352.338 201.571 351.872 201.468C351.573 201.403 351.27 201.323 350.962 201.23C350.654 201.137 350.369 201.02 350.108 200.88C349.856 200.731 349.65 200.544 349.492 200.32C349.333 200.087 349.254 199.802 349.254 199.466C349.254 198.85 349.496 198.332 349.982 197.912C350.476 197.492 351.167 197.282 352.054 197.282C352.875 197.282 353.528 197.473 354.014 197.856C354.508 198.239 354.802 198.766 354.896 199.438H353.202C353.099 198.925 352.712 198.668 352.04 198.668C351.704 198.668 351.442 198.733 351.256 198.864C351.078 198.995 350.99 199.158 350.99 199.354C350.99 199.559 351.125 199.723 351.396 199.844C351.666 199.965 352.026 200.077 352.474 200.18C352.959 200.292 353.402 200.418 353.804 200.558C354.214 200.689 354.541 200.889 354.784 201.16C355.026 201.421 355.148 201.799 355.148 202.294C355.157 202.723 355.045 203.111 354.812 203.456C354.578 203.801 354.242 204.072 353.804 204.268C353.365 204.464 352.847 204.562 352.25 204.562Z" fill="#222222"/>
<path d="M250.021 299.881V290.081H251.813L256.419 296.983V290.081H258.211V299.881H256.419L251.813 292.993V299.881H250.021ZM263.443 300.049C262.743 300.049 262.123 299.9 261.581 299.601C261.04 299.303 260.615 298.883 260.307 298.341C259.999 297.8 259.845 297.175 259.845 296.465C259.845 295.747 259.995 295.107 260.293 294.547C260.601 293.987 261.021 293.553 261.553 293.245C262.095 292.928 262.729 292.769 263.457 292.769C264.139 292.769 264.741 292.919 265.263 293.217C265.786 293.516 266.192 293.927 266.481 294.449C266.78 294.963 266.929 295.537 266.929 296.171C266.929 296.274 266.925 296.381 266.915 296.493C266.915 296.605 266.911 296.722 266.901 296.843H261.623C261.661 297.385 261.847 297.809 262.183 298.117C262.529 298.425 262.944 298.579 263.429 298.579C263.793 298.579 264.097 298.5 264.339 298.341C264.591 298.173 264.778 297.959 264.899 297.697H266.719C266.589 298.136 266.369 298.537 266.061 298.901C265.763 299.256 265.389 299.536 264.941 299.741C264.503 299.947 264.003 300.049 263.443 300.049ZM263.457 294.225C263.019 294.225 262.631 294.351 262.295 294.603C261.959 294.846 261.745 295.219 261.651 295.723H265.109C265.081 295.266 264.913 294.902 264.605 294.631C264.297 294.361 263.915 294.225 263.457 294.225ZM271.407 299.881C270.679 299.881 270.096 299.704 269.657 299.349C269.219 298.995 268.999 298.365 268.999 297.459V294.435H267.809V292.937H268.999L269.209 291.075H270.791V292.937H272.667V294.435H270.791V297.473C270.791 297.809 270.861 298.043 271.001 298.173C271.151 298.295 271.403 298.355 271.757 298.355H272.625V299.881H271.407ZM275.564 299.881L273.534 292.937H275.312L276.516 297.935L277.916 292.937H279.904L281.304 297.935L282.522 292.937H284.3L282.256 299.881H280.394L278.91 294.687L277.426 299.881H275.564ZM288.516 300.049C287.844 300.049 287.238 299.895 286.696 299.587C286.164 299.279 285.74 298.855 285.422 298.313C285.114 297.763 284.96 297.128 284.96 296.409C284.96 295.691 285.119 295.061 285.436 294.519C285.754 293.969 286.178 293.539 286.71 293.231C287.252 292.923 287.858 292.769 288.53 292.769C289.193 292.769 289.79 292.923 290.322 293.231C290.864 293.539 291.288 293.969 291.596 294.519C291.914 295.061 292.072 295.691 292.072 296.409C292.072 297.128 291.914 297.763 291.596 298.313C291.288 298.855 290.864 299.279 290.322 299.587C289.781 299.895 289.179 300.049 288.516 300.049ZM288.516 298.495C288.983 298.495 289.389 298.323 289.734 297.977C290.08 297.623 290.252 297.1 290.252 296.409C290.252 295.719 290.08 295.201 289.734 294.855C289.389 294.501 288.988 294.323 288.53 294.323C288.054 294.323 287.644 294.501 287.298 294.855C286.962 295.201 286.794 295.719 286.794 296.409C286.794 297.1 286.962 297.623 287.298 297.977C287.644 298.323 288.05 298.495 288.516 298.495ZM293.675 299.881V292.937H295.271L295.439 294.239C295.691 293.791 296.031 293.437 296.461 293.175C296.899 292.905 297.413 292.769 298.001 292.769V294.659H297.497C297.105 294.659 296.755 294.72 296.447 294.841C296.139 294.963 295.896 295.173 295.719 295.471C295.551 295.77 295.467 296.185 295.467 296.717V299.881H293.675ZM299.225 299.881V289.801H301.017V295.751L303.481 292.937H305.609L302.767 296.101L306.071 299.881H303.831L301.017 296.395V299.881H299.225ZM308.148 291.859C307.822 291.859 307.551 291.761 307.336 291.565C307.131 291.369 307.028 291.122 307.028 290.823C307.028 290.525 307.131 290.282 307.336 290.095C307.551 289.899 307.822 289.801 308.148 289.801C308.475 289.801 308.741 289.899 308.946 290.095C309.161 290.282 309.268 290.525 309.268 290.823C309.268 291.122 309.161 291.369 308.946 291.565C308.741 291.761 308.475 291.859 308.148 291.859ZM307.252 299.881V292.937H309.044V299.881H307.252ZM310.915 299.881V292.937H312.497L312.637 294.113C312.852 293.703 313.16 293.376 313.561 293.133C313.972 292.891 314.452 292.769 315.003 292.769C315.862 292.769 316.529 293.04 317.005 293.581C317.481 294.123 317.719 294.916 317.719 295.961V299.881H315.927V296.129C315.927 295.532 315.806 295.075 315.563 294.757C315.32 294.44 314.942 294.281 314.429 294.281C313.925 294.281 313.51 294.459 313.183 294.813C312.866 295.168 312.707 295.663 312.707 296.297V299.881H310.915ZM322.372 297.809C322.036 297.809 321.724 297.772 321.434 297.697L320.916 298.215C321.075 298.299 321.29 298.369 321.56 298.425C321.831 298.481 322.27 298.537 322.876 298.593C323.8 298.677 324.472 298.897 324.892 299.251C325.312 299.606 325.522 300.096 325.522 300.721C325.522 301.132 325.41 301.519 325.186 301.883C324.962 302.257 324.617 302.555 324.15 302.779C323.684 303.013 323.086 303.129 322.358 303.129C321.369 303.129 320.571 302.943 319.964 302.569C319.358 302.205 319.054 301.655 319.054 300.917C319.054 300.292 319.358 299.751 319.964 299.293C319.778 299.209 319.614 299.121 319.474 299.027C319.344 298.934 319.227 298.836 319.124 298.733V298.411L320.342 297.123C319.801 296.647 319.53 296.036 319.53 295.289C319.53 294.823 319.642 294.398 319.866 294.015C320.1 293.633 320.426 293.329 320.846 293.105C321.266 292.881 321.775 292.769 322.372 292.769C322.764 292.769 323.128 292.825 323.464 292.937H326.096V294.029L324.906 294.113C325.093 294.468 325.186 294.86 325.186 295.289C325.186 295.756 325.074 296.181 324.85 296.563C324.626 296.946 324.3 297.249 323.87 297.473C323.45 297.697 322.951 297.809 322.372 297.809ZM322.372 296.437C322.736 296.437 323.035 296.339 323.268 296.143C323.511 295.947 323.632 295.667 323.632 295.303C323.632 294.939 323.511 294.659 323.268 294.463C323.035 294.267 322.736 294.169 322.372 294.169C321.99 294.169 321.682 294.267 321.448 294.463C321.215 294.659 321.098 294.939 321.098 295.303C321.098 295.667 321.215 295.947 321.448 296.143C321.682 296.339 321.99 296.437 322.372 296.437ZM320.692 300.735C320.692 301.081 320.851 301.337 321.168 301.505C321.495 301.683 321.892 301.771 322.358 301.771C322.806 301.771 323.17 301.678 323.45 301.491C323.73 301.314 323.87 301.071 323.87 300.763C323.87 300.511 323.777 300.301 323.59 300.133C323.413 299.965 323.054 299.863 322.512 299.825C322.13 299.797 321.775 299.755 321.448 299.699C321.178 299.849 320.982 300.012 320.86 300.189C320.748 300.367 320.692 300.549 320.692 300.735Z" fill="#222222"/>
<path d="M158.685 206.452V196.652H165.083V198.094H160.477V200.782H164.663V202.182H160.477V205.01H165.083V206.452H158.685ZM166.079 206.452L168.599 202.98L166.079 199.508H167.997L169.761 201.972L171.511 199.508H173.443L170.909 202.98L173.443 206.452H171.511L169.761 203.988L167.997 206.452H166.079ZM177.589 206.62C176.889 206.62 176.269 206.47 175.727 206.172C175.186 205.873 174.761 205.453 174.453 204.912C174.145 204.37 173.991 203.745 173.991 203.036C173.991 202.317 174.141 201.678 174.439 201.118C174.747 200.558 175.167 200.124 175.699 199.816C176.241 199.498 176.875 199.34 177.603 199.34C178.285 199.34 178.887 199.489 179.409 199.788C179.932 200.086 180.338 200.497 180.627 201.02C180.926 201.533 181.075 202.107 181.075 202.742C181.075 202.844 181.071 202.952 181.061 203.064C181.061 203.176 181.057 203.292 181.047 203.414H175.769C175.807 203.955 175.993 204.38 176.329 204.688C176.675 204.996 177.09 205.15 177.575 205.15C177.939 205.15 178.243 205.07 178.485 204.912C178.737 204.744 178.924 204.529 179.045 204.268H180.865C180.735 204.706 180.515 205.108 180.207 205.472C179.909 205.826 179.535 206.106 179.087 206.312C178.649 206.517 178.149 206.62 177.589 206.62ZM177.603 200.796C177.165 200.796 176.777 200.922 176.441 201.174C176.105 201.416 175.891 201.79 175.797 202.294H179.255C179.227 201.836 179.059 201.472 178.751 201.202C178.443 200.931 178.061 200.796 177.603 200.796ZM185.984 206.62C185.275 206.62 184.65 206.466 184.108 206.158C183.567 205.85 183.138 205.42 182.82 204.87C182.512 204.319 182.358 203.689 182.358 202.98C182.358 202.27 182.512 201.64 182.82 201.09C183.138 200.539 183.567 200.11 184.108 199.802C184.65 199.494 185.275 199.34 185.984 199.34C186.871 199.34 187.618 199.573 188.224 200.04C188.831 200.497 189.218 201.132 189.386 201.944H187.496C187.403 201.608 187.216 201.346 186.936 201.16C186.666 200.964 186.344 200.866 185.97 200.866C185.476 200.866 185.056 201.052 184.71 201.426C184.365 201.799 184.192 202.317 184.192 202.98C184.192 203.642 184.365 204.16 184.71 204.534C185.056 204.907 185.476 205.094 185.97 205.094C186.344 205.094 186.666 205 186.936 204.814C187.216 204.627 187.403 204.361 187.496 204.016H189.386C189.218 204.8 188.831 205.43 188.224 205.906C187.618 206.382 186.871 206.62 185.984 206.62ZM193.581 206.62C192.713 206.62 192.041 206.349 191.565 205.808C191.098 205.266 190.865 204.473 190.865 203.428V199.508H192.643V203.26C192.643 203.857 192.764 204.314 193.007 204.632C193.25 204.949 193.632 205.108 194.155 205.108C194.65 205.108 195.056 204.93 195.373 204.576C195.7 204.221 195.863 203.726 195.863 203.092V199.508H197.655V206.452H196.073L195.933 205.276C195.718 205.686 195.406 206.013 194.995 206.256C194.594 206.498 194.122 206.62 193.581 206.62ZM202.588 206.452C201.86 206.452 201.277 206.274 200.838 205.92C200.4 205.565 200.18 204.935 200.18 204.03V201.006H198.99V199.508H200.18L200.39 197.646H201.972V199.508H203.848V201.006H201.972V204.044C201.972 204.38 202.042 204.613 202.182 204.744C202.332 204.865 202.584 204.926 202.938 204.926H203.806V206.452H202.588ZM206.353 198.43C206.026 198.43 205.756 198.332 205.541 198.136C205.336 197.94 205.233 197.692 205.233 197.394C205.233 197.095 205.336 196.852 205.541 196.666C205.756 196.47 206.026 196.372 206.353 196.372C206.68 196.372 206.946 196.47 207.151 196.666C207.366 196.852 207.473 197.095 207.473 197.394C207.473 197.692 207.366 197.94 207.151 198.136C206.946 198.332 206.68 198.43 206.353 198.43ZM205.457 206.452V199.508H207.249V206.452H205.457ZM212.451 206.62C211.779 206.62 211.173 206.466 210.631 206.158C210.099 205.85 209.675 205.425 209.357 204.884C209.049 204.333 208.895 203.698 208.895 202.98C208.895 202.261 209.054 201.631 209.371 201.09C209.689 200.539 210.113 200.11 210.645 199.802C211.187 199.494 211.793 199.34 212.465 199.34C213.128 199.34 213.725 199.494 214.257 199.802C214.799 200.11 215.223 200.539 215.531 201.09C215.849 201.631 216.007 202.261 216.007 202.98C216.007 203.698 215.849 204.333 215.531 204.884C215.223 205.425 214.799 205.85 214.257 206.158C213.716 206.466 213.114 206.62 212.451 206.62ZM212.451 205.066C212.918 205.066 213.324 204.893 213.669 204.548C214.015 204.193 214.187 203.67 214.187 202.98C214.187 202.289 214.015 201.771 213.669 201.426C213.324 201.071 212.923 200.894 212.465 200.894C211.989 200.894 211.579 201.071 211.233 201.426C210.897 201.771 210.729 202.289 210.729 202.98C210.729 203.67 210.897 204.193 211.233 204.548C211.579 204.893 211.985 205.066 212.451 205.066ZM217.61 206.452V199.508H219.192L219.332 200.684C219.546 200.273 219.854 199.946 220.256 199.704C220.666 199.461 221.147 199.34 221.698 199.34C222.556 199.34 223.224 199.61 223.7 200.152C224.176 200.693 224.414 201.486 224.414 202.532V206.452H222.622V202.7C222.622 202.102 222.5 201.645 222.258 201.328C222.015 201.01 221.637 200.852 221.124 200.852C220.62 200.852 220.204 201.029 219.878 201.384C219.56 201.738 219.402 202.233 219.402 202.868V206.452H217.61ZM173.023 224.62C172.323 224.62 171.702 224.47 171.161 224.172C170.619 223.873 170.195 223.453 169.887 222.912C169.579 222.37 169.425 221.745 169.425 221.036C169.425 220.317 169.574 219.678 169.873 219.118C170.181 218.558 170.601 218.124 171.133 217.816C171.674 217.498 172.309 217.34 173.037 217.34C173.718 217.34 174.32 217.489 174.843 217.788C175.365 218.086 175.771 218.497 176.061 219.02C176.359 219.533 176.509 220.107 176.509 220.742C176.509 220.844 176.504 220.952 176.495 221.064C176.495 221.176 176.49 221.292 176.481 221.414H171.203C171.24 221.955 171.427 222.38 171.763 222.688C172.108 222.996 172.523 223.15 173.009 223.15C173.373 223.15 173.676 223.07 173.919 222.912C174.171 222.744 174.357 222.529 174.479 222.268H176.299C176.168 222.706 175.949 223.108 175.641 223.472C175.342 223.826 174.969 224.106 174.521 224.312C174.082 224.517 173.583 224.62 173.023 224.62ZM173.037 218.796C172.598 218.796 172.211 218.922 171.875 219.174C171.539 219.416 171.324 219.79 171.231 220.294H174.689C174.661 219.836 174.493 219.472 174.185 219.202C173.877 218.931 173.494 218.796 173.037 218.796ZM178.016 224.452V217.508H179.598L179.738 218.684C179.953 218.273 180.261 217.946 180.662 217.704C181.073 217.461 181.553 217.34 182.104 217.34C182.963 217.34 183.63 217.61 184.106 218.152C184.582 218.693 184.82 219.486 184.82 220.532V224.452H183.028V220.7C183.028 220.102 182.907 219.645 182.664 219.328C182.421 219.01 182.043 218.852 181.53 218.852C181.026 218.852 180.611 219.029 180.284 219.384C179.967 219.738 179.808 220.233 179.808 220.868V224.452H178.016ZM189.474 222.38C189.138 222.38 188.825 222.342 188.536 222.268L188.018 222.786C188.176 222.87 188.391 222.94 188.662 222.996C188.932 223.052 189.371 223.108 189.978 223.164C190.902 223.248 191.574 223.467 191.994 223.822C192.414 224.176 192.624 224.666 192.624 225.292C192.624 225.702 192.512 226.09 192.288 226.454C192.064 226.827 191.718 227.126 191.252 227.35C190.785 227.583 190.188 227.7 189.46 227.7C188.47 227.7 187.672 227.513 187.066 227.14C186.459 226.776 186.156 226.225 186.156 225.488C186.156 224.862 186.459 224.321 187.066 223.864C186.879 223.78 186.716 223.691 186.576 223.598C186.445 223.504 186.328 223.406 186.226 223.304V222.982L187.444 221.694C186.902 221.218 186.632 220.606 186.632 219.86C186.632 219.393 186.744 218.968 186.968 218.586C187.201 218.203 187.528 217.9 187.948 217.676C188.368 217.452 188.876 217.34 189.474 217.34C189.866 217.34 190.23 217.396 190.566 217.508H193.198V218.6L192.008 218.684C192.194 219.038 192.288 219.43 192.288 219.86C192.288 220.326 192.176 220.751 191.952 221.134C191.728 221.516 191.401 221.82 190.972 222.044C190.552 222.268 190.052 222.38 189.474 222.38ZM189.474 221.008C189.838 221.008 190.136 220.91 190.37 220.714C190.612 220.518 190.734 220.238 190.734 219.874C190.734 219.51 190.612 219.23 190.37 219.034C190.136 218.838 189.838 218.74 189.474 218.74C189.091 218.74 188.783 218.838 188.55 219.034C188.316 219.23 188.2 219.51 188.2 219.874C188.2 220.238 188.316 220.518 188.55 220.714C188.783 220.91 189.091 221.008 189.474 221.008ZM187.794 225.306C187.794 225.651 187.952 225.908 188.27 226.076C188.596 226.253 188.993 226.342 189.46 226.342C189.908 226.342 190.272 226.248 190.552 226.062C190.832 225.884 190.972 225.642 190.972 225.334C190.972 225.082 190.878 224.872 190.692 224.704C190.514 224.536 190.155 224.433 189.614 224.396C189.231 224.368 188.876 224.326 188.55 224.27C188.279 224.419 188.083 224.582 187.962 224.76C187.85 224.937 187.794 225.119 187.794 225.306ZM195.47 216.43C195.144 216.43 194.873 216.332 194.658 216.136C194.453 215.94 194.35 215.692 194.35 215.394C194.35 215.095 194.453 214.852 194.658 214.666C194.873 214.47 195.144 214.372 195.47 214.372C195.797 214.372 196.063 214.47 196.268 214.666C196.483 214.852 196.59 215.095 196.59 215.394C196.59 215.692 196.483 215.94 196.268 216.136C196.063 216.332 195.797 216.43 195.47 216.43ZM194.574 224.452V217.508H196.366V224.452H194.574ZM198.237 224.452V217.508H199.819L199.959 218.684C200.173 218.273 200.481 217.946 200.883 217.704C201.293 217.461 201.774 217.34 202.325 217.34C203.183 217.34 203.851 217.61 204.327 218.152C204.803 218.693 205.041 219.486 205.041 220.532V224.452H203.249V220.7C203.249 220.102 203.127 219.645 202.885 219.328C202.642 219.01 202.264 218.852 201.751 218.852C201.247 218.852 200.831 219.029 200.505 219.384C200.187 219.738 200.029 220.233 200.029 220.868V224.452H198.237ZM210.128 224.62C209.428 224.62 208.808 224.47 208.266 224.172C207.725 223.873 207.3 223.453 206.992 222.912C206.684 222.37 206.53 221.745 206.53 221.036C206.53 220.317 206.68 219.678 206.978 219.118C207.286 218.558 207.706 218.124 208.238 217.816C208.78 217.498 209.414 217.34 210.142 217.34C210.824 217.34 211.426 217.489 211.948 217.788C212.471 218.086 212.877 218.497 213.166 219.02C213.465 219.533 213.614 220.107 213.614 220.742C213.614 220.844 213.61 220.952 213.6 221.064C213.6 221.176 213.596 221.292 213.586 221.414H208.308C208.346 221.955 208.532 222.38 208.868 222.688C209.214 222.996 209.629 223.15 210.114 223.15C210.478 223.15 210.782 223.07 211.024 222.912C211.276 222.744 211.463 222.529 211.584 222.268H213.404C213.274 222.706 213.054 223.108 212.746 223.472C212.448 223.826 212.074 224.106 211.626 224.312C211.188 224.517 210.688 224.62 210.128 224.62ZM210.142 218.796C209.704 218.796 209.316 218.922 208.98 219.174C208.644 219.416 208.43 219.79 208.336 220.294H211.794C211.766 219.836 211.598 219.472 211.29 219.202C210.982 218.931 210.6 218.796 210.142 218.796Z" fill="white"/>
<path d="M265.219 328.632C265.438 327.176 264.436 325.817 262.979 325.598C261.523 325.378 260.164 326.381 259.945 327.837C259.725 329.293 260.728 330.652 262.184 330.872C263.64 331.091 264.999 330.089 265.219 328.632ZM224.579 353.918C224.364 354.092 224.331 354.407 224.505 354.621L227.337 358.118C227.511 358.333 227.826 358.366 228.041 358.192C228.255 358.018 228.288 357.703 228.114 357.489L225.597 354.38L228.705 351.863C228.92 351.689 228.953 351.374 228.779 351.159C228.605 350.945 228.29 350.912 228.076 351.086L224.579 353.918ZM262.094 328.346C263.244 333.366 262.769 340.637 257.67 346.187C252.579 351.729 242.76 355.679 224.946 353.809L224.841 354.804C242.814 356.691 253.013 352.734 258.407 346.864C263.792 341.002 264.268 333.36 263.069 328.123L262.094 328.346Z" fill="#007F62"/>
<path d="M146.491 18V5.4H148.795V18H146.491ZM150.877 18V5.4H153.181L159.103 14.274V5.4H161.407V18H159.103L153.181 9.144V18H150.877ZM166.424 18V7.254H162.752V5.4H172.418V7.254H168.728V18H166.424ZM173.765 18V5.4H181.991V7.254H176.069V10.71H181.451V12.51H176.069V16.146H181.991V18H173.765ZM183.811 18V5.4H188.437C189.445 5.4 190.273 5.574 190.921 5.922C191.581 6.258 192.073 6.72 192.397 7.308C192.721 7.884 192.883 8.526 192.883 9.234C192.883 10.002 192.679 10.704 192.271 11.34C191.875 11.976 191.251 12.438 190.399 12.726L193.009 18H190.363L188.023 13.032H186.115V18H183.811ZM186.115 11.34H188.293C189.061 11.34 189.625 11.154 189.985 10.782C190.345 10.41 190.525 9.918 190.525 9.306C190.525 8.706 190.345 8.226 189.985 7.866C189.637 7.506 189.067 7.326 188.275 7.326H186.115V11.34ZM194.666 18V5.4H196.97L202.892 14.274V5.4H205.196V18H202.892L196.97 9.144V18H194.666ZM206.469 18L211.077 5.4H213.669L218.277 18H215.829L214.821 15.084H209.907L208.881 18H206.469ZM210.537 13.284H214.191L212.355 8.046L210.537 13.284ZM221.138 18V7.254H217.466V5.4H227.132V7.254H223.442V18H221.138ZM228.479 18V5.4H230.783V18H228.479ZM238.769 18.216C237.509 18.216 236.405 17.94 235.457 17.388C234.521 16.836 233.783 16.074 233.243 15.102C232.715 14.118 232.451 12.984 232.451 11.7C232.451 10.416 232.715 9.288 233.243 8.316C233.783 7.332 234.521 6.564 235.457 6.012C236.405 5.46 237.509 5.184 238.769 5.184C240.017 5.184 241.115 5.46 242.063 6.012C243.011 6.564 243.749 7.332 244.277 8.316C244.805 9.288 245.069 10.416 245.069 11.7C245.069 12.984 244.805 14.118 244.277 15.102C243.749 16.074 243.011 16.836 242.063 17.388C241.115 17.94 240.017 18.216 238.769 18.216ZM238.769 16.146C239.969 16.146 240.923 15.75 241.631 14.958C242.351 14.166 242.711 13.08 242.711 11.7C242.711 10.32 242.351 9.234 241.631 8.442C240.923 7.65 239.969 7.254 238.769 7.254C237.569 7.254 236.609 7.65 235.889 8.442C235.169 9.234 234.809 10.32 234.809 11.7C234.809 13.08 235.169 14.166 235.889 14.958C236.609 15.75 237.569 16.146 238.769 16.146ZM246.743 18V5.4H249.047L254.969 14.274V5.4H257.273V18H254.969L249.047 9.144V18H246.743ZM258.546 18L263.154 5.4H265.746L270.354 18H267.906L266.898 15.084H261.984L260.958 18H258.546ZM262.614 13.284H266.268L264.432 8.046L262.614 13.284ZM271.617 18V5.4H273.921V16.2H279.501V18H271.617ZM289.402 18.216C288.478 18.216 287.662 18.06 286.954 17.748C286.246 17.424 285.688 16.968 285.28 16.38C284.872 15.78 284.662 15.054 284.65 14.202H287.08C287.104 14.79 287.314 15.288 287.71 15.696C288.118 16.092 288.676 16.29 289.384 16.29C289.996 16.29 290.482 16.146 290.842 15.858C291.202 15.558 291.382 15.162 291.382 14.67C291.382 14.154 291.22 13.752 290.896 13.464C290.584 13.176 290.164 12.942 289.636 12.762C289.108 12.582 288.544 12.39 287.944 12.186C286.972 11.85 286.228 11.418 285.712 10.89C285.208 10.362 284.956 9.66 284.956 8.784C284.944 8.04 285.118 7.404 285.478 6.876C285.85 6.336 286.354 5.922 286.99 5.634C287.626 5.334 288.358 5.184 289.186 5.184C290.026 5.184 290.764 5.334 291.4 5.634C292.048 5.934 292.552 6.354 292.912 6.894C293.284 7.434 293.482 8.076 293.506 8.82H291.04C291.028 8.376 290.854 7.986 290.518 7.65C290.194 7.302 289.738 7.128 289.15 7.128C288.646 7.116 288.22 7.242 287.872 7.506C287.536 7.758 287.368 8.13 287.368 8.622C287.368 9.042 287.5 9.378 287.764 9.63C288.028 9.87 288.388 10.074 288.844 10.242C289.3 10.41 289.822 10.59 290.41 10.782C291.034 10.998 291.604 11.25 292.12 11.538C292.636 11.826 293.05 12.21 293.362 12.69C293.674 13.158 293.83 13.764 293.83 14.508C293.83 15.168 293.662 15.78 293.326 16.344C292.99 16.908 292.492 17.364 291.832 17.712C291.172 18.048 290.362 18.216 289.402 18.216ZM294.67 18L299.278 5.4H301.87L306.478 18H304.03L303.022 15.084H298.108L297.082 18H294.67ZM298.738 13.284H302.392L300.556 8.046L298.738 13.284ZM307.741 18V5.4H310.045V16.2H315.625V18H307.741ZM317.295 18V5.4H325.521V7.254H319.599V10.71H324.981V12.51H319.599V16.146H325.521V18H317.295ZM331.643 18.216C330.719 18.216 329.903 18.06 329.195 17.748C328.487 17.424 327.929 16.968 327.521 16.38C327.113 15.78 326.903 15.054 326.891 14.202H329.321C329.345 14.79 329.555 15.288 329.951 15.696C330.359 16.092 330.917 16.29 331.625 16.29C332.237 16.29 332.723 16.146 333.083 15.858C333.443 15.558 333.623 15.162 333.623 14.67C333.623 14.154 333.461 13.752 333.137 13.464C332.825 13.176 332.405 12.942 331.877 12.762C331.349 12.582 330.785 12.39 330.185 12.186C329.213 11.85 328.469 11.418 327.953 10.89C327.449 10.362 327.197 9.66 327.197 8.784C327.185 8.04 327.359 7.404 327.719 6.876C328.091 6.336 328.595 5.922 329.231 5.634C329.867 5.334 330.599 5.184 331.427 5.184C332.267 5.184 333.005 5.334 333.641 5.634C334.289 5.934 334.793 6.354 335.153 6.894C335.525 7.434 335.723 8.076 335.747 8.82H333.281C333.269 8.376 333.095 7.986 332.759 7.65C332.435 7.302 331.979 7.128 331.391 7.128C330.887 7.116 330.461 7.242 330.113 7.506C329.777 7.758 329.609 8.13 329.609 8.622C329.609 9.042 329.741 9.378 330.005 9.63C330.269 9.87 330.629 10.074 331.085 10.242C331.541 10.41 332.063 10.59 332.651 10.782C333.275 10.998 333.845 11.25 334.361 11.538C334.877 11.826 335.291 12.21 335.603 12.69C335.915 13.158 336.071 13.764 336.071 14.508C336.071 15.168 335.903 15.78 335.567 16.344C335.231 16.908 334.733 17.364 334.073 17.712C333.413 18.048 332.603 18.216 331.643 18.216Z" fill="#007F62"/>
</svg>
