<svg width="34" height="33" viewBox="0 0 34 33" fill="none" xmlns="http://www.w3.org/2000/svg">
<g clip-path="url(#clip0_775_620)">
<path d="M25.3983 16.2932C27.1227 18.1472 25.4264 21.1979 24.3521 22.5015C23.4741 21.3527 22.6686 20.9473 22.3757 20.8882C18.975 19.483 19.7456 17.1225 20.556 16.1179C21.9881 14.5797 23.6311 14.3931 25.3983 16.2932Z" fill="white"/>
<path d="M20.1374 7.15167C11.856 7.06982 11.5938 12.7102 12.3843 15.619C9.60427 12.6301 10.222 8.7696 13.4932 7.16674C16.1101 5.88445 18.9928 6.53616 20.1374 7.15167Z" fill="white"/>
<path d="M24.8785 11.3688C16.2703 6.32659 15.2041 15.1528 15.9422 17.4744C13.0834 14.8175 13.6537 10.5959 16.7776 8.72214C20.6901 6.37537 23.9955 10.2349 24.8785 11.3688Z" fill="white"/>
<path d="M15.6967 20.2147C19.2467 19.5992 22.4548 21.0957 22.6741 22.4086C23.3093 26.2104 14.4146 28.2831 9.47003 22.3517C5.66821 17.791 8.14379 12.311 10.0013 10.3819C10.0135 10.3689 10.0259 10.3562 10.0384 10.3438C10.0261 10.3563 10.0137 10.3691 10.0013 10.3819C8.13726 12.3708 10.4282 21.1283 15.6967 20.2147Z" fill="white"/>
<path d="M21.4774 13.3661C24.2493 12.8696 25.8649 15.1238 26.3831 16.3954C25.6446 11.4341 20.7948 10.0348 18.2729 12.5666C16.3634 14.4837 17.7505 17.9913 18.8573 19.1813C17.7081 17.5729 18.0126 13.9867 21.4774 13.3661Z" fill="white"/>
</g>
<defs>
<clipPath id="clip0_775_620">
<rect width="23.1252" height="23.1252" fill="white" transform="translate(17.4961 0.202148) rotate(47.0741)"/>
</clipPath>
</defs>
</svg>
