<svg id="Layer_1" data-name="Layer 1" xmlns="http://www.w3.org/2000/svg" viewBox="0 0 3016.77 745.33"><defs><style>.cls-1{fill:#007f62;}.cls-2{fill:#212121;}</style></defs><path class="cls-1" d="M849.55,367.6h155.77v4.07c0,22.91-3.06,94.17-49.89,140.5C920.31,547.29,877,557,834.78,557s-86-8.65-123.19-45.81c-11.7-11.71-50.39-54.47-50.39-130.83,0-65.67,29.52-105.88,49.88-126.24,25.46-26,68.22-51.93,133.89-51.93,25.45,0,52.43,4.08,78.39,17.82,21.89,11.2,45.81,31.56,63.63,62.11l-57.52,31.05a92.6,92.6,0,0,0-39.71-40.22c-14.25-7.12-32.07-10.69-47.85-10.69-27,0-57.52,9.67-78.39,30-19.35,18.83-34.11,51.41-34.11,89.59,0,45.31,19.34,72.29,33.6,86,15.27,14.76,39.19,29,75.34,29,22.4,0,47.85-6.11,66.68-20.37,13.24-10.18,26.47-27.49,32.07-51.92H849.55Z"/><path class="cls-1" d="M1057.24,328.91h62.1V362c9.67-18.84,22.91-28,27.49-30.55,9.67-6.11,21.89-9.67,36.65-9.67,10.69,0,19.35,2.55,26.47,5.09l-8.14,58c-8.15-5.6-16.29-8.14-29-8.14-11.71,0-29,2.54-41.23,17.82-11.71,14.76-12.22,33.59-12.22,48.87V549.33h-62.1Z"/><path class="cls-1" d="M1446.15,487.73c-6.62,16.29-31.56,68.73-108.43,68.73-35.63,0-62.61-10.19-84.5-31.06-24.44-22.9-34.62-51.41-34.62-86,0-43.78,17.82-70.76,33.6-86.54,26-25.45,56.5-31.05,83-31.05,44.79,0,70.75,17.82,86,36.14,23.41,28,26.47,62.62,26.47,86.54v5.09H1282.74c0,13.24,3.57,27.49,10.69,37.16,6.62,9.17,20.37,20.88,44.29,20.88,23.42,0,41.23-11.2,51.42-29Zm-57-77.88c-5.1-30-29.53-44.29-52.44-44.29s-46.83,14.76-51.92,44.29Z"/><path class="cls-1" d="M1711.87,487.73c-6.62,16.29-31.56,68.73-108.43,68.73-35.63,0-62.61-10.19-84.5-31.06-24.44-22.9-34.62-51.41-34.62-86,0-43.78,17.82-70.76,33.6-86.54,26-25.45,56.5-31.05,83-31.05,44.79,0,70.75,17.82,86,36.14,23.41,28,26.47,62.62,26.47,86.54v5.09H1548.46c0,13.24,3.57,27.49,10.69,37.16,6.62,9.17,20.37,20.88,44.29,20.88,23.42,0,41.23-11.2,51.42-29Zm-57-77.88c-5.1-30-29.53-44.29-52.44-44.29s-46.83,14.76-51.92,44.29Z"/><path class="cls-1" d="M1761.24,328.91h62.11v28.51c11.7-16.29,32.58-35.64,68.21-35.64,19.34,0,47.85,5.6,65.16,27C1972,367.6,1974,389.49,1974,410.87V549.33h-62.11V429.19c0-12.22-.51-31.56-11.71-43.27-9.67-10.18-22.9-11.2-29-11.2-16.29,0-29,5.6-38.18,19.35-9.16,14.25-9.67,30-9.67,42.76v112.5h-62.11Z"/><path class="cls-2" d="M2095.18,381.85V549.33h-62.1V381.85h-24.44V328.91h24.44V253.57h62.1v75.34h42.76v52.94Z"/><path class="cls-2" d="M2386.86,487.73c-6.62,16.29-31.56,68.73-108.43,68.73-35.63,0-62.61-10.19-84.5-31.06-24.43-22.9-34.62-51.41-34.62-86,0-43.78,17.82-70.76,33.6-86.54,26-25.45,56.51-31.05,83-31.05,44.79,0,70.76,17.82,86,36.14,23.41,28,26.47,62.62,26.47,86.54v5.09H2223.46c0,13.24,3.56,27.49,10.69,37.16,6.61,9.17,20.36,20.88,44.28,20.88,23.42,0,41.24-11.2,51.42-29Zm-57-77.88c-5.09-30-29.53-44.29-52.43-44.29s-46.84,14.76-51.93,44.29Z"/><path class="cls-2" d="M2436.24,328.91h62.1V362c9.67-18.84,22.91-28,27.49-30.55,9.67-6.11,21.89-9.67,36.65-9.67,10.69,0,19.34,2.55,26.47,5.09l-8.14,58c-8.15-5.6-16.29-8.14-29-8.14-11.71,0-29,2.54-41.23,17.82-11.71,14.76-12.22,33.59-12.22,48.87V549.33h-62.1Z"/><path class="cls-2" d="M2619.49,328.91h62.1v28.51c11.71-16.29,32.58-35.64,68.21-35.64,19.35,0,47.86,5.6,65.16,27,15.28,18.84,17.31,40.73,17.31,62.11V549.33h-62.1V429.19c0-12.22-.51-31.56-11.71-43.27-9.67-10.18-22.91-11.2-29-11.2-16.29,0-29,5.6-38.18,19.35-9.16,14.25-9.67,30-9.67,42.76v112.5h-62.1Z"/><path class="cls-2" d="M201.26,380.93a113.49,113.49,0,0,1-8.67-39.46c-1.85-45.6,23.81-79.46,34.63-93.62,25.38-33.21,56.55-49.93,75-57.87A165.63,165.63,0,0,0,258.64,243a149.56,149.56,0,0,0-16.76,53c-.95,8.36-6.39,64.44,29.58,105.58,21,23.95,44.09,29.28,41.89,36.29-2.45,7.82-33.68,8.71-59.24-2.13C220,421.33,205,389.73,201.26,380.93Z"/><path class="cls-1" d="M351.82,211.77c-30.28,27.15-44.19,69.51-34.38,109.89,10.36,42.64,46.9,75.84,92.73,84.31-9.91,2.64-39.31,9.07-72.18-4.31-5.48-2.23-47-20-63.16-65.8-18.92-53.64,13-100,19-108.77,6.94-10.08,37.59-51.56,92.2-56.34,34.72-3,61.31,10.32,71.93,16.43C454.05,186.09,396.85,171.4,351.82,211.77Z"/><path class="cls-1" d="M535.52,239.87c-35.62-27.59-84.6-26.05-115.1,1.53-26.19,23.68-35.09,63.08-21.06,96.41,17.89,42.5,63,51.16,66.22,51.72-8.71,2.47-28.93,6.87-51.93-.76-37.88-12.57-52.47-47.54-55-54.22-15.25-39.62-3.05-93.14,37.14-120.1C438.49,185.79,500.44,195.46,535.52,239.87Z"/><path class="cls-1" d="M525.13,254.31c32,15.05,51.43,53.19,52.12,97.35-8.15-3.12-20.09-6.21-33.53-3.79-15.68,2.83-19.49,10.66-33.84,15.29-15,4.84-38.4,5.17-55.68-8.37-19.43-15.24-24.37-42.73-18.34-64.2,1-3.56,8.45-28.5,33.29-39.58C494.29,239.8,518.48,251.18,525.13,254.31Z"/><path class="cls-2" d="M386.07,575C285,575.16,195.4,495,184.5,388.45c8.4,23.61,23.86,51.77,52.5,73.43,4.81,3.64,38.25,28.5,81.28,30.13,48.07,1.82,86-26.19,124.24-54.46C469,418,498.27,390.86,541,377.92c9.38-2.84,24.32-6.48,33.8,1.17,10.84,8.75,8.8,27.64,8,34.7C577.77,460.47,503.13,574.88,386.07,575Z"/></svg>