<svg width="1324" height="492" viewBox="0 0 1324 492" fill="none" xmlns="http://www.w3.org/2000/svg">
<g clip-path="url(#clip0_1272_2885)">
<rect width="1324" height="492" rx="24" fill="#DDE9FB"/>
<g opacity="0.1" clip-path="url(#clip1_1272_2885)">
<path d="M1379.79 281.666C1421.24 334.103 1370.15 410.781 1339.12 442.805C1318.45 410.718 1298.11 398.346 1290.53 396.17C1204.03 351.994 1229.3 291.516 1252.75 266.799C1293.69 229.359 1337.32 227.929 1379.79 281.666Z" fill="#ABBAD0"/>
<path d="M1260.79 29.9689C1043.06 10.2753 1024.22 158.13 1038.86 236.342C972.037 151.808 996.467 51.5392 1085.93 16.2928C1157.51 -11.9043 1231.98 11.349 1260.79 29.9689Z" fill="#ABBAD0"/>
<path d="M1376.49 150.959C1160.67 0.0555863 1113.92 230.035 1128.43 292.685C1058.83 216.72 1082.78 106.849 1168.95 64.162C1276.86 10.6999 1355.66 119.255 1376.49 150.959Z" fill="#ABBAD0"/>
<path d="M1116.35 364.293C1211.06 355.615 1292.3 401.788 1295.29 436.797C1303.95 538.176 1065.52 573.874 947.983 407.333C857.609 279.28 934.353 140.331 987.314 93.5074C987.663 93.1908 988.015 92.8821 988.372 92.5816C988.02 92.8861 987.668 93.1947 987.314 93.5074C934.055 141.89 975.787 377.171 1116.35 364.293Z" fill="#ABBAD0"/>
<path d="M1282.79 196.311C1356.78 189.117 1394.51 251.853 1405.46 286.408C1396.53 154.301 1271.89 107.211 1200.17 168.488C1145.86 214.885 1174.93 310.117 1201.53 343.772C1174.7 299.017 1190.31 205.303 1282.79 196.311Z" fill="#ABBAD0"/>
</g>
</g>
<defs>
<clipPath id="clip0_1272_2885">
<rect width="1324" height="492" rx="24" fill="white"/>
</clipPath>
<clipPath id="clip1_1272_2885">
<rect width="622.433" height="622.433" fill="white" transform="translate(1205.94 -158.465) rotate(51.6762)"/>
</clipPath>
</defs>
</svg>
