<svg width="1320" height="588" viewBox="0 0 1320 588" fill="none" xmlns="http://www.w3.org/2000/svg">
<g clip-path="url(#clip0_2439_3474)">
<rect y="0.5" width="1320" height="587" rx="24" fill="#EFF7F1"/>
<g opacity="0.1" clip-path="url(#clip1_2439_3474)">
<path d="M1426.44 -92.859C1215.37 -111.95 1197.1 31.3818 1211.29 107.201C1146.52 25.2531 1170.2 -71.9486 1256.93 -106.117C1326.32 -133.451 1398.51 -110.909 1426.44 -92.859Z" fill="#86C197"/>
<path d="M1538.6 24.43C1329.38 -121.857 1284.06 101.087 1298.12 161.821C1230.66 88.1796 1253.87 -18.3309 1337.4 -59.7118C1442.02 -111.538 1518.41 -6.30456 1538.6 24.43Z" fill="#86C197"/>
<path d="M1286.41 231.239C1378.23 222.827 1456.99 267.587 1459.89 301.525C1468.28 399.803 1237.14 434.409 1123.2 272.962C1035.59 148.827 1109.99 14.1277 1161.33 -31.2634C1161.67 -31.5704 1162.01 -31.8696 1162.35 -32.1609C1162.01 -31.8657 1161.67 -31.5666 1161.33 -31.2634C1109.7 15.6394 1150.15 243.723 1286.41 231.239Z" fill="#86C197"/>
<path d="M1447.77 68.3946C1519.49 61.4209 1556.07 122.238 1566.68 155.736C1558.03 27.6699 1437.19 -17.979 1367.67 41.4234C1315.03 86.4009 1343.2 178.719 1368.99 211.345C1342.98 167.959 1358.11 77.1118 1447.77 68.3946Z" fill="#86C197"/>
</g>
<g opacity="0.1" clip-path="url(#clip2_2439_3474)">
<path d="M282.453 561.557C322.63 612.39 273.1 686.723 243.022 717.767C222.983 686.661 203.271 674.667 195.92 672.558C112.062 629.734 136.565 571.105 159.299 547.144C198.985 510.85 241.279 509.464 282.453 561.557Z" fill="#86C197"/>
<path d="M167.091 317.559C-43.978 298.468 -62.2479 441.8 -48.056 517.619C-112.831 435.671 -89.1485 338.469 -2.41811 304.301C66.9662 276.967 139.156 299.509 167.091 317.559Z" fill="#86C197"/>
<path d="M279.249 434.848C70.0319 288.561 24.7135 511.505 38.7726 572.239C-28.693 498.598 -5.47801 392.087 78.052 350.706C182.668 298.879 259.056 404.113 279.249 434.848Z" fill="#86C197"/>
<path d="M27.064 641.657C118.879 633.245 197.637 678.005 200.536 711.943C208.931 810.221 -22.205 844.827 -136.148 683.38C-223.759 559.245 -149.362 424.546 -98.0208 379.155C-97.6829 378.848 -97.341 378.548 -96.9952 378.257C-97.336 378.552 -97.6779 378.851 -98.0208 379.155C-149.651 426.057 -109.195 654.141 27.064 641.657Z" fill="#86C197"/>
<path d="M188.416 478.813C260.137 471.839 296.72 532.656 307.328 566.154C298.677 438.088 177.843 392.439 108.318 451.841C55.6763 496.819 83.8548 589.137 109.643 621.763C83.6336 578.377 98.7636 487.53 188.416 478.813Z" fill="#86C197"/>
</g>
</g>
<defs>
<clipPath id="clip0_2439_3474">
<rect y="0.5" width="1320" height="587" rx="24" fill="white"/>
</clipPath>
<clipPath id="clip1_2439_3474">
<rect width="547.71" height="553.68" fill="white" transform="translate(1373.27 -275.528) rotate(51.6762)"/>
</clipPath>
<clipPath id="clip2_2439_3474">
<rect width="547.71" height="553.68" fill="white" transform="translate(113.918 134.89) rotate(51.6762)"/>
</clipPath>
</defs>
</svg>
