<?xml version="1.0" encoding="UTF-8" standalone="no"?>
<!-- Created with Inkscape (http://www.inkscape.org/) -->

<svg
   width="264.58331mm"
   height="81.11718mm"
   viewBox="0 0 264.58331 81.11718"
   version="1.1"
   id="svg3217"
   inkscape:version="1.3.2 (091e20e, 2023-11-25, custom)"
   sodipodi:docname="MR.DIY with slogan 2009.svg"
   xmlns:inkscape="http://www.inkscape.org/namespaces/inkscape"
   xmlns:sodipodi="http://sodipodi.sourceforge.net/DTD/sodipodi-0.dtd"
   xmlns="http://www.w3.org/2000/svg"
   xmlns:svg="http://www.w3.org/2000/svg">
  <sodipodi:namedview
     id="namedview3219"
     pagecolor="#505050"
     bordercolor="#eeeeee"
     borderopacity="0"
     inkscape:showpageshadow="true"
     inkscape:pageopacity="0"
     inkscape:pagecheckerboard="false"
     inkscape:deskcolor="#d1d1d1"
     inkscape:document-units="mm"
     showgrid="false"
     inkscape:zoom="1.75"
     inkscape:cx="544.85714"
     inkscape:cy="153.42857"
     inkscape:window-width="1920"
     inkscape:window-height="991"
     inkscape:window-x="-9"
     inkscape:window-y="-9"
     inkscape:window-maximized="1"
     inkscape:current-layer="layer1" />
  <defs
     id="defs3214" />
  <g
     inkscape:label="Layer 1"
     inkscape:groupmode="layer"
     id="layer1"
     transform="translate(-83.343739,-139.17083)">
    <path
       id="path9"
       d="m 91.530264,197.74194 7.0674,-0.01 5.610496,15.52209 c 0.30497,0.75414 0.71768,1.4453 1.24309,2.07513 l -8.06353,0.0116 c 0.263536,-0.34475 0.39779,-0.73923 0.399447,-1.17514 0,-0.48232 -0.134254,-1.05414 -0.396132,-1.71381 l -0.744199,-1.88287 -6.586737,0.007 -1.001105,2.41325 c -0.187292,0.46575 -0.283425,0.87017 -0.285082,1.21161 0,0.29502 0.101105,0.6779 0.304972,1.15193 l -4.495026,0.007 c 0.702762,-0.87017 1.340884,-1.97569 1.916022,-3.31989 l 5.673478,-13.25137 c -0.164089,-0.39945 -0.377901,-0.74752 -0.643094,-1.04586 m 4.03591,9.99281 -2.041988,-5.45303 -2.2558,5.45966 z"
       style="fill:#000000;fill-opacity:1;fill-rule:nonzero;stroke:none;stroke-width:1.65746"
       clip-path="none" />
    <path
       id="path11"
       d="m 112.14224,197.71393 -0.0133,14.33038 c -0.002,0.99613 0.0232,1.69061 0.0862,2.08342 0.0613,0.38951 0.18729,0.78398 0.3895,1.19172 l -6.76408,0.01 c 0.19889,-0.40773 0.33646,-0.80387 0.39116,-1.19337 0.0597,-0.39282 0.0928,-1.08729 0.0928,-2.08342 l 0.0116,-11.05359 c 0,-0.99613 -0.0315,-1.69226 -0.0878,-2.08177 -0.0547,-0.39281 -0.19227,-0.79226 -0.38785,-1.19502 z"
       style="fill:#000000;fill-opacity:1;fill-rule:nonzero;stroke:none;stroke-width:1.65746"
       clip-path="none" />
    <path
       id="path13"
       d="m 123.20196,202.27791 6.97624,-0.01 1.89282,8.00717 1.06408,-4.72375 c 0.14586,-0.67624 0.22542,-1.29779 0.22542,-1.8547 0,-0.5453 -0.0762,-1.02265 -0.2221,-1.4337 l 3.62817,-0.005 c -0.3464,0.38122 -0.59005,0.72265 -0.7243,1.02597 -0.13757,0.30497 -0.30332,0.84862 -0.48398,1.63094 l -2.43315,10.37734 -5.94696,0.008 -2.37348,-10.00442 -2.33536,10.00939 -5.97845,0.008 -2.4895,-10.81989 c -0.10939,-0.45414 -0.22707,-0.83867 -0.35304,-1.15027 -0.11933,-0.31326 -0.30497,-0.6663 -0.53701,-1.05249 l 7.11878,-0.01 c -0.15912,0.50884 -0.23868,0.95304 -0.23868,1.32929 -0.002,0.43591 0.0779,0.99944 0.23536,1.69226 l 1.12044,4.98563 z"
       style="fill:#000000;fill-opacity:1;fill-rule:nonzero;stroke:none;stroke-width:1.65746"
       clip-path="none" />
    <path
       id="path15"
       d="m 138.31781,202.25636 10.80497,-0.0149 c 0.81215,0 1.41215,0.0613 1.80331,0.18564 0.38453,0.12431 0.76575,0.37293 1.14033,0.75414 0.72763,0.74254 1.08232,1.67403 1.06906,2.78453 l -0.005,6.03315 c 0,0.99116 0.0265,1.679 0.0829,2.07348 0.0597,0.38784 0.19061,0.78397 0.39448,1.19171 l -5.76795,0.008 c -0.17238,-0.35636 -0.28675,-0.81547 -0.3547,-1.38232 -0.12431,0.47403 -0.35967,0.82375 -0.70442,1.04585 -0.34144,0.22376 -0.81713,0.33812 -1.43039,0.33812 l -4.33425,0.007 c -0.72928,0.002 -1.2895,-0.0514 -1.66906,-0.15414 -0.38121,-0.10276 -0.73425,-0.29503 -1.04254,-0.56354 -0.32155,-0.29502 -0.56022,-0.67127 -0.70939,-1.12872 -0.15415,-0.46078 -0.22873,-1.03426 -0.22707,-1.7221 v -2.20276 c 0.003,-0.97625 0.26022,-1.71879 0.77403,-2.23592 0.51878,-0.51712 1.26795,-0.77403 2.24585,-0.77569 l 5.52265,-0.007 c 0.50056,-0.0116 0.82542,-0.0398 0.97459,-0.0945 0.28342,-0.11105 0.42431,-0.39613 0.42431,-0.84862 0.002,-0.33149 -0.0879,-0.55359 -0.26519,-0.66298 -0.17404,-0.11768 -0.51382,-0.17403 -1.00442,-0.17403 l -5.63702,0.008 c -0.96961,-0.0149 -1.80165,0.19061 -2.49116,0.61989 z m 9.00828,6.69613 -2.79281,0.005 c -0.51713,0 -0.87348,0.11437 -1.06741,0.3547 -0.19558,0.2337 -0.29668,0.66795 -0.29668,1.29613 v 0.56685 c -0.002,0.61657 0.0978,1.04254 0.29337,1.28287 0.19226,0.23702 0.55028,0.35304 1.0674,0.35138 l 1.42044,-0.002 c 0.52542,-0.002 0.88343,-0.11603 1.08232,-0.3547 0.19558,-0.24033 0.29172,-0.6663 0.29172,-1.28453 z"
       style="fill:#000000;fill-opacity:1;fill-rule:nonzero;stroke:none;stroke-width:1.65746"
       clip-path="none" />
    <path
       id="path17"
       d="m 161.06841,202.22503 -0.008,8.53922 c -0.002,0.81713 0.10111,1.3558 0.30663,1.621 0.20553,0.27016 0.62652,0.4011 1.25801,0.39779 h 1.50995 c 0.45083,0 0.73922,-0.1094 0.85193,-0.32321 0.12431,-0.21547 0.19227,-0.75248 0.20553,-1.61105 l 0.005,-5.35193 c 0.002,-0.9895 -0.0282,-1.68232 -0.0879,-2.08508 -0.0563,-0.39613 -0.18895,-0.79558 -0.38784,-1.19171 l 6.28176,-0.008 -0.0133,13.02762 0.0116,0.87679 c -0.002,1.84641 -0.54198,3.09116 -1.62596,3.72928 -0.30332,0.17901 -0.64807,0.2884 -1.03426,0.33315 -0.38453,0.0431 -1.27127,0.0763 -2.65193,0.0945 l -9.64309,0.0149 -0.45911,-3.05636 c 0.36961,0.24199 0.75248,0.39779 1.14696,0.47901 0.39779,0.0746 1.04088,0.10939 1.93094,0.10939 l 5.2011,-0.008 c 0.55027,0 0.90663,-0.1127 1.07237,-0.33315 0.16741,-0.22541 0.24697,-0.7011 0.24697,-1.4337 l 0.003,-1.64751 c -0.18895,0.32486 -0.44586,0.55028 -0.76575,0.66796 -0.32154,0.11933 -0.80718,0.18563 -1.45856,0.18563 l -3.37955,0.005 c -0.92487,0 -1.621,-0.0862 -2.09006,-0.25856 -0.46906,-0.16906 -0.89834,-0.49889 -1.27956,-0.99282 -0.39779,-0.49392 -0.65966,-0.99779 -0.78066,-1.50497 -0.11768,-0.50884 -0.18066,-1.3326 -0.18066,-2.47624 l 0.005,-4.51326 c 0.002,-0.99779 -0.0282,-1.69226 -0.0845,-2.08508 -0.0547,-0.38785 -0.18895,-0.78398 -0.39282,-1.19006 z"
       style="fill:#000000;fill-opacity:1;fill-rule:nonzero;stroke:none;stroke-width:1.65746"
       clip-path="none" />
    <path
       id="path19"
       d="m 186.88281,202.19039 0.56022,3.27679 c -0.42099,-0.34309 -0.80718,-0.56685 -1.15856,-0.66464 -0.34475,-0.0978 -0.93149,-0.14585 -1.76519,-0.1442 l -4.9326,0.007 c -0.48066,0.01 -0.74586,0.0331 -0.81215,0.068 -0.15415,0.0829 -0.23371,0.25359 -0.23371,0.51381 -0.002,0.25028 0.063,0.41271 0.19724,0.49724 0.1326,0.0796 0.39945,0.12265 0.80055,0.12099 l 4.55636,-0.005 c 2.39005,-0.13591 3.56353,1.07403 3.52044,3.61823 l -0.002,1.85635 c -0.002,1.37238 -0.42265,2.40829 -1.26133,3.09614 -0.38453,0.30994 -0.78232,0.5221 -1.19834,0.62983 -0.41271,0.10608 -1.02928,0.16243 -1.84475,0.16243 l -10.14696,0.0133 -0.52375,-3.33812 c 0.7011,0.39613 1.23149,0.64807 1.57955,0.73757 0.35636,0.0878 0.9431,0.13094 1.76354,0.13094 l 5.07348,-0.007 c 0.41768,-0.002 0.69447,-0.053 0.84033,-0.14752 0.14751,-0.1011 0.21713,-0.29005 0.21878,-0.57348 0,-0.28508 -0.0597,-0.47403 -0.18066,-0.56187 -0.12265,-0.0895 -0.36961,-0.13592 -0.74586,-0.13592 l -5.1464,0.008 c -0.62984,0 -1.12044,-0.0646 -1.45856,-0.19724 -0.33978,-0.13259 -0.64641,-0.37955 -0.92652,-0.74254 -0.44254,-0.55027 -0.67127,-1.37403 -0.68453,-2.47292 l 0.002,-2.06188 c 0.002,-1.01768 0.2768,-1.83978 0.82376,-2.48122 0.40111,-0.46408 0.87514,-0.779 1.42707,-0.94143 0.55194,-0.1674 1.40884,-0.24862 2.56906,-0.24862 z"
       style="fill:#000000;fill-opacity:1;fill-rule:nonzero;stroke:none;stroke-width:1.65746"
       clip-path="none" />
    <path
       id="path21"
       d="m 209.55469,211.62613 -0.52376,3.56188 -14.00883,0.0182 c 0.41271,-0.6116 0.63812,-1.47845 0.67624,-2.60884 l 0.0116,-12.39115 c -0.0348,-1.12873 -0.25856,-1.99724 -0.67127,-2.60719 l 7.4337,-0.01 c -0.41602,0.58508 -0.63978,1.45525 -0.66961,2.60884 l -0.0133,12.09613 5.72983,-0.007 c 0.87017,-0.0216 1.54807,-0.23702 2.03536,-0.66133"
       style="fill:#000000;fill-opacity:1;fill-rule:nonzero;stroke:none;stroke-width:1.65746"
       clip-path="none" />
    <path
       id="path23"
       d="m 214.48264,202.15244 7.65911,-0.01 c 0.97956,-0.002 1.6989,0.058 2.15304,0.17569 0.46077,0.12099 0.86851,0.35801 1.22983,0.72265 0.37293,0.3663 0.63647,0.79392 0.79061,1.27458 0.14751,0.48232 0.22542,1.12542 0.22376,1.93426 l -0.003,5.19613 c 0.0232,2.61712 -1.3127,3.85359 -3.99281,3.72265 l -7.54641,0.0116 c -1.11878,0.002 -1.89447,-0.0564 -2.33038,-0.16906 -0.4326,-0.10939 -0.84199,-0.35138 -1.22652,-0.7326 -0.66133,-0.69282 -0.99282,-1.68066 -0.98122,-2.96685 l 0.005,-5.54254 c -0.008,-1.31436 0.46741,-2.32541 1.42376,-3.03314 0.33315,-0.24034 0.66298,-0.40111 0.98122,-0.47072 0.31823,-0.0746 0.8569,-0.11105 1.61436,-0.11271 m 1.78508,3.91492 -0.005,5.10994 c -0.002,0.57348 0.0961,0.97624 0.3,1.19834 0.20387,0.22376 0.56851,0.33481 1.09061,0.33481 l 1.72541,-0.005 c 0.51215,0 0.86188,-0.11602 1.05912,-0.35469 0.20055,-0.23868 0.29171,-0.6547 0.29337,-1.25636 l 0.003,-4.84972 c 0.002,-0.60994 -0.11271,-1.03259 -0.34807,-1.27458 -0.23535,-0.24365 -0.6464,-0.35967 -1.24143,-0.35967 l -1.48343,0.002 c -0.9464,0.003 -1.41215,0.48729 -1.39392,1.45525"
       style="fill:#000000;fill-opacity:1;fill-rule:nonzero;stroke:none;stroke-width:1.65746"
       clip-path="none" />
    <path
       id="path25"
       d="m 237.26805,202.12078 6.97955,-0.01 1.89282,8.00717 1.06077,-4.72375 c 0.14752,-0.67459 0.22542,-1.29613 0.22708,-1.85304 0,-0.54696 -0.0762,-1.02431 -0.22376,-1.4337 l 3.62983,-0.005 c -0.34309,0.37956 -0.58342,0.72099 -0.72099,1.02596 -0.14254,0.30498 -0.3,0.84862 -0.49392,1.63094 l -2.42818,10.37569 -5.94364,0.008 -2.37348,-10.00442 -2.3337,10.01105 -5.97845,0.008 -2.48951,-10.82154 c -0.1127,-0.45248 -0.22873,-0.83867 -0.35635,-1.15027 -0.12265,-0.31326 -0.30331,-0.66796 -0.54033,-1.05249 l 7.12375,-0.008 c -0.15746,0.50884 -0.2337,0.95138 -0.2337,1.32763 -0.002,0.43756 0.0729,0.99944 0.23039,1.69226 l 1.12375,4.98729 z"
       style="fill:#000000;fill-opacity:1;fill-rule:nonzero;stroke:none;stroke-width:1.65746"
       clip-path="none" />
    <path
       id="path27"
       d="m 263.93555,208.79354 -0.003,3.69779 c 0.0298,1.15359 0.25524,2.02707 0.67458,2.62044 l -7.37403,0.01 c 0.41768,-0.61326 0.64144,-1.48674 0.67127,-2.62209 l 0.0133,-12.37956 c -0.0282,-1.12541 -0.25028,-1.99558 -0.66795,-2.60718 l 13.12043,-0.0166 c 0.90995,-0.002 1.59282,0.058 2.04862,0.179 0.46077,0.11934 0.85525,0.34973 1.19171,0.68122 0.64641,0.61989 0.98453,1.54972 1.00939,2.78121 l -0.005,4.00276 c -0.0249,1.22818 -0.3663,2.15636 -1.01436,2.77293 -0.33647,0.33646 -0.73094,0.56354 -1.19337,0.68287 -0.4558,0.12431 -1.13702,0.1873 -2.04862,0.18895 z m 0.003,-2.90552 3.07459,-0.005 c 0.69116,0 1.12707,-0.11768 1.31105,-0.35966 0.18563,-0.24199 0.27679,-0.80387 0.27845,-1.69061 v -1.38066 c 0.002,-0.85691 -0.0762,-1.41547 -0.2337,-1.67072 -0.15249,-0.25359 -0.50221,-0.3779 -1.0326,-0.3779 l -3.39281,0.005 z"
       style="fill:#000000;fill-opacity:1;fill-rule:nonzero;stroke:none;stroke-width:1.65746"
       clip-path="none" />
    <path
       id="path29"
       d="m 281.7441,202.05979 0.15414,2.13978 c 0.13923,-0.51547 0.2884,-0.89503 0.44254,-1.14531 0.15083,-0.25193 0.37128,-0.45911 0.66133,-0.62154 0.48398,-0.25691 1.13702,-0.38453 1.93757,-0.37624 l 2.92541,-0.005 -0.003,4.30608 c -0.27348,-0.28177 -0.58509,-0.47569 -0.92652,-0.58343 -0.34973,-0.10607 -0.84365,-0.16077 -1.50497,-0.16077 l -1.18674,0.003 c -0.62818,0 -1.10553,0.16907 -1.45028,0.5105 -0.34309,0.33978 -0.51547,0.82376 -0.51547,1.44033 l -0.005,4.2547 c 0,0.99116 0.0298,1.679 0.0878,2.07348 0.0564,0.38784 0.19061,0.78397 0.39282,1.19171 l -6.7674,0.008 c 0.20718,-0.40774 0.34144,-0.80387 0.40276,-1.19172 0.0564,-0.39447 0.0879,-1.08397 0.0895,-2.07513 l 0.007,-6.48564 c 0,-0.9895 -0.0298,-1.68066 -0.0845,-2.07348 -0.0613,-0.39779 -0.19393,-0.79558 -0.40111,-1.20165 z"
       style="fill:#000000;fill-opacity:1;fill-rule:nonzero;stroke:none;stroke-width:1.65746"
       clip-path="none" />
    <path
       id="path31"
       d="m 295.3951,202.04188 -0.01,9.75082 c 0,0.99614 0.0232,1.69227 0.0862,2.08343 0.0564,0.3895 0.18564,0.78398 0.39282,1.19337 l -6.76574,0.008 c 0.20387,-0.40774 0.3348,-0.80387 0.39447,-1.19172 0.058,-0.39447 0.0928,-1.08895 0.0928,-2.08508 l 0.007,-6.47403 c 0,-0.99779 -0.0331,-1.69226 -0.0895,-2.08674 -0.058,-0.38619 -0.18895,-0.78398 -0.39116,-1.19005 z m 0.005,-4.57956 -0.003,3.29172 -5.79945,0.01 0.003,-3.29337 z"
       style="fill:#000000;fill-opacity:1;fill-rule:nonzero;stroke:none;stroke-width:1.65746"
       clip-path="none" />
    <path
       id="path33"
       d="m 310.41614,202.0205 0.47569,3.13425 c -0.33812,-0.24696 -0.67624,-0.42431 -1.01768,-0.5221 -0.34641,-0.0961 -0.79226,-0.1442 -1.33094,-0.1442 l -3.51215,0.005 c -0.63149,0 -1.06243,0.10276 -1.29116,0.31491 -0.22376,0.21216 -0.33978,0.61492 -0.33978,1.20663 l -0.007,5.19945 c 0,0.53204 0.11768,0.89337 0.35801,1.09061 0.23702,0.18895 0.68287,0.28508 1.33757,0.28508 l 3.29503,-0.005 c 0.54862,-0.002 0.99447,-0.0514 1.33757,-0.14918 0.34475,-0.0994 0.73591,-0.29668 1.16353,-0.58674 l -0.48232,3.20056 -8.67016,0.0116 c -0.17403,-0.0116 -0.72597,-0.063 -1.65083,-0.1558 -0.7326,-0.15415 -1.32597,-0.55857 -1.79503,-1.20829 -0.46408,-0.65635 -0.69613,-1.40552 -0.69447,-2.2558 l 0.005,-5.89558 c 0.17901,-2.38176 1.5,-3.55027 3.97459,-3.51215 z"
       style="fill:#000000;fill-opacity:1;fill-rule:nonzero;stroke:none;stroke-width:1.65746"
       clip-path="none" />
    <path
       id="path35"
       d="m 327.80121,209.77542 -9.78232,0.0116 v 1.07238 c -0.002,0.70276 0.11271,1.16519 0.33813,1.38397 0.22707,0.22045 0.70939,0.32652 1.44198,0.32487 l 5.26077,-0.007 c 1.1768,-0.0265 2.02376,-0.22542 2.53923,-0.59669 l -0.42597,3.06133 -10.55966,0.0149 c -0.90497,0 -1.59613,-0.063 -2.06519,-0.19392 -0.46906,-0.13094 -0.88011,-0.36961 -1.23149,-0.72099 -0.70442,-0.70111 -1.07072,-1.86299 -1.0989,-3.47735 l 0.003,-4.21989 c -0.0282,-3.04309 1.32431,-4.51491 4.0674,-4.41546 l 7.29281,-0.01 c 0.96962,-0.002 1.67569,0.068 2.12486,0.20055 0.44917,0.13923 0.84696,0.40774 1.19669,0.80055 0.32817,0.37791 0.56519,0.82045 0.69945,1.33426 0.13591,0.51215 0.20386,1.18674 0.2022,2.03038 z m -5.72652,-2.45635 0.002,-1.40718 c 0,-0.61989 -0.0646,-1.01271 -0.19558,-1.18177 -0.12762,-0.17238 -0.41768,-0.25856 -0.87348,-0.25856 l -1.88121,0.002 c -0.31989,0 -0.52376,0.0116 -0.61492,0.0348 -0.0912,0.0182 -0.17569,0.0796 -0.25193,0.17072 -0.15083,0.18563 -0.22708,0.60165 -0.23702,1.26795 l -0.002,1.37901 z"
       style="fill:#000000;fill-opacity:1;fill-rule:nonzero;stroke:none;stroke-width:1.65746"
       clip-path="none" />
    <path
       id="path37"
       d="m 343.48921,201.97559 0.56188,3.27679 c -0.42431,-0.34309 -0.80884,-0.56685 -1.15856,-0.66464 -0.35139,-0.0945 -0.93481,-0.1442 -1.76851,-0.1442 l -4.9326,0.007 c -0.47403,0.008 -0.74751,0.0331 -0.80718,0.0663 -0.1558,0.0845 -0.23702,0.25525 -0.23702,0.51547 -0.002,0.25028 0.0663,0.41271 0.19724,0.49724 0.13591,0.0796 0.39945,0.12265 0.80221,0.12265 l 4.55304,-0.007 c 2.39171,-0.13591 3.56353,1.07403 3.52044,3.61823 l -0.002,1.8547 c -0.002,1.37569 -0.41934,2.40994 -1.25801,3.09779 -0.38784,0.30994 -0.78563,0.5221 -1.19834,0.62983 -0.41437,0.10773 -1.03094,0.16243 -1.84475,0.16243 l -10.15193,0.0149 -0.51878,-3.33978 c 0.70276,0.39779 1.22817,0.64972 1.58287,0.73757 0.35304,0.0895 0.93812,0.13094 1.76187,0.13094 l 5.07514,-0.007 c 0.41602,-0.002 0.69448,-0.0514 0.83867,-0.14752 0.14586,-0.0994 0.21547,-0.29005 0.21547,-0.57513 0,-0.28509 -0.058,-0.47072 -0.18066,-0.55857 -0.12265,-0.0928 -0.37127,-0.13591 -0.74254,-0.13591 l -5.14641,0.007 c -0.6348,0 -1.1221,-0.0646 -1.46353,-0.19724 -0.33812,-0.13425 -0.64475,-0.37955 -0.91823,-0.74254 -0.44586,-0.55027 -0.6779,-1.37569 -0.69116,-2.47292 l 0.003,-2.06188 c 0,-1.01768 0.27182,-1.83978 0.82376,-2.48122 0.4011,-0.46243 0.87182,-0.779 1.42375,-0.94143 0.55525,-0.16575 1.4105,-0.24862 2.56906,-0.25028 z"
       style="fill:#000000;fill-opacity:1;fill-rule:nonzero;stroke:none;stroke-width:1.65746"
       clip-path="none" />
    <path
       id="path39"
       d="m 336.88176,164.56312 -0.002,2.2011 -0.003,-2.2011 c -0.69282,0.002 -1.36906,0.0663 -2.02873,0.18729 l 7.94254,-11.64032 0.0862,-0.1326 0.01,-0.0133 0.0149,-0.0249 c 0.45083,-0.7326 0.85359,-1.33923 1.16353,-1.78177 0.14586,-0.22044 0.27348,-0.39779 0.36962,-0.52376 0.0481,-0.0613 0.0829,-0.1127 0.10773,-0.13756 h -0.007 l 0.0215,-0.0216 0.0215,-0.0265 c 0,0 0.0199,-0.0249 0.0978,-0.0862 0.0746,-0.058 0.19061,-0.14585 0.3663,-0.24696 1.81823,-1.09061 2.88729,-3.02818 2.88398,-5.05856 0,-0.52376 -0.0646,-1.05249 -0.20884,-1.5663 -0.71602,-2.56243 -3.06133,-4.32762 -5.73812,-4.31933 l -10.56298,0.0149 c -1.70386,0.002 -3.32817,0.71768 -4.45856,1.98398 -0.97293,1.08232 -1.50497,2.47956 -1.50497,3.91823 -0.002,0.2221 0.0116,0.46077 0.0398,0.71271 0.0166,0.11602 0.0249,0.21712 0.0365,0.3 -0.0116,0.0249 -0.0298,0.0597 -0.0497,0.10442 -0.053,0.13591 -0.16741,0.34309 -0.35967,0.61657 l -1.54807,2.2674 -1.34585,-1.95248 c -0.33978,-0.48232 -0.59503,-0.90332 -0.77901,-1.20995 -0.0845,-0.14585 -0.14917,-0.27182 -0.18895,-0.35303 -0.0149,-0.0216 -0.0215,-0.0448 -0.0298,-0.0564 -0.007,-0.0481 -0.0199,-0.14917 -0.0315,-0.31823 v -0.10608 c 0,-1.56795 -0.61823,-3.05635 -1.73868,-4.16685 -1.11712,-1.10055 -2.62375,-1.71381 -4.20331,-1.71712 l -19.75192,0.0265 c -1.10221,0.002 -2.15304,0.30165 -3.05304,0.83867 -0.90332,-0.53536 -1.94917,-0.83204 -3.04807,-0.83039 l -18.17402,0.0249 c -2.30221,0.003 -4.39889,1.31436 -5.38508,3.37624 -0.38287,0.80055 -0.5768,1.6674 -0.5768,2.52431 -0.002,1.32596 0.4558,2.65027 1.3326,3.72099 0.008,0.0116 0.0182,0.0282 0.0298,0.0597 0.0762,0.17569 0.23205,0.65469 0.27348,1.54143 l -0.0133,14.75966 c -1.13038,-0.37955 -2.33867,-0.58839 -3.59336,-0.58674 -0.50221,0 -0.99116,0.0332 -1.48011,0.10111 l 0.008,-9.43425 c -0.008,-2.15635 -0.22707,-4.17348 -0.80718,-6.10276 -0.57845,-1.9011 -1.55635,-3.78563 -3.13094,-5.33204 -1.55635,-1.58287 -3.50552,-2.70829 -5.56408,-3.45912 -2.04199,-0.75082 -4.21657,-1.13038 -6.40442,-1.1337 h -0.007 c -0.0232,-0.007 -0.0663,-0.01 -0.12431,0 l -32.27567,0.0431 c -2.30221,0.005 -4.39392,1.31602 -5.38177,3.37624 -0.38784,0.80221 -0.57348,1.66906 -0.57514,2.52762 -0.007,1.33094 0.44917,2.65028 1.33094,3.72265 0.007,0.0133 0.0149,0.0315 0.0282,0.0597 0.0746,0.17569 0.2337,0.6779 0.26685,1.58784 l -0.008,8.4895 c -1.65911,-0.48232 -3.4127,-0.74917 -5.23094,-0.74585 -1.78342,0.002 -3.5022,0.2569 -5.12817,0.72762 l 0.007,-6.59005 c -0.0381,-1.87459 -0.36961,-3.74254 -1.14696,-5.51436 -0.78066,-1.79337 -2.00552,-3.38785 -3.57348,-4.60442 -1.55138,-1.25635 -3.42265,-2.09834 -5.36188,-2.50939 -1.86132,-0.37956 -3.8453,-0.48066 -6.27513,-0.48398 l -32.2475,0.0448 c -0.98619,0.002 -1.92762,0.24199 -2.76298,0.67956 -0.83205,-0.43591 -1.77348,-0.67293 -2.75801,-0.67293 l -20.09668,0.0282 c -2.4779,0.003 -4.70718,1.52652 -5.58066,3.83038 l -2.03204,5.34862 -1.9558,-5.30055 c -0.85856,-2.32044 -3.09282,-3.86188 -5.58895,-3.85856 l -20.096675,0.0282 c -2.302209,0.003 -4.395578,1.31436 -5.38508,3.37789 -0.386188,0.79558 -0.578453,1.66243 -0.578453,2.52431 -0.0017,1.33094 0.454143,2.65028 1.335911,3.721 0.0066,0.0132 0.01657,0.0348 0.02983,0.063 0.07459,0.17569 0.232044,0.6779 0.265193,1.58619 l -0.02486,24.69612 c -0.02818,0.69944 -0.120994,1.15193 -0.205524,1.40718 -0.03812,0.12762 -0.07293,0.20884 -0.0895,0.2453 -0.005,0 -0.005,0.007 -0.005,0.007 -0.89337,1.09558 -1.340884,2.40663 -1.340884,3.72265 -0.0017,0.84862 0.187293,1.71713 0.571823,2.52431 0.986188,2.05691 3.074584,3.35967 5.378451,3.35967 l 9.732592,-0.0133 c 1.592816,-0.005 3.081216,-0.63149 4.173476,-1.6989 1.09558,1.05746 2.58232,1.68895 4.18342,1.6873 l 10.55967,-0.0149 c 1.64419,-0.005 3.17071,-0.67293 4.26629,-1.78674 1.10387,1.11878 2.63205,1.77514 4.26133,1.77514 l 18.17568,-0.0249 c 0.98287,-0.005 1.92597,-0.24364 2.75967,-0.67955 0.8337,0.43425 1.77513,0.66961 2.75966,0.66961 l 18.17734,-0.0249 c 2.00221,0 3.83868,-0.99448 4.93923,-2.60221 1.09226,1.60442 2.93204,2.59061 4.93591,2.59061 l 17.2243,-0.0249 c 1.30276,0 2.53591,-0.42265 3.53867,-1.16187 1.48011,0.73591 3.1558,1.15359 4.93094,1.15193 2.03038,-0.003 3.94309,-0.55525 5.58232,-1.51492 1.07403,0.95636 2.47292,1.50166 3.96795,1.50166 l 32.35689,-0.0447 0.01,-0.002 c 2.20441,0 4.38894,-0.3895 6.45579,-1.14862 1.22652,-0.45248 2.40663,-1.03591 3.49724,-1.77679 1.96409,1.80165 4.6011,2.90552 7.49171,2.90055 1.63591,-0.002 3.20055,-0.35635 4.60773,-0.99613 0.94973,0.63149 2.09669,0.98784 3.3,0.98453 l 18.17403,-0.0232 c 1.63922,-0.003 3.16905,-0.66961 4.27292,-1.79337 1.73867,1.12707 3.81381,1.78177 6.04309,1.77845 2.11658,-0.003 4.0989,-0.59502 5.78287,-1.62265 1.08067,1.021 2.53757,1.61105 4.09392,1.61105 l 18.17569,-0.0249 c 1.41878,-0.005 2.75801,-0.50387 3.80552,-1.36906 1.57956,0.86851 3.39281,1.35746 5.33038,1.35414 6.09282,-0.008 11.03038,-4.89944 11.03701,-10.93425 0.005,-6.03646 -4.92265,-10.91601 -11.01546,-10.91104 m -37.18507,0.0514 c -2.21602,0.005 -4.27624,0.6547 -5.99668,1.76685 l 0.0149,-14.0569 c 0.3663,0.51879 0.76409,1.08729 1.17348,1.70553 l 0.0497,0.0613 7.55967,10.87624 c -0.89006,-0.22873 -1.83315,-0.35304 -2.80111,-0.35304"
       style="fill:#000000;fill-opacity:1;fill-rule:nonzero;stroke:none;stroke-width:1.65746"
       clip-path="none" />
    <path
       id="path41"
       d="m 336.87961,166.76405 c -2.88066,0.005 -5.4348,1.38232 -7.0442,3.49889 l 0.002,-2.08342 11.09171,-16.26629 0.0762,-0.12431 c 0.94973,-1.51326 1.68066,-2.54917 1.89448,-2.76796 0.17237,-0.20552 0.48729,-0.48563 0.99944,-0.79226 1.4337,-0.85856 2.11823,-2.55249 1.68067,-4.1569 -0.45415,-1.59945 -1.921,-2.70498 -3.60166,-2.70332 l -10.56464,0.0149 c -1.06408,0.002 -2.08176,0.45911 -2.79281,1.24475 -0.70774,0.78895 -1.0442,1.84309 -0.91989,2.89061 0.0282,0.20884 0.0414,0.3779 0.053,0.49723 0.005,0.1094 0.005,0.15746 0.005,0.15746 0.0116,0.26022 -0.10442,0.87514 -0.79558,1.87956 l -3.38619,4.94088 -3.18563,-4.61105 c -0.73425,-1.0558 -1.16851,-1.86629 -1.24475,-2.10165 -0.0713,-0.17404 -0.1674,-0.56188 -0.1674,-1.18509 0.002,-0.97127 -0.39448,-1.92099 -1.09061,-2.61215 -0.69613,-0.68453 -1.6558,-1.08066 -2.63536,-1.079 l -19.75192,0.0282 c -1.23978,0.002 -2.36354,0.60829 -3.0547,1.58122 -0.68784,-0.96962 -1.81823,-1.57127 -3.04475,-1.56796 l -18.17568,0.0249 c -1.43702,0.002 -2.75304,0.82376 -3.37127,2.11161 -0.6232,1.29281 -0.43591,2.81767 0.47569,3.91988 0.31492,0.36962 0.72431,1.23647 0.79061,2.96188 l -0.0182,18.57016 c -1.54973,-1.34752 -3.57846,-2.17127 -5.80939,-2.16796 -1.321,0 -2.57072,0.29834 -3.70111,0.81381 l 0.0133,-12.34806 c -0.01,-1.99723 -0.21712,-3.79723 -0.71768,-5.46298 -0.49723,-1.63922 -1.30773,-3.18066 -2.56574,-4.40221 -1.31437,-1.33922 -2.95856,-2.3022 -4.76685,-2.96684 -1.8232,-0.66796 -3.7442,-1.00277 -5.68674,-0.99945 l -32.3602,0.0431 c -1.44199,0.003 -2.74973,0.83039 -3.37459,2.11823 -0.61823,1.29282 -0.43094,2.81437 0.48066,3.91989 0.31161,0.36961 0.73094,1.25138 0.79061,2.99337 l -0.0116,11.7895 c -2.22928,-1.15028 -4.76519,-1.79503 -7.45525,-1.79171 -2.64861,0.003 -5.14474,0.63812 -7.35082,1.75856 l 0.01,-9.71768 v -0.0829 c -0.0348,-1.62762 -0.3232,-3.20552 -0.96298,-4.66574 -0.63315,-1.46022 -1.64751,-2.76796 -2.91215,-3.75249 -1.28287,-1.04585 -2.83094,-1.74033 -4.45193,-2.08508 -1.6094,-0.33315 -3.4442,-0.43757 -5.81437,-0.43591 l -32.24418,0.0447 c -1.06575,0 -2.06685,0.45414 -2.75967,1.2116 -0.69944,-0.75248 -1.69889,-1.20663 -2.76132,-1.20497 l -20.09668,0.0265 c -1.55304,0.003 -2.9453,0.96132 -3.49723,2.39834 l -4.14365,10.90773 -4.01768,-10.86961 c -0.53535,-1.4569 -1.93093,-2.41823 -3.49889,-2.41491 l -20.096675,0.0265 c -1.438673,0.003 -2.756352,0.82707 -3.376242,2.11325 -0.619889,1.29448 -0.429281,2.81934 0.480663,3.91989 0.311602,0.37127 0.730939,1.25304 0.787293,2.99503 l -0.02486,24.77899 c -0.05967,1.75028 -0.480663,2.63039 -0.793922,2.99337 -0.909945,1.10884 -1.105525,2.63702 -0.487293,3.92486 0.618232,1.2895 1.932596,2.10829 3.371269,2.10663 l 9.730935,-0.0116 c 1.451932,-0.003 3.517122,-0.98453 4.122092,-2.28895 0.54199,1.45193 2.66685,2.279 4.23647,2.27569 l 10.55966,-0.0133 c 1.55635,-0.003 3.77735,-0.83868 4.32265,-2.28066 0.60994,1.30442 2.75635,2.27071 4.20331,2.2674 l 18.17734,-0.0232 c 1.06243,-0.002 2.06022,-0.46243 2.76133,-1.21823 0.69281,0.75746 1.69226,1.2116 2.75801,1.20995 l 18.17734,-0.0249 c 1.45027,-0.002 2.77292,-0.83701 3.38287,-2.13977 0.15248,-0.32321 0.5453,-1.01934 0.84364,-1.01934 l 1.45359,-0.002 c 0.36464,-0.002 0.7989,0.98288 0.7989,0.98288 0.59668,1.31933 1.93425,2.16629 3.39613,2.16464 l 17.22264,-0.0249 c 1.30608,-0.002 2.50276,-0.67458 3.17735,-1.76519 1.47348,1.10055 3.3,1.75691 5.29392,1.75359 2.35359,-0.003 4.48508,-0.9232 6.06132,-2.4116 0.0398,0.0961 0.0746,0.19724 0.11934,0.29171 0.61492,1.2895 1.92928,2.10995 3.36961,2.10829 l 32.36021,-0.0447 h 0.007 c 1.9442,-0.003 3.86353,-0.34641 5.68342,-1.01271 1.70387,-0.62983 3.25691,-1.5232 4.53481,-2.74806 1.58618,2.26243 4.23149,3.74088 7.22485,3.73591 1.82818,-0.002 3.52044,-0.55028 4.92431,-1.49006 0.69945,0.91823 1.79171,1.48177 2.98508,1.48011 l 18.17403,-0.0249 c 1.45027,-0.003 2.78287,-0.8453 3.39281,-2.1547 0.1326,-0.27348 0.21713,-0.5685 0.27183,-0.86685 1.6127,1.84144 3.99281,3.0116 6.65469,3.00663 2.47458,-0.003 4.70221,-1.01602 6.3,-2.63867 0.0547,0.16243 0.1127,0.32486 0.18563,0.48066 0.60663,1.30939 1.93591,2.14641 3.38785,2.14475 l 18.17568,-0.0249 c 1.44199,-0.002 2.76795,-0.83702 3.37624,-2.13481 1.54475,1.32431 3.55193,2.12487 5.75967,2.12155 4.86463,-0.005 8.80607,-3.91491 8.81601,-8.73314 0,-4.82486 -3.9348,-8.71823 -8.79944,-8.71326 m -29.41159,4.66906 c -1.47845,-2.75138 -4.40055,-4.62099 -7.77182,-4.61768 -3.75746,0.005 -6.95635,2.33702 -8.22928,5.61381 l 0.0215,-21.96794 c 0.063,-1.80995 0.50221,-2.67017 0.74751,-2.93039 0.0729,-0.0862 0.13592,-0.17901 0.20553,-0.27017 0.11436,0.16243 0.2453,0.31824 0.39116,0.46409 0.89337,0.89337 2.27072,2.63039 3.90994,5.08674 l 0.0348,0.0514 10.69226,15.36961 z"
       style="fill:#fff200;fill-opacity:1;fill-rule:nonzero;stroke:none;stroke-width:1.65746"
       clip-path="none" />
    <path
       id="path43"
       d="m 116.9066,165.59919 7.68397,-20.2359 20.09668,-0.0282 c -1.01436,1.18177 -1.56464,2.92873 -1.63757,5.24585 l -0.0249,24.95635 c 0.068,2.32044 0.61492,4.07237 1.62762,5.24585 l -18.17734,0.0232 c 1.021,-1.17514 1.56464,-2.92708 1.64917,-5.24917 l 0.0215,-21.73259 -10.19834,26.99501 -10.558,0.0149 -9.962982,-26.96849 -0.02155,21.73258 c 0.07293,2.3221 0.613259,4.07403 1.627623,5.24751 l -9.732592,0.0133 c 1.017679,-1.23149 1.562983,-2.98342 1.640883,-5.25082 l 0.02321,-24.95469 c -0.07127,-2.26408 -0.61326,-4.01602 -1.627624,-5.24254 l 20.096672,-0.0282 z"
       style="fill:#ed1d24;fill-opacity:1;fill-rule:nonzero;stroke:none;stroke-width:1.65746"
       clip-path="none" />
    <path
       id="path45"
       d="m 171.31747,165.63185 -4.59282,0.007 -0.01,9.86685 c 0.0746,2.30386 0.62155,4.05082 1.63425,5.24585 l -18.17568,0.0249 c 1.01602,-1.23149 1.56298,-2.98176 1.64254,-5.25082 l 0.0249,-24.95635 c -0.0746,-2.26077 -0.61823,-4.01436 -1.63094,-5.24088 l 32.24253,-0.0447 c 2.22099,-0.003 3.89171,0.121 5.0221,0.35635 1.13038,0.24365 2.1116,0.69779 2.92873,1.37569 1.58784,1.2431 2.40994,3.11105 2.46298,5.60387 l -0.008,7.63591 c -0.002,1.60607 -0.22873,2.7779 -0.69116,3.50718 -0.82044,1.26132 -2.17458,1.89447 -4.04917,1.89779 -0.24862,0 -0.59668,-0.0149 -1.03591,-0.0497 l 5.3569,10.27956 c 0.93647,1.84806 1.93757,3.45911 3.00995,4.8232 l -17.2243,0.0249 z m -4.58619,-5.83591 8.32541,-0.0116 c 1.28619,-0.002 2.11824,-0.19558 2.49779,-0.57348 0.38122,-0.38287 0.5768,-1.22486 0.5768,-2.52099 l 0.003,-1.76685 c 0.002,-1.74531 -0.18066,-2.81603 -0.54198,-3.20387 -0.36299,-0.38619 -1.33757,-0.58508 -2.93205,-0.58177 l -7.92099,0.008 z"
       style="fill:#ed1d24;fill-opacity:1;fill-rule:nonzero;stroke:none;stroke-width:1.65746"
       clip-path="none" />
    <path
       id="path47"
       d="m 213.46894,180.68869 c 1.01602,-1.22983 1.56464,-2.98177 1.64586,-5.25083 l 0.0249,-24.95468 c -0.0762,-2.26243 -0.62155,-4.01602 -1.63591,-5.24254 l 32.3602,-0.0448 c 1.50995,-0.002 2.97514,0.26188 4.38895,0.779 1.42044,0.5105 2.55746,1.21161 3.41602,2.09172 1.45193,1.40386 2.18619,3.82541 2.20276,7.27292 l -0.0133,15.13591 c -0.0249,3.42762 -0.76408,5.85579 -2.21933,7.27292 -0.85857,0.88674 -2.00055,1.58784 -3.41934,2.10829 -1.41547,0.5221 -2.88232,0.78563 -4.3906,0.78729 z m 16.54806,-5.8674 7.05911,-0.01 c 1.61271,-0.003 2.65856,-0.26353 3.14751,-0.78232 0.48564,-0.51878 0.72929,-1.64751 0.73094,-3.37624 l 0.0149,-15.45413 c 0.002,-1.53647 -0.15912,-2.56906 -0.48398,-3.08619 -0.59503,-0.72928 -1.71547,-1.08066 -3.38453,-1.06077 l -7.05911,0.008 z"
       style="fill:#ed1d24;fill-opacity:1;fill-rule:nonzero;stroke:none;stroke-width:1.65746"
       clip-path="none" />
    <path
       id="path49"
       d="m 289.36277,180.58526 -18.17568,0.0249 c 1.02099,-1.23149 1.56795,-2.98176 1.64088,-5.25082 l 0.0249,-24.95469 c -0.0679,-2.26409 -0.6116,-4.01602 -1.62928,-5.24254 l 18.17403,-0.0249 c -1.01768,1.18011 -1.56299,2.92873 -1.64089,5.24751 l -0.0232,24.95469 c 0.0713,2.32044 0.61326,4.07237 1.62928,5.24585"
       style="fill:#ed1d24;fill-opacity:1;fill-rule:nonzero;stroke:none;stroke-width:1.65746"
       clip-path="none" />
    <path
       id="path51"
       d="m 323.59011,159.55594 6.4674,-9.43756 c 0.95635,-1.40221 1.43702,-2.71658 1.43867,-3.94973 0,-0.23701 -0.0282,-0.60497 -0.0862,-1.08895 l 10.56463,-0.0149 c -0.78563,0.47237 -1.4221,0.98287 -1.90939,1.54806 -0.49061,0.56685 -1.23315,1.64254 -2.22762,3.23536 l -11.73149,17.20773 -0.007,8.22927 c 0.0713,2.3221 0.61658,4.07404 1.63094,5.24752 l -18.17568,0.0249 c 1.01768,-1.1768 1.56464,-2.93039 1.64088,-5.25083 l 0.008,-8.23093 -11.35027,-16.31436 c -1.72376,-2.55912 -3.17569,-4.43867 -4.3558,-5.6337 l 19.75192,-0.0265 c 0,0.97293 0.13426,1.8116 0.41105,2.51934 0.27845,0.70939 0.82707,1.65911 1.64751,2.85248 z"
       style="fill:#ed1d24;fill-opacity:1;fill-rule:nonzero;stroke:none;stroke-width:1.65746"
       clip-path="none" />
    <path
       id="path53"
       d="m 209.00126,175.66129 c -0.002,2.77624 -2.279,5.03701 -5.08177,5.04033 -2.80276,0.005 -5.07845,-2.24917 -5.07679,-5.02541 0.002,-2.7779 2.28398,-5.02707 5.08508,-5.03039 2.80442,-0.003 5.07679,2.23757 5.07348,5.01547"
       style="fill:#ed1d24;fill-opacity:1;fill-rule:nonzero;stroke:none;stroke-width:1.65746"
       clip-path="none" />
    <path
       id="path55"
       d="m 268.36609,175.58007 c -0.002,2.77624 -2.27735,5.03701 -5.08674,5.04033 -2.8011,0.005 -5.07513,-2.24751 -5.07348,-5.02541 0.002,-2.7779 2.28232,-5.02707 5.08343,-5.03039 2.80939,-0.003 5.0801,2.23757 5.07679,5.01547"
       style="fill:#ed1d24;fill-opacity:1;fill-rule:nonzero;stroke:none;stroke-width:1.65746"
       clip-path="none" />
    <path
       id="path57"
       d="m 304.76271,175.53035 c -0.002,2.77624 -2.28066,5.03536 -5.08177,5.04033 -2.80607,0.003 -5.07679,-2.24751 -5.07347,-5.02541 0.003,-2.77956 2.27734,-5.02707 5.08342,-5.03204 2.80276,-0.003 5.07513,2.23922 5.07182,5.01712"
       style="fill:#ed1d24;fill-opacity:1;fill-rule:nonzero;stroke:none;stroke-width:1.65746"
       clip-path="none" />
    <path
       id="path59"
       d="m 341.94364,175.47946 c -0.002,2.77624 -2.27735,5.03701 -5.07845,5.04033 -2.80608,0.005 -5.08011,-2.24917 -5.07679,-5.02541 0.002,-2.7779 2.28066,-5.02707 5.08839,-5.03204 2.79945,-0.003 5.07016,2.23922 5.06685,5.01712"
       style="fill:#ed1d24;fill-opacity:1;fill-rule:nonzero;stroke:none;stroke-width:1.65746"
       clip-path="none" />
    <path
       id="path61-7"
       d="m 208.1833,168.46444 c 0.002,-1.15028 0.003,-2.30055 0.003,-3.44917 0.003,-2.45967 -3.84032,-1.81326 -5.17292,-1.8116 -2.14972,0.003 -2.59558,1.27293 -2.59889,3.04806 -0.002,1.63426 -0.003,3.27017 -0.005,4.90608 0,1.50994 -0.003,3.02652 -0.003,4.53646 -0.003,3.18066 7.76685,3.00166 7.77016,-0.01 0.002,-2.66188 0.005,-4.55636 0.007,-7.21989"
       style="fill:#939598;fill-opacity:1;fill-rule:nonzero;stroke:none;stroke-width:1.65746"
       clip-path="none" />
    <path
       id="path63-3"
       d="m 208.93861,176.39521 c -0.62818,2.66022 -5.10828,3.0116 -7.12707,2.14475 -2.03701,-0.87348 -2.16795,-1.76685 -2.1663,-3.70276 0.002,-2.52265 0.005,-5.04364 0.007,-7.56464 0.003,-1.1453 -0.34143,-3.26685 0.73923,-4.09889 1.56961,-1.2 3.94806,-0.73094 5.82099,-0.73425 1.60442,-0.002 2.73978,1.08563 2.73812,2.68508 -0.005,3.77734 -0.007,7.02762 -0.0116,10.80496 z m -0.7558,-7.93094 c 0.002,-1.14861 0.003,-2.30055 0.003,-3.44917 0.003,-2.45966 -3.83867,-1.81325 -5.17292,-1.8116 -2.14807,0.003 -2.59558,1.27293 -2.5989,3.04807 0,1.63425 -0.002,3.27182 -0.005,4.90607 0,1.5116 -0.002,3.02652 -0.003,4.53647 -0.003,3.18066 7.76684,3.00165 7.77016,-0.01 0.002,-2.66188 0.005,-4.55635 0.007,-7.21989"
       style="display:inline;fill:#000000;fill-opacity:1;fill-rule:nonzero;stroke:none;stroke-width:1.65746"
       clip-path="none" />
    <path
       id="path65-1"
       d="m 209.49684,158.045 c -1.76188,-0.6232 -3.64806,-0.91657 -5.52596,-0.89337 -2.03371,0.0232 -4.20829,0.25525 -6.0779,1.13039 -1.03923,0.48729 -2.6884,1.38563 -2.62044,2.74475 0.0829,1.56298 1.85469,2.49944 3.16574,2.96353 1.76519,0.62321 3.64641,0.91658 5.52431,0.89171 2.03701,-0.0249 4.20497,-0.25359 6.07292,-1.12873 1.14696,-0.53867 2.69503,-1.34751 2.6221,-2.74806 -0.0796,-1.55635 -1.85469,-2.5011 -3.16077,-2.96022"
       style="fill:#939598;fill-opacity:1;fill-rule:nonzero;stroke:none;stroke-width:1.65746"
       clip-path="none" />
    <path
       id="path67-8"
       d="m 210.03834,162.02489 c -1.86961,0.8768 -4.03757,1.10718 -6.07293,1.13039 -1.87955,0.0249 -3.76077,-0.26851 -5.52596,-0.89172 -1.06243,-0.37127 -2.4232,-1.06243 -2.95027,-2.13646 -0.15083,0.27348 -0.23371,0.57348 -0.21713,0.9 0.0845,1.56133 1.85635,2.49945 3.16574,2.96353 1.7652,0.62321 3.64807,0.91658 5.52431,0.89172 2.03702,-0.0249 4.20497,-0.25359 6.07458,-1.12873 1.14531,-0.54033 2.69503,-1.34917 2.6221,-2.74972 -0.0166,-0.2884 -0.0895,-0.55359 -0.20552,-0.80553 -0.45249,0.85856 -1.54973,1.4221 -2.41492,1.82652"
       style="fill:#bcbec0;fill-opacity:1;fill-rule:nonzero;stroke:none;stroke-width:1.65746"
       clip-path="none" />
    <path
       id="path69-8"
       d="m 208.85424,160.9235 c -0.91657,-0.58011 -1.82818,-1.15525 -2.74475,-1.73536 0.61492,-0.2221 1.22818,-0.44751 1.83978,-0.6779 0.16409,-0.058 0.20221,-0.32155 0,-0.36298 -0.48398,-0.0961 -1.35083,-0.46575 -1.83149,-0.34144 -0.721,0.19061 -1.44199,0.38287 -2.1663,0.57017 -0.35967,0.0928 -1.59447,-0.42597 -2.09834,-0.55691 -0.50221,-0.12928 -1.35249,0.23868 -1.86464,0.33978 -0.20055,0.0414 -0.16078,0.30497 0,0.36298 0.61326,0.22708 1.2232,0.45083 1.83812,0.67293 -0.91658,0.58011 -1.82983,1.16022 -2.74144,1.74199 -0.1127,0.068 -0.14254,0.26685 -0.002,0.32818 0.51049,0.22541 1.27292,0.81547 1.84143,0.62154 1.02265,-0.34641 2.04862,-0.69116 3.07293,-1.03922 0.003,-0.002 0.78232,0.28176 0.98287,0.35138 0.62984,0.2105 1.26464,0.42099 1.89613,0.63812 0.68619,0.22541 1.3442,-0.30829 1.97735,-0.58343 0.13757,-0.0646 0.10276,-0.26187 0,-0.32983 m -7.01602,-2.71326 c 0.58674,0.1558 1.31271,0.47569 1.94088,0.5337 -0.002,0.58011 -0.002,1.16354 -0.003,1.74199 -0.41602,0.0447 -0.88508,0.22707 -1.33591,0.42431 0,-0.5884 0,-1.17348 0.002,-1.76022 0,-0.01 -0.003,-0.0133 -0.003,-0.0133 v -0.01 c -0.008,-0.0564 -0.0381,-0.0995 -0.0796,-0.12597 -0.0182,-0.0149 -0.0348,-0.0216 -0.0547,-0.0315 -0.54199,-0.19724 -1.08232,-0.39448 -1.62431,-0.59337 0.43757,-0.11602 0.90663,-0.23039 1.15856,-0.16575 m -1.20663,3.3232 c -0.35138,-0.1558 -0.7011,-0.30663 -1.05414,-0.46243 0.83039,-0.52375 1.65248,-1.05082 2.48121,-1.5779 0,0.52708 -0.002,1.05415 -0.002,1.5779 -0.20221,0.0895 -0.39614,0.16741 -0.5652,0.22542 -0.34972,0.11768 -0.76077,0.28011 -0.86022,0.23701 m 3.52707,-1.05414 c 0.002,-0.57514 0.002,-1.15525 0.003,-1.73536 0.58508,-0.0597 1.25469,-0.36132 1.79834,-0.50221 0.34641,-0.0912 0.82376,0.0116 1.28619,0.13094 -0.53205,0.19393 -1.06409,0.38951 -1.59614,0.58674 -0.0298,0.008 -0.0564,0.0216 -0.0829,0.0414 -0.0398,0.0298 -0.0713,0.0762 -0.0713,0.1442 -0.002,0.58342 -0.002,1.16188 -0.002,1.74033 -0.45746,-0.18895 -0.92486,-0.36298 -1.33591,-0.40608 m 2.48453,0.87514 c -0.23039,-0.0762 -0.49226,-0.18729 -0.7674,-0.30166 0,-0.52541 0,-1.0442 0,-1.56464 0.82541,0.52542 1.65414,1.04751 2.48121,1.57127 -0.29834,0.13094 -0.59171,0.25856 -0.88508,0.38785 -0.34475,0.15248 -0.31823,0.0796 -0.82873,-0.0928"
       style="display:inline;fill:#221f20;fill-opacity:1;fill-rule:nonzero;stroke:none;stroke-width:1.65746"
       clip-path="none" />
    <path
       id="path71-7"
       d="m 206.64386,161.35527 c -0.23204,-0.0762 -0.49392,-0.18729 -0.76906,-0.30331 0,-0.52376 0.002,-1.04255 0.002,-1.56464 0.82541,0.52707 1.65248,1.04917 2.48121,1.57127 -0.29834,0.13093 -0.59171,0.26022 -0.88508,0.38784 -0.34475,0.15249 -0.31989,0.0812 -0.82873,-0.0912"
       style="fill:#939598;fill-opacity:1;fill-rule:nonzero;stroke:none;stroke-width:1.65746"
       clip-path="none" />
    <path
       id="path73-4"
       d="m 201.83856,158.20975 c 0.58674,0.1558 1.31271,0.47569 1.94088,0.5337 -0.002,0.58177 -0.002,1.16519 -0.003,1.74365 -0.41602,0.0447 -0.88508,0.22707 -1.33757,0.42431 0.002,-0.59006 0.002,-1.17514 0.003,-1.76022 0,-0.01 -0.003,-0.0149 -0.003,-0.0149 v -0.01 c -0.008,-0.0563 -0.0381,-0.0994 -0.0796,-0.12431 -0.0182,-0.0149 -0.0348,-0.0232 -0.0564,-0.0331 -0.54033,-0.19724 -1.08066,-0.39282 -1.62265,-0.59337 0.43757,-0.11437 0.90497,-0.23039 1.15856,-0.16575"
       style="fill:#939598;fill-opacity:1;fill-rule:nonzero;stroke:none;stroke-width:1.65746"
       clip-path="none" />
    <path
       id="path75-3"
       d="m 200.63242,161.53378 c -0.35304,-0.15746 -0.7011,-0.30829 -1.05414,-0.46409 0.82873,-0.52375 1.65082,-1.04917 2.48121,-1.57624 0,0.52541 -0.002,1.05249 -0.002,1.57624 -0.20386,0.0912 -0.39613,0.16906 -0.56519,0.22707 -0.34972,0.11768 -0.76243,0.28011 -0.86022,0.23702"
       style="fill:#bcbec0;fill-opacity:1;fill-rule:nonzero;stroke:none;stroke-width:1.65746"
       clip-path="none" />
    <path
       id="path77-7"
       d="m 204.15916,160.47964 c 0.002,-0.57514 0.002,-1.15525 0.003,-1.73536 0.58509,-0.0597 1.2547,-0.36298 1.79835,-0.50221 0.34641,-0.0928 0.82375,0.01 1.28453,0.13094 -0.53039,0.19392 -1.06243,0.3895 -1.59448,0.58674 -0.0298,0.008 -0.0564,0.0215 -0.0829,0.0414 -0.0398,0.0282 -0.0729,0.0746 -0.0729,0.1442 0,0.58342 0,1.16187 -0.002,1.74033 -0.4558,-0.18895 -0.9232,-0.36299 -1.33425,-0.40608"
       style="fill:#bcbec0;fill-opacity:1;fill-rule:nonzero;stroke:none;stroke-width:1.65746"
       clip-path="none" />
    <path
       id="path79-5"
       d="m 200.36673,170.52831 v 0 c -1.19668,0.002 -1.99226,0.73425 -1.99226,1.63923 -0.002,0.90165 0.96464,1.62928 2.16298,1.62596 -0.0348,0.002 0.18066,0.0216 0.54696,0.0216 0.0182,0 0.0249,0 0.0298,-0.002 1.5779,-0.002 5.92376,-0.36298 8.52928,-3.79723 0.0365,-0.053 0.18232,-0.27183 0.18895,-0.57017 0,-0.12265 -0.0298,-0.29006 -0.19558,-0.44088 -0.16906,-0.15083 -0.44585,-0.22045 -0.6895,-0.21382 0,0 -0.28508,0.31492 -0.9663,0.68951 -0.63646,0.33812 -4.8779,1.80663 -7.61436,1.04751 0,0 0.3663,0 0,0"
       style="display:inline;fill:#000000;fill-opacity:1;fill-rule:nonzero;stroke:none;stroke-width:1.65746"
       clip-path="none" />
    <path
       id="path81-5"
       d="m 208.78811,169.684 v 0 c -2.35525,3.09945 -6.28674,3.39282 -7.70221,3.39945 -0.3232,0 -0.48895,-0.0149 -0.48895,-0.0149 -0.71768,-0.002 -1.25635,-0.40276 -1.25635,-0.90332 0.002,-0.50055 0.54033,-0.90497 1.2,-0.90497 0,0 -0.01,0.0215 0.48398,0.12928 1.12873,0.25857 4.35082,0.1326 7.66243,-1.88784 0.25856,-0.068 0.1011,0.18232 0.1011,0.18232"
       style="fill:#bcbec0;fill-opacity:1;fill-rule:nonzero;stroke:none;stroke-width:1.65746"
       clip-path="none" />
    <path
       id="path83-0"
       d="m 200.36391,174.39764 v 0 c -1.19668,0 -1.99226,0.73757 -1.99392,1.63425 -0.002,0.90663 0.9663,1.63757 2.16464,1.63426 -0.0348,0 0.179,0.0133 0.54696,0.0133 h 0.0282 c 1.57955,-0.003 5.92375,-0.35967 8.53093,-3.79392 0.0348,-0.0564 0.18232,-0.26851 0.18895,-0.56851 0,-0.12265 -0.0298,-0.29006 -0.19558,-0.44752 -0.17072,-0.15082 -0.44751,-0.21547 -0.69116,-0.21215 0,0 -0.28342,0.31989 -0.9663,0.69116 -0.6348,0.33978 -4.87789,1.80663 -7.6127,1.04917 0,0 0.3663,-0.002 0,0"
       style="display:inline;fill:#000000;fill-opacity:1;fill-rule:nonzero;stroke:none;stroke-width:1.65746"
       clip-path="none" />
    <path
       id="path85-4"
       d="m 208.78397,173.55284 v 0 c -2.3569,3.10442 -6.28508,3.39447 -7.70221,3.40276 -0.3232,0 -0.48895,-0.0149 -0.48895,-0.0149 -0.71768,-0.005 -1.25635,-0.40607 -1.25469,-0.9116 0,-0.49226 0.53867,-0.9 1.19834,-0.9 0,0 -0.008,0.0199 0.48564,0.12763 1.12707,0.26022 4.35082,0.13094 7.66077,-1.89116 0.25856,-0.063 0.1011,0.18729 0.1011,0.18729"
       style="fill:#bcbec0;fill-opacity:1;fill-rule:nonzero;stroke:none;stroke-width:1.65746"
       clip-path="none" />
    <path
       id="path87-9"
       d="m 200.37171,166.6603 v 0 c -1.19668,0.002 -1.99226,0.73425 -1.99392,1.63425 -0.002,0.90995 0.96464,1.63426 2.16464,1.6326 -0.0365,0 0.179,0.0166 0.5453,0.0166 h 0.0315 c 1.5779,-0.003 5.9221,-0.36132 8.52928,-3.79889 0.0348,-0.0514 0.18232,-0.26851 0.18895,-0.56685 0,-0.12431 -0.0298,-0.29006 -0.19724,-0.44088 -0.16906,-0.15415 -0.44585,-0.22542 -0.6895,-0.21547 0,0 -0.28342,0.31823 -0.9663,0.68453 -0.6348,0.34806 -4.87789,1.80994 -7.6127,1.05414 0,0 0.36464,0 0,0"
       style="display:inline;fill:#000000;fill-opacity:1;fill-rule:nonzero;stroke:none;stroke-width:1.65746"
       clip-path="none" />
    <path
       id="path89-2"
       d="m 208.79093,165.81334 v 0 c -2.35525,3.10442 -6.28508,3.39447 -7.70221,3.4011 -0.32154,0.002 -0.48895,-0.0149 -0.48895,-0.0149 -0.71602,0.002 -1.25469,-0.40442 -1.25469,-0.90498 0,-0.49558 0.54033,-0.90497 1.2,-0.90663 0,0 -0.01,0.0215 0.48398,0.1326 1.12707,0.25856 4.35082,0.13094 7.66077,-1.89116 0.25856,-0.0663 0.1011,0.18398 0.1011,0.18398"
       style="fill:#bcbec0;fill-opacity:1;fill-rule:nonzero;stroke:none;stroke-width:1.65746"
       clip-path="none" />
    <path
       id="path91-8"
       d="m 203.96192,165.8929 c -2.36519,-0.0215 -4.94917,-0.33315 -7.04088,-1.54144 -1.10387,-0.6348 -2.48784,-1.71712 -2.41326,-3.18066 0.20884,-3.98618 6.5884,-4.78011 9.46243,-4.74861 2.87734,0.0282 9.45745,0.69613 9.45414,4.72375 -0.005,3.98453 -6.5884,4.78177 -9.46243,4.74696 m 5.53425,-7.84806 c -1.76188,-0.62321 -3.64806,-0.91658 -5.52596,-0.89337 -2.0337,0.0249 -4.20829,0.2569 -6.0779,1.13038 -1.03923,0.4873 -2.6884,1.38564 -2.61878,2.74641 0.0829,1.56133 1.85469,2.49779 3.16408,2.96188 1.76685,0.6232 3.64807,0.91657 5.52431,0.89171 2.03702,-0.0249 4.20497,-0.25359 6.07458,-1.12873 1.14531,-0.53867 2.69503,-1.34751 2.6221,-2.74806 -0.0812,-1.55636 -1.85635,-2.50111 -3.16243,-2.96022"
       style="display:inline;fill:#000000;fill-opacity:1;fill-rule:nonzero;stroke:none;stroke-width:1.65746"
       clip-path="none" />
  </g>
</svg>
