<svg width="95" height="95" viewBox="0 0 95 95" fill="none" xmlns="http://www.w3.org/2000/svg">
<g filter="url(#filter0_d_770_1208)">
<rect x="9.58984" y="8.06738" width="75.6617" height="75.6617" rx="12" fill="white"/>
<path d="M65.372 34.207C68.276 34.207 70.6385 31.8446 70.6385 28.9406C70.6385 26.0366 68.276 23.6741 65.372 23.6741C62.4685 23.6741 60.1061 26.0366 60.1061 28.9406C60.1061 29.9316 60.3814 30.8594 60.8592 31.6519L55.7464 36.7648C53.8372 35.2454 51.4216 34.3365 48.7976 34.3365C46.1737 34.3365 43.7581 35.2454 41.8489 36.7648L32.9533 27.8692C33.2585 27.2848 33.4314 26.6208 33.4314 25.9171C33.4314 23.5845 31.5333 21.6865 29.2003 21.6865C26.8677 21.6865 24.9697 23.5845 24.9697 25.9171C24.9697 28.2502 26.8677 30.1482 29.2003 30.1482C29.9034 30.1482 30.5669 29.9756 31.151 29.6708L40.0471 38.5668C38.5279 40.4761 37.6191 42.8916 37.6191 45.5155C37.6191 48.1394 38.5279 50.5548 40.0471 52.464L34.5538 57.9574C33.4941 57.242 32.2179 56.8239 30.8459 56.8239C27.1833 56.8239 24.2031 59.8041 24.2031 63.4667C24.2031 67.1298 27.1833 70.11 30.8459 70.11C34.509 70.11 37.4892 67.1298 37.4892 63.4667C37.4892 62.0949 37.0711 60.8189 36.3557 59.7593L41.8491 54.266C43.7583 55.7852 46.1738 56.694 48.7976 56.694C51.4213 56.694 53.8365 55.7854 55.7457 54.2664L58.3763 56.897C58.0342 57.5275 57.8397 58.2493 57.8397 59.0156C57.8397 61.4736 59.8393 63.4732 62.2973 63.4732C64.7548 63.4732 66.7543 61.4736 66.7543 59.0156C66.7543 56.5581 64.7548 54.5585 62.2973 54.5585C61.5308 54.5585 60.8089 54.753 60.1783 55.0952L57.5477 52.4646C59.0672 50.5553 59.9762 48.1396 59.9762 45.5155C59.9762 42.8916 59.0674 40.4761 57.5482 38.5668L62.6611 33.4539C63.4535 33.9318 64.3812 34.207 65.372 34.207ZM29.2003 27.5996C28.2729 27.5996 27.5183 26.845 27.5183 25.9171C27.5183 24.9898 28.2729 24.2351 29.2003 24.2351C30.1281 24.2351 30.8828 24.9898 30.8828 25.9171C30.8828 26.845 30.1281 27.5996 29.2003 27.5996ZM30.8459 67.5614C28.5885 67.5614 26.7517 65.7246 26.7517 63.4667C26.7517 61.2093 28.5885 59.3725 30.8459 59.3725C33.1038 59.3725 34.9406 61.2093 34.9406 63.4667C34.9406 65.7246 33.1038 67.5614 30.8459 67.5614ZM62.2973 57.1071C63.3496 57.1071 64.2057 57.9633 64.2057 59.0156C64.2057 60.0684 63.3496 60.9246 62.2973 60.9246C61.2445 60.9246 60.3883 60.0684 60.3883 59.0156C60.3883 57.9633 61.2445 57.1071 62.2973 57.1071ZM48.7976 54.1454C44.0389 54.1454 40.1677 50.2742 40.1677 45.5155C40.1677 40.7567 44.0389 36.8851 48.7976 36.8851C53.5564 36.8851 57.4276 40.7567 57.4276 45.5155C57.4276 50.2742 53.5564 54.1454 48.7976 54.1454ZM65.372 26.2227C66.8708 26.2227 68.0899 27.4418 68.0899 28.9406C68.0899 30.4394 66.8708 31.6584 65.372 31.6584C63.8737 31.6584 62.6547 30.4394 62.6547 28.9406C62.6547 27.4418 63.8737 26.2227 65.372 26.2227Z" fill="#E57A56"/>
</g>
<defs>
<filter id="filter0_d_770_1208" x="0.510445" y="0.501217" width="93.8209" height="93.8204" filterUnits="userSpaceOnUse" color-interpolation-filters="sRGB">
<feFlood flood-opacity="0" result="BackgroundImageFix"/>
<feColorMatrix in="SourceAlpha" type="matrix" values="0 0 0 0 0 0 0 0 0 0 0 0 0 0 0 0 0 0 127 0" result="hardAlpha"/>
<feOffset dy="1.51323"/>
<feGaussianBlur stdDeviation="4.5397"/>
<feComposite in2="hardAlpha" operator="out"/>
<feColorMatrix type="matrix" values="0 0 0 0 0.898039 0 0 0 0 0.478431 0 0 0 0 0.337255 0 0 0 0.18 0"/>
<feBlend mode="normal" in2="BackgroundImageFix" result="effect1_dropShadow_770_1208"/>
<feBlend mode="normal" in="SourceGraphic" in2="effect1_dropShadow_770_1208" result="shape"/>
</filter>
</defs>
</svg>
