<svg width="95" height="95" viewBox="0 0 95 95" fill="none" xmlns="http://www.w3.org/2000/svg">
<g filter="url(#filter0_d_1211_1276)">
<rect x="9.58984" y="8.49561" width="75.6617" height="75.6617" rx="12" fill="white"/>
<path d="M59.5793 40.8215L59.5793 40.8218L59.5861 40.819C60.3682 40.4931 61.0539 40.0036 61.6091 39.3179C63.1442 37.4559 63.0787 34.6497 61.5114 32.8534C60.5972 31.7763 59.291 31.1557 57.8871 31.1227C56.4825 31.0577 55.1119 31.613 54.1329 32.592C53.6434 33.0815 53.2844 33.6364 53.0237 34.2873C52.8789 34.6039 52.5941 34.8027 52.2196 34.8027H42.6196C42.2746 34.8027 41.9636 34.6025 41.8505 34.263L41.8508 34.263L41.8479 34.2562C41.5221 33.4741 41.0325 32.7883 40.3468 32.2332C38.518 30.7312 35.8416 30.7313 34.013 32.2007L34.0129 32.2008C32.8381 33.1472 32.1523 34.5508 32.1197 36.0204L32.1197 36.0205C32.087 37.5219 32.7074 38.9262 33.8175 39.9057L33.8176 39.9058C35.7114 41.571 38.5843 41.5711 40.4782 39.8733C41.0637 39.3528 41.5221 38.7323 41.7848 38.0111C41.9311 37.6619 42.2165 37.4667 42.5556 37.4667H52.1556C52.4939 37.4667 52.8127 37.6931 52.9593 38.0451L52.9669 38.0634L52.9809 38.0774L52.9986 38.095C53.1328 38.4368 53.0441 38.8007 52.8209 39.024L40.0529 51.792C39.7952 52.0497 39.4241 52.1069 39.109 51.9636L39.107 51.9627C37.0493 51.0809 34.6339 51.7015 33.2302 53.4314C31.6947 55.2939 31.7611 58.0678 33.3275 59.8956C34.2418 60.973 35.5482 61.5936 36.9522 61.6266C38.3568 61.6916 39.7274 61.1363 40.7063 60.1574C42.1751 58.6886 42.5996 56.5332 41.7837 54.6077L41.7837 54.6076L41.7827 54.6053C41.6415 54.2947 41.7256 53.9254 41.9821 53.6974L41.9822 53.6975L41.9863 53.6934L54.7543 40.9254C55.0107 40.669 55.3825 40.6089 55.7332 40.755L55.7516 40.7627H55.7716H55.7832C56.1249 40.9126 56.3436 41.2262 56.3436 41.5587V51.1587C56.3436 51.5037 56.1434 51.8147 55.804 51.9278L55.8039 51.9276L55.7978 51.9301C55.0786 52.2243 54.4591 52.6813 53.9388 53.2341L53.9372 53.2359C52.2392 55.1298 52.2393 58.0028 53.9045 59.8967C54.852 60.9748 56.2556 61.5947 57.6916 61.5947C59.1277 61.5947 60.5313 60.9748 61.4787 59.8967C63.144 58.0029 63.1441 55.162 61.4462 53.2681C60.9258 52.6826 60.3053 52.2242 59.584 51.9615C59.2349 51.8152 59.0396 51.5298 59.0396 51.1907V41.5907C59.0396 41.2456 59.2398 40.9347 59.5793 40.8215ZM38.8049 37.744C37.884 38.6649 36.4113 38.6649 35.4903 37.744C34.5694 36.823 34.5694 35.3503 35.4903 34.4294C35.9501 33.9696 36.532 33.7547 37.1476 33.7547C37.7632 33.7547 38.3451 33.9696 38.8049 34.4294C39.7259 35.3503 39.7259 36.823 38.8049 37.744ZM38.8049 58.256C37.884 59.1769 36.4113 59.1769 35.4903 58.256C34.5694 57.335 34.5694 55.8623 35.4903 54.9414C35.9193 54.5124 36.5018 54.2667 37.1476 54.2667C37.7935 54.2667 38.376 54.5124 38.8049 54.9414C39.7259 55.8623 39.7259 57.335 38.8049 58.256ZM56.0011 37.7427C55.0814 36.8217 55.0818 35.3499 56.0023 34.4294C56.9233 33.5084 58.396 33.5084 59.3169 34.4294C60.2379 35.3503 60.2379 36.823 59.3169 37.744C58.888 38.1729 58.3055 38.4187 57.6596 38.4187C57.0476 38.4187 56.464 38.1742 56.0011 37.7427ZM56.0023 58.256C55.0814 57.335 55.0814 55.8623 56.0023 54.9414C56.4621 54.4816 57.044 54.2667 57.6596 54.2667C58.2752 54.2667 58.8571 54.4816 59.3169 54.9414C60.2379 55.8623 60.2379 57.335 59.3169 58.256C58.396 59.1769 56.9233 59.1769 56.0023 58.256Z" fill="#E57A56" stroke="#E57A56" stroke-width="0.2"/>
</g>
<defs>
<filter id="filter0_d_1211_1276" x="0.510445" y="0.92944" width="93.8209" height="93.8204" filterUnits="userSpaceOnUse" color-interpolation-filters="sRGB">
<feFlood flood-opacity="0" result="BackgroundImageFix"/>
<feColorMatrix in="SourceAlpha" type="matrix" values="0 0 0 0 0 0 0 0 0 0 0 0 0 0 0 0 0 0 127 0" result="hardAlpha"/>
<feOffset dy="1.51323"/>
<feGaussianBlur stdDeviation="4.5397"/>
<feComposite in2="hardAlpha" operator="out"/>
<feColorMatrix type="matrix" values="0 0 0 0 0.898039 0 0 0 0 0.478431 0 0 0 0 0.337255 0 0 0 0.18 0"/>
<feBlend mode="normal" in2="BackgroundImageFix" result="effect1_dropShadow_1211_1276"/>
<feBlend mode="normal" in="SourceGraphic" in2="effect1_dropShadow_1211_1276" result="shape"/>
</filter>
</defs>
</svg>
