<svg width="95" height="95" viewBox="0 0 95 95" fill="none" xmlns="http://www.w3.org/2000/svg">
<g filter="url(#filter0_d_1211_1278)">
<rect x="9.58984" y="8.18018" width="75.6617" height="75.6617" rx="12" fill="white"/>
<path d="M48.118 32.9437L48.118 32.9437C47.8074 33.3451 47.5832 33.9999 47.4189 34.7477C47.2545 33.9997 47.0303 33.3449 46.7197 32.9437C45.9921 32.0036 44.9006 31.5113 43.7974 31.5113C43.0084 31.5113 42.2126 31.7633 41.5403 32.2839C39.9277 33.5318 39.6324 35.8506 40.8803 37.4632L40.8803 37.4633C41.0437 37.6745 41.2809 37.8788 41.5649 38.0745H38.4384C38.4384 38.0745 38.4384 38.0745 38.4384 38.0745C36.4971 38.0742 34.9176 39.6537 34.9176 41.5953V56.9902C34.9176 58.9318 36.4971 60.5113 38.4384 60.5113H56.399C58.3406 60.5113 59.9201 58.9318 59.9201 56.9902V41.5953C59.9201 39.6537 58.3406 38.0742 56.399 38.0742H53.2732C53.5571 37.8786 53.7941 37.6743 53.9575 37.4629C55.2053 35.8503 54.91 33.5315 53.2973 32.2836C52.6251 31.7633 51.8293 31.5113 51.0403 31.5113C49.9371 31.5113 48.8456 32.0037 48.118 32.9437ZM51.1909 37.0501C50.5723 37.3334 49.7858 37.6377 48.932 37.9228C48.9939 37.0256 49.0913 36.1885 49.2105 35.5189C49.2733 35.1657 49.342 34.8606 49.4142 34.6187C49.4871 34.3742 49.5607 34.2043 49.6293 34.1126C49.9693 33.6735 50.4832 33.4217 51.0403 33.4217C51.4369 33.4217 51.8125 33.5503 52.1279 33.7944L52.1279 33.7944C52.5043 34.0857 52.7445 34.5059 52.8048 34.9779C52.8651 35.4499 52.7381 35.9165 52.4471 36.2926C52.3758 36.3817 52.2299 36.4955 52.0115 36.6273C51.7954 36.7577 51.5173 36.9006 51.1909 37.0501ZM42.7098 33.7947L42.7098 33.7947C43.0252 33.5506 43.4011 33.422 43.7977 33.422C44.3545 33.422 44.8684 33.6738 45.2081 34.1122C45.2765 34.2037 45.35 34.3734 45.4228 34.6179C45.4949 34.8599 45.5634 35.165 45.6262 35.5184C45.7453 36.1883 45.8427 37.0259 45.9047 37.9238C45.0516 37.639 44.2656 37.3348 43.6472 37.0515C43.321 36.902 43.0429 36.7591 42.8268 36.6285C42.6084 36.4966 42.4625 36.3826 42.3909 36.2932C42.0996 35.9168 41.9726 35.4502 42.0329 34.9782C42.0933 34.506 42.3334 34.086 42.7098 33.7947ZM36.828 56.9902V45.9718H46.4635V58.6009H38.4384C37.5506 58.6009 36.828 57.8784 36.828 56.9902ZM58.0097 56.9902C58.0097 57.878 57.2871 58.6006 56.3993 58.6006H48.3742V45.9718H58.0097V56.9902ZM56.3993 39.9849C57.2871 39.9849 58.0097 40.7075 58.0097 41.5953V44.0611H48.3742V39.9849H56.3993ZM46.4635 39.9849V44.0614H36.828V41.5953C36.828 40.7075 37.5506 39.9849 38.4384 39.9849H46.4635Z" fill="#E57A56" stroke="#E57A56" stroke-width="0.2"/>
</g>
<defs>
<filter id="filter0_d_1211_1278" x="0.510445" y="0.61401" width="93.8209" height="93.8204" filterUnits="userSpaceOnUse" color-interpolation-filters="sRGB">
<feFlood flood-opacity="0" result="BackgroundImageFix"/>
<feColorMatrix in="SourceAlpha" type="matrix" values="0 0 0 0 0 0 0 0 0 0 0 0 0 0 0 0 0 0 127 0" result="hardAlpha"/>
<feOffset dy="1.51323"/>
<feGaussianBlur stdDeviation="4.5397"/>
<feComposite in2="hardAlpha" operator="out"/>
<feColorMatrix type="matrix" values="0 0 0 0 0.898039 0 0 0 0 0.478431 0 0 0 0 0.337255 0 0 0 0.18 0"/>
<feBlend mode="normal" in2="BackgroundImageFix" result="effect1_dropShadow_1211_1278"/>
<feBlend mode="normal" in="SourceGraphic" in2="effect1_dropShadow_1211_1278" result="shape"/>
</filter>
</defs>
</svg>
