<svg width="95" height="94" viewBox="0 0 95 94" fill="none" xmlns="http://www.w3.org/2000/svg">
<g filter="url(#filter0_d_1211_1261)">
<rect x="9.58984" y="7.59229" width="75.6617" height="75.6617" rx="12" fill="white"/>
<path d="M39.7327 38.0276C37.8873 39.9451 36.7526 42.5517 36.7526 45.4232C36.7526 51.3142 41.5282 56.0898 47.4193 56.0898C48.8603 56.0898 50.2347 55.8041 51.4887 55.2861C51.6421 54.2854 51.3057 53.3253 51.1681 52.9893C50.8619 52.2432 49.8514 50.9674 48.1645 49.1976C47.7142 48.7242 47.7431 48.3612 47.9041 47.2822L47.9226 47.1604C48.0319 46.4213 48.2154 45.9844 50.7022 45.5896C51.9655 45.3893 52.2978 45.8942 52.7583 46.5934C52.8093 46.6709 52.8602 46.7469 52.9123 46.823C53.3498 47.4628 53.6739 47.609 54.1635 47.8317C54.3829 47.9312 54.6566 48.0566 55.0234 48.265C55.8927 48.7618 55.8927 49.3228 55.8927 50.5528V50.6922C55.8927 51.2144 55.8417 51.6728 55.7614 52.071C57.2163 50.2478 58.0859 47.937 58.0859 45.4232C58.0859 41.0244 55.4233 37.2474 51.6218 35.6163C50.8842 36.114 49.8723 36.8195 49.5193 37.3032C49.3387 37.5503 49.0835 38.8121 48.2535 38.9162C48.0361 38.9435 47.7443 38.9244 47.4353 38.9045C46.6066 38.8506 45.4729 38.7779 45.1099 39.7631C44.8795 40.3874 44.839 42.0824 45.5845 42.9622C45.7038 43.1028 45.7269 43.3628 45.6458 43.6545C45.5393 44.0376 45.3241 44.2706 45.257 44.3188C45.1285 44.2449 44.8721 43.9473 44.6984 43.7448C44.28 43.2585 43.758 42.653 43.0832 42.4655C42.8379 42.3976 42.5681 42.3414 42.3066 42.2863C41.5745 42.1329 40.7452 41.9583 40.5525 41.5472C40.4118 41.2461 40.4124 40.8315 40.413 40.3934C40.413 39.8381 40.413 39.2102 40.141 38.5999C40.0359 38.3637 39.8951 38.1758 39.7327 38.0276ZM47.4193 58.7565C40.0555 58.7565 34.0859 52.7869 34.0859 45.4232C34.0859 38.0594 40.0555 32.0898 47.4193 32.0898C54.783 32.0898 60.7526 38.0594 60.7526 45.4232C60.7526 52.7869 54.783 58.7565 47.4193 58.7565Z" fill="#E57A56"/>
</g>
<defs>
<filter id="filter0_d_1211_1261" x="0.510445" y="0.0261192" width="93.8209" height="93.8204" filterUnits="userSpaceOnUse" color-interpolation-filters="sRGB">
<feFlood flood-opacity="0" result="BackgroundImageFix"/>
<feColorMatrix in="SourceAlpha" type="matrix" values="0 0 0 0 0 0 0 0 0 0 0 0 0 0 0 0 0 0 127 0" result="hardAlpha"/>
<feOffset dy="1.51323"/>
<feGaussianBlur stdDeviation="4.5397"/>
<feComposite in2="hardAlpha" operator="out"/>
<feColorMatrix type="matrix" values="0 0 0 0 0.898039 0 0 0 0 0.478431 0 0 0 0 0.337255 0 0 0 0.18 0"/>
<feBlend mode="normal" in2="BackgroundImageFix" result="effect1_dropShadow_1211_1261"/>
<feBlend mode="normal" in="SourceGraphic" in2="effect1_dropShadow_1211_1261" result="shape"/>
</filter>
</defs>
</svg>
