<svg width="17" height="17" viewBox="0 0 17 17" fill="none" xmlns="http://www.w3.org/2000/svg">
<path d="M0.859299 14.8046C0.468775 15.1951 0.468775 15.8283 0.859299 16.2188C1.24982 16.6093 1.88299 16.6093 2.27351 16.2188L0.859299 14.8046ZM16.9968 1.08128C16.9968 0.529 16.5491 0.0812852 15.9968 0.0812849L6.99684 0.0812857C6.44455 0.0812854 5.99684 0.529001 5.99684 1.08129C5.99684 1.63357 6.44456 2.08129 6.99684 2.08129L14.9968 2.08129L14.9968 10.0813C14.9968 10.6336 15.4446 11.0813 15.9968 11.0813C16.5491 11.0813 16.9968 10.6336 16.9968 10.0813L16.9968 1.08128ZM2.27351 16.2188L16.7039 1.78839L15.2897 0.374179L0.859299 14.8046L2.27351 16.2188Z" fill="#007F62"/>
</svg>
