<svg width="378" height="221" viewBox="0 0 378 221" fill="none" xmlns="http://www.w3.org/2000/svg">
<g clip-path="url(#clip0_1687_2057)">
<path d="M-64.432 316.557C-97.4336 286.564 -72.1694 230.518 -55.2405 206.054C-38.1334 224.919 -23.3991 230.844 -18.1703 231.449C43.5883 251.088 33.5497 293.654 20.8106 312.482C-2.05116 341.592 -30.612 347.294 -64.432 316.557Z" fill="#D3E0F2"/>
<path d="M99.962 233.426C38.567 249.472 -19.9465 227.945 -25.7349 205.227C-42.4969 139.442 110.548 89.93 206.085 186.726C279.544 261.153 244.19 360.985 214.439 397.584C214.244 397.831 214.046 398.072 213.844 398.309C214.042 398.07 214.24 397.829 214.439 397.584C244.216 359.926 191.075 209.613 99.962 233.426Z" fill="#D3E0F2"/>
<path d="M8.73258 362.156C-39.1809 374.964 -70.8654 337.787 -81.8383 316.236C-61.5499 402.218 25.6329 419.613 66.1538 371.454C96.8348 334.99 67.3111 275.478 46.129 256.228C68.6724 282.759 68.6244 346.147 8.73258 362.156Z" fill="#D3E0F2"/>
</g>
<defs>
<clipPath id="clip0_1687_2057">
<rect width="415.289" height="415.289" fill="white" transform="translate(98.0293 587.292) rotate(-137.736)"/>
</clipPath>
</defs>
</svg>
