<svg width="500" height="574" viewBox="0 0 500 574" fill="none" xmlns="http://www.w3.org/2000/svg">
<g clip-path="url(#clip0_1687_2063)">
<path d="M662.85 232.439C704.295 284.876 653.202 361.554 622.174 393.578C601.503 361.491 581.169 349.118 573.586 346.943C487.082 302.767 512.358 242.289 535.81 217.572C576.748 180.132 620.376 178.702 662.85 232.439Z" fill="#D3E0F2"/>
<path d="M543.848 -19.2581C326.119 -38.9517 307.273 108.903 321.912 187.115C255.094 102.581 279.523 2.31217 368.99 -32.9342C440.564 -61.1313 515.032 -37.878 543.848 -19.2581Z" fill="#D3E0F2"/>
<path d="M659.548 101.732C443.729 -49.1715 396.981 180.808 411.484 243.458C341.889 167.493 365.837 57.6216 452.002 14.935C559.919 -38.5271 638.718 70.0275 659.548 101.732Z" fill="#D3E0F2"/>
<path d="M399.403 315.066C494.115 306.388 575.358 352.561 578.349 387.57C587.009 488.949 348.579 524.647 231.04 358.106C140.665 230.053 217.41 91.1038 270.371 44.2804C270.719 43.9637 271.072 43.6551 271.429 43.3545C271.077 43.659 270.724 43.9676 270.371 44.2804C217.111 92.6632 258.844 327.944 399.403 315.066Z" fill="#D3E0F2"/>
<path d="M565.849 147.084C639.834 139.89 677.571 202.626 688.514 237.181C679.589 105.074 554.943 57.9844 483.224 119.261C428.921 165.658 457.989 260.889 484.591 294.545C457.761 249.79 473.368 156.076 565.849 147.084Z" fill="#D3E0F2"/>
</g>
<defs>
<clipPath id="clip0_1687_2063">
<rect width="622.433" height="622.433" fill="white" transform="translate(488.994 -207.692) rotate(51.6762)"/>
</clipPath>
</defs>
</svg>
