<svg width="49" height="49" viewBox="0 0 49 49" fill="none" xmlns="http://www.w3.org/2000/svg">
<rect x="0.294922" y="0.322266" width="48" height="48" rx="8" fill="#E9E9FC"/>
<path d="M17.9718 16.5789C21.8998 13.3605 27.7053 13.5846 31.3719 17.2512C35.2771 21.1564 35.2771 27.4881 31.3719 31.3934C27.4666 35.2986 21.135 35.2986 17.2297 31.3934C14.7052 28.8689 13.8127 25.3304 14.552 22.0889L14.6286 21.7762L16.5631 22.2854C15.8656 24.9453 16.5592 27.8944 18.6439 29.9792C21.7681 33.1033 26.8334 33.1033 29.9576 29.9792C33.0818 26.855 33.0818 21.7896 29.9576 18.6654C27.14 15.8478 22.7434 15.5713 19.616 17.836L19.3948 18.0021L20.4117 19.019L15.8155 20.0796L16.8762 15.4834L17.9718 16.5789ZM25.3008 18.3223V20.3223H27.8008V22.3223H22.3008C22.0246 22.3223 21.8008 22.5462 21.8008 22.8223C21.8008 23.0678 21.9777 23.2719 22.2109 23.3142L22.3008 23.3223H26.3008C27.6815 23.3223 28.8008 24.4416 28.8008 25.8223C28.8008 27.203 27.6815 28.3223 26.3008 28.3223H25.3008V30.3223H23.3008V28.3223H20.8008V26.3223H26.3008C26.5769 26.3223 26.8008 26.0984 26.8008 25.8223C26.8008 25.5768 26.6239 25.3727 26.3907 25.3304L26.3008 25.3223H22.3008C20.9201 25.3223 19.8008 24.203 19.8008 22.8223C19.8008 21.4416 20.9201 20.3223 22.3008 20.3223H23.3008V18.3223H25.3008Z" fill="#572985"/>
</svg>
