<svg width="816" height="437" viewBox="0 0 816 437" fill="none" xmlns="http://www.w3.org/2000/svg">
<path d="M32 189L784 189" stroke="#017F62" stroke-width="3" stroke-dasharray="6 6"/>
<rect x="564.5" y="43.5" width="219" height="291" rx="7.5" fill="white" stroke="#DCDDEA"/>
<rect x="32.5" y="43.5" width="219" height="291" rx="7.5" fill="white" stroke="#DCDDEA"/>
<rect x="48.5" y="63.5" width="187" height="251" rx="7.5" fill="white" stroke="#DCDDEA"/>
<rect x="580.5" y="63.5" width="187" height="251" rx="7.5" fill="white" stroke="#DCDDEA"/>
<g filter="url(#filter0_d_438_419)">
<rect x="276" y="10" width="264" height="358" rx="8" fill="white"/>
</g>
<circle cx="784" cy="189" r="4.5" fill="white" stroke="#017F62" stroke-width="3"/>
<circle cx="32" cy="189" r="4.5" fill="white" stroke="#017F62" stroke-width="3"/>
<circle cx="89" cy="104" r="21" fill="#F5F5F5"/>
<circle cx="621" cy="104" r="21" fill="#F5F5F5"/>
<path d="M123.47 103V93.2H127.292C128.151 93.2 128.883 93.3353 129.49 93.606C130.097 93.8767 130.563 94.2687 130.89 94.782C131.217 95.2953 131.38 95.9067 131.38 96.616C131.38 97.3253 131.217 97.9367 130.89 98.45C130.563 98.954 130.097 99.346 129.49 99.626C128.883 99.8967 128.151 100.032 127.292 100.032H124.24L124.87 99.374V103H123.47ZM124.87 99.514L124.24 98.814H127.25C128.146 98.814 128.823 98.6227 129.28 98.24C129.747 97.8573 129.98 97.316 129.98 96.616C129.98 95.916 129.747 95.3747 129.28 94.992C128.823 94.6093 128.146 94.418 127.25 94.418H124.24L124.87 93.718V99.514ZM133.104 103V95.58H134.392V97.596L134.266 97.092C134.471 96.5787 134.817 96.1867 135.302 95.916C135.787 95.6453 136.385 95.51 137.094 95.51V96.812C137.038 96.8027 136.982 96.798 136.926 96.798C136.879 96.798 136.833 96.798 136.786 96.798C136.067 96.798 135.498 97.0127 135.078 97.442C134.658 97.8713 134.448 98.492 134.448 99.304V103H133.104ZM141.86 103.084C141.114 103.084 140.451 102.921 139.872 102.594C139.294 102.267 138.836 101.819 138.5 101.25C138.164 100.671 137.996 100.018 137.996 99.29C137.996 98.5527 138.164 97.8993 138.5 97.33C138.836 96.7607 139.294 96.3173 139.872 96C140.451 95.6733 141.114 95.51 141.86 95.51C142.598 95.51 143.256 95.6733 143.834 96C144.422 96.3173 144.88 96.7607 145.206 97.33C145.542 97.89 145.71 98.5433 145.71 99.29C145.71 100.027 145.542 100.681 145.206 101.25C144.88 101.819 144.422 102.267 143.834 102.594C143.256 102.921 142.598 103.084 141.86 103.084ZM141.86 101.908C142.336 101.908 142.761 101.801 143.134 101.586C143.517 101.371 143.816 101.068 144.03 100.676C144.245 100.275 144.352 99.8127 144.352 99.29C144.352 98.758 144.245 98.3007 144.03 97.918C143.816 97.526 143.517 97.2227 143.134 97.008C142.761 96.7933 142.336 96.686 141.86 96.686C141.384 96.686 140.96 96.7933 140.586 97.008C140.213 97.2227 139.914 97.526 139.69 97.918C139.466 98.3007 139.354 98.758 139.354 99.29C139.354 99.8127 139.466 100.275 139.69 100.676C139.914 101.068 140.213 101.371 140.586 101.586C140.96 101.801 141.384 101.908 141.86 101.908ZM150.635 103.084C149.916 103.084 149.272 102.925 148.703 102.608C148.143 102.291 147.7 101.847 147.373 101.278C147.046 100.709 146.883 100.046 146.883 99.29C146.883 98.534 147.046 97.876 147.373 97.316C147.7 96.7467 148.143 96.3033 148.703 95.986C149.272 95.6687 149.916 95.51 150.635 95.51C151.26 95.51 151.825 95.65 152.329 95.93C152.833 96.21 153.234 96.63 153.533 97.19C153.841 97.75 153.995 98.45 153.995 99.29C153.995 100.13 153.846 100.83 153.547 101.39C153.258 101.95 152.861 102.375 152.357 102.664C151.853 102.944 151.279 103.084 150.635 103.084ZM150.747 101.908C151.214 101.908 151.634 101.801 152.007 101.586C152.39 101.371 152.688 101.068 152.903 100.676C153.127 100.275 153.239 99.8127 153.239 99.29C153.239 98.758 153.127 98.3007 152.903 97.918C152.688 97.526 152.39 97.2227 152.007 97.008C151.634 96.7933 151.214 96.686 150.747 96.686C150.271 96.686 149.846 96.7933 149.473 97.008C149.1 97.2227 148.801 97.526 148.577 97.918C148.353 98.3007 148.241 98.758 148.241 99.29C148.241 99.8127 148.353 100.275 148.577 100.676C148.801 101.068 149.1 101.371 149.473 101.586C149.846 101.801 150.271 101.908 150.747 101.908ZM153.281 103V100.998L153.365 99.276L153.225 97.554V92.612H154.569V103H153.281ZM160.234 103.084C159.599 103.084 159.039 102.967 158.554 102.734C158.078 102.501 157.705 102.146 157.434 101.67C157.173 101.185 157.042 100.578 157.042 99.85V95.58H158.386V99.696C158.386 100.424 158.559 100.97 158.904 101.334C159.259 101.698 159.753 101.88 160.388 101.88C160.855 101.88 161.261 101.787 161.606 101.6C161.951 101.404 162.217 101.124 162.404 100.76C162.591 100.387 162.684 99.9387 162.684 99.416V95.58H164.028V103H162.754V100.998L162.964 101.53C162.721 102.025 162.357 102.407 161.872 102.678C161.387 102.949 160.841 103.084 160.234 103.084ZM169.821 103.084C169.065 103.084 168.388 102.921 167.791 102.594C167.203 102.267 166.741 101.819 166.405 101.25C166.069 100.681 165.901 100.027 165.901 99.29C165.901 98.5527 166.069 97.8993 166.405 97.33C166.741 96.7607 167.203 96.3173 167.791 96C168.388 95.6733 169.065 95.51 169.821 95.51C170.493 95.51 171.09 95.6453 171.613 95.916C172.145 96.1773 172.555 96.5693 172.845 97.092L171.823 97.75C171.58 97.386 171.281 97.12 170.927 96.952C170.581 96.7747 170.208 96.686 169.807 96.686C169.321 96.686 168.887 96.7933 168.505 97.008C168.122 97.2227 167.819 97.526 167.595 97.918C167.371 98.3007 167.259 98.758 167.259 99.29C167.259 99.822 167.371 100.284 167.595 100.676C167.819 101.068 168.122 101.371 168.505 101.586C168.887 101.801 169.321 101.908 169.807 101.908C170.208 101.908 170.581 101.824 170.927 101.656C171.281 101.479 171.58 101.208 171.823 100.844L172.845 101.488C172.555 102.001 172.145 102.398 171.613 102.678C171.09 102.949 170.493 103.084 169.821 103.084ZM177.228 103.084C176.482 103.084 175.903 102.883 175.492 102.482C175.082 102.081 174.876 101.507 174.876 100.76V93.956H176.22V100.704C176.22 101.105 176.318 101.413 176.514 101.628C176.72 101.843 177.009 101.95 177.382 101.95C177.802 101.95 178.152 101.833 178.432 101.6L178.852 102.566C178.647 102.743 178.4 102.874 178.11 102.958C177.83 103.042 177.536 103.084 177.228 103.084ZM173.616 96.686V95.58H178.348V96.686H173.616Z" fill="#212121"/>
<path d="M655.47 103V93.2H659.292C660.151 93.2 660.883 93.3353 661.49 93.606C662.097 93.8767 662.563 94.2687 662.89 94.782C663.217 95.2953 663.38 95.9067 663.38 96.616C663.38 97.3253 663.217 97.9367 662.89 98.45C662.563 98.954 662.097 99.346 661.49 99.626C660.883 99.8967 660.151 100.032 659.292 100.032H656.24L656.87 99.374V103H655.47ZM656.87 99.514L656.24 98.814H659.25C660.146 98.814 660.823 98.6227 661.28 98.24C661.747 97.8573 661.98 97.316 661.98 96.616C661.98 95.916 661.747 95.3747 661.28 94.992C660.823 94.6093 660.146 94.418 659.25 94.418H656.24L656.87 93.718V99.514ZM665.104 103V95.58H666.392V97.596L666.266 97.092C666.471 96.5787 666.817 96.1867 667.302 95.916C667.787 95.6453 668.385 95.51 669.094 95.51V96.812C669.038 96.8027 668.982 96.798 668.926 96.798C668.879 96.798 668.833 96.798 668.786 96.798C668.067 96.798 667.498 97.0127 667.078 97.442C666.658 97.8713 666.448 98.492 666.448 99.304V103H665.104ZM673.86 103.084C673.114 103.084 672.451 102.921 671.872 102.594C671.294 102.267 670.836 101.819 670.5 101.25C670.164 100.671 669.996 100.018 669.996 99.29C669.996 98.5527 670.164 97.8993 670.5 97.33C670.836 96.7607 671.294 96.3173 671.872 96C672.451 95.6733 673.114 95.51 673.86 95.51C674.598 95.51 675.256 95.6733 675.834 96C676.422 96.3173 676.88 96.7607 677.206 97.33C677.542 97.89 677.71 98.5433 677.71 99.29C677.71 100.027 677.542 100.681 677.206 101.25C676.88 101.819 676.422 102.267 675.834 102.594C675.256 102.921 674.598 103.084 673.86 103.084ZM673.86 101.908C674.336 101.908 674.761 101.801 675.134 101.586C675.517 101.371 675.816 101.068 676.03 100.676C676.245 100.275 676.352 99.8127 676.352 99.29C676.352 98.758 676.245 98.3007 676.03 97.918C675.816 97.526 675.517 97.2227 675.134 97.008C674.761 96.7933 674.336 96.686 673.86 96.686C673.384 96.686 672.96 96.7933 672.586 97.008C672.213 97.2227 671.914 97.526 671.69 97.918C671.466 98.3007 671.354 98.758 671.354 99.29C671.354 99.8127 671.466 100.275 671.69 100.676C671.914 101.068 672.213 101.371 672.586 101.586C672.96 101.801 673.384 101.908 673.86 101.908ZM682.635 103.084C681.916 103.084 681.272 102.925 680.703 102.608C680.143 102.291 679.7 101.847 679.373 101.278C679.046 100.709 678.883 100.046 678.883 99.29C678.883 98.534 679.046 97.876 679.373 97.316C679.7 96.7467 680.143 96.3033 680.703 95.986C681.272 95.6687 681.916 95.51 682.635 95.51C683.26 95.51 683.825 95.65 684.329 95.93C684.833 96.21 685.234 96.63 685.533 97.19C685.841 97.75 685.995 98.45 685.995 99.29C685.995 100.13 685.846 100.83 685.547 101.39C685.258 101.95 684.861 102.375 684.357 102.664C683.853 102.944 683.279 103.084 682.635 103.084ZM682.747 101.908C683.214 101.908 683.634 101.801 684.007 101.586C684.39 101.371 684.688 101.068 684.903 100.676C685.127 100.275 685.239 99.8127 685.239 99.29C685.239 98.758 685.127 98.3007 684.903 97.918C684.688 97.526 684.39 97.2227 684.007 97.008C683.634 96.7933 683.214 96.686 682.747 96.686C682.271 96.686 681.846 96.7933 681.473 97.008C681.1 97.2227 680.801 97.526 680.577 97.918C680.353 98.3007 680.241 98.758 680.241 99.29C680.241 99.8127 680.353 100.275 680.577 100.676C680.801 101.068 681.1 101.371 681.473 101.586C681.846 101.801 682.271 101.908 682.747 101.908ZM685.281 103V100.998L685.365 99.276L685.225 97.554V92.612H686.569V103H685.281ZM692.234 103.084C691.599 103.084 691.039 102.967 690.554 102.734C690.078 102.501 689.705 102.146 689.434 101.67C689.173 101.185 689.042 100.578 689.042 99.85V95.58H690.386V99.696C690.386 100.424 690.559 100.97 690.904 101.334C691.259 101.698 691.753 101.88 692.388 101.88C692.855 101.88 693.261 101.787 693.606 101.6C693.951 101.404 694.217 101.124 694.404 100.76C694.591 100.387 694.684 99.9387 694.684 99.416V95.58H696.028V103H694.754V100.998L694.964 101.53C694.721 102.025 694.357 102.407 693.872 102.678C693.387 102.949 692.841 103.084 692.234 103.084ZM701.821 103.084C701.065 103.084 700.388 102.921 699.791 102.594C699.203 102.267 698.741 101.819 698.405 101.25C698.069 100.681 697.901 100.027 697.901 99.29C697.901 98.5527 698.069 97.8993 698.405 97.33C698.741 96.7607 699.203 96.3173 699.791 96C700.388 95.6733 701.065 95.51 701.821 95.51C702.493 95.51 703.09 95.6453 703.613 95.916C704.145 96.1773 704.555 96.5693 704.845 97.092L703.823 97.75C703.58 97.386 703.281 97.12 702.927 96.952C702.581 96.7747 702.208 96.686 701.807 96.686C701.321 96.686 700.887 96.7933 700.505 97.008C700.122 97.2227 699.819 97.526 699.595 97.918C699.371 98.3007 699.259 98.758 699.259 99.29C699.259 99.822 699.371 100.284 699.595 100.676C699.819 101.068 700.122 101.371 700.505 101.586C700.887 101.801 701.321 101.908 701.807 101.908C702.208 101.908 702.581 101.824 702.927 101.656C703.281 101.479 703.58 101.208 703.823 100.844L704.845 101.488C704.555 102.001 704.145 102.398 703.613 102.678C703.09 102.949 702.493 103.084 701.821 103.084ZM709.228 103.084C708.482 103.084 707.903 102.883 707.492 102.482C707.082 102.081 706.876 101.507 706.876 100.76V93.956H708.22V100.704C708.22 101.105 708.318 101.413 708.514 101.628C708.72 101.843 709.009 101.95 709.382 101.95C709.802 101.95 710.152 101.833 710.432 101.6L710.852 102.566C710.647 102.743 710.4 102.874 710.11 102.958C709.83 103.042 709.536 103.084 709.228 103.084ZM705.616 96.686V95.58H710.348V96.686H705.616Z" fill="#212121"/>
<circle cx="341" cy="79" r="25" fill="#D6572D"/>
<path d="M379.89 78V65.4H384.804C385.908 65.4 386.85 65.574 387.63 65.922C388.41 66.27 389.01 66.774 389.43 67.434C389.85 68.094 390.06 68.88 390.06 69.792C390.06 70.704 389.85 71.49 389.43 72.15C389.01 72.798 388.41 73.302 387.63 73.662C386.85 74.01 385.908 74.184 384.804 74.184H380.88L381.69 73.338V78H379.89ZM381.69 73.518L380.88 72.618H384.75C385.902 72.618 386.772 72.372 387.36 71.88C387.96 71.388 388.26 70.692 388.26 69.792C388.26 68.892 387.96 68.196 387.36 67.704C386.772 67.212 385.902 66.966 384.75 66.966H380.88L381.69 66.066V73.518ZM392.277 78V68.46H393.933V71.052L393.771 70.404C394.035 69.744 394.479 69.24 395.103 68.892C395.727 68.544 396.495 68.37 397.407 68.37V70.044C397.335 70.032 397.263 70.026 397.191 70.026C397.131 70.026 397.071 70.026 397.011 70.026C396.087 70.026 395.355 70.302 394.815 70.854C394.275 71.406 394.005 72.204 394.005 73.248V78H392.277ZM403.535 78.108C402.575 78.108 401.723 77.898 400.979 77.478C400.235 77.058 399.647 76.482 399.215 75.75C398.783 75.006 398.567 74.166 398.567 73.23C398.567 72.282 398.783 71.442 399.215 70.71C399.647 69.978 400.235 69.408 400.979 69C401.723 68.58 402.575 68.37 403.535 68.37C404.483 68.37 405.329 68.58 406.073 69C406.829 69.408 407.417 69.978 407.837 70.71C408.269 71.43 408.485 72.27 408.485 73.23C408.485 74.178 408.269 75.018 407.837 75.75C407.417 76.482 406.829 77.058 406.073 77.478C405.329 77.898 404.483 78.108 403.535 78.108ZM403.535 76.596C404.147 76.596 404.693 76.458 405.173 76.182C405.665 75.906 406.049 75.516 406.325 75.012C406.601 74.496 406.739 73.902 406.739 73.23C406.739 72.546 406.601 71.958 406.325 71.466C406.049 70.962 405.665 70.572 405.173 70.296C404.693 70.02 404.147 69.882 403.535 69.882C402.923 69.882 402.377 70.02 401.897 70.296C401.417 70.572 401.033 70.962 400.745 71.466C400.457 71.958 400.313 72.546 400.313 73.23C400.313 73.902 400.457 74.496 400.745 75.012C401.033 75.516 401.417 75.906 401.897 76.182C402.377 76.458 402.923 76.596 403.535 76.596ZM414.816 78.108C413.892 78.108 413.064 77.904 412.332 77.496C411.612 77.088 411.042 76.518 410.622 75.786C410.202 75.054 409.992 74.202 409.992 73.23C409.992 72.258 410.202 71.412 410.622 70.692C411.042 69.96 411.612 69.39 412.332 68.982C413.064 68.574 413.892 68.37 414.816 68.37C415.62 68.37 416.346 68.55 416.994 68.91C417.642 69.27 418.158 69.81 418.542 70.53C418.938 71.25 419.136 72.15 419.136 73.23C419.136 74.31 418.944 75.21 418.56 75.93C418.188 76.65 417.678 77.196 417.03 77.568C416.382 77.928 415.644 78.108 414.816 78.108ZM414.96 76.596C415.56 76.596 416.1 76.458 416.58 76.182C417.072 75.906 417.456 75.516 417.732 75.012C418.02 74.496 418.164 73.902 418.164 73.23C418.164 72.546 418.02 71.958 417.732 71.466C417.456 70.962 417.072 70.572 416.58 70.296C416.1 70.02 415.56 69.882 414.96 69.882C414.348 69.882 413.802 70.02 413.322 70.296C412.842 70.572 412.458 70.962 412.17 71.466C411.882 71.958 411.738 72.546 411.738 73.23C411.738 73.902 411.882 74.496 412.17 75.012C412.458 75.516 412.842 75.906 413.322 76.182C413.802 76.458 414.348 76.596 414.96 76.596ZM418.218 78V75.426L418.326 73.212L418.146 70.998V64.644H419.874V78H418.218ZM427.158 78.108C426.342 78.108 425.622 77.958 424.998 77.658C424.386 77.358 423.906 76.902 423.558 76.29C423.222 75.666 423.054 74.886 423.054 73.95V68.46H424.782V73.752C424.782 74.688 425.004 75.39 425.448 75.858C425.904 76.326 426.54 76.56 427.356 76.56C427.956 76.56 428.478 76.44 428.922 76.2C429.366 75.948 429.708 75.588 429.948 75.12C430.188 74.64 430.308 74.064 430.308 73.392V68.46H432.036V78H430.398V75.426L430.668 76.11C430.356 76.746 429.888 77.238 429.264 77.586C428.64 77.934 427.938 78.108 427.158 78.108ZM439.484 78.108C438.512 78.108 437.642 77.898 436.874 77.478C436.118 77.058 435.524 76.482 435.092 75.75C434.66 75.018 434.444 74.178 434.444 73.23C434.444 72.282 434.66 71.442 435.092 70.71C435.524 69.978 436.118 69.408 436.874 69C437.642 68.58 438.512 68.37 439.484 68.37C440.348 68.37 441.116 68.544 441.788 68.892C442.472 69.228 443 69.732 443.372 70.404L442.058 71.25C441.746 70.782 441.362 70.44 440.906 70.224C440.462 69.996 439.982 69.882 439.466 69.882C438.842 69.882 438.284 70.02 437.792 70.296C437.3 70.572 436.91 70.962 436.622 71.466C436.334 71.958 436.19 72.546 436.19 73.23C436.19 73.914 436.334 74.508 436.622 75.012C436.91 75.516 437.3 75.906 437.792 76.182C438.284 76.458 438.842 76.596 439.466 76.596C439.982 76.596 440.462 76.488 440.906 76.272C441.362 76.044 441.746 75.696 442.058 75.228L443.372 76.056C443 76.716 442.472 77.226 441.788 77.586C441.116 77.934 440.348 78.108 439.484 78.108ZM449.008 78.108C448.048 78.108 447.304 77.85 446.776 77.334C446.248 76.818 445.984 76.08 445.984 75.12V66.372H447.712V75.048C447.712 75.564 447.838 75.96 448.09 76.236C448.354 76.512 448.726 76.65 449.206 76.65C449.746 76.65 450.196 76.5 450.556 76.2L451.096 77.442C450.832 77.67 450.514 77.838 450.142 77.946C449.782 78.054 449.404 78.108 449.008 78.108ZM444.364 69.882V68.46H450.448V69.882H444.364Z" fill="#212121"/>
<path d="M72.48 253.92V238.88H73.792V253.92H72.48ZM72.976 252.16C72.1013 252.16 71.264 252.037 70.464 251.792C69.664 251.536 69.0293 251.211 68.56 250.816L69.28 249.2C69.728 249.552 70.2827 249.845 70.944 250.08C71.6053 250.315 72.2827 250.432 72.976 250.432C73.5627 250.432 74.0373 250.368 74.4 250.24C74.7627 250.112 75.0293 249.941 75.2 249.728C75.3707 249.504 75.456 249.253 75.456 248.976C75.456 248.635 75.3333 248.363 75.088 248.16C74.8427 247.947 74.5227 247.781 74.128 247.664C73.744 247.536 73.312 247.419 72.832 247.312C72.3627 247.205 71.888 247.083 71.408 246.944C70.9387 246.795 70.5067 246.608 70.112 246.384C69.728 246.149 69.4133 245.84 69.168 245.456C68.9227 245.072 68.8 244.581 68.8 243.984C68.8 243.376 68.96 242.821 69.28 242.32C69.6107 241.808 70.1067 241.403 70.768 241.104C71.44 240.795 72.288 240.64 73.312 240.64C73.984 240.64 74.6507 240.725 75.312 240.896C75.9733 241.067 76.5493 241.312 77.04 241.632L76.384 243.248C75.8827 242.949 75.3653 242.731 74.832 242.592C74.2987 242.443 73.7867 242.368 73.296 242.368C72.72 242.368 72.2507 242.437 71.888 242.576C71.536 242.715 71.2747 242.896 71.104 243.12C70.944 243.344 70.864 243.6 70.864 243.888C70.864 244.229 70.9813 244.507 71.216 244.72C71.4613 244.923 71.776 245.083 72.16 245.2C72.5547 245.317 72.992 245.435 73.472 245.552C73.952 245.659 74.4267 245.781 74.896 245.92C75.376 246.059 75.808 246.24 76.192 246.464C76.5867 246.688 76.9013 246.992 77.136 247.376C77.3813 247.76 77.504 248.245 77.504 248.832C77.504 249.429 77.3387 249.984 77.008 250.496C76.688 250.997 76.192 251.403 75.52 251.712C74.848 252.011 74 252.16 72.976 252.16ZM83.0284 249.456V248.016L88.5484 240.8H90.7724L85.3324 248.016L84.2924 247.696H93.1724V249.456H83.0284ZM89.1724 252V249.456L89.2364 247.696V245.44H91.1884V252H89.1724ZM97.7598 252.16C96.9704 252.16 96.1971 252.048 95.4398 251.824C94.6931 251.589 94.0638 251.269 93.5518 250.864L94.4318 249.248C94.8371 249.579 95.3278 249.845 95.9038 250.048C96.4904 250.251 97.0984 250.352 97.7278 250.352C98.4638 250.352 99.0398 250.197 99.4558 249.888C99.8824 249.579 100.096 249.163 100.096 248.64C100.096 248.288 100.005 247.979 99.8238 247.712C99.6531 247.445 99.3438 247.243 98.8958 247.104C98.4584 246.965 97.8558 246.896 97.0878 246.896H94.3838L94.9598 240.8H101.536V242.544H95.7278L96.8158 241.552L96.3838 246.112L95.2958 245.136H97.5518C98.6611 245.136 99.5518 245.285 100.224 245.584C100.906 245.872 101.402 246.277 101.712 246.8C102.032 247.312 102.192 247.899 102.192 248.56C102.192 249.211 102.032 249.808 101.712 250.352C101.392 250.896 100.901 251.333 100.24 251.664C99.5891 251.995 98.7624 252.16 97.7598 252.16ZM104.64 252.112C104.277 252.112 103.968 251.989 103.712 251.744C103.456 251.488 103.328 251.168 103.328 250.784C103.328 250.379 103.456 250.059 103.712 249.824C103.968 249.579 104.277 249.456 104.64 249.456C105.002 249.456 105.312 249.579 105.568 249.824C105.824 250.059 105.952 250.379 105.952 250.784C105.952 251.168 105.824 251.488 105.568 251.744C105.312 251.989 105.002 252.112 104.64 252.112ZM111.782 252.16C110.897 252.16 110.097 251.936 109.382 251.488C108.678 251.04 108.124 250.389 107.718 249.536C107.313 248.672 107.11 247.627 107.11 246.4C107.11 245.173 107.313 244.133 107.718 243.28C108.124 242.416 108.678 241.76 109.382 241.312C110.097 240.864 110.897 240.64 111.782 240.64C112.678 240.64 113.478 240.864 114.182 241.312C114.886 241.76 115.441 242.416 115.846 243.28C116.262 244.133 116.47 245.173 116.47 246.4C116.47 247.627 116.262 248.672 115.846 249.536C115.441 250.389 114.886 251.04 114.182 251.488C113.478 251.936 112.678 252.16 111.782 252.16ZM111.782 250.352C112.305 250.352 112.758 250.213 113.142 249.936C113.526 249.648 113.825 249.211 114.038 248.624C114.262 248.037 114.374 247.296 114.374 246.4C114.374 245.493 114.262 244.752 114.038 244.176C113.825 243.589 113.526 243.157 113.142 242.88C112.758 242.592 112.305 242.448 111.782 242.448C111.281 242.448 110.833 242.592 110.438 242.88C110.054 243.157 109.75 243.589 109.526 244.176C109.313 244.752 109.206 245.493 109.206 246.4C109.206 247.296 109.313 248.037 109.526 248.624C109.75 249.211 110.054 249.648 110.438 249.936C110.833 250.213 111.281 250.352 111.782 250.352ZM122.548 252.16C121.663 252.16 120.863 251.936 120.148 251.488C119.444 251.04 118.889 250.389 118.484 249.536C118.079 248.672 117.876 247.627 117.876 246.4C117.876 245.173 118.079 244.133 118.484 243.28C118.889 242.416 119.444 241.76 120.148 241.312C120.863 240.864 121.663 240.64 122.548 240.64C123.444 240.64 124.244 240.864 124.948 241.312C125.652 241.76 126.207 242.416 126.612 243.28C127.028 244.133 127.236 245.173 127.236 246.4C127.236 247.627 127.028 248.672 126.612 249.536C126.207 250.389 125.652 251.04 124.948 251.488C124.244 251.936 123.444 252.16 122.548 252.16ZM122.548 250.352C123.071 250.352 123.524 250.213 123.908 249.936C124.292 249.648 124.591 249.211 124.804 248.624C125.028 248.037 125.14 247.296 125.14 246.4C125.14 245.493 125.028 244.752 124.804 244.176C124.591 243.589 124.292 243.157 123.908 242.88C123.524 242.592 123.071 242.448 122.548 242.448C122.047 242.448 121.599 242.592 121.204 242.88C120.82 243.157 120.516 243.589 120.292 244.176C120.079 244.752 119.972 245.493 119.972 246.4C119.972 247.296 120.079 248.037 120.292 248.624C120.516 249.211 120.82 249.648 121.204 249.936C121.599 250.213 122.047 250.352 122.548 250.352Z" fill="#666666"/>
<path d="M604.48 253.92V238.88H605.792V253.92H604.48ZM604.976 252.16C604.101 252.16 603.264 252.037 602.464 251.792C601.664 251.536 601.029 251.211 600.56 250.816L601.28 249.2C601.728 249.552 602.283 249.845 602.944 250.08C603.605 250.315 604.283 250.432 604.976 250.432C605.563 250.432 606.037 250.368 606.4 250.24C606.763 250.112 607.029 249.941 607.2 249.728C607.371 249.504 607.456 249.253 607.456 248.976C607.456 248.635 607.333 248.363 607.088 248.16C606.843 247.947 606.523 247.781 606.128 247.664C605.744 247.536 605.312 247.419 604.832 247.312C604.363 247.205 603.888 247.083 603.408 246.944C602.939 246.795 602.507 246.608 602.112 246.384C601.728 246.149 601.413 245.84 601.168 245.456C600.923 245.072 600.8 244.581 600.8 243.984C600.8 243.376 600.96 242.821 601.28 242.32C601.611 241.808 602.107 241.403 602.768 241.104C603.44 240.795 604.288 240.64 605.312 240.64C605.984 240.64 606.651 240.725 607.312 240.896C607.973 241.067 608.549 241.312 609.04 241.632L608.384 243.248C607.883 242.949 607.365 242.731 606.832 242.592C606.299 242.443 605.787 242.368 605.296 242.368C604.72 242.368 604.251 242.437 603.888 242.576C603.536 242.715 603.275 242.896 603.104 243.12C602.944 243.344 602.864 243.6 602.864 243.888C602.864 244.229 602.981 244.507 603.216 244.72C603.461 244.923 603.776 245.083 604.16 245.2C604.555 245.317 604.992 245.435 605.472 245.552C605.952 245.659 606.427 245.781 606.896 245.92C607.376 246.059 607.808 246.24 608.192 246.464C608.587 246.688 608.901 246.992 609.136 247.376C609.381 247.76 609.504 248.245 609.504 248.832C609.504 249.429 609.339 249.984 609.008 250.496C608.688 250.997 608.192 251.403 607.52 251.712C606.848 252.011 606 252.16 604.976 252.16ZM618.708 252.16C617.919 252.16 617.146 252.048 616.388 251.824C615.642 251.589 615.012 251.269 614.5 250.864L615.396 249.248C615.802 249.579 616.292 249.845 616.868 250.048C617.444 250.251 618.047 250.352 618.676 250.352C619.423 250.352 620.004 250.203 620.42 249.904C620.836 249.595 621.044 249.179 621.044 248.656C621.044 248.144 620.852 247.739 620.468 247.44C620.084 247.141 619.466 246.992 618.612 246.992H617.588V245.568L620.788 241.76L621.06 242.544H615.044V240.8H622.676V242.192L619.476 246L618.388 245.36H619.012C620.388 245.36 621.418 245.669 622.1 246.288C622.794 246.896 623.14 247.68 623.14 248.64C623.14 249.269 622.98 249.851 622.66 250.384C622.34 250.917 621.85 251.349 621.188 251.68C620.538 252 619.711 252.16 618.708 252.16ZM628.057 252.16C627.267 252.16 626.494 252.048 625.737 251.824C624.99 251.589 624.361 251.269 623.849 250.864L624.729 249.248C625.134 249.579 625.625 249.845 626.201 250.048C626.787 250.251 627.395 250.352 628.025 250.352C628.761 250.352 629.337 250.197 629.753 249.888C630.179 249.579 630.393 249.163 630.393 248.64C630.393 248.288 630.302 247.979 630.121 247.712C629.95 247.445 629.641 247.243 629.193 247.104C628.755 246.965 628.153 246.896 627.385 246.896H624.681L625.257 240.8H631.833V242.544H626.025L627.113 241.552L626.681 246.112L625.593 245.136H627.849C628.958 245.136 629.849 245.285 630.521 245.584C631.203 245.872 631.699 246.277 632.009 246.8C632.329 247.312 632.489 247.899 632.489 248.56C632.489 249.211 632.329 249.808 632.009 250.352C631.689 250.896 631.198 251.333 630.537 251.664C629.886 251.995 629.059 252.16 628.057 252.16ZM634.936 252.112C634.574 252.112 634.264 251.989 634.008 251.744C633.752 251.488 633.624 251.168 633.624 250.784C633.624 250.379 633.752 250.059 634.008 249.824C634.264 249.579 634.574 249.456 634.936 249.456C635.299 249.456 635.608 249.579 635.864 249.824C636.12 250.059 636.248 250.379 636.248 250.784C636.248 251.168 636.12 251.488 635.864 251.744C635.608 251.989 635.299 252.112 634.936 252.112ZM642.079 252.16C641.194 252.16 640.394 251.936 639.679 251.488C638.975 251.04 638.42 250.389 638.015 249.536C637.61 248.672 637.407 247.627 637.407 246.4C637.407 245.173 637.61 244.133 638.015 243.28C638.42 242.416 638.975 241.76 639.679 241.312C640.394 240.864 641.194 240.64 642.079 240.64C642.975 240.64 643.775 240.864 644.479 241.312C645.183 241.76 645.738 242.416 646.143 243.28C646.559 244.133 646.767 245.173 646.767 246.4C646.767 247.627 646.559 248.672 646.143 249.536C645.738 250.389 645.183 251.04 644.479 251.488C643.775 251.936 642.975 252.16 642.079 252.16ZM642.079 250.352C642.602 250.352 643.055 250.213 643.439 249.936C643.823 249.648 644.122 249.211 644.335 248.624C644.559 248.037 644.671 247.296 644.671 246.4C644.671 245.493 644.559 244.752 644.335 244.176C644.122 243.589 643.823 243.157 643.439 242.88C643.055 242.592 642.602 242.448 642.079 242.448C641.578 242.448 641.13 242.592 640.735 242.88C640.351 243.157 640.047 243.589 639.823 244.176C639.61 244.752 639.503 245.493 639.503 246.4C639.503 247.296 639.61 248.037 639.823 248.624C640.047 249.211 640.351 249.648 640.735 249.936C641.13 250.213 641.578 250.352 642.079 250.352ZM652.845 252.16C651.959 252.16 651.159 251.936 650.445 251.488C649.741 251.04 649.186 250.389 648.781 249.536C648.375 248.672 648.173 247.627 648.173 246.4C648.173 245.173 648.375 244.133 648.781 243.28C649.186 242.416 649.741 241.76 650.445 241.312C651.159 240.864 651.959 240.64 652.845 240.64C653.741 240.64 654.541 240.864 655.245 241.312C655.949 241.76 656.503 242.416 656.909 243.28C657.325 244.133 657.533 245.173 657.533 246.4C657.533 247.627 657.325 248.672 656.909 249.536C656.503 250.389 655.949 251.04 655.245 251.488C654.541 251.936 653.741 252.16 652.845 252.16ZM652.845 250.352C653.367 250.352 653.821 250.213 654.205 249.936C654.589 249.648 654.887 249.211 655.101 248.624C655.325 248.037 655.437 247.296 655.437 246.4C655.437 245.493 655.325 244.752 655.101 244.176C654.887 243.589 654.589 243.157 654.205 242.88C653.821 242.592 653.367 242.448 652.845 242.448C652.343 242.448 651.895 242.592 651.501 242.88C651.117 243.157 650.813 243.589 650.589 244.176C650.375 244.752 650.269 245.493 650.269 246.4C650.269 247.296 650.375 248.037 650.589 248.624C650.813 249.211 651.117 249.648 651.501 249.936C651.895 250.213 652.343 250.352 652.845 250.352Z" fill="#666666"/>
<path d="M324.184 263.329V244.529H325.824V263.329H324.184ZM324.804 261.129C323.711 261.129 322.664 260.975 321.664 260.669C320.664 260.349 319.871 259.942 319.284 259.449L320.184 257.429C320.744 257.869 321.437 258.235 322.264 258.529C323.091 258.822 323.937 258.969 324.804 258.969C325.537 258.969 326.131 258.889 326.584 258.729C327.037 258.569 327.371 258.355 327.584 258.089C327.797 257.809 327.904 257.495 327.904 257.149C327.904 256.722 327.751 256.382 327.444 256.129C327.137 255.862 326.737 255.655 326.244 255.509C325.764 255.349 325.224 255.202 324.624 255.069C324.037 254.935 323.444 254.782 322.844 254.609C322.257 254.422 321.717 254.189 321.224 253.909C320.744 253.615 320.351 253.229 320.044 252.749C319.737 252.269 319.584 251.655 319.584 250.909C319.584 250.149 319.784 249.455 320.184 248.829C320.597 248.189 321.217 247.682 322.044 247.309C322.884 246.922 323.944 246.729 325.224 246.729C326.064 246.729 326.897 246.835 327.724 247.049C328.551 247.262 329.271 247.569 329.884 247.969L329.064 249.989C328.437 249.615 327.791 249.342 327.124 249.169C326.457 248.982 325.817 248.889 325.204 248.889C324.484 248.889 323.897 248.975 323.444 249.149C323.004 249.322 322.677 249.549 322.464 249.829C322.264 250.109 322.164 250.429 322.164 250.789C322.164 251.215 322.311 251.562 322.604 251.829C322.911 252.082 323.304 252.282 323.784 252.429C324.277 252.575 324.824 252.722 325.424 252.869C326.024 253.002 326.617 253.155 327.204 253.329C327.804 253.502 328.344 253.729 328.824 254.009C329.317 254.289 329.711 254.669 330.004 255.149C330.311 255.629 330.464 256.235 330.464 256.969C330.464 257.715 330.257 258.409 329.844 259.049C329.444 259.675 328.824 260.182 327.984 260.569C327.144 260.942 326.084 261.129 324.804 261.129ZM343.629 261.129C342.363 261.129 341.276 260.862 340.369 260.329C339.463 259.782 338.769 258.995 338.289 257.969C337.809 256.942 337.569 255.675 337.569 254.169C337.569 252.569 337.856 251.215 338.429 250.109C339.016 249.002 339.823 248.162 340.849 247.589C341.889 247.015 343.083 246.729 344.429 246.729C345.136 246.729 345.809 246.802 346.449 246.949C347.103 247.095 347.656 247.322 348.109 247.629L347.149 249.589C346.763 249.335 346.343 249.162 345.889 249.069C345.449 248.962 344.983 248.909 344.489 248.909C343.169 248.909 342.123 249.315 341.349 250.129C340.576 250.942 340.189 252.142 340.189 253.729C340.189 253.982 340.196 254.282 340.209 254.629C340.223 254.962 340.269 255.302 340.349 255.649L339.549 254.769C339.789 254.222 340.116 253.769 340.529 253.409C340.956 253.035 341.456 252.755 342.029 252.569C342.616 252.382 343.249 252.289 343.929 252.289C344.849 252.289 345.669 252.469 346.389 252.829C347.109 253.175 347.683 253.675 348.109 254.329C348.536 254.969 348.749 255.722 348.749 256.589C348.749 257.509 348.523 258.309 348.069 258.989C347.616 259.669 347.003 260.195 346.229 260.569C345.456 260.942 344.589 261.129 343.629 261.129ZM343.489 259.089C344.023 259.089 344.496 258.995 344.909 258.809C345.323 258.609 345.643 258.329 345.869 257.969C346.109 257.609 346.229 257.189 346.229 256.709C346.229 255.975 345.976 255.395 345.469 254.969C344.963 254.542 344.283 254.329 343.429 254.329C342.869 254.329 342.376 254.435 341.949 254.649C341.536 254.849 341.203 255.129 340.949 255.489C340.709 255.849 340.589 256.262 340.589 256.729C340.589 257.155 340.703 257.549 340.929 257.909C341.156 258.269 341.483 258.555 341.909 258.769C342.349 258.982 342.876 259.089 343.489 259.089ZM354.749 261.129C353.762 261.129 352.795 260.989 351.849 260.709C350.915 260.415 350.129 260.015 349.489 259.509L350.589 257.489C351.095 257.902 351.709 258.235 352.429 258.489C353.162 258.742 353.922 258.869 354.709 258.869C355.629 258.869 356.349 258.675 356.869 258.289C357.402 257.902 357.669 257.382 357.669 256.729C357.669 256.289 357.555 255.902 357.329 255.569C357.115 255.235 356.729 254.982 356.169 254.809C355.622 254.635 354.869 254.549 353.909 254.549H350.529L351.249 246.929H359.469V249.109H352.209L353.569 247.869L353.029 253.569L351.669 252.349H354.489C355.875 252.349 356.989 252.535 357.829 252.909C358.682 253.269 359.302 253.775 359.689 254.429C360.089 255.069 360.289 255.802 360.289 256.629C360.289 257.442 360.089 258.189 359.689 258.869C359.289 259.549 358.675 260.095 357.849 260.509C357.035 260.922 356.002 261.129 354.749 261.129ZM363.348 261.069C362.895 261.069 362.508 260.915 362.188 260.609C361.868 260.289 361.708 259.889 361.708 259.409C361.708 258.902 361.868 258.502 362.188 258.209C362.508 257.902 362.895 257.749 363.348 257.749C363.802 257.749 364.188 257.902 364.508 258.209C364.828 258.502 364.988 258.902 364.988 259.409C364.988 259.889 364.828 260.289 364.508 260.609C364.188 260.915 363.802 261.069 363.348 261.069ZM372.277 261.129C371.17 261.129 370.17 260.849 369.277 260.289C368.397 259.729 367.703 258.915 367.197 257.849C366.69 256.769 366.437 255.462 366.437 253.929C366.437 252.395 366.69 251.095 367.197 250.029C367.703 248.949 368.397 248.129 369.277 247.569C370.17 247.009 371.17 246.729 372.277 246.729C373.397 246.729 374.397 247.009 375.277 247.569C376.157 248.129 376.85 248.949 377.357 250.029C377.877 251.095 378.137 252.395 378.137 253.929C378.137 255.462 377.877 256.769 377.357 257.849C376.85 258.915 376.157 259.729 375.277 260.289C374.397 260.849 373.397 261.129 372.277 261.129ZM372.277 258.869C372.93 258.869 373.497 258.695 373.977 258.349C374.457 257.989 374.83 257.442 375.097 256.709C375.377 255.975 375.517 255.049 375.517 253.929C375.517 252.795 375.377 251.869 375.097 251.149C374.83 250.415 374.457 249.875 373.977 249.529C373.497 249.169 372.93 248.989 372.277 248.989C371.65 248.989 371.09 249.169 370.597 249.529C370.117 249.875 369.737 250.415 369.457 251.149C369.19 251.869 369.057 252.795 369.057 253.929C369.057 255.049 369.19 255.975 369.457 256.709C369.737 257.442 370.117 257.989 370.597 258.349C371.09 258.695 371.65 258.869 372.277 258.869ZM385.734 261.129C384.627 261.129 383.627 260.849 382.734 260.289C381.854 259.729 381.16 258.915 380.654 257.849C380.147 256.769 379.894 255.462 379.894 253.929C379.894 252.395 380.147 251.095 380.654 250.029C381.16 248.949 381.854 248.129 382.734 247.569C383.627 247.009 384.627 246.729 385.734 246.729C386.854 246.729 387.854 247.009 388.734 247.569C389.614 248.129 390.307 248.949 390.814 250.029C391.334 251.095 391.594 252.395 391.594 253.929C391.594 255.462 391.334 256.769 390.814 257.849C390.307 258.915 389.614 259.729 388.734 260.289C387.854 260.849 386.854 261.129 385.734 261.129ZM385.734 258.869C386.387 258.869 386.954 258.695 387.434 258.349C387.914 257.989 388.287 257.442 388.554 256.709C388.834 255.975 388.974 255.049 388.974 253.929C388.974 252.795 388.834 251.869 388.554 251.149C388.287 250.415 387.914 249.875 387.434 249.529C386.954 249.169 386.387 248.989 385.734 248.989C385.107 248.989 384.547 249.169 384.054 249.529C383.574 249.875 383.194 250.415 382.914 251.149C382.647 251.869 382.514 252.795 382.514 253.929C382.514 255.049 382.647 255.975 382.914 256.709C383.194 257.442 383.574 257.989 384.054 258.349C384.547 258.695 385.107 258.869 385.734 258.869Z" fill="#666666"/>
<rect x="68" y="145" width="110" height="8" rx="2" fill="#F5F5F5"/>
<rect x="122" y="109" width="69" height="4" rx="2" fill="#F5F5F5"/>
<rect x="654" y="109" width="69" height="4" rx="2" fill="#F5F5F5"/>
<rect x="122" y="115" width="88" height="4" rx="2" fill="#F5F5F5"/>
<rect x="654" y="115" width="88" height="4" rx="2" fill="#F5F5F5"/>
<rect x="600" y="145" width="110" height="8" rx="2" fill="#F5F5F5"/>
<rect x="316" y="126" width="134" height="10" rx="2" fill="#D7F5E2"/>
<rect x="378" y="86" width="74" height="5" rx="2" fill="#D7F5E2"/>
<rect x="378" y="95" width="102" height="5" rx="2" fill="#D7F5E2"/>
<rect x="68" y="161" width="132" height="8" rx="2" fill="#F5F5F5"/>
<rect x="600" y="161" width="132" height="8" rx="2" fill="#F5F5F5"/>
<rect x="316" y="147" width="160" height="10" rx="2" fill="#D7F5E2"/>
<rect x="68" y="193" width="105" height="8" rx="2" fill="#F5F5F5"/>
<rect x="600" y="193" width="105" height="8" rx="2" fill="#F5F5F5"/>
<rect x="316" y="188" width="128" height="10" rx="2" fill="#D7F5E2"/>
<rect x="68" y="177" width="132" height="8" rx="2" fill="#F5F5F5"/>
<rect x="600" y="177" width="132" height="8" rx="2" fill="#F5F5F5"/>
<rect x="316" y="168" width="160" height="10" rx="2" fill="#D7F5E2"/>
<rect x="68" y="209" width="121" height="8" rx="2" fill="#F5F5F5"/>
<rect x="600" y="209" width="121" height="8" rx="2" fill="#F5F5F5"/>
<rect x="316" y="209" width="148" height="10" rx="2" fill="#D7F5E2"/>
<rect x="68" y="265" width="148" height="30" rx="4" fill="#D3D3D3"/>
<rect x="600" y="265" width="148" height="30" rx="4" fill="#D3D3D3"/>
<rect x="316" y="284.825" width="186.039" height="36.1742" rx="4.87523" fill="#D6572D"/>
<rect x="81" y="277" width="121" height="6" rx="2" fill="#F5F5F5"/>
<rect x="613" y="277" width="121" height="6" rx="2" fill="#F5F5F5"/>
<rect x="334.087" y="298.606" width="150.726" height="8.6129" rx="1.72258" fill="#F5F5F5"/>
<rect x="296.5" y="34.5" width="223" height="309" rx="7.5" stroke="#3ECD72"/>
<g filter="url(#filter1_d_438_419)">
<rect x="721" y="289" width="132" height="224" rx="4" transform="rotate(90 721 289)" fill="white"/>
</g>
<rect x="513" y="325" width="85" height="6" rx="3" fill="white"/>
<rect x="513" y="335" width="45" height="6" rx="3" fill="white"/>
<rect x="673" y="335" width="32" height="6" rx="3" fill="#017F62"/>
<rect x="673" y="325" width="32" height="6" rx="3" fill="#017F62"/>
<rect x="513" y="353" width="12" height="52" rx="6" fill="#F5F5F5"/>
<rect x="513" y="384" width="12" height="21" rx="6" fill="#D6572D"/>
<rect x="533" y="353" width="12" height="52" rx="6" fill="#F5F5F5"/>
<rect x="553" y="353" width="12" height="52" rx="6" fill="#F5F5F5"/>
<rect x="573" y="353" width="12" height="52" rx="6" fill="#F5F5F5"/>
<rect x="593" y="353" width="12" height="52" rx="6" fill="#F5F5F5"/>
<rect x="613" y="353" width="12" height="52" rx="6" fill="#F5F5F5"/>
<rect x="633" y="353" width="12" height="52" rx="6" fill="#F5F5F5"/>
<rect x="653" y="353" width="12" height="52" rx="6" fill="#F5F5F5"/>
<rect x="673" y="353" width="12" height="52" rx="6" fill="#F5F5F5"/>
<rect x="693" y="353" width="12" height="52" rx="6" fill="#F5F5F5"/>
<rect x="533" y="367" width="12" height="38" rx="6" fill="#D6572D"/>
<rect x="553" y="372" width="12" height="33" rx="6" fill="#D6572D"/>
<rect x="573" y="361" width="12" height="44" rx="6" fill="#D6572D"/>
<rect x="593" y="380" width="12" height="25" rx="6" fill="#D6572D"/>
<rect x="613" y="364" width="12" height="41" rx="6" fill="#D6572D"/>
<rect x="633" y="372" width="12" height="33" rx="6" fill="#D6572D"/>
<rect x="653" y="364" width="12" height="41" rx="6" fill="#D6572D"/>
<rect x="673" y="358" width="12" height="47" rx="6" fill="#D6572D"/>
<rect x="693" y="380" width="12" height="25" rx="6" fill="#D6572D"/>
<path d="M502 214L541.441 243.659L549 307" stroke="#017F62" stroke-width="3"/>
<circle cx="549" cy="307" r="6.5" fill="white" stroke="#017F62" stroke-width="3"/>
<circle cx="502" cy="214" r="6.5" fill="white" stroke="#017F62" stroke-width="3"/>
<defs>
<filter id="filter0_d_438_419" x="264" y="2" width="288" height="382" filterUnits="userSpaceOnUse" color-interpolation-filters="sRGB">
<feFlood flood-opacity="0" result="BackgroundImageFix"/>
<feColorMatrix in="SourceAlpha" type="matrix" values="0 0 0 0 0 0 0 0 0 0 0 0 0 0 0 0 0 0 127 0" result="hardAlpha"/>
<feOffset dy="4"/>
<feGaussianBlur stdDeviation="6"/>
<feComposite in2="hardAlpha" operator="out"/>
<feColorMatrix type="matrix" values="0 0 0 0 0 0 0 0 0 0.498039 0 0 0 0 0.384314 0 0 0 0.2 0"/>
<feBlend mode="normal" in2="BackgroundImageFix" result="effect1_dropShadow_438_419"/>
<feBlend mode="normal" in="SourceGraphic" in2="effect1_dropShadow_438_419" result="shape"/>
</filter>
<filter id="filter1_d_438_419" x="485" y="281" width="248" height="156" filterUnits="userSpaceOnUse" color-interpolation-filters="sRGB">
<feFlood flood-opacity="0" result="BackgroundImageFix"/>
<feColorMatrix in="SourceAlpha" type="matrix" values="0 0 0 0 0 0 0 0 0 0 0 0 0 0 0 0 0 0 127 0" result="hardAlpha"/>
<feOffset dy="4"/>
<feGaussianBlur stdDeviation="6"/>
<feComposite in2="hardAlpha" operator="out"/>
<feColorMatrix type="matrix" values="0 0 0 0 0 0 0 0 0 0.498039 0 0 0 0 0.384314 0 0 0 0.2 0"/>
<feBlend mode="normal" in2="BackgroundImageFix" result="effect1_dropShadow_438_419"/>
<feBlend mode="normal" in="SourceGraphic" in2="effect1_dropShadow_438_419" result="shape"/>
</filter>
</defs>
</svg>
