<svg width="355" height="364" viewBox="0 0 355 364" fill="none" xmlns="http://www.w3.org/2000/svg">
<g opacity="0.1" clip-path="url(#clip0_1687_1303)">
<path d="M387.473 84.1212C416.983 109.798 395.89 159.428 381.508 181.203C366.148 164.983 353.114 160.066 348.517 159.635C293.984 143.583 301.981 106.064 312.796 89.3109C332.293 63.3488 357.232 57.8075 387.473 84.1212Z" fill="#B6A1C3"/>
<path d="M291.805 -47.775C164.444 -35.5519 169.597 51.5281 186.477 94.9295C138.901 53.5357 142.107 -6.77824 189.753 -36.7279C227.871 -60.6877 273.217 -55.3678 291.805 -47.775Z" fill="#B6A1C3"/>
<path d="M371.438 9.30011C230.983 -54.1511 228.971 83.1825 244.088 117.648C195.843 81.483 197.733 15.6981 242.676 -18.1739C298.964 -60.5963 356.028 -6.68218 371.438 9.30011Z" fill="#B6A1C3"/>
<path d="M244.885 160.143C298.422 144.907 350.144 162.676 355.651 182.489C371.598 239.863 238.322 286.184 152.703 203.108C86.8721 139.232 115.984 51.0115 141.381 18.3517C141.547 18.1318 141.716 17.9162 141.889 17.7047C141.72 17.9179 141.55 18.1335 141.381 18.3517C115.981 51.9406 165.433 182.753 244.885 160.143Z" fill="#B6A1C3"/>
<path d="M322.447 45.5197C364.223 33.3796 392.714 65.382 402.745 84.0732C383.323 9.05451 306.537 -4.54766 271.915 38.4542C245.7 71.0137 272.719 122.644 291.66 139.124C271.387 116.284 270.228 60.6948 322.447 45.5197Z" fill="#B6A1C3"/>
</g>
<defs>
<clipPath id="clip0_1687_1303">
<rect width="364.279" height="364.279" fill="white" transform="translate(239.871 -150.223) rotate(41.0258)"/>
</clipPath>
</defs>
</svg>
