<svg width="640" height="556" viewBox="0 0 640 556" fill="none" xmlns="http://www.w3.org/2000/svg">
<g opacity="0.1">
<path d="M128.748 188.653C142.654 123.278 234.292 113.658 278.749 117.099C267.245 153.493 270.702 177.043 273.868 184.269C295.085 279.055 232.397 298.205 198.401 295.932C143.449 288.32 114.498 255.65 128.748 188.653Z" fill="#B6A1C3"/>
<path d="M10.972 440.927C134.802 621.093 260.642 541.215 311.5 480.02C289.085 585.415 196.309 630.618 112.067 584.252C44.6725 547.158 15.0344 474.993 10.972 440.927Z" fill="#B6A1C3"/>
<path d="M30.2465 274.634C51.8599 537.088 258.727 426.263 297.693 375.107C283.646 477.169 183.786 528.873 95.9239 489.797C-14.1175 440.857 19.1396 310.906 30.2465 274.634Z" fill="#B6A1C3"/>
<path d="M360.525 338.694C293.385 271.33 277.064 179.319 302.103 154.669C374.61 83.2862 554.292 244.027 501.13 440.815C460.254 592.123 304.309 621.749 234.459 610.873C233.993 610.807 233.53 610.732 233.071 610.65C233.53 610.726 233.992 610.8 234.459 610.873C305.7 620.983 460.165 438.667 360.525 338.694Z" fill="#B6A1C3"/>
<path d="M124.969 317.808C72.2026 265.451 96.4038 196.355 116.017 165.874C20.0252 257.075 63.3476 383.08 156.297 399.169C226.675 411.35 281.423 328.184 290.347 286.223C273.025 335.445 190.926 383.254 124.969 317.808Z" fill="#B6A1C3"/>
</g>
</svg>
