<svg width="825" height="442" viewBox="0 0 825 442" fill="none" xmlns="http://www.w3.org/2000/svg">
<g filter="url(#filter0_d_451_887)">
<rect x="114" y="14" width="676" height="332" rx="8" fill="white"/>
</g>
<path d="M144.8 124.2V114.8H145.62V124.2H144.8ZM145.11 123.1C144.563 123.1 144.04 123.023 143.54 122.87C143.04 122.71 142.643 122.507 142.35 122.26L142.8 121.25C143.08 121.47 143.427 121.653 143.84 121.8C144.253 121.947 144.677 122.02 145.11 122.02C145.477 122.02 145.773 121.98 146 121.9C146.227 121.82 146.393 121.713 146.5 121.58C146.607 121.44 146.66 121.283 146.66 121.11C146.66 120.897 146.583 120.727 146.43 120.6C146.277 120.467 146.077 120.363 145.83 120.29C145.59 120.21 145.32 120.137 145.02 120.07C144.727 120.003 144.43 119.927 144.13 119.84C143.837 119.747 143.567 119.63 143.32 119.49C143.08 119.343 142.883 119.15 142.73 118.91C142.577 118.67 142.5 118.363 142.5 117.99C142.5 117.61 142.6 117.263 142.8 116.95C143.007 116.63 143.317 116.377 143.73 116.19C144.15 115.997 144.68 115.9 145.32 115.9C145.74 115.9 146.157 115.953 146.57 116.06C146.983 116.167 147.343 116.32 147.65 116.52L147.24 117.53C146.927 117.343 146.603 117.207 146.27 117.12C145.937 117.027 145.617 116.98 145.31 116.98C144.95 116.98 144.657 117.023 144.43 117.11C144.21 117.197 144.047 117.31 143.94 117.45C143.84 117.59 143.79 117.75 143.79 117.93C143.79 118.143 143.863 118.317 144.01 118.45C144.163 118.577 144.36 118.677 144.6 118.75C144.847 118.823 145.12 118.897 145.42 118.97C145.72 119.037 146.017 119.113 146.31 119.2C146.61 119.287 146.88 119.4 147.12 119.54C147.367 119.68 147.563 119.87 147.71 120.11C147.863 120.35 147.94 120.653 147.94 121.02C147.94 121.393 147.837 121.74 147.63 122.06C147.43 122.373 147.12 122.627 146.7 122.82C146.28 123.007 145.75 123.1 145.11 123.1ZM151.403 123V122.13L154.183 119.49C154.416 119.27 154.589 119.077 154.703 118.91C154.816 118.743 154.889 118.59 154.923 118.45C154.963 118.303 154.983 118.167 154.983 118.04C154.983 117.72 154.873 117.473 154.653 117.3C154.433 117.12 154.109 117.03 153.683 117.03C153.343 117.03 153.033 117.09 152.753 117.21C152.479 117.33 152.243 117.513 152.043 117.76L151.133 117.06C151.406 116.693 151.773 116.41 152.233 116.21C152.699 116.003 153.219 115.9 153.793 115.9C154.299 115.9 154.739 115.983 155.113 116.15C155.493 116.31 155.783 116.54 155.983 116.84C156.189 117.14 156.293 117.497 156.293 117.91C156.293 118.137 156.263 118.363 156.203 118.59C156.143 118.81 156.029 119.043 155.863 119.29C155.696 119.537 155.453 119.813 155.133 120.12L152.743 122.39L152.473 121.9H156.563V123H151.403ZM159.633 123.1C159.14 123.1 158.656 123.03 158.183 122.89C157.716 122.743 157.323 122.543 157.003 122.29L157.553 121.28C157.806 121.487 158.113 121.653 158.473 121.78C158.84 121.907 159.22 121.97 159.613 121.97C160.073 121.97 160.433 121.873 160.693 121.68C160.96 121.487 161.093 121.227 161.093 120.9C161.093 120.68 161.036 120.487 160.923 120.32C160.816 120.153 160.623 120.027 160.343 119.94C160.07 119.853 159.693 119.81 159.213 119.81H157.523L157.883 116H161.993V117.09H158.363L159.043 116.47L158.773 119.32L158.093 118.71H159.503C160.196 118.71 160.753 118.803 161.173 118.99C161.6 119.17 161.91 119.423 162.103 119.75C162.303 120.07 162.403 120.437 162.403 120.85C162.403 121.257 162.303 121.63 162.103 121.97C161.903 122.31 161.596 122.583 161.183 122.79C160.776 122.997 160.26 123.1 159.633 123.1ZM166.073 123.1C165.52 123.1 165.02 122.96 164.573 122.68C164.133 122.4 163.786 121.993 163.533 121.46C163.28 120.92 163.153 120.267 163.153 119.5C163.153 118.733 163.28 118.083 163.533 117.55C163.786 117.01 164.133 116.6 164.573 116.32C165.02 116.04 165.52 115.9 166.073 115.9C166.633 115.9 167.133 116.04 167.573 116.32C168.013 116.6 168.36 117.01 168.613 117.55C168.873 118.083 169.003 118.733 169.003 119.5C169.003 120.267 168.873 120.92 168.613 121.46C168.36 121.993 168.013 122.4 167.573 122.68C167.133 122.96 166.633 123.1 166.073 123.1ZM166.073 121.97C166.4 121.97 166.683 121.883 166.923 121.71C167.163 121.53 167.35 121.257 167.483 120.89C167.623 120.523 167.693 120.06 167.693 119.5C167.693 118.933 167.623 118.47 167.483 118.11C167.35 117.743 167.163 117.473 166.923 117.3C166.683 117.12 166.4 117.03 166.073 117.03C165.76 117.03 165.48 117.12 165.233 117.3C164.993 117.473 164.803 117.743 164.663 118.11C164.53 118.47 164.463 118.933 164.463 119.5C164.463 120.06 164.53 120.523 164.663 120.89C164.803 121.257 164.993 121.53 165.233 121.71C165.48 121.883 165.76 121.97 166.073 121.97Z" fill="#666666"/>
<path d="M490.47 318.1C489.837 318.1 489.293 317.967 488.84 317.7C488.387 317.427 488.04 317.033 487.8 316.52C487.56 316.007 487.44 315.373 487.44 314.62C487.44 313.82 487.583 313.143 487.87 312.59C488.163 312.037 488.567 311.617 489.08 311.33C489.6 311.043 490.197 310.9 490.87 310.9C491.223 310.9 491.56 310.937 491.88 311.01C492.207 311.083 492.483 311.197 492.71 311.35L492.23 312.33C492.037 312.203 491.827 312.117 491.6 312.07C491.38 312.017 491.147 311.99 490.9 311.99C490.24 311.99 489.717 312.193 489.33 312.6C488.943 313.007 488.75 313.607 488.75 314.4C488.75 314.527 488.753 314.677 488.76 314.85C488.767 315.017 488.79 315.187 488.83 315.36L488.43 314.92C488.55 314.647 488.713 314.42 488.92 314.24C489.133 314.053 489.383 313.913 489.67 313.82C489.963 313.727 490.28 313.68 490.62 313.68C491.08 313.68 491.49 313.77 491.85 313.95C492.21 314.123 492.497 314.373 492.71 314.7C492.923 315.02 493.03 315.397 493.03 315.83C493.03 316.29 492.917 316.69 492.69 317.03C492.463 317.37 492.157 317.633 491.77 317.82C491.383 318.007 490.95 318.1 490.47 318.1ZM490.4 317.08C490.667 317.08 490.903 317.033 491.11 316.94C491.317 316.84 491.477 316.7 491.59 316.52C491.71 316.34 491.77 316.13 491.77 315.89C491.77 315.523 491.643 315.233 491.39 315.02C491.137 314.807 490.797 314.7 490.37 314.7C490.09 314.7 489.843 314.753 489.63 314.86C489.423 314.96 489.257 315.1 489.13 315.28C489.01 315.46 488.95 315.667 488.95 315.9C488.95 316.113 489.007 316.31 489.12 316.49C489.233 316.67 489.397 316.813 489.61 316.92C489.83 317.027 490.093 317.08 490.4 317.08Z" fill="#666666"/>
<path d="M545.61 318L548.5 311.52L548.84 312.1H544.87L545.49 311.47V313.29H544.28V311H549.72V311.87L547 318H545.61Z" fill="#666666"/>
<path d="M604.25 318.1C603.67 318.1 603.167 318.013 602.74 317.84C602.313 317.667 601.983 317.423 601.75 317.11C601.517 316.79 601.4 316.417 601.4 315.99C601.4 315.563 601.513 315.203 601.74 314.91C601.967 314.617 602.293 314.393 602.72 314.24C603.147 314.087 603.657 314.01 604.25 314.01C604.843 314.01 605.353 314.087 605.78 314.24C606.213 314.393 606.543 314.62 606.77 314.92C607.003 315.213 607.12 315.57 607.12 315.99C607.12 316.417 607 316.79 606.76 317.11C606.527 317.423 606.193 317.667 605.76 317.84C605.333 318.013 604.83 318.1 604.25 318.1ZM604.25 317.08C604.73 317.08 605.11 316.98 605.39 316.78C605.67 316.58 605.81 316.303 605.81 315.95C605.81 315.603 605.67 315.33 605.39 315.13C605.11 314.93 604.73 314.83 604.25 314.83C603.77 314.83 603.393 314.93 603.12 315.13C602.847 315.33 602.71 315.603 602.71 315.95C602.71 316.303 602.847 316.58 603.12 316.78C603.393 316.98 603.77 317.08 604.25 317.08ZM604.25 314.69C603.71 314.69 603.247 314.62 602.86 314.48C602.473 314.333 602.173 314.123 601.96 313.85C601.753 313.57 601.65 313.237 601.65 312.85C601.65 312.45 601.757 312.107 601.97 311.82C602.19 311.527 602.497 311.3 602.89 311.14C603.283 310.98 603.737 310.9 604.25 310.9C604.77 310.9 605.227 310.98 605.62 311.14C606.013 311.3 606.32 311.527 606.54 311.82C606.76 312.107 606.87 312.45 606.87 312.85C606.87 313.237 606.763 313.57 606.55 313.85C606.343 314.123 606.043 314.333 605.65 314.48C605.257 314.62 604.79 314.69 604.25 314.69ZM604.25 313.89C604.663 313.89 604.99 313.803 605.23 313.63C605.47 313.45 605.59 313.21 605.59 312.91C605.59 312.597 605.467 312.353 605.22 312.18C604.973 312.007 604.65 311.92 604.25 311.92C603.85 311.92 603.53 312.007 603.29 312.18C603.05 312.353 602.93 312.597 602.93 312.91C602.93 313.21 603.047 313.45 603.28 313.63C603.52 313.803 603.843 313.89 604.25 313.89Z" fill="#666666"/>
<path d="M660.8 310.9C661.44 310.9 661.983 311.037 662.43 311.31C662.883 311.577 663.23 311.967 663.47 312.48C663.71 312.993 663.83 313.627 663.83 314.38C663.83 315.18 663.683 315.857 663.39 316.41C663.103 316.963 662.703 317.383 662.19 317.67C661.677 317.957 661.08 318.1 660.4 318.1C660.047 318.1 659.71 318.063 659.39 317.99C659.07 317.917 658.793 317.803 658.56 317.65L659.04 316.67C659.233 316.797 659.443 316.887 659.67 316.94C659.897 316.987 660.13 317.01 660.37 317.01C661.03 317.01 661.553 316.807 661.94 316.4C662.327 315.993 662.52 315.393 662.52 314.6C662.52 314.473 662.517 314.327 662.51 314.16C662.503 313.987 662.48 313.813 662.44 313.64L662.84 314.08C662.727 314.353 662.563 314.583 662.35 314.77C662.137 314.95 661.887 315.087 661.6 315.18C661.313 315.273 660.997 315.32 660.65 315.32C660.197 315.32 659.787 315.233 659.42 315.06C659.06 314.88 658.773 314.63 658.56 314.31C658.347 313.983 658.24 313.603 658.24 313.17C658.24 312.703 658.353 312.303 658.58 311.97C658.807 311.63 659.113 311.367 659.5 311.18C659.893 310.993 660.327 310.9 660.8 310.9ZM660.87 311.92C660.603 311.92 660.367 311.97 660.16 312.07C659.953 312.163 659.79 312.3 659.67 312.48C659.557 312.653 659.5 312.863 659.5 313.11C659.5 313.477 659.627 313.767 659.88 313.98C660.133 314.193 660.473 314.3 660.9 314.3C661.18 314.3 661.427 314.25 661.64 314.15C661.853 314.043 662.02 313.9 662.14 313.72C662.26 313.533 662.32 313.327 662.32 313.1C662.32 312.88 662.263 312.683 662.15 312.51C662.037 312.33 661.873 312.187 661.66 312.08C661.447 311.973 661.183 311.92 660.87 311.92Z" fill="#666666"/>
<path d="M716.56 318V311.5L717.13 312.09H715.08V311H717.86V318H716.56ZM722.169 318.1C721.615 318.1 721.115 317.96 720.669 317.68C720.229 317.4 719.882 316.993 719.629 316.46C719.375 315.92 719.249 315.267 719.249 314.5C719.249 313.733 719.375 313.083 719.629 312.55C719.882 312.01 720.229 311.6 720.669 311.32C721.115 311.04 721.615 310.9 722.169 310.9C722.729 310.9 723.229 311.04 723.669 311.32C724.109 311.6 724.455 312.01 724.709 312.55C724.969 313.083 725.099 313.733 725.099 314.5C725.099 315.267 724.969 315.92 724.709 316.46C724.455 316.993 724.109 317.4 723.669 317.68C723.229 317.96 722.729 318.1 722.169 318.1ZM722.169 316.97C722.495 316.97 722.779 316.883 723.019 316.71C723.259 316.53 723.445 316.257 723.579 315.89C723.719 315.523 723.789 315.06 723.789 314.5C723.789 313.933 723.719 313.47 723.579 313.11C723.445 312.743 723.259 312.473 723.019 312.3C722.779 312.12 722.495 312.03 722.169 312.03C721.855 312.03 721.575 312.12 721.329 312.3C721.089 312.473 720.899 312.743 720.759 313.11C720.625 313.47 720.559 313.933 720.559 314.5C720.559 315.06 720.625 315.523 720.759 315.89C720.899 316.257 721.089 316.53 721.329 316.71C721.575 316.883 721.855 316.97 722.169 316.97Z" fill="#666666"/>
<path d="M144.8 163.2V153.8H145.62V163.2H144.8ZM145.11 162.1C144.563 162.1 144.04 162.023 143.54 161.87C143.04 161.71 142.643 161.507 142.35 161.26L142.8 160.25C143.08 160.47 143.427 160.653 143.84 160.8C144.253 160.947 144.677 161.02 145.11 161.02C145.477 161.02 145.773 160.98 146 160.9C146.227 160.82 146.393 160.713 146.5 160.58C146.607 160.44 146.66 160.283 146.66 160.11C146.66 159.897 146.583 159.727 146.43 159.6C146.277 159.467 146.077 159.363 145.83 159.29C145.59 159.21 145.32 159.137 145.02 159.07C144.727 159.003 144.43 158.927 144.13 158.84C143.837 158.747 143.567 158.63 143.32 158.49C143.08 158.343 142.883 158.15 142.73 157.91C142.577 157.67 142.5 157.363 142.5 156.99C142.5 156.61 142.6 156.263 142.8 155.95C143.007 155.63 143.317 155.377 143.73 155.19C144.15 154.997 144.68 154.9 145.32 154.9C145.74 154.9 146.157 154.953 146.57 155.06C146.983 155.167 147.343 155.32 147.65 155.52L147.24 156.53C146.927 156.343 146.603 156.207 146.27 156.12C145.937 156.027 145.617 155.98 145.31 155.98C144.95 155.98 144.657 156.023 144.43 156.11C144.21 156.197 144.047 156.31 143.94 156.45C143.84 156.59 143.79 156.75 143.79 156.93C143.79 157.143 143.863 157.317 144.01 157.45C144.163 157.577 144.36 157.677 144.6 157.75C144.847 157.823 145.12 157.897 145.42 157.97C145.72 158.037 146.017 158.113 146.31 158.2C146.61 158.287 146.88 158.4 147.12 158.54C147.367 158.68 147.563 158.87 147.71 159.11C147.863 159.35 147.94 159.653 147.94 160.02C147.94 160.393 147.837 160.74 147.63 161.06C147.43 161.373 147.12 161.627 146.7 161.82C146.28 162.007 145.75 162.1 145.11 162.1ZM151.403 162V161.13L154.183 158.49C154.416 158.27 154.589 158.077 154.703 157.91C154.816 157.743 154.889 157.59 154.923 157.45C154.963 157.303 154.983 157.167 154.983 157.04C154.983 156.72 154.873 156.473 154.653 156.3C154.433 156.12 154.109 156.03 153.683 156.03C153.343 156.03 153.033 156.09 152.753 156.21C152.479 156.33 152.243 156.513 152.043 156.76L151.133 156.06C151.406 155.693 151.773 155.41 152.233 155.21C152.699 155.003 153.219 154.9 153.793 154.9C154.299 154.9 154.739 154.983 155.113 155.15C155.493 155.31 155.783 155.54 155.983 155.84C156.189 156.14 156.293 156.497 156.293 156.91C156.293 157.137 156.263 157.363 156.203 157.59C156.143 157.81 156.029 158.043 155.863 158.29C155.696 158.537 155.453 158.813 155.133 159.12L152.743 161.39L152.473 160.9H156.563V162H151.403ZM160.233 162.1C159.68 162.1 159.18 161.96 158.733 161.68C158.293 161.4 157.946 160.993 157.693 160.46C157.44 159.92 157.313 159.267 157.313 158.5C157.313 157.733 157.44 157.083 157.693 156.55C157.946 156.01 158.293 155.6 158.733 155.32C159.18 155.04 159.68 154.9 160.233 154.9C160.793 154.9 161.293 155.04 161.733 155.32C162.173 155.6 162.52 156.01 162.773 156.55C163.033 157.083 163.163 157.733 163.163 158.5C163.163 159.267 163.033 159.92 162.773 160.46C162.52 160.993 162.173 161.4 161.733 161.68C161.293 161.96 160.793 162.1 160.233 162.1ZM160.233 160.97C160.56 160.97 160.843 160.883 161.083 160.71C161.323 160.53 161.51 160.257 161.643 159.89C161.783 159.523 161.853 159.06 161.853 158.5C161.853 157.933 161.783 157.47 161.643 157.11C161.51 156.743 161.323 156.473 161.083 156.3C160.843 156.12 160.56 156.03 160.233 156.03C159.92 156.03 159.64 156.12 159.393 156.3C159.153 156.473 158.963 156.743 158.823 157.11C158.69 157.47 158.623 157.933 158.623 158.5C158.623 159.06 158.69 159.523 158.823 159.89C158.963 160.257 159.153 160.53 159.393 160.71C159.64 160.883 159.92 160.97 160.233 160.97ZM166.962 162.1C166.408 162.1 165.908 161.96 165.462 161.68C165.022 161.4 164.675 160.993 164.422 160.46C164.168 159.92 164.042 159.267 164.042 158.5C164.042 157.733 164.168 157.083 164.422 156.55C164.675 156.01 165.022 155.6 165.462 155.32C165.908 155.04 166.408 154.9 166.962 154.9C167.522 154.9 168.022 155.04 168.462 155.32C168.902 155.6 169.248 156.01 169.502 156.55C169.762 157.083 169.892 157.733 169.892 158.5C169.892 159.267 169.762 159.92 169.502 160.46C169.248 160.993 168.902 161.4 168.462 161.68C168.022 161.96 167.522 162.1 166.962 162.1ZM166.962 160.97C167.288 160.97 167.572 160.883 167.812 160.71C168.052 160.53 168.238 160.257 168.372 159.89C168.512 159.523 168.582 159.06 168.582 158.5C168.582 157.933 168.512 157.47 168.372 157.11C168.238 156.743 168.052 156.473 167.812 156.3C167.572 156.12 167.288 156.03 166.962 156.03C166.648 156.03 166.368 156.12 166.122 156.3C165.882 156.473 165.692 156.743 165.552 157.11C165.418 157.47 165.352 157.933 165.352 158.5C165.352 159.06 165.418 159.523 165.552 159.89C165.692 160.257 165.882 160.53 166.122 160.71C166.368 160.883 166.648 160.97 166.962 160.97Z" fill="#666666"/>
<path d="M433.76 318.1C433.267 318.1 432.783 318.03 432.31 317.89C431.843 317.743 431.45 317.543 431.13 317.29L431.68 316.28C431.933 316.487 432.24 316.653 432.6 316.78C432.967 316.907 433.347 316.97 433.74 316.97C434.2 316.97 434.56 316.873 434.82 316.68C435.087 316.487 435.22 316.227 435.22 315.9C435.22 315.68 435.163 315.487 435.05 315.32C434.943 315.153 434.75 315.027 434.47 314.94C434.197 314.853 433.82 314.81 433.34 314.81H431.65L432.01 311H436.12V312.09H432.49L433.17 311.47L432.9 314.32L432.22 313.71H433.63C434.323 313.71 434.88 313.803 435.3 313.99C435.727 314.17 436.037 314.423 436.23 314.75C436.43 315.07 436.53 315.437 436.53 315.85C436.53 316.257 436.43 316.63 436.23 316.97C436.03 317.31 435.723 317.583 435.31 317.79C434.903 317.997 434.387 318.1 433.76 318.1Z" fill="#666666"/>
<path d="M144.8 202.2V192.8H145.62V202.2H144.8ZM145.11 201.1C144.563 201.1 144.04 201.023 143.54 200.87C143.04 200.71 142.643 200.507 142.35 200.26L142.8 199.25C143.08 199.47 143.427 199.653 143.84 199.8C144.253 199.947 144.677 200.02 145.11 200.02C145.477 200.02 145.773 199.98 146 199.9C146.227 199.82 146.393 199.713 146.5 199.58C146.607 199.44 146.66 199.283 146.66 199.11C146.66 198.897 146.583 198.727 146.43 198.6C146.277 198.467 146.077 198.363 145.83 198.29C145.59 198.21 145.32 198.137 145.02 198.07C144.727 198.003 144.43 197.927 144.13 197.84C143.837 197.747 143.567 197.63 143.32 197.49C143.08 197.343 142.883 197.15 142.73 196.91C142.577 196.67 142.5 196.363 142.5 195.99C142.5 195.61 142.6 195.263 142.8 194.95C143.007 194.63 143.317 194.377 143.73 194.19C144.15 193.997 144.68 193.9 145.32 193.9C145.74 193.9 146.157 193.953 146.57 194.06C146.983 194.167 147.343 194.32 147.65 194.52L147.24 195.53C146.927 195.343 146.603 195.207 146.27 195.12C145.937 195.027 145.617 194.98 145.31 194.98C144.95 194.98 144.657 195.023 144.43 195.11C144.21 195.197 144.047 195.31 143.94 195.45C143.84 195.59 143.79 195.75 143.79 195.93C143.79 196.143 143.863 196.317 144.01 196.45C144.163 196.577 144.36 196.677 144.6 196.75C144.847 196.823 145.12 196.897 145.42 196.97C145.72 197.037 146.017 197.113 146.31 197.2C146.61 197.287 146.88 197.4 147.12 197.54C147.367 197.68 147.563 197.87 147.71 198.11C147.863 198.35 147.94 198.653 147.94 199.02C147.94 199.393 147.837 199.74 147.63 200.06C147.43 200.373 147.12 200.627 146.7 200.82C146.28 201.007 145.75 201.1 145.11 201.1ZM152.613 201V194.5L153.183 195.09H151.133V194H153.913V201H152.613ZM157.621 201.1C157.128 201.1 156.645 201.03 156.171 200.89C155.705 200.743 155.311 200.543 154.991 200.29L155.541 199.28C155.795 199.487 156.101 199.653 156.461 199.78C156.828 199.907 157.208 199.97 157.601 199.97C158.061 199.97 158.421 199.873 158.681 199.68C158.948 199.487 159.081 199.227 159.081 198.9C159.081 198.68 159.025 198.487 158.911 198.32C158.805 198.153 158.611 198.027 158.331 197.94C158.058 197.853 157.681 197.81 157.201 197.81H155.511L155.871 194H159.981V195.09H156.351L157.031 194.47L156.761 197.32L156.081 196.71H157.491C158.185 196.71 158.741 196.803 159.161 196.99C159.588 197.17 159.898 197.423 160.091 197.75C160.291 198.07 160.391 198.437 160.391 198.85C160.391 199.257 160.291 199.63 160.091 199.97C159.891 200.31 159.585 200.583 159.171 200.79C158.765 200.997 158.248 201.1 157.621 201.1ZM164.061 201.1C163.508 201.1 163.008 200.96 162.561 200.68C162.121 200.4 161.775 199.993 161.521 199.46C161.268 198.92 161.141 198.267 161.141 197.5C161.141 196.733 161.268 196.083 161.521 195.55C161.775 195.01 162.121 194.6 162.561 194.32C163.008 194.04 163.508 193.9 164.061 193.9C164.621 193.9 165.121 194.04 165.561 194.32C166.001 194.6 166.348 195.01 166.601 195.55C166.861 196.083 166.991 196.733 166.991 197.5C166.991 198.267 166.861 198.92 166.601 199.46C166.348 199.993 166.001 200.4 165.561 200.68C165.121 200.96 164.621 201.1 164.061 201.1ZM164.061 199.97C164.388 199.97 164.671 199.883 164.911 199.71C165.151 199.53 165.338 199.257 165.471 198.89C165.611 198.523 165.681 198.06 165.681 197.5C165.681 196.933 165.611 196.47 165.471 196.11C165.338 195.743 165.151 195.473 164.911 195.3C164.671 195.12 164.388 195.03 164.061 195.03C163.748 195.03 163.468 195.12 163.221 195.3C162.981 195.473 162.791 195.743 162.651 196.11C162.518 196.47 162.451 196.933 162.451 197.5C162.451 198.06 162.518 198.523 162.651 198.89C162.791 199.257 162.981 199.53 163.221 199.71C163.468 199.883 163.748 199.97 164.061 199.97Z" fill="#666666"/>
<path d="M374.34 316.41V315.51L377.79 311H379.18L375.78 315.51L375.13 315.31H380.68V316.41H374.34ZM378.18 318V316.41L378.22 315.31V313.9H379.44V318H378.18Z" fill="#666666"/>
<path d="M144.8 241.2V231.8H145.62V241.2H144.8ZM145.11 240.1C144.563 240.1 144.04 240.023 143.54 239.87C143.04 239.71 142.643 239.507 142.35 239.26L142.8 238.25C143.08 238.47 143.427 238.653 143.84 238.8C144.253 238.947 144.677 239.02 145.11 239.02C145.477 239.02 145.773 238.98 146 238.9C146.227 238.82 146.393 238.713 146.5 238.58C146.607 238.44 146.66 238.283 146.66 238.11C146.66 237.897 146.583 237.727 146.43 237.6C146.277 237.467 146.077 237.363 145.83 237.29C145.59 237.21 145.32 237.137 145.02 237.07C144.727 237.003 144.43 236.927 144.13 236.84C143.837 236.747 143.567 236.63 143.32 236.49C143.08 236.343 142.883 236.15 142.73 235.91C142.577 235.67 142.5 235.363 142.5 234.99C142.5 234.61 142.6 234.263 142.8 233.95C143.007 233.63 143.317 233.377 143.73 233.19C144.15 232.997 144.68 232.9 145.32 232.9C145.74 232.9 146.157 232.953 146.57 233.06C146.983 233.167 147.343 233.32 147.65 233.52L147.24 234.53C146.927 234.343 146.603 234.207 146.27 234.12C145.937 234.027 145.617 233.98 145.31 233.98C144.95 233.98 144.657 234.023 144.43 234.11C144.21 234.197 144.047 234.31 143.94 234.45C143.84 234.59 143.79 234.75 143.79 234.93C143.79 235.143 143.863 235.317 144.01 235.45C144.163 235.577 144.36 235.677 144.6 235.75C144.847 235.823 145.12 235.897 145.42 235.97C145.72 236.037 146.017 236.113 146.31 236.2C146.61 236.287 146.88 236.4 147.12 236.54C147.367 236.68 147.563 236.87 147.71 237.11C147.863 237.35 147.94 237.653 147.94 238.02C147.94 238.393 147.837 238.74 147.63 239.06C147.43 239.373 147.12 239.627 146.7 239.82C146.28 240.007 145.75 240.1 145.11 240.1ZM152.613 240V233.5L153.183 234.09H151.133V233H153.913V240H152.613ZM158.221 240.1C157.668 240.1 157.168 239.96 156.721 239.68C156.281 239.4 155.935 238.993 155.681 238.46C155.428 237.92 155.301 237.267 155.301 236.5C155.301 235.733 155.428 235.083 155.681 234.55C155.935 234.01 156.281 233.6 156.721 233.32C157.168 233.04 157.668 232.9 158.221 232.9C158.781 232.9 159.281 233.04 159.721 233.32C160.161 233.6 160.508 234.01 160.761 234.55C161.021 235.083 161.151 235.733 161.151 236.5C161.151 237.267 161.021 237.92 160.761 238.46C160.508 238.993 160.161 239.4 159.721 239.68C159.281 239.96 158.781 240.1 158.221 240.1ZM158.221 238.97C158.548 238.97 158.831 238.883 159.071 238.71C159.311 238.53 159.498 238.257 159.631 237.89C159.771 237.523 159.841 237.06 159.841 236.5C159.841 235.933 159.771 235.47 159.631 235.11C159.498 234.743 159.311 234.473 159.071 234.3C158.831 234.12 158.548 234.03 158.221 234.03C157.908 234.03 157.628 234.12 157.381 234.3C157.141 234.473 156.951 234.743 156.811 235.11C156.678 235.47 156.611 235.933 156.611 236.5C156.611 237.06 156.678 237.523 156.811 237.89C156.951 238.257 157.141 238.53 157.381 238.71C157.628 238.883 157.908 238.97 158.221 238.97ZM164.95 240.1C164.397 240.1 163.897 239.96 163.45 239.68C163.01 239.4 162.663 238.993 162.41 238.46C162.157 237.92 162.03 237.267 162.03 236.5C162.03 235.733 162.157 235.083 162.41 234.55C162.663 234.01 163.01 233.6 163.45 233.32C163.897 233.04 164.397 232.9 164.95 232.9C165.51 232.9 166.01 233.04 166.45 233.32C166.89 233.6 167.237 234.01 167.49 234.55C167.75 235.083 167.88 235.733 167.88 236.5C167.88 237.267 167.75 237.92 167.49 238.46C167.237 238.993 166.89 239.4 166.45 239.68C166.01 239.96 165.51 240.1 164.95 240.1ZM164.95 238.97C165.277 238.97 165.56 238.883 165.8 238.71C166.04 238.53 166.227 238.257 166.36 237.89C166.5 237.523 166.57 237.06 166.57 236.5C166.57 235.933 166.5 235.47 166.36 235.11C166.227 234.743 166.04 234.473 165.8 234.3C165.56 234.12 165.277 234.03 164.95 234.03C164.637 234.03 164.357 234.12 164.11 234.3C163.87 234.473 163.68 234.743 163.54 235.11C163.407 235.47 163.34 235.933 163.34 236.5C163.34 237.06 163.407 237.523 163.54 237.89C163.68 238.257 163.87 238.53 164.11 238.71C164.357 238.883 164.637 238.97 164.95 238.97Z" fill="#666666"/>
<path d="M320.64 318.1C320.147 318.1 319.663 318.03 319.19 317.89C318.723 317.743 318.33 317.543 318.01 317.29L318.57 316.28C318.823 316.487 319.13 316.653 319.49 316.78C319.85 316.907 320.227 316.97 320.62 316.97C321.087 316.97 321.45 316.877 321.71 316.69C321.97 316.497 322.1 316.237 322.1 315.91C322.1 315.59 321.98 315.337 321.74 315.15C321.5 314.963 321.113 314.87 320.58 314.87H319.94V313.98L321.94 311.6L322.11 312.09H318.35V311H323.12V311.87L321.12 314.25L320.44 313.85H320.83C321.69 313.85 322.333 314.043 322.76 314.43C323.193 314.81 323.41 315.3 323.41 315.9C323.41 316.293 323.31 316.657 323.11 316.99C322.91 317.323 322.603 317.593 322.19 317.8C321.783 318 321.267 318.1 320.64 318.1Z" fill="#666666"/>
<path d="M144.8 280.2V270.8H145.62V280.2H144.8ZM145.11 279.1C144.563 279.1 144.04 279.023 143.54 278.87C143.04 278.71 142.643 278.507 142.35 278.26L142.8 277.25C143.08 277.47 143.427 277.653 143.84 277.8C144.253 277.947 144.677 278.02 145.11 278.02C145.477 278.02 145.773 277.98 146 277.9C146.227 277.82 146.393 277.713 146.5 277.58C146.607 277.44 146.66 277.283 146.66 277.11C146.66 276.897 146.583 276.727 146.43 276.6C146.277 276.467 146.077 276.363 145.83 276.29C145.59 276.21 145.32 276.137 145.02 276.07C144.727 276.003 144.43 275.927 144.13 275.84C143.837 275.747 143.567 275.63 143.32 275.49C143.08 275.343 142.883 275.15 142.73 274.91C142.577 274.67 142.5 274.363 142.5 273.99C142.5 273.61 142.6 273.263 142.8 272.95C143.007 272.63 143.317 272.377 143.73 272.19C144.15 271.997 144.68 271.9 145.32 271.9C145.74 271.9 146.157 271.953 146.57 272.06C146.983 272.167 147.343 272.32 147.65 272.52L147.24 273.53C146.927 273.343 146.603 273.207 146.27 273.12C145.937 273.027 145.617 272.98 145.31 272.98C144.95 272.98 144.657 273.023 144.43 273.11C144.21 273.197 144.047 273.31 143.94 273.45C143.84 273.59 143.79 273.75 143.79 273.93C143.79 274.143 143.863 274.317 144.01 274.45C144.163 274.577 144.36 274.677 144.6 274.75C144.847 274.823 145.12 274.897 145.42 274.97C145.72 275.037 146.017 275.113 146.31 275.2C146.61 275.287 146.88 275.4 147.12 275.54C147.367 275.68 147.563 275.87 147.71 276.11C147.863 276.35 147.94 276.653 147.94 277.02C147.94 277.393 147.837 277.74 147.63 278.06C147.43 278.373 147.12 278.627 146.7 278.82C146.28 279.007 145.75 279.1 145.11 279.1ZM153.813 279.1C153.319 279.1 152.836 279.03 152.363 278.89C151.896 278.743 151.503 278.543 151.183 278.29L151.733 277.28C151.986 277.487 152.293 277.653 152.653 277.78C153.019 277.907 153.399 277.97 153.793 277.97C154.253 277.97 154.613 277.873 154.873 277.68C155.139 277.487 155.273 277.227 155.273 276.9C155.273 276.68 155.216 276.487 155.103 276.32C154.996 276.153 154.803 276.027 154.523 275.94C154.249 275.853 153.873 275.81 153.393 275.81H151.703L152.063 272H156.173V273.09H152.543L153.223 272.47L152.953 275.32L152.273 274.71H153.683C154.376 274.71 154.933 274.803 155.353 274.99C155.779 275.17 156.089 275.423 156.283 275.75C156.483 276.07 156.583 276.437 156.583 276.85C156.583 277.257 156.483 277.63 156.283 277.97C156.083 278.31 155.776 278.583 155.363 278.79C154.956 278.997 154.439 279.1 153.813 279.1ZM160.253 279.1C159.699 279.1 159.199 278.96 158.753 278.68C158.313 278.4 157.966 277.993 157.713 277.46C157.459 276.92 157.333 276.267 157.333 275.5C157.333 274.733 157.459 274.083 157.713 273.55C157.966 273.01 158.313 272.6 158.753 272.32C159.199 272.04 159.699 271.9 160.253 271.9C160.813 271.9 161.313 272.04 161.753 272.32C162.193 272.6 162.539 273.01 162.793 273.55C163.053 274.083 163.183 274.733 163.183 275.5C163.183 276.267 163.053 276.92 162.793 277.46C162.539 277.993 162.193 278.4 161.753 278.68C161.313 278.96 160.813 279.1 160.253 279.1ZM160.253 277.97C160.579 277.97 160.863 277.883 161.103 277.71C161.343 277.53 161.529 277.257 161.663 276.89C161.803 276.523 161.873 276.06 161.873 275.5C161.873 274.933 161.803 274.47 161.663 274.11C161.529 273.743 161.343 273.473 161.103 273.3C160.863 273.12 160.579 273.03 160.253 273.03C159.939 273.03 159.659 273.12 159.413 273.3C159.173 273.473 158.983 273.743 158.843 274.11C158.709 274.47 158.643 274.933 158.643 275.5C158.643 276.06 158.709 276.523 158.843 276.89C158.983 277.257 159.173 277.53 159.413 277.71C159.659 277.883 159.939 277.97 160.253 277.97Z" fill="#666666"/>
<path d="M262.35 318V317.13L265.13 314.49C265.363 314.27 265.537 314.077 265.65 313.91C265.763 313.743 265.837 313.59 265.87 313.45C265.91 313.303 265.93 313.167 265.93 313.04C265.93 312.72 265.82 312.473 265.6 312.3C265.38 312.12 265.057 312.03 264.63 312.03C264.29 312.03 263.98 312.09 263.7 312.21C263.427 312.33 263.19 312.513 262.99 312.76L262.08 312.06C262.353 311.693 262.72 311.41 263.18 311.21C263.647 311.003 264.167 310.9 264.74 310.9C265.247 310.9 265.687 310.983 266.06 311.15C266.44 311.31 266.73 311.54 266.93 311.84C267.137 312.14 267.24 312.497 267.24 312.91C267.24 313.137 267.21 313.363 267.15 313.59C267.09 313.81 266.977 314.043 266.81 314.29C266.643 314.537 266.4 314.813 266.08 315.12L263.69 317.39L263.42 316.9H267.51V318H262.35Z" fill="#666666"/>
<path d="M209.56 318V311.5L210.13 312.09H208.08V311H210.86V318H209.56Z" fill="#666666"/>
<path d="M143.88 57V43H149.64C150.88 43 151.94 43.2 152.82 43.6C153.713 44 154.4 44.5733 154.88 45.32C155.36 46.0667 155.6 46.9533 155.6 47.98C155.6 49.0067 155.36 49.8933 154.88 50.64C154.4 51.3867 153.713 51.96 152.82 52.36C151.94 52.76 150.88 52.96 149.64 52.96H145.32L146.48 51.74V57H143.88ZM146.48 52.02L145.32 50.76H149.52C150.667 50.76 151.527 50.52 152.1 50.04C152.687 49.5467 152.98 48.86 152.98 47.98C152.98 47.0867 152.687 46.4 152.1 45.92C151.527 45.44 150.667 45.2 149.52 45.2H145.32L146.48 43.92V52.02ZM157.859 57V46.32H160.239V49.26L159.959 48.4C160.279 47.68 160.779 47.1333 161.459 46.76C162.152 46.3867 163.012 46.2 164.039 46.2V48.58C163.932 48.5533 163.832 48.54 163.739 48.54C163.645 48.5267 163.552 48.52 163.459 48.52C162.512 48.52 161.759 48.8 161.199 49.36C160.639 49.9067 160.359 50.7267 160.359 51.82V57H157.859ZM170.862 57.14C169.769 57.14 168.795 56.9067 167.942 56.44C167.089 55.96 166.415 55.3067 165.922 54.48C165.429 53.6533 165.182 52.7133 165.182 51.66C165.182 50.5933 165.429 49.6533 165.922 48.84C166.415 48.0133 167.089 47.3667 167.942 46.9C168.795 46.4333 169.769 46.2 170.862 46.2C171.969 46.2 172.949 46.4333 173.802 46.9C174.669 47.3667 175.342 48.0067 175.822 48.82C176.315 49.6333 176.562 50.58 176.562 51.66C176.562 52.7133 176.315 53.6533 175.822 54.48C175.342 55.3067 174.669 55.96 173.802 56.44C172.949 56.9067 171.969 57.14 170.862 57.14ZM170.862 55C171.475 55 172.022 54.8667 172.502 54.6C172.982 54.3333 173.355 53.9467 173.622 53.44C173.902 52.9333 174.042 52.34 174.042 51.66C174.042 50.9667 173.902 50.3733 173.622 49.88C173.355 49.3733 172.982 48.9867 172.502 48.72C172.022 48.4533 171.482 48.32 170.882 48.32C170.269 48.32 169.722 48.4533 169.242 48.72C168.775 48.9867 168.402 49.3733 168.122 49.88C167.842 50.3733 167.702 50.9667 167.702 51.66C167.702 52.34 167.842 52.9333 168.122 53.44C168.402 53.9467 168.775 54.3333 169.242 54.6C169.722 54.8667 170.262 55 170.862 55ZM183.473 57.14C182.446 57.14 181.519 56.9133 180.693 56.46C179.879 55.9933 179.239 55.3533 178.773 54.54C178.306 53.7267 178.073 52.7667 178.073 51.66C178.073 50.5533 178.306 49.5933 178.773 48.78C179.239 47.9667 179.879 47.3333 180.693 46.88C181.519 46.4267 182.446 46.2 183.473 46.2C184.366 46.2 185.166 46.4 185.873 46.8C186.579 47.1867 187.139 47.78 187.553 48.58C187.966 49.38 188.173 50.4067 188.173 51.66C188.173 52.9 187.973 53.9267 187.573 54.74C187.173 55.54 186.619 56.14 185.913 56.54C185.206 56.94 184.393 57.14 183.473 57.14ZM183.773 55C184.373 55 184.906 54.8667 185.373 54.6C185.853 54.3333 186.233 53.9467 186.513 53.44C186.806 52.9333 186.953 52.34 186.953 51.66C186.953 50.9667 186.806 50.3733 186.513 49.88C186.233 49.3733 185.853 48.9867 185.373 48.72C184.906 48.4533 184.373 48.32 183.773 48.32C183.173 48.32 182.633 48.4533 182.153 48.72C181.686 48.9867 181.306 49.3733 181.013 49.88C180.733 50.3733 180.593 50.9667 180.593 51.66C180.593 52.34 180.733 52.9333 181.013 53.44C181.306 53.9467 181.686 54.3333 182.153 54.6C182.633 54.8667 183.173 55 183.773 55ZM187.013 57V54.48L187.113 51.64L186.913 48.8V42.16H189.393V57H187.013ZM197.203 57.14C196.296 57.14 195.496 56.9733 194.803 56.64C194.11 56.2933 193.57 55.7733 193.183 55.08C192.796 54.3733 192.603 53.4867 192.603 52.42V46.32H195.103V52.08C195.103 53.04 195.316 53.76 195.743 54.24C196.183 54.7067 196.803 54.94 197.603 54.94C198.19 54.94 198.696 54.82 199.123 54.58C199.563 54.34 199.903 53.98 200.143 53.5C200.396 53.02 200.523 52.4267 200.523 51.72V46.32H203.023V57H200.643V54.12L201.063 55C200.703 55.6933 200.176 56.2267 199.483 56.6C198.79 56.96 198.03 57.14 197.203 57.14ZM211.196 57.14C210.076 57.14 209.076 56.9067 208.196 56.44C207.33 55.96 206.65 55.3067 206.156 54.48C205.663 53.6533 205.416 52.7133 205.416 51.66C205.416 50.5933 205.663 49.6533 206.156 48.84C206.65 48.0133 207.33 47.3667 208.196 46.9C209.076 46.4333 210.076 46.2 211.196 46.2C212.236 46.2 213.15 46.4133 213.936 46.84C214.736 47.2533 215.343 47.8667 215.756 48.68L213.836 49.8C213.516 49.2933 213.123 48.92 212.656 48.68C212.203 48.44 211.71 48.32 211.176 48.32C210.563 48.32 210.01 48.4533 209.516 48.72C209.023 48.9867 208.636 49.3733 208.356 49.88C208.076 50.3733 207.936 50.9667 207.936 51.66C207.936 52.3533 208.076 52.9533 208.356 53.46C208.636 53.9533 209.023 54.3333 209.516 54.6C210.01 54.8667 210.563 55 211.176 55C211.71 55 212.203 54.88 212.656 54.64C213.123 54.4 213.516 54.0267 213.836 53.52L215.756 54.64C215.343 55.44 214.736 56.06 213.936 56.5C213.15 56.9267 212.236 57.14 211.196 57.14ZM222.074 57.14C220.901 57.14 219.994 56.84 219.354 56.24C218.714 55.6267 218.394 54.7267 218.394 53.54V43.96H220.894V53.48C220.894 53.9867 221.021 54.38 221.274 54.66C221.541 54.94 221.907 55.08 222.374 55.08C222.934 55.08 223.401 54.9333 223.774 54.64L224.474 56.42C224.181 56.66 223.821 56.84 223.394 56.96C222.967 57.08 222.527 57.14 222.074 57.14ZM216.634 48.4V46.4H223.754V48.4H216.634ZM232.298 57V43H238.058C239.298 43 240.358 43.2 241.238 43.6C242.131 44 242.818 44.5733 243.298 45.32C243.778 46.0667 244.018 46.9533 244.018 47.98C244.018 49.0067 243.778 49.8933 243.298 50.64C242.818 51.3867 242.131 51.96 241.238 52.36C240.358 52.76 239.298 52.96 238.058 52.96H233.738L234.898 51.74V57H232.298ZM234.898 52.02L233.738 50.76H237.938C239.085 50.76 239.945 50.52 240.518 50.04C241.105 49.5467 241.398 48.86 241.398 47.98C241.398 47.0867 241.105 46.4 240.518 45.92C239.945 45.44 239.085 45.2 237.938 45.2H233.738L234.898 43.92V52.02ZM246.277 57V46.32H248.657V49.26L248.377 48.4C248.697 47.68 249.197 47.1333 249.877 46.76C250.57 46.3867 251.43 46.2 252.457 46.2V48.58C252.35 48.5533 252.25 48.54 252.157 48.54C252.063 48.5267 251.97 48.52 251.877 48.52C250.93 48.52 250.177 48.8 249.617 49.36C249.057 49.9067 248.777 50.7267 248.777 51.82V57H246.277ZM254.578 57V46.32H257.078V57H254.578ZM255.838 44.56C255.371 44.56 254.984 44.4133 254.678 44.12C254.384 43.8267 254.238 43.4733 254.238 43.06C254.238 42.6333 254.384 42.28 254.678 42C254.984 41.7067 255.371 41.56 255.838 41.56C256.304 41.56 256.684 41.7 256.978 41.98C257.284 42.2467 257.438 42.5867 257.438 43C257.438 43.44 257.291 43.8133 256.998 44.12C256.704 44.4133 256.318 44.56 255.838 44.56ZM265.259 57.14C264.139 57.14 263.139 56.9067 262.259 56.44C261.392 55.96 260.712 55.3067 260.219 54.48C259.725 53.6533 259.479 52.7133 259.479 51.66C259.479 50.5933 259.725 49.6533 260.219 48.84C260.712 48.0133 261.392 47.3667 262.259 46.9C263.139 46.4333 264.139 46.2 265.259 46.2C266.299 46.2 267.212 46.4133 267.999 46.84C268.799 47.2533 269.405 47.8667 269.819 48.68L267.899 49.8C267.579 49.2933 267.185 48.92 266.719 48.68C266.265 48.44 265.772 48.32 265.239 48.32C264.625 48.32 264.072 48.4533 263.579 48.72C263.085 48.9867 262.699 49.3733 262.419 49.88C262.139 50.3733 261.999 50.9667 261.999 51.66C261.999 52.3533 262.139 52.9533 262.419 53.46C262.699 53.9533 263.085 54.3333 263.579 54.6C264.072 54.8667 264.625 55 265.239 55C265.772 55 266.265 54.88 266.719 54.64C267.185 54.4 267.579 54.0267 267.899 53.52L269.819 54.64C269.405 55.44 268.799 56.06 267.999 56.5C267.212 56.9267 266.299 57.14 265.259 57.14ZM271.882 57V46.32H274.382V57H271.882ZM273.142 44.56C272.676 44.56 272.289 44.4133 271.982 44.12C271.689 43.8267 271.542 43.4733 271.542 43.06C271.542 42.6333 271.689 42.28 271.982 42C272.289 41.7067 272.676 41.56 273.142 41.56C273.609 41.56 273.989 41.7 274.282 41.98C274.589 42.2467 274.742 42.5867 274.742 43C274.742 43.44 274.596 43.8133 274.302 44.12C274.009 44.4133 273.622 44.56 273.142 44.56ZM283.723 46.2C284.577 46.2 285.337 46.3667 286.003 46.7C286.683 47.0333 287.217 47.5467 287.603 48.24C287.99 48.92 288.183 49.8 288.183 50.88V57H285.683V51.2C285.683 50.2533 285.457 49.5467 285.003 49.08C284.563 48.6133 283.943 48.38 283.143 48.38C282.557 48.38 282.037 48.5 281.583 48.74C281.13 48.98 280.777 49.34 280.523 49.82C280.283 50.2867 280.163 50.88 280.163 51.6V57H277.663V46.32H280.043V49.2L279.623 48.32C279.997 47.64 280.537 47.12 281.243 46.76C281.963 46.3867 282.79 46.2 283.723 46.2ZM296.214 61.02C295.228 61.02 294.261 60.8867 293.314 60.62C292.381 60.3667 291.614 59.9933 291.014 59.5L292.134 57.62C292.601 58.0067 293.188 58.3133 293.894 58.54C294.614 58.78 295.341 58.9 296.074 58.9C297.248 58.9 298.108 58.6267 298.654 58.08C299.201 57.5467 299.474 56.74 299.474 55.66V53.76L299.674 51.34L299.594 48.92V46.32H301.974V55.38C301.974 57.3133 301.481 58.7333 300.494 59.64C299.508 60.56 298.081 61.02 296.214 61.02ZM295.894 56.52C294.881 56.52 293.961 56.3067 293.134 55.88C292.321 55.44 291.674 54.8333 291.194 54.06C290.728 53.2867 290.494 52.38 290.494 51.34C290.494 50.3133 290.728 49.4133 291.194 48.64C291.674 47.8667 292.321 47.2667 293.134 46.84C293.961 46.4133 294.881 46.2 295.894 46.2C296.801 46.2 297.614 46.38 298.334 46.74C299.054 47.1 299.628 47.66 300.054 48.42C300.494 49.18 300.714 50.1533 300.714 51.34C300.714 52.5267 300.494 53.5067 300.054 54.28C299.628 55.04 299.054 55.6067 298.334 55.98C297.614 56.34 296.801 56.52 295.894 56.52ZM296.274 54.4C296.901 54.4 297.461 54.2733 297.954 54.02C298.448 53.7533 298.828 53.3933 299.094 52.94C299.374 52.4733 299.514 51.94 299.514 51.34C299.514 50.74 299.374 50.2133 299.094 49.76C298.828 49.2933 298.448 48.94 297.954 48.7C297.461 48.4467 296.901 48.32 296.274 48.32C295.648 48.32 295.081 48.4467 294.574 48.7C294.081 48.94 293.694 49.2933 293.414 49.76C293.148 50.2133 293.014 50.74 293.014 51.34C293.014 51.94 293.148 52.4733 293.414 52.94C293.694 53.3933 294.081 53.7533 294.574 54.02C295.081 54.2733 295.648 54.4 296.274 54.4ZM309.048 57L315.348 43H317.908L324.228 57H321.508L316.088 44.38H317.128L311.728 57H309.048ZM311.948 53.76L312.648 51.72H320.208L320.908 53.76H311.948ZM331.829 46.2C332.682 46.2 333.442 46.3667 334.109 46.7C334.789 47.0333 335.322 47.5467 335.709 48.24C336.096 48.92 336.289 49.8 336.289 50.88V57H333.789V51.2C333.789 50.2533 333.562 49.5467 333.109 49.08C332.669 48.6133 332.049 48.38 331.249 48.38C330.662 48.38 330.142 48.5 329.689 48.74C329.236 48.98 328.882 49.34 328.629 49.82C328.389 50.2867 328.269 50.88 328.269 51.6V57H325.769V46.32H328.149V49.2L327.729 48.32C328.102 47.64 328.642 47.12 329.349 46.76C330.069 46.3867 330.896 46.2 331.829 46.2ZM346.04 57V54.84L345.9 54.38V50.6C345.9 49.8667 345.68 49.3 345.24 48.9C344.8 48.4867 344.134 48.28 343.24 48.28C342.64 48.28 342.047 48.3733 341.46 48.56C340.887 48.7467 340.4 49.0067 340 49.34L339.02 47.52C339.594 47.08 340.274 46.7533 341.06 46.54C341.86 46.3133 342.687 46.2 343.54 46.2C345.087 46.2 346.28 46.5733 347.12 47.32C347.974 48.0533 348.4 49.1933 348.4 50.74V57H346.04ZM342.68 57.14C341.88 57.14 341.18 57.0067 340.58 56.74C339.98 56.46 339.514 56.08 339.18 55.6C338.86 55.1067 338.7 54.5533 338.7 53.94C338.7 53.34 338.84 52.8 339.12 52.32C339.414 51.84 339.887 51.46 340.54 51.18C341.194 50.9 342.06 50.76 343.14 50.76H346.24V52.42H343.32C342.467 52.42 341.894 52.56 341.6 52.84C341.307 53.1067 341.16 53.44 341.16 53.84C341.16 54.2933 341.34 54.6533 341.7 54.92C342.06 55.1867 342.56 55.32 343.2 55.32C343.814 55.32 344.36 55.18 344.84 54.9C345.334 54.62 345.687 54.2067 345.9 53.66L346.32 55.16C346.08 55.7867 345.647 56.2733 345.02 56.62C344.407 56.9667 343.627 57.14 342.68 57.14ZM351.609 57V42.16H354.109V57H351.609ZM358.27 61.02C357.75 61.02 357.23 60.9333 356.71 60.76C356.19 60.5867 355.757 60.3467 355.41 60.04L356.41 58.2C356.663 58.4267 356.95 58.6067 357.27 58.74C357.59 58.8733 357.917 58.94 358.25 58.94C358.703 58.94 359.07 58.8267 359.35 58.6C359.63 58.3733 359.89 57.9933 360.13 57.46L360.75 56.06L360.95 55.76L364.99 46.32H367.39L362.39 57.86C362.057 58.66 361.683 59.2933 361.27 59.76C360.87 60.2267 360.417 60.5533 359.91 60.74C359.417 60.9267 358.87 61.02 358.27 61.02ZM360.47 57.38L355.65 46.32H358.25L362.17 55.54L360.47 57.38ZM372.116 57.14C371.222 57.14 370.362 57.0267 369.536 56.8C368.722 56.56 368.076 56.2733 367.596 55.94L368.556 54.04C369.036 54.3467 369.609 54.6 370.276 54.8C370.942 55 371.609 55.1 372.276 55.1C373.062 55.1 373.629 54.9933 373.976 54.78C374.336 54.5667 374.516 54.28 374.516 53.92C374.516 53.6267 374.396 53.4067 374.156 53.26C373.916 53.1 373.602 52.98 373.216 52.9C372.829 52.82 372.396 52.7467 371.916 52.68C371.449 52.6133 370.976 52.5267 370.496 52.42C370.029 52.3 369.602 52.1333 369.216 51.92C368.829 51.6933 368.516 51.3933 368.276 51.02C368.036 50.6467 367.916 50.1533 367.916 49.54C367.916 48.86 368.109 48.2733 368.496 47.78C368.882 47.2733 369.422 46.8867 370.116 46.62C370.822 46.34 371.656 46.2 372.616 46.2C373.336 46.2 374.062 46.28 374.796 46.44C375.529 46.6 376.136 46.8267 376.616 47.12L375.656 49.02C375.149 48.7133 374.636 48.5067 374.116 48.4C373.609 48.28 373.102 48.22 372.596 48.22C371.836 48.22 371.269 48.3333 370.896 48.56C370.536 48.7867 370.356 49.0733 370.356 49.42C370.356 49.74 370.476 49.98 370.716 50.14C370.956 50.3 371.269 50.4267 371.656 50.52C372.042 50.6133 372.469 50.6933 372.936 50.76C373.416 50.8133 373.889 50.9 374.356 51.02C374.822 51.14 375.249 51.3067 375.636 51.52C376.036 51.72 376.356 52.0067 376.596 52.38C376.836 52.7533 376.956 53.24 376.956 53.84C376.956 54.5067 376.756 55.0867 376.356 55.58C375.969 56.0733 375.416 56.46 374.696 56.74C373.976 57.0067 373.116 57.14 372.116 57.14ZM379.109 57V46.32H381.609V57H379.109ZM380.369 44.56C379.902 44.56 379.515 44.4133 379.209 44.12C378.915 43.8267 378.769 43.4733 378.769 43.06C378.769 42.6333 378.915 42.28 379.209 42C379.515 41.7067 379.902 41.56 380.369 41.56C380.835 41.56 381.215 41.7 381.509 41.98C381.815 42.2467 381.969 42.5867 381.969 43C381.969 43.44 381.822 43.8133 381.529 44.12C381.235 44.4133 380.849 44.56 380.369 44.56ZM388.19 57.14C387.297 57.14 386.437 57.0267 385.61 56.8C384.797 56.56 384.15 56.2733 383.67 55.94L384.63 54.04C385.11 54.3467 385.683 54.6 386.35 54.8C387.017 55 387.683 55.1 388.35 55.1C389.137 55.1 389.703 54.9933 390.05 54.78C390.41 54.5667 390.59 54.28 390.59 53.92C390.59 53.6267 390.47 53.4067 390.23 53.26C389.99 53.1 389.677 52.98 389.29 52.9C388.903 52.82 388.47 52.7467 387.99 52.68C387.523 52.6133 387.05 52.5267 386.57 52.42C386.103 52.3 385.677 52.1333 385.29 51.92C384.903 51.6933 384.59 51.3933 384.35 51.02C384.11 50.6467 383.99 50.1533 383.99 49.54C383.99 48.86 384.183 48.2733 384.57 47.78C384.957 47.2733 385.497 46.8867 386.19 46.62C386.897 46.34 387.73 46.2 388.69 46.2C389.41 46.2 390.137 46.28 390.87 46.44C391.603 46.6 392.21 46.8267 392.69 47.12L391.73 49.02C391.223 48.7133 390.71 48.5067 390.19 48.4C389.683 48.28 389.177 48.22 388.67 48.22C387.91 48.22 387.343 48.3333 386.97 48.56C386.61 48.7867 386.43 49.0733 386.43 49.42C386.43 49.74 386.55 49.98 386.79 50.14C387.03 50.3 387.343 50.4267 387.73 50.52C388.117 50.6133 388.543 50.6933 389.01 50.76C389.49 50.8133 389.963 50.9 390.43 51.02C390.897 51.14 391.323 51.3067 391.71 51.52C392.11 51.72 392.43 52.0067 392.67 52.38C392.91 52.7533 393.03 53.24 393.03 53.84C393.03 54.5067 392.83 55.0867 392.43 55.58C392.043 56.0733 391.49 56.46 390.77 56.74C390.05 57.0067 389.19 57.14 388.19 57.14Z" fill="#212121"/>
<path d="M210 116L210 295" stroke="#A8ABAC" stroke-linecap="round" stroke-dasharray="4 4"/>
<path d="M265 116L265 295" stroke="#A8ABAC" stroke-linecap="round" stroke-dasharray="4 4"/>
<path d="M321 116L321 295" stroke="#A8ABAC" stroke-linecap="round" stroke-dasharray="4 4"/>
<path d="M378 116L378 295" stroke="#A8ABAC" stroke-linecap="round" stroke-dasharray="4 4"/>
<path d="M434 116L434 295" stroke="#A8ABAC" stroke-linecap="round" stroke-dasharray="4 4"/>
<path d="M491 116L491 295" stroke="#A8ABAC" stroke-linecap="round" stroke-dasharray="4 4"/>
<path d="M548 116L548 295" stroke="#A8ABAC" stroke-linecap="round" stroke-dasharray="4 4"/>
<path d="M605 116L605 295" stroke="#A8ABAC" stroke-linecap="round" stroke-dasharray="4 4"/>
<path d="M662 116L662 295" stroke="#A8ABAC" stroke-linecap="round" stroke-dasharray="4 4"/>
<path d="M721 116L721 295" stroke="#A8ABAC" stroke-linecap="round" stroke-dasharray="4 4"/>
<path d="M189 251C189 248.239 191.239 246 194 246C196.761 246 199 248.239 199 251V296H189V251Z" fill="url(#paint0_linear_451_887)"/>
<rect x="189" y="207" width="10" height="26" rx="5" fill="#D6572D"/>
<rect x="221" y="207" width="10" height="36" rx="5" fill="#3ECD72"/>
<rect x="243" y="188" width="10" height="20" rx="5" fill="#D6572D"/>
<rect x="277" y="198" width="10" height="36" rx="5" fill="#D6572D"/>
<rect x="299" y="258" width="10" height="16" rx="5" fill="#3ECD72"/>
<rect x="333" y="186" width="10" height="20" rx="5" fill="#3ECD72"/>
<rect x="355" y="226" width="10" height="32" rx="5" fill="#3ECD72"/>
<rect x="390" y="171" width="10" height="58" rx="5" fill="#3ECD72"/>
<rect x="412" y="193" width="10" height="26" rx="5" fill="#3ECD72"/>
<rect x="447" y="151" width="10" height="53" rx="5" fill="#3ECD72"/>
<rect x="469" y="162" width="10" height="23" rx="5" fill="#3ECD72"/>
<rect x="504" y="168" width="10" height="38" rx="5" fill="#D6572D"/>
<rect x="526" y="200" width="10" height="24" rx="5" fill="#D6572D"/>
<rect x="560" y="153" width="10" height="24" rx="5" fill="#3ECD72"/>
<rect x="582" y="140" width="10" height="58" rx="5" fill="#3ECD72"/>
<rect x="617" y="175" width="10" height="58" rx="5" fill="#3ECD72"/>
<rect x="639" y="104" width="10" height="65" rx="5" fill="#3ECD72"/>
<rect x="676" y="223" width="10" height="29" rx="5" fill="#3ECD72"/>
<rect x="698" y="174" width="10" height="50" rx="5" fill="#3ECD72"/>
<rect x="735" y="150" width="10" height="74" rx="5" fill="#3ECD72"/>
<rect x="193" y="200" width="2" height="40" rx="1" fill="#D6572D"/>
<rect x="225" y="198" width="2" height="54" rx="1" fill="#3ECD72"/>
<rect x="247" y="183" width="2" height="30" rx="1" fill="#D6572D"/>
<rect x="281" y="189" width="2" height="54" rx="1" fill="#D6572D"/>
<rect x="303" y="250" width="2" height="28" rx="1" fill="#3ECD72"/>
<rect x="337" y="181" width="2" height="30" rx="1" fill="#3ECD72"/>
<rect x="359" y="218" width="2" height="48" rx="1" fill="#3ECD72"/>
<rect x="394" y="156" width="2" height="88" rx="1" fill="#3ECD72"/>
<rect x="416" y="186" width="2" height="40" rx="1" fill="#3ECD72"/>
<rect x="451" y="136" width="2" height="83" rx="1" fill="#3ECD72"/>
<rect x="473" y="155" width="2" height="37" rx="1" fill="#3ECD72"/>
<rect x="508" y="156" width="2" height="62" rx="1" fill="#D6572D"/>
<rect x="530" y="192" width="2" height="40" rx="1" fill="#D6572D"/>
<rect x="564" y="145" width="2" height="40" rx="1" fill="#3ECD72"/>
<rect x="586" y="132" width="2" height="77" rx="1" fill="#3ECD72"/>
<rect x="621" y="167" width="2" height="77" rx="1" fill="#3ECD72"/>
<rect x="643" y="95" width="2" height="86" rx="1" fill="#3ECD72"/>
<rect x="680" y="219" width="2" height="38" rx="1" fill="#3ECD72"/>
<rect x="702" y="167" width="2" height="66" rx="1" fill="#3ECD72"/>
<rect x="739" y="140" width="2" height="97" rx="1" fill="#3ECD72"/>
<path d="M221 264C221 261.239 223.239 259 226 259C228.761 259 231 261.239 231 264V296H221V264Z" fill="url(#paint1_linear_451_887)"/>
<path d="M277 255C277 252.239 279.239 250 282 250C284.761 250 287 252.239 287 255V296H277V255Z" fill="url(#paint2_linear_451_887)"/>
<path d="M333 223C333 220.239 335.239 218 338 218C340.761 218 343 220.239 343 223V296H333V223Z" fill="url(#paint3_linear_451_887)"/>
<path d="M390 255C390 252.239 392.239 250 395 250C397.761 250 400 252.239 400 255V296H390V255Z" fill="url(#paint4_linear_451_887)"/>
<path d="M447 232C447 229.239 449.239 227 452 227C454.761 227 457 229.239 457 232V296H447V232Z" fill="url(#paint5_linear_451_887)"/>
<path d="M504 232C504 229.239 506.239 227 509 227C511.761 227 514 229.239 514 232V296H504V232Z" fill="url(#paint6_linear_451_887)"/>
<path d="M560 202C560 199.239 562.239 197 565 197C567.761 197 570 199.239 570 202V296H560V202Z" fill="url(#paint7_linear_451_887)"/>
<path d="M617 262C617 259.239 619.239 257 622 257C624.761 257 627 259.239 627 262V296H617V262Z" fill="url(#paint8_linear_451_887)"/>
<path d="M676 268C676 265.239 678.239 263 681 263C683.761 263 686 265.239 686 268V295H676V268Z" fill="url(#paint9_linear_451_887)"/>
<path d="M243 228C243 225.239 245.239 223 248 223C250.761 223 253 225.239 253 228V296H243V228Z" fill="url(#paint10_linear_451_887)"/>
<path d="M299 288C299 285.239 301.239 283 304 283C306.761 283 309 285.239 309 288V296H299V288Z" fill="url(#paint11_linear_451_887)"/>
<path d="M355 279C355 276.239 357.239 274 360 274C362.761 274 365 276.239 365 279V296H355V279Z" fill="url(#paint12_linear_451_887)"/>
<path d="M412 238C412 235.239 414.239 233 417 233C419.761 233 422 235.239 422 238V296H412V238Z" fill="url(#paint13_linear_451_887)"/>
<path d="M469 206C469 203.239 471.239 201 474 201C476.761 201 479 203.239 479 206V296H469V206Z" fill="url(#paint14_linear_451_887)"/>
<path d="M526 247C526 244.239 528.239 242 531 242C533.761 242 536 244.239 536 247V296H526V247Z" fill="url(#paint15_linear_451_887)"/>
<path d="M582 224C582 221.239 584.239 219 587 219C589.761 219 592 221.239 592 224V296H582V224Z" fill="url(#paint16_linear_451_887)"/>
<path d="M639 194C639 191.239 641.239 189 644 189C646.761 189 649 191.239 649 194V296H639V194Z" fill="url(#paint17_linear_451_887)"/>
<path d="M698 241C698 238.239 700.239 236 703 236C705.761 236 708 238.239 708 241V295H698V241Z" fill="url(#paint18_linear_451_887)"/>
<path d="M735 247C735 244.239 737.239 242 740 242C742.761 242 745 244.239 745 247V294H735V247Z" fill="url(#paint19_linear_451_887)"/>
<path d="M189 179L745 179" stroke="#007F62" stroke-width="1.5" stroke-linecap="round" stroke-dasharray="8 8"/>
<g filter="url(#filter1_d_451_887)">
<rect x="420" y="169" width="78" height="20" rx="10" fill="#E3F1EE"/>
</g>
<path d="M444.8 184.2V174.8H445.62V184.2H444.8ZM445.11 183.1C444.563 183.1 444.04 183.023 443.54 182.87C443.04 182.71 442.643 182.507 442.35 182.26L442.8 181.25C443.08 181.47 443.427 181.653 443.84 181.8C444.253 181.947 444.677 182.02 445.11 182.02C445.477 182.02 445.773 181.98 446 181.9C446.227 181.82 446.393 181.713 446.5 181.58C446.607 181.44 446.66 181.283 446.66 181.11C446.66 180.897 446.583 180.727 446.43 180.6C446.277 180.467 446.077 180.363 445.83 180.29C445.59 180.21 445.32 180.137 445.02 180.07C444.727 180.003 444.43 179.927 444.13 179.84C443.837 179.747 443.567 179.63 443.32 179.49C443.08 179.343 442.883 179.15 442.73 178.91C442.577 178.67 442.5 178.363 442.5 177.99C442.5 177.61 442.6 177.263 442.8 176.95C443.007 176.63 443.317 176.377 443.73 176.19C444.15 175.997 444.68 175.9 445.32 175.9C445.74 175.9 446.157 175.953 446.57 176.06C446.983 176.167 447.343 176.32 447.65 176.52L447.24 177.53C446.927 177.343 446.603 177.207 446.27 177.12C445.937 177.027 445.617 176.98 445.31 176.98C444.95 176.98 444.657 177.023 444.43 177.11C444.21 177.197 444.047 177.31 443.94 177.45C443.84 177.59 443.79 177.75 443.79 177.93C443.79 178.143 443.863 178.317 444.01 178.45C444.163 178.577 444.36 178.677 444.6 178.75C444.847 178.823 445.12 178.897 445.42 178.97C445.72 179.037 446.017 179.113 446.31 179.2C446.61 179.287 446.88 179.4 447.12 179.54C447.367 179.68 447.563 179.87 447.71 180.11C447.863 180.35 447.94 180.653 447.94 181.02C447.94 181.393 447.837 181.74 447.63 182.06C447.43 182.373 447.12 182.627 446.7 182.82C446.28 183.007 445.75 183.1 445.11 183.1ZM449.751 183V176.5L450.321 177.09H448.271V176H451.051V183H449.751ZM453.61 183L456.5 176.52L456.84 177.1H452.87L453.49 176.47V178.29H452.28V176H457.72V176.87L455 183H453.61ZM461.249 183.1C460.695 183.1 460.195 182.96 459.749 182.68C459.309 182.4 458.962 181.993 458.709 181.46C458.455 180.92 458.329 180.267 458.329 179.5C458.329 178.733 458.455 178.083 458.709 177.55C458.962 177.01 459.309 176.6 459.749 176.32C460.195 176.04 460.695 175.9 461.249 175.9C461.809 175.9 462.309 176.04 462.749 176.32C463.189 176.6 463.535 177.01 463.789 177.55C464.049 178.083 464.179 178.733 464.179 179.5C464.179 180.267 464.049 180.92 463.789 181.46C463.535 181.993 463.189 182.4 462.749 182.68C462.309 182.96 461.809 183.1 461.249 183.1ZM461.249 181.97C461.575 181.97 461.859 181.883 462.099 181.71C462.339 181.53 462.525 181.257 462.659 180.89C462.799 180.523 462.869 180.06 462.869 179.5C462.869 178.933 462.799 178.47 462.659 178.11C462.525 177.743 462.339 177.473 462.099 177.3C461.859 177.12 461.575 177.03 461.249 177.03C460.935 177.03 460.655 177.12 460.409 177.3C460.169 177.473 459.979 177.743 459.839 178.11C459.705 178.47 459.639 178.933 459.639 179.5C459.639 180.06 459.705 180.523 459.839 180.89C459.979 181.257 460.169 181.53 460.409 181.71C460.655 181.883 460.935 181.97 461.249 181.97ZM465.72 183.07C465.493 183.07 465.3 182.993 465.14 182.84C464.98 182.68 464.9 182.48 464.9 182.24C464.9 181.987 464.98 181.787 465.14 181.64C465.3 181.487 465.493 181.41 465.72 181.41C465.947 181.41 466.14 181.487 466.3 181.64C466.46 181.787 466.54 181.987 466.54 182.24C466.54 182.48 466.46 182.68 466.3 182.84C466.14 182.993 465.947 183.07 465.72 183.07ZM467.389 183V182.13L470.169 179.49C470.402 179.27 470.576 179.077 470.689 178.91C470.802 178.743 470.876 178.59 470.909 178.45C470.949 178.303 470.969 178.167 470.969 178.04C470.969 177.72 470.859 177.473 470.639 177.3C470.419 177.12 470.096 177.03 469.669 177.03C469.329 177.03 469.019 177.09 468.739 177.21C468.466 177.33 468.229 177.513 468.029 177.76L467.119 177.06C467.392 176.693 467.759 176.41 468.219 176.21C468.686 176.003 469.206 175.9 469.779 175.9C470.286 175.9 470.726 175.983 471.099 176.15C471.479 176.31 471.769 176.54 471.969 176.84C472.176 177.14 472.279 177.497 472.279 177.91C472.279 178.137 472.249 178.363 472.189 178.59C472.129 178.81 472.016 179.043 471.849 179.29C471.682 179.537 471.439 179.813 471.119 180.12L468.729 182.39L468.459 181.9H472.549V183H467.389ZM474.419 183V176.5L474.989 177.09H472.939V176H475.719V183H474.419Z" fill="#007F62"/>
<g filter="url(#filter2_d_451_887)">
<rect x="578" y="269" width="226" height="149" rx="4" fill="#F5F5F5"/>
</g>
<rect x="586" y="295" width="210" height="114" rx="2" fill="white"/>
<circle cx="590" cy="281" r="2" fill="#FF5B5B"/>
<circle cx="597" cy="281" r="2" fill="#FFDC5F"/>
<circle cx="604" cy="281" r="2" fill="#7DFDA0"/>
<rect x="594" y="307" width="50" height="3" rx="1.5" fill="#E7EBEE"/>
<rect x="594" y="314" width="50" height="3" rx="1.5" fill="#E7EBEE"/>
<rect x="712" y="313" width="76" height="6" rx="3" fill="#E7EBEE"/>
<rect x="594" y="321" width="35" height="3" rx="1.5" fill="#E7EBEE"/>
<rect x="594" y="334" width="33" height="30" rx="2" fill="#D6572D"/>
<rect x="594" y="371" width="33" height="30" rx="2" fill="#E7EBEE"/>
<rect x="634" y="334" width="34" height="30" rx="2" fill="#E7EBEE"/>
<rect x="634" y="371" width="34" height="30" rx="2" fill="#E7EBEE"/>
<rect x="674" y="334" width="34" height="30" rx="2" fill="#E7EBEE"/>
<rect x="674" y="371" width="34" height="30" rx="2" fill="#E7EBEE"/>
<rect x="714" y="334" width="34" height="30" rx="2" fill="#E7EBEE"/>
<rect x="714" y="371" width="34" height="30" rx="2" fill="#E7EBEE"/>
<rect x="755" y="334" width="33" height="30" rx="2" fill="#E7EBEE"/>
<rect x="755" y="371" width="33" height="30" rx="2" fill="#E7EBEE"/>
<g filter="url(#filter3_d_451_887)">
<rect x="731" y="344" width="82" height="82" rx="4" fill="white"/>
</g>
<rect x="739" y="352" width="50" height="5" rx="2.5" fill="#E7EBEE"/>
<rect x="739" y="360" width="27" height="5" rx="2.5" fill="#E7EBEE"/>
<rect x="791" y="417" width="14" height="3" rx="1.5" fill="#E7EBEE"/>
<rect x="802" y="353" width="3" height="3" rx="1.5" fill="#E7EBEE"/>
<rect x="761" y="376" width="16" height="44" rx="8" transform="rotate(-30 761 376)" fill="#3ECD72" fill-opacity="0.7"/>
<rect x="769" y="368" width="16" height="44" rx="8" transform="rotate(30 769 368)" fill="#D6572D" fill-opacity="0.7"/>
<g filter="url(#filter4_d_451_887)">
<rect x="89" y="169" width="86" height="86" rx="8" fill="white"/>
</g>
<path d="M110.388 208.25V201.95H111.886V208.25H110.388ZM107.91 205.8V204.4H114.364V205.8H107.91ZM118.68 210.14C117.99 210.14 117.313 210.042 116.65 209.846C115.997 209.641 115.446 209.361 114.998 209.006L115.782 207.592C116.137 207.881 116.566 208.115 117.07 208.292C117.574 208.469 118.102 208.558 118.652 208.558C119.306 208.558 119.814 208.427 120.178 208.166C120.542 207.895 120.724 207.531 120.724 207.074C120.724 206.626 120.556 206.271 120.22 206.01C119.884 205.749 119.343 205.618 118.596 205.618H117.7V204.372L120.5 201.04L120.738 201.726H115.474V200.2H122.152V201.418L119.352 204.75L118.4 204.19H118.946C120.15 204.19 121.051 204.461 121.648 205.002C122.255 205.534 122.558 206.22 122.558 207.06C122.558 207.611 122.418 208.119 122.138 208.586C121.858 209.053 121.429 209.431 120.85 209.72C120.281 210 119.558 210.14 118.68 210.14ZM127.683 210.14C126.871 210.14 126.166 210.019 125.569 209.776C124.971 209.533 124.509 209.193 124.183 208.754C123.856 208.306 123.693 207.783 123.693 207.186C123.693 206.589 123.851 206.085 124.169 205.674C124.486 205.263 124.943 204.951 125.541 204.736C126.138 204.521 126.852 204.414 127.683 204.414C128.513 204.414 129.227 204.521 129.825 204.736C130.431 204.951 130.893 205.268 131.211 205.688C131.537 206.099 131.701 206.598 131.701 207.186C131.701 207.783 131.533 208.306 131.197 208.754C130.87 209.193 130.403 209.533 129.797 209.776C129.199 210.019 128.495 210.14 127.683 210.14ZM127.683 208.712C128.355 208.712 128.887 208.572 129.279 208.292C129.671 208.012 129.867 207.625 129.867 207.13C129.867 206.645 129.671 206.262 129.279 205.982C128.887 205.702 128.355 205.562 127.683 205.562C127.011 205.562 126.483 205.702 126.101 205.982C125.718 206.262 125.527 206.645 125.527 207.13C125.527 207.625 125.718 208.012 126.101 208.292C126.483 208.572 127.011 208.712 127.683 208.712ZM127.683 205.366C126.927 205.366 126.278 205.268 125.737 205.072C125.195 204.867 124.775 204.573 124.477 204.19C124.187 203.798 124.043 203.331 124.043 202.79C124.043 202.23 124.192 201.749 124.491 201.348C124.799 200.937 125.228 200.62 125.779 200.396C126.329 200.172 126.964 200.06 127.683 200.06C128.411 200.06 129.05 200.172 129.601 200.396C130.151 200.62 130.581 200.937 130.889 201.348C131.197 201.749 131.351 202.23 131.351 202.79C131.351 203.331 131.201 203.798 130.903 204.19C130.613 204.573 130.193 204.867 129.643 205.072C129.092 205.268 128.439 205.366 127.683 205.366ZM127.683 204.246C128.261 204.246 128.719 204.125 129.055 203.882C129.391 203.63 129.559 203.294 129.559 202.874C129.559 202.435 129.386 202.095 129.041 201.852C128.695 201.609 128.243 201.488 127.683 201.488C127.123 201.488 126.675 201.609 126.339 201.852C126.003 202.095 125.835 202.435 125.835 202.874C125.835 203.294 125.998 203.63 126.325 203.882C126.661 204.125 127.113 204.246 127.683 204.246ZM133.088 212.114L133.9 209.02L134.138 210.056C133.812 210.056 133.536 209.958 133.312 209.762C133.098 209.557 132.99 209.281 132.99 208.936C132.99 208.581 133.098 208.301 133.312 208.096C133.536 207.881 133.807 207.774 134.124 207.774C134.451 207.774 134.722 207.881 134.936 208.096C135.151 208.311 135.258 208.591 135.258 208.936C135.258 209.029 135.249 209.132 135.23 209.244C135.212 209.347 135.179 209.468 135.132 209.608C135.095 209.748 135.03 209.925 134.936 210.14L134.222 212.114H133.088ZM136.242 207.774V206.514L141.072 200.2H143.018L138.258 206.514L137.348 206.234H145.118V207.774H136.242ZM141.618 210V207.774L141.674 206.234V204.26H143.382V210H141.618ZM146.832 210L153.524 200.2H154.896L148.204 210H146.832ZM147.644 205.478C147.186 205.478 146.78 205.366 146.426 205.142C146.071 204.918 145.796 204.605 145.6 204.204C145.404 203.803 145.306 203.331 145.306 202.79C145.306 202.249 145.404 201.777 145.6 201.376C145.796 200.975 146.071 200.662 146.426 200.438C146.78 200.214 147.186 200.102 147.644 200.102C148.12 200.102 148.53 200.214 148.876 200.438C149.23 200.662 149.506 200.975 149.702 201.376C149.898 201.777 149.996 202.249 149.996 202.79C149.996 203.331 149.898 203.803 149.702 204.204C149.506 204.605 149.23 204.918 148.876 205.142C148.53 205.366 148.12 205.478 147.644 205.478ZM147.658 204.498C148.031 204.498 148.32 204.353 148.526 204.064C148.74 203.765 148.848 203.341 148.848 202.79C148.848 202.239 148.74 201.819 148.526 201.53C148.32 201.231 148.031 201.082 147.658 201.082C147.284 201.082 146.986 201.231 146.762 201.53C146.547 201.829 146.44 202.249 146.44 202.79C146.44 203.331 146.547 203.751 146.762 204.05C146.986 204.349 147.284 204.498 147.658 204.498ZM154.07 210.098C153.612 210.098 153.206 209.986 152.852 209.762C152.497 209.538 152.222 209.225 152.026 208.824C151.83 208.423 151.732 207.951 151.732 207.41C151.732 206.869 151.83 206.397 152.026 205.996C152.222 205.595 152.497 205.282 152.852 205.058C153.206 204.834 153.612 204.722 154.07 204.722C154.546 204.722 154.956 204.834 155.302 205.058C155.656 205.282 155.932 205.595 156.128 205.996C156.324 206.397 156.422 206.869 156.422 207.41C156.422 207.951 156.324 208.423 156.128 208.824C155.932 209.225 155.656 209.538 155.302 209.762C154.956 209.986 154.546 210.098 154.07 210.098ZM154.07 209.118C154.443 209.118 154.737 208.969 154.952 208.67C155.166 208.371 155.274 207.951 155.274 207.41C155.274 206.869 155.166 206.449 154.952 206.15C154.737 205.851 154.443 205.702 154.07 205.702C153.706 205.702 153.412 205.851 153.188 206.15C152.973 206.439 152.866 206.859 152.866 207.41C152.866 207.961 152.973 208.385 153.188 208.684C153.412 208.973 153.706 209.118 154.07 209.118Z" fill="black"/>
<rect x="101" y="235" width="62" height="8" rx="4" fill="#E7EBEE"/>
<rect x="109" y="221" width="46" height="8" rx="4" fill="#E7EBEE"/>
<circle cx="101" cy="181" r="2" fill="#FF5B5B"/>
<circle cx="108" cy="181" r="2" fill="#FFDC5F"/>
<circle cx="115" cy="181" r="2" fill="#7DFDA0"/>
<g filter="url(#filter5_d_451_887)">
<rect x="723" y="169" width="86" height="86" rx="8" fill="white"/>
</g>
<path d="M754.254 195L758.3 185.928L758.776 186.74H753.218L754.086 185.858V188.406H752.392V185.2H760.008V186.418L756.2 195H754.254ZM760.078 192.774V191.514L764.908 185.2H766.854L762.094 191.514L761.184 191.234H768.954V192.774H760.078ZM765.454 195V192.774L765.51 191.234V189.26H767.218V195H765.454ZM770.668 195L777.36 185.2H778.732L772.04 195H770.668ZM771.48 190.478C771.022 190.478 770.616 190.366 770.262 190.142C769.907 189.918 769.632 189.605 769.436 189.204C769.24 188.803 769.142 188.331 769.142 187.79C769.142 187.249 769.24 186.777 769.436 186.376C769.632 185.975 769.907 185.662 770.262 185.438C770.616 185.214 771.022 185.102 771.48 185.102C771.956 185.102 772.366 185.214 772.712 185.438C773.066 185.662 773.342 185.975 773.538 186.376C773.734 186.777 773.832 187.249 773.832 187.79C773.832 188.331 773.734 188.803 773.538 189.204C773.342 189.605 773.066 189.918 772.712 190.142C772.366 190.366 771.956 190.478 771.48 190.478ZM771.494 189.498C771.867 189.498 772.156 189.353 772.362 189.064C772.576 188.765 772.684 188.341 772.684 187.79C772.684 187.239 772.576 186.819 772.362 186.53C772.156 186.231 771.867 186.082 771.494 186.082C771.12 186.082 770.822 186.231 770.598 186.53C770.383 186.829 770.276 187.249 770.276 187.79C770.276 188.331 770.383 188.751 770.598 189.05C770.822 189.349 771.12 189.498 771.494 189.498ZM777.906 195.098C777.448 195.098 777.042 194.986 776.688 194.762C776.333 194.538 776.058 194.225 775.862 193.824C775.666 193.423 775.568 192.951 775.568 192.41C775.568 191.869 775.666 191.397 775.862 190.996C776.058 190.595 776.333 190.282 776.688 190.058C777.042 189.834 777.448 189.722 777.906 189.722C778.382 189.722 778.792 189.834 779.138 190.058C779.492 190.282 779.768 190.595 779.964 190.996C780.16 191.397 780.258 191.869 780.258 192.41C780.258 192.951 780.16 193.423 779.964 193.824C779.768 194.225 779.492 194.538 779.138 194.762C778.792 194.986 778.382 195.098 777.906 195.098ZM777.906 194.118C778.279 194.118 778.573 193.969 778.788 193.67C779.002 193.371 779.11 192.951 779.11 192.41C779.11 191.869 779.002 191.449 778.788 191.15C778.573 190.851 778.279 190.702 777.906 190.702C777.542 190.702 777.248 190.851 777.024 191.15C776.809 191.439 776.702 191.859 776.702 192.41C776.702 192.961 776.809 193.385 777.024 193.684C777.248 193.973 777.542 194.118 777.906 194.118Z" fill="black"/>
<rect x="735" y="205" width="62" height="5" rx="2.5" fill="#E7EBEE"/>
<rect x="743" y="215" width="46" height="5" rx="2.5" fill="#E7EBEE"/>
<rect x="740" y="237" width="8" height="3" rx="1.5" transform="rotate(90 740 237)" fill="url(#paint20_linear_451_887)"/>
<rect x="746" y="232" width="13" height="3" rx="1.5" transform="rotate(90 746 232)" fill="url(#paint21_linear_451_887)"/>
<rect x="752" y="234" width="11" height="3" rx="1.5" transform="rotate(90 752 234)" fill="url(#paint22_linear_451_887)"/>
<rect x="758" y="229" width="16" height="3" rx="1.5" transform="rotate(90 758 229)" fill="url(#paint23_linear_451_887)"/>
<rect x="764" y="234" width="11" height="3" rx="1.5" transform="rotate(90 764 234)" fill="url(#paint24_linear_451_887)"/>
<rect x="770" y="232" width="13" height="3" rx="1.5" transform="rotate(90 770 232)" fill="url(#paint25_linear_451_887)"/>
<rect x="776" y="237" width="8" height="3" rx="1.5" transform="rotate(90 776 237)" fill="url(#paint26_linear_451_887)"/>
<rect x="782" y="233" width="12" height="3" rx="1.5" transform="rotate(90 782 233)" fill="url(#paint27_linear_451_887)"/>
<rect x="788" y="230" width="15" height="3" rx="1.5" transform="rotate(90 788 230)" fill="url(#paint28_linear_451_887)"/>
<rect x="794" y="235" width="10" height="3" rx="1.5" transform="rotate(90 794 235)" fill="url(#paint29_linear_451_887)"/>
<g filter="url(#filter6_d_451_887)">
<rect x="45" y="269" width="226" height="149" rx="4" fill="#F5F5F5"/>
</g>
<rect x="53" y="295" width="210" height="114" rx="2" fill="white"/>
<circle cx="57" cy="281" r="2" fill="#FF5B5B"/>
<circle cx="64" cy="281" r="2" fill="#FFDC5F"/>
<circle cx="71" cy="281" r="2" fill="#7DFDA0"/>
<rect x="61" y="303" width="194" height="98" rx="2" fill="#D7F5E2"/>
<rect x="61" y="371" width="33" height="30" rx="2" fill="#E7EBEE"/>
<path d="M75 380L76.1528 373.034C77.3056 366.069 79.6111 352.137 81.9167 349.913C84.2222 347.689 86.5278 357.172 88.8333 354.545C91.1389 351.917 93.4444 337.18 95.75 338.84C98.0556 340.5 100.361 358.559 102.667 365.284C104.972 372.009 107.278 367.402 109.583 357.016C111.889 346.631 114.194 330.468 116.5 327.087C118.806 323.706 121.111 333.106 123.417 338.126C125.722 343.146 128.028 343.785 130.333 344.877C132.639 345.969 134.944 347.513 137.25 350.441C139.556 353.368 141.861 357.68 144.167 356.434C146.472 355.188 148.778 348.384 151.083 349.816C153.389 351.248 155.694 360.915 158 366.357C160.306 371.799 162.611 373.016 164.917 372.377C167.222 371.737 169.528 369.242 171.833 369.499C174.139 369.755 176.444 372.764 178.75 370.915C181.056 369.067 183.361 362.361 185.667 356.39C187.972 350.419 190.278 345.182 192.583 347.666C194.889 350.15 197.194 360.353 199.5 360.099C201.806 359.845 204.111 349.133 206.417 343.989C208.722 338.844 211.028 339.268 213.333 335.88C215.639 332.492 217.944 325.292 220.25 327.426C222.556 329.56 224.861 341.028 227.167 339.627C229.472 338.226 231.778 323.957 234.083 326.248C236.389 328.539 238.694 347.39 239.847 356.816L241 366.241" stroke="#D6572D"/>
<path d="M86 389L87.3596 380.116C88.7193 371.233 91.4386 353.466 94.1579 350.479C96.8772 347.493 99.5965 359.287 102.316 355.792C105.035 352.296 107.754 333.511 110.474 335.429C113.193 337.347 115.912 359.968 118.632 368.281C121.351 376.593 124.07 370.598 126.789 357.307C129.509 344.017 132.228 323.433 134.947 318.986C137.667 314.538 140.386 326.228 143.105 332.388C145.825 338.547 148.544 339.176 151.263 340.376C153.982 341.576 156.702 343.347 159.421 346.866C162.14 350.384 164.86 355.649 167.579 353.897C170.298 352.145 173.018 343.377 175.737 345.007C178.456 346.636 181.175 358.663 183.895 365.355C186.614 372.048 189.333 373.406 192.053 372.421C194.772 371.435 197.491 368.107 200.211 368.252C202.93 368.398 205.649 372.018 208.368 369.506C211.088 366.993 213.807 358.349 216.526 350.632C219.246 342.915 221.965 336.125 224.684 339.083C227.404 342.04 230.123 354.745 232.842 354.245C235.561 353.746 238.281 340.043 239.64 333.192L241 326.34" stroke="#007F62"/>
<g filter="url(#filter7_d_451_887)">
<rect x="37" y="344" width="82" height="82" rx="4" fill="white"/>
</g>
<rect x="45" y="352" width="50" height="5" rx="2.5" fill="#E7EBEE"/>
<rect x="45" y="360" width="27" height="5" rx="2.5" fill="#E7EBEE"/>
<rect x="97" y="417" width="14" height="3" rx="1.5" fill="#E7EBEE"/>
<rect x="108" y="353" width="3" height="3" rx="1.5" fill="#E7EBEE"/>
<path d="M78.7918 404.419C78.836 405.28 79.5714 405.949 80.4243 405.826C83.3559 405.404 86.136 404.221 88.482 402.384C91.2388 400.225 93.2616 397.267 94.2739 393.915C95.2863 390.562 95.2387 386.979 94.1378 383.655C93.0369 380.331 90.9363 377.428 88.1232 375.343C85.3101 373.258 81.9217 372.092 78.421 372.005C74.9204 371.918 71.4784 372.915 68.5654 374.858C65.6525 376.801 63.4107 379.597 62.1464 382.862C61.0706 385.641 60.7474 388.645 61.1956 391.573C61.3261 392.425 62.1802 392.934 63.0165 392.726V392.726C63.8528 392.518 64.3528 391.671 64.24 390.817C63.9363 388.517 64.2131 386.168 65.0567 383.989C66.0889 381.323 67.9191 379.041 70.2973 377.454C72.6756 375.868 75.4857 375.054 78.3437 375.125C81.2017 375.196 83.9681 376.148 86.2648 377.85C88.5615 379.552 90.2765 381.923 91.1753 384.636C92.0741 387.35 92.1129 390.276 91.2864 393.012C90.4599 395.749 88.8085 398.164 86.5577 399.927C84.7181 401.368 82.5514 402.315 80.2623 402.694C79.4121 402.834 78.7476 403.559 78.7918 404.419V404.419Z" fill="#D6572D"/>
<path d="M70.288 392L72.6 386.816L72.872 387.28H69.696L70.192 386.776V388.232H69.224V386.4H73.576V387.096L71.4 392H70.288ZM76.3266 392.08C75.8626 392.08 75.4599 392.011 75.1186 391.872C74.7772 391.733 74.5132 391.539 74.3266 391.288C74.1399 391.032 74.0466 390.733 74.0466 390.392C74.0466 390.051 74.1372 389.763 74.3186 389.528C74.4999 389.293 74.7612 389.115 75.1026 388.992C75.4439 388.869 75.8519 388.808 76.3266 388.808C76.8012 388.808 77.2092 388.869 77.5506 388.992C77.8972 389.115 78.1612 389.296 78.3426 389.536C78.5292 389.771 78.6226 390.056 78.6226 390.392C78.6226 390.733 78.5266 391.032 78.3346 391.288C78.1479 391.539 77.8812 391.733 77.5346 391.872C77.1932 392.011 76.7906 392.08 76.3266 392.08ZM76.3266 391.264C76.7106 391.264 77.0146 391.184 77.2386 391.024C77.4626 390.864 77.5746 390.643 77.5746 390.36C77.5746 390.083 77.4626 389.864 77.2386 389.704C77.0146 389.544 76.7106 389.464 76.3266 389.464C75.9426 389.464 75.6412 389.544 75.4226 389.704C75.2039 389.864 75.0946 390.083 75.0946 390.36C75.0946 390.643 75.2039 390.864 75.4226 391.024C75.6412 391.184 75.9426 391.264 76.3266 391.264ZM76.3266 389.352C75.8946 389.352 75.5239 389.296 75.2146 389.184C74.9052 389.067 74.6652 388.899 74.4946 388.68C74.3292 388.456 74.2466 388.189 74.2466 387.88C74.2466 387.56 74.3319 387.285 74.5026 387.056C74.6786 386.821 74.9239 386.64 75.2386 386.512C75.5532 386.384 75.9159 386.32 76.3266 386.32C76.7426 386.32 77.1079 386.384 77.4226 386.512C77.7372 386.64 77.9826 386.821 78.1586 387.056C78.3346 387.285 78.4226 387.56 78.4226 387.88C78.4226 388.189 78.3372 388.456 78.1666 388.68C78.0012 388.899 77.7612 389.067 77.4466 389.184C77.1319 389.296 76.7586 389.352 76.3266 389.352ZM76.3266 388.712C76.6572 388.712 76.9186 388.643 77.1106 388.504C77.3026 388.36 77.3986 388.168 77.3986 387.928C77.3986 387.677 77.2999 387.483 77.1026 387.344C76.9052 387.205 76.6466 387.136 76.3266 387.136C76.0066 387.136 75.7506 387.205 75.5586 387.344C75.3666 387.483 75.2706 387.677 75.2706 387.928C75.2706 388.168 75.3639 388.36 75.5506 388.504C75.7426 388.643 76.0012 388.712 76.3266 388.712ZM80.0032 392L83.8272 386.4H84.6112L80.7872 392H80.0032ZM80.4672 389.416C80.2059 389.416 79.9739 389.352 79.7712 389.224C79.5685 389.096 79.4112 388.917 79.2992 388.688C79.1872 388.459 79.1312 388.189 79.1312 387.88C79.1312 387.571 79.1872 387.301 79.2992 387.072C79.4112 386.843 79.5685 386.664 79.7712 386.536C79.9739 386.408 80.2059 386.344 80.4672 386.344C80.7392 386.344 80.9739 386.408 81.1712 386.536C81.3739 386.664 81.5312 386.843 81.6432 387.072C81.7552 387.301 81.8112 387.571 81.8112 387.88C81.8112 388.189 81.7552 388.459 81.6432 388.688C81.5312 388.917 81.3739 389.096 81.1712 389.224C80.9739 389.352 80.7392 389.416 80.4672 389.416ZM80.4752 388.856C80.6885 388.856 80.8539 388.773 80.9712 388.608C81.0939 388.437 81.1552 388.195 81.1552 387.88C81.1552 387.565 81.0939 387.325 80.9712 387.16C80.8539 386.989 80.6885 386.904 80.4752 386.904C80.2619 386.904 80.0912 386.989 79.9632 387.16C79.8405 387.331 79.7792 387.571 79.7792 387.88C79.7792 388.189 79.8405 388.429 79.9632 388.6C80.0912 388.771 80.2619 388.856 80.4752 388.856ZM84.1392 392.056C83.8779 392.056 83.6459 391.992 83.4432 391.864C83.2405 391.736 83.0832 391.557 82.9712 391.328C82.8592 391.099 82.8032 390.829 82.8032 390.52C82.8032 390.211 82.8592 389.941 82.9712 389.712C83.0832 389.483 83.2405 389.304 83.4432 389.176C83.6459 389.048 83.8779 388.984 84.1392 388.984C84.4112 388.984 84.6459 389.048 84.8432 389.176C85.0459 389.304 85.2032 389.483 85.3152 389.712C85.4272 389.941 85.4832 390.211 85.4832 390.52C85.4832 390.829 85.4272 391.099 85.3152 391.328C85.2032 391.557 85.0459 391.736 84.8432 391.864C84.6459 391.992 84.4112 392.056 84.1392 392.056ZM84.1392 391.496C84.3525 391.496 84.5205 391.411 84.6432 391.24C84.7659 391.069 84.8272 390.829 84.8272 390.52C84.8272 390.211 84.7659 389.971 84.6432 389.8C84.5205 389.629 84.3525 389.544 84.1392 389.544C83.9312 389.544 83.7632 389.629 83.6352 389.8C83.5125 389.965 83.4512 390.205 83.4512 390.52C83.4512 390.835 83.5125 391.077 83.6352 391.248C83.7632 391.413 83.9312 391.496 84.1392 391.496Z" fill="#212121"/>
<rect x="177" y="318" width="12" height="71" rx="2" fill="url(#paint30_linear_451_887)"/>
<circle cx="183" cy="364" r="2.5" fill="white" stroke="#017F62"/>
<defs>
<filter id="filter0_d_451_887" x="102" y="6" width="700" height="356" filterUnits="userSpaceOnUse" color-interpolation-filters="sRGB">
<feFlood flood-opacity="0" result="BackgroundImageFix"/>
<feColorMatrix in="SourceAlpha" type="matrix" values="0 0 0 0 0 0 0 0 0 0 0 0 0 0 0 0 0 0 127 0" result="hardAlpha"/>
<feOffset dy="4"/>
<feGaussianBlur stdDeviation="6"/>
<feComposite in2="hardAlpha" operator="out"/>
<feColorMatrix type="matrix" values="0 0 0 0 0 0 0 0 0 0.498039 0 0 0 0 0.384314 0 0 0 0.2 0"/>
<feBlend mode="normal" in2="BackgroundImageFix" result="effect1_dropShadow_451_887"/>
<feBlend mode="normal" in="SourceGraphic" in2="effect1_dropShadow_451_887" result="shape"/>
</filter>
<filter id="filter1_d_451_887" x="416" y="169" width="86" height="28" filterUnits="userSpaceOnUse" color-interpolation-filters="sRGB">
<feFlood flood-opacity="0" result="BackgroundImageFix"/>
<feColorMatrix in="SourceAlpha" type="matrix" values="0 0 0 0 0 0 0 0 0 0 0 0 0 0 0 0 0 0 127 0" result="hardAlpha"/>
<feOffset dy="4"/>
<feGaussianBlur stdDeviation="2"/>
<feComposite in2="hardAlpha" operator="out"/>
<feColorMatrix type="matrix" values="0 0 0 0 0 0 0 0 0 0.498039 0 0 0 0 0.384314 0 0 0 0.15 0"/>
<feBlend mode="normal" in2="BackgroundImageFix" result="effect1_dropShadow_451_887"/>
<feBlend mode="normal" in="SourceGraphic" in2="effect1_dropShadow_451_887" result="shape"/>
</filter>
<filter id="filter2_d_451_887" x="566" y="261" width="250" height="173" filterUnits="userSpaceOnUse" color-interpolation-filters="sRGB">
<feFlood flood-opacity="0" result="BackgroundImageFix"/>
<feColorMatrix in="SourceAlpha" type="matrix" values="0 0 0 0 0 0 0 0 0 0 0 0 0 0 0 0 0 0 127 0" result="hardAlpha"/>
<feOffset dy="4"/>
<feGaussianBlur stdDeviation="6"/>
<feComposite in2="hardAlpha" operator="out"/>
<feColorMatrix type="matrix" values="0 0 0 0 0 0 0 0 0 0.498039 0 0 0 0 0.384314 0 0 0 0.2 0"/>
<feBlend mode="normal" in2="BackgroundImageFix" result="effect1_dropShadow_451_887"/>
<feBlend mode="normal" in="SourceGraphic" in2="effect1_dropShadow_451_887" result="shape"/>
</filter>
<filter id="filter3_d_451_887" x="719" y="336" width="106" height="106" filterUnits="userSpaceOnUse" color-interpolation-filters="sRGB">
<feFlood flood-opacity="0" result="BackgroundImageFix"/>
<feColorMatrix in="SourceAlpha" type="matrix" values="0 0 0 0 0 0 0 0 0 0 0 0 0 0 0 0 0 0 127 0" result="hardAlpha"/>
<feOffset dy="4"/>
<feGaussianBlur stdDeviation="6"/>
<feComposite in2="hardAlpha" operator="out"/>
<feColorMatrix type="matrix" values="0 0 0 0 0 0 0 0 0 0.498039 0 0 0 0 0.384314 0 0 0 0.2 0"/>
<feBlend mode="normal" in2="BackgroundImageFix" result="effect1_dropShadow_451_887"/>
<feBlend mode="normal" in="SourceGraphic" in2="effect1_dropShadow_451_887" result="shape"/>
</filter>
<filter id="filter4_d_451_887" x="77" y="161" width="110" height="110" filterUnits="userSpaceOnUse" color-interpolation-filters="sRGB">
<feFlood flood-opacity="0" result="BackgroundImageFix"/>
<feColorMatrix in="SourceAlpha" type="matrix" values="0 0 0 0 0 0 0 0 0 0 0 0 0 0 0 0 0 0 127 0" result="hardAlpha"/>
<feOffset dy="4"/>
<feGaussianBlur stdDeviation="6"/>
<feComposite in2="hardAlpha" operator="out"/>
<feColorMatrix type="matrix" values="0 0 0 0 0 0 0 0 0 0.498039 0 0 0 0 0.384314 0 0 0 0.2 0"/>
<feBlend mode="normal" in2="BackgroundImageFix" result="effect1_dropShadow_451_887"/>
<feBlend mode="normal" in="SourceGraphic" in2="effect1_dropShadow_451_887" result="shape"/>
</filter>
<filter id="filter5_d_451_887" x="711" y="161" width="110" height="110" filterUnits="userSpaceOnUse" color-interpolation-filters="sRGB">
<feFlood flood-opacity="0" result="BackgroundImageFix"/>
<feColorMatrix in="SourceAlpha" type="matrix" values="0 0 0 0 0 0 0 0 0 0 0 0 0 0 0 0 0 0 127 0" result="hardAlpha"/>
<feOffset dy="4"/>
<feGaussianBlur stdDeviation="6"/>
<feComposite in2="hardAlpha" operator="out"/>
<feColorMatrix type="matrix" values="0 0 0 0 0 0 0 0 0 0.498039 0 0 0 0 0.384314 0 0 0 0.2 0"/>
<feBlend mode="normal" in2="BackgroundImageFix" result="effect1_dropShadow_451_887"/>
<feBlend mode="normal" in="SourceGraphic" in2="effect1_dropShadow_451_887" result="shape"/>
</filter>
<filter id="filter6_d_451_887" x="33" y="261" width="250" height="173" filterUnits="userSpaceOnUse" color-interpolation-filters="sRGB">
<feFlood flood-opacity="0" result="BackgroundImageFix"/>
<feColorMatrix in="SourceAlpha" type="matrix" values="0 0 0 0 0 0 0 0 0 0 0 0 0 0 0 0 0 0 127 0" result="hardAlpha"/>
<feOffset dy="4"/>
<feGaussianBlur stdDeviation="6"/>
<feComposite in2="hardAlpha" operator="out"/>
<feColorMatrix type="matrix" values="0 0 0 0 0 0 0 0 0 0.498039 0 0 0 0 0.384314 0 0 0 0.2 0"/>
<feBlend mode="normal" in2="BackgroundImageFix" result="effect1_dropShadow_451_887"/>
<feBlend mode="normal" in="SourceGraphic" in2="effect1_dropShadow_451_887" result="shape"/>
</filter>
<filter id="filter7_d_451_887" x="25" y="336" width="106" height="106" filterUnits="userSpaceOnUse" color-interpolation-filters="sRGB">
<feFlood flood-opacity="0" result="BackgroundImageFix"/>
<feColorMatrix in="SourceAlpha" type="matrix" values="0 0 0 0 0 0 0 0 0 0 0 0 0 0 0 0 0 0 127 0" result="hardAlpha"/>
<feOffset dy="4"/>
<feGaussianBlur stdDeviation="6"/>
<feComposite in2="hardAlpha" operator="out"/>
<feColorMatrix type="matrix" values="0 0 0 0 0 0 0 0 0 0.498039 0 0 0 0 0.384314 0 0 0 0.2 0"/>
<feBlend mode="normal" in2="BackgroundImageFix" result="effect1_dropShadow_451_887"/>
<feBlend mode="normal" in="SourceGraphic" in2="effect1_dropShadow_451_887" result="shape"/>
</filter>
<linearGradient id="paint0_linear_451_887" x1="194" y1="246" x2="194" y2="296" gradientUnits="userSpaceOnUse">
<stop stop-color="#007F62" stop-opacity="0.15"/>
<stop offset="1" stop-color="#007F62" stop-opacity="0.2"/>
</linearGradient>
<linearGradient id="paint1_linear_451_887" x1="226" y1="259" x2="226" y2="296" gradientUnits="userSpaceOnUse">
<stop stop-color="#007F62" stop-opacity="0.15"/>
<stop offset="1" stop-color="#007F62" stop-opacity="0.2"/>
</linearGradient>
<linearGradient id="paint2_linear_451_887" x1="282" y1="250" x2="282" y2="296" gradientUnits="userSpaceOnUse">
<stop stop-color="#007F62" stop-opacity="0.15"/>
<stop offset="1" stop-color="#007F62" stop-opacity="0.2"/>
</linearGradient>
<linearGradient id="paint3_linear_451_887" x1="338" y1="218" x2="338" y2="296" gradientUnits="userSpaceOnUse">
<stop stop-color="#007F62" stop-opacity="0.15"/>
<stop offset="1" stop-color="#007F62" stop-opacity="0.2"/>
</linearGradient>
<linearGradient id="paint4_linear_451_887" x1="395" y1="250" x2="395" y2="296" gradientUnits="userSpaceOnUse">
<stop stop-color="#007F62" stop-opacity="0.15"/>
<stop offset="1" stop-color="#007F62" stop-opacity="0.2"/>
</linearGradient>
<linearGradient id="paint5_linear_451_887" x1="452" y1="227" x2="452" y2="296" gradientUnits="userSpaceOnUse">
<stop stop-color="#007F62" stop-opacity="0.15"/>
<stop offset="1" stop-color="#007F62" stop-opacity="0.2"/>
</linearGradient>
<linearGradient id="paint6_linear_451_887" x1="509" y1="227" x2="509" y2="296" gradientUnits="userSpaceOnUse">
<stop stop-color="#007F62" stop-opacity="0.15"/>
<stop offset="1" stop-color="#007F62" stop-opacity="0.2"/>
</linearGradient>
<linearGradient id="paint7_linear_451_887" x1="565" y1="197" x2="565" y2="296" gradientUnits="userSpaceOnUse">
<stop stop-color="#007F62" stop-opacity="0.15"/>
<stop offset="1" stop-color="#007F62" stop-opacity="0.2"/>
</linearGradient>
<linearGradient id="paint8_linear_451_887" x1="622" y1="257" x2="622" y2="296" gradientUnits="userSpaceOnUse">
<stop stop-color="#007F62" stop-opacity="0.15"/>
<stop offset="1" stop-color="#007F62" stop-opacity="0.2"/>
</linearGradient>
<linearGradient id="paint9_linear_451_887" x1="681" y1="263" x2="681" y2="295" gradientUnits="userSpaceOnUse">
<stop stop-color="#007F62" stop-opacity="0.15"/>
<stop offset="1" stop-color="#007F62" stop-opacity="0.2"/>
</linearGradient>
<linearGradient id="paint10_linear_451_887" x1="248" y1="223" x2="248" y2="296" gradientUnits="userSpaceOnUse">
<stop stop-color="#007F62" stop-opacity="0.15"/>
<stop offset="1" stop-color="#007F62" stop-opacity="0.2"/>
</linearGradient>
<linearGradient id="paint11_linear_451_887" x1="304" y1="283" x2="304" y2="296" gradientUnits="userSpaceOnUse">
<stop stop-color="#007F62" stop-opacity="0.15"/>
<stop offset="1" stop-color="#007F62" stop-opacity="0.2"/>
</linearGradient>
<linearGradient id="paint12_linear_451_887" x1="360" y1="274" x2="360" y2="296" gradientUnits="userSpaceOnUse">
<stop stop-color="#007F62" stop-opacity="0.15"/>
<stop offset="1" stop-color="#007F62" stop-opacity="0.2"/>
</linearGradient>
<linearGradient id="paint13_linear_451_887" x1="417" y1="233" x2="417" y2="296" gradientUnits="userSpaceOnUse">
<stop stop-color="#007F62" stop-opacity="0.15"/>
<stop offset="1" stop-color="#007F62" stop-opacity="0.2"/>
</linearGradient>
<linearGradient id="paint14_linear_451_887" x1="474" y1="201" x2="474" y2="296" gradientUnits="userSpaceOnUse">
<stop stop-color="#007F62" stop-opacity="0.15"/>
<stop offset="1" stop-color="#007F62" stop-opacity="0.2"/>
</linearGradient>
<linearGradient id="paint15_linear_451_887" x1="531" y1="242" x2="531" y2="296" gradientUnits="userSpaceOnUse">
<stop stop-color="#007F62" stop-opacity="0.15"/>
<stop offset="1" stop-color="#007F62" stop-opacity="0.2"/>
</linearGradient>
<linearGradient id="paint16_linear_451_887" x1="587" y1="219" x2="587" y2="296" gradientUnits="userSpaceOnUse">
<stop stop-color="#007F62" stop-opacity="0.15"/>
<stop offset="1" stop-color="#007F62" stop-opacity="0.2"/>
</linearGradient>
<linearGradient id="paint17_linear_451_887" x1="644" y1="189" x2="644" y2="296" gradientUnits="userSpaceOnUse">
<stop stop-color="#007F62" stop-opacity="0.15"/>
<stop offset="1" stop-color="#007F62" stop-opacity="0.2"/>
</linearGradient>
<linearGradient id="paint18_linear_451_887" x1="703" y1="236" x2="703" y2="295" gradientUnits="userSpaceOnUse">
<stop stop-color="#007F62" stop-opacity="0.15"/>
<stop offset="1" stop-color="#007F62" stop-opacity="0.2"/>
</linearGradient>
<linearGradient id="paint19_linear_451_887" x1="740" y1="242" x2="740" y2="294" gradientUnits="userSpaceOnUse">
<stop stop-color="#007F62" stop-opacity="0.15"/>
<stop offset="1" stop-color="#007F62" stop-opacity="0.2"/>
</linearGradient>
<linearGradient id="paint20_linear_451_887" x1="740" y1="238.5" x2="748" y2="238.5" gradientUnits="userSpaceOnUse">
<stop stop-color="#FF6937"/>
<stop offset="1" stop-color="#FFCC9C"/>
</linearGradient>
<linearGradient id="paint21_linear_451_887" x1="746" y1="233.5" x2="759" y2="233.5" gradientUnits="userSpaceOnUse">
<stop stop-color="#FF6937"/>
<stop offset="1" stop-color="#FFCC9C"/>
</linearGradient>
<linearGradient id="paint22_linear_451_887" x1="752" y1="235.5" x2="763" y2="235.5" gradientUnits="userSpaceOnUse">
<stop stop-color="#FF6937"/>
<stop offset="1" stop-color="#FFCC9C"/>
</linearGradient>
<linearGradient id="paint23_linear_451_887" x1="758" y1="230.5" x2="774" y2="230.5" gradientUnits="userSpaceOnUse">
<stop stop-color="#FF6937"/>
<stop offset="1" stop-color="#FFCC9C"/>
</linearGradient>
<linearGradient id="paint24_linear_451_887" x1="764" y1="235.5" x2="775" y2="235.5" gradientUnits="userSpaceOnUse">
<stop stop-color="#FF6937"/>
<stop offset="1" stop-color="#FFCC9C"/>
</linearGradient>
<linearGradient id="paint25_linear_451_887" x1="770" y1="233.5" x2="783" y2="233.5" gradientUnits="userSpaceOnUse">
<stop stop-color="#FF6937"/>
<stop offset="1" stop-color="#FFCC9C"/>
</linearGradient>
<linearGradient id="paint26_linear_451_887" x1="776" y1="238.5" x2="784" y2="238.5" gradientUnits="userSpaceOnUse">
<stop stop-color="#FF6937"/>
<stop offset="1" stop-color="#FFCC9C"/>
</linearGradient>
<linearGradient id="paint27_linear_451_887" x1="782" y1="234.5" x2="794" y2="234.5" gradientUnits="userSpaceOnUse">
<stop stop-color="#FF6937"/>
<stop offset="1" stop-color="#FFCC9C"/>
</linearGradient>
<linearGradient id="paint28_linear_451_887" x1="788" y1="231.5" x2="803" y2="231.5" gradientUnits="userSpaceOnUse">
<stop stop-color="#FF6937"/>
<stop offset="1" stop-color="#FFCC9C"/>
</linearGradient>
<linearGradient id="paint29_linear_451_887" x1="794" y1="236.5" x2="804" y2="236.5" gradientUnits="userSpaceOnUse">
<stop stop-color="#FF6937"/>
<stop offset="1" stop-color="#FFCC9C"/>
</linearGradient>
<linearGradient id="paint30_linear_451_887" x1="183" y1="318" x2="183" y2="389" gradientUnits="userSpaceOnUse">
<stop stop-color="#007F62" stop-opacity="0.15"/>
<stop offset="1" stop-color="#007F62" stop-opacity="0.2"/>
</linearGradient>
</defs>
</svg>
