<svg width="233" height="95" viewBox="0 0 233 95" fill="none" xmlns="http://www.w3.org/2000/svg">
<g opacity="0.2">
<rect x="6.83984" y="6.8833" width="220" height="82" rx="22" stroke="#007F62" stroke-width="12"/>
</g>
<rect x="13.5898" y="13.6333" width="206.5" height="68.5" rx="15.25" fill="white"/>
<rect x="13.5898" y="13.6333" width="206.5" height="68.5" rx="15.25" stroke="#007F62" stroke-width="1.5"/>
<path d="M76.8398 36.8833L86.3398 42.3833V53.3833L76.8398 58.8833L67.3398 53.3833V42.3833L76.8398 36.8833ZM69.3398 43.5364V43.5412L76.8398 47.8833V56.5723L84.3398 52.2302V43.5364L76.8398 39.1943L69.3398 43.5364Z" fill="#007F62"/>
<path d="M100.18 54.3833V41.7833H104.842C105.85 41.7833 106.684 41.9513 107.344 42.2873C108.004 42.6233 108.496 43.0853 108.82 43.6733C109.144 44.2613 109.306 44.9213 109.306 45.6533C109.306 46.3493 109.15 46.9913 108.838 47.5793C108.526 48.1553 108.04 48.6233 107.38 48.9833C106.72 49.3313 105.874 49.5053 104.842 49.5053H102.484V54.3833H100.18ZM102.484 47.6333H104.698C105.502 47.6333 106.078 47.4593 106.426 47.1113C106.786 46.7513 106.966 46.2653 106.966 45.6533C106.966 45.0293 106.786 44.5433 106.426 44.1953C106.078 43.8353 105.502 43.6553 104.698 43.6553H102.484V47.6333ZM111.06 54.3833V45.4553H113.112L113.328 47.1293C113.652 46.5533 114.09 46.0973 114.642 45.7613C115.206 45.4133 115.866 45.2393 116.622 45.2393V47.6693H115.974C115.47 47.6693 115.02 47.7473 114.624 47.9033C114.228 48.0593 113.916 48.3293 113.688 48.7133C113.472 49.0973 113.364 49.6313 113.364 50.3153V54.3833H111.06ZM122.322 54.5993C121.458 54.5993 120.678 54.4013 119.982 54.0053C119.298 53.6093 118.752 53.0633 118.344 52.3673C117.948 51.6593 117.75 50.8433 117.75 49.9193C117.75 48.9953 117.954 48.1853 118.362 47.4893C118.77 46.7813 119.316 46.2293 120 45.8333C120.696 45.4373 121.476 45.2393 122.34 45.2393C123.192 45.2393 123.96 45.4373 124.644 45.8333C125.34 46.2293 125.886 46.7813 126.282 47.4893C126.69 48.1853 126.894 48.9953 126.894 49.9193C126.894 50.8433 126.69 51.6593 126.282 52.3673C125.886 53.0633 125.34 53.6093 124.644 54.0053C123.948 54.4013 123.174 54.5993 122.322 54.5993ZM122.322 52.6013C122.922 52.6013 123.444 52.3793 123.888 51.9353C124.332 51.4793 124.554 50.8073 124.554 49.9193C124.554 49.0313 124.332 48.3653 123.888 47.9213C123.444 47.4653 122.928 47.2373 122.34 47.2373C121.728 47.2373 121.2 47.4653 120.756 47.9213C120.324 48.3653 120.108 49.0313 120.108 49.9193C120.108 50.8073 120.324 51.4793 120.756 51.9353C121.2 52.3793 121.722 52.6013 122.322 52.6013ZM133.058 54.5993C132.218 54.5993 131.468 54.3953 130.808 53.9873C130.148 53.5793 129.626 53.0213 129.242 52.3133C128.858 51.6053 128.666 50.8013 128.666 49.9013C128.666 49.0013 128.858 48.2033 129.242 47.5073C129.626 46.7993 130.148 46.2473 130.808 45.8513C131.468 45.4433 132.218 45.2393 133.058 45.2393C133.73 45.2393 134.318 45.3653 134.822 45.6173C135.326 45.8693 135.734 46.2233 136.046 46.6793V41.4233H138.35V54.3833H136.298L136.046 53.1053C135.758 53.5013 135.374 53.8493 134.894 54.1493C134.426 54.4493 133.814 54.5993 133.058 54.5993ZM133.544 52.5833C134.288 52.5833 134.894 52.3373 135.362 51.8453C135.842 51.3413 136.082 50.6993 136.082 49.9193C136.082 49.1393 135.842 48.5033 135.362 48.0113C134.894 47.5073 134.288 47.2553 133.544 47.2553C132.812 47.2553 132.206 47.5013 131.726 47.9933C131.246 48.4853 131.006 49.1213 131.006 49.9013C131.006 50.6813 131.246 51.3233 131.726 51.8273C132.206 52.3313 132.812 52.5833 133.544 52.5833ZM144.044 54.5993C142.928 54.5993 142.064 54.2513 141.452 53.5553C140.852 52.8593 140.552 51.8393 140.552 50.4953V45.4553H142.838V50.2793C142.838 51.0473 142.994 51.6353 143.306 52.0433C143.618 52.4513 144.11 52.6553 144.782 52.6553C145.418 52.6553 145.94 52.4273 146.348 51.9713C146.768 51.5153 146.978 50.8793 146.978 50.0633V45.4553H149.282V54.3833H147.248L147.068 52.8713C146.792 53.3993 146.39 53.8193 145.862 54.1313C145.346 54.4433 144.74 54.5993 144.044 54.5993ZM156.022 54.5993C155.11 54.5993 154.306 54.4013 153.61 54.0053C152.914 53.6093 152.362 53.0573 151.954 52.3493C151.558 51.6413 151.36 50.8313 151.36 49.9193C151.36 49.0073 151.558 48.1973 151.954 47.4893C152.362 46.7813 152.914 46.2293 153.61 45.8333C154.306 45.4373 155.11 45.2393 156.022 45.2393C157.162 45.2393 158.122 45.5393 158.902 46.1393C159.682 46.7273 160.18 47.5433 160.396 48.5873H157.966C157.846 48.1553 157.606 47.8193 157.246 47.5793C156.898 47.3273 156.484 47.2013 156.004 47.2013C155.368 47.2013 154.828 47.4413 154.384 47.9213C153.94 48.4013 153.718 49.0673 153.718 49.9193C153.718 50.7713 153.94 51.4373 154.384 51.9173C154.828 52.3973 155.368 52.6373 156.004 52.6373C156.484 52.6373 156.898 52.5173 157.246 52.2773C157.606 52.0373 157.846 51.6953 157.966 51.2513H160.396C160.18 52.2593 159.682 53.0693 158.902 53.6813C158.122 54.2933 157.162 54.5993 156.022 54.5993ZM166.295 54.3833C165.359 54.3833 164.609 54.1553 164.045 53.6993C163.481 53.2433 163.199 52.4333 163.199 51.2693V47.3813H161.669V45.4553H163.199L163.469 43.0613H165.503V45.4553H167.915V47.3813H165.503V51.2873C165.503 51.7193 165.593 52.0193 165.773 52.1873C165.965 52.3433 166.289 52.4213 166.745 52.4213H167.861V54.3833H166.295Z" fill="#222222"/>
</svg>
