<svg width="317" height="317" viewBox="0 0 317 317" fill="none" xmlns="http://www.w3.org/2000/svg">
<g opacity="0.15" clip-path="url(#clip0_1687_1748)">
<path d="M-19.6361 -60.653C-57.749 -108.869 -137.202 -79.4398 -172.443 -58.4805C-148.124 -33.1723 -141.373 -12.3523 -141.037 -5.10578C-119.883 81.669 -60.4065 71.8978 -33.3123 56.1654C8.87796 27.4885 19.422 -11.2412 -19.6361 -60.653Z" fill="#86C197"/>
<path d="M180.284 99.2598C151.667 298.241 15.3817 283.704 -51.4844 253.997C9.95722 331.731 104.854 331.167 155.388 258.607C195.815 200.559 190.824 128.995 180.284 99.2598Z" fill="#86C197"/>
<path d="M96.6061 -29.9418C185.786 195.194 -29.9009 188.181 -82.8732 161.901C-29.6872 240.298 73.6987 242.205 130.188 174.179C200.937 88.9801 120.548 -4.5725 96.6061 -29.9418Z" fill="#86C197"/>
<path d="M-149.505 157.496C-121.628 74.6009 -145.685 -7.89094 -176.373 -18.0012C-265.236 -47.2783 -347.807 158.461 -223.765 298.988C-128.39 407.038 12.2231 367.883 65.362 330.443C65.7193 330.198 66.0704 329.948 66.415 329.693C66.0679 329.943 65.7169 330.193 65.362 330.443C10.7645 367.818 -190.876 280.517 -149.505 157.496Z" fill="#86C197"/>
<path d="M36.1358 44.2512C58.2833 -20.4144 10.1676 -67.4998 -18.4242 -84.628C97.8751 -48.5895 113.536 72.9298 43.4819 124.083C-9.56027 162.814 -88.5898 116.585 -113.051 85.6373C-78.7075 119.146 8.45146 125.083 36.1358 44.2512Z" fill="#86C197"/>
</g>
<defs>
<clipPath id="clip0_1687_1748">
<rect width="345.793" height="400.678" fill="white" transform="matrix(-0.620105 -0.784519 -0.784519 0.620105 337.227 188.355)"/>
</clipPath>
</defs>
</svg>
