<svg width="569" height="567" viewBox="0 0 569 567" fill="none" xmlns="http://www.w3.org/2000/svg">
<g opacity="0.2" clip-path="url(#clip0_1450_1096)">
<path d="M653.52 440.404C694.965 492.84 643.872 569.519 612.844 601.543C592.173 569.455 571.839 557.083 564.256 554.907C477.752 510.731 503.028 450.253 526.479 425.536C567.418 388.097 611.046 386.667 653.52 440.404Z" fill="#ABBAD0"/>
<path d="M534.526 188.706C316.797 169.013 297.95 316.867 312.59 395.079C245.771 310.545 270.201 210.277 359.668 175.03C431.242 146.833 505.71 170.086 534.526 188.706Z" fill="#ABBAD0"/>
<path d="M650.218 309.695C434.399 158.792 387.651 388.772 402.153 451.422C332.559 375.456 356.507 265.585 442.672 222.898C550.589 169.436 629.388 277.991 650.218 309.695Z" fill="#ABBAD0"/>
<path d="M390.08 523.03C484.793 514.353 566.036 560.525 569.026 595.534C577.687 696.914 339.257 732.612 221.718 566.07C131.343 438.017 208.088 299.068 261.048 252.245C261.397 251.928 261.75 251.619 262.106 251.319C261.755 251.623 261.402 251.932 261.048 252.245C207.789 300.628 249.522 535.909 390.08 523.03Z" fill="#ABBAD0"/>
<path d="M556.527 355.048C630.512 347.854 668.249 410.591 679.191 445.145C670.267 313.038 545.621 265.949 473.902 327.226C419.599 373.622 448.667 468.854 475.269 502.509C448.438 457.754 464.046 364.04 556.527 355.048Z" fill="#ABBAD0"/>
</g>
<defs>
<clipPath id="clip0_1450_1096">
<rect width="610.444" height="610.444" fill="white" transform="translate(479.668 0.272461) rotate(51.6762)"/>
</clipPath>
</defs>
</svg>
