<svg width="471" height="606" viewBox="0 0 471 606" fill="none" xmlns="http://www.w3.org/2000/svg">
<g opacity="0.2" clip-path="url(#clip0_1450_1090)">
<path d="M266.074 188.23C307.52 240.666 256.427 317.345 225.399 349.369C204.728 317.282 184.394 304.909 176.811 302.734C90.3068 258.558 115.583 198.079 139.034 173.362C179.973 135.923 223.601 134.493 266.074 188.23Z" fill="#ABBAD0"/>
<path d="M147.08 -63.4676C-70.6485 -83.1612 -89.4949 64.6936 -74.8552 142.905C-141.674 58.3716 -117.244 -41.8973 -27.7772 -77.1437C43.7965 -105.341 118.265 -82.0875 147.08 -63.4676Z" fill="#ABBAD0"/>
<path d="M262.773 57.5214C46.9539 -93.3819 0.205473 136.598 14.7082 199.248C-54.8863 123.283 -30.9388 13.4111 55.227 -29.2755C163.144 -82.7376 241.943 25.817 262.773 57.5214Z" fill="#ABBAD0"/>
<path d="M2.63495 270.856C97.3476 262.179 178.59 308.351 181.581 343.36C190.241 444.74 -48.1887 480.438 -165.727 313.896C-256.102 185.844 -179.358 46.8943 -126.397 0.0709063C-126.048 -0.245758 -125.696 -0.554418 -125.339 -0.854949C-125.691 -0.55046 -126.043 -0.241833 -126.397 0.0709063C-179.656 48.4537 -137.924 283.735 2.63495 270.856Z" fill="#ABBAD0"/>
<path d="M169.082 102.874C243.067 95.6803 280.804 158.417 291.746 192.972C282.822 60.8643 158.175 13.7749 86.4566 75.0518C32.1536 121.449 61.2212 216.68 87.8232 250.335C60.9931 205.58 76.6005 111.866 169.082 102.874Z" fill="#ABBAD0"/>
</g>
<defs>
<clipPath id="clip0_1450_1090">
<rect width="610.444" height="610.444" fill="white" transform="translate(92.2227 -251.901) rotate(51.6762)"/>
</clipPath>
</defs>
</svg>
