<svg width="132" height="128" viewBox="0 0 132 128" fill="none" xmlns="http://www.w3.org/2000/svg">
<path d="M26.3602 123.013C25.0882 123.013 23.9962 122.743 23.0842 122.203C22.1722 121.651 21.4702 120.889 20.9782 119.917C20.4862 118.933 20.2402 117.799 20.2402 116.515C20.2402 115.231 20.4862 114.097 20.9782 113.113C21.4702 112.129 22.1722 111.361 23.0842 110.809C23.9962 110.257 25.0882 109.981 26.3602 109.981C27.8722 109.981 29.1082 110.359 30.0682 111.115C31.0402 111.859 31.6462 112.909 31.8862 114.265H29.3482C29.1922 113.581 28.8562 113.047 28.3402 112.663C27.8362 112.267 27.1642 112.069 26.3242 112.069C25.1602 112.069 24.2482 112.465 23.5882 113.257C22.9282 114.049 22.5982 115.135 22.5982 116.515C22.5982 117.895 22.9282 118.981 23.5882 119.773C24.2482 120.553 25.1602 120.943 26.3242 120.943C27.1642 120.943 27.8362 120.763 28.3402 120.403C28.8562 120.031 29.1922 119.521 29.3482 118.873H31.8862C31.6462 120.169 31.0402 121.183 30.0682 121.915C29.1082 122.647 27.8722 123.013 26.3602 123.013ZM36.8597 123.013C35.7437 123.013 34.8797 122.665 34.2677 121.969C33.6677 121.273 33.3677 120.253 33.3677 118.909V113.869H35.6537V118.693C35.6537 119.461 35.8097 120.049 36.1217 120.457C36.4337 120.865 36.9257 121.069 37.5977 121.069C38.2337 121.069 38.7557 120.841 39.1637 120.385C39.5837 119.929 39.7937 119.293 39.7937 118.477V113.869H42.0977V122.797H40.0637L39.8837 121.285C39.6077 121.813 39.2057 122.233 38.6777 122.545C38.1617 122.857 37.5557 123.013 36.8597 123.013ZM47.7929 123.013C47.0009 123.013 46.3049 122.887 45.7049 122.635C45.1049 122.371 44.6249 122.011 44.2649 121.555C43.9049 121.099 43.6889 120.571 43.6169 119.971H45.9389C46.0109 120.319 46.2029 120.619 46.5149 120.871C46.8389 121.111 47.2529 121.231 47.7569 121.231C48.2609 121.231 48.6269 121.129 48.8549 120.925C49.0949 120.721 49.2149 120.487 49.2149 120.223C49.2149 119.839 49.0469 119.581 48.7109 119.449C48.3749 119.305 47.9069 119.167 47.3069 119.035C46.9229 118.951 46.5329 118.849 46.1369 118.729C45.7409 118.609 45.3749 118.459 45.0389 118.279C44.7149 118.087 44.4509 117.847 44.2469 117.559C44.0429 117.259 43.9409 116.893 43.9409 116.461C43.9409 115.669 44.2529 115.003 44.8769 114.463C45.5129 113.923 46.4009 113.653 47.5409 113.653C48.5969 113.653 49.4369 113.899 50.0609 114.391C50.6969 114.883 51.0749 115.561 51.1949 116.425H49.0169C48.8849 115.765 48.3869 115.435 47.5229 115.435C47.0909 115.435 46.7549 115.519 46.5149 115.687C46.2869 115.855 46.1729 116.065 46.1729 116.317C46.1729 116.581 46.3469 116.791 46.6949 116.947C47.0429 117.103 47.5049 117.247 48.0809 117.379C48.7049 117.523 49.2749 117.685 49.7909 117.865C50.3189 118.033 50.7389 118.291 51.0509 118.639C51.3629 118.975 51.5189 119.461 51.5189 120.097C51.5309 120.649 51.3869 121.147 51.0869 121.591C50.7869 122.035 50.3549 122.383 49.7909 122.635C49.2269 122.887 48.5609 123.013 47.7929 123.013ZM56.8967 122.797C55.9607 122.797 55.2107 122.569 54.6467 122.113C54.0827 121.657 53.8007 120.847 53.8007 119.683V115.795H52.2707V113.869H53.8007L54.0707 111.475H56.1047V113.869H58.5167V115.795H56.1047V119.701C56.1047 120.133 56.1947 120.433 56.3747 120.601C56.5667 120.757 56.8907 120.835 57.3467 120.835H58.4627V122.797H56.8967ZM64.1903 123.013C63.3263 123.013 62.5463 122.815 61.8503 122.419C61.1663 122.023 60.6203 121.477 60.2123 120.781C59.8163 120.073 59.6183 119.257 59.6183 118.333C59.6183 117.409 59.8223 116.599 60.2303 115.903C60.6383 115.195 61.1843 114.643 61.8683 114.247C62.5643 113.851 63.3443 113.653 64.2083 113.653C65.0603 113.653 65.8283 113.851 66.5123 114.247C67.2083 114.643 67.7543 115.195 68.1503 115.903C68.5583 116.599 68.7623 117.409 68.7623 118.333C68.7623 119.257 68.5583 120.073 68.1503 120.781C67.7543 121.477 67.2083 122.023 66.5123 122.419C65.8163 122.815 65.0423 123.013 64.1903 123.013ZM64.1903 121.015C64.7903 121.015 65.3123 120.793 65.7563 120.349C66.2003 119.893 66.4223 119.221 66.4223 118.333C66.4223 117.445 66.2003 116.779 65.7563 116.335C65.3123 115.879 64.7963 115.651 64.2083 115.651C63.5963 115.651 63.0683 115.879 62.6243 116.335C62.1923 116.779 61.9763 117.445 61.9763 118.333C61.9763 119.221 62.1923 119.893 62.6243 120.349C63.0683 120.793 63.5903 121.015 64.1903 121.015ZM70.4623 122.797V113.869H72.4963L72.6943 115.075C72.9823 114.643 73.3603 114.301 73.8283 114.049C74.3083 113.785 74.8603 113.653 75.4843 113.653C76.8643 113.653 77.8423 114.187 78.4183 115.255C78.7423 114.763 79.1743 114.373 79.7143 114.085C80.2663 113.797 80.8663 113.653 81.5143 113.653C82.6783 113.653 83.5723 114.001 84.1963 114.697C84.8203 115.393 85.1323 116.413 85.1323 117.757V122.797H82.8283V117.973C82.8283 117.205 82.6783 116.617 82.3783 116.209C82.0903 115.801 81.6403 115.597 81.0283 115.597C80.4043 115.597 79.9003 115.825 79.5163 116.281C79.1443 116.737 78.9583 117.373 78.9583 118.189V122.797H76.6543V117.973C76.6543 117.205 76.5043 116.617 76.2043 116.209C75.9043 115.801 75.4423 115.597 74.8183 115.597C74.2063 115.597 73.7083 115.825 73.3243 116.281C72.9523 116.737 72.7663 117.373 72.7663 118.189V122.797H70.4623ZM91.2978 123.013C90.3978 123.013 89.5998 122.821 88.9038 122.437C88.2078 122.053 87.6618 121.513 87.2658 120.817C86.8698 120.121 86.6718 119.317 86.6718 118.405C86.6718 117.481 86.8638 116.659 87.2478 115.939C87.6438 115.219 88.1838 114.661 88.8678 114.265C89.5638 113.857 90.3798 113.653 91.3158 113.653C92.1918 113.653 92.9658 113.845 93.6378 114.229C94.3098 114.613 94.8318 115.141 95.2038 115.813C95.5878 116.473 95.7798 117.211 95.7798 118.027C95.7798 118.159 95.7738 118.297 95.7618 118.441C95.7618 118.585 95.7558 118.735 95.7438 118.891H88.9578C89.0058 119.587 89.2458 120.133 89.6778 120.529C90.1218 120.925 90.6558 121.123 91.2798 121.123C91.7478 121.123 92.1378 121.021 92.4498 120.817C92.7738 120.601 93.0138 120.325 93.1698 119.989H95.5098C95.3418 120.553 95.0598 121.069 94.6638 121.537C94.2798 121.993 93.7998 122.353 93.2238 122.617C92.6598 122.881 92.0178 123.013 91.2978 123.013ZM91.3158 115.525C90.7518 115.525 90.2538 115.687 89.8218 116.011C89.3898 116.323 89.1138 116.803 88.9938 117.451H93.4398C93.4038 116.863 93.1878 116.395 92.7918 116.047C92.3958 115.699 91.9038 115.525 91.3158 115.525ZM97.3576 122.797V113.869H99.4096L99.6256 115.543C99.9496 114.967 100.388 114.511 100.94 114.175C101.504 113.827 102.164 113.653 102.92 113.653V116.083H102.272C101.768 116.083 101.318 116.161 100.922 116.317C100.526 116.473 100.214 116.743 99.9856 117.127C99.7696 117.511 99.6616 118.045 99.6616 118.729V122.797H97.3576ZM107.824 123.013C107.032 123.013 106.336 122.887 105.736 122.635C105.136 122.371 104.656 122.011 104.296 121.555C103.936 121.099 103.72 120.571 103.648 119.971H105.97C106.042 120.319 106.234 120.619 106.546 120.871C106.87 121.111 107.284 121.231 107.788 121.231C108.292 121.231 108.658 121.129 108.886 120.925C109.126 120.721 109.246 120.487 109.246 120.223C109.246 119.839 109.078 119.581 108.742 119.449C108.406 119.305 107.938 119.167 107.338 119.035C106.954 118.951 106.564 118.849 106.168 118.729C105.772 118.609 105.406 118.459 105.07 118.279C104.746 118.087 104.482 117.847 104.278 117.559C104.074 117.259 103.972 116.893 103.972 116.461C103.972 115.669 104.284 115.003 104.908 114.463C105.544 113.923 106.432 113.653 107.572 113.653C108.628 113.653 109.468 113.899 110.092 114.391C110.728 114.883 111.106 115.561 111.226 116.425H109.048C108.916 115.765 108.418 115.435 107.554 115.435C107.122 115.435 106.786 115.519 106.546 115.687C106.318 115.855 106.204 116.065 106.204 116.317C106.204 116.581 106.378 116.791 106.726 116.947C107.074 117.103 107.536 117.247 108.112 117.379C108.736 117.523 109.306 117.685 109.822 117.865C110.35 118.033 110.77 118.291 111.082 118.639C111.394 118.975 111.55 119.461 111.55 120.097C111.562 120.649 111.418 121.147 111.118 121.591C110.818 122.035 110.386 122.383 109.822 122.635C109.258 122.887 108.592 123.013 107.824 123.013Z" fill="#222222"/>
<path d="M2.32278 24.313V7.51299H8.49078C9.83478 7.51299 10.9388 7.74499 11.8028 8.20899C12.6828 8.65699 13.3388 9.27299 13.7708 10.057C14.2028 10.825 14.4188 11.681 14.4188 12.625C14.4188 13.649 14.1468 14.585 13.6028 15.433C13.0748 16.281 12.2428 16.897 11.1068 17.281L14.5868 24.313H11.0588L7.93878 17.689H5.39478V24.313H2.32278ZM5.39478 15.433H8.29878C9.32278 15.433 10.0748 15.185 10.5548 14.689C11.0348 14.193 11.2748 13.537 11.2748 12.721C11.2748 11.921 11.0348 11.281 10.5548 10.801C10.0908 10.321 9.33078 10.081 8.27478 10.081H5.39478V15.433ZM18.3799 10.561C17.8199 10.561 17.3559 10.393 16.9879 10.057C16.6359 9.72099 16.4599 9.29699 16.4599 8.78499C16.4599 8.27299 16.6359 7.85699 16.9879 7.53699C17.3559 7.20099 17.8199 7.03299 18.3799 7.03299C18.9399 7.03299 19.3959 7.20099 19.7479 7.53699C20.1159 7.85699 20.2999 8.27299 20.2999 8.78499C20.2999 9.29699 20.1159 9.72099 19.7479 10.057C19.3959 10.393 18.9399 10.561 18.3799 10.561ZM16.8439 24.313V12.409H19.9159V24.313H16.8439ZM27.6823 20.761C27.1063 20.761 26.5703 20.697 26.0743 20.569L25.1863 21.457C25.4583 21.601 25.8263 21.721 26.2903 21.817C26.7543 21.913 27.5063 22.009 28.5463 22.105C30.1303 22.249 31.2823 22.625 32.0023 23.233C32.7223 23.841 33.0823 24.681 33.0823 25.753C33.0823 26.457 32.8903 27.121 32.5063 27.745C32.1223 28.385 31.5303 28.897 30.7303 29.281C29.9303 29.681 28.9063 29.881 27.6583 29.881C25.9623 29.881 24.5943 29.561 23.5543 28.921C22.5143 28.297 21.9943 27.353 21.9943 26.089C21.9943 25.017 22.5143 24.089 23.5543 23.305C23.2343 23.161 22.9543 23.009 22.7143 22.849C22.4903 22.689 22.2903 22.521 22.1143 22.345V21.793L24.2023 19.585C23.2743 18.769 22.8103 17.721 22.8103 16.441C22.8103 15.641 23.0023 14.913 23.3863 14.257C23.7863 13.601 24.3463 13.081 25.0663 12.697C25.7863 12.313 26.6583 12.121 27.6823 12.121C28.3543 12.121 28.9783 12.217 29.5543 12.409H34.0663V14.281L32.0263 14.425C32.3463 15.033 32.5063 15.705 32.5063 16.441C32.5063 17.241 32.3143 17.969 31.9303 18.625C31.5463 19.281 30.9863 19.801 30.2503 20.185C29.5303 20.569 28.6743 20.761 27.6823 20.761ZM27.6823 18.409C28.3063 18.409 28.8183 18.241 29.2183 17.905C29.6343 17.569 29.8423 17.089 29.8423 16.465C29.8423 15.841 29.6343 15.361 29.2183 15.025C28.8183 14.689 28.3063 14.521 27.6823 14.521C27.0263 14.521 26.4983 14.689 26.0983 15.025C25.6983 15.361 25.4983 15.841 25.4983 16.465C25.4983 17.089 25.6983 17.569 26.0983 17.905C26.4983 18.241 27.0263 18.409 27.6823 18.409ZM24.8023 25.777C24.8023 26.369 25.0743 26.809 25.6183 27.097C26.1783 27.401 26.8583 27.553 27.6583 27.553C28.4263 27.553 29.0503 27.393 29.5303 27.073C30.0103 26.769 30.2503 26.353 30.2503 25.825C30.2503 25.393 30.0903 25.033 29.7703 24.745C29.4663 24.457 28.8503 24.281 27.9223 24.217C27.2663 24.169 26.6583 24.097 26.0983 24.001C25.6343 24.257 25.2983 24.537 25.0903 24.841C24.8983 25.145 24.8023 25.457 24.8023 25.777ZM35.8264 24.313V7.03299H38.8984V14.233C39.2984 13.577 39.8344 13.065 40.5064 12.697C41.1944 12.313 41.9784 12.121 42.8584 12.121C44.3304 12.121 45.4664 12.585 46.2664 13.513C47.0824 14.441 47.4904 15.801 47.4904 17.593V24.313H44.4424V17.881C44.4424 16.857 44.2344 16.073 43.8184 15.529C43.4184 14.985 42.7784 14.713 41.8984 14.713C41.0344 14.713 40.3144 15.017 39.7384 15.625C39.1784 16.233 38.8984 17.081 38.8984 18.169V24.313H35.8264ZM55.252 24.313C54.004 24.313 53.004 24.009 52.252 23.401C51.5 22.793 51.124 21.713 51.124 20.161V14.977H49.084V12.409H51.124L51.484 9.21699H54.196V12.409H57.412V14.977H54.196V20.185C54.196 20.761 54.316 21.161 54.556 21.385C54.812 21.593 55.244 21.697 55.852 21.697H57.34V24.313H55.252ZM70.1123 24.313C68.8643 24.313 67.8643 24.009 67.1123 23.401C66.3603 22.793 65.9843 21.713 65.9843 20.161V14.977H63.9443V12.409H65.9843L66.3443 9.21699H69.0563V12.409H72.2723V14.977H69.0563V20.185C69.0563 20.761 69.1763 21.161 69.4163 21.385C69.6723 21.593 70.1043 21.697 70.7123 21.697H72.2003V24.313H70.1123ZM79.8372 24.601C78.6852 24.601 77.6452 24.337 76.7172 23.809C75.8052 23.281 75.0772 22.553 74.5332 21.625C74.0052 20.681 73.7412 19.593 73.7412 18.361C73.7412 17.129 74.0132 16.049 74.5572 15.121C75.1012 14.177 75.8292 13.441 76.7412 12.913C77.6692 12.385 78.7092 12.121 79.8612 12.121C80.9972 12.121 82.0212 12.385 82.9332 12.913C83.8612 13.441 84.5892 14.177 85.1172 15.121C85.6612 16.049 85.9332 17.129 85.9332 18.361C85.9332 19.593 85.6612 20.681 85.1172 21.625C84.5892 22.553 83.8612 23.281 82.9332 23.809C82.0052 24.337 80.9732 24.601 79.8372 24.601ZM79.8372 21.937C80.6372 21.937 81.3332 21.641 81.9252 21.049C82.5172 20.441 82.8132 19.545 82.8132 18.361C82.8132 17.177 82.5172 16.289 81.9252 15.697C81.3332 15.089 80.6452 14.785 79.8612 14.785C79.0452 14.785 78.3412 15.089 77.7492 15.697C77.1732 16.289 76.8852 17.177 76.8852 18.361C76.8852 19.545 77.1732 20.441 77.7492 21.049C78.3412 21.641 79.0372 21.937 79.8372 21.937ZM95.7666 24.313L92.2866 12.409H95.3346L97.3986 20.977L99.7986 12.409H103.207L105.607 20.977L107.695 12.409H110.743L107.239 24.313H104.047L101.503 15.409L98.9586 24.313H95.7666ZM113.857 10.561C113.297 10.561 112.833 10.393 112.465 10.057C112.113 9.72099 111.937 9.29699 111.937 8.78499C111.937 8.27299 112.113 7.85699 112.465 7.53699C112.833 7.20099 113.297 7.03299 113.857 7.03299C114.417 7.03299 114.873 7.20099 115.225 7.53699C115.593 7.85699 115.777 8.27299 115.777 8.78499C115.777 9.29699 115.593 9.72099 115.225 10.057C114.873 10.393 114.417 10.561 113.857 10.561ZM112.321 24.313V12.409H115.393V24.313H112.321ZM118.119 24.313V12.409H120.831L121.071 14.425C121.439 13.721 121.967 13.161 122.655 12.745C123.359 12.329 124.183 12.121 125.127 12.121C126.599 12.121 127.743 12.585 128.559 13.513C129.375 14.441 129.783 15.801 129.783 17.593V24.313H126.711V17.881C126.711 16.857 126.503 16.073 126.087 15.529C125.671 14.985 125.023 14.713 124.143 14.713C123.279 14.713 122.567 15.017 122.007 15.625C121.463 16.233 121.191 17.081 121.191 18.169V24.313H118.119Z" fill="#222222"/>
<path d="M73.4258 96.4165H57.4258V94.4165C57.4258 91.6551 59.6644 89.4165 62.4258 89.4165H68.4258C71.1872 89.4165 73.4258 91.6551 73.4258 94.4165V96.4165ZM65.4258 87.4165C62.1121 87.4165 59.4258 84.7302 59.4258 81.4165C59.4258 78.1028 62.1121 75.4165 65.4258 75.4165C68.7395 75.4165 71.4258 78.1028 71.4258 81.4165C71.4258 84.7302 68.7395 87.4165 65.4258 87.4165Z" fill="#6363BB"/>
</svg>
