<svg width="571" height="833" viewBox="0 0 571 833" fill="none" xmlns="http://www.w3.org/2000/svg">
<g opacity="0.1" clip-path="url(#clip0_2440_3572)">
<path d="M653.617 440.321C695.063 492.758 643.969 569.436 612.942 601.46C592.271 569.373 571.937 557 564.354 554.825C477.85 510.649 503.126 450.171 526.577 425.454C567.516 388.014 611.144 386.584 653.617 440.321Z" fill="#7A7AD2"/>
<path d="M534.623 188.624C316.894 168.93 298.048 316.785 312.688 394.997C245.869 310.463 270.299 210.194 359.766 174.948C431.34 146.75 505.808 170.004 534.623 188.624Z" fill="#7A7AD2"/>
<path d="M650.316 309.612C434.497 158.708 387.748 388.688 402.251 451.338C332.657 375.373 356.604 265.501 442.77 222.815C550.687 169.353 629.486 277.907 650.316 309.612Z" fill="#7A7AD2"/>
<path d="M390.178 522.948C484.891 514.27 566.133 560.443 569.124 595.452C577.784 696.831 339.354 732.529 221.816 565.988C131.441 437.935 208.185 298.986 261.146 252.162C261.495 251.846 261.847 251.537 262.204 251.236C261.852 251.541 261.5 251.849 261.146 252.162C207.887 300.545 249.619 535.826 390.178 522.948Z" fill="#7A7AD2"/>
<path d="M556.625 354.965C630.61 347.772 668.346 410.508 679.289 445.063C670.365 312.956 545.718 265.866 474 327.143C419.697 373.54 448.764 468.771 475.366 502.427C448.536 457.672 464.143 363.958 556.625 354.965Z" fill="#7A7AD2"/>
</g>
<defs>
<clipPath id="clip0_2440_3572">
<rect width="610.444" height="610.444" fill="white" transform="translate(479.766 0.189453) rotate(51.6762)"/>
</clipPath>
</defs>
</svg>
