<svg width="469" height="550" viewBox="0 0 469 550" fill="none" xmlns="http://www.w3.org/2000/svg">
<g opacity="0.1" clip-path="url(#clip0_1447_431)">
<path d="M263.42 131.716C304.865 184.152 253.772 260.831 222.745 292.855C202.074 260.767 181.739 248.395 174.156 246.219C87.6525 202.043 112.929 141.565 136.38 116.848C177.319 79.4086 220.947 77.9787 263.42 131.716Z" fill="#7A7AD2"/>
<path d="M144.426 -119.982C-73.3028 -139.675 -92.1492 8.17947 -77.5095 86.3912C-144.328 1.85743 -119.899 -98.4115 -30.4315 -133.658C41.1422 -161.855 115.61 -138.602 144.426 -119.982Z" fill="#7A7AD2"/>
<path d="M260.119 1.00723C44.2996 -149.896 -2.44882 80.0836 12.0539 142.734C-57.5406 66.7685 -33.5931 -43.103 52.5727 -85.7896C160.49 -139.252 239.288 -30.6971 260.119 1.00723Z" fill="#7A7AD2"/>
<path d="M-0.0193506 214.342C94.6933 205.665 175.936 251.837 178.927 286.846C187.587 388.226 -50.843 423.924 -168.382 257.382C-258.757 129.329 -182.012 -9.61981 -129.051 -56.4433C-128.703 -56.7599 -128.35 -57.0686 -127.993 -57.3691C-128.345 -57.0646 -128.697 -56.756 -129.051 -56.4433C-182.31 -8.06045 -140.578 227.221 -0.0193506 214.342Z" fill="#7A7AD2"/>
<path d="M166.427 46.3599C240.412 39.1661 278.149 101.903 289.092 136.457C280.168 4.35015 155.521 -42.7392 83.8023 18.5376C29.4993 64.9343 58.5669 160.166 85.169 193.821C58.3388 149.066 73.9462 55.3521 166.427 46.3599Z" fill="#7A7AD2"/>
</g>
<defs>
<clipPath id="clip0_1447_431">
<rect width="610.444" height="610.444" fill="white" transform="translate(89.5684 -308.416) rotate(51.6762)"/>
</clipPath>
</defs>
</svg>
