<svg width="19" height="19" viewBox="0 0 19 19" fill="none" xmlns="http://www.w3.org/2000/svg">
<path d="M1.3125 1.41455V17.4146H18.2234" stroke="black" stroke-width="1.24976" stroke-linecap="round"/>
<path d="M4.70903 12.8534C4.49775 13.1263 4.54769 13.5188 4.82058 13.7301C5.09346 13.9414 5.48595 13.8914 5.69722 13.6185L4.70903 12.8534ZM9.26161 7.99406L9.54107 7.43515L9.08183 7.20553L8.76751 7.61151L9.26161 7.99406ZM12.3054 9.51602L12.026 10.0749L12.4824 10.3032L12.7973 9.9015L12.3054 9.51602ZM17.8293 3.18457C17.7878 2.84197 17.4764 2.5979 17.1338 2.63942L11.5507 3.31616C11.2081 3.35769 10.964 3.66909 11.0056 4.01169C11.0471 4.3543 11.3585 4.59837 11.7011 4.55684L16.6638 3.9553L17.2654 8.91804C17.3069 9.26064 17.6183 9.50471 17.9609 9.46318C18.3035 9.42166 18.5476 9.11025 18.5061 8.76765L17.8293 3.18457ZM5.69722 13.6185L9.75571 8.37661L8.76751 7.61151L4.70903 12.8534L5.69722 13.6185ZM8.98214 8.55297L12.026 10.0749L12.5849 8.95711L9.54107 7.43515L8.98214 8.55297ZM12.7973 9.9015L17.7008 3.64524L16.7172 2.87429L11.8136 9.13054L12.7973 9.9015Z" fill="black"/>
</svg>
