<svg width="49" height="49" viewBox="0 0 49 49" fill="none" xmlns="http://www.w3.org/2000/svg">
<rect x="0.294922" y="0.322266" width="48" height="48" rx="8" fill="#E9E9FC"/>
<path d="M22.268 30.3223H26.3218C26.4538 29.1207 27.067 28.1288 28.0625 27.0449C28.1746 26.9229 28.8937 26.1787 28.979 26.0724C29.8267 25.0154 30.2949 23.7073 30.2949 22.3223C30.2949 19.0086 27.6086 16.3223 24.2949 16.3223C20.9812 16.3223 18.2949 19.0086 18.2949 22.3223C18.2949 23.7066 18.7627 25.014 19.6095 26.0707C19.695 26.1773 20.4157 26.9235 20.5265 27.0441C21.5226 28.1287 22.136 29.1207 22.268 30.3223ZM26.2949 32.3223H22.2949V33.3223H26.2949V32.3223ZM18.0489 27.3215C16.9514 25.952 16.2949 24.2138 16.2949 22.3223C16.2949 17.904 19.8766 14.3223 24.2949 14.3223C28.7132 14.3223 32.2949 17.904 32.2949 22.3223C32.2949 24.2148 31.6377 25.9538 30.5392 27.3237C29.9189 28.0971 28.2949 29.3223 28.2949 30.8223V33.3223C28.2949 34.4269 27.3995 35.3223 26.2949 35.3223H22.2949C21.1904 35.3223 20.2949 34.4269 20.2949 33.3223V30.8223C20.2949 29.3223 18.6695 28.0959 18.0489 27.3215ZM25.2949 22.3271H27.7949L23.2949 28.3271V24.3271H20.7949L25.2949 18.3223V22.3271Z" fill="#572985"/>
</svg>
