<svg width="49" height="49" viewBox="0 0 49 49" fill="none" xmlns="http://www.w3.org/2000/svg">
<rect x="0.201172" y="0.437988" width="48" height="48" rx="8" fill="#EFF7F4"/>
<g clip-path="url(#clip0_2323_2305)">
<path d="M20.0957 24.8778H22.1577C22.3603 25.8221 23.1927 26.5372 24.1997 26.5372C25.2074 26.5372 26.0404 25.8222 26.2431 24.8778H28.3061C30.7896 24.8778 32.8102 22.8577 32.8102 20.3737C32.8102 17.8896 30.7901 15.869 28.3061 15.869H19.7333C19.5306 14.9247 18.6976 14.2102 17.6904 14.2102C16.5327 14.2102 15.591 15.1511 15.591 16.3086C15.591 17.4664 16.5326 18.4074 17.6904 18.4074C18.6975 18.4074 19.5306 17.693 19.7333 16.749H28.307C30.3052 16.749 31.9312 18.375 31.9312 20.3737C31.9312 22.3719 30.3052 23.9978 28.307 23.9978H26.244C26.0413 23.0534 25.2078 22.339 24.2006 22.339C23.1938 22.339 22.3612 23.0536 22.1587 23.9978H20.0966C17.6126 23.9978 15.592 26.0179 15.592 28.502C15.592 30.9861 17.6126 33.0062 20.0966 33.0062H28.6694C28.872 33.9509 29.705 34.6655 30.7118 34.6655C31.8697 34.6655 32.8107 33.7239 32.8107 32.5662C32.8107 31.4088 31.8696 30.4678 30.7118 30.4678C29.7046 30.4678 28.872 31.1819 28.6694 32.1262H20.0957C18.097 32.1262 16.471 30.5002 16.471 28.502C16.471 26.5034 18.0974 24.8778 20.0957 24.8778Z" fill="#007F62" stroke="#007F62" stroke-width="0.4"/>
<path d="M35.9665 21.1496L35.9665 21.1496C36.0982 21.3203 36.0668 21.5645 35.8965 21.6967L35.8966 21.6967L35.8045 21.5782L35.8965 21.6967L35.9665 21.1496ZM35.9665 21.1496L35.9657 21.1487M35.9665 21.1496L35.9657 21.1487M35.9657 21.1487C35.8338 20.9805 35.5886 20.947 35.4186 21.0816L35.1725 21.2729C35.1931 21.1008 35.2038 20.9267 35.2038 20.7507C35.2038 19.8555 34.9396 18.9925 34.4394 18.2547C34.3187 18.0756 34.0747 18.0299 33.8974 18.151L33.982 18.2749M35.9657 21.1487L34.3956 21.1918M34.3956 21.1918C34.414 21.0462 34.4238 20.8991 34.4238 20.7507C34.4238 20.0116 34.2061 19.2998 33.7936 18.6923L33.7933 18.692L33.7933 18.692C33.6733 18.5142 33.7191 18.2716 33.8979 18.1507L33.982 18.2749M34.3956 21.1918L34.2092 20.8328L34.209 20.8325C34.1092 20.6414 33.8727 20.568 33.6833 20.6666L33.7525 20.7997M34.3956 21.1918L34.2938 22.5885C34.293 22.588 34.2921 22.5873 34.2912 22.5867C34.2795 22.5783 34.2573 22.5624 34.2362 22.5408C34.2288 22.5348 34.2185 22.5254 34.2085 22.5121C34.2002 22.5009 34.194 22.4899 34.1898 22.4813C34.1855 22.476 34.1811 22.4699 34.1769 22.4628L34.1721 22.4548L34.1723 22.4547L33.5173 21.1927C33.5173 21.1926 33.5173 21.1925 33.5172 21.1925L33.5171 21.1923L33.6503 21.1232C33.5888 21.0056 33.6349 20.8606 33.7525 20.7997M33.982 18.2749C34.0909 18.2005 34.2412 18.2288 34.3151 18.3387L33.9176 18.608C33.8437 18.4986 33.872 18.3493 33.982 18.2749ZM33.7525 20.7997C33.8687 20.7392 34.0146 20.7843 34.076 20.9019L33.7525 20.7997ZM34.4279 22.4974L34.3722 22.6367C34.3591 22.6315 34.3492 22.6255 34.3432 22.6215C34.3396 22.6194 34.3366 22.6176 34.3346 22.6163L34.332 22.6148L34.3303 22.6137C34.3303 22.6137 34.3303 22.6137 34.3302 22.6137L34.4107 22.4871C34.4141 22.4892 34.4175 22.4913 34.4212 22.4931C34.4224 22.4936 34.4234 22.4944 34.4245 22.4953C34.4256 22.4961 34.4267 22.497 34.4279 22.4974ZM34.4279 22.4974C34.4576 22.5094 34.4879 22.5152 34.5181 22.5152C34.5556 22.5152 34.5935 22.5061 34.6285 22.4878M34.4279 22.4974L34.3718 22.6366C34.4192 22.6557 34.4684 22.6652 34.5181 22.6652C34.5793 22.6652 34.6403 22.6505 34.6961 22.6218M34.6285 22.4878L34.6857 22.6137L34.6906 22.6244C34.6925 22.6235 34.6943 22.6227 34.6961 22.6218M34.6285 22.4878C34.6316 22.4864 34.6339 22.4842 34.6361 22.482C34.6377 22.4805 34.6392 22.4789 34.641 22.4778L34.7392 22.591L34.7395 22.5907L34.7401 22.5901M34.6285 22.4878L34.6932 22.6122C34.6958 22.6116 34.6989 22.6108 34.7024 22.6097C34.7083 22.6079 34.7155 22.6053 34.7235 22.6015C34.7235 22.6015 34.7235 22.6015 34.7235 22.6015C34.7262 22.6001 34.7291 22.5986 34.732 22.5969C34.7321 22.5968 34.7323 22.5967 34.7324 22.5967C34.7362 22.5937 34.7388 22.5913 34.7401 22.5901M34.6961 22.6218C34.7104 22.6146 34.7216 22.6064 34.7292 22.6L34.6961 22.6218ZM34.7401 22.5901C34.7409 22.5894 34.7414 22.5888 34.7416 22.5886L34.741 22.5892L34.7401 22.5901ZM34.7242 22.6026C34.7246 22.6023 34.7249 22.6021 34.7252 22.6019C34.7252 22.6019 34.7252 22.6019 34.7252 22.6019L34.7242 22.6026ZM34.7242 22.6026L34.7242 22.6026L34.7242 22.6026ZM34.7573 22.5825C34.7578 22.5822 34.7582 22.5818 34.7587 22.5815L34.665 22.4643L34.7571 22.5827L34.7573 22.5825ZM34.216 22.5074C34.2166 22.508 34.2162 22.5076 34.2154 22.5069L34.216 22.5074Z" fill="#007F62" stroke="#007F62" stroke-width="0.3"/>
<path d="M14.0857 26.4678L13.9612 26.3841C14.0825 26.2038 14.3257 26.1611 14.502 26.2787L14.5029 26.2793L14.5029 26.2793C14.6818 26.4003 14.7275 26.6425 14.6069 26.8207L14.6068 26.8208C14.1946 27.4289 13.9765 28.1402 13.9765 28.8793C13.9765 29.0273 13.9863 29.174 14.0047 29.3194L14.4827 26.7366C14.5571 26.6267 14.5288 26.4779 14.4188 26.4035C14.3094 26.3305 14.1596 26.3579 14.0857 26.4678ZM14.0857 26.4678C13.6024 27.1801 13.3465 28.0144 13.3465 28.8793C13.3465 29.0999 13.364 29.3181 13.3975 29.5331L13.2279 29.4012M14.0857 26.4678L13.9616 26.3836C13.4613 27.1209 13.1965 27.9845 13.1965 28.8793C13.1965 29.055 13.2072 29.2291 13.2279 29.4012M13.2279 29.4012C13.2365 29.4729 13.2469 29.5443 13.2589 29.6153L12.8896 29.3281M13.2279 29.4012L12.5944 29.7068M13.2279 29.4012L12.9818 29.2098L12.8896 29.3281M13.2279 29.4012L12.9817 29.2098L12.9816 29.2097L12.8896 29.3281M12.5944 29.7068C12.4902 29.6257 12.471 29.475 12.5526 29.3704C12.6337 29.2662 12.7849 29.2465 12.8896 29.3281M12.5944 29.7068L13.7339 30.5929M12.5944 29.7068L13.7339 30.5929M12.4343 29.2782C12.4343 29.2782 12.4343 29.2782 12.4343 29.2781L12.5526 29.3704L12.4343 29.2782ZM12.4343 29.2782C12.3016 29.4484 12.3329 29.6934 12.5022 29.8252L12.5023 29.8253L13.6415 30.7111L13.6418 30.7113L13.7339 30.5929M12.4343 29.2782L13.6716 30.7295C13.6712 30.7292 13.6708 30.7289 13.6705 30.7286C13.6612 30.7227 13.6537 30.7169 13.6475 30.7119L13.7425 30.5958M13.7339 30.5929C13.7351 30.5939 13.7366 30.5941 13.7381 30.5944C13.7396 30.5946 13.7411 30.5949 13.7425 30.5958M13.7425 30.5958L13.6603 30.7192L13.7588 30.6064C13.7526 30.6035 13.7478 30.6001 13.7425 30.5958ZM13.9715 30.6265L14.0256 30.7664C14.0254 30.7665 14.0252 30.7666 14.0249 30.7667C13.9789 30.7844 13.9306 30.7938 13.8812 30.7938C13.8205 30.7938 13.7593 30.7797 13.7018 30.7496L14.0635 30.7456C14.0618 30.7468 14.0598 30.7483 14.0576 30.7498C14.052 30.7529 14.0448 30.7567 14.0364 30.7602L13.9787 30.6217M13.9715 30.6265C13.9731 30.626 13.9742 30.625 13.9754 30.624C13.9764 30.6232 13.9774 30.6224 13.9787 30.6217M13.9715 30.6265C13.9417 30.638 13.9115 30.6438 13.8812 30.6438C13.8438 30.6438 13.8064 30.6352 13.7708 30.6164L13.9715 30.6265ZM13.9787 30.6217L14.0458 30.7559C14.0524 30.7526 14.0579 30.7492 14.0621 30.7463L13.995 30.6121M13.9787 30.6217C13.9824 30.6202 13.9858 30.618 13.9892 30.6157C13.9911 30.6145 13.993 30.6133 13.995 30.6121M13.995 30.6121L14.0699 30.7405L14.1033 30.7189L14.0176 30.5958M13.995 30.6121C14.0011 30.6091 14.0059 30.6051 14.011 30.601C14.0131 30.5993 14.0153 30.5975 14.0176 30.5958M14.0176 30.5958C14.0334 30.5848 14.0488 30.5732 14.0612 30.5588M14.0176 30.5958L14.1076 30.7158C14.1081 30.7154 14.1081 30.7154 14.1068 30.7165C14.1213 30.7063 14.1422 30.6909 14.1627 30.67M14.0612 30.5588L14.1905 28.9612L14.3238 29.03L14.1907 28.961L14.1906 28.9611C14.2883 28.7721 14.5233 28.6925 14.7169 28.7949C14.9085 28.8941 14.9812 29.1297 14.8828 29.3201L14.8827 29.3204L14.2275 30.5833L14.2232 30.5915L14.223 30.5914C14.2185 30.5988 14.2138 30.6053 14.2094 30.6107M14.0612 30.5588C14.0627 30.5572 14.0645 30.556 14.0663 30.5548C14.0681 30.5536 14.0699 30.5524 14.0713 30.5507C14.0741 30.5466 14.0758 30.5422 14.0775 30.5377C14.0791 30.5338 14.0806 30.5298 14.0828 30.5262C14.0843 30.5234 14.0866 30.5216 14.0889 30.5198C14.0909 30.5181 14.093 30.5165 14.0944 30.5142L14.0612 30.5588ZM14.1627 30.67C14.1687 30.6652 14.1769 30.658 14.1852 30.6483L14.1904 30.6422L14.1949 30.6357C14.2013 30.6263 14.206 30.6177 14.2094 30.6107M14.1627 30.67C14.1667 30.6659 14.1707 30.6616 14.1746 30.6571C14.1669 30.6659 14.1597 30.672 14.1553 30.6754L14.1503 30.679L14.153 30.6772C14.1548 30.676 14.1575 30.6741 14.1606 30.6717C14.1612 30.6711 14.1619 30.6706 14.1627 30.67ZM14.2094 30.6107C14.204 30.6173 14.1989 30.6225 14.1949 30.6263C14.1927 30.6284 14.1907 30.6301 14.189 30.6316C14.1879 30.6326 14.1869 30.6334 14.1861 30.6341L14.1837 30.636L14.183 30.6366L14.1827 30.6368M14.2094 30.6107C14.2099 30.6097 14.2103 30.6087 14.2108 30.6078C14.2139 30.601 14.2162 30.595 14.2171 30.5926L14.2172 30.5924C14.2178 30.5908 14.218 30.5903 14.218 30.5903C14.218 30.5903 14.2177 30.5911 14.2173 30.5919C14.2168 30.5931 14.2159 30.5953 14.2145 30.598C14.2137 30.5995 14.2128 30.6011 14.2118 30.6029C14.2112 30.6038 14.2106 30.6048 14.21 30.6057C14.2036 30.6158 14.197 30.6234 14.1919 30.6284C14.1908 30.6296 14.1898 30.6306 14.1888 30.6315C14.1871 30.633 14.1858 30.6343 14.1848 30.6351C14.1838 30.6359 14.183 30.6366 14.1827 30.6368M14.1827 30.6368L14.1827 30.6368L14.1827 30.6368ZM14.1066 30.7166C14.1067 30.7166 14.1067 30.7165 14.1067 30.7165L14.0674 30.7438L14.0704 30.7419C14.0834 30.7346 14.0932 30.7272 14.0991 30.7226L14.1066 30.7166Z" fill="#007F62" stroke="#007F62" stroke-width="0.3"/>
</g>
<defs>
<clipPath id="clip0_2323_2305">
<rect width="26" height="24" fill="white" transform="translate(11.2012 12.438)"/>
</clipPath>
</defs>
</svg>
