<svg width="59" height="59" viewBox="0 0 59 59" fill="none" xmlns="http://www.w3.org/2000/svg">
<rect x="57.8125" y="57.5723" width="57" height="57" rx="28.5" transform="rotate(-180 57.8125 57.5723)" stroke="#222222"/>
<path d="M39.5156 30.0723C40.0679 30.0723 40.5156 29.6246 40.5156 29.0723C40.5156 28.52 40.0679 28.0723 39.5156 28.0723L39.5156 30.0723ZM18.4008 28.3652C18.0103 28.7557 18.0103 29.3888 18.4008 29.7794L24.7648 36.1433C25.1553 36.5339 25.7885 36.5339 26.179 36.1433C26.5695 35.7528 26.5695 35.1196 26.179 34.7291L20.5221 29.0723L26.179 23.4154C26.5695 23.0249 26.5695 22.3917 26.179 22.0012C25.7885 21.6107 25.1553 21.6107 24.7648 22.0012L18.4008 28.3652ZM39.5156 28.0723L19.1079 28.0723L19.1079 30.0723L39.5156 30.0723L39.5156 28.0723Z" fill="#222222"/>
</svg>
