<svg width="59" height="59" viewBox="0 0 59 59" fill="none" xmlns="http://www.w3.org/2000/svg">
<rect x="0.8125" y="0.572266" width="57" height="57" rx="28.5" stroke="#222222"/>
<path d="M19.1094 28.0723C18.5571 28.0723 18.1094 28.52 18.1094 29.0723C18.1094 29.6246 18.5571 30.0723 19.1094 30.0723V28.0723ZM40.2242 29.7794C40.6147 29.3888 40.6147 28.7557 40.2242 28.3652L33.8602 22.0012C33.4697 21.6107 32.8365 21.6107 32.446 22.0012C32.0555 22.3917 32.0555 23.0249 32.446 23.4154L38.1029 29.0723L32.446 34.7291C32.0555 35.1196 32.0555 35.7528 32.446 36.1433C32.8365 36.5339 33.4697 36.5339 33.8602 36.1433L40.2242 29.7794ZM19.1094 30.0723H39.5171V28.0723H19.1094V30.0723Z" fill="#222222"/>
</svg>
