<svg width="49" height="49" viewBox="0 0 49 49" fill="none" xmlns="http://www.w3.org/2000/svg">
<rect x="0.337891" y="0.437988" width="48" height="48" rx="8" fill="#EFF7F4"/>
<path d="M12.3379 13.0845V32.7917C12.3379 34.4486 13.681 35.7917 15.3379 35.7917H36.3379" stroke="#007F62" stroke-width="2" stroke-linecap="round"/>
<path d="M17.0667 29.2488C16.7286 29.6854 16.8085 30.3135 17.2452 30.6517C17.6819 30.9898 18.31 30.9098 18.6481 30.4731L17.0667 29.2488ZM35.8889 15.5823C35.8225 15.034 35.3241 14.6434 34.7759 14.7099L25.8413 15.7929C25.293 15.8593 24.9024 16.3577 24.9689 16.906C25.0353 17.4542 25.5336 17.8448 26.0819 17.7784L34.0238 16.8157L34.9864 24.7576C35.0529 25.3058 35.5512 25.6964 36.0995 25.63C36.6478 25.5635 37.0384 25.0652 36.9719 24.5169L35.8889 15.5823ZM26.8413 24.0337L26.3941 24.9281L26.8413 24.0337ZM28.6928 23.6174L27.9057 23.0005L28.6928 23.6174ZM24.7196 22.9728L24.2724 23.8672L24.7196 22.9728ZM18.6481 30.4731L23.6534 24.0083L22.072 22.7839L17.0667 29.2488L18.6481 30.4731ZM24.2724 23.8672L26.3941 24.9281L27.2886 23.1392L25.1668 22.0783L24.2724 23.8672ZM29.4798 24.2342L35.6833 16.3195L34.1091 15.0858L27.9057 23.0005L29.4798 24.2342ZM26.3941 24.9281C27.4569 25.4595 28.7468 25.1694 29.4798 24.2342L27.9057 23.0005C27.7591 23.1875 27.5011 23.2455 27.2886 23.1392L26.3941 24.9281ZM23.6534 24.0083C23.7996 23.8195 24.0588 23.7604 24.2724 23.8672L25.1668 22.0783C24.0991 21.5445 22.8028 21.84 22.072 22.7839L23.6534 24.0083Z" fill="#007F62"/>
</svg>
