<svg width="1323" height="741" viewBox="0 0 1323 741" fill="none" xmlns="http://www.w3.org/2000/svg">
<g clip-path="url(#clip0_1164_111)">
<rect width="1323" height="741" rx="24" fill="#DDE9FB"/>
<g opacity="0.2" clip-path="url(#clip1_1164_111)">
<path d="M1370.73 191.705C1412.18 244.142 1361.09 320.82 1330.06 352.844C1309.39 320.757 1289.05 308.385 1281.47 306.209C1194.97 262.033 1220.24 201.555 1243.69 176.838C1284.63 139.398 1328.26 137.968 1370.73 191.705Z" fill="#ABBAD0"/>
<path d="M1251.73 -59.992C1034 -79.6856 1015.16 68.1692 1029.8 146.381C962.978 61.8472 987.408 -38.4217 1076.88 -73.6681C1148.45 -101.865 1222.92 -78.6119 1251.73 -59.992Z" fill="#ABBAD0"/>
<path d="M1367.43 60.998C1151.61 -89.9054 1104.87 140.074 1119.37 202.724C1049.77 126.759 1073.72 16.8877 1159.89 -25.7989C1267.8 -79.261 1346.6 29.2936 1367.43 60.998Z" fill="#ABBAD0"/>
<path d="M1107.29 274.332C1202 265.654 1283.24 311.827 1286.23 346.836C1294.89 448.216 1056.46 483.913 938.925 317.372C848.55 189.319 925.295 50.3699 978.255 3.54649C978.604 3.22983 978.957 2.92117 979.313 2.62064C978.962 2.92513 978.609 3.23375 978.255 3.54649C924.996 51.9293 966.729 287.21 1107.29 274.332Z" fill="#ABBAD0"/>
<path d="M1273.73 106.35C1347.72 99.1559 1385.46 161.893 1396.4 196.447C1387.47 64.3399 1262.83 17.2505 1191.11 78.5274C1136.81 124.924 1165.87 220.156 1192.48 253.811C1165.65 209.056 1181.25 115.342 1273.73 106.35Z" fill="#ABBAD0"/>
</g>
<g opacity="0.2">
<path d="M213.384 550.838C257.096 556.08 268.846 615.625 269.227 644.994C244.669 639.607 229.425 643.272 224.873 645.778C163.952 665.322 147.668 625.334 147.142 602.898C148.875 566.397 168.588 545.466 213.384 550.838Z" fill="#ABBAD0"/>
<path d="M40.9 488.547C-69.9419 580.473 -10.0732 658.286 33.0902 688.017C-37.3809 679.567 -72.5406 621.388 -47.1231 563.372C-26.7891 516.96 18.7929 493.234 40.9 488.547Z" fill="#ABBAD0"/>
<path d="M151.136 491.321C-19.755 521.075 65.2245 650.205 101.096 672.731C33.3084 669.573 -6.53633 607.133 13.8835 547.175C39.458 472.082 126.681 486.187 151.136 491.321Z" fill="#ABBAD0"/>
<path d="M128.71 711.789C168.917 663.747 228.309 647.579 245.966 662.542C297.096 705.871 202.312 833.284 70.0626 810.088C-31.6234 792.253 -60.3132 691.709 -57.3239 645.242C-57.3082 644.932 -57.2868 644.624 -57.2598 644.318C-57.2825 644.623 -57.3039 644.931 -57.3239 645.242C-59.7284 692.576 69.0403 783.087 128.71 711.789Z" fill="#ABBAD0"/>
<path d="M128.436 556.023C159.651 518.3 206.415 530.076 227.575 541.133C162.049 483.574 81.9596 519.472 76.9218 581.403C73.1073 628.295 130.914 659.274 158.971 662.638C125.653 654.196 89.4168 603.176 128.436 556.023Z" fill="#ABBAD0"/>
</g>
</g>
<defs>
<clipPath id="clip0_1164_111">
<rect width="1323" height="741" rx="24" fill="white"/>
</clipPath>
<clipPath id="clip1_1164_111">
<rect width="622.433" height="622.433" fill="white" transform="translate(1196.88 -248.426) rotate(51.6762)"/>
</clipPath>
</defs>
</svg>
