<svg width="490" height="858" viewBox="0 0 490 858" fill="none" xmlns="http://www.w3.org/2000/svg">
<g opacity="0.2" clip-path="url(#clip0_1450_1165)">
<path d="M285.094 440.124C326.539 492.561 275.446 569.239 244.418 601.263C223.747 569.176 203.413 556.804 195.83 554.628C109.326 510.452 134.603 449.974 158.054 425.257C198.993 387.817 242.621 386.387 285.094 440.124Z" fill="#86C197"/>
<path d="M166.1 188.427C-51.629 168.733 -70.4754 316.588 -55.8356 394.8C-122.654 310.266 -98.2249 209.997 -8.75769 174.751C62.8161 146.554 137.284 169.807 166.1 188.427Z" fill="#86C197"/>
<path d="M281.792 309.416C65.9734 158.513 19.225 388.492 33.7277 451.142C-35.8667 375.177 -11.9192 265.306 74.2466 222.619C182.163 169.157 260.962 277.712 281.792 309.416Z" fill="#86C197"/>
<path d="M21.6545 522.751C116.367 514.073 197.61 560.246 200.6 595.255C209.261 696.634 -29.1692 732.332 -146.708 565.791C-237.083 437.738 -160.338 298.789 -107.377 251.965C-107.029 251.649 -106.676 251.34 -106.319 251.04C-106.671 251.344 -107.024 251.653 -107.377 251.965C-160.637 300.348 -118.904 535.629 21.6545 522.751Z" fill="#86C197"/>
<path d="M188.101 354.769C262.086 347.575 299.823 410.311 310.766 444.866C301.841 312.759 177.195 265.669 105.476 326.946C51.1731 373.343 80.2408 468.575 106.843 502.23C80.0126 457.475 95.62 363.761 188.101 354.769Z" fill="#86C197"/>
</g>
<defs>
<clipPath id="clip0_1450_1165">
<rect width="610.444" height="610.444" fill="white" transform="translate(111.242 -0.00683594) rotate(51.6762)"/>
</clipPath>
</defs>
</svg>
