<svg width="519" height="574" viewBox="0 0 519 574" fill="none" xmlns="http://www.w3.org/2000/svg">
<g opacity="0.2" clip-path="url(#clip0_1450_1158)">
<path d="M653.656 156.318C695.102 208.754 644.009 285.433 612.981 317.457C592.31 285.369 571.976 272.997 564.393 270.822C477.889 226.646 503.165 166.167 526.616 141.45C567.555 104.011 611.183 102.581 653.656 156.318Z" fill="#86C197"/>
<path d="M534.662 -95.3797C316.934 -115.073 298.087 32.7815 312.727 110.993C245.908 26.4595 270.338 -73.8094 359.805 -109.056C431.379 -137.253 505.847 -114 534.662 -95.3797Z" fill="#86C197"/>
<path d="M650.355 25.6093C434.536 -125.294 387.788 104.686 402.29 167.336C332.696 91.3705 356.643 -18.501 442.809 -61.1876C550.726 -114.65 629.525 -6.09509 650.355 25.6093Z" fill="#86C197"/>
<path d="M390.217 238.944C484.93 230.267 566.172 276.439 569.163 311.448C577.823 412.828 339.393 448.526 221.855 281.984C131.48 153.931 208.224 14.9822 261.185 -31.8412C261.534 -32.1579 261.886 -32.4665 262.243 -32.7671C261.892 -32.4626 261.539 -32.1539 261.185 -31.8412C207.926 16.5416 249.658 251.823 390.217 238.944Z" fill="#86C197"/>
<path d="M556.664 70.962C630.649 63.7682 668.386 126.505 679.328 161.059C670.404 28.9522 545.757 -18.1372 474.039 43.1397C419.736 89.5364 448.803 184.768 475.405 218.423C448.575 173.668 464.182 79.9542 556.664 70.962Z" fill="#86C197"/>
</g>
<defs>
<clipPath id="clip0_1450_1158">
<rect width="610.444" height="610.444" fill="white" transform="translate(479.805 -283.813) rotate(51.6762)"/>
</clipPath>
</defs>
</svg>
