<svg width="95" height="94" viewBox="0 0 95 94" fill="none" xmlns="http://www.w3.org/2000/svg">
<g filter="url(#filter0_d_770_1210)">
<rect x="9.58984" y="7.58203" width="75.6617" height="75.6617" rx="12" fill="white"/>
<path d="M65.372 33.7217C68.276 33.7217 70.6385 31.3592 70.6385 28.4552C70.6385 25.5512 68.276 23.1888 65.372 23.1888C62.4685 23.1888 60.1061 25.5512 60.1061 28.4552C60.1061 29.4462 60.3814 30.3741 60.8592 31.1666L55.7464 36.2794C53.8372 34.7601 51.4216 33.8511 48.7976 33.8511C46.1737 33.8511 43.7581 34.7601 41.8489 36.2794L32.9533 27.3838C33.2585 26.7994 33.4314 26.1355 33.4314 25.4318C33.4314 23.0992 31.5333 21.2012 29.2003 21.2012C26.8677 21.2012 24.9697 23.0992 24.9697 25.4318C24.9697 27.7648 26.8677 29.6628 29.2003 29.6628C29.9034 29.6628 30.5669 29.4902 31.151 29.1854L40.0471 38.0815C38.5279 39.9907 37.6191 42.4063 37.6191 45.0301C37.6191 47.654 38.5279 50.0695 40.0471 51.9787L34.5538 57.472C33.4941 56.7566 32.2179 56.3385 30.8459 56.3385C27.1833 56.3385 24.2031 59.3187 24.2031 62.9813C24.2031 66.6445 27.1833 69.6246 30.8459 69.6246C34.509 69.6246 37.4892 66.6445 37.4892 62.9813C37.4892 61.6096 37.0711 60.3336 36.3557 59.2739L41.8491 53.7806C43.7583 55.2998 46.1738 56.2086 48.7976 56.2086C51.4213 56.2086 53.8365 55.3 55.7457 53.7811L58.3763 56.4117C58.0342 57.0422 57.8397 57.764 57.8397 58.5302C57.8397 60.9883 59.8393 62.9878 62.2973 62.9878C64.7548 62.9878 66.7543 60.9883 66.7543 58.5302C66.7543 56.0727 64.7548 54.0732 62.2973 54.0732C61.5308 54.0732 60.8089 54.2676 60.1783 54.6098L57.5477 51.9792C59.0672 50.07 59.9762 47.6543 59.9762 45.0301C59.9762 42.4063 59.0674 39.9907 57.5482 38.0815L62.6611 32.9686C63.4535 33.4464 64.3812 33.7217 65.372 33.7217ZM29.2003 27.1142C28.2729 27.1142 27.5183 26.3596 27.5183 25.4318C27.5183 24.5044 28.2729 23.7498 29.2003 23.7498C30.1281 23.7498 30.8828 24.5044 30.8828 25.4318C30.8828 26.3596 30.1281 27.1142 29.2003 27.1142ZM30.8459 67.076C28.5885 67.076 26.7517 65.2392 26.7517 62.9813C26.7517 60.7239 28.5885 58.8871 30.8459 58.8871C33.1038 58.8871 34.9406 60.7239 34.9406 62.9813C34.9406 65.2392 33.1038 67.076 30.8459 67.076ZM62.2973 56.6218C63.3496 56.6218 64.2057 57.4779 64.2057 58.5302C64.2057 59.583 63.3496 60.4392 62.2973 60.4392C61.2445 60.4392 60.3883 59.583 60.3883 58.5302C60.3883 57.4779 61.2445 56.6218 62.2973 56.6218ZM48.7976 53.66C44.0389 53.66 40.1677 49.7888 40.1677 45.0301C40.1677 40.2714 44.0389 36.3997 48.7976 36.3997C53.5564 36.3997 57.4276 40.2714 57.4276 45.0301C57.4276 49.7888 53.5564 53.66 48.7976 53.66ZM65.372 25.7374C66.8708 25.7374 68.0899 26.9564 68.0899 28.4552C68.0899 29.954 66.8708 31.1731 65.372 31.1731C63.8737 31.1731 62.6547 29.954 62.6547 28.4552C62.6547 26.9564 63.8737 25.7374 65.372 25.7374Z" fill="#E57A56"/>
</g>
<defs>
<filter id="filter0_d_770_1210" x="0.510445" y="0.0158653" width="93.8209" height="93.8204" filterUnits="userSpaceOnUse" color-interpolation-filters="sRGB">
<feFlood flood-opacity="0" result="BackgroundImageFix"/>
<feColorMatrix in="SourceAlpha" type="matrix" values="0 0 0 0 0 0 0 0 0 0 0 0 0 0 0 0 0 0 127 0" result="hardAlpha"/>
<feOffset dy="1.51323"/>
<feGaussianBlur stdDeviation="4.5397"/>
<feComposite in2="hardAlpha" operator="out"/>
<feColorMatrix type="matrix" values="0 0 0 0 0.898039 0 0 0 0 0.478431 0 0 0 0 0.337255 0 0 0 0.18 0"/>
<feBlend mode="normal" in2="BackgroundImageFix" result="effect1_dropShadow_770_1210"/>
<feBlend mode="normal" in="SourceGraphic" in2="effect1_dropShadow_770_1210" result="shape"/>
</filter>
</defs>
</svg>
