<svg width="1320" height="555" viewBox="0 0 1320 555" fill="none" xmlns="http://www.w3.org/2000/svg">
<g clip-path="url(#clip0_2437_3331)">
<rect x="1320" y="555" width="1320" height="555" rx="24" transform="rotate(-180 1320 555)" fill="#DBF5FD"/>
<g opacity="0.1">
<path d="M128.436 188.239C142.341 122.864 233.979 113.244 278.436 116.685C266.933 153.079 270.39 176.629 273.556 183.855C294.772 278.64 232.084 297.791 198.088 295.518C143.136 287.906 114.185 255.236 128.436 188.239Z" fill="#5A96A6"/>
<path d="M10.6595 440.513C134.489 620.679 260.33 540.801 311.187 479.606C288.773 585.001 195.997 630.204 111.754 583.838C44.36 546.744 14.7219 474.579 10.6595 440.513Z" fill="#5A96A6"/>
<path d="M29.934 274.219C51.5474 536.674 258.414 425.849 297.381 374.693C283.333 476.755 183.474 528.459 95.6114 489.383C-14.43 440.443 18.8271 310.492 29.934 274.219Z" fill="#5A96A6"/>
<path d="M360.213 338.28C293.072 270.915 276.751 178.905 301.79 154.255C374.298 82.8721 553.979 243.613 500.818 440.4C459.942 591.709 303.996 621.335 234.146 610.459C233.68 610.393 233.218 610.318 232.758 610.236C233.217 610.312 233.68 610.386 234.146 610.459C305.387 620.569 459.852 438.253 360.213 338.28Z" fill="#5A96A6"/>
<path d="M124.656 317.394C71.8901 265.037 96.0913 195.941 115.704 165.46C19.7127 256.661 63.0351 382.666 155.985 398.755C226.363 410.936 281.111 327.77 290.035 285.809C272.712 335.031 190.614 382.84 124.656 317.394Z" fill="#5A96A6"/>
</g>
<g opacity="0.1" clip-path="url(#clip1_2437_3331)">
<path d="M1353.16 83.7072C1382.67 109.384 1361.58 159.014 1347.2 180.789C1331.84 164.569 1318.8 159.652 1314.2 159.221C1259.67 143.169 1267.67 105.65 1278.48 88.8969C1297.98 62.9348 1322.92 57.3934 1353.16 83.7072Z" fill="#5A96A6"/>
<path d="M1257.49 -48.1891C1130.13 -35.966 1135.28 51.114 1152.16 94.5155C1104.59 53.1216 1107.79 -7.19231 1155.44 -37.142C1193.56 -61.1017 1238.9 -55.7819 1257.49 -48.1891Z" fill="#5A96A6"/>
<path d="M1337.13 8.88605C1196.67 -54.5651 1194.66 82.7685 1209.78 117.234C1161.53 81.0689 1163.42 15.284 1208.36 -18.588C1264.65 -61.0103 1321.72 -7.09624 1337.13 8.88605Z" fill="#5A96A6"/>
<path d="M1210.57 159.728C1264.11 144.493 1315.83 162.262 1321.34 182.075C1337.29 239.449 1204.01 285.77 1118.39 202.694C1052.56 138.818 1081.67 50.5974 1107.07 17.9376C1107.23 17.7178 1107.4 17.5021 1107.58 17.2907C1107.41 17.5038 1107.24 17.7195 1107.07 17.9376C1081.67 51.5266 1131.12 182.339 1210.57 159.728Z" fill="#5A96A6"/>
<path d="M1288.13 45.1057C1329.91 32.9656 1358.4 64.968 1368.43 83.6591C1349.01 8.64045 1272.22 -4.96172 1237.6 38.0401C1211.39 70.5997 1238.41 122.23 1257.35 138.71C1237.07 115.87 1235.92 60.2808 1288.13 45.1057Z" fill="#5A96A6"/>
</g>
</g>
<defs>
<clipPath id="clip0_2437_3331">
<rect x="1320" y="555" width="1320" height="555" rx="24" transform="rotate(-180 1320 555)" fill="white"/>
</clipPath>
<clipPath id="clip1_2437_3331">
<rect width="364.279" height="364.279" fill="white" transform="translate(1205.56 -150.637) rotate(41.0258)"/>
</clipPath>
</defs>
</svg>
