<svg width="1321" height="555" viewBox="0 0 1321 555" fill="none" xmlns="http://www.w3.org/2000/svg">
<g clip-path="url(#clip0_971_6062)">
<rect x="1320.75" y="555" width="1320" height="555" rx="24" transform="rotate(-180 1320.75 555)" fill="#ECE2F2"/>
<g opacity="0.2">
<path d="M129.184 188.239C143.089 122.864 234.727 113.244 279.184 116.685C267.681 153.079 271.138 176.629 274.304 183.855C295.52 278.64 232.832 297.791 198.836 295.518C143.884 287.906 114.933 255.236 129.184 188.239Z" fill="#B6A1C3"/>
<path d="M11.4076 440.513C135.237 620.679 261.078 540.801 311.935 479.606C289.521 585.001 196.745 630.204 112.502 583.838C45.1081 546.744 15.4699 474.579 11.4076 440.513Z" fill="#B6A1C3"/>
<path d="M30.682 274.219C52.2954 536.674 259.162 425.849 298.129 374.693C284.081 476.755 184.222 528.459 96.3595 489.383C-13.6819 440.443 19.5751 310.492 30.682 274.219Z" fill="#B6A1C3"/>
<path d="M360.961 338.28C293.82 270.915 277.499 178.905 302.538 154.255C375.046 82.8721 554.727 243.613 501.566 440.4C460.69 591.709 304.744 621.335 234.895 610.459C234.428 610.393 233.966 610.318 233.507 610.236C233.965 610.312 234.428 610.386 234.895 610.459C306.135 620.569 460.6 438.253 360.961 338.28Z" fill="#B6A1C3"/>
<path d="M125.404 317.394C72.6381 265.037 96.8393 195.941 116.452 165.46C20.4607 256.661 63.7831 382.666 156.733 398.755C227.111 410.936 281.859 327.77 290.783 285.809C273.46 335.031 191.362 382.84 125.404 317.394Z" fill="#B6A1C3"/>
</g>
<g opacity="0.2" clip-path="url(#clip1_971_6062)">
<path d="M1353.91 83.7072C1383.42 109.384 1362.33 159.014 1347.94 180.789C1332.58 164.569 1319.55 159.652 1314.95 159.221C1260.42 143.169 1268.42 105.65 1279.23 88.8969C1298.73 62.9348 1323.67 57.3934 1353.91 83.7072Z" fill="#B6A1C3"/>
<path d="M1258.24 -48.1891C1130.88 -35.966 1136.03 51.114 1152.91 94.5155C1105.34 53.1216 1108.54 -7.19231 1156.19 -37.142C1194.31 -61.1017 1239.65 -55.7819 1258.24 -48.1891Z" fill="#B6A1C3"/>
<path d="M1337.87 8.88605C1197.42 -54.5651 1195.41 82.7685 1210.52 117.234C1162.28 81.0689 1164.17 15.284 1209.11 -18.588C1265.4 -61.0103 1322.46 -7.09624 1337.87 8.88605Z" fill="#B6A1C3"/>
<path d="M1211.32 159.728C1264.86 144.493 1316.58 162.262 1322.09 182.075C1338.03 239.449 1204.76 285.77 1119.14 202.694C1053.31 138.818 1082.42 50.5974 1107.82 17.9376C1107.98 17.7178 1108.15 17.5021 1108.32 17.2907C1108.16 17.5038 1107.99 17.7195 1107.82 17.9376C1082.42 51.5266 1131.87 182.339 1211.32 159.728Z" fill="#B6A1C3"/>
<path d="M1288.88 45.1057C1330.66 32.9656 1359.15 64.968 1369.18 83.6591C1349.76 8.64045 1272.97 -4.96172 1238.35 38.0401C1212.14 70.5997 1239.15 122.23 1258.1 138.71C1237.82 115.87 1236.66 60.2808 1288.88 45.1057Z" fill="#B6A1C3"/>
</g>
</g>
<defs>
<clipPath id="clip0_971_6062">
<rect x="1320.75" y="555" width="1320" height="555" rx="24" transform="rotate(-180 1320.75 555)" fill="white"/>
</clipPath>
<clipPath id="clip1_971_6062">
<rect width="364.279" height="364.279" fill="white" transform="translate(1206.31 -150.637) rotate(41.0258)"/>
</clipPath>
</defs>
</svg>
