<svg width="1321" height="598" viewBox="0 0 1321 598" fill="none" xmlns="http://www.w3.org/2000/svg">
<g clip-path="url(#clip0_971_5742)">
<rect x="0.748047" width="1320" height="598" rx="24" fill="#EFF7F1"/>
<g opacity="0.2">
<path d="M1390.76 451.871C1434.47 457.114 1446.22 516.658 1446.6 546.027C1422.04 540.64 1406.8 544.306 1402.25 546.812C1341.32 566.355 1325.04 526.368 1324.51 503.931C1326.25 467.43 1345.96 446.499 1390.76 451.871Z" fill="#86C197"/>
<path d="M1218.27 389.581C1107.43 481.507 1167.3 559.319 1210.46 589.05C1139.99 580.601 1104.83 522.422 1130.25 464.406C1150.58 417.993 1196.17 394.268 1218.27 389.581Z" fill="#86C197"/>
<path d="M1328.51 392.355C1157.62 422.11 1242.6 551.239 1278.47 573.766C1210.68 570.608 1170.84 508.167 1191.26 448.209C1216.83 373.117 1304.05 387.221 1328.51 392.355Z" fill="#86C197"/>
<path d="M1306.08 612.822C1346.29 564.78 1405.68 548.613 1423.34 563.575C1474.47 606.905 1379.69 734.317 1247.44 711.121C1145.75 693.286 1117.06 592.743 1120.05 546.275C1120.06 545.965 1120.09 545.657 1120.11 545.351C1120.09 545.657 1120.07 545.965 1120.05 546.275C1117.64 593.61 1246.41 684.12 1306.08 612.822Z" fill="#86C197"/>
<path d="M1305.81 457.056C1337.02 419.334 1383.79 431.11 1404.95 442.167C1339.42 384.608 1259.33 420.506 1254.29 482.437C1250.48 529.328 1308.29 560.308 1336.34 563.672C1303.03 555.23 1266.79 504.209 1305.81 457.056Z" fill="#86C197"/>
</g>
<g opacity="0.2" clip-path="url(#clip1_971_5742)">
<path d="M312.811 100.687C354.256 153.124 303.163 229.802 272.135 261.826C251.464 229.739 231.13 217.367 223.547 215.191C137.043 171.015 162.319 110.537 185.77 85.8198C226.709 48.3803 270.337 46.9504 312.811 100.687Z" fill="#86C197"/>
<path d="M193.809 -151.01C-23.92 -170.704 -42.7664 -22.8489 -28.1267 55.3629C-94.9455 -29.1709 -70.5159 -129.44 18.9513 -164.686C90.5251 -192.883 164.993 -169.63 193.809 -151.01Z" fill="#86C197"/>
<path d="M309.509 -30.0206C93.6902 -180.924 46.9418 49.0558 61.4445 111.706C-8.14994 35.7406 15.7976 -74.1309 101.963 -116.817C209.88 -170.28 288.679 -61.725 309.509 -30.0206Z" fill="#86C197"/>
<path d="M49.3635 183.314C144.076 174.636 225.319 220.809 228.309 255.818C236.97 357.197 -1.46022 392.895 -118.999 226.354C-209.374 98.3011 -132.629 -40.6481 -79.6684 -87.4716C-79.3198 -87.7882 -78.9672 -88.0969 -78.6104 -88.3974C-78.962 -88.0929 -79.3147 -87.7843 -79.6684 -87.4716C-132.928 -39.0888 -91.1951 196.192 49.3635 183.314Z" fill="#86C197"/>
<path d="M215.81 15.3316C289.795 8.13781 327.532 70.8744 338.475 105.429C329.55 -26.6782 204.904 -73.7675 133.185 -12.4907C78.8821 33.906 107.95 129.138 134.552 162.793C107.722 118.038 123.329 24.3238 215.81 15.3316Z" fill="#86C197"/>
</g>
</g>
<defs>
<clipPath id="clip0_971_5742">
<rect x="0.748047" width="1320" height="598" rx="24" fill="white"/>
</clipPath>
<clipPath id="clip1_971_5742">
<rect width="610.444" height="610.444" fill="white" transform="translate(138.955 -339.444) rotate(51.6762)"/>
</clipPath>
</defs>
</svg>
