<svg width="512" height="512" viewBox="0 0 512 512" fill="none" xmlns="http://www.w3.org/2000/svg">
<g clip-path="url(#clip0_593_23)">
<path d="M406.588 271.998V240.002C465.934 232.568 512 181.799 512 120.471C512 54.0431 457.957 0 391.529 0C330.201 0 279.432 46.0659 271.998 105.412H240.002C232.568 46.0659 181.799 0 120.471 0C54.0431 0 0 54.0431 0 120.471C0 181.799 46.0649 232.568 105.412 240.002V271.998C46.0649 279.432 0 330.201 0 391.529C0 457.957 54.0431 512 120.471 512C181.799 512 232.568 465.934 240.002 406.588H271.998C279.432 465.934 330.201 512 391.529 512C457.957 512 512 457.957 512 391.529C512 330.201 465.934 279.432 406.588 271.998ZM135.529 271.998V240.002C189.942 233.186 233.186 189.941 240.002 135.529H271.998C278.813 189.941 322.058 233.186 376.471 240.002V271.998C322.059 278.813 278.814 322.058 271.998 376.471H240.002C233.186 322.059 189.942 278.814 135.529 271.998ZM368.941 112.941C368.941 100.487 379.075 90.3529 391.529 90.3529C403.984 90.3529 414.118 100.487 414.118 112.941C414.118 125.396 403.984 135.529 391.529 135.529C379.075 135.529 368.941 125.396 368.941 112.941ZM391.529 165.647C412.533 165.647 430.234 180.055 435.269 199.506C408.105 214.6 374.969 214.608 347.789 199.506C352.825 180.055 370.525 165.647 391.529 165.647ZM391.529 30.1176C441.35 30.1176 481.882 70.65 481.882 120.471C481.882 142.981 473.607 163.593 459.94 179.43C453.806 166.115 443.903 154.891 431.599 147.124C439.469 137.913 444.235 125.977 444.235 112.941C444.235 83.8797 420.591 60.2353 391.529 60.2353C362.468 60.2353 338.824 83.8797 338.824 112.941C338.824 125.976 343.59 137.913 351.46 147.124C339.156 154.89 329.254 166.115 323.119 179.43C309.452 163.593 301.176 142.981 301.176 120.471C301.176 70.65 341.709 30.1176 391.529 30.1176ZM52.0604 179.43C38.393 163.593 30.1176 142.981 30.1176 120.471C30.1176 70.65 70.65 30.1176 120.471 30.1176C170.291 30.1176 210.824 70.65 210.824 120.471C210.824 142.981 202.548 163.593 188.881 179.43C182.746 166.116 172.844 154.891 160.54 147.124C189.457 113.274 165.654 60.2353 120.471 60.2353C75.3232 60.2353 51.467 113.255 80.4011 147.124C68.097 154.89 58.1953 166.116 52.0604 179.43ZM143.059 112.941C143.059 125.396 132.926 135.529 120.471 135.529C108.015 135.529 97.8824 125.396 97.8824 112.941C97.8824 100.487 108.015 90.3529 120.471 90.3529C132.926 90.3529 143.059 100.487 143.059 112.941ZM120.471 165.647C141.474 165.647 159.175 180.055 164.21 199.506C137.046 214.6 103.91 214.608 76.7297 199.506C81.7664 180.055 99.4676 165.647 120.471 165.647ZM76.7307 470.565C81.7664 451.114 99.4676 436.706 120.471 436.706C141.474 436.706 159.175 451.114 164.21 470.565C137.047 485.659 103.91 485.667 76.7307 470.565ZM97.8824 384C97.8824 371.545 108.015 361.412 120.471 361.412C132.926 361.412 143.059 371.545 143.059 384C143.059 396.455 132.926 406.588 120.471 406.588C108.015 406.588 97.8824 396.455 97.8824 384ZM188.881 450.488C182.746 437.174 172.844 425.949 160.54 418.182C189.457 384.333 165.654 331.294 120.471 331.294C75.3232 331.294 51.467 384.315 80.4011 418.183C68.097 425.949 58.1953 437.175 52.0604 450.489C38.393 434.652 30.1176 414.039 30.1176 391.529C30.1176 341.709 70.65 301.176 120.471 301.176C170.291 301.176 210.824 341.709 210.824 391.529C210.824 414.039 202.548 434.652 188.881 450.488ZM347.79 470.565C352.825 451.114 370.525 436.706 391.529 436.706C412.533 436.706 430.234 451.114 435.269 470.565C408.106 485.659 374.969 485.667 347.79 470.565ZM368.941 384C368.941 371.545 379.075 361.412 391.529 361.412C403.984 361.412 414.118 371.545 414.118 384C414.118 396.455 403.984 406.588 391.529 406.588C379.075 406.588 368.941 396.455 368.941 384ZM459.94 450.488C453.806 437.173 443.903 425.949 431.599 418.182C460.501 384.353 436.748 331.294 391.529 331.294C346.328 331.294 322.55 384.343 351.46 418.183C339.156 425.949 329.254 437.174 323.119 450.489C309.452 434.652 301.176 414.039 301.176 391.529C301.176 341.709 341.709 301.176 391.529 301.176C441.35 301.176 481.882 341.709 481.882 391.529C481.882 414.039 473.607 434.652 459.94 450.488Z" fill="#007F62"/>
<path d="M240.941 240.941H271.059V271.059H240.941V240.941Z" fill="#007F62"/>
</g>
<defs>
<clipPath id="clip0_593_23">
<rect width="512" height="512" fill="white"/>
</clipPath>
</defs>
</svg>
