<svg width="512" height="512" viewBox="0 0 512 512" fill="none" xmlns="http://www.w3.org/2000/svg">
<g clip-path="url(#clip0_578_167)">
<path d="M166 302C166 279.355 153.387 259.605 134.82 249.393L172.213 212H215.188L236.301 275.338C212.867 283.509 196 305.815 196 332C196 365.084 222.916 392 256 392C289.084 392 316 365.084 316 332C316 305.815 299.133 283.509 275.698 275.338L296.812 212H339.787L377.18 249.393C358.613 259.605 346 279.355 346 302C346 335.084 372.916 362 406 362C439.084 362 466 335.084 466 302C466 274.094 446.849 250.576 421 243.899V212H451V0H61V212H91V243.899C65.151 250.576 46 274.094 46 302C46 335.084 72.916 362 106 362C139.084 362 166 335.084 166 302ZM286 332C286 348.542 272.542 362 256 362C239.458 362 226 348.542 226 332C226 315.458 239.458 302 256 302C272.542 302 286 315.458 286 332ZM436 302C436 318.542 422.542 332 406 332C389.458 332 376 318.542 376 302C376 285.458 389.458 272 406 272C422.542 272 436 285.458 436 302ZM91 30H421V182H391V220.787L352.213 182H275.188L256 239.566L236.812 182H159.787L121 220.787V182H91V30ZM106 332C89.458 332 76 318.542 76 302C76 285.458 89.458 272 106 272C122.542 272 136 285.458 136 302C136 318.542 122.542 332 106 332Z" fill="white"/>
<path d="M436 362H376C349.95 362 326.163 375.524 312.618 396.897C304.34 393.743 295.372 392 286 392H226C216.628 392 207.66 393.743 199.382 396.897C185.837 375.524 162.05 362 136 362H76C34.542 362 0 395.534 0 437V482H151V512H361V482H512V437C512 395.542 477.466 362 436 362ZM152.509 452H30V437C30 412.607 51.065 392 76 392H91V422H121V392H136C151.649 392 165.935 400.13 174.059 412.975C163.3 423.322 155.601 436.829 152.509 452ZM331 482H181V467C181 442.187 201.187 422 226 422H241V452H271V422H286C310.813 422 331 442.187 331 467V482ZM482 452H359.491C356.399 436.829 348.7 423.322 337.942 412.975C346.065 400.13 360.351 392 376 392H391V422H421V392H436C460.935 392 482 412.607 482 437V452Z" fill="white"/>
<path d="M301 60H331V152H301V60Z" fill="white"/>
<path d="M241 92H271V152H241V92Z" fill="white"/>
<path d="M181 122H211V152H181V122Z" fill="white"/>
</g>
<defs>
<clipPath id="clip0_578_167">
<rect width="512" height="512" fill="white"/>
</clipPath>
</defs>
</svg>
