<svg width="511" height="511" viewBox="0 0 511 511" fill="none" xmlns="http://www.w3.org/2000/svg">
<g clip-path="url(#clip0_483_59)">
<path d="M365.507 285.674H359.815V251.952C359.815 215.462 330.128 185.775 293.638 185.775C273.703 185.775 257.485 201.994 257.485 221.929V266.697L239.102 288.581L226.79 294.569V289.303C226.79 252.66 201.105 221.922 166.799 214.093C190.719 197.362 206.394 169.618 206.394 138.278C206.394 87.2906 164.914 45.8096 113.926 45.8096C62.9385 45.8096 21.4575 87.2906 21.4575 138.278C21.4575 169.618 37.1335 197.362 61.0525 214.093C26.7465 221.923 1.0625 252.66 1.0625 289.303V395.363H128.818V490.96H207.919L241.534 510.962H365.507C401.705 510.962 431.154 481.513 431.154 445.314V351.322C431.155 315.123 401.706 285.674 365.507 285.674ZM113.926 75.8086C148.371 75.8086 176.394 103.832 176.394 138.277C176.394 172.722 148.372 200.745 113.926 200.745C79.4805 200.745 51.4575 172.722 51.4575 138.277C51.4575 103.832 79.4805 75.8086 113.926 75.8086ZM31.0625 365.363V289.303C31.0625 263.299 52.2185 242.143 78.2225 242.143H149.629C175.633 242.143 196.788 263.299 196.788 289.303V303.419H128.818V365.363H31.0625ZM158.82 333.418H197.046V460.959H158.82V333.418ZM401.155 445.313C401.155 464.969 385.163 480.961 365.507 480.961H249.785L227.046 467.43V327.803L257.965 312.766L287.486 277.625V221.928C287.486 218.535 290.247 215.774 293.639 215.774C313.587 215.774 329.816 232.003 329.816 251.951V315.673H365.507C385.163 315.673 401.155 331.665 401.155 351.321V445.313Z" fill="#017F62"/>
<path d="M295.057 134.223H322.184C333.26 110.768 352.277 91.751 375.732 80.675V53.548C352.277 42.472 333.26 23.455 322.184 0H295.057C283.981 23.455 264.964 42.472 241.508 53.548V80.675C264.964 91.751 283.981 110.768 295.057 134.223ZM308.621 35.681C317.388 47.729 328.004 58.345 340.052 67.112C328.004 75.879 317.388 86.495 308.621 98.543C299.853 86.495 289.238 75.879 277.19 67.112C289.238 58.344 299.853 47.729 308.621 35.681Z" fill="#017F62"/>
<path d="M456.351 107.608H429.224C418.148 131.063 399.131 150.08 375.676 161.156V188.283C399.131 199.358 418.148 218.375 429.224 241.83H456.351C467.427 218.375 486.444 199.358 509.899 188.283V161.156C486.444 150.08 467.427 131.063 456.351 107.608ZM442.788 206.15C434.022 194.104 423.403 183.486 411.357 174.72C423.403 165.953 434.022 155.335 442.788 143.289C451.554 155.335 462.173 165.953 474.219 174.72C462.172 183.486 451.553 194.104 442.788 206.15Z" fill="#017F62"/>
</g>
<defs>
<clipPath id="clip0_483_59">
<rect width="510.961" height="510.961" fill="white"/>
</clipPath>
</defs>
</svg>
