<svg width="512" height="512" viewBox="0 0 512 512" fill="none" xmlns="http://www.w3.org/2000/svg">
<g clip-path="url(#clip0_578_202)">
<path d="M211.956 140.75V264.309L316.971 316.817L421.987 264.309V140.75L316.971 88.2422L211.956 140.75ZM373.439 150.021L316.971 178.255L260.504 150.021L316.971 121.788L373.439 150.021ZM241.96 174.296L301.969 204.3V275.77L241.96 245.766V174.296ZM331.973 275.77V204.3L391.982 174.296V245.766L331.973 275.77Z" fill="white"/>
<path d="M316.971 0C209.432 0 121.942 87.49 121.942 195.029C121.942 232.529 132.591 267.584 151.007 297.347L0 448.356L63.6444 512L214.652 360.992C244.416 379.409 279.471 390.058 316.971 390.058C424.51 390.058 512 302.568 512 195.029C512 87.49 424.511 0 316.971 0ZM63.6444 469.568L42.4333 448.356L168.935 321.854C175.455 329.453 182.547 336.546 190.147 343.066L63.6444 469.568ZM316.971 360.053C225.977 360.053 151.947 286.023 151.947 195.029C151.947 104.034 225.977 30.0045 316.971 30.0045C407.966 30.0045 481.996 104.034 481.996 195.029C481.996 286.023 407.967 360.053 316.971 360.053Z" fill="white"/>
</g>
<defs>
<clipPath id="clip0_578_202">
<rect width="512" height="512" fill="white"/>
</clipPath>
</defs>
</svg>
