<svg width="512" height="512" viewBox="0 0 512 512" fill="none" xmlns="http://www.w3.org/2000/svg">
<path d="M0 60.25V451.75H512V60.25H0ZM150.5 90.25H180.75V120.5H150.5V90.25ZM90.25 90.25H120.5V120.5H90.25V90.25ZM30 90.25H60.25V120.5H30V90.25ZM482 421.75H30V150.5H482V421.75ZM482 120.5H210.75V90.25H482V120.5Z" fill="#007F62"/>
<path d="M145.583 351.508C170.465 351.508 190.708 331.265 190.708 306.383H160.708C160.708 314.723 153.923 321.508 145.583 321.508C137.243 321.508 130.458 314.723 130.458 306.383V262.133C130.458 253.793 137.243 247.008 145.583 247.008C153.923 247.008 160.708 253.793 160.708 262.133H190.708C190.708 237.251 170.465 217.008 145.583 217.008C120.701 217.008 100.458 237.251 100.458 262.133V306.383C100.458 331.265 120.701 351.508 145.583 351.508Z" fill="#007F62"/>
<path d="M351.292 295.318L366.417 327.72L381.542 295.318V351.508H411.542V217.008H384.99L366.417 256.796L347.844 217.008H321.292V351.508H351.292V295.318Z" fill="#007F62"/>
<path d="M240.875 307.258H247.147L273.637 355.243L299.901 340.745L278.184 301.405C291.867 293.645 301.126 278.954 301.126 262.133C301.126 237.251 280.883 217.008 256.001 217.008H210.876V351.508H240.876V307.258H240.875ZM240.875 247.008H256C264.34 247.008 271.125 253.793 271.125 262.133C271.125 270.473 264.34 277.258 256 277.258H240.875V247.008Z" fill="#007F62"/>
</svg>
