<svg width="65" height="65" viewBox="0 0 65 65" fill="none" xmlns="http://www.w3.org/2000/svg">
<rect x="0.339844" y="0.148926" width="64" height="64" rx="8" fill="#EEF6F1"/>
<path d="M16.2747 16.9074H12.9792C12.5261 16.9074 12.1553 17.2782 12.1553 17.7313C12.1553 18.1844 12.5261 18.5552 12.9792 18.5552H16.2747C16.7278 18.5552 17.0985 18.1844 17.0985 17.7313C17.0985 17.2782 16.7278 16.9074 16.2747 16.9074ZM51.7011 23.4983H50.0533C49.6002 23.4983 49.2295 23.8691 49.2295 24.3222C49.2295 24.7753 49.6002 25.1461 50.0533 25.1461H51.7011C52.1542 25.1461 52.5249 24.7753 52.5249 24.3222C52.5249 23.8691 52.1542 23.4983 51.7011 23.4983ZM16.2747 45.7429H12.9792C12.5261 45.7429 12.1553 46.1137 12.1553 46.5668C12.1553 47.0199 12.5261 47.3906 12.9792 47.3906H16.2747C16.7278 47.3906 17.0985 47.0199 17.0985 46.5668C17.0985 46.1137 16.7278 45.7429 16.2747 45.7429ZM53.3483 21.027C53.3483 21.4801 52.9775 21.8509 52.5244 21.8509H49.336C49.0477 21.8509 48.7758 22.0074 48.6275 22.2546L46.642 25.5665C46.6008 25.6324 46.5596 25.6901 46.5102 25.7312C47.2022 27.6179 47.5812 29.6446 47.5812 31.7374C47.5812 41.2779 39.8202 49.0383 30.2803 49.0383C29.1187 49.0383 27.9487 48.9229 26.8201 48.6923C26.3752 48.6016 26.0868 48.165 26.1774 47.7201C26.268 47.2752 26.6965 46.9868 27.1496 47.0774C28.1712 47.2834 29.2257 47.3905 30.2803 47.3905C34.3007 47.3905 37.9669 45.8664 40.7435 43.37L29.9428 32.561H14.6519C14.9403 38.2703 18.2605 43.3041 23.4511 45.825C23.863 46.0228 24.0278 46.5171 23.83 46.929C23.6323 47.3327 23.138 47.5058 22.7343 47.308C22.1329 47.0114 21.5479 46.6901 20.9959 46.3441L19.1093 49.483C18.6644 50.2245 17.857 50.6858 16.992 50.6858H12.1559C11.7028 50.6858 11.332 50.3151 11.332 49.862C11.332 49.4088 11.7028 49.0381 12.1559 49.0381H16.992C17.2803 49.0381 17.5522 48.8816 17.7005 48.6344L19.6449 45.3966C15.4679 42.1589 12.9796 37.1912 12.9796 31.7371C12.9796 26.283 15.4512 21.5375 19.3153 18.366L17.7005 15.6637C17.5522 15.4166 17.2804 15.26 16.992 15.26H12.1559C11.7028 15.26 11.332 14.8893 11.332 14.4362C11.332 13.983 11.7028 13.6123 12.1559 13.6123H16.992C17.857 13.6123 18.6644 14.0737 19.1093 14.8151L20.6499 17.3773C23.4017 15.5154 26.7136 14.4362 30.2811 14.4362C30.7342 14.4362 31.105 14.8069 31.105 15.26V31.3993L41.9141 42.2C44.4104 39.4236 45.9345 35.7572 45.9345 31.7368C45.9345 24.5859 41.1067 18.3572 34.1943 16.5777C33.7576 16.4623 33.4857 16.0175 33.6011 15.5726C33.7164 15.136 34.1613 14.864 34.6062 14.9794C39.5411 16.2481 43.5202 19.5848 45.7116 23.9104L47.2193 21.4058C47.6642 20.6644 48.4715 20.203 49.3366 20.203H52.5249C52.9781 20.203 53.3488 20.5737 53.3488 21.0269L53.3483 21.027Z" fill="#007F62"/>
</svg>
