<svg width="65" height="65" viewBox="0 0 65 65" fill="none" xmlns="http://www.w3.org/2000/svg">
<rect x="0.34375" y="0.148926" width="64" height="64" rx="8" fill="#EEF6F1"/>
<g clip-path="url(#clip0_1454_1734)">
<path d="M24.1327 32.6286H28.5938C28.8329 34.4939 30.4121 35.9473 32.3407 35.9473C34.2713 35.9473 35.8514 34.4939 36.0905 32.6286H40.5535C45.2998 32.6286 49.1618 28.7675 49.1618 24.0203C49.1618 19.2731 45.3007 15.411 40.5535 15.411H23.071C22.8319 13.5457 21.2518 12.0933 19.3222 12.0933C17.2274 12.0933 15.5234 13.7963 15.5234 15.8901C15.5234 17.9848 17.2274 19.6878 19.3222 19.6878C21.2518 19.6878 22.8319 18.2353 23.071 16.371H40.5554C44.7727 16.371 48.2038 19.8021 48.2038 24.0203C48.2038 28.2376 44.7727 31.6686 40.5554 31.6686H36.0924C35.8534 29.8033 34.2722 28.3509 32.3426 28.3509C30.414 28.3509 28.8348 29.8033 28.5958 31.6686H24.1346C19.3874 31.6686 15.5254 35.5297 15.5254 40.2769C15.5254 45.0241 19.3874 48.8853 24.1346 48.8853H41.6172C41.8562 50.7515 43.4364 52.204 45.365 52.204C47.4598 52.204 49.1628 50.5 49.1628 48.4053C49.1628 46.3115 47.4598 44.6085 45.365 44.6085C43.4354 44.6085 41.8562 46.06 41.6172 47.9253H24.1327C19.9145 47.9253 16.4834 44.4942 16.4834 40.2769C16.4834 36.0587 19.9154 32.6286 24.1327 32.6286Z" fill="#007F62" stroke="#007F62" stroke-width="0.5"/>
<path d="M55.6369 25.7555C55.4727 25.5462 55.1703 25.5078 54.9639 25.672L53.8676 26.5245C53.9857 25.9523 54.049 25.3686 54.049 24.7744C54.049 23.0435 53.5383 21.376 52.5716 19.9504C52.4237 19.7305 52.1233 19.6739 51.9053 19.8227C51.6855 19.9715 51.6289 20.2701 51.7767 20.4889C52.6359 21.7542 53.089 23.2365 53.089 24.7744C53.089 25.3869 53.0093 25.9869 52.8692 26.5705L52.0935 25.0768C51.9706 24.8416 51.6788 24.7513 51.4465 24.8723C51.2113 24.9942 51.1191 25.2841 51.242 25.5193L52.5524 28.0441C52.5581 28.0537 52.5687 28.0576 52.5735 28.0662C52.5841 28.0835 52.5869 28.1017 52.5985 28.1171C52.6042 28.1248 52.6138 28.1277 52.6186 28.1344C52.6426 28.1622 52.6733 28.1843 52.7041 28.2064C52.7204 28.2179 52.7329 28.2304 52.7511 28.24C52.7626 28.2467 52.7722 28.2534 52.7837 28.2592C52.7885 28.2611 52.7924 28.2659 52.7972 28.2678C52.8567 28.2918 52.9172 28.3033 52.9777 28.3033C53.0525 28.3033 53.1284 28.2851 53.1985 28.2486C53.209 28.2438 53.2148 28.2342 53.2234 28.2285C53.2349 28.2208 53.2436 28.2141 53.2551 28.2073C53.2599 28.2035 53.2666 28.2054 53.2714 28.2016L55.5505 26.4294C55.7607 26.2662 55.7991 25.9657 55.6369 25.7555Z" fill="#007F62"/>
<path d="M13.236 41.1286C12.9999 41.0028 12.71 41.0988 12.589 41.333L11.8143 42.8258C11.6741 42.2422 11.5944 41.6431 11.5944 41.0316C11.5944 39.4937 12.0485 38.0124 12.9068 36.7462C13.0556 36.5263 12.9989 36.2287 12.7791 36.0799C12.5602 35.934 12.2607 35.9887 12.1128 36.2086C11.1461 37.6332 10.6344 39.3017 10.6344 41.0316C10.6344 41.6249 10.6978 42.2095 10.8168 42.7817L9.72053 41.9292C9.51125 41.766 9.20885 41.8054 9.04661 42.0137C8.88341 42.223 8.92181 42.5244 9.13013 42.6866L11.4092 44.4588C11.414 44.4626 11.4207 44.4607 11.4264 44.4646C11.437 44.4732 11.4466 44.4799 11.4591 44.4857C11.4677 44.4914 11.4735 44.501 11.4831 44.5058C11.5541 44.5433 11.629 44.5606 11.7039 44.5606C11.7644 44.5606 11.8248 44.549 11.8844 44.526C11.8901 44.5241 11.893 44.5193 11.8988 44.5164C11.9103 44.5116 11.9199 44.5039 11.9314 44.4972C11.9487 44.4886 11.9612 44.4761 11.9765 44.4646C12.0082 44.4425 12.0389 44.4194 12.0639 44.3906C12.0696 44.3839 12.0783 44.381 12.084 44.3743C12.0946 44.359 12.0975 44.3407 12.1071 44.3254C12.1128 44.3148 12.1244 44.311 12.1301 44.3014L13.4405 41.7756C13.5624 41.5394 13.4712 41.2495 13.236 41.1286Z" fill="#007F62"/>
</g>
<defs>
<clipPath id="clip0_1454_1734">
<rect width="48" height="48" fill="white" transform="translate(8.34375 8.14893)"/>
</clipPath>
</defs>
</svg>
