<svg width="512" height="512" viewBox="0 0 512 512" fill="none" xmlns="http://www.w3.org/2000/svg">
<g clip-path="url(#clip0_593_32)">
<path d="M390.913 154.664V85.8736C390.913 38.5776 352.47 0.0996094 305.216 0.0996094H0V511.9H512V154.664H390.913ZM360.411 78.4946C354.272 75.8686 347.592 74.4816 340.676 74.4816H314.684V50.9726C314.684 43.6336 313.115 36.6566 310.315 30.3436C336.202 32.7076 357.012 52.8806 360.411 78.4946ZM189.667 154.664V184.664H237.785V214.664H189.667V244.664H237.785V274.664H189.667V304.664H237.785V334.751H75.49V364.751H237.785V394.839H75.49V424.839H237.785V481.9H30V30.0996H266.339C276.673 31.4506 284.684 40.2846 284.684 50.9726V104.482H340.676C346.088 104.482 351.122 106.564 354.85 110.345C358.843 114.396 360.996 119.923 360.912 125.909L360.911 154.664H189.667ZM482 481.9H267.785V184.664H482V481.9Z" fill="#007F62"/>
<path d="M298.877 229.541H450.908V259.541H298.877V229.541Z" fill="#007F62"/>
<path d="M299.865 292.408H329.876V322.408H299.865V292.408Z" fill="#007F62"/>
<path d="M359.888 292.408H389.899V322.408H359.888V292.408Z" fill="#007F62"/>
<path d="M419.909 292.408H449.92V322.408H419.909V292.408Z" fill="#007F62"/>
<path d="M299.865 352.496H329.876V382.496H299.865V352.496Z" fill="#007F62"/>
<path d="M359.888 352.496H389.899V382.496H359.888V352.496Z" fill="#007F62"/>
<path d="M419.909 352.496H449.92V382.496H419.909V352.496Z" fill="#007F62"/>
<path d="M299.865 412.584H329.876V442.584H299.865V412.584Z" fill="#007F62"/>
<path d="M359.888 412.584H389.899V442.584H359.888V412.584Z" fill="#007F62"/>
<path d="M419.909 412.584H449.92V442.584H419.909V412.584Z" fill="#007F62"/>
<path d="M118.833 169.15C126.189 169.15 132.175 175.135 132.175 182.492H162.175C162.175 163.864 150.361 147.946 133.833 141.829V118.467H103.833V141.828C87.3042 147.944 75.4902 163.863 75.4902 182.491C75.4902 206.39 94.9332 225.834 118.833 225.834H121.058C127.36 226.896 132.175 232.392 132.175 238.991C132.175 246.347 126.19 252.333 118.833 252.333C111.476 252.333 105.49 246.348 105.49 238.991H75.4902C75.4902 257.619 87.3042 273.538 103.833 279.654V303.015H133.833V279.653C150.361 273.537 162.175 257.618 162.175 238.99C162.175 215.091 142.732 195.647 118.833 195.647H116.608C110.306 194.585 105.49 189.089 105.49 182.49C105.49 175.136 111.476 169.15 118.833 169.15Z" fill="#007F62"/>
</g>
<defs>
<clipPath id="clip0_593_32">
<rect width="512" height="512" fill="white"/>
</clipPath>
</defs>
</svg>
