<svg width="512" height="512" viewBox="0 0 512 512" fill="none" xmlns="http://www.w3.org/2000/svg">
<g clip-path="url(#clip0_483_34)">
<path d="M421.645 210.821V30.1172H361.411V0H150.59V30.1172H90.3556V210.821H0.00390625V391.524H67.9675L149.605 495.658C165.458 515.861 195.429 517.611 213.522 499.349C219.288 493.527 223.067 486.394 224.793 478.852C243.82 479.912 261.338 468.209 267.548 450.071C288.616 453.769 308.939 441.368 315.499 421.347C319.493 421.999 323.26 422.055 327.027 421.641H396.087L441.263 391.524H511.996V210.821H421.645ZM391.528 60.2345V210.821H361.411V60.2345H391.528ZM331.293 30.1172V210.821H180.707V30.1172H331.293ZM120.473 60.2345H150.59V210.821H120.473V60.2345ZM312.557 387.089C311.173 385.237 310.192 383.942 310.013 383.68L310.007 383.684L286.759 352.645L262.653 370.699L285.453 401.139C288.698 406.09 288.065 412.656 283.877 416.883C278.545 422.264 269.808 421.728 265.136 415.906C265.06 415.804 241.799 384.733 239.34 381.463L215.234 399.517L238.173 430.144C242.952 438.786 236.316 449.364 226.444 448.782C223.413 448.607 220.663 447.395 218.52 445.347C218.429 445.213 218.346 445.078 218.253 444.945L218.166 445.006C217.065 443.874 218.752 445.872 191.564 409.659L167.458 427.713C170.461 431.723 157.227 414.055 193.586 462.593C196.841 466.728 196.524 473.712 192.125 478.153C186.793 483.536 177.959 483.004 173.302 477.071L82.6265 361.407H30.1211V240.938H227.416L137.979 310.999L143.48 322.001C163.308 361.66 214.321 373.881 249.983 347.136L291.142 316.231H291.772L332.783 372.168C337.84 379.643 333.561 389.775 324.9 391.524C324.268 391.452 317.526 393.284 312.557 387.089ZM481.88 361.407H432.144L386.968 391.524H363.239C366.888 379.387 365.069 365.859 357.431 354.859L329.113 316.231H376.469V286.114H281.093L231.907 323.047C214.96 335.758 191.483 333.391 177.335 318.427L276.255 240.938H481.88V361.407Z" fill="#017F62"/>
<path d="M210.824 75.293H240.941V105.41H210.824V75.293Z" fill="#017F62"/>
<path d="M271.059 75.293H301.176V105.41H271.059V75.293Z" fill="#017F62"/>
<path d="M210.824 135.527H240.941V165.645H210.824V135.527Z" fill="#017F62"/>
<path d="M271.059 135.527H301.176V165.645H271.059V135.527Z" fill="#017F62"/>
</g>
<defs>
<clipPath id="clip0_483_34">
<rect width="512" height="512" fill="white"/>
</clipPath>
</defs>
</svg>
