<svg width="512" height="512" viewBox="0 0 512 512" fill="none" xmlns="http://www.w3.org/2000/svg">
<g clip-path="url(#clip0_483_41)">
<path d="M506.061 294.48L492.655 287.768C455.6 269.215 410.571 284.228 392.04 321.342L369.252 366.87C355.933 345.933 332.54 332.001 305.939 332.001H236.92C214.657 311.921 186.141 300.935 155.939 300.935C125.737 300.935 97.2264 311.922 74.9644 332.001H5.93945V512.001H95.9395V485.446H410.577L506.061 294.48ZM65.9395 482.001H35.9395V362.001H65.9395V482.001ZM95.9395 455.446V353.521C112.55 338.926 133.625 330.935 155.939 330.935C199.594 330.935 222.498 360.445 224.726 362.001H305.939C325.494 362.001 342.167 374.542 348.359 392.001H185.939V422.001H375.206L418.874 334.756C427.736 317.005 446.533 307.889 464.678 310.163L392.036 455.446H95.9395Z" fill="#017F62"/>
<path d="M215.939 225V255C215.939 279.813 236.126 300 260.939 300C285.752 300 305.939 279.813 305.939 255V225C305.939 217.98 315.55 206.378 324.845 195.158C342.188 174.224 365.939 145.553 365.939 105C365.939 47.103 318.836 0 260.939 0C203.042 0 155.939 47.103 155.939 105C155.939 145.553 179.69 174.224 197.033 195.158C206.328 206.378 215.939 217.98 215.939 225ZM260.939 270C252.668 270 245.939 263.271 245.939 255V240H275.939V255C275.939 263.271 269.211 270 260.939 270ZM260.939 30C302.294 30 335.939 63.645 335.939 105C335.939 134.741 317.772 156.671 301.743 176.02C292.343 187.367 283.318 198.269 278.851 210H243.028C238.56 198.268 229.535 187.366 220.136 176.02C204.107 156.671 185.94 134.742 185.94 105C185.939 63.645 219.584 30 260.939 30Z" fill="#017F62"/>
<path d="M245.94 180.001H275.94V141.214L301.547 115.608L280.334 94.3936L260.94 113.788L241.547 94.3936L220.334 115.608L245.94 141.214V180.001Z" fill="#017F62"/>
<path d="M65.9395 96H125.939V126H65.9395V96Z" fill="#017F62"/>
<path d="M395.939 96H455.939V126H395.939V96Z" fill="#017F62"/>
<path d="M84.5625 195.506L136.522 165.506L151.522 191.486L99.5625 221.486L84.5625 195.506Z" fill="#017F62"/>
<path d="M370.236 30.5059L422.195 -0.05457L437.405 25.8054L385.446 56.3659L370.236 30.5059Z" fill="#017F62"/>
<path d="M84.4805 25.8857L99.6905 0.0257425L151.649 30.5862L136.439 56.4462L84.4805 25.8857Z" fill="#017F62"/>
<path d="M370.35 191.502L385.35 165.522L437.31 195.522L422.31 221.502L370.35 191.502Z" fill="#017F62"/>
</g>
<defs>
<clipPath id="clip0_483_41">
<rect width="512" height="512" fill="white"/>
</clipPath>
</defs>
</svg>
