<svg width="24" height="24" viewBox="0 0 24 24" fill="none" xmlns="http://www.w3.org/2000/svg">
<path d="M2.23438 0.678711H22.2344C22.9248 0.678711 23.4844 1.23836 23.4844 1.92871V21.9287C23.4844 22.6191 22.9248 23.1787 22.2344 23.1787H2.23438C1.54401 23.1787 0.984375 22.6191 0.984375 21.9287V1.92871C0.984375 1.23836 1.54401 0.678711 2.23438 0.678711ZM3.48438 3.17871V20.6787H20.9844V3.17871H3.48438ZM6.60938 8.17871C5.57384 8.17871 4.73438 7.33925 4.73438 6.30371C4.73438 5.26817 5.57384 4.42871 6.60938 4.42871C7.6449 4.42871 8.48438 5.26817 8.48438 6.30371C8.48438 7.33925 7.6449 8.17871 6.60938 8.17871ZM5.35938 9.42871H7.85938V18.8037H5.35938V9.42871ZM12.2344 9.96559C12.9649 9.26039 13.8163 8.80371 14.7344 8.80371C17.3232 8.80371 19.1094 10.9023 19.1094 13.4912V18.8037H16.6094V13.4912C16.6094 12.2831 15.63 11.3037 14.4219 11.3037C13.2138 11.3037 12.2344 12.2831 12.2344 13.4912V18.8037H9.7344V9.42871H12.2344V9.96559Z" fill="#1D6FCF"/>
</svg>
