<svg width="24" height="24" viewBox="0 0 24 24" fill="none" xmlns="http://www.w3.org/2000/svg">
<path d="M2 0.875H22C22.6904 0.875 23.25 1.43465 23.25 2.125V22.125C23.25 22.8154 22.6904 23.375 22 23.375H2C1.30964 23.375 0.75 22.8154 0.75 22.125V2.125C0.75 1.43465 1.30964 0.875 2 0.875ZM3.25 3.375V20.875H20.75V3.375H3.25ZM6.375 8.375C5.33946 8.375 4.5 7.53554 4.5 6.5C4.5 5.46446 5.33946 4.625 6.375 4.625C7.41052 4.625 8.25 5.46446 8.25 6.5C8.25 7.53554 7.41052 8.375 6.375 8.375ZM5.125 9.625H7.625V19H5.125V9.625ZM12 10.1619C12.7305 9.45667 13.5819 9 14.5 9C17.0888 9 18.875 11.0986 18.875 13.6875V19H16.375V13.6875C16.375 12.4794 15.3957 11.5 14.1875 11.5C12.9794 11.5 12 12.4794 12 13.6875V19H9.50003V9.625H12V10.1619Z" fill="#1D6FCF"/>
</svg>
