<?xml version="1.0" encoding="UTF-8"?>
<svg xmlns="http://www.w3.org/2000/svg" xmlns:xlink="http://www.w3.org/1999/xlink" version="1.1" width="512" height="512" x="0" y="0" viewBox="0 0 511.354 511.354" style="enable-background:new 0 0 512 512" xml:space="preserve" class="">
  <g>
    <path d="M255.677 80c-55.14 0-100 44.86-100 100s44.86 100 100 100c55.141 0 100-44.86 100-100s-44.859-100-100-100zm0 160c-33.084 0-60-26.916-60-60s26.916-60 60-60 60 26.916 60 60-26.916 60-60 60zm0-240c-99.252 0-180 80.748-180 180 0 36.481 10.859 71.617 31.403 101.61l.111-.076 148.486 229.819 148.486-229.819.11.075c20.545-29.993 31.404-65.129 31.404-101.61C435.677 80.748 354.929 0 255.677 0zm121.497 249.597L255.677 437.646 134.18 249.598c-12.13-21.113-18.503-44.954-18.503-69.598 0-77.196 62.804-140 140-140s140 62.804 140 140c0 24.643-6.372 48.485-18.503 69.597z" fill="#1b1c1e" opacity="1" data-original="#000000" class=""/>
  </g>
</svg>
