<svg width="49" height="49" viewBox="0 0 49 49" fill="none" xmlns="http://www.w3.org/2000/svg">
<rect x="0.933594" y="0.26416" width="48" height="48" rx="8" fill="#DDE9FB"/>
<path d="M18.6105 16.5208C22.5385 13.3024 28.344 13.5265 32.0106 17.1931C35.9158 21.0983 35.9158 27.43 32.0106 31.3353C28.1053 35.2405 21.7736 35.2405 17.8684 31.3353C15.3439 28.8108 14.4513 25.2723 15.1907 22.0308L15.2673 21.7181L17.2017 22.2273C16.5042 24.8872 17.1979 27.8363 19.2826 29.9211C22.4068 33.0452 27.4721 33.0452 30.5963 29.9211C33.7205 26.7969 33.7205 21.7315 30.5963 18.6073C27.7787 15.7897 23.3821 15.5132 20.2546 17.7779L20.0334 17.944L21.0504 18.9609L16.4542 20.0215L17.5148 15.4253L18.6105 16.5208ZM25.9395 18.2642V20.2642H28.4395V22.2642H22.9395C22.6633 22.2642 22.4394 22.4881 22.4394 22.7642C22.4394 23.0097 22.6163 23.2138 22.8496 23.2561L22.9395 23.2642H26.9395C28.3202 23.2642 29.4395 24.3835 29.4395 25.7642C29.4395 27.1449 28.3202 28.2642 26.9395 28.2642H25.9395V30.2642H23.9395V28.2642H21.4394V26.2642H26.9395C27.2156 26.2642 27.4395 26.0403 27.4395 25.7642C27.4395 25.5187 27.2626 25.3146 27.0294 25.2723L26.9395 25.2642H22.9395C21.5587 25.2642 20.4394 24.1449 20.4394 22.7642C20.4394 21.3835 21.5587 20.2642 22.9395 20.2642H23.9395V18.2642H25.9395Z" fill="#1566DF"/>
</svg>
