<svg width="49" height="49" viewBox="0 0 49 49" fill="none" xmlns="http://www.w3.org/2000/svg">
<rect x="0.933594" y="0.26416" width="48" height="48" rx="8" fill="#DDE9FB"/>
<path d="M24.7947 14.6547C25.7831 13.9958 27.0672 13.9821 28.0694 14.6199L32.2246 17.2641H33.9334C34.4857 17.2641 34.9334 17.7118 34.9334 18.2641V27.2641C34.9334 27.8164 34.4857 28.2641 33.9334 28.2641H32.4137C32.4732 29.2114 32.0269 30.1744 31.1291 30.7131L26.0357 33.7692C25.3927 34.1549 24.5945 34.1459 23.965 33.7616C23.2647 34.3809 22.1867 34.4491 21.4046 33.8346L16.2639 29.7954C15.4975 29.1933 15.3037 28.1645 15.6994 27.3489C15.2161 26.9699 14.9336 26.3896 14.9336 25.7751V18.2642C14.9336 17.7119 15.3813 17.2642 15.9336 17.2642H20.8805L24.7947 14.6547ZM17.1062 25.9094L17.7983 25.3039C19.0285 24.2274 20.894 24.334 21.9936 25.5436L24.6958 28.516C25.5653 29.4725 25.7239 30.8777 25.0915 32.0032L30.1001 28.9981C30.3815 28.8293 30.4833 28.4918 30.3784 28.2075L25.9513 22.0097C25.7026 21.6615 25.26 21.5101 24.8502 21.6331L22.3649 22.3787C21.3078 22.6958 20.162 22.4069 19.3816 21.6265L19.0888 21.3337C18.5208 20.7657 18.3739 19.9573 18.6129 19.2642H16.9336V25.7751L17.1062 25.9094ZM26.9957 16.3072C26.6616 16.0946 26.2336 16.0992 25.9041 16.3188L20.503 19.9195L20.7958 20.2123C21.0559 20.4724 21.4379 20.5687 21.7903 20.463L24.2755 19.7174C25.5049 19.3486 26.8328 19.8028 27.5788 20.8472L31.448 26.2641H32.9334V19.2641H32.2246C31.8442 19.2641 31.4717 19.1556 31.1508 18.9514L26.9957 16.3072ZM19.1153 26.809L17.4995 28.2228L22.6403 32.262L23.3442 31.0301C23.5592 30.6539 23.5074 30.182 23.2159 29.8613L20.5137 26.8889C20.1472 26.4857 19.5253 26.4502 19.1153 26.809Z" fill="#1566DF"/>
</svg>
