<svg width="49" height="49" viewBox="0 0 49 49" fill="none" xmlns="http://www.w3.org/2000/svg">
<rect x="0.933594" y="0.26416" width="48" height="48" rx="8" fill="#DDE9FB"/>
<path d="M25.9336 13.2642L25.9346 16.3262C29.5528 16.7778 32.4205 19.6458 32.8717 23.2642H35.9336V25.2642L32.8716 25.2652C32.42 28.8831 29.5525 31.7506 25.9346 32.2022L25.9336 35.2642H23.9336V32.2023C20.3152 31.7511 17.4472 28.8834 16.9956 25.2652L13.9336 25.2642V23.2642H16.9955C17.4467 19.6455 20.3149 16.7773 23.9336 16.3261V13.2642H25.9336ZM24.9336 18.2642C21.6199 18.2642 18.9336 20.9504 18.9336 24.2642C18.9336 27.5779 21.6199 30.2642 24.9336 30.2642C28.2473 30.2642 30.9336 27.5779 30.9336 24.2642C30.9336 20.9504 28.2473 18.2642 24.9336 18.2642ZM24.9336 22.2642C26.0382 22.2642 26.9336 23.1596 26.9336 24.2642C26.9336 25.3688 26.0382 26.2642 24.9336 26.2642C23.829 26.2642 22.9336 25.3688 22.9336 24.2642C22.9336 23.1596 23.829 22.2642 24.9336 22.2642Z" fill="#1D6FCF"/>
</svg>
