<svg width="49" height="48" viewBox="0 0 49 48" fill="none" xmlns="http://www.w3.org/2000/svg">
<rect x="0.785156" width="48" height="48" rx="6" fill="#EEF6F1"/>
<path d="M22.7582 30H26.8121C26.9441 28.7984 27.5573 27.8065 28.5528 26.7226C28.6649 26.6006 29.384 25.8564 29.4693 25.7501C30.317 24.6931 30.7852 23.385 30.7852 22C30.7852 18.6863 28.0989 16 24.7852 16C21.4714 16 18.7852 18.6863 18.7852 22C18.7852 23.3843 19.2529 24.6917 20.0998 25.7484C20.1852 25.855 20.906 26.6012 21.0167 26.7218C22.0128 27.8064 22.6262 28.7984 22.7582 30ZM26.7852 32H22.7852V33H26.7852V32ZM18.5391 26.9992C17.4416 25.6297 16.7852 23.8915 16.7852 22C16.7852 17.5817 20.3669 14 24.7852 14C29.2035 14 32.7852 17.5817 32.7852 22C32.7852 23.8925 32.128 25.6315 31.0295 27.0014C30.4092 27.7748 28.7852 29 28.7852 30.5V33C28.7852 34.1046 27.8898 35 26.7852 35H22.7852C21.6806 35 20.7852 34.1046 20.7852 33V30.5C20.7852 29 19.1597 27.7736 18.5391 26.9992ZM25.7852 22.0048H28.2852L23.7852 28.0048V24.0048H21.2852L25.7852 18V22.0048Z" fill="#007F62"/>
</svg>
