<svg width="48" height="48" viewBox="0 0 48 48" fill="none" xmlns="http://www.w3.org/2000/svg">
<rect width="48" height="48" rx="6" fill="#EEF6F1"/>
<path d="M29 18C28.4477 18 28 17.5523 28 17C28 16.4477 28.4477 16 29 16C29.5523 16 30 16.4477 30 17C30 17.5523 29.5523 18 29 18ZM29 20C30.6569 20 32 18.6568 32 17C32 15.3432 30.6569 14 29 14C27.3431 14 26 15.3432 26 17C26 18.6568 27.3431 20 29 20ZM19 15C16.7909 15 15 16.7909 15 19V21H17V19C17 17.8954 17.8954 17 19 17H22V15H19ZM29 33C31.2091 33 33 31.2091 33 29V27H31V29C31 30.1046 30.1046 31 29 31H26V33H29ZM20 25C20 24.4477 19.5523 24 19 24C18.4477 24 18 24.4477 18 25C18 25.5523 18.4477 26 19 26C19.5523 26 20 25.5523 20 25ZM22 25C22 26.6569 20.6568 28 19 28C17.3432 28 16 26.6569 16 25C16 23.3431 17.3432 22 19 22C20.6568 22 22 23.3431 22 25ZM29 23C27.8954 23 27 23.8954 27 25H25C25 22.7909 26.7909 21 29 21C31.2091 21 33 22.7909 33 25H31C31 23.8954 30.1046 23 29 23ZM17 33C17 31.8954 17.8954 31 19 31C20.1046 31 21 31.8954 21 33H23C23 30.7909 21.2091 29 19 29C16.7909 29 15 30.7909 15 33H17Z" fill="#007F62"/>
</svg>
