<svg width="683" height="683" viewBox="0 0 683 683" fill="none" xmlns="http://www.w3.org/2000/svg">
<g clip-path="url(#clip0_593_80)">
<path d="M341.333 361.334C286.192 361.334 241.333 406.193 241.333 461.334C241.333 516.475 286.192 561.334 341.333 561.334C396.474 561.334 441.333 516.475 441.333 461.334C441.333 406.193 396.474 361.334 341.333 361.334ZM341.333 521.334C308.25 521.334 281.333 494.417 281.333 461.334C281.333 428.251 308.25 401.334 341.333 401.334C374.416 401.334 401.333 428.251 401.333 461.334C401.333 494.417 374.416 521.334 341.333 521.334Z" fill="#007F62"/>
<path d="M269.714 0H0V601.333H170.203L228.198 659.323L263.766 623.75C269.49 626.495 275.354 628.932 281.333 631.052V682.667H401.333V631.052C407.313 628.932 413.172 626.495 418.901 623.75L454.469 659.323L512.458 601.333H682.667V81.3333H349.714L269.714 0ZM454.469 602.755L425.74 574.021C416.833 578.771 402 590.276 376.328 596.906L361.333 600.781V642.667H321.333V600.781L306.339 596.906C280.688 590.281 266.135 578.932 256.927 574.021L228.198 602.755L199.911 574.469L228.646 545.74C223.734 536.536 212.391 521.995 205.76 496.328L201.885 481.333H161.333V441.333H201.885L205.76 426.339C212.385 400.688 223.734 386.135 228.646 376.927L199.911 348.198L228.198 319.911L256.927 348.646C265.833 343.896 280.667 332.391 306.339 325.76L321.333 321.885V281.333H361.333V321.885L376.328 325.76C401.979 332.385 416.583 343.76 425.74 348.646L454.469 319.911L482.755 348.198L454.021 376.932C458.948 386.161 470.281 400.672 476.906 426.339L480.781 441.333H521.333V481.333H480.781L476.906 496.333C470.286 521.979 458.938 536.531 454.021 545.74L482.755 574.474L454.469 602.755ZM526.188 561.333L503.75 538.901C506.495 533.172 508.932 527.313 511.047 521.333H561.333V401.333H511.047C508.932 395.359 506.495 389.495 503.75 383.766L539.323 348.198L454.469 263.344L418.896 298.917C413.172 296.172 407.313 293.734 401.333 291.615V241.333H281.333V291.615C275.354 293.734 269.49 296.172 263.766 298.917L228.193 263.344L143.344 348.198L178.911 383.766C176.172 389.49 173.734 395.354 171.615 401.333H121.333V521.333H171.615C173.734 527.307 176.172 533.172 178.917 538.901L156.479 561.333H40V201.333H642.667V561.333H526.188ZM642.667 161.333H40V40H252.953L332.953 121.333H642.667V161.333Z" fill="#007F62"/>
</g>
<defs>
<clipPath id="clip0_593_80">
<rect width="682.667" height="682.667" fill="white"/>
</clipPath>
</defs>
</svg>
