<svg width="512" height="512" viewBox="0 0 512 512" fill="none" xmlns="http://www.w3.org/2000/svg">
<g clip-path="url(#clip0_483_52)">
<path d="M485.939 294.892L499.614 291.362L510.472 228.715L471.839 217.8L467.477 181.468L399.649 147.073L355.138 176.654L324.184 172.322L341.71 131.448C366.93 72.6291 322.32 -1.89194 256 0.0390595C188.507 -1.92494 145.915 74.4781 171.155 133.466L123.288 163.222L105.809 149.466L49.44 127.363L8.904 159.781L30.627 205.868L0 233.204V399.717L41.512 412.009L52.088 453.229L85.036 495.282L169.468 511.999L190.237 479.749L239.987 474.679L253.75 504.08L291.825 511.371L317.085 476.119L381.226 477.411L424.257 464.759L485.778 469.232L512 435.244V351.595L485.939 294.892ZM256 30.0291C301.52 28.7191 331.34 79.5091 314.14 119.629L256 255.198L197.86 119.628C180.66 79.5091 210.48 28.7191 256 30.0291ZM481.99 425.018L471.866 438.14L421.007 434.443L377.2 447.323L301.89 445.806L278.611 478.294L274.439 477.495L258.139 442.673L172.824 451.367L155.282 478.606L101.795 468.016L79.596 439.682L66.355 388.075L30.01 377.314V246.636L67.321 213.334L46.148 168.415L54.637 161.626L90.726 175.778L121.263 199.809L183.115 161.358L242.21 299.178H269.79L311.93 200.899L362.263 207.943L401.685 181.744L439.593 200.966L444.428 241.23L476.285 250.23L473.351 267.156L443.687 274.815L481.99 358.154V425.018Z" fill="#017F62"/>
<path d="M271 106.869V76.8691H241V106.869H256H271Z" fill="#017F62"/>
</g>
<defs>
<clipPath id="clip0_483_52">
<rect width="512" height="512" fill="white"/>
</clipPath>
</defs>
</svg>
