<svg width="65" height="65" viewBox="0 0 65 65" fill="none" xmlns="http://www.w3.org/2000/svg">
<g clip-path="url(#clip0_1454_1767)">
<rect x="0.34375" y="0.148926" width="64" height="64" rx="8" fill="#EEF6F1"/>
<path d="M39.747 12.1362H24.9374C22.147 12.1362 19.875 14.4082 19.875 17.1986V47.0994C19.875 49.8898 22.147 52.1618 24.9374 52.1618H39.7534C42.5438 52.1618 44.8158 49.8898 44.8158 47.0994V17.1986C44.8094 14.4082 42.5438 12.1362 39.747 12.1362ZM42.8894 47.0994C42.8894 48.8338 41.4814 50.2418 39.747 50.2418H24.9374C23.203 50.2418 21.795 48.8338 21.795 47.0994V17.1986C21.795 15.4642 23.203 14.0562 24.9374 14.0562H39.7534C41.4878 14.0562 42.8958 15.4642 42.8958 17.1986V47.0994H42.8894Z" fill="#007F62" stroke="#007F62" stroke-width="0.5"/>
<path d="M33.477 46.4785H31.2178C30.6866 46.4785 30.2578 46.9073 30.2578 47.4385C30.2578 47.9697 30.6866 48.3985 31.2178 48.3985H33.477C34.0082 48.3985 34.437 47.9697 34.437 47.4385C34.437 46.9073 34.0018 46.4785 33.477 46.4785Z" fill="#007F62" stroke="#007F62" stroke-width="0.5"/>
<path d="M34.7558 16.6611H29.9366C29.4054 16.6611 28.9766 17.0899 28.9766 17.6211C28.9766 18.1523 29.4054 18.5811 29.9366 18.5811H34.7558C35.287 18.5811 35.7158 18.1523 35.7158 17.6211C35.7158 17.0899 35.2806 16.6611 34.7558 16.6611Z" fill="#007F62" stroke="#007F62" stroke-width="0.5"/>
</g>
<defs>
<clipPath id="clip0_1454_1767">
<rect x="0.34375" y="0.148926" width="64" height="64" rx="8" fill="white"/>
</clipPath>
</defs>
</svg>
