<svg width="59" height="59" viewBox="0 0 59 59" fill="none" xmlns="http://www.w3.org/2000/svg">
<rect x="1.21094" y="0.625488" width="57" height="57" rx="28.5" stroke="#222222"/>
<path d="M19.5078 28.1255C18.9555 28.1255 18.5078 28.5732 18.5078 29.1255C18.5078 29.6778 18.9555 30.1255 19.5078 30.1255V28.1255ZM40.6226 29.8326C41.0132 29.4421 41.0132 28.8089 40.6226 28.4184L34.2587 22.0544C33.8681 21.6639 33.235 21.6639 32.8445 22.0544C32.4539 22.4449 32.4539 23.0781 32.8445 23.4686L38.5013 29.1255L32.8445 34.7823C32.4539 35.1729 32.4539 35.806 32.8445 36.1966C33.235 36.5871 33.8681 36.5871 34.2587 36.1966L40.6226 29.8326ZM19.5078 30.1255H39.9155V28.1255H19.5078V30.1255Z" fill="#222222"/>
</svg>
