<svg width="512" height="512" viewBox="0 0 512 512" fill="none" xmlns="http://www.w3.org/2000/svg">
<g clip-path="url(#clip0_483_56)">
<path d="M436.667 180.667C423.373 180.667 410.88 184.142 400.026 190.211L295.158 67.883C299.024 61.22 301.25 53.493 301.25 45.25C301.25 20.299 280.951 0 256 0C231.049 0 210.75 20.299 210.75 45.25C210.75 49.114 211.239 52.865 212.154 56.448L128.41 112.264C114.782 98.719 96.02 90.333 75.333 90.333C33.794 90.333 0 124.128 0 165.667C0 202.071 25.957 232.522 60.333 239.496V272.504C25.957 279.478 0 309.929 0 346.333C0 387.872 33.794 421.667 75.333 421.667C96.02 421.667 114.782 413.282 128.41 399.736L212.154 455.552C211.239 459.135 210.75 462.886 210.75 466.75C210.75 491.701 231.049 512 256 512C280.951 512 301.25 491.701 301.25 466.75C301.25 458.508 299.024 450.78 295.158 444.117L400.026 321.788C410.88 327.857 423.372 331.332 436.667 331.332C478.206 331.333 512 297.539 512 256C512 214.461 478.206 180.667 436.667 180.667ZM120.522 225.901L214.132 309.106C213.214 311.339 212.475 313.663 211.921 316.057L147.04 323.269C138.772 297.623 117.113 277.936 90.332 272.503V239.495C101.482 237.234 111.743 232.504 120.522 225.901ZM256 281C248.046 281 240.57 283.07 234.069 286.688L140.45 203.475C143.147 198.847 145.37 193.913 147.041 188.73L211.922 195.942C216.559 215.999 234.554 231 256 231C269.716 231 282.016 224.858 290.321 215.189L362.437 243.23C361.724 247.384 361.332 251.646 361.332 256C361.332 260.354 361.724 264.616 362.437 268.77L290.321 296.811C282.016 287.142 269.716 281 256 281ZM256 341.5C247.591 341.5 240.75 334.659 240.75 326.25C240.75 317.841 247.591 311 256 311C264.409 311 271.25 317.841 271.25 326.25C271.25 334.659 264.409 341.5 256 341.5ZM256 170.5C264.409 170.5 271.25 177.341 271.25 185.75C271.25 194.159 264.409 201 256 201C247.591 201 240.75 194.159 240.75 185.75C240.75 177.341 247.591 170.5 256 170.5ZM373.337 215.281L301.212 187.237C301.228 186.742 301.25 186.249 301.25 185.751C301.25 166.057 288.599 149.27 271 143.067V87.934C271.467 87.769 271.929 87.595 272.388 87.416L377.264 209.754C375.875 211.534 374.565 213.377 373.337 215.281ZM241 143.066C229.68 147.056 220.406 155.419 215.231 166.126L150.348 158.914C149.668 151.3 147.853 144.011 145.069 137.214L228.813 81.398C232.482 84.164 236.586 86.379 240.999 87.935V143.066H241ZM150.348 353.087L215.231 345.875C220.406 356.582 229.68 364.945 241 368.935V424.067C236.587 425.622 232.483 427.838 228.814 430.604L145.07 374.788C147.853 367.99 149.668 360.701 150.348 353.087ZM271 424.066V368.934C288.599 362.731 301.25 345.944 301.25 326.25C301.25 325.751 301.228 325.258 301.212 324.764L373.337 296.72C374.565 298.623 375.875 300.467 377.264 302.247L272.388 424.584C271.929 424.405 271.467 424.231 271 424.066ZM256 30C264.409 30 271.25 36.841 271.25 45.25C271.25 53.659 264.409 60.5 256 60.5C247.591 60.5 240.75 53.659 240.75 45.25C240.75 36.841 247.591 30 256 30ZM30 165.667C30 140.67 50.336 120.333 75.333 120.333C100.33 120.333 120.666 140.67 120.666 165.667C120.666 190.664 100.33 211 75.333 211C50.336 211 30 190.664 30 165.667ZM75.333 391.667C50.336 391.667 30 371.33 30 346.333C30 321.336 50.336 301 75.333 301C100.33 301 120.666 321.336 120.666 346.333C120.666 371.33 100.33 391.667 75.333 391.667ZM256 482C247.591 482 240.75 475.159 240.75 466.75C240.75 458.341 247.591 451.5 256 451.5C264.409 451.5 271.25 458.341 271.25 466.75C271.25 475.159 264.409 482 256 482ZM436.667 301.333C411.67 301.333 391.333 280.997 391.333 256C391.333 231.003 411.67 210.667 436.667 210.667C461.664 210.667 482 231.003 482 256C482 280.997 461.664 301.333 436.667 301.333Z" fill="#017F62"/>
</g>
<defs>
<clipPath id="clip0_483_56">
<rect width="512" height="512" fill="white"/>
</clipPath>
</defs>
</svg>
