<svg width="512" height="512" viewBox="0 0 512 512" fill="none" xmlns="http://www.w3.org/2000/svg">
<g clip-path="url(#clip0_593_27)">
<path d="M380.46 181H410.46V211H380.46V181Z" fill="#007F62"/>
<path d="M372.96 75.9997C372.96 69.6947 375.501 63.8517 380.113 59.5457C384.719 55.2457 390.749 53.1167 397.087 53.5567C408.188 54.3227 417.137 63.2707 417.903 74.3717C418.538 83.5847 413.614 92.1587 405.359 96.2147C390.234 103.645 380.46 119.445 380.46 136.469V151H410.46V136.469C410.46 130.798 413.65 125.567 418.586 123.142C437.83 113.689 449.31 93.7347 447.832 72.3077C446.041 46.3457 425.113 25.4177 399.152 23.6267C384.428 22.6167 370.395 27.5787 359.643 37.6137C349.041 47.5107 342.96 61.5017 342.96 75.9997V83.4997H372.96V75.9997Z" fill="#007F62"/>
<path d="M474.081 306.786V241H380.46V256C380.46 268.638 370.178 278.92 357.54 278.92C344.902 278.92 334.621 268.638 334.621 256V241H271V205.214C292.898 198.733 308.919 178.432 308.919 154.46C308.919 130.487 292.898 110.188 271 103.705V37.92H205.215C198.732 16.021 178.432 0 154.46 0C130.487 0 110.187 16.021 103.705 37.92H37.919V306.786C16.021 313.268 0 333.568 0 357.54C0 381.513 16.021 401.812 37.919 408.295V474.08H306.785C313.267 495.978 333.568 512 357.54 512C381.513 512 401.813 495.979 408.295 474.08H474.08V408.295C495.979 401.813 512 381.513 512 357.54C512 333.568 495.979 313.268 474.081 306.786ZM131.54 67.92V52.92C131.54 40.282 141.822 30 154.46 30C167.098 30 177.379 40.282 177.379 52.92V67.92H241V131.54H256C268.638 131.54 278.919 141.822 278.919 154.46C278.919 167.098 268.638 177.379 256 177.379H241V241H205.215C198.733 219.102 178.432 203.08 154.46 203.08C130.488 203.08 110.188 219.101 103.705 241H67.919V67.92H131.54ZM52.919 380.46C40.282 380.46 30 370.178 30 357.54C30 344.902 40.282 334.621 52.919 334.621H67.919V271H131.54V256C131.54 243.362 141.822 233.08 154.46 233.08C167.098 233.08 177.379 243.362 177.379 256V271H241V306.786C219.102 313.267 203.081 333.568 203.081 357.54C203.081 381.513 219.102 401.812 241 408.295V444.08H67.919V380.46H52.919ZM459.081 380.46H444.081V444.08H380.46V459.08C380.46 471.718 370.178 482 357.54 482C344.902 482 334.621 471.718 334.621 459.08V444.08H271V380.46H256C243.362 380.46 233.081 370.178 233.081 357.54C233.081 344.902 243.363 334.621 256 334.621H271V271H306.785C313.267 292.898 333.568 308.92 357.54 308.92C381.513 308.92 401.813 292.899 408.295 271H444.08V334.621H459.08C471.718 334.621 481.999 344.902 481.999 357.54C481.999 370.178 471.718 380.46 459.081 380.46Z" fill="#007F62"/>
</g>
<defs>
<clipPath id="clip0_593_27">
<rect width="512" height="512" fill="white"/>
</clipPath>
</defs>
</svg>
