<svg width="17" height="16" viewBox="0 0 17 16" fill="none" xmlns="http://www.w3.org/2000/svg">
<g opacity="0.8">
<path d="M6.97808 7.13019C7.60238 8.22799 8.51517 9.14079 9.61298 9.76506L10.2026 8.93952C10.3987 8.66512 10.7688 8.58032 11.0648 8.74199C12.0026 9.25432 13.0391 9.56566 14.1203 9.65126C14.467 9.67872 14.7344 9.96806 14.7344 10.3159V13.2911C14.7344 13.6329 14.4758 13.9193 14.1358 13.9542C13.7826 13.9905 13.4262 14.0088 13.0677 14.0088C7.36077 14.0088 2.73438 9.38239 2.73438 3.67546C2.73438 3.31697 2.75266 2.9606 2.78897 2.6073C2.82391 2.26729 3.11034 2.00879 3.45214 2.00879H6.42732C6.77511 2.00879 7.06446 2.27615 7.09191 2.62285C7.17749 3.70404 7.48884 4.74055 8.00117 5.67842C8.16284 5.97439 8.07804 6.34448 7.80364 6.5405L6.97808 7.13019ZM5.29721 6.69226L6.56384 5.78752C6.20469 5.01222 5.95856 4.19001 5.83256 3.34212H4.07376C4.06973 3.453 4.06771 3.56412 4.06771 3.67546C4.06771 8.64599 8.09718 12.6755 13.0677 12.6755C13.179 12.6755 13.2902 12.6735 13.401 12.6694V10.9106C12.5532 10.7846 11.731 10.5385 10.9556 10.1793L10.0509 11.446C9.68491 11.3038 9.33144 11.1365 8.99264 10.9462L8.95391 10.9241C7.64751 10.1813 6.56193 9.09566 5.81904 7.78926L5.797 7.75052C5.6067 7.41172 5.4394 7.05826 5.29721 6.69226Z" fill="white"/>
</g>
</svg>
