<svg width="59" height="59" viewBox="0 0 59 59" fill="none" xmlns="http://www.w3.org/2000/svg">
<rect x="58.2109" y="57.6255" width="57" height="57" rx="28.5" transform="rotate(-180 58.2109 57.6255)" stroke="#222222"/>
<path d="M39.9141 30.1255C40.4663 30.1255 40.9141 29.6778 40.9141 29.1255C40.9141 28.5732 40.4663 28.1255 39.9141 28.1255L39.9141 30.1255ZM18.7992 28.4184C18.4087 28.8089 18.4087 29.4421 18.7992 29.8326L25.1632 36.1966C25.5537 36.5871 26.1869 36.5871 26.5774 36.1966C26.9679 35.806 26.9679 35.1729 26.5774 34.7823L20.9206 29.1255L26.5774 23.4686C26.9679 23.0781 26.9679 22.4449 26.5774 22.0544C26.1869 21.6639 25.5537 21.6639 25.1632 22.0544L18.7992 28.4184ZM39.9141 28.1255L19.5063 28.1255L19.5063 30.1255L39.9141 30.1255L39.9141 28.1255Z" fill="#222222"/>
</svg>
