<svg width="65" height="65" viewBox="0 0 65 65" fill="none" xmlns="http://www.w3.org/2000/svg">
<rect x="0.248047" y="0.728027" width="64" height="64" rx="8" fill="#EEF6F1"/>
<path d="M31.6155 24.8485C31.0491 24.5661 30.3644 24.7949 30.082 25.3597L29.6484 26.2269L29.6267 26.2056C29.1802 25.7592 28.457 25.7592 28.0106 26.2056C27.5642 26.6521 27.5642 27.3753 28.0106 27.8217L29.1535 28.9646C29.3694 29.1811 29.6607 29.2994 29.9615 29.2994C30.0223 29.2994 30.0837 29.2949 30.1445 29.2849C30.5073 29.2257 30.8192 28.9958 30.9838 28.6677L32.1267 26.382C32.409 25.8173 32.1802 25.1309 31.6155 24.8485Z" fill="#007F62"/>
<path d="M38.7712 34.2056L34.7254 30.1598C35.3243 29.2563 35.6775 28.1763 35.6775 27.0136C35.6775 23.8629 33.1138 21.2993 29.9632 21.2993C26.8125 21.2993 24.2489 23.8629 24.2489 27.0136C24.2489 28.1763 24.6021 29.2563 25.2009 30.1598L21.1551 34.2056C20.8281 34.5326 20.7305 35.0236 20.9074 35.4511C21.0843 35.8786 21.5011 36.1565 21.9632 36.1565H24.9185L26.8694 38.1074C27.0871 38.325 27.3789 38.4422 27.6775 38.4422C27.788 38.4422 27.8996 38.4265 28.0084 38.3931C28.4118 38.2714 28.7154 37.9366 28.798 37.5236L29.7612 32.7074C29.8298 32.7099 29.894 32.7279 29.9632 32.7279C30.0323 32.7279 30.0965 32.7099 30.1651 32.7074L31.1284 37.5236C31.2109 37.9366 31.5145 38.2714 31.918 38.3931C32.0268 38.4265 32.1384 38.4422 32.2489 38.4422C32.5474 38.4422 32.8393 38.325 33.0569 38.1074L35.0078 36.1565H37.9632C38.4252 36.1565 38.8426 35.8786 39.019 35.4511C39.1964 35.0236 39.0982 34.5326 38.7712 34.2056ZM26.9755 34.9812L26.1998 34.2056C25.9855 33.9913 25.6948 33.8707 25.3917 33.8707H24.7221L26.817 31.7759C27.0444 31.9266 27.2897 32.0504 27.5383 32.1679L26.9755 34.9812ZM26.5346 27.0136C26.5346 25.123 28.0725 23.585 29.9632 23.585C31.8538 23.585 33.3917 25.123 33.3917 27.0136C33.3917 28.9042 31.8538 30.4422 29.9632 30.4422C28.0725 30.4422 26.5346 28.9042 26.5346 27.0136ZM34.5346 33.8707C34.231 33.8707 33.9409 33.9913 33.7266 34.2056L32.9509 34.9812L32.388 32.1679C32.6367 32.0504 32.8819 31.9266 33.1094 31.7759L35.2042 33.8707H34.5346Z" fill="#007F62"/>
<path d="M47.2034 42.6387L43.3418 38.7771C42.8954 38.3307 42.1722 38.3307 41.7257 38.7771L41.2006 39.3022L40.763 38.8646C42.5818 36.5374 43.6766 33.6182 43.6766 30.4423C43.6766 22.8798 37.5248 16.728 29.9623 16.728C22.4004 16.728 16.248 22.8798 16.248 30.4423C16.248 38.0048 22.4004 44.1566 29.9623 44.1566C33.1383 44.1566 36.0574 43.0617 38.3846 41.243L38.8223 41.6806L38.2972 42.2057C37.8507 42.6521 37.8507 43.3753 38.2972 43.8218L42.1588 47.6834C42.8318 48.3575 43.728 48.728 44.6811 48.728C45.6331 48.728 46.5293 48.3575 47.2034 47.6834C48.594 46.2916 48.594 44.0283 47.2034 42.6387ZM29.9623 41.8709C23.6604 41.8709 18.5338 36.7437 18.5338 30.4423C18.5338 24.141 23.6604 19.0137 29.9623 19.0137C36.2637 19.0137 41.3909 24.141 41.3909 30.4423C41.3909 36.7437 36.2637 41.8709 29.9623 41.8709ZM45.5873 46.0662C45.103 46.5517 44.2592 46.5517 43.7748 46.0673L40.7213 43.0137L42.5338 41.2012L45.5873 44.2548C46.0862 44.7548 46.0862 45.5673 45.5873 46.0662Z" fill="#007F62"/>
</svg>
