<svg width="512" height="512" viewBox="0 0 512 512" fill="none" xmlns="http://www.w3.org/2000/svg">
<g clip-path="url(#clip0_593_52)">
<path d="M72.833 155.668V170.668V185.668H307.5V155.668H72.833Z" fill="#007F62"/>
<path d="M136.833 81V96V111H243.5V81H136.833Z" fill="#007F62"/>
<path d="M436.645 38.769L380.167 114.041V0H0.166016V512H380.167V270.666L511.834 95.184L436.645 38.769ZM350.167 482H30.166V30H350.167V154.024L300.914 219.667H72.833V234.667V249.667H278.404L252.893 283.667H72.833V298.667V313.667H239.761L247.65 368.968L313.452 359.582L350.167 310.65V482ZM316.19 305.944L296.913 331.636L273.113 335.031L269.717 311.231L288.994 285.539L316.19 305.944ZM334.195 281.948L307 261.543L372.218 174.623L399.414 195.028L334.195 281.948ZM390.222 150.626L442.636 80.77L469.832 101.176L417.418 171.032L390.222 150.626Z" fill="#007F62"/>
<path d="M227.292 390.334L205.651 404.761L182.11 357.68L152.517 390.334H125.166V420.334H165.816L174.89 410.322L194.016 448.574L236.375 420.334H255.167V390.334H227.292Z" fill="#007F62"/>
</g>
<defs>
<clipPath id="clip0_593_52">
<rect width="512" height="512" fill="white"/>
</clipPath>
</defs>
</svg>
