<svg width="65" height="65" viewBox="0 0 65 65" fill="none" xmlns="http://www.w3.org/2000/svg">
<rect x="0.34375" y="0.148926" width="64" height="64" rx="8" fill="#EEF6F1"/>
<path d="M51.6543 28.6761H49.2175C48.5496 25.3548 46.915 22.3056 44.5194 19.9124C42.1239 17.5193 39.0745 15.8892 35.7554 15.2274C35.6677 14.3828 35.2704 13.6007 34.6403 13.0321C34.0103 12.4636 33.1921 12.1489 32.3439 12.1489C31.4956 12.1489 30.6774 12.4636 30.0474 13.0321C29.4173 13.6007 29.0201 14.3828 28.9324 15.2274C25.6132 15.8892 22.5639 17.5193 20.1683 19.9124C17.7728 22.3056 16.1381 25.3548 15.4702 28.6761H13.0334L12.3438 29.3664V34.8895L13.0334 35.5799H18.5507L19.2403 34.8895V29.3664L18.5507 28.6761H16.8771C17.5328 25.7018 19.0321 22.9801 21.1949 20.8379C23.3578 18.6956 26.0923 17.2237 29.0703 16.5989C29.2884 17.2972 29.7236 17.9074 30.3125 18.3407C30.9013 18.774 31.613 19.0077 32.3439 19.0077C33.0747 19.0077 33.7864 18.774 34.3753 18.3407C34.9641 17.9074 35.3993 17.2972 35.6175 16.5989C38.5954 17.2237 41.3299 18.6956 43.4928 20.8379C45.6557 22.9801 47.1549 25.7018 47.8106 28.6761H46.1371L45.4474 29.3664V34.8895L46.1371 35.5799H51.6543L52.344 34.8895V29.3664L51.6543 28.6761Z" fill="#007F62"/>
<path d="M31.7578 21.6343L21.8359 37.3567L21.8911 38.1759C23.6283 40.2376 25.0563 42.5416 26.1302 45.0153L27.4176 44.5275C26.3795 42.0442 24.9821 39.7273 23.2704 37.6512L31.6475 24.359V35.4972C31.1109 35.6625 30.6513 36.0151 30.3523 36.4909C30.0534 36.9666 29.9349 37.534 30.0184 38.0898C30.1019 38.6456 30.3818 39.1529 30.8073 39.5196C31.2329 39.8863 31.7757 40.088 32.3371 40.088C32.8986 40.088 33.4414 39.8863 33.867 39.5196C34.2925 39.1529 34.5724 38.6456 34.6559 38.0898C34.7394 37.534 34.6209 36.9666 34.322 36.4909C34.023 36.0151 33.5634 35.6625 33.0268 35.4972V24.3866L41.4039 37.6512C39.6914 39.7302 38.294 42.0502 37.2567 44.5367L38.5441 45.0245C39.6175 42.5393 41.0454 40.2231 42.7832 38.1483L42.8384 37.329L32.9165 21.6343H31.7578Z" fill="#007F62"/>
<path d="M39.0235 46.9663H25.6717C24.783 46.9663 24.0625 47.6875 24.0625 48.5772V50.5379C24.0625 51.4276 24.783 52.1488 25.6717 52.1488H39.0235C39.9122 52.1488 40.6327 51.4276 40.6327 50.5379V48.5772C40.6327 47.6875 39.9122 46.9663 39.0235 46.9663Z" fill="#007F62"/>
</svg>
