<svg width="65" height="65" viewBox="0 0 65 65" fill="none" xmlns="http://www.w3.org/2000/svg">
<g clip-path="url(#clip0_1454_1796)">
<rect x="0.34375" y="0.148926" width="64" height="64" rx="8" fill="#EEF6F1"/>
<path fill-rule="evenodd" clip-rule="evenodd" d="M22.074 19.0124C22.074 18.7519 22.1775 18.502 22.3617 18.3178C22.5459 18.1336 22.7957 18.0302 23.0562 18.0302H23.4521C23.7126 18.0302 23.9624 18.1336 24.1466 18.3178C24.3308 18.502 24.4343 18.7519 24.4343 19.0124C24.4343 19.2729 24.3308 19.5227 24.1466 19.7069C23.9624 19.8911 23.7126 19.9946 23.4521 19.9946H23.0562C22.7957 19.9946 22.5459 19.8911 22.3617 19.7069C22.1775 19.5227 22.074 19.2729 22.074 19.0124ZM18.6919 19.0124C18.692 18.7518 18.7956 18.502 18.9799 18.3178C19.1642 18.1336 19.4141 18.0302 19.6746 18.0302H20.07C20.3305 18.0302 20.5803 18.1336 20.7645 18.3178C20.9487 18.502 21.0522 18.7519 21.0522 19.0124C21.0522 19.2729 20.9487 19.5227 20.7645 19.7069C20.5803 19.8911 20.3305 19.9946 20.07 19.9946H19.6727C19.4122 19.9946 19.1623 19.8911 18.978 19.7069C18.7938 19.5227 18.6902 19.2729 18.6901 19.0124H18.6919ZM15.3098 19.0124C15.3099 18.7518 15.4135 18.502 15.5978 18.3178C15.7821 18.1336 16.032 18.0302 16.2925 18.0302H16.6879C16.9484 18.0302 17.1982 18.1336 17.3824 18.3178C17.5666 18.502 17.6701 18.7519 17.6701 19.0124C17.6701 19.2729 17.5666 19.5227 17.3824 19.7069C17.1982 19.8911 16.9484 19.9946 16.6879 19.9946H16.2925C16.032 19.9946 15.7821 19.8911 15.5978 19.7069C15.4135 19.5227 15.3099 19.2729 15.3098 19.0124ZM41.866 19.0124C41.866 18.7519 41.9694 18.502 42.1536 18.3178C42.3378 18.1336 42.5877 18.0302 42.8482 18.0302H48.3903C48.6508 18.0302 48.9006 18.1336 49.0848 18.3178C49.269 18.502 49.3725 18.7519 49.3725 19.0124C49.3725 19.2729 49.269 19.5227 49.0848 19.7069C48.9006 19.8911 48.6508 19.9946 48.3903 19.9946H42.8482C42.5877 19.9946 42.3378 19.8911 42.1536 19.7069C41.9694 19.5227 41.866 19.2729 41.866 19.0124ZM49.0377 47.3597C49.6462 47.3591 50.2297 47.1171 50.66 46.6868C51.0904 46.2566 51.3325 45.6732 51.3332 45.0646V23.6077H13.3477V45.0641C13.3483 45.6728 13.5904 46.2563 14.0207 46.6867C14.4511 47.117 15.0346 47.3591 15.6433 47.3597H49.0377ZM15.6451 15.9698C15.0361 15.9699 14.452 16.2118 14.0212 16.6423C13.5905 17.0728 13.3482 17.6568 13.3477 18.2658V21.6437H51.3332V18.2658C51.3327 17.6571 51.0907 17.0734 50.6604 16.643C50.23 16.2125 49.6464 15.9704 49.0377 15.9698H15.6451ZM49.0377 14.0049H15.6451C14.5152 14.0057 13.4318 14.4549 12.6327 15.2537C11.8336 16.0526 11.384 17.1359 11.3828 18.2658V45.0641C11.3842 46.1936 11.8335 47.2765 12.6322 48.0751C13.4309 48.8737 14.5138 49.3229 15.6433 49.3241H49.0358C50.1656 49.3234 51.249 48.8744 52.0481 48.0757C52.8472 47.2771 53.2968 46.1939 53.2981 45.0641V18.2658C53.2968 17.1363 52.8475 16.0534 52.0488 15.2547C51.2501 14.456 50.1672 14.0062 49.0377 14.0049Z" fill="#007F62"/>
</g>
<defs>
<clipPath id="clip0_1454_1796">
<rect x="0.34375" y="0.148926" width="64" height="64" rx="8" fill="white"/>
</clipPath>
</defs>
</svg>
